# generado por tools/vox_to_obj.py desde cerdo_v4.vox
mtllib cerdo_v4.mtl
v -1.0500 0.4000 0.5000
v -1.0500 0.5000 0.5000
v -1.0500 0.5000 0.4000
v -1.0500 0.4000 0.4000
v -0.9500 0.4000 0.5000
v -0.9500 0.5000 0.5000
v -0.9500 0.4000 0.4000
v -1.0500 0.6000 0.5000
v -1.0500 0.6000 0.4000
v -0.9500 0.6000 0.5000
v -1.0500 0.7000 0.5000
v -1.0500 0.7000 0.4000
v -0.9500 0.7000 0.5000
v -1.0500 0.8000 0.5000
v -1.0500 0.8000 0.4000
v -0.9500 0.8000 0.5000
v -1.0500 0.9000 0.5000
v -1.0500 0.9000 0.4000
v -0.9500 0.9000 0.5000
v -1.0500 1.0000 0.5000
v -1.0500 1.0000 0.4000
v -0.9500 1.0000 0.5000
v -1.0500 1.1000 0.5000
v -1.0500 1.1000 0.4000
v -0.9500 1.1000 0.5000
v -1.0500 1.2000 0.5000
v -1.0500 1.2000 0.4000
v -0.9500 1.2000 0.5000
v -1.0500 1.3000 0.5000
v -1.0500 1.3000 0.4000
v -0.9500 1.3000 0.5000
v -0.9500 1.3000 0.4000
v -1.0500 0.5000 0.3000
v -1.0500 0.4000 0.3000
v -0.9500 0.4000 0.3000
v -1.0500 0.6000 0.3000
v -1.0500 0.7000 0.3000
v -1.0500 0.8000 0.3000
v -1.0500 0.9000 0.3000
v -1.0500 1.0000 0.3000
v -1.0500 1.1000 0.3000
v -1.0500 1.2000 0.3000
v -1.0500 1.3000 0.3000
v -1.0500 1.4000 0.4000
v -1.0500 1.4000 0.3000
v -0.9500 1.4000 0.4000
v -0.9500 1.4000 0.3000
v -1.0500 0.5000 0.2000
v -1.0500 0.4000 0.2000
v -0.9500 0.4000 0.2000
v -1.0500 0.6000 0.2000
v -1.0500 0.7000 0.2000
v -1.0500 0.8000 0.2000
v -1.0500 0.9000 0.2000
v -1.0500 1.0000 0.2000
v -1.0500 1.1000 0.2000
v -1.0500 1.2000 0.2000
v -1.0500 1.3000 0.2000
v -1.0500 1.4000 0.2000
v -0.9500 1.4000 0.2000
v -1.0500 0.5000 0.1000
v -1.0500 0.4000 0.1000
v -0.9500 0.4000 0.1000
v -1.0500 0.6000 0.1000
v -1.0500 0.7000 0.1000
v -1.0500 0.8000 0.1000
v -1.0500 0.9000 0.1000
v -1.0500 1.0000 0.1000
v -1.0500 1.1000 0.1000
v -1.0500 1.2000 0.1000
v -1.0500 1.3000 0.1000
v -1.0500 1.4000 0.1000
v -0.9500 1.4000 0.1000
v -1.0500 0.5000 0.0000
v -1.0500 0.4000 0.0000
v -0.9500 0.4000 0.0000
v -1.0500 0.6000 0.0000
v -1.0500 0.7000 0.0000
v -1.0500 0.8000 0.0000
v -1.0500 0.9000 0.0000
v -1.0500 1.0000 0.0000
v -1.0500 1.2000 0.0000
v -1.0500 1.1000 0.0000
v -1.0500 1.3000 0.0000
v -1.0500 1.4000 0.0000
v -0.9500 1.4000 0.0000
v -1.0500 0.5000 -0.1000
v -1.0500 0.4000 -0.1000
v -0.9500 0.4000 -0.1000
v -1.0500 0.6000 -0.1000
v -1.0500 0.7000 -0.1000
v -1.0500 0.8000 -0.1000
v -1.0500 0.9000 -0.1000
v -1.0500 1.0000 -0.1000
v -1.0500 1.1000 -0.1000
v -1.0500 1.2000 -0.1000
v -1.0500 1.3000 -0.1000
v -1.0500 1.4000 -0.1000
v -0.9500 1.4000 -0.1000
v -1.0500 0.5000 -0.2000
v -1.0500 0.4000 -0.2000
v -0.9500 0.4000 -0.2000
v -1.0500 0.6000 -0.2000
v -1.0500 0.7000 -0.2000
v -1.0500 0.8000 -0.2000
v -1.0500 0.9000 -0.2000
v -1.0500 1.0000 -0.2000
v -1.0500 1.1000 -0.2000
v -1.0500 1.2000 -0.2000
v -1.0500 1.3000 -0.2000
v -1.0500 1.4000 -0.2000
v -0.9500 1.4000 -0.2000
v -1.0500 0.5000 -0.3000
v -1.0500 0.4000 -0.3000
v -0.9500 0.4000 -0.3000
v -1.0500 0.6000 -0.3000
v -1.0500 0.7000 -0.3000
v -1.0500 0.8000 -0.3000
v -1.0500 0.9000 -0.3000
v -1.0500 1.0000 -0.3000
v -1.0500 1.1000 -0.3000
v -1.0500 1.2000 -0.3000
v -1.0500 1.3000 -0.3000
v -1.0500 1.4000 -0.3000
v -0.9500 1.4000 -0.3000
v -1.0500 0.5000 -0.4000
v -1.0500 0.4000 -0.4000
v -0.9500 0.4000 -0.4000
v -1.0500 0.6000 -0.4000
v -1.0500 0.7000 -0.4000
v -1.0500 0.8000 -0.4000
v -1.0500 0.9000 -0.4000
v -1.0500 1.0000 -0.4000
v -1.0500 1.1000 -0.4000
v -1.0500 1.2000 -0.4000
v -1.0500 1.3000 -0.4000
v -1.0500 1.4000 -0.4000
v -0.9500 1.4000 -0.4000
v -0.9500 1.3000 -0.4000
v -1.0500 0.5000 -0.5000
v -1.0500 0.4000 -0.5000
v -0.9500 0.5000 -0.5000
v -0.9500 0.4000 -0.5000
v -1.0500 0.6000 -0.5000
v -0.9500 0.6000 -0.5000
v -1.0500 0.7000 -0.5000
v -0.9500 0.7000 -0.5000
v -1.0500 0.8000 -0.5000
v -0.9500 0.8000 -0.5000
v -1.0500 0.9000 -0.5000
v -0.9500 0.9000 -0.5000
v -1.0500 1.0000 -0.5000
v -0.9500 1.0000 -0.5000
v -1.0500 1.1000 -0.5000
v -0.9500 1.1000 -0.5000
v -1.0500 1.2000 -0.5000
v -0.9500 1.2000 -0.5000
v -1.0500 1.3000 -0.5000
v -0.9500 1.3000 -0.5000
v -0.8500 0.4000 0.5000
v -0.8500 0.5000 0.5000
v -0.8500 0.4000 0.4000
v -0.8500 0.6000 0.5000
v -0.8500 0.7000 0.5000
v -0.8500 0.8000 0.5000
v -0.8500 0.9000 0.5000
v -0.8500 1.0000 0.5000
v -0.8500 1.1000 0.5000
v -0.8500 1.2000 0.5000
v -0.8500 1.3000 0.5000
v -0.9500 1.4000 0.5000
v -0.8500 1.4000 0.5000
v -0.8500 1.4000 0.4000
v -0.8500 0.4000 0.3000
v -0.8500 1.4000 0.3000
v -0.8500 0.4000 0.2000
v -0.8500 1.4000 0.2000
v -0.8500 0.4000 0.1000
v -0.8500 1.4000 0.1000
v -0.8500 0.4000 0.0000
v -0.8500 1.4000 0.0000
v -0.8500 0.4000 -0.1000
v -0.8500 1.4000 -0.1000
v -0.8500 0.4000 -0.2000
v -0.8500 1.4000 -0.2000
v -0.8500 0.4000 -0.3000
v -0.8500 1.4000 -0.3000
v -0.8500 0.4000 -0.4000
v -0.8500 1.4000 -0.4000
v -0.8500 0.5000 -0.5000
v -0.8500 0.4000 -0.5000
v -0.8500 0.6000 -0.5000
v -0.8500 0.7000 -0.5000
v -0.8500 0.8000 -0.5000
v -0.8500 0.9000 -0.5000
v -0.8500 1.0000 -0.5000
v -0.8500 1.1000 -0.5000
v -0.8500 1.2000 -0.5000
v -0.8500 1.3000 -0.5000
v -0.9500 1.4000 -0.5000
v -0.8500 1.4000 -0.5000
v -0.7500 0.4000 0.5000
v -0.7500 0.5000 0.5000
v -0.7500 0.4000 0.4000
v -0.7500 0.6000 0.5000
v -0.7500 0.7000 0.5000
v -0.7500 0.8000 0.5000
v -0.7500 0.9000 0.5000
v -0.7500 1.0000 0.5000
v -0.7500 1.1000 0.5000
v -0.7500 1.2000 0.5000
v -0.7500 1.3000 0.5000
v -0.7500 1.4000 0.5000
v -0.7500 1.4000 0.4000
v -0.7500 1.4000 0.3000
v -0.7500 1.4000 0.2000
v -0.7500 0.4000 0.1000
v -0.7500 0.4000 0.2000
v -0.7500 1.4000 0.1000
v -0.7500 0.4000 0.0000
v -0.7500 1.4000 0.0000
v -0.7500 0.4000 -0.1000
v -0.7500 1.4000 -0.1000
v -0.7500 0.4000 -0.2000
v -0.7500 1.4000 -0.2000
v -0.7500 1.4000 -0.3000
v -0.7500 1.4000 -0.4000
v -0.7500 0.5000 -0.5000
v -0.7500 0.4000 -0.5000
v -0.7500 0.4000 -0.4000
v -0.7500 0.6000 -0.5000
v -0.7500 0.7000 -0.5000
v -0.7500 0.8000 -0.5000
v -0.7500 0.9000 -0.5000
v -0.7500 1.0000 -0.5000
v -0.7500 1.1000 -0.5000
v -0.7500 1.2000 -0.5000
v -0.7500 1.3000 -0.5000
v -0.7500 1.4000 -0.5000
v -0.6500 0.4000 0.5000
v -0.6500 0.5000 0.5000
v -0.6500 0.4000 0.4000
v -0.6500 0.6000 0.5000
v -0.6500 0.7000 0.5000
v -0.6500 0.8000 0.5000
v -0.6500 0.9000 0.5000
v -0.6500 1.0000 0.5000
v -0.6500 1.1000 0.5000
v -0.6500 1.2000 0.5000
v -0.6500 1.3000 0.5000
v -0.6500 1.4000 0.5000
v -0.6500 1.4000 0.4000
v -0.6500 1.4000 0.3000
v -0.6500 1.4000 0.2000
v -0.6500 0.4000 0.1000
v -0.6500 0.4000 0.2000
v -0.6500 1.4000 0.1000
v -0.6500 0.4000 0.0000
v -0.6500 1.4000 0.0000
v -0.6500 0.4000 -0.1000
v -0.6500 1.4000 -0.1000
v -0.6500 0.4000 -0.2000
v -0.6500 1.4000 -0.2000
v -0.6500 1.4000 -0.3000
v -0.6500 1.4000 -0.4000
v -0.6500 0.5000 -0.5000
v -0.6500 0.4000 -0.5000
v -0.6500 0.4000 -0.4000
v -0.6500 0.6000 -0.5000
v -0.6500 0.7000 -0.5000
v -0.6500 0.8000 -0.5000
v -0.6500 0.9000 -0.5000
v -0.6500 1.0000 -0.5000
v -0.6500 1.1000 -0.5000
v -0.6500 1.2000 -0.5000
v -0.6500 1.3000 -0.5000
v -0.6500 1.4000 -0.5000
v -0.5500 0.4000 0.5000
v -0.5500 0.5000 0.5000
v -0.5500 0.4000 0.4000
v -0.5500 0.6000 0.5000
v -0.5500 0.7000 0.5000
v -0.5500 0.8000 0.5000
v -0.5500 0.9000 0.5000
v -0.5500 1.0000 0.5000
v -0.5500 1.1000 0.5000
v -0.5500 1.2000 0.5000
v -0.5500 1.3000 0.5000
v -0.5500 1.4000 0.5000
v -0.5500 1.4000 0.4000
v -0.6500 0.4000 0.3000
v -0.5500 0.4000 0.3000
v -0.5500 1.4000 0.3000
v -0.5500 0.4000 0.2000
v -0.5500 1.4000 0.2000
v -0.5500 0.4000 0.1000
v -0.5500 1.4000 0.1000
v -0.5500 0.4000 0.0000
v -0.5500 1.4000 0.0000
v -0.5500 0.4000 -0.1000
v -0.5500 1.4000 -0.1000
v -0.5500 0.4000 -0.2000
v -0.5500 1.4000 -0.2000
v -0.6500 0.4000 -0.3000
v -0.5500 0.4000 -0.3000
v -0.5500 1.4000 -0.3000
v -0.5500 0.4000 -0.4000
v -0.5500 1.4000 -0.4000
v -0.5500 0.5000 -0.5000
v -0.5500 0.4000 -0.5000
v -0.5500 0.6000 -0.5000
v -0.5500 0.7000 -0.5000
v -0.5500 0.8000 -0.5000
v -0.5500 0.9000 -0.5000
v -0.5500 1.0000 -0.5000
v -0.5500 1.1000 -0.5000
v -0.5500 1.2000 -0.5000
v -0.5500 1.3000 -0.5000
v -0.5500 1.4000 -0.5000
v -0.4500 0.4000 0.5000
v -0.4500 0.5000 0.5000
v -0.4500 0.4000 0.4000
v -0.4500 0.6000 0.5000
v -0.4500 0.7000 0.5000
v -0.4500 0.8000 0.5000
v -0.4500 0.9000 0.5000
v -0.4500 1.0000 0.5000
v -0.4500 1.1000 0.5000
v -0.4500 1.2000 0.5000
v -0.4500 1.3000 0.5000
v -0.4500 1.4000 0.5000
v -0.4500 1.4000 0.4000
v -0.4500 0.4000 0.3000
v -0.4500 1.4000 0.3000
v -0.4500 0.4000 0.2000
v -0.4500 1.4000 0.2000
v -0.4500 0.4000 0.1000
v -0.4500 1.4000 0.1000
v -0.4500 0.4000 0.0000
v -0.4500 1.4000 0.0000
v -0.4500 0.4000 -0.1000
v -0.4500 1.4000 -0.1000
v -0.4500 0.4000 -0.2000
v -0.4500 1.4000 -0.2000
v -0.4500 0.4000 -0.3000
v -0.4500 1.4000 -0.3000
v -0.4500 0.4000 -0.4000
v -0.4500 1.4000 -0.4000
v -0.4500 0.5000 -0.5000
v -0.4500 0.4000 -0.5000
v -0.4500 0.6000 -0.5000
v -0.4500 0.7000 -0.5000
v -0.4500 0.8000 -0.5000
v -0.4500 0.9000 -0.5000
v -0.4500 1.0000 -0.5000
v -0.4500 1.1000 -0.5000
v -0.4500 1.2000 -0.5000
v -0.4500 1.3000 -0.5000
v -0.4500 1.4000 -0.5000
v -0.3500 0.4000 0.5000
v -0.3500 0.5000 0.5000
v -0.3500 0.4000 0.4000
v -0.3500 0.6000 0.5000
v -0.3500 0.7000 0.5000
v -0.3500 0.8000 0.5000
v -0.3500 0.9000 0.5000
v -0.3500 1.0000 0.5000
v -0.3500 1.1000 0.5000
v -0.3500 1.2000 0.5000
v -0.3500 1.3000 0.5000
v -0.3500 1.4000 0.5000
v -0.3500 1.4000 0.4000
v -0.3500 0.4000 0.3000
v -0.3500 1.4000 0.3000
v -0.3500 0.4000 0.2000
v -0.3500 1.4000 0.2000
v -0.3500 0.4000 0.1000
v -0.3500 1.4000 0.1000
v -0.3500 0.4000 0.0000
v -0.3500 1.4000 0.0000
v -0.3500 0.4000 -0.1000
v -0.3500 1.4000 -0.1000
v -0.3500 0.4000 -0.2000
v -0.3500 1.4000 -0.2000
v -0.3500 0.4000 -0.3000
v -0.3500 1.4000 -0.3000
v -0.3500 0.4000 -0.4000
v -0.3500 1.4000 -0.4000
v -0.3500 0.5000 -0.5000
v -0.3500 0.4000 -0.5000
v -0.3500 0.6000 -0.5000
v -0.3500 0.7000 -0.5000
v -0.3500 0.8000 -0.5000
v -0.3500 0.9000 -0.5000
v -0.3500 1.0000 -0.5000
v -0.3500 1.1000 -0.5000
v -0.3500 1.2000 -0.5000
v -0.3500 1.3000 -0.5000
v -0.3500 1.4000 -0.5000
v -0.2500 0.4000 0.5000
v -0.2500 0.5000 0.5000
v -0.2500 0.4000 0.4000
v -0.2500 0.6000 0.5000
v -0.2500 0.7000 0.5000
v -0.2500 0.8000 0.5000
v -0.2500 0.9000 0.5000
v -0.2500 1.0000 0.5000
v -0.2500 1.1000 0.5000
v -0.2500 1.2000 0.5000
v -0.2500 1.3000 0.5000
v -0.2500 1.4000 0.5000
v -0.2500 1.4000 0.4000
v -0.2500 0.4000 0.3000
v -0.2500 1.4000 0.3000
v -0.2500 0.4000 0.2000
v -0.2500 1.4000 0.2000
v -0.2500 0.4000 0.1000
v -0.2500 1.4000 0.1000
v -0.2500 0.4000 0.0000
v -0.2500 1.4000 0.0000
v -0.2500 0.4000 -0.1000
v -0.2500 1.4000 -0.1000
v -0.2500 0.4000 -0.2000
v -0.2500 1.4000 -0.2000
v -0.2500 0.4000 -0.3000
v -0.2500 1.4000 -0.3000
v -0.2500 0.4000 -0.4000
v -0.2500 1.4000 -0.4000
v -0.2500 0.5000 -0.5000
v -0.2500 0.4000 -0.5000
v -0.2500 0.6000 -0.5000
v -0.2500 0.7000 -0.5000
v -0.2500 0.8000 -0.5000
v -0.2500 0.9000 -0.5000
v -0.2500 1.0000 -0.5000
v -0.2500 1.1000 -0.5000
v -0.2500 1.2000 -0.5000
v -0.2500 1.3000 -0.5000
v -0.2500 1.4000 -0.5000
v -0.1500 0.4000 0.5000
v -0.1500 0.5000 0.5000
v -0.1500 0.4000 0.4000
v -0.1500 0.6000 0.5000
v -0.1500 0.7000 0.5000
v -0.1500 0.8000 0.5000
v -0.1500 0.9000 0.5000
v -0.1500 1.0000 0.5000
v -0.1500 1.1000 0.5000
v -0.1500 1.2000 0.5000
v -0.1500 1.3000 0.5000
v -0.1500 1.4000 0.5000
v -0.1500 1.4000 0.4000
v -0.1500 0.4000 0.3000
v -0.1500 1.4000 0.3000
v -0.1500 0.4000 0.2000
v -0.1500 1.4000 0.2000
v -0.1500 0.4000 0.1000
v -0.1500 1.4000 0.1000
v -0.1500 0.4000 0.0000
v -0.1500 1.4000 0.0000
v -0.1500 0.4000 -0.1000
v -0.1500 1.4000 -0.1000
v -0.1500 0.4000 -0.2000
v -0.1500 1.4000 -0.2000
v -0.1500 0.4000 -0.3000
v -0.1500 1.4000 -0.3000
v -0.1500 0.4000 -0.4000
v -0.1500 1.4000 -0.4000
v -0.1500 0.5000 -0.5000
v -0.1500 0.4000 -0.5000
v -0.1500 0.6000 -0.5000
v -0.1500 0.7000 -0.5000
v -0.1500 0.8000 -0.5000
v -0.1500 0.9000 -0.5000
v -0.1500 1.0000 -0.5000
v -0.1500 1.1000 -0.5000
v -0.1500 1.2000 -0.5000
v -0.1500 1.3000 -0.5000
v -0.1500 1.4000 -0.5000
v -0.0500 0.4000 0.5000
v -0.0500 0.5000 0.5000
v -0.0500 0.4000 0.4000
v -0.0500 0.6000 0.5000
v -0.0500 0.7000 0.5000
v -0.0500 0.8000 0.5000
v -0.0500 0.9000 0.5000
v -0.0500 1.0000 0.5000
v -0.0500 1.1000 0.5000
v -0.0500 1.2000 0.5000
v -0.0500 1.3000 0.5000
v -0.0500 1.4000 0.5000
v -0.0500 1.4000 0.4000
v -0.0500 0.4000 0.3000
v -0.0500 1.4000 0.3000
v -0.0500 0.4000 0.2000
v -0.0500 1.4000 0.2000
v -0.0500 0.4000 0.1000
v -0.0500 1.4000 0.1000
v -0.0500 0.4000 0.0000
v -0.0500 1.4000 0.0000
v -0.0500 0.4000 -0.1000
v -0.0500 1.4000 -0.1000
v -0.0500 0.4000 -0.2000
v -0.0500 1.4000 -0.2000
v -0.0500 0.4000 -0.3000
v -0.0500 1.4000 -0.3000
v -0.0500 0.4000 -0.4000
v -0.0500 1.4000 -0.4000
v -0.0500 0.5000 -0.5000
v -0.0500 0.4000 -0.5000
v -0.0500 0.6000 -0.5000
v -0.0500 0.7000 -0.5000
v -0.0500 0.8000 -0.5000
v -0.0500 0.9000 -0.5000
v -0.0500 1.0000 -0.5000
v -0.0500 1.1000 -0.5000
v -0.0500 1.2000 -0.5000
v -0.0500 1.3000 -0.5000
v -0.0500 1.4000 -0.5000
v 0.0500 0.4000 0.5000
v 0.0500 0.5000 0.5000
v 0.0500 0.4000 0.4000
v 0.0500 0.6000 0.5000
v 0.0500 0.7000 0.5000
v 0.0500 0.8000 0.5000
v 0.0500 0.9000 0.5000
v 0.0500 1.0000 0.5000
v 0.0500 1.1000 0.5000
v 0.0500 1.2000 0.5000
v 0.0500 1.3000 0.5000
v 0.0500 1.4000 0.5000
v 0.0500 1.4000 0.4000
v 0.0500 0.4000 0.3000
v 0.0500 1.4000 0.3000
v 0.0500 0.4000 0.2000
v 0.0500 1.4000 0.2000
v 0.0500 0.4000 0.1000
v 0.0500 1.4000 0.1000
v 0.0500 0.4000 0.0000
v 0.0500 1.4000 0.0000
v 0.0500 0.4000 -0.1000
v 0.0500 1.4000 -0.1000
v 0.0500 0.4000 -0.2000
v 0.0500 1.4000 -0.2000
v 0.0500 0.4000 -0.3000
v 0.0500 1.4000 -0.3000
v 0.0500 0.4000 -0.4000
v 0.0500 1.4000 -0.4000
v 0.0500 0.5000 -0.5000
v 0.0500 0.4000 -0.5000
v 0.0500 0.6000 -0.5000
v 0.0500 0.7000 -0.5000
v 0.0500 0.8000 -0.5000
v 0.0500 0.9000 -0.5000
v 0.0500 1.0000 -0.5000
v 0.0500 1.1000 -0.5000
v 0.0500 1.2000 -0.5000
v 0.0500 1.3000 -0.5000
v 0.0500 1.4000 -0.5000
v 0.1500 0.4000 0.5000
v 0.1500 0.5000 0.5000
v 0.1500 0.4000 0.4000
v 0.1500 0.6000 0.5000
v 0.1500 0.7000 0.5000
v 0.1500 0.8000 0.5000
v 0.1500 0.9000 0.5000
v 0.1500 1.0000 0.5000
v 0.1500 1.1000 0.5000
v 0.1500 1.2000 0.5000
v 0.1500 1.3000 0.5000
v 0.1500 1.4000 0.5000
v 0.1500 1.4000 0.4000
v 0.1500 0.4000 0.3000
v 0.1500 1.4000 0.3000
v 0.1500 0.4000 0.2000
v 0.1500 1.4000 0.2000
v 0.1500 0.4000 0.1000
v 0.1500 1.4000 0.1000
v 0.1500 0.4000 0.0000
v 0.1500 1.4000 0.0000
v 0.1500 0.4000 -0.1000
v 0.1500 1.4000 -0.1000
v 0.1500 0.4000 -0.2000
v 0.1500 1.4000 -0.2000
v 0.1500 0.4000 -0.3000
v 0.1500 1.4000 -0.3000
v 0.1500 0.4000 -0.4000
v 0.1500 1.4000 -0.4000
v 0.1500 0.5000 -0.5000
v 0.1500 0.4000 -0.5000
v 0.1500 0.6000 -0.5000
v 0.1500 0.7000 -0.5000
v 0.1500 0.8000 -0.5000
v 0.1500 0.9000 -0.5000
v 0.1500 1.0000 -0.5000
v 0.1500 1.1000 -0.5000
v 0.1500 1.2000 -0.5000
v 0.1500 1.3000 -0.5000
v 0.1500 1.4000 -0.5000
v 0.2500 0.4000 0.5000
v 0.2500 0.5000 0.5000
v 0.2500 0.4000 0.4000
v 0.2500 0.6000 0.5000
v 0.2500 0.7000 0.5000
v 0.2500 0.8000 0.5000
v 0.2500 0.9000 0.5000
v 0.2500 1.0000 0.5000
v 0.2500 1.1000 0.5000
v 0.2500 1.2000 0.5000
v 0.2500 1.3000 0.5000
v 0.2500 1.4000 0.5000
v 0.2500 1.4000 0.4000
v 0.2500 0.4000 0.3000
v 0.2500 1.4000 0.3000
v 0.2500 0.4000 0.2000
v 0.2500 1.4000 0.2000
v 0.2500 0.4000 0.1000
v 0.2500 1.4000 0.1000
v 0.2500 0.4000 0.0000
v 0.2500 1.4000 0.0000
v 0.2500 0.4000 -0.1000
v 0.2500 1.4000 -0.1000
v 0.2500 0.4000 -0.2000
v 0.2500 1.4000 -0.2000
v 0.2500 0.4000 -0.3000
v 0.2500 1.4000 -0.3000
v 0.2500 0.4000 -0.4000
v 0.2500 1.4000 -0.4000
v 0.2500 0.5000 -0.5000
v 0.2500 0.4000 -0.5000
v 0.2500 0.6000 -0.5000
v 0.2500 0.7000 -0.5000
v 0.2500 0.8000 -0.5000
v 0.2500 0.9000 -0.5000
v 0.2500 1.0000 -0.5000
v 0.2500 1.1000 -0.5000
v 0.2500 1.2000 -0.5000
v 0.2500 1.3000 -0.5000
v 0.2500 1.4000 -0.5000
v 0.3500 0.4000 0.5000
v 0.3500 0.5000 0.5000
v 0.3500 0.4000 0.4000
v 0.3500 0.6000 0.5000
v 0.3500 0.7000 0.5000
v 0.3500 0.8000 0.5000
v 0.3500 0.9000 0.5000
v 0.3500 1.0000 0.5000
v 0.3500 1.1000 0.5000
v 0.3500 1.2000 0.5000
v 0.3500 1.3000 0.5000
v 0.3500 1.4000 0.5000
v 0.3500 1.4000 0.4000
v 0.3500 1.4000 0.3000
v 0.3500 1.4000 0.2000
v 0.3500 0.4000 0.1000
v 0.3500 0.4000 0.2000
v 0.3500 1.4000 0.1000
v 0.3500 0.4000 0.0000
v 0.3500 1.4000 0.0000
v 0.3500 0.4000 -0.1000
v 0.3500 1.4000 -0.1000
v 0.3500 0.4000 -0.2000
v 0.3500 1.4000 -0.2000
v 0.3500 1.4000 -0.3000
v 0.3500 1.4000 -0.4000
v 0.3500 0.5000 -0.5000
v 0.3500 0.4000 -0.5000
v 0.3500 0.4000 -0.4000
v 0.3500 0.6000 -0.5000
v 0.3500 0.7000 -0.5000
v 0.3500 0.8000 -0.5000
v 0.3500 0.9000 -0.5000
v 0.3500 1.0000 -0.5000
v 0.3500 1.1000 -0.5000
v 0.3500 1.2000 -0.5000
v 0.3500 1.3000 -0.5000
v 0.3500 1.4000 -0.5000
v 0.4500 0.4000 0.5000
v 0.4500 0.5000 0.5000
v 0.4500 0.4000 0.4000
v 0.4500 0.6000 0.5000
v 0.4500 0.7000 0.5000
v 0.4500 0.8000 0.5000
v 0.4500 0.9000 0.5000
v 0.4500 1.0000 0.5000
v 0.4500 1.1000 0.5000
v 0.4500 1.2000 0.5000
v 0.4500 1.3000 0.5000
v 0.4500 1.4000 0.5000
v 0.4500 1.4000 0.4000
v 0.4500 1.4000 0.3000
v 0.4500 1.4000 0.2000
v 0.4500 0.4000 0.1000
v 0.4500 0.4000 0.2000
v 0.4500 1.4000 0.1000
v 0.4500 0.4000 0.0000
v 0.4500 1.4000 0.0000
v 0.4500 0.4000 -0.1000
v 0.4500 1.4000 -0.1000
v 0.4500 0.4000 -0.2000
v 0.4500 1.4000 -0.2000
v 0.4500 1.4000 -0.3000
v 0.4500 1.4000 -0.4000
v 0.4500 0.5000 -0.5000
v 0.4500 0.4000 -0.5000
v 0.4500 0.4000 -0.4000
v 0.4500 0.6000 -0.5000
v 0.4500 0.7000 -0.5000
v 0.4500 0.8000 -0.5000
v 0.4500 0.9000 -0.5000
v 0.4500 1.0000 -0.5000
v 0.4500 1.1000 -0.5000
v 0.4500 1.2000 -0.5000
v 0.4500 1.3000 -0.5000
v 0.4500 1.4000 -0.5000
v 0.5500 0.4000 0.5000
v 0.5500 0.4000 0.4000
v 0.5500 0.5000 0.4000
v 0.5500 0.5000 0.5000
v 0.5500 0.6000 0.4000
v 0.5500 0.6000 0.5000
v 0.5500 0.7000 0.4000
v 0.5500 0.7000 0.5000
v 0.5500 0.8000 0.4000
v 0.5500 0.8000 0.5000
v 0.5500 0.9000 0.4000
v 0.5500 0.9000 0.5000
v 0.5500 1.0000 0.4000
v 0.5500 1.0000 0.5000
v 0.5500 1.1000 0.4000
v 0.5500 1.1000 0.5000
v 0.5500 1.2000 0.4000
v 0.5500 1.2000 0.5000
v 0.5500 1.3000 0.4000
v 0.5500 1.3000 0.5000
v 0.5500 1.4000 0.4000
v 0.5500 1.4000 0.5000
v 0.4500 0.4000 0.3000
v 0.5500 0.4000 0.3000
v 0.5500 1.2000 0.3000
v 0.5500 1.3000 0.3000
v 0.5500 1.4000 0.3000
v 0.5500 0.4000 0.2000
v 0.5500 1.2000 0.2000
v 0.5500 1.3000 0.2000
v 0.5500 1.4000 0.2000
v 0.5500 0.4000 0.1000
v 0.5500 1.2000 0.1000
v 0.5500 1.3000 0.1000
v 0.5500 1.4000 0.1000
v 0.5500 0.4000 0.0000
v 0.5500 1.2000 0.0000
v 0.5500 1.3000 0.0000
v 0.5500 1.4000 0.0000
v 0.5500 0.4000 -0.1000
v 0.5500 1.2000 -0.1000
v 0.5500 1.3000 -0.1000
v 0.5500 1.4000 -0.1000
v 0.5500 0.4000 -0.2000
v 0.5500 1.2000 -0.2000
v 0.5500 1.3000 -0.2000
v 0.5500 1.4000 -0.2000
v 0.4500 0.4000 -0.3000
v 0.5500 0.4000 -0.3000
v 0.5500 1.2000 -0.3000
v 0.5500 1.3000 -0.3000
v 0.5500 1.4000 -0.3000
v 0.5500 0.4000 -0.4000
v 0.5500 1.2000 -0.4000
v 0.5500 1.3000 -0.4000
v 0.5500 1.4000 -0.4000
v 0.5500 0.4000 -0.5000
v 0.5500 0.5000 -0.5000
v 0.5500 0.5000 -0.4000
v 0.5500 0.6000 -0.5000
v 0.5500 0.6000 -0.4000
v 0.5500 0.7000 -0.5000
v 0.5500 0.7000 -0.4000
v 0.5500 0.8000 -0.5000
v 0.5500 0.8000 -0.4000
v 0.5500 0.9000 -0.5000
v 0.5500 0.9000 -0.4000
v 0.5500 1.0000 -0.5000
v 0.5500 1.0000 -0.4000
v 0.5500 1.1000 -0.5000
v 0.5500 1.1000 -0.4000
v 0.5500 1.2000 -0.5000
v 0.5500 1.3000 -0.5000
v 0.5500 1.4000 -0.5000
v 0.6500 0.4000 0.4000
v 0.6500 0.5000 0.4000
v 0.6500 0.4000 0.3000
v 0.6500 0.6000 0.4000
v 0.6500 0.7000 0.4000
v 0.6500 0.8000 0.4000
v 0.6500 0.9000 0.4000
v 0.6500 1.0000 0.4000
v 0.6500 1.1000 0.4000
v 0.6500 1.2000 0.4000
v 0.6500 1.2000 0.3000
v 0.6500 0.4000 0.2000
v 0.6500 1.2000 0.2000
v 0.6500 0.4000 0.1000
v 0.6500 1.2000 0.1000
v 0.6500 0.4000 0.0000
v 0.6500 1.2000 0.0000
v 0.6500 0.4000 -0.1000
v 0.6500 1.2000 -0.1000
v 0.6500 0.4000 -0.2000
v 0.6500 1.2000 -0.2000
v 0.6500 0.4000 -0.3000
v 0.6500 1.2000 -0.3000
v 0.6500 0.5000 -0.4000
v 0.6500 0.4000 -0.4000
v 0.6500 0.6000 -0.4000
v 0.6500 0.7000 -0.4000
v 0.6500 0.8000 -0.4000
v 0.6500 0.9000 -0.4000
v 0.6500 1.0000 -0.4000
v 0.6500 1.1000 -0.4000
v 0.6500 1.2000 -0.4000
v 0.7500 0.4000 0.4000
v 0.7500 0.5000 0.4000
v 0.7500 0.4000 0.3000
v 0.7500 0.6000 0.4000
v 0.7500 0.7000 0.4000
v 0.7500 0.8000 0.4000
v 0.7500 0.9000 0.4000
v 0.7500 1.0000 0.4000
v 0.7500 1.1000 0.4000
v 0.7500 1.2000 0.4000
v 0.7500 1.2000 0.3000
v 0.7500 0.4000 0.2000
v 0.7500 1.2000 0.2000
v 0.7500 0.4000 0.1000
v 0.7500 1.2000 0.1000
v 0.7500 0.4000 0.0000
v 0.7500 1.2000 0.0000
v 0.7500 0.4000 -0.1000
v 0.7500 1.2000 -0.1000
v 0.7500 0.4000 -0.2000
v 0.7500 1.2000 -0.2000
v 0.7500 0.4000 -0.3000
v 0.7500 1.2000 -0.3000
v 0.7500 0.5000 -0.4000
v 0.7500 0.4000 -0.4000
v 0.7500 0.6000 -0.4000
v 0.7500 0.7000 -0.4000
v 0.7500 0.8000 -0.4000
v 0.7500 0.9000 -0.4000
v 0.7500 1.0000 -0.4000
v 0.7500 1.1000 -0.4000
v 0.7500 1.2000 -0.4000
v 0.8500 0.4000 0.4000
v 0.8500 0.5000 0.4000
v 0.8500 0.4000 0.3000
v 0.8500 0.6000 0.4000
v 0.8500 0.7000 0.4000
v 0.8500 0.8000 0.4000
v 0.8500 0.9000 0.4000
v 0.8500 1.0000 0.4000
v 0.8500 1.1000 0.4000
v 0.8500 1.2000 0.4000
v 0.8500 1.2000 0.3000
v 0.8500 0.4000 0.2000
v 0.8500 1.2000 0.2000
v 0.8500 0.4000 0.1000
v 0.8500 1.2000 0.1000
v 0.8500 0.4000 0.0000
v 0.8500 1.2000 0.0000
v 0.8500 0.4000 -0.1000
v 0.8500 1.2000 -0.1000
v 0.8500 0.4000 -0.2000
v 0.8500 1.2000 -0.2000
v 0.8500 0.4000 -0.3000
v 0.8500 1.2000 -0.3000
v 0.8500 0.5000 -0.4000
v 0.8500 0.4000 -0.4000
v 0.8500 0.6000 -0.4000
v 0.8500 0.7000 -0.4000
v 0.8500 0.8000 -0.4000
v 0.8500 0.9000 -0.4000
v 0.8500 1.0000 -0.4000
v 0.8500 1.1000 -0.4000
v 0.8500 1.2000 -0.4000
v 0.9500 0.4000 0.4000
v 0.9500 0.5000 0.4000
v 0.9500 0.4000 0.3000
v 0.9500 0.6000 0.4000
v 0.9500 0.7000 0.4000
v 0.9500 0.8000 0.4000
v 0.9500 0.9000 0.4000
v 0.9500 1.0000 0.4000
v 0.9500 1.1000 0.4000
v 0.9500 1.2000 0.4000
v 0.9500 1.2000 0.3000
v 0.9500 0.4000 0.2000
v 0.9500 1.2000 0.2000
v 0.9500 0.4000 0.1000
v 0.9500 1.2000 0.1000
v 0.9500 0.4000 0.0000
v 0.9500 1.2000 0.0000
v 0.9500 0.4000 -0.1000
v 0.9500 1.2000 -0.1000
v 0.9500 0.4000 -0.2000
v 0.9500 1.2000 -0.2000
v 0.9500 0.4000 -0.3000
v 0.9500 1.2000 -0.3000
v 0.9500 0.5000 -0.4000
v 0.9500 0.4000 -0.4000
v 0.9500 0.6000 -0.4000
v 0.9500 0.7000 -0.4000
v 0.9500 0.8000 -0.4000
v 0.9500 0.9000 -0.4000
v 0.9500 1.0000 -0.4000
v 0.9500 1.1000 -0.4000
v 0.9500 1.2000 -0.4000
v 1.0500 0.4000 0.4000
v 1.0500 0.4000 0.3000
v 1.0500 0.5000 0.3000
v 1.0500 0.5000 0.4000
v 1.0500 0.6000 0.3000
v 1.0500 0.6000 0.4000
v 1.0500 0.7000 0.3000
v 1.0500 0.7000 0.4000
v 1.0500 0.8000 0.3000
v 1.0500 0.8000 0.4000
v 1.0500 0.9000 0.3000
v 1.0500 0.9000 0.4000
v 1.0500 1.0000 0.3000
v 1.0500 1.0000 0.4000
v 1.0500 1.1000 0.3000
v 1.0500 1.1000 0.4000
v 1.0500 1.2000 0.3000
v 1.0500 1.2000 0.4000
v 1.0500 0.4000 0.2000
v 1.0500 0.5000 0.2000
v 1.0500 0.6000 0.2000
v 1.0500 0.7000 0.2000
v 1.0500 0.8000 0.2000
v 1.0500 0.9000 0.2000
v 1.0500 1.0000 0.2000
v 1.0500 1.1000 0.2000
v 1.0500 1.2000 0.2000
v 1.0500 0.4000 0.1000
v 1.0500 0.5000 0.1000
v 1.0500 0.6000 0.1000
v 1.0500 1.0000 0.1000
v 1.0500 1.1000 0.1000
v 1.0500 1.2000 0.1000
v 1.0500 0.4000 0.0000
v 1.0500 0.5000 0.0000
v 1.0500 0.6000 0.0000
v 1.0500 1.0000 0.0000
v 1.0500 1.1000 0.0000
v 1.0500 1.2000 0.0000
v 1.0500 0.4000 -0.1000
v 1.0500 0.5000 -0.1000
v 1.0500 0.6000 -0.1000
v 1.0500 1.0000 -0.1000
v 1.0500 1.1000 -0.1000
v 1.0500 1.2000 -0.1000
v 1.0500 0.4000 -0.2000
v 1.0500 0.5000 -0.2000
v 1.0500 0.6000 -0.2000
v 1.0500 1.0000 -0.2000
v 1.0500 1.1000 -0.2000
v 1.0500 1.2000 -0.2000
v 1.0500 0.4000 -0.3000
v 1.0500 0.5000 -0.3000
v 1.0500 0.6000 -0.3000
v 1.0500 0.7000 -0.3000
v 1.0500 0.7000 -0.2000
v 1.0500 0.8000 -0.3000
v 1.0500 0.8000 -0.2000
v 1.0500 0.9000 -0.3000
v 1.0500 0.9000 -0.2000
v 1.0500 1.0000 -0.3000
v 1.0500 1.1000 -0.3000
v 1.0500 1.2000 -0.3000
v 1.0500 0.4000 -0.4000
v 1.0500 0.5000 -0.4000
v 1.0500 0.6000 -0.4000
v 1.0500 0.7000 -0.4000
v 1.0500 0.8000 -0.4000
v 1.0500 0.9000 -0.4000
v 1.0500 1.0000 -0.4000
v 1.0500 1.1000 -0.4000
v 1.0500 1.2000 -0.4000
v 1.1500 0.6000 0.2000
v 1.1500 0.6000 0.1000
v 1.1500 0.7000 0.1000
v 1.1500 0.7000 0.2000
v 1.1500 0.8000 0.1000
v 1.1500 0.8000 0.2000
v 1.1500 0.9000 0.1000
v 1.1500 0.9000 0.2000
v 1.1500 1.0000 0.1000
v 1.1500 1.0000 0.2000
v 1.1500 0.6000 0.0000
v 1.1500 0.7000 0.0000
v 1.1500 0.8000 0.0000
v 1.1500 0.9000 0.0000
v 1.1500 1.0000 0.0000
v 1.1500 0.6000 -0.1000
v 1.1500 0.7000 -0.1000
v 1.1500 0.8000 -0.1000
v 1.1500 0.9000 -0.1000
v 1.1500 1.0000 -0.1000
v 1.1500 0.6000 -0.2000
v 1.1500 0.7000 -0.2000
v 1.1500 0.8000 -0.2000
v 1.1500 0.9000 -0.2000
v 1.1500 1.0000 -0.2000
v 0.2500 0.0000 0.4000
v 0.2500 0.1000 0.4000
v 0.2500 0.1000 0.3000
v 0.2500 0.0000 0.3000
v 0.3500 0.0000 0.4000
v 0.3500 0.1000 0.4000
v 0.3500 0.0000 0.3000
v 0.2500 0.2000 0.4000
v 0.2500 0.2000 0.3000
v 0.3500 0.2000 0.4000
v 0.2500 0.3000 0.4000
v 0.2500 0.3000 0.3000
v 0.3500 0.3000 0.4000
v 0.2500 0.1000 0.2000
v 0.2500 0.0000 0.2000
v 0.3500 0.1000 0.2000
v 0.3500 0.0000 0.2000
v 0.2500 0.2000 0.2000
v 0.3500 0.2000 0.2000
v 0.2500 0.3000 0.2000
v 0.3500 0.3000 0.2000
v 0.4500 0.0000 0.4000
v 0.4500 0.0000 0.3000
v 0.4500 0.1000 0.3000
v 0.4500 0.1000 0.4000
v 0.4500 0.2000 0.3000
v 0.4500 0.2000 0.4000
v 0.4500 0.3000 0.3000
v 0.4500 0.3000 0.4000
v 0.4500 0.0000 0.2000
v 0.4500 0.1000 0.2000
v 0.4500 0.2000 0.2000
v 0.4500 0.3000 0.2000
v 0.2500 0.0000 -0.2000
v 0.2500 0.1000 -0.2000
v 0.2500 0.1000 -0.3000
v 0.2500 0.0000 -0.3000
v 0.3500 0.0000 -0.2000
v 0.3500 0.1000 -0.2000
v 0.3500 0.0000 -0.3000
v 0.2500 0.2000 -0.2000
v 0.2500 0.2000 -0.3000
v 0.3500 0.2000 -0.2000
v 0.2500 0.3000 -0.2000
v 0.2500 0.3000 -0.3000
v 0.3500 0.3000 -0.2000
v 0.2500 0.1000 -0.4000
v 0.2500 0.0000 -0.4000
v 0.3500 0.1000 -0.4000
v 0.3500 0.0000 -0.4000
v 0.2500 0.2000 -0.4000
v 0.3500 0.2000 -0.4000
v 0.2500 0.3000 -0.4000
v 0.3500 0.3000 -0.4000
v 0.4500 0.0000 -0.2000
v 0.4500 0.0000 -0.3000
v 0.4500 0.1000 -0.3000
v 0.4500 0.1000 -0.2000
v 0.4500 0.2000 -0.3000
v 0.4500 0.2000 -0.2000
v 0.4500 0.3000 -0.3000
v 0.4500 0.3000 -0.2000
v 0.4500 0.0000 -0.4000
v 0.4500 0.1000 -0.4000
v 0.4500 0.2000 -0.4000
v 0.4500 0.3000 -0.4000
v -0.8500 0.0000 0.4000
v -0.8500 0.1000 0.4000
v -0.8500 0.1000 0.3000
v -0.8500 0.0000 0.3000
v -0.7500 0.0000 0.4000
v -0.7500 0.1000 0.4000
v -0.7500 0.0000 0.3000
v -0.8500 0.2000 0.4000
v -0.8500 0.2000 0.3000
v -0.7500 0.2000 0.4000
v -0.8500 0.3000 0.4000
v -0.8500 0.3000 0.3000
v -0.7500 0.3000 0.4000
v -0.8500 0.1000 0.2000
v -0.8500 0.0000 0.2000
v -0.7500 0.1000 0.2000
v -0.7500 0.0000 0.2000
v -0.8500 0.2000 0.2000
v -0.7500 0.2000 0.2000
v -0.8500 0.3000 0.2000
v -0.7500 0.3000 0.2000
v -0.6500 0.0000 0.4000
v -0.6500 0.0000 0.3000
v -0.6500 0.1000 0.3000
v -0.6500 0.1000 0.4000
v -0.6500 0.2000 0.3000
v -0.6500 0.2000 0.4000
v -0.6500 0.3000 0.3000
v -0.6500 0.3000 0.4000
v -0.6500 0.0000 0.2000
v -0.6500 0.1000 0.2000
v -0.6500 0.2000 0.2000
v -0.6500 0.3000 0.2000
v -0.8500 0.0000 -0.2000
v -0.8500 0.1000 -0.2000
v -0.8500 0.1000 -0.3000
v -0.8500 0.0000 -0.3000
v -0.7500 0.0000 -0.2000
v -0.7500 0.1000 -0.2000
v -0.7500 0.0000 -0.3000
v -0.8500 0.2000 -0.2000
v -0.8500 0.2000 -0.3000
v -0.7500 0.2000 -0.2000
v -0.8500 0.3000 -0.2000
v -0.8500 0.3000 -0.3000
v -0.7500 0.3000 -0.2000
v -0.8500 0.1000 -0.4000
v -0.8500 0.0000 -0.4000
v -0.7500 0.1000 -0.4000
v -0.7500 0.0000 -0.4000
v -0.8500 0.2000 -0.4000
v -0.7500 0.2000 -0.4000
v -0.8500 0.3000 -0.4000
v -0.7500 0.3000 -0.4000
v -0.6500 0.0000 -0.2000
v -0.6500 0.0000 -0.3000
v -0.6500 0.1000 -0.3000
v -0.6500 0.1000 -0.2000
v -0.6500 0.2000 -0.3000
v -0.6500 0.2000 -0.2000
v -0.6500 0.3000 -0.3000
v -0.6500 0.3000 -0.2000
v -0.6500 0.0000 -0.4000
v -0.6500 0.1000 -0.4000
v -0.6500 0.2000 -0.4000
v -0.6500 0.3000 -0.4000
v -1.1500 1.0000 0.1000
v -1.1500 1.1000 0.1000
v -1.1500 1.1000 0.0000
v -1.1500 1.0000 0.0000
usemtl c22
f 8 11 12 9
f 8 10 13 11
f 11 14 15 12
f 11 13 16 14
f 14 17 18 15
f 14 16 19 17
f 17 20 21 18
f 17 19 22 20
f 20 23 24 21
f 20 22 25 23
f 23 26 27 24
f 23 25 28 26
f 26 29 30 27
f 26 28 31 29
f 29 31 32 30
f 9 12 37 36
f 12 15 38 37
f 15 18 39 38
f 18 21 40 39
f 21 24 41 40
f 24 27 42 41
f 27 30 43 42
f 30 44 45 43
f 30 32 46 44
f 44 46 47 45
f 36 37 52 51
f 37 38 53 52
f 38 39 54 53
f 39 40 55 54
f 40 41 56 55
f 41 42 57 56
f 42 43 58 57
f 43 45 59 58
f 45 47 60 59
f 51 52 65 64
f 52 53 66 65
f 53 54 67 66
f 54 55 68 67
f 55 56 69 68
f 56 57 70 69
f 57 58 71 70
f 58 59 72 71
f 59 60 73 72
f 64 65 78 77
f 65 66 79 78
f 66 67 80 79
f 67 68 81 80
f 69 70 82 83
f 70 71 84 82
f 71 72 85 84
f 72 73 86 85
f 77 78 91 90
f 78 79 92 91
f 79 80 93 92
f 80 81 94 93
f 81 83 95 94
f 83 82 96 95
f 82 84 97 96
f 84 85 98 97
f 85 86 99 98
f 90 91 104 103
f 91 92 105 104
f 92 93 106 105
f 93 94 107 106
f 94 95 108 107
f 95 96 109 108
f 96 97 110 109
f 97 98 111 110
f 98 99 112 111
f 103 104 117 116
f 104 105 118 117
f 105 106 119 118
f 106 107 120 119
f 107 108 121 120
f 108 109 122 121
f 109 110 123 122
f 110 111 124 123
f 111 112 125 124
f 116 117 130 129
f 117 118 131 130
f 118 119 132 131
f 119 120 133 132
f 120 121 134 133
f 121 122 135 134
f 122 123 136 135
f 123 124 137 136
f 136 137 138 139
f 124 125 138 137
f 129 130 146 144
f 144 146 147 145
f 130 131 148 146
f 146 148 149 147
f 131 132 150 148
f 148 150 151 149
f 132 133 152 150
f 150 152 153 151
f 133 134 154 152
f 152 154 155 153
f 134 135 156 154
f 154 156 157 155
f 135 136 158 156
f 156 158 159 157
f 136 139 159 158
f 10 163 164 13
f 13 164 165 16
f 16 165 166 19
f 19 166 167 22
f 22 167 168 25
f 25 168 169 28
f 28 169 170 31
f 31 171 46 32
f 31 170 172 171
f 171 172 173 46
f 46 173 175 47
f 47 175 177 60
f 60 177 179 73
f 73 179 181 86
f 86 181 183 99
f 99 183 185 112
f 112 185 187 125
f 125 187 189 138
f 145 147 193 192
f 147 149 194 193
f 149 151 195 194
f 151 153 196 195
f 153 155 197 196
f 155 157 198 197
f 157 159 199 198
f 139 138 200 159
f 159 200 201 199
f 138 189 201 200
f 163 205 206 164
f 164 206 207 165
f 165 207 208 166
f 166 208 209 167
f 167 209 210 168
f 168 210 211 169
f 169 211 212 170
f 170 212 213 172
f 172 213 214 173
f 173 214 215 175
f 175 215 216 177
f 177 216 219 179
f 179 219 221 181
f 181 221 223 183
f 183 223 225 185
f 185 225 226 187
f 187 226 227 189
f 192 193 232 231
f 193 194 233 232
f 194 195 234 233
f 195 196 235 234
f 196 197 236 235
f 197 198 237 236
f 198 199 238 237
f 199 201 239 238
f 189 227 239 201
f 205 243 244 206
f 206 244 245 207
f 207 245 246 208
f 208 246 247 209
f 209 247 248 210
f 210 248 249 211
f 211 249 250 212
f 212 250 251 213
f 213 251 252 214
f 214 252 253 215
f 215 253 254 216
f 216 254 257 219
f 219 257 259 221
f 221 259 261 223
f 223 261 263 225
f 225 263 264 226
f 226 264 265 227
f 231 232 270 269
f 232 233 271 270
f 233 234 272 271
f 234 235 273 272
f 235 236 274 273
f 236 237 275 274
f 237 238 276 275
f 238 239 277 276
f 227 265 277 239
f 243 281 282 244
f 244 282 283 245
f 245 283 284 246
f 246 284 285 247
f 247 285 286 248
f 248 286 287 249
f 249 287 288 250
f 250 288 289 251
f 251 289 290 252
f 252 290 293 253
f 253 293 295 254
f 254 295 297 257
f 257 297 299 259
f 259 299 301 261
f 261 301 303 263
f 263 303 306 264
f 264 306 308 265
f 269 270 312 311
f 270 271 313 312
f 271 272 314 313
f 272 273 315 314
f 273 274 316 315
f 274 275 317 316
f 275 276 318 317
f 276 277 319 318
f 265 308 319 277
f 281 323 324 282
f 282 324 325 283
f 283 325 326 284
f 284 326 327 285
f 285 327 328 286
f 286 328 329 287
f 287 329 330 288
f 288 330 331 289
f 289 331 332 290
f 290 332 334 293
f 293 334 336 295
f 295 336 338 297
f 297 338 340 299
f 299 340 342 301
f 301 342 344 303
f 303 344 346 306
f 306 346 348 308
f 311 312 352 351
f 312 313 353 352
f 313 314 354 353
f 314 315 355 354
f 315 316 356 355
f 316 317 357 356
f 317 318 358 357
f 318 319 359 358
f 308 348 359 319
f 323 363 364 324
f 324 364 365 325
f 325 365 366 326
f 326 366 367 327
f 327 367 368 328
f 328 368 369 329
f 329 369 370 330
f 330 370 371 331
f 331 371 372 332
f 332 372 374 334
f 334 374 376 336
f 336 376 378 338
f 338 378 380 340
f 340 380 382 342
f 342 382 384 344
f 344 384 386 346
f 346 386 388 348
f 351 352 392 391
f 352 353 393 392
f 353 354 394 393
f 354 355 395 394
f 355 356 396 395
f 356 357 397 396
f 357 358 398 397
f 358 359 399 398
f 348 388 399 359
f 363 403 404 364
f 364 404 405 365
f 365 405 406 366
f 366 406 407 367
f 367 407 408 368
f 368 408 409 369
f 369 409 410 370
f 370 410 411 371
f 371 411 412 372
f 372 412 414 374
f 374 414 416 376
f 376 416 418 378
f 378 418 420 380
f 380 420 422 382
f 382 422 424 384
f 384 424 426 386
f 386 426 428 388
f 391 392 432 431
f 392 393 433 432
f 393 394 434 433
f 394 395 435 434
f 395 396 436 435
f 396 397 437 436
f 397 398 438 437
f 398 399 439 438
f 388 428 439 399
f 403 443 444 404
f 404 444 445 405
f 405 445 446 406
f 406 446 447 407
f 407 447 448 408
f 408 448 449 409
f 409 449 450 410
f 410 450 451 411
f 411 451 452 412
f 412 452 454 414
f 414 454 456 416
f 416 456 458 418
f 418 458 460 420
f 420 460 462 422
f 422 462 464 424
f 424 464 466 426
f 426 466 468 428
f 431 432 472 471
f 432 433 473 472
f 433 434 474 473
f 434 435 475 474
f 435 436 476 475
f 436 437 477 476
f 437 438 478 477
f 438 439 479 478
f 428 468 479 439
f 443 483 484 444
f 444 484 485 445
f 445 485 486 446
f 446 486 487 447
f 447 487 488 448
f 448 488 489 449
f 449 489 490 450
f 450 490 491 451
f 451 491 492 452
f 452 492 494 454
f 454 494 496 456
f 456 496 498 458
f 458 498 500 460
f 460 500 502 462
f 462 502 504 464
f 464 504 506 466
f 466 506 508 468
f 471 472 512 511
f 472 473 513 512
f 473 474 514 513
f 474 475 515 514
f 475 476 516 515
f 476 477 517 516
f 477 478 518 517
f 478 479 519 518
f 468 508 519 479
f 483 523 524 484
f 484 524 525 485
f 485 525 526 486
f 486 526 527 487
f 487 527 528 488
f 488 528 529 489
f 489 529 530 490
f 490 530 531 491
f 491 531 532 492
f 492 532 534 494
f 494 534 536 496
f 496 536 538 498
f 498 538 540 500
f 500 540 542 502
f 502 542 544 504
f 504 544 546 506
f 506 546 548 508
f 511 512 552 551
f 512 513 553 552
f 513 514 554 553
f 514 515 555 554
f 515 516 556 555
f 516 517 557 556
f 517 518 558 557
f 518 519 559 558
f 508 548 559 519
f 523 563 564 524
f 524 564 565 525
f 525 565 566 526
f 526 566 567 527
f 527 567 568 528
f 528 568 569 529
f 529 569 570 530
f 530 570 571 531
f 531 571 572 532
f 532 572 574 534
f 534 574 576 536
f 536 576 578 538
f 538 578 580 540
f 540 580 582 542
f 542 582 584 544
f 544 584 586 546
f 546 586 588 548
f 551 552 592 591
f 552 553 593 592
f 553 554 594 593
f 554 555 595 594
f 555 556 596 595
f 556 557 597 596
f 557 558 598 597
f 558 559 599 598
f 548 588 599 559
f 563 603 604 564
f 564 604 605 565
f 565 605 606 566
f 566 606 607 567
f 567 607 608 568
f 568 608 609 569
f 569 609 610 570
f 570 610 611 571
f 571 611 612 572
f 572 612 614 574
f 574 614 616 576
f 576 616 618 578
f 578 618 620 580
f 580 620 622 582
f 582 622 624 584
f 584 624 626 586
f 586 626 628 588
f 591 592 632 631
f 592 593 633 632
f 593 594 634 633
f 594 595 635 634
f 595 596 636 635
f 596 597 637 636
f 597 598 638 637
f 598 599 639 638
f 588 628 639 599
f 603 643 644 604
f 604 644 645 605
f 605 645 646 606
f 606 646 647 607
f 607 647 648 608
f 608 648 649 609
f 609 649 650 610
f 610 650 651 611
f 611 651 652 612
f 612 652 653 614
f 614 653 654 616
f 616 654 657 618
f 618 657 659 620
f 620 659 661 622
f 622 661 663 624
f 624 663 664 626
f 626 664 665 628
f 631 632 670 669
f 632 633 671 670
f 633 634 672 671
f 634 635 673 672
f 635 636 674 673
f 636 637 675 674
f 637 638 676 675
f 638 639 677 676
f 628 665 677 639
f 643 681 682 644
f 644 682 683 645
f 645 683 684 646
f 646 684 685 647
f 647 685 686 648
f 648 686 687 649
f 649 687 688 650
f 650 688 689 651
f 651 689 690 652
f 652 690 691 653
f 653 691 692 654
f 654 692 695 657
f 657 695 697 659
f 659 697 699 661
f 661 699 701 663
f 663 701 702 664
f 664 702 703 665
f 669 670 708 707
f 670 671 709 708
f 671 672 710 709
f 672 673 711 710
f 673 674 712 711
f 674 675 713 712
f 675 676 714 713
f 676 677 715 714
f 665 703 715 677
f 721 720 722 723
f 681 721 723 682
f 723 722 724 725
f 682 723 725 683
f 725 724 726 727
f 683 725 727 684
f 727 726 728 729
f 684 727 729 685
f 729 728 730 731
f 685 729 731 686
f 731 730 732 733
f 686 731 733 687
f 733 732 734 735
f 687 733 735 688
f 735 734 736 737
f 688 735 737 689
f 689 737 736 690
f 732 740 741 734
f 734 741 742 736
f 690 736 742 691
f 740 744 745 741
f 741 745 746 742
f 691 742 746 692
f 744 748 749 745
f 745 749 750 746
f 692 746 750 695
f 748 752 753 749
f 749 753 754 750
f 695 750 754 697
f 752 756 757 753
f 753 757 758 754
f 697 754 758 699
f 756 760 761 757
f 757 761 762 758
f 699 758 762 701
f 760 765 766 761
f 761 766 767 762
f 701 762 767 702
f 765 769 770 766
f 766 770 771 767
f 702 767 771 703
f 776 775 777 778
f 707 708 777 775
f 778 777 779 780
f 708 709 779 777
f 780 779 781 782
f 709 710 781 779
f 782 781 783 784
f 710 711 783 781
f 784 783 785 786
f 711 712 785 783
f 786 785 787 769
f 712 713 787 785
f 769 787 788 770
f 713 714 788 787
f 770 788 789 771
f 714 715 789 788
f 703 771 789 715
f 717 790 791 718
f 717 739 792 790
f 718 791 793 720
f 720 793 794 722
f 722 794 795 724
f 724 795 796 726
f 726 796 797 728
f 728 797 798 730
f 730 798 799 732
f 732 799 800 740
f 739 743 801 792
f 740 800 802 744
f 743 747 803 801
f 744 802 804 748
f 747 751 805 803
f 748 804 806 752
f 751 755 807 805
f 752 806 808 756
f 755 759 809 807
f 756 808 810 760
f 759 764 811 809
f 760 810 812 765
f 768 774 813 814
f 764 768 814 811
f 774 776 815 813
f 776 778 816 815
f 778 780 817 816
f 780 782 818 817
f 782 784 819 818
f 784 786 820 819
f 786 769 821 820
f 765 812 821 769
f 790 822 823 791
f 790 792 824 822
f 791 823 825 793
f 793 825 826 794
f 794 826 827 795
f 795 827 828 796
f 796 828 829 797
f 797 829 830 798
f 798 830 831 799
f 799 831 832 800
f 792 801 833 824
f 800 832 834 802
f 801 803 835 833
f 802 834 836 804
f 803 805 837 835
f 804 836 838 806
f 805 807 839 837
f 806 838 840 808
f 807 809 841 839
f 808 840 842 810
f 809 811 843 841
f 810 842 844 812
f 814 813 845 846
f 811 814 846 843
f 813 815 847 845
f 815 816 848 847
f 816 817 849 848
f 817 818 850 849
f 818 819 851 850
f 819 820 852 851
f 820 821 853 852
f 812 844 853 821
f 822 854 855 823
f 822 824 856 854
f 823 855 857 825
f 825 857 858 826
f 826 858 859 827
f 827 859 860 828
f 829 861 862 830
f 830 862 863 831
f 831 863 864 832
f 824 833 865 856
f 832 864 866 834
f 833 835 867 865
f 834 866 868 836
f 835 837 869 867
f 836 868 870 838
f 837 839 871 869
f 838 870 872 840
f 839 841 873 871
f 840 872 874 842
f 841 843 875 873
f 842 874 876 844
f 846 845 877 878
f 843 846 878 875
f 845 847 879 877
f 847 848 880 879
f 848 849 881 880
f 849 850 882 881
f 851 852 884 883
f 852 853 885 884
f 844 876 885 853
f 854 886 887 855
f 854 856 888 886
f 855 887 889 857
f 857 889 890 858
f 858 890 891 859
f 859 891 892 860
f 860 892 893 861
f 861 893 894 862
f 862 894 895 863
f 863 895 896 864
f 856 865 897 888
f 864 896 898 866
f 865 867 899 897
f 866 898 900 868
f 867 869 901 899
f 868 900 902 870
f 869 871 903 901
f 870 902 904 872
f 871 873 905 903
f 872 904 906 874
f 873 875 907 905
f 874 906 908 876
f 878 877 909 910
f 875 878 910 907
f 877 879 911 909
f 879 880 912 911
f 880 881 913 912
f 881 882 914 913
f 882 883 915 914
f 883 884 916 915
f 884 885 917 916
f 876 908 917 885
f 918 919 920 921
f 886 918 921 887
f 886 888 919 918
f 921 920 922 923
f 887 921 923 889
f 923 922 924 925
f 889 923 925 890
f 925 924 926 927
f 890 925 927 891
f 927 926 928 929
f 891 927 929 892
f 929 928 930 931
f 892 929 931 893
f 931 930 932 933
f 893 931 933 894
f 933 932 934 935
f 894 933 935 895
f 895 935 934 896
f 919 936 937 920
f 888 897 936 919
f 920 937 938 922
f 922 938 939 924
f 924 939 940 926
f 926 940 941 928
f 928 941 942 930
f 930 942 943 932
f 932 943 944 934
f 896 934 944 898
f 936 945 946 937
f 897 899 945 936
f 937 946 947 938
f 942 948 949 943
f 943 949 950 944
f 898 944 950 900
f 945 951 952 946
f 899 901 951 945
f 946 952 953 947
f 948 954 955 949
f 949 955 956 950
f 900 950 956 902
f 951 957 958 952
f 901 903 957 951
f 952 958 959 953
f 954 960 961 955
f 955 961 962 956
f 902 956 962 904
f 957 963 964 958
f 903 905 963 957
f 958 964 965 959
f 960 966 967 961
f 961 967 968 962
f 904 962 968 906
f 963 969 970 964
f 905 907 969 963
f 964 970 971 965
f 965 971 972 973
f 973 972 974 975
f 975 974 976 977
f 977 976 978 966
f 966 978 979 967
f 967 979 980 968
f 906 968 980 908
f 969 981 982 970
f 910 909 982 981
f 907 910 981 969
f 970 982 983 971
f 909 911 983 982
f 971 983 984 972
f 911 912 984 983
f 972 984 985 974
f 912 913 985 984
f 974 985 986 976
f 913 914 986 985
f 976 986 987 978
f 914 915 987 986
f 978 987 988 979
f 915 916 988 987
f 979 988 989 980
f 916 917 989 988
f 908 980 989 917
f 1022 1025 1026 1023
f 1022 1024 1027 1025
f 1025 602 613 1026
f 1025 1027 642 602
f 1023 1026 1034 1032
f 1032 1034 1035 1033
f 1026 613 615 1034
f 1034 615 656 1035
f 1041 1040 1042 1043
f 1024 1041 1043 1027
f 1043 1042 738 680
f 1027 1043 680 642
f 1040 1046 1047 1042
f 1033 1035 1047 1046
f 1042 1047 694 738
f 1035 656 694 1047
f 1055 1058 1059 1056
f 1055 1057 1060 1058
f 1058 623 625 1059
f 1058 1060 662 623
f 1056 1059 1067 1065
f 1065 1067 1068 1066
f 1059 625 627 1067
f 1067 627 668 1068
f 1074 1073 1075 1076
f 1057 1074 1076 1060
f 1076 1075 763 700
f 1060 1076 700 662
f 1073 1079 1080 1075
f 1066 1068 1080 1079
f 1075 1080 706 763
f 1068 668 706 1080
f 1088 1091 1092 1089
f 1088 1090 1093 1091
f 1091 162 174 1092
f 1091 1093 204 162
f 1089 1092 1100 1098
f 1098 1100 1101 1099
f 1092 174 176 1100
f 1100 176 218 1101
f 1107 1106 1108 1109
f 1090 1107 1109 1093
f 1109 1108 291 242
f 1093 1109 242 204
f 1106 1112 1113 1108
f 1099 1101 1113 1112
f 1108 1113 256 291
f 1101 218 256 1113
f 1121 1124 1125 1122
f 1121 1123 1126 1124
f 1124 184 186 1125
f 1124 1126 224 184
f 1122 1125 1133 1131
f 1131 1133 1134 1132
f 1125 186 188 1133
f 1133 188 230 1134
f 1140 1139 1141 1142
f 1123 1140 1142 1126
f 1142 1141 304 262
f 1126 1142 262 224
f 1139 1145 1146 1141
f 1132 1134 1146 1145
f 1141 1146 268 304
f 1134 230 268 1146
usemtl c24
f 1015 1016 1017 1018
f 1015 1019 1020 1016
f 1015 1018 1021 1019
f 1016 1022 1023 1017
f 1016 1020 1024 1022
f 1018 1017 1028 1029
f 1029 1028 1030 1031
f 1018 1029 1031 1021
f 1017 1023 1032 1028
f 1028 1032 1033 1030
f 1036 1037 1038 1039
f 1019 1036 1039 1020
f 1019 1021 1037 1036
f 1039 1038 1040 1041
f 1020 1039 1041 1024
f 1037 1044 1045 1038
f 1031 1030 1045 1044
f 1021 1031 1044 1037
f 1038 1045 1046 1040
f 1030 1033 1046 1045
f 1048 1049 1050 1051
f 1048 1052 1053 1049
f 1048 1051 1054 1052
f 1049 1055 1056 1050
f 1049 1053 1057 1055
f 1051 1050 1061 1062
f 1062 1061 1063 1064
f 1051 1062 1064 1054
f 1050 1056 1065 1061
f 1061 1065 1066 1063
f 1069 1070 1071 1072
f 1052 1069 1072 1053
f 1052 1054 1070 1069
f 1072 1071 1073 1074
f 1053 1072 1074 1057
f 1070 1077 1078 1071
f 1064 1063 1078 1077
f 1054 1064 1077 1070
f 1071 1078 1079 1073
f 1063 1066 1079 1078
f 1081 1082 1083 1084
f 1081 1085 1086 1082
f 1081 1084 1087 1085
f 1082 1088 1089 1083
f 1082 1086 1090 1088
f 1084 1083 1094 1095
f 1095 1094 1096 1097
f 1084 1095 1097 1087
f 1083 1089 1098 1094
f 1094 1098 1099 1096
f 1102 1103 1104 1105
f 1085 1102 1105 1086
f 1085 1087 1103 1102
f 1105 1104 1106 1107
f 1086 1105 1107 1090
f 1103 1110 1111 1104
f 1097 1096 1111 1110
f 1087 1097 1110 1103
f 1104 1111 1112 1106
f 1096 1099 1112 1111
f 1114 1115 1116 1117
f 1114 1118 1119 1115
f 1114 1117 1120 1118
f 1115 1121 1122 1116
f 1115 1119 1123 1121
f 1117 1116 1127 1128
f 1128 1127 1129 1130
f 1117 1128 1130 1120
f 1116 1122 1131 1127
f 1127 1131 1132 1129
f 1135 1136 1137 1138
f 1118 1135 1138 1119
f 1118 1120 1136 1135
f 1138 1137 1139 1140
f 1119 1138 1140 1123
f 1136 1143 1144 1137
f 1130 1129 1144 1143
f 1120 1130 1143 1136
f 1137 1144 1145 1139
f 1129 1132 1145 1144
usemtl c25
f 828 860 861 829
f 850 851 883 882
f 992 1001 1002 994
f 1001 1006 1007 1002
usemtl c29
f 1 2 3 4
f 1 5 6 2
f 1 4 7 5
f 2 8 9 3
f 2 6 10 8
f 4 3 33 34
f 4 34 35 7
f 3 9 36 33
f 34 33 48 49
f 34 49 50 35
f 33 36 51 48
f 49 48 61 62
f 49 62 63 50
f 48 51 64 61
f 62 61 74 75
f 62 75 76 63
f 61 64 77 74
f 75 74 87 88
f 75 88 89 76
f 74 77 90 87
f 88 87 100 101
f 88 101 102 89
f 87 90 103 100
f 101 100 113 114
f 101 114 115 102
f 100 103 116 113
f 114 113 126 127
f 114 127 128 115
f 113 116 129 126
f 127 126 140 141
f 141 140 142 143
f 127 141 143 128
f 126 129 144 140
f 140 144 145 142
f 5 160 161 6
f 5 7 162 160
f 6 161 163 10
f 7 35 174 162
f 35 50 176 174
f 50 63 178 176
f 63 76 180 178
f 76 89 182 180
f 89 102 184 182
f 102 115 186 184
f 115 128 188 186
f 143 142 190 191
f 128 143 191 188
f 142 145 192 190
f 160 202 203 161
f 160 162 204 202
f 161 203 205 163
f 176 178 217 218
f 178 180 220 217
f 180 182 222 220
f 182 184 224 222
f 191 190 228 229
f 188 191 229 230
f 190 192 231 228
f 202 240 241 203
f 202 204 242 240
f 203 241 243 205
f 218 217 255 256
f 217 220 258 255
f 220 222 260 258
f 222 224 262 260
f 229 228 266 267
f 230 229 267 268
f 228 231 269 266
f 240 278 279 241
f 240 242 280 278
f 241 279 281 243
f 242 291 292 280
f 291 256 294 292
f 256 255 296 294
f 255 258 298 296
f 258 260 300 298
f 260 262 302 300
f 262 304 305 302
f 304 268 307 305
f 267 266 309 310
f 268 267 310 307
f 266 269 311 309
f 278 320 321 279
f 278 280 322 320
f 279 321 323 281
f 280 292 333 322
f 292 294 335 333
f 294 296 337 335
f 296 298 339 337
f 298 300 341 339
f 300 302 343 341
f 302 305 345 343
f 305 307 347 345
f 310 309 349 350
f 307 310 350 347
f 309 311 351 349
f 320 360 361 321
f 320 322 362 360
f 321 361 363 323
f 322 333 373 362
f 333 335 375 373
f 335 337 377 375
f 337 339 379 377
f 339 341 381 379
f 341 343 383 381
f 343 345 385 383
f 345 347 387 385
f 350 349 389 390
f 347 350 390 387
f 349 351 391 389
f 360 400 401 361
f 360 362 402 400
f 361 401 403 363
f 362 373 413 402
f 373 375 415 413
f 375 377 417 415
f 377 379 419 417
f 379 381 421 419
f 381 383 423 421
f 383 385 425 423
f 385 387 427 425
f 390 389 429 430
f 387 390 430 427
f 389 391 431 429
f 400 440 441 401
f 400 402 442 440
f 401 441 443 403
f 402 413 453 442
f 413 415 455 453
f 415 417 457 455
f 417 419 459 457
f 419 421 461 459
f 421 423 463 461
f 423 425 465 463
f 425 427 467 465
f 430 429 469 470
f 427 430 470 467
f 429 431 471 469
f 440 480 481 441
f 440 442 482 480
f 441 481 483 443
f 442 453 493 482
f 453 455 495 493
f 455 457 497 495
f 457 459 499 497
f 459 461 501 499
f 461 463 503 501
f 463 465 505 503
f 465 467 507 505
f 470 469 509 510
f 467 470 510 507
f 469 471 511 509
f 480 520 521 481
f 480 482 522 520
f 481 521 523 483
f 482 493 533 522
f 493 495 535 533
f 495 497 537 535
f 497 499 539 537
f 499 501 541 539
f 501 503 543 541
f 503 505 545 543
f 505 507 547 545
f 510 509 549 550
f 507 510 550 547
f 509 511 551 549
f 520 560 561 521
f 520 522 562 560
f 521 561 563 523
f 522 533 573 562
f 533 535 575 573
f 535 537 577 575
f 537 539 579 577
f 539 541 581 579
f 541 543 583 581
f 543 545 585 583
f 545 547 587 585
f 550 549 589 590
f 547 550 590 587
f 549 551 591 589
f 560 600 601 561
f 560 562 602 600
f 561 601 603 563
f 562 573 613 602
f 573 575 615 613
f 575 577 617 615
f 577 579 619 617
f 579 581 621 619
f 581 583 623 621
f 583 585 625 623
f 585 587 627 625
f 590 589 629 630
f 587 590 630 627
f 589 591 631 629
f 600 640 641 601
f 600 602 642 640
f 601 641 643 603
f 615 617 655 656
f 617 619 658 655
f 619 621 660 658
f 621 623 662 660
f 630 629 666 667
f 627 630 667 668
f 629 631 669 666
f 640 678 679 641
f 640 642 680 678
f 641 679 681 643
f 656 655 693 694
f 655 658 696 693
f 658 660 698 696
f 660 662 700 698
f 667 666 704 705
f 668 667 705 706
f 666 669 707 704
f 716 717 718 719
f 678 716 719 679
f 678 680 717 716
f 719 718 720 721
f 679 719 721 681
f 680 738 739 717
f 738 694 743 739
f 694 693 747 743
f 693 696 751 747
f 696 698 755 751
f 698 700 759 755
f 700 763 764 759
f 763 706 768 764
f 768 772 773 774
f 705 704 773 772
f 706 705 772 768
f 774 773 775 776
f 704 707 775 773
f 990 991 992 993
f 938 990 993 939
f 938 947 991 990
f 993 992 994 995
f 939 993 995 940
f 995 994 996 997
f 940 995 997 941
f 997 996 998 999
f 941 997 999 942
f 942 999 998 948
f 991 1000 1001 992
f 947 953 1000 991
f 994 1002 1003 996
f 996 1003 1004 998
f 948 998 1004 954
f 1000 1005 1006 1001
f 953 959 1005 1000
f 1002 1007 1008 1003
f 1003 1008 1009 1004
f 954 1004 1009 960
f 1005 1010 1011 1006
f 965 973 1011 1010
f 959 965 1010 1005
f 1006 1011 1012 1007
f 973 975 1012 1011
f 1007 1012 1013 1008
f 975 977 1013 1012
f 1008 1013 1014 1009
f 977 966 1014 1013
f 960 1009 1014 966
f 1147 1148 1149 1150
f 1150 1149 83 81
f 1147 68 69 1148
f 1148 69 83 1149
f 1147 1150 81 68
