# generado por tools/vox_to_obj.py desde cerdo_v2.vox
mtllib cerdo_v2.mtl
v -10.5000 1.0000 4.0000
v -10.5000 1.0000 3.0000
v -10.5000 2.0000 3.0000
v -10.5000 2.0000 4.0000
v -11.5000 1.0000 4.0000
v -11.5000 2.0000 4.0000
v -11.5000 2.0000 3.0000
v -11.5000 1.0000 3.0000
v -10.5000 3.0000 3.0000
v -10.5000 3.0000 4.0000
v -11.5000 3.0000 4.0000
v -11.5000 3.0000 3.0000
v -10.5000 4.0000 3.0000
v -10.5000 4.0000 4.0000
v -11.5000 4.0000 4.0000
v -11.5000 4.0000 3.0000
v -10.5000 1.0000 2.0000
v -10.5000 2.0000 2.0000
v -11.5000 2.0000 2.0000
v -11.5000 1.0000 2.0000
v -10.5000 3.0000 2.0000
v -11.5000 3.0000 2.0000
v -10.5000 4.0000 2.0000
v -11.5000 4.0000 2.0000
v -10.5000 1.0000 1.0000
v -10.5000 2.0000 1.0000
v -11.5000 2.0000 1.0000
v -11.5000 1.0000 1.0000
v -10.5000 3.0000 1.0000
v -11.5000 3.0000 1.0000
v -10.5000 4.0000 1.0000
v -11.5000 4.0000 1.0000
v -11.5000 10.0000 1.0000
v -11.5000 11.0000 1.0000
v -11.5000 11.0000 0.0000
v -11.5000 10.0000 0.0000
v -10.5000 11.0000 0.0000
v -10.5000 10.0000 0.0000
v -10.5000 10.0000 1.0000
v -10.5000 11.0000 1.0000
v -10.5000 4.0000 5.0000
v -10.5000 5.0000 5.0000
v -10.5000 5.0000 4.0000
v -9.5000 4.0000 5.0000
v -9.5000 5.0000 5.0000
v -9.5000 4.0000 4.0000
v -10.5000 6.0000 5.0000
v -10.5000 6.0000 4.0000
v -9.5000 6.0000 5.0000
v -10.5000 7.0000 5.0000
v -10.5000 7.0000 4.0000
v -9.5000 7.0000 5.0000
v -10.5000 8.0000 5.0000
v -10.5000 8.0000 4.0000
v -9.5000 8.0000 5.0000
v -10.5000 9.0000 5.0000
v -10.5000 9.0000 4.0000
v -9.5000 9.0000 5.0000
v -10.5000 10.0000 5.0000
v -10.5000 10.0000 4.0000
v -9.5000 10.0000 5.0000
v -10.5000 11.0000 5.0000
v -10.5000 11.0000 4.0000
v -9.5000 11.0000 5.0000
v -10.5000 12.0000 5.0000
v -10.5000 12.0000 4.0000
v -9.5000 12.0000 5.0000
v -10.5000 13.0000 5.0000
v -10.5000 13.0000 4.0000
v -9.5000 13.0000 5.0000
v -9.5000 13.0000 4.0000
v -10.5000 5.0000 3.0000
v -9.5000 4.0000 3.0000
v -10.5000 6.0000 3.0000
v -10.5000 7.0000 3.0000
v -10.5000 8.0000 3.0000
v -10.5000 9.0000 3.0000
v -10.5000 10.0000 3.0000
v -10.5000 11.0000 3.0000
v -10.5000 12.0000 3.0000
v -10.5000 13.0000 3.0000
v -10.5000 14.0000 4.0000
v -10.5000 14.0000 3.0000
v -9.5000 14.0000 4.0000
v -9.5000 14.0000 3.0000
v -10.5000 5.0000 2.0000
v -9.5000 4.0000 2.0000
v -10.5000 6.0000 2.0000
v -10.5000 7.0000 2.0000
v -10.5000 8.0000 2.0000
v -10.5000 9.0000 2.0000
v -10.5000 10.0000 2.0000
v -10.5000 11.0000 2.0000
v -10.5000 12.0000 2.0000
v -10.5000 13.0000 2.0000
v -10.5000 14.0000 2.0000
v -9.5000 14.0000 2.0000
v -10.5000 5.0000 1.0000
v -9.5000 4.0000 1.0000
v -10.5000 6.0000 1.0000
v -10.5000 7.0000 1.0000
v -10.5000 8.0000 1.0000
v -10.5000 9.0000 1.0000
v -10.5000 12.0000 1.0000
v -10.5000 13.0000 1.0000
v -10.5000 14.0000 1.0000
v -9.5000 14.0000 1.0000
v -10.5000 5.0000 0.0000
v -10.5000 4.0000 0.0000
v -9.5000 4.0000 0.0000
v -10.5000 6.0000 0.0000
v -10.5000 7.0000 0.0000
v -10.5000 8.0000 0.0000
v -10.5000 9.0000 0.0000
v -10.5000 12.0000 0.0000
v -10.5000 13.0000 0.0000
v -10.5000 14.0000 0.0000
v -9.5000 14.0000 0.0000
v -10.5000 5.0000 -1.0000
v -10.5000 4.0000 -1.0000
v -9.5000 4.0000 -1.0000
v -10.5000 6.0000 -1.0000
v -10.5000 7.0000 -1.0000
v -10.5000 8.0000 -1.0000
v -10.5000 9.0000 -1.0000
v -10.5000 10.0000 -1.0000
v -10.5000 11.0000 -1.0000
v -10.5000 12.0000 -1.0000
v -10.5000 13.0000 -1.0000
v -10.5000 14.0000 -1.0000
v -9.5000 14.0000 -1.0000
v -10.5000 5.0000 -2.0000
v -10.5000 4.0000 -2.0000
v -9.5000 4.0000 -2.0000
v -10.5000 6.0000 -2.0000
v -10.5000 7.0000 -2.0000
v -10.5000 8.0000 -2.0000
v -10.5000 9.0000 -2.0000
v -10.5000 10.0000 -2.0000
v -10.5000 11.0000 -2.0000
v -10.5000 12.0000 -2.0000
v -10.5000 13.0000 -2.0000
v -10.5000 14.0000 -2.0000
v -9.5000 14.0000 -2.0000
v -10.5000 5.0000 -3.0000
v -10.5000 4.0000 -3.0000
v -9.5000 4.0000 -3.0000
v -10.5000 6.0000 -3.0000
v -10.5000 7.0000 -3.0000
v -10.5000 8.0000 -3.0000
v -10.5000 9.0000 -3.0000
v -10.5000 10.0000 -3.0000
v -10.5000 11.0000 -3.0000
v -10.5000 12.0000 -3.0000
v -10.5000 13.0000 -3.0000
v -10.5000 14.0000 -3.0000
v -9.5000 14.0000 -3.0000
v -10.5000 5.0000 -4.0000
v -10.5000 4.0000 -4.0000
v -9.5000 4.0000 -4.0000
v -10.5000 6.0000 -4.0000
v -10.5000 7.0000 -4.0000
v -10.5000 8.0000 -4.0000
v -10.5000 9.0000 -4.0000
v -10.5000 10.0000 -4.0000
v -10.5000 11.0000 -4.0000
v -10.5000 12.0000 -4.0000
v -10.5000 13.0000 -4.0000
v -10.5000 14.0000 -4.0000
v -9.5000 14.0000 -4.0000
v -9.5000 13.0000 -4.0000
v -10.5000 5.0000 -5.0000
v -10.5000 4.0000 -5.0000
v -9.5000 5.0000 -5.0000
v -9.5000 4.0000 -5.0000
v -10.5000 6.0000 -5.0000
v -9.5000 6.0000 -5.0000
v -10.5000 7.0000 -5.0000
v -9.5000 7.0000 -5.0000
v -10.5000 8.0000 -5.0000
v -9.5000 8.0000 -5.0000
v -10.5000 9.0000 -5.0000
v -9.5000 9.0000 -5.0000
v -10.5000 10.0000 -5.0000
v -9.5000 10.0000 -5.0000
v -10.5000 11.0000 -5.0000
v -9.5000 11.0000 -5.0000
v -10.5000 12.0000 -5.0000
v -9.5000 12.0000 -5.0000
v -10.5000 13.0000 -5.0000
v -9.5000 13.0000 -5.0000
v -8.5000 4.0000 5.0000
v -8.5000 5.0000 5.0000
v -8.5000 4.0000 4.0000
v -8.5000 6.0000 5.0000
v -8.5000 7.0000 5.0000
v -8.5000 8.0000 5.0000
v -8.5000 9.0000 5.0000
v -8.5000 10.0000 5.0000
v -8.5000 11.0000 5.0000
v -8.5000 12.0000 5.0000
v -8.5000 13.0000 5.0000
v -9.5000 14.0000 5.0000
v -8.5000 14.0000 5.0000
v -8.5000 14.0000 4.0000
v -8.5000 4.0000 3.0000
v -8.5000 14.0000 3.0000
v -8.5000 4.0000 2.0000
v -8.5000 14.0000 2.0000
v -8.5000 4.0000 1.0000
v -8.5000 14.0000 1.0000
v -8.5000 4.0000 0.0000
v -8.5000 14.0000 0.0000
v -8.5000 4.0000 -1.0000
v -8.5000 14.0000 -1.0000
v -8.5000 4.0000 -2.0000
v -8.5000 14.0000 -2.0000
v -8.5000 4.0000 -3.0000
v -8.5000 14.0000 -3.0000
v -8.5000 4.0000 -4.0000
v -8.5000 14.0000 -4.0000
v -8.5000 5.0000 -5.0000
v -8.5000 4.0000 -5.0000
v -8.5000 6.0000 -5.0000
v -8.5000 7.0000 -5.0000
v -8.5000 8.0000 -5.0000
v -8.5000 9.0000 -5.0000
v -8.5000 10.0000 -5.0000
v -8.5000 11.0000 -5.0000
v -8.5000 12.0000 -5.0000
v -8.5000 13.0000 -5.0000
v -9.5000 14.0000 -5.0000
v -8.5000 14.0000 -5.0000
v -7.5000 4.0000 5.0000
v -7.5000 5.0000 5.0000
v -7.5000 4.0000 4.0000
v -7.5000 6.0000 5.0000
v -7.5000 7.0000 5.0000
v -7.5000 8.0000 5.0000
v -7.5000 9.0000 5.0000
v -7.5000 10.0000 5.0000
v -7.5000 11.0000 5.0000
v -7.5000 12.0000 5.0000
v -7.5000 13.0000 5.0000
v -7.5000 14.0000 5.0000
v -7.5000 14.0000 4.0000
v -8.5000 0.0000 4.0000
v -8.5000 1.0000 4.0000
v -8.5000 1.0000 3.0000
v -8.5000 0.0000 3.0000
v -7.5000 0.0000 4.0000
v -7.5000 1.0000 4.0000
v -7.5000 0.0000 3.0000
v -8.5000 2.0000 4.0000
v -8.5000 2.0000 3.0000
v -7.5000 2.0000 4.0000
v -8.5000 3.0000 4.0000
v -8.5000 3.0000 3.0000
v -7.5000 3.0000 4.0000
v -7.5000 14.0000 3.0000
v -8.5000 1.0000 2.0000
v -8.5000 0.0000 2.0000
v -7.5000 1.0000 2.0000
v -7.5000 0.0000 2.0000
v -8.5000 2.0000 2.0000
v -7.5000 2.0000 2.0000
v -8.5000 3.0000 2.0000
v -7.5000 3.0000 2.0000
v -7.5000 4.0000 2.0000
v -7.5000 14.0000 2.0000
v -7.5000 4.0000 1.0000
v -7.5000 14.0000 1.0000
v -7.5000 4.0000 0.0000
v -7.5000 14.0000 0.0000
v -7.5000 4.0000 -1.0000
v -7.5000 14.0000 -1.0000
v -7.5000 4.0000 -2.0000
v -7.5000 14.0000 -2.0000
v -8.5000 0.0000 -2.0000
v -8.5000 1.0000 -2.0000
v -8.5000 1.0000 -3.0000
v -8.5000 0.0000 -3.0000
v -7.5000 0.0000 -2.0000
v -7.5000 1.0000 -2.0000
v -7.5000 0.0000 -3.0000
v -8.5000 2.0000 -2.0000
v -8.5000 2.0000 -3.0000
v -7.5000 2.0000 -2.0000
v -8.5000 3.0000 -2.0000
v -8.5000 3.0000 -3.0000
v -7.5000 3.0000 -2.0000
v -7.5000 14.0000 -3.0000
v -8.5000 1.0000 -4.0000
v -8.5000 0.0000 -4.0000
v -7.5000 1.0000 -4.0000
v -7.5000 0.0000 -4.0000
v -8.5000 2.0000 -4.0000
v -7.5000 2.0000 -4.0000
v -8.5000 3.0000 -4.0000
v -7.5000 3.0000 -4.0000
v -7.5000 4.0000 -4.0000
v -7.5000 14.0000 -4.0000
v -7.5000 5.0000 -5.0000
v -7.5000 4.0000 -5.0000
v -7.5000 6.0000 -5.0000
v -7.5000 7.0000 -5.0000
v -7.5000 8.0000 -5.0000
v -7.5000 9.0000 -5.0000
v -7.5000 10.0000 -5.0000
v -7.5000 11.0000 -5.0000
v -7.5000 12.0000 -5.0000
v -7.5000 13.0000 -5.0000
v -7.5000 14.0000 -5.0000
v -6.5000 4.0000 5.0000
v -6.5000 5.0000 5.0000
v -6.5000 4.0000 4.0000
v -6.5000 6.0000 5.0000
v -6.5000 7.0000 5.0000
v -6.5000 8.0000 5.0000
v -6.5000 9.0000 5.0000
v -6.5000 10.0000 5.0000
v -6.5000 11.0000 5.0000
v -6.5000 12.0000 5.0000
v -6.5000 13.0000 5.0000
v -6.5000 14.0000 5.0000
v -6.5000 14.0000 4.0000
v -6.5000 0.0000 4.0000
v -6.5000 0.0000 3.0000
v -6.5000 1.0000 3.0000
v -6.5000 1.0000 4.0000
v -6.5000 2.0000 3.0000
v -6.5000 2.0000 4.0000
v -6.5000 3.0000 3.0000
v -6.5000 3.0000 4.0000
v -6.5000 4.0000 3.0000
v -6.5000 14.0000 3.0000
v -6.5000 0.0000 2.0000
v -6.5000 1.0000 2.0000
v -6.5000 2.0000 2.0000
v -6.5000 3.0000 2.0000
v -6.5000 4.0000 2.0000
v -6.5000 14.0000 2.0000
v -6.5000 4.0000 1.0000
v -6.5000 14.0000 1.0000
v -6.5000 4.0000 0.0000
v -6.5000 14.0000 0.0000
v -6.5000 4.0000 -1.0000
v -6.5000 14.0000 -1.0000
v -6.5000 4.0000 -2.0000
v -6.5000 14.0000 -2.0000
v -6.5000 0.0000 -2.0000
v -6.5000 0.0000 -3.0000
v -6.5000 1.0000 -3.0000
v -6.5000 1.0000 -2.0000
v -6.5000 2.0000 -3.0000
v -6.5000 2.0000 -2.0000
v -6.5000 3.0000 -3.0000
v -6.5000 3.0000 -2.0000
v -6.5000 4.0000 -3.0000
v -6.5000 14.0000 -3.0000
v -6.5000 0.0000 -4.0000
v -6.5000 1.0000 -4.0000
v -6.5000 2.0000 -4.0000
v -6.5000 3.0000 -4.0000
v -6.5000 4.0000 -4.0000
v -6.5000 14.0000 -4.0000
v -6.5000 5.0000 -5.0000
v -6.5000 4.0000 -5.0000
v -6.5000 6.0000 -5.0000
v -6.5000 7.0000 -5.0000
v -6.5000 8.0000 -5.0000
v -6.5000 9.0000 -5.0000
v -6.5000 10.0000 -5.0000
v -6.5000 11.0000 -5.0000
v -6.5000 12.0000 -5.0000
v -6.5000 13.0000 -5.0000
v -6.5000 14.0000 -5.0000
v -5.5000 4.0000 5.0000
v -5.5000 5.0000 5.0000
v -5.5000 4.0000 4.0000
v -5.5000 6.0000 5.0000
v -5.5000 7.0000 5.0000
v -5.5000 8.0000 5.0000
v -5.5000 9.0000 5.0000
v -5.5000 10.0000 5.0000
v -5.5000 11.0000 5.0000
v -5.5000 12.0000 5.0000
v -5.5000 13.0000 5.0000
v -5.5000 14.0000 5.0000
v -5.5000 14.0000 4.0000
v -5.5000 4.0000 3.0000
v -5.5000 14.0000 3.0000
v -5.5000 4.0000 2.0000
v -5.5000 14.0000 2.0000
v -5.5000 4.0000 1.0000
v -5.5000 14.0000 1.0000
v -5.5000 4.0000 0.0000
v -5.5000 14.0000 0.0000
v -5.5000 4.0000 -1.0000
v -5.5000 14.0000 -1.0000
v -5.5000 4.0000 -2.0000
v -5.5000 14.0000 -2.0000
v -5.5000 4.0000 -3.0000
v -5.5000 14.0000 -3.0000
v -5.5000 4.0000 -4.0000
v -5.5000 14.0000 -4.0000
v -5.5000 5.0000 -5.0000
v -5.5000 4.0000 -5.0000
v -5.5000 6.0000 -5.0000
v -5.5000 7.0000 -5.0000
v -5.5000 8.0000 -5.0000
v -5.5000 9.0000 -5.0000
v -5.5000 10.0000 -5.0000
v -5.5000 11.0000 -5.0000
v -5.5000 12.0000 -5.0000
v -5.5000 13.0000 -5.0000
v -5.5000 14.0000 -5.0000
v -4.5000 4.0000 5.0000
v -4.5000 5.0000 5.0000
v -4.5000 4.0000 4.0000
v -4.5000 6.0000 5.0000
v -4.5000 7.0000 5.0000
v -4.5000 8.0000 5.0000
v -4.5000 9.0000 5.0000
v -4.5000 10.0000 5.0000
v -4.5000 11.0000 5.0000
v -4.5000 12.0000 5.0000
v -4.5000 13.0000 5.0000
v -4.5000 14.0000 5.0000
v -4.5000 14.0000 4.0000
v -4.5000 4.0000 3.0000
v -4.5000 14.0000 3.0000
v -4.5000 4.0000 2.0000
v -4.5000 14.0000 2.0000
v -4.5000 4.0000 1.0000
v -4.5000 14.0000 1.0000
v -4.5000 4.0000 0.0000
v -4.5000 14.0000 0.0000
v -4.5000 4.0000 -1.0000
v -4.5000 14.0000 -1.0000
v -4.5000 4.0000 -2.0000
v -4.5000 14.0000 -2.0000
v -4.5000 4.0000 -3.0000
v -4.5000 14.0000 -3.0000
v -4.5000 4.0000 -4.0000
v -4.5000 14.0000 -4.0000
v -4.5000 5.0000 -5.0000
v -4.5000 4.0000 -5.0000
v -4.5000 6.0000 -5.0000
v -4.5000 7.0000 -5.0000
v -4.5000 8.0000 -5.0000
v -4.5000 9.0000 -5.0000
v -4.5000 10.0000 -5.0000
v -4.5000 11.0000 -5.0000
v -4.5000 12.0000 -5.0000
v -4.5000 13.0000 -5.0000
v -4.5000 14.0000 -5.0000
v -3.5000 4.0000 5.0000
v -3.5000 5.0000 5.0000
v -3.5000 4.0000 4.0000
v -3.5000 6.0000 5.0000
v -3.5000 7.0000 5.0000
v -3.5000 8.0000 5.0000
v -3.5000 9.0000 5.0000
v -3.5000 10.0000 5.0000
v -3.5000 11.0000 5.0000
v -3.5000 12.0000 5.0000
v -3.5000 13.0000 5.0000
v -3.5000 14.0000 5.0000
v -3.5000 14.0000 4.0000
v -3.5000 4.0000 3.0000
v -3.5000 14.0000 3.0000
v -3.5000 4.0000 2.0000
v -3.5000 14.0000 2.0000
v -3.5000 4.0000 1.0000
v -3.5000 14.0000 1.0000
v -3.5000 4.0000 0.0000
v -3.5000 14.0000 0.0000
v -3.5000 4.0000 -1.0000
v -3.5000 14.0000 -1.0000
v -3.5000 4.0000 -2.0000
v -3.5000 14.0000 -2.0000
v -3.5000 4.0000 -3.0000
v -3.5000 14.0000 -3.0000
v -3.5000 4.0000 -4.0000
v -3.5000 14.0000 -4.0000
v -3.5000 5.0000 -5.0000
v -3.5000 4.0000 -5.0000
v -3.5000 6.0000 -5.0000
v -3.5000 7.0000 -5.0000
v -3.5000 8.0000 -5.0000
v -3.5000 9.0000 -5.0000
v -3.5000 10.0000 -5.0000
v -3.5000 11.0000 -5.0000
v -3.5000 12.0000 -5.0000
v -3.5000 13.0000 -5.0000
v -3.5000 14.0000 -5.0000
v -2.5000 4.0000 5.0000
v -2.5000 5.0000 5.0000
v -2.5000 4.0000 4.0000
v -2.5000 6.0000 5.0000
v -2.5000 7.0000 5.0000
v -2.5000 8.0000 5.0000
v -2.5000 9.0000 5.0000
v -2.5000 10.0000 5.0000
v -2.5000 11.0000 5.0000
v -2.5000 12.0000 5.0000
v -2.5000 13.0000 5.0000
v -2.5000 14.0000 5.0000
v -2.5000 14.0000 4.0000
v -2.5000 4.0000 3.0000
v -2.5000 14.0000 3.0000
v -2.5000 4.0000 2.0000
v -2.5000 14.0000 2.0000
v -2.5000 4.0000 1.0000
v -2.5000 14.0000 1.0000
v -2.5000 4.0000 0.0000
v -2.5000 14.0000 0.0000
v -2.5000 4.0000 -1.0000
v -2.5000 14.0000 -1.0000
v -2.5000 4.0000 -2.0000
v -2.5000 14.0000 -2.0000
v -2.5000 4.0000 -3.0000
v -2.5000 14.0000 -3.0000
v -2.5000 4.0000 -4.0000
v -2.5000 14.0000 -4.0000
v -2.5000 5.0000 -5.0000
v -2.5000 4.0000 -5.0000
v -2.5000 6.0000 -5.0000
v -2.5000 7.0000 -5.0000
v -2.5000 8.0000 -5.0000
v -2.5000 9.0000 -5.0000
v -2.5000 10.0000 -5.0000
v -2.5000 11.0000 -5.0000
v -2.5000 12.0000 -5.0000
v -2.5000 13.0000 -5.0000
v -2.5000 14.0000 -5.0000
v -1.5000 4.0000 5.0000
v -1.5000 5.0000 5.0000
v -1.5000 4.0000 4.0000
v -1.5000 6.0000 5.0000
v -1.5000 7.0000 5.0000
v -1.5000 8.0000 5.0000
v -1.5000 9.0000 5.0000
v -1.5000 10.0000 5.0000
v -1.5000 11.0000 5.0000
v -1.5000 12.0000 5.0000
v -1.5000 13.0000 5.0000
v -1.5000 14.0000 5.0000
v -1.5000 14.0000 4.0000
v -1.5000 4.0000 3.0000
v -1.5000 14.0000 3.0000
v -1.5000 4.0000 2.0000
v -1.5000 14.0000 2.0000
v -1.5000 4.0000 1.0000
v -1.5000 14.0000 1.0000
v -1.5000 4.0000 0.0000
v -1.5000 14.0000 0.0000
v -1.5000 4.0000 -1.0000
v -1.5000 14.0000 -1.0000
v -1.5000 4.0000 -2.0000
v -1.5000 14.0000 -2.0000
v -1.5000 4.0000 -3.0000
v -1.5000 14.0000 -3.0000
v -1.5000 4.0000 -4.0000
v -1.5000 14.0000 -4.0000
v -1.5000 5.0000 -5.0000
v -1.5000 4.0000 -5.0000
v -1.5000 6.0000 -5.0000
v -1.5000 7.0000 -5.0000
v -1.5000 8.0000 -5.0000
v -1.5000 9.0000 -5.0000
v -1.5000 10.0000 -5.0000
v -1.5000 11.0000 -5.0000
v -1.5000 12.0000 -5.0000
v -1.5000 13.0000 -5.0000
v -1.5000 14.0000 -5.0000
v -0.5000 4.0000 5.0000
v -0.5000 5.0000 5.0000
v -0.5000 4.0000 4.0000
v -0.5000 6.0000 5.0000
v -0.5000 7.0000 5.0000
v -0.5000 8.0000 5.0000
v -0.5000 9.0000 5.0000
v -0.5000 10.0000 5.0000
v -0.5000 11.0000 5.0000
v -0.5000 12.0000 5.0000
v -0.5000 13.0000 5.0000
v -0.5000 14.0000 5.0000
v -0.5000 14.0000 4.0000
v -0.5000 4.0000 3.0000
v -0.5000 14.0000 3.0000
v -0.5000 4.0000 2.0000
v -0.5000 14.0000 2.0000
v -0.5000 4.0000 1.0000
v -0.5000 14.0000 1.0000
v -0.5000 4.0000 0.0000
v -0.5000 14.0000 0.0000
v -0.5000 4.0000 -1.0000
v -0.5000 14.0000 -1.0000
v -0.5000 4.0000 -2.0000
v -0.5000 14.0000 -2.0000
v -0.5000 4.0000 -3.0000
v -0.5000 14.0000 -3.0000
v -0.5000 4.0000 -4.0000
v -0.5000 14.0000 -4.0000
v -0.5000 5.0000 -5.0000
v -0.5000 4.0000 -5.0000
v -0.5000 6.0000 -5.0000
v -0.5000 7.0000 -5.0000
v -0.5000 8.0000 -5.0000
v -0.5000 9.0000 -5.0000
v -0.5000 10.0000 -5.0000
v -0.5000 11.0000 -5.0000
v -0.5000 12.0000 -5.0000
v -0.5000 13.0000 -5.0000
v -0.5000 14.0000 -5.0000
v 0.5000 4.0000 5.0000
v 0.5000 5.0000 5.0000
v 0.5000 4.0000 4.0000
v 0.5000 6.0000 5.0000
v 0.5000 7.0000 5.0000
v 0.5000 8.0000 5.0000
v 0.5000 9.0000 5.0000
v 0.5000 10.0000 5.0000
v 0.5000 11.0000 5.0000
v 0.5000 12.0000 5.0000
v 0.5000 13.0000 5.0000
v 0.5000 14.0000 5.0000
v 0.5000 14.0000 4.0000
v 0.5000 4.0000 3.0000
v 0.5000 14.0000 3.0000
v 0.5000 4.0000 2.0000
v 0.5000 14.0000 2.0000
v 0.5000 4.0000 1.0000
v 0.5000 14.0000 1.0000
v 0.5000 4.0000 0.0000
v 0.5000 14.0000 0.0000
v 0.5000 4.0000 -1.0000
v 0.5000 14.0000 -1.0000
v 0.5000 4.0000 -2.0000
v 0.5000 14.0000 -2.0000
v 0.5000 4.0000 -3.0000
v 0.5000 14.0000 -3.0000
v 0.5000 4.0000 -4.0000
v 0.5000 14.0000 -4.0000
v 0.5000 5.0000 -5.0000
v 0.5000 4.0000 -5.0000
v 0.5000 6.0000 -5.0000
v 0.5000 7.0000 -5.0000
v 0.5000 8.0000 -5.0000
v 0.5000 9.0000 -5.0000
v 0.5000 10.0000 -5.0000
v 0.5000 11.0000 -5.0000
v 0.5000 12.0000 -5.0000
v 0.5000 13.0000 -5.0000
v 0.5000 14.0000 -5.0000
v 1.5000 4.0000 5.0000
v 1.5000 5.0000 5.0000
v 1.5000 4.0000 4.0000
v 1.5000 6.0000 5.0000
v 1.5000 7.0000 5.0000
v 1.5000 8.0000 5.0000
v 1.5000 9.0000 5.0000
v 1.5000 10.0000 5.0000
v 1.5000 11.0000 5.0000
v 1.5000 12.0000 5.0000
v 1.5000 13.0000 5.0000
v 1.5000 14.0000 5.0000
v 1.5000 14.0000 4.0000
v 1.5000 4.0000 3.0000
v 1.5000 14.0000 3.0000
v 1.5000 4.0000 2.0000
v 1.5000 14.0000 2.0000
v 1.5000 4.0000 1.0000
v 1.5000 14.0000 1.0000
v 1.5000 4.0000 0.0000
v 1.5000 14.0000 0.0000
v 1.5000 4.0000 -1.0000
v 1.5000 14.0000 -1.0000
v 1.5000 4.0000 -2.0000
v 1.5000 14.0000 -2.0000
v 1.5000 4.0000 -3.0000
v 1.5000 14.0000 -3.0000
v 1.5000 4.0000 -4.0000
v 1.5000 14.0000 -4.0000
v 1.5000 5.0000 -5.0000
v 1.5000 4.0000 -5.0000
v 1.5000 6.0000 -5.0000
v 1.5000 7.0000 -5.0000
v 1.5000 8.0000 -5.0000
v 1.5000 9.0000 -5.0000
v 1.5000 10.0000 -5.0000
v 1.5000 11.0000 -5.0000
v 1.5000 12.0000 -5.0000
v 1.5000 13.0000 -5.0000
v 1.5000 14.0000 -5.0000
v 2.5000 4.0000 5.0000
v 2.5000 5.0000 5.0000
v 2.5000 4.0000 4.0000
v 2.5000 6.0000 5.0000
v 2.5000 7.0000 5.0000
v 2.5000 8.0000 5.0000
v 2.5000 9.0000 5.0000
v 2.5000 10.0000 5.0000
v 2.5000 11.0000 5.0000
v 2.5000 12.0000 5.0000
v 2.5000 13.0000 5.0000
v 2.5000 14.0000 5.0000
v 2.5000 14.0000 4.0000
v 2.5000 4.0000 3.0000
v 2.5000 14.0000 3.0000
v 2.5000 4.0000 2.0000
v 2.5000 14.0000 2.0000
v 2.5000 4.0000 1.0000
v 2.5000 14.0000 1.0000
v 2.5000 4.0000 0.0000
v 2.5000 14.0000 0.0000
v 2.5000 4.0000 -1.0000
v 2.5000 14.0000 -1.0000
v 2.5000 4.0000 -2.0000
v 2.5000 14.0000 -2.0000
v 2.5000 4.0000 -3.0000
v 2.5000 14.0000 -3.0000
v 2.5000 4.0000 -4.0000
v 2.5000 14.0000 -4.0000
v 2.5000 5.0000 -5.0000
v 2.5000 4.0000 -5.0000
v 2.5000 6.0000 -5.0000
v 2.5000 7.0000 -5.0000
v 2.5000 8.0000 -5.0000
v 2.5000 9.0000 -5.0000
v 2.5000 10.0000 -5.0000
v 2.5000 11.0000 -5.0000
v 2.5000 12.0000 -5.0000
v 2.5000 13.0000 -5.0000
v 2.5000 14.0000 -5.0000
v 3.5000 4.0000 5.0000
v 3.5000 5.0000 5.0000
v 3.5000 4.0000 4.0000
v 3.5000 6.0000 5.0000
v 3.5000 7.0000 5.0000
v 3.5000 8.0000 5.0000
v 3.5000 9.0000 5.0000
v 3.5000 10.0000 5.0000
v 3.5000 11.0000 5.0000
v 3.5000 12.0000 5.0000
v 3.5000 13.0000 5.0000
v 3.5000 14.0000 5.0000
v 3.5000 14.0000 4.0000
v 2.5000 0.0000 4.0000
v 2.5000 1.0000 4.0000
v 2.5000 1.0000 3.0000
v 2.5000 0.0000 3.0000
v 3.5000 0.0000 4.0000
v 3.5000 1.0000 4.0000
v 3.5000 0.0000 3.0000
v 2.5000 2.0000 4.0000
v 2.5000 2.0000 3.0000
v 3.5000 2.0000 4.0000
v 2.5000 3.0000 4.0000
v 2.5000 3.0000 3.0000
v 3.5000 3.0000 4.0000
v 3.5000 14.0000 3.0000
v 2.5000 1.0000 2.0000
v 2.5000 0.0000 2.0000
v 3.5000 1.0000 2.0000
v 3.5000 0.0000 2.0000
v 2.5000 2.0000 2.0000
v 3.5000 2.0000 2.0000
v 2.5000 3.0000 2.0000
v 3.5000 3.0000 2.0000
v 3.5000 4.0000 2.0000
v 3.5000 14.0000 2.0000
v 3.5000 4.0000 1.0000
v 3.5000 14.0000 1.0000
v 3.5000 4.0000 0.0000
v 3.5000 14.0000 0.0000
v 3.5000 4.0000 -1.0000
v 3.5000 14.0000 -1.0000
v 3.5000 4.0000 -2.0000
v 3.5000 14.0000 -2.0000
v 2.5000 0.0000 -2.0000
v 2.5000 1.0000 -2.0000
v 2.5000 1.0000 -3.0000
v 2.5000 0.0000 -3.0000
v 3.5000 0.0000 -2.0000
v 3.5000 1.0000 -2.0000
v 3.5000 0.0000 -3.0000
v 2.5000 2.0000 -2.0000
v 2.5000 2.0000 -3.0000
v 3.5000 2.0000 -2.0000
v 2.5000 3.0000 -2.0000
v 2.5000 3.0000 -3.0000
v 3.5000 3.0000 -2.0000
v 3.5000 14.0000 -3.0000
v 2.5000 1.0000 -4.0000
v 2.5000 0.0000 -4.0000
v 3.5000 1.0000 -4.0000
v 3.5000 0.0000 -4.0000
v 2.5000 2.0000 -4.0000
v 3.5000 2.0000 -4.0000
v 2.5000 3.0000 -4.0000
v 3.5000 3.0000 -4.0000
v 3.5000 4.0000 -4.0000
v 3.5000 14.0000 -4.0000
v 3.5000 5.0000 -5.0000
v 3.5000 4.0000 -5.0000
v 3.5000 6.0000 -5.0000
v 3.5000 7.0000 -5.0000
v 3.5000 8.0000 -5.0000
v 3.5000 9.0000 -5.0000
v 3.5000 10.0000 -5.0000
v 3.5000 11.0000 -5.0000
v 3.5000 12.0000 -5.0000
v 3.5000 13.0000 -5.0000
v 3.5000 14.0000 -5.0000
v 4.5000 4.0000 5.0000
v 4.5000 5.0000 5.0000
v 4.5000 4.0000 4.0000
v 4.5000 6.0000 5.0000
v 4.5000 7.0000 5.0000
v 4.5000 8.0000 5.0000
v 4.5000 9.0000 5.0000
v 4.5000 10.0000 5.0000
v 4.5000 11.0000 5.0000
v 4.5000 12.0000 5.0000
v 4.5000 13.0000 5.0000
v 4.5000 14.0000 5.0000
v 4.5000 14.0000 4.0000
v 4.5000 0.0000 4.0000
v 4.5000 0.0000 3.0000
v 4.5000 1.0000 3.0000
v 4.5000 1.0000 4.0000
v 4.5000 2.0000 3.0000
v 4.5000 2.0000 4.0000
v 4.5000 3.0000 3.0000
v 4.5000 3.0000 4.0000
v 4.5000 4.0000 3.0000
v 4.5000 14.0000 3.0000
v 4.5000 0.0000 2.0000
v 4.5000 1.0000 2.0000
v 4.5000 2.0000 2.0000
v 4.5000 3.0000 2.0000
v 4.5000 4.0000 2.0000
v 4.5000 14.0000 2.0000
v 4.5000 4.0000 1.0000
v 4.5000 14.0000 1.0000
v 4.5000 4.0000 0.0000
v 4.5000 14.0000 0.0000
v 4.5000 4.0000 -1.0000
v 4.5000 14.0000 -1.0000
v 4.5000 4.0000 -2.0000
v 4.5000 14.0000 -2.0000
v 4.5000 0.0000 -2.0000
v 4.5000 0.0000 -3.0000
v 4.5000 1.0000 -3.0000
v 4.5000 1.0000 -2.0000
v 4.5000 2.0000 -3.0000
v 4.5000 2.0000 -2.0000
v 4.5000 3.0000 -3.0000
v 4.5000 3.0000 -2.0000
v 4.5000 4.0000 -3.0000
v 4.5000 14.0000 -3.0000
v 4.5000 0.0000 -4.0000
v 4.5000 1.0000 -4.0000
v 4.5000 2.0000 -4.0000
v 4.5000 3.0000 -4.0000
v 4.5000 4.0000 -4.0000
v 4.5000 14.0000 -4.0000
v 4.5000 5.0000 -5.0000
v 4.5000 4.0000 -5.0000
v 4.5000 6.0000 -5.0000
v 4.5000 7.0000 -5.0000
v 4.5000 8.0000 -5.0000
v 4.5000 9.0000 -5.0000
v 4.5000 10.0000 -5.0000
v 4.5000 11.0000 -5.0000
v 4.5000 12.0000 -5.0000
v 4.5000 13.0000 -5.0000
v 4.5000 14.0000 -5.0000
v 5.5000 4.0000 5.0000
v 5.5000 4.0000 4.0000
v 5.5000 5.0000 4.0000
v 5.5000 5.0000 5.0000
v 5.5000 6.0000 4.0000
v 5.5000 6.0000 5.0000
v 5.5000 7.0000 4.0000
v 5.5000 7.0000 5.0000
v 5.5000 8.0000 4.0000
v 5.5000 8.0000 5.0000
v 5.5000 9.0000 4.0000
v 5.5000 9.0000 5.0000
v 5.5000 10.0000 4.0000
v 5.5000 10.0000 5.0000
v 5.5000 11.0000 4.0000
v 5.5000 11.0000 5.0000
v 5.5000 12.0000 4.0000
v 5.5000 12.0000 5.0000
v 5.5000 13.0000 4.0000
v 5.5000 13.0000 5.0000
v 5.5000 14.0000 4.0000
v 5.5000 14.0000 5.0000
v 5.5000 4.0000 3.0000
v 5.5000 12.0000 3.0000
v 5.5000 13.0000 3.0000
v 5.5000 14.0000 3.0000
v 5.5000 4.0000 2.0000
v 5.5000 12.0000 2.0000
v 5.5000 13.0000 2.0000
v 5.5000 14.0000 2.0000
v 5.5000 4.0000 1.0000
v 5.5000 12.0000 1.0000
v 5.5000 13.0000 1.0000
v 5.5000 14.0000 1.0000
v 5.5000 4.0000 0.0000
v 5.5000 12.0000 0.0000
v 5.5000 13.0000 0.0000
v 5.5000 14.0000 0.0000
v 5.5000 4.0000 -1.0000
v 5.5000 12.0000 -1.0000
v 5.5000 13.0000 -1.0000
v 5.5000 14.0000 -1.0000
v 5.5000 4.0000 -2.0000
v 5.5000 12.0000 -2.0000
v 5.5000 13.0000 -2.0000
v 5.5000 14.0000 -2.0000
v 5.5000 4.0000 -3.0000
v 5.5000 12.0000 -3.0000
v 5.5000 13.0000 -3.0000
v 5.5000 14.0000 -3.0000
v 5.5000 4.0000 -4.0000
v 5.5000 12.0000 -4.0000
v 5.5000 13.0000 -4.0000
v 5.5000 14.0000 -4.0000
v 5.5000 4.0000 -5.0000
v 5.5000 5.0000 -5.0000
v 5.5000 5.0000 -4.0000
v 5.5000 6.0000 -5.0000
v 5.5000 6.0000 -4.0000
v 5.5000 7.0000 -5.0000
v 5.5000 7.0000 -4.0000
v 5.5000 8.0000 -5.0000
v 5.5000 8.0000 -4.0000
v 5.5000 9.0000 -5.0000
v 5.5000 9.0000 -4.0000
v 5.5000 10.0000 -5.0000
v 5.5000 10.0000 -4.0000
v 5.5000 11.0000 -5.0000
v 5.5000 11.0000 -4.0000
v 5.5000 12.0000 -5.0000
v 5.5000 13.0000 -5.0000
v 5.5000 14.0000 -5.0000
v 6.5000 4.0000 4.0000
v 6.5000 5.0000 4.0000
v 6.5000 4.0000 3.0000
v 6.5000 6.0000 4.0000
v 6.5000 7.0000 4.0000
v 6.5000 8.0000 4.0000
v 6.5000 9.0000 4.0000
v 6.5000 10.0000 4.0000
v 6.5000 11.0000 4.0000
v 6.5000 12.0000 4.0000
v 6.5000 12.0000 3.0000
v 6.5000 4.0000 2.0000
v 6.5000 12.0000 2.0000
v 6.5000 4.0000 1.0000
v 6.5000 12.0000 1.0000
v 6.5000 4.0000 0.0000
v 6.5000 12.0000 0.0000
v 6.5000 4.0000 -1.0000
v 6.5000 12.0000 -1.0000
v 6.5000 4.0000 -2.0000
v 6.5000 12.0000 -2.0000
v 6.5000 4.0000 -3.0000
v 6.5000 12.0000 -3.0000
v 6.5000 5.0000 -4.0000
v 6.5000 4.0000 -4.0000
v 6.5000 6.0000 -4.0000
v 6.5000 7.0000 -4.0000
v 6.5000 8.0000 -4.0000
v 6.5000 9.0000 -4.0000
v 6.5000 10.0000 -4.0000
v 6.5000 11.0000 -4.0000
v 6.5000 12.0000 -4.0000
v 7.5000 4.0000 4.0000
v 7.5000 5.0000 4.0000
v 7.5000 4.0000 3.0000
v 7.5000 6.0000 4.0000
v 7.5000 7.0000 4.0000
v 7.5000 8.0000 4.0000
v 7.5000 9.0000 4.0000
v 7.5000 10.0000 4.0000
v 7.5000 11.0000 4.0000
v 7.5000 12.0000 4.0000
v 7.5000 12.0000 3.0000
v 7.5000 4.0000 2.0000
v 7.5000 12.0000 2.0000
v 7.5000 4.0000 1.0000
v 7.5000 12.0000 1.0000
v 7.5000 4.0000 0.0000
v 7.5000 12.0000 0.0000
v 7.5000 4.0000 -1.0000
v 7.5000 12.0000 -1.0000
v 7.5000 4.0000 -2.0000
v 7.5000 12.0000 -2.0000
v 7.5000 4.0000 -3.0000
v 7.5000 12.0000 -3.0000
v 7.5000 5.0000 -4.0000
v 7.5000 4.0000 -4.0000
v 7.5000 6.0000 -4.0000
v 7.5000 7.0000 -4.0000
v 7.5000 8.0000 -4.0000
v 7.5000 9.0000 -4.0000
v 7.5000 10.0000 -4.0000
v 7.5000 11.0000 -4.0000
v 7.5000 12.0000 -4.0000
v 8.5000 4.0000 4.0000
v 8.5000 5.0000 4.0000
v 8.5000 4.0000 3.0000
v 8.5000 6.0000 4.0000
v 8.5000 7.0000 4.0000
v 8.5000 8.0000 4.0000
v 8.5000 9.0000 4.0000
v 8.5000 10.0000 4.0000
v 8.5000 11.0000 4.0000
v 8.5000 12.0000 4.0000
v 8.5000 12.0000 3.0000
v 8.5000 4.0000 2.0000
v 8.5000 12.0000 2.0000
v 8.5000 4.0000 1.0000
v 8.5000 12.0000 1.0000
v 8.5000 4.0000 0.0000
v 8.5000 12.0000 0.0000
v 8.5000 4.0000 -1.0000
v 8.5000 12.0000 -1.0000
v 8.5000 4.0000 -2.0000
v 8.5000 12.0000 -2.0000
v 8.5000 4.0000 -3.0000
v 8.5000 12.0000 -3.0000
v 8.5000 5.0000 -4.0000
v 8.5000 4.0000 -4.0000
v 8.5000 6.0000 -4.0000
v 8.5000 7.0000 -4.0000
v 8.5000 8.0000 -4.0000
v 8.5000 9.0000 -4.0000
v 8.5000 10.0000 -4.0000
v 8.5000 11.0000 -4.0000
v 8.5000 12.0000 -4.0000
v 9.5000 4.0000 4.0000
v 9.5000 5.0000 4.0000
v 9.5000 4.0000 3.0000
v 9.5000 6.0000 4.0000
v 9.5000 7.0000 4.0000
v 9.5000 8.0000 4.0000
v 9.5000 9.0000 4.0000
v 9.5000 10.0000 4.0000
v 9.5000 11.0000 4.0000
v 9.5000 12.0000 4.0000
v 9.5000 12.0000 3.0000
v 9.5000 4.0000 2.0000
v 9.5000 12.0000 2.0000
v 9.5000 4.0000 1.0000
v 9.5000 12.0000 1.0000
v 9.5000 4.0000 0.0000
v 9.5000 12.0000 0.0000
v 9.5000 4.0000 -1.0000
v 9.5000 12.0000 -1.0000
v 9.5000 4.0000 -2.0000
v 9.5000 12.0000 -2.0000
v 9.5000 4.0000 -3.0000
v 9.5000 12.0000 -3.0000
v 9.5000 5.0000 -4.0000
v 9.5000 4.0000 -4.0000
v 9.5000 6.0000 -4.0000
v 9.5000 7.0000 -4.0000
v 9.5000 8.0000 -4.0000
v 9.5000 9.0000 -4.0000
v 9.5000 10.0000 -4.0000
v 9.5000 11.0000 -4.0000
v 9.5000 12.0000 -4.0000
v 10.5000 4.0000 4.0000
v 10.5000 4.0000 3.0000
v 10.5000 5.0000 3.0000
v 10.5000 5.0000 4.0000
v 10.5000 6.0000 3.0000
v 10.5000 6.0000 4.0000
v 10.5000 7.0000 3.0000
v 10.5000 7.0000 4.0000
v 10.5000 8.0000 3.0000
v 10.5000 8.0000 4.0000
v 10.5000 9.0000 3.0000
v 10.5000 9.0000 4.0000
v 10.5000 10.0000 3.0000
v 10.5000 10.0000 4.0000
v 10.5000 11.0000 3.0000
v 10.5000 11.0000 4.0000
v 10.5000 12.0000 3.0000
v 10.5000 12.0000 4.0000
v 10.5000 4.0000 2.0000
v 10.5000 5.0000 2.0000
v 10.5000 6.0000 2.0000
v 10.5000 7.0000 2.0000
v 10.5000 8.0000 2.0000
v 10.5000 9.0000 2.0000
v 10.5000 10.0000 2.0000
v 10.5000 11.0000 2.0000
v 10.5000 12.0000 2.0000
v 10.5000 4.0000 1.0000
v 10.5000 5.0000 1.0000
v 10.5000 6.0000 1.0000
v 10.5000 10.0000 1.0000
v 10.5000 11.0000 1.0000
v 10.5000 12.0000 1.0000
v 10.5000 4.0000 0.0000
v 10.5000 5.0000 0.0000
v 10.5000 6.0000 0.0000
v 10.5000 10.0000 0.0000
v 10.5000 11.0000 0.0000
v 10.5000 12.0000 0.0000
v 10.5000 4.0000 -1.0000
v 10.5000 5.0000 -1.0000
v 10.5000 6.0000 -1.0000
v 10.5000 10.0000 -1.0000
v 10.5000 11.0000 -1.0000
v 10.5000 12.0000 -1.0000
v 10.5000 4.0000 -2.0000
v 10.5000 5.0000 -2.0000
v 10.5000 6.0000 -2.0000
v 10.5000 10.0000 -2.0000
v 10.5000 11.0000 -2.0000
v 10.5000 12.0000 -2.0000
v 10.5000 4.0000 -3.0000
v 10.5000 5.0000 -3.0000
v 10.5000 6.0000 -3.0000
v 10.5000 7.0000 -3.0000
v 10.5000 7.0000 -2.0000
v 10.5000 8.0000 -3.0000
v 10.5000 8.0000 -2.0000
v 10.5000 9.0000 -3.0000
v 10.5000 9.0000 -2.0000
v 10.5000 10.0000 -3.0000
v 10.5000 11.0000 -3.0000
v 10.5000 12.0000 -3.0000
v 10.5000 4.0000 -4.0000
v 10.5000 5.0000 -4.0000
v 10.5000 6.0000 -4.0000
v 10.5000 7.0000 -4.0000
v 10.5000 8.0000 -4.0000
v 10.5000 9.0000 -4.0000
v 10.5000 10.0000 -4.0000
v 10.5000 11.0000 -4.0000
v 10.5000 12.0000 -4.0000
v 11.5000 6.0000 2.0000
v 11.5000 6.0000 1.0000
v 11.5000 7.0000 1.0000
v 11.5000 7.0000 2.0000
v 11.5000 8.0000 1.0000
v 11.5000 8.0000 2.0000
v 11.5000 9.0000 1.0000
v 11.5000 9.0000 2.0000
v 11.5000 10.0000 1.0000
v 11.5000 10.0000 2.0000
v 11.5000 6.0000 0.0000
v 11.5000 7.0000 0.0000
v 11.5000 8.0000 0.0000
v 11.5000 9.0000 0.0000
v 11.5000 10.0000 0.0000
v 11.5000 6.0000 -1.0000
v 11.5000 7.0000 -1.0000
v 11.5000 8.0000 -1.0000
v 11.5000 9.0000 -1.0000
v 11.5000 10.0000 -1.0000
v 11.5000 6.0000 -2.0000
v 11.5000 7.0000 -2.0000
v 11.5000 8.0000 -2.0000
v 11.5000 9.0000 -2.0000
v 11.5000 10.0000 -2.0000
usemtl c4
f 4 3 9 10
f 6 11 12 7
f 6 4 10 11
f 2 17 18 3
f 8 7 19 20
f 8 20 17 2
f 9 21 23 13
f 12 16 24 22
f 16 13 23 24
f 18 26 29 21
f 19 22 30 27
f 27 30 29 26
usemtl c6
f 1 2 3 4
f 5 6 7 8
f 5 1 4 6
f 5 8 2 1
f 10 9 13 14
f 11 15 16 12
f 11 10 14 15
f 15 14 13 16
f 3 18 21 9
f 7 12 22 19
f 17 25 26 18
f 20 19 27 28
f 28 27 26 25
f 20 28 25 17
f 21 29 31 23
f 22 24 32 30
f 30 32 31 29
f 24 23 31 32
usemtl c24
f 247 248 249 250
f 247 251 252 248
f 247 250 253 251
f 248 254 255 249
f 248 252 256 254
f 250 249 261 262
f 262 261 263 264
f 250 262 264 253
f 249 255 265 261
f 261 265 266 263
f 279 280 281 282
f 279 283 284 280
f 279 282 285 283
f 280 286 287 281
f 280 284 288 286
f 282 281 293 294
f 294 293 295 296
f 282 294 296 285
f 281 287 297 293
f 293 297 298 295
f 327 328 329 330
f 251 327 330 252
f 251 253 328 327
f 330 329 331 332
f 252 330 332 256
f 328 337 338 329
f 264 263 338 337
f 253 264 337 328
f 329 338 339 331
f 263 266 339 338
f 351 352 353 354
f 283 351 354 284
f 283 285 352 351
f 354 353 355 356
f 284 354 356 288
f 352 361 362 353
f 296 295 362 361
f 285 296 361 352
f 353 362 363 355
f 295 298 363 362
f 751 752 753 754
f 751 755 756 752
f 751 754 757 755
f 752 758 759 753
f 752 756 760 758
f 754 753 765 766
f 766 765 767 768
f 754 766 768 757
f 753 759 769 765
f 765 769 770 767
f 783 784 785 786
f 783 787 788 784
f 783 786 789 787
f 784 790 791 785
f 784 788 792 790
f 786 785 797 798
f 798 797 799 800
f 786 798 800 789
f 785 791 801 797
f 797 801 802 799
f 831 832 833 834
f 755 831 834 756
f 755 757 832 831
f 834 833 835 836
f 756 834 836 760
f 832 841 842 833
f 768 767 842 841
f 757 768 841 832
f 833 842 843 835
f 767 770 843 842
f 855 856 857 858
f 787 855 858 788
f 787 789 856 855
f 858 857 859 860
f 788 858 860 792
f 856 865 866 857
f 800 799 866 865
f 789 800 865 856
f 857 866 867 859
f 799 802 867 866
usemtl c25
f 992 1024 1025 993
f 1014 1015 1047 1046
f 1156 1165 1166 1158
f 1165 1170 1171 1166
usemtl c29
f 33 34 35 36
f 36 35 37 38
f 33 39 40 34
f 34 40 37 35
f 33 36 38 39
f 41 42 43 14
f 41 44 45 42
f 41 14 46 44
f 42 47 48 43
f 42 45 49 47
f 14 43 72 13
f 14 13 73 46
f 43 48 74 72
f 13 72 86 23
f 13 23 87 73
f 72 74 88 86
f 23 86 98 31
f 23 31 99 87
f 86 88 100 98
f 31 98 108 109
f 31 109 110 99
f 98 100 111 108
f 109 108 119 120
f 109 120 121 110
f 108 111 122 119
f 120 119 132 133
f 120 133 134 121
f 119 122 135 132
f 133 132 145 146
f 133 146 147 134
f 132 135 148 145
f 146 145 158 159
f 146 159 160 147
f 145 148 161 158
f 159 158 172 173
f 173 172 174 175
f 159 173 175 160
f 158 161 176 172
f 172 176 177 174
f 44 192 193 45
f 44 46 194 192
f 45 193 195 49
f 46 73 206 194
f 73 87 208 206
f 87 99 210 208
f 99 110 212 210
f 110 121 214 212
f 121 134 216 214
f 134 147 218 216
f 147 160 220 218
f 175 174 222 223
f 160 175 223 220
f 174 177 224 222
f 192 234 235 193
f 192 194 236 234
f 193 235 237 195
f 208 210 271 269
f 210 212 273 271
f 212 214 275 273
f 214 216 277 275
f 223 222 303 304
f 220 223 304 301
f 222 224 305 303
f 234 314 315 235
f 234 236 316 314
f 235 315 317 237
f 269 271 343 341
f 271 273 345 343
f 273 275 347 345
f 275 277 349 347
f 304 303 367 368
f 301 304 368 365
f 303 305 369 367
f 314 378 379 315
f 314 316 380 378
f 315 379 381 317
f 316 335 391 380
f 335 341 393 391
f 341 343 395 393
f 343 345 397 395
f 345 347 399 397
f 347 349 401 399
f 349 359 403 401
f 359 365 405 403
f 368 367 407 408
f 365 368 408 405
f 367 369 409 407
f 378 418 419 379
f 378 380 420 418
f 379 419 421 381
f 380 391 431 420
f 391 393 433 431
f 393 395 435 433
f 395 397 437 435
f 397 399 439 437
f 399 401 441 439
f 401 403 443 441
f 403 405 445 443
f 408 407 447 448
f 405 408 448 445
f 407 409 449 447
f 418 458 459 419
f 418 420 460 458
f 419 459 461 421
f 420 431 471 460
f 431 433 473 471
f 433 435 475 473
f 435 437 477 475
f 437 439 479 477
f 439 441 481 479
f 441 443 483 481
f 443 445 485 483
f 448 447 487 488
f 445 448 488 485
f 447 449 489 487
f 458 498 499 459
f 458 460 500 498
f 459 499 501 461
f 460 471 511 500
f 471 473 513 511
f 473 475 515 513
f 475 477 517 515
f 477 479 519 517
f 479 481 521 519
f 481 483 523 521
f 483 485 525 523
f 488 487 527 528
f 485 488 528 525
f 487 489 529 527
f 498 538 539 499
f 498 500 540 538
f 499 539 541 501
f 500 511 551 540
f 511 513 553 551
f 513 515 555 553
f 515 517 557 555
f 517 519 559 557
f 519 521 561 559
f 521 523 563 561
f 523 525 565 563
f 528 527 567 568
f 525 528 568 565
f 527 529 569 567
f 538 578 579 539
f 538 540 580 578
f 539 579 581 541
f 540 551 591 580
f 551 553 593 591
f 553 555 595 593
f 555 557 597 595
f 557 559 599 597
f 559 561 601 599
f 561 563 603 601
f 563 565 605 603
f 568 567 607 608
f 565 568 608 605
f 567 569 609 607
f 578 618 619 579
f 578 580 620 618
f 579 619 621 581
f 580 591 631 620
f 591 593 633 631
f 593 595 635 633
f 595 597 637 635
f 597 599 639 637
f 599 601 641 639
f 601 603 643 641
f 603 605 645 643
f 608 607 647 648
f 605 608 648 645
f 607 609 649 647
f 618 658 659 619
f 618 620 660 658
f 619 659 661 621
f 620 631 671 660
f 631 633 673 671
f 633 635 675 673
f 635 637 677 675
f 637 639 679 677
f 639 641 681 679
f 641 643 683 681
f 643 645 685 683
f 648 647 687 688
f 645 648 688 685
f 647 649 689 687
f 658 698 699 659
f 658 660 700 698
f 659 699 701 661
f 660 671 711 700
f 671 673 713 711
f 673 675 715 713
f 675 677 717 715
f 677 679 719 717
f 679 681 721 719
f 681 683 723 721
f 683 685 725 723
f 688 687 727 728
f 685 688 728 725
f 687 689 729 727
f 698 738 739 699
f 698 700 740 738
f 699 739 741 701
f 713 715 775 773
f 715 717 777 775
f 717 719 779 777
f 719 721 781 779
f 728 727 807 808
f 725 728 808 805
f 727 729 809 807
f 738 818 819 739
f 738 740 820 818
f 739 819 821 741
f 773 775 847 845
f 775 777 849 847
f 777 779 851 849
f 779 781 853 851
f 808 807 871 872
f 805 808 872 869
f 807 809 873 871
f 882 883 884 885
f 818 882 885 819
f 818 820 883 882
f 885 884 886 887
f 819 885 887 821
f 820 839 904 883
f 839 845 908 904
f 845 847 912 908
f 847 849 916 912
f 849 851 920 916
f 851 853 924 920
f 853 863 928 924
f 863 869 932 928
f 932 936 937 938
f 872 871 937 936
f 869 872 936 932
f 938 937 939 940
f 871 873 939 937
f 1154 1155 1156 1157
f 1102 1154 1157 1103
f 1102 1111 1155 1154
f 1157 1156 1158 1159
f 1103 1157 1159 1104
f 1159 1158 1160 1161
f 1104 1159 1161 1105
f 1161 1160 1162 1163
f 1105 1161 1163 1106
f 1106 1163 1162 1112
f 1155 1164 1165 1156
f 1111 1117 1164 1155
f 1158 1166 1167 1160
f 1160 1167 1168 1162
f 1112 1162 1168 1118
f 1164 1169 1170 1165
f 1117 1123 1169 1164
f 1166 1171 1172 1167
f 1167 1172 1173 1168
f 1118 1168 1173 1124
f 1169 1174 1175 1170
f 1129 1137 1175 1174
f 1123 1129 1174 1169
f 1170 1175 1176 1171
f 1137 1139 1176 1175
f 1171 1176 1177 1172
f 1139 1141 1177 1176
f 1172 1177 1178 1173
f 1141 1130 1178 1177
f 1124 1173 1178 1130
usemtl c30
f 47 50 51 48
f 47 49 52 50
f 50 53 54 51
f 50 52 55 53
f 53 56 57 54
f 53 55 58 56
f 56 59 60 57
f 56 58 61 59
f 59 62 63 60
f 59 61 64 62
f 62 65 66 63
f 62 64 67 65
f 65 68 69 66
f 65 67 70 68
f 68 70 71 69
f 48 51 75 74
f 51 54 76 75
f 54 57 77 76
f 57 60 78 77
f 60 63 79 78
f 63 66 80 79
f 66 69 81 80
f 69 82 83 81
f 69 71 84 82
f 82 84 85 83
f 74 75 89 88
f 75 76 90 89
f 76 77 91 90
f 77 78 92 91
f 78 79 93 92
f 79 80 94 93
f 80 81 95 94
f 81 83 96 95
f 83 85 97 96
f 88 89 101 100
f 89 90 102 101
f 90 91 103 102
f 91 92 39 103
f 92 93 40 39
f 93 94 104 40
f 94 95 105 104
f 95 96 106 105
f 96 97 107 106
f 100 101 112 111
f 101 102 113 112
f 102 103 114 113
f 103 39 38 114
f 40 104 115 37
f 104 105 116 115
f 105 106 117 116
f 106 107 118 117
f 111 112 123 122
f 112 113 124 123
f 113 114 125 124
f 114 38 126 125
f 38 37 127 126
f 37 115 128 127
f 115 116 129 128
f 116 117 130 129
f 117 118 131 130
f 122 123 136 135
f 123 124 137 136
f 124 125 138 137
f 125 126 139 138
f 126 127 140 139
f 127 128 141 140
f 128 129 142 141
f 129 130 143 142
f 130 131 144 143
f 135 136 149 148
f 136 137 150 149
f 137 138 151 150
f 138 139 152 151
f 139 140 153 152
f 140 141 154 153
f 141 142 155 154
f 142 143 156 155
f 143 144 157 156
f 148 149 162 161
f 149 150 163 162
f 150 151 164 163
f 151 152 165 164
f 152 153 166 165
f 153 154 167 166
f 154 155 168 167
f 155 156 169 168
f 168 169 170 171
f 156 157 170 169
f 161 162 178 176
f 176 178 179 177
f 162 163 180 178
f 178 180 181 179
f 163 164 182 180
f 180 182 183 181
f 164 165 184 182
f 182 184 185 183
f 165 166 186 184
f 184 186 187 185
f 166 167 188 186
f 186 188 189 187
f 167 168 190 188
f 188 190 191 189
f 168 171 191 190
f 49 195 196 52
f 52 196 197 55
f 55 197 198 58
f 58 198 199 61
f 61 199 200 64
f 64 200 201 67
f 67 201 202 70
f 70 203 84 71
f 70 202 204 203
f 203 204 205 84
f 84 205 207 85
f 85 207 209 97
f 97 209 211 107
f 107 211 213 118
f 118 213 215 131
f 131 215 217 144
f 144 217 219 157
f 157 219 221 170
f 177 179 225 224
f 179 181 226 225
f 181 183 227 226
f 183 185 228 227
f 185 187 229 228
f 187 189 230 229
f 189 191 231 230
f 171 170 232 191
f 191 232 233 231
f 170 221 233 232
f 195 237 238 196
f 196 238 239 197
f 197 239 240 198
f 198 240 241 199
f 199 241 242 200
f 200 242 243 201
f 201 243 244 202
f 202 244 245 204
f 204 245 246 205
f 254 257 258 255
f 254 256 259 257
f 257 194 206 258
f 257 259 236 194
f 205 246 260 207
f 255 258 267 265
f 265 267 268 266
f 258 206 208 267
f 267 208 269 268
f 207 260 270 209
f 209 270 272 211
f 211 272 274 213
f 213 274 276 215
f 215 276 278 217
f 286 289 290 287
f 286 288 291 289
f 289 216 218 290
f 289 291 277 216
f 217 278 292 219
f 287 290 299 297
f 297 299 300 298
f 290 218 220 299
f 299 220 301 300
f 219 292 302 221
f 224 225 306 305
f 225 226 307 306
f 226 227 308 307
f 227 228 309 308
f 228 229 310 309
f 229 230 311 310
f 230 231 312 311
f 231 233 313 312
f 221 302 313 233
f 237 317 318 238
f 238 318 319 239
f 239 319 320 240
f 240 320 321 241
f 241 321 322 242
f 242 322 323 243
f 243 323 324 244
f 244 324 325 245
f 245 325 326 246
f 332 331 333 334
f 256 332 334 259
f 334 333 335 316
f 259 334 316 236
f 246 326 336 260
f 331 339 340 333
f 266 268 340 339
f 333 340 341 335
f 268 269 341 340
f 260 336 342 270
f 270 342 344 272
f 272 344 346 274
f 274 346 348 276
f 276 348 350 278
f 356 355 357 358
f 288 356 358 291
f 358 357 359 349
f 291 358 349 277
f 278 350 360 292
f 355 363 364 357
f 298 300 364 363
f 357 364 365 359
f 300 301 365 364
f 292 360 366 302
f 305 306 370 369
f 306 307 371 370
f 307 308 372 371
f 308 309 373 372
f 309 310 374 373
f 310 311 375 374
f 311 312 376 375
f 312 313 377 376
f 302 366 377 313
f 317 381 382 318
f 318 382 383 319
f 319 383 384 320
f 320 384 385 321
f 321 385 386 322
f 322 386 387 323
f 323 387 388 324
f 324 388 389 325
f 325 389 390 326
f 326 390 392 336
f 336 392 394 342
f 342 394 396 344
f 344 396 398 346
f 346 398 400 348
f 348 400 402 350
f 350 402 404 360
f 360 404 406 366
f 369 370 410 409
f 370 371 411 410
f 371 372 412 411
f 372 373 413 412
f 373 374 414 413
f 374 375 415 414
f 375 376 416 415
f 376 377 417 416
f 366 406 417 377
f 381 421 422 382
f 382 422 423 383
f 383 423 424 384
f 384 424 425 385
f 385 425 426 386
f 386 426 427 387
f 387 427 428 388
f 388 428 429 389
f 389 429 430 390
f 390 430 432 392
f 392 432 434 394
f 394 434 436 396
f 396 436 438 398
f 398 438 440 400
f 400 440 442 402
f 402 442 444 404
f 404 444 446 406
f 409 410 450 449
f 410 411 451 450
f 411 412 452 451
f 412 413 453 452
f 413 414 454 453
f 414 415 455 454
f 415 416 456 455
f 416 417 457 456
f 406 446 457 417
f 421 461 462 422
f 422 462 463 423
f 423 463 464 424
f 424 464 465 425
f 425 465 466 426
f 426 466 467 427
f 427 467 468 428
f 428 468 469 429
f 429 469 470 430
f 430 470 472 432
f 432 472 474 434
f 434 474 476 436
f 436 476 478 438
f 438 478 480 440
f 440 480 482 442
f 442 482 484 444
f 444 484 486 446
f 449 450 490 489
f 450 451 491 490
f 451 452 492 491
f 452 453 493 492
f 453 454 494 493
f 454 455 495 494
f 455 456 496 495
f 456 457 497 496
f 446 486 497 457
f 461 501 502 462
f 462 502 503 463
f 463 503 504 464
f 464 504 505 465
f 465 505 506 466
f 466 506 507 467
f 467 507 508 468
f 468 508 509 469
f 469 509 510 470
f 470 510 512 472
f 472 512 514 474
f 474 514 516 476
f 476 516 518 478
f 478 518 520 480
f 480 520 522 482
f 482 522 524 484
f 484 524 526 486
f 489 490 530 529
f 490 491 531 530
f 491 492 532 531
f 492 493 533 532
f 493 494 534 533
f 494 495 535 534
f 495 496 536 535
f 496 497 537 536
f 486 526 537 497
f 501 541 542 502
f 502 542 543 503
f 503 543 544 504
f 504 544 545 505
f 505 545 546 506
f 506 546 547 507
f 507 547 548 508
f 508 548 549 509
f 509 549 550 510
f 510 550 552 512
f 512 552 554 514
f 514 554 556 516
f 516 556 558 518
f 518 558 560 520
f 520 560 562 522
f 522 562 564 524
f 524 564 566 526
f 529 530 570 569
f 530 531 571 570
f 531 532 572 571
f 532 533 573 572
f 533 534 574 573
f 534 535 575 574
f 535 536 576 575
f 536 537 577 576
f 526 566 577 537
f 541 581 582 542
f 542 582 583 543
f 543 583 584 544
f 544 584 585 545
f 545 585 586 546
f 546 586 587 547
f 547 587 588 548
f 548 588 589 549
f 549 589 590 550
f 550 590 592 552
f 552 592 594 554
f 554 594 596 556
f 556 596 598 558
f 558 598 600 560
f 560 600 602 562
f 562 602 604 564
f 564 604 606 566
f 569 570 610 609
f 570 571 611 610
f 571 572 612 611
f 572 573 613 612
f 573 574 614 613
f 574 575 615 614
f 575 576 616 615
f 576 577 617 616
f 566 606 617 577
f 581 621 622 582
f 582 622 623 583
f 583 623 624 584
f 584 624 625 585
f 585 625 626 586
f 586 626 627 587
f 587 627 628 588
f 588 628 629 589
f 589 629 630 590
f 590 630 632 592
f 592 632 634 594
f 594 634 636 596
f 596 636 638 598
f 598 638 640 600
f 600 640 642 602
f 602 642 644 604
f 604 644 646 606
f 609 610 650 649
f 610 611 651 650
f 611 612 652 651
f 612 613 653 652
f 613 614 654 653
f 614 615 655 654
f 615 616 656 655
f 616 617 657 656
f 606 646 657 617
f 621 661 662 622
f 622 662 663 623
f 623 663 664 624
f 624 664 665 625
f 625 665 666 626
f 626 666 667 627
f 627 667 668 628
f 628 668 669 629
f 629 669 670 630
f 630 670 672 632
f 632 672 674 634
f 634 674 676 636
f 636 676 678 638
f 638 678 680 640
f 640 680 682 642
f 642 682 684 644
f 644 684 686 646
f 649 650 690 689
f 650 651 691 690
f 651 652 692 691
f 652 653 693 692
f 653 654 694 693
f 654 655 695 694
f 655 656 696 695
f 656 657 697 696
f 646 686 697 657
f 661 701 702 662
f 662 702 703 663
f 663 703 704 664
f 664 704 705 665
f 665 705 706 666
f 666 706 707 667
f 667 707 708 668
f 668 708 709 669
f 669 709 710 670
f 670 710 712 672
f 672 712 714 674
f 674 714 716 676
f 676 716 718 678
f 678 718 720 680
f 680 720 722 682
f 682 722 724 684
f 684 724 726 686
f 689 690 730 729
f 690 691 731 730
f 691 692 732 731
f 692 693 733 732
f 693 694 734 733
f 694 695 735 734
f 695 696 736 735
f 696 697 737 736
f 686 726 737 697
f 701 741 742 702
f 702 742 743 703
f 703 743 744 704
f 704 744 745 705
f 705 745 746 706
f 706 746 747 707
f 707 747 748 708
f 708 748 749 709
f 709 749 750 710
f 758 761 762 759
f 758 760 763 761
f 761 700 711 762
f 761 763 740 700
f 710 750 764 712
f 759 762 771 769
f 769 771 772 770
f 762 711 713 771
f 771 713 773 772
f 712 764 774 714
f 714 774 776 716
f 716 776 778 718
f 718 778 780 720
f 720 780 782 722
f 790 793 794 791
f 790 792 795 793
f 793 721 723 794
f 793 795 781 721
f 722 782 796 724
f 791 794 803 801
f 801 803 804 802
f 794 723 725 803
f 803 725 805 804
f 724 796 806 726
f 729 730 810 809
f 730 731 811 810
f 731 732 812 811
f 732 733 813 812
f 733 734 814 813
f 734 735 815 814
f 735 736 816 815
f 736 737 817 816
f 726 806 817 737
f 741 821 822 742
f 742 822 823 743
f 743 823 824 744
f 744 824 825 745
f 745 825 826 746
f 746 826 827 747
f 747 827 828 748
f 748 828 829 749
f 749 829 830 750
f 836 835 837 838
f 760 836 838 763
f 838 837 839 820
f 763 838 820 740
f 750 830 840 764
f 835 843 844 837
f 770 772 844 843
f 837 844 845 839
f 772 773 845 844
f 764 840 846 774
f 774 846 848 776
f 776 848 850 778
f 778 850 852 780
f 780 852 854 782
f 860 859 861 862
f 792 860 862 795
f 862 861 863 853
f 795 862 853 781
f 782 854 864 796
f 859 867 868 861
f 802 804 868 867
f 861 868 869 863
f 804 805 869 868
f 796 864 870 806
f 809 810 874 873
f 810 811 875 874
f 811 812 876 875
f 812 813 877 876
f 813 814 878 877
f 814 815 879 878
f 815 816 880 879
f 816 817 881 880
f 806 870 881 817
f 887 886 888 889
f 821 887 889 822
f 889 888 890 891
f 822 889 891 823
f 891 890 892 893
f 823 891 893 824
f 893 892 894 895
f 824 893 895 825
f 895 894 896 897
f 825 895 897 826
f 897 896 898 899
f 826 897 899 827
f 899 898 900 901
f 827 899 901 828
f 901 900 902 903
f 828 901 903 829
f 829 903 902 830
f 898 905 906 900
f 900 906 907 902
f 830 902 907 840
f 905 909 910 906
f 906 910 911 907
f 840 907 911 846
f 909 913 914 910
f 910 914 915 911
f 846 911 915 848
f 913 917 918 914
f 914 918 919 915
f 848 915 919 850
f 917 921 922 918
f 918 922 923 919
f 850 919 923 852
f 921 925 926 922
f 922 926 927 923
f 852 923 927 854
f 925 929 930 926
f 926 930 931 927
f 854 927 931 864
f 929 933 934 930
f 930 934 935 931
f 864 931 935 870
f 940 939 941 942
f 873 874 941 939
f 942 941 943 944
f 874 875 943 941
f 944 943 945 946
f 875 876 945 943
f 946 945 947 948
f 876 877 947 945
f 948 947 949 950
f 877 878 949 947
f 950 949 951 933
f 878 879 951 949
f 933 951 952 934
f 879 880 952 951
f 934 952 953 935
f 880 881 953 952
f 870 935 953 881
f 883 954 955 884
f 883 904 956 954
f 884 955 957 886
f 886 957 958 888
f 888 958 959 890
f 890 959 960 892
f 892 960 961 894
f 894 961 962 896
f 896 962 963 898
f 898 963 964 905
f 904 908 965 956
f 905 964 966 909
f 908 912 967 965
f 909 966 968 913
f 912 916 969 967
f 913 968 970 917
f 916 920 971 969
f 917 970 972 921
f 920 924 973 971
f 921 972 974 925
f 924 928 975 973
f 925 974 976 929
f 932 938 977 978
f 928 932 978 975
f 938 940 979 977
f 940 942 980 979
f 942 944 981 980
f 944 946 982 981
f 946 948 983 982
f 948 950 984 983
f 950 933 985 984
f 929 976 985 933
f 954 986 987 955
f 954 956 988 986
f 955 987 989 957
f 957 989 990 958
f 958 990 991 959
f 959 991 992 960
f 960 992 993 961
f 961 993 994 962
f 962 994 995 963
f 963 995 996 964
f 956 965 997 988
f 964 996 998 966
f 965 967 999 997
f 966 998 1000 968
f 967 969 1001 999
f 968 1000 1002 970
f 969 971 1003 1001
f 970 1002 1004 972
f 971 973 1005 1003
f 972 1004 1006 974
f 973 975 1007 1005
f 974 1006 1008 976
f 978 977 1009 1010
f 975 978 1010 1007
f 977 979 1011 1009
f 979 980 1012 1011
f 980 981 1013 1012
f 981 982 1014 1013
f 982 983 1015 1014
f 983 984 1016 1015
f 984 985 1017 1016
f 976 1008 1017 985
f 986 1018 1019 987
f 986 988 1020 1018
f 987 1019 1021 989
f 989 1021 1022 990
f 990 1022 1023 991
f 991 1023 1024 992
f 993 1025 1026 994
f 994 1026 1027 995
f 995 1027 1028 996
f 988 997 1029 1020
f 996 1028 1030 998
f 997 999 1031 1029
f 998 1030 1032 1000
f 999 1001 1033 1031
f 1000 1032 1034 1002
f 1001 1003 1035 1033
f 1002 1034 1036 1004
f 1003 1005 1037 1035
f 1004 1036 1038 1006
f 1005 1007 1039 1037
f 1006 1038 1040 1008
f 1010 1009 1041 1042
f 1007 1010 1042 1039
f 1009 1011 1043 1041
f 1011 1012 1044 1043
f 1012 1013 1045 1044
f 1013 1014 1046 1045
f 1015 1016 1048 1047
f 1016 1017 1049 1048
f 1008 1040 1049 1017
f 1018 1050 1051 1019
f 1018 1020 1052 1050
f 1019 1051 1053 1021
f 1021 1053 1054 1022
f 1022 1054 1055 1023
f 1023 1055 1056 1024
f 1024 1056 1057 1025
f 1025 1057 1058 1026
f 1026 1058 1059 1027
f 1027 1059 1060 1028
f 1020 1029 1061 1052
f 1028 1060 1062 1030
f 1029 1031 1063 1061
f 1030 1062 1064 1032
f 1031 1033 1065 1063
f 1032 1064 1066 1034
f 1033 1035 1067 1065
f 1034 1066 1068 1036
f 1035 1037 1069 1067
f 1036 1068 1070 1038
f 1037 1039 1071 1069
f 1038 1070 1072 1040
f 1042 1041 1073 1074
f 1039 1042 1074 1071
f 1041 1043 1075 1073
f 1043 1044 1076 1075
f 1044 1045 1077 1076
f 1045 1046 1078 1077
f 1046 1047 1079 1078
f 1047 1048 1080 1079
f 1048 1049 1081 1080
f 1040 1072 1081 1049
f 1082 1083 1084 1085
f 1050 1082 1085 1051
f 1050 1052 1083 1082
f 1085 1084 1086 1087
f 1051 1085 1087 1053
f 1087 1086 1088 1089
f 1053 1087 1089 1054
f 1089 1088 1090 1091
f 1054 1089 1091 1055
f 1091 1090 1092 1093
f 1055 1091 1093 1056
f 1093 1092 1094 1095
f 1056 1093 1095 1057
f 1095 1094 1096 1097
f 1057 1095 1097 1058
f 1097 1096 1098 1099
f 1058 1097 1099 1059
f 1059 1099 1098 1060
f 1083 1100 1101 1084
f 1052 1061 1100 1083
f 1084 1101 1102 1086
f 1086 1102 1103 1088
f 1088 1103 1104 1090
f 1090 1104 1105 1092
f 1092 1105 1106 1094
f 1094 1106 1107 1096
f 1096 1107 1108 1098
f 1060 1098 1108 1062
f 1100 1109 1110 1101
f 1061 1063 1109 1100
f 1101 1110 1111 1102
f 1106 1112 1113 1107
f 1107 1113 1114 1108
f 1062 1108 1114 1064
f 1109 1115 1116 1110
f 1063 1065 1115 1109
f 1110 1116 1117 1111
f 1112 1118 1119 1113
f 1113 1119 1120 1114
f 1064 1114 1120 1066
f 1115 1121 1122 1116
f 1065 1067 1121 1115
f 1116 1122 1123 1117
f 1118 1124 1125 1119
f 1119 1125 1126 1120
f 1066 1120 1126 1068
f 1121 1127 1128 1122
f 1067 1069 1127 1121
f 1122 1128 1129 1123
f 1124 1130 1131 1125
f 1125 1131 1132 1126
f 1068 1126 1132 1070
f 1127 1133 1134 1128
f 1069 1071 1133 1127
f 1128 1134 1135 1129
f 1129 1135 1136 1137
f 1137 1136 1138 1139
f 1139 1138 1140 1141
f 1141 1140 1142 1130
f 1130 1142 1143 1131
f 1131 1143 1144 1132
f 1070 1132 1144 1072
f 1133 1145 1146 1134
f 1074 1073 1146 1145
f 1071 1074 1145 1133
f 1134 1146 1147 1135
f 1073 1075 1147 1146
f 1135 1147 1148 1136
f 1075 1076 1148 1147
f 1136 1148 1149 1138
f 1076 1077 1149 1148
f 1138 1149 1150 1140
f 1077 1078 1150 1149
f 1140 1150 1151 1142
f 1078 1079 1151 1150
f 1142 1151 1152 1143
f 1079 1080 1152 1151
f 1143 1152 1153 1144
f 1080 1081 1153 1152
f 1072 1144 1153 1081
