# generado por tools/vox_to_obj.py desde gallina_v1.vox
mtllib gallina_v1.mtl
v -4.5000 3.0000 3.0000
v -4.5000 4.0000 3.0000
v -4.5000 4.0000 2.0000
v -4.5000 3.0000 2.0000
v -3.5000 3.0000 3.0000
v -3.5000 4.0000 3.0000
v -3.5000 3.0000 2.0000
v -4.5000 5.0000 3.0000
v -4.5000 5.0000 2.0000
v -3.5000 5.0000 3.0000
v -4.5000 6.0000 3.0000
v -4.5000 6.0000 2.0000
v -3.5000 6.0000 3.0000
v -4.5000 7.0000 3.0000
v -4.5000 7.0000 2.0000
v -3.5000 7.0000 3.0000
v -4.5000 8.0000 3.0000
v -4.5000 8.0000 2.0000
v -3.5000 8.0000 3.0000
v -4.5000 9.0000 3.0000
v -4.5000 9.0000 2.0000
v -3.5000 9.0000 3.0000
v -4.5000 10.0000 3.0000
v -4.5000 10.0000 2.0000
v -3.5000 10.0000 3.0000
v -3.5000 10.0000 2.0000
v -4.5000 4.0000 1.0000
v -4.5000 3.0000 1.0000
v -3.5000 3.0000 1.0000
v -4.5000 5.0000 1.0000
v -4.5000 6.0000 1.0000
v -4.5000 7.0000 1.0000
v -4.5000 8.0000 1.0000
v -3.5000 11.0000 2.0000
v -4.5000 11.0000 2.0000
v -4.5000 4.0000 0.0000
v -4.5000 3.0000 0.0000
v -3.5000 3.0000 0.0000
v -4.5000 5.0000 0.0000
v -4.5000 6.0000 0.0000
v -4.5000 7.0000 0.0000
v -4.5000 8.0000 0.0000
v -4.5000 4.0000 -1.0000
v -4.5000 3.0000 -1.0000
v -3.5000 3.0000 -1.0000
v -4.5000 5.0000 -1.0000
v -4.5000 6.0000 -1.0000
v -4.5000 7.0000 -1.0000
v -4.5000 8.0000 -1.0000
v -4.5000 4.0000 -2.0000
v -4.5000 3.0000 -2.0000
v -3.5000 3.0000 -2.0000
v -4.5000 5.0000 -2.0000
v -4.5000 6.0000 -2.0000
v -4.5000 7.0000 -2.0000
v -4.5000 8.0000 -2.0000
v -4.5000 10.0000 -2.0000
v -4.5000 11.0000 -2.0000
v -3.5000 11.0000 -2.0000
v -3.5000 10.0000 -2.0000
v -4.5000 4.0000 -3.0000
v -4.5000 3.0000 -3.0000
v -3.5000 4.0000 -3.0000
v -3.5000 3.0000 -3.0000
v -4.5000 5.0000 -3.0000
v -3.5000 5.0000 -3.0000
v -4.5000 6.0000 -3.0000
v -3.5000 6.0000 -3.0000
v -4.5000 7.0000 -3.0000
v -3.5000 7.0000 -3.0000
v -4.5000 8.0000 -3.0000
v -3.5000 8.0000 -3.0000
v -4.5000 9.0000 -2.0000
v -4.5000 9.0000 -3.0000
v -3.5000 9.0000 -3.0000
v -4.5000 10.0000 -3.0000
v -3.5000 10.0000 -3.0000
v -2.5000 3.0000 3.0000
v -2.5000 4.0000 3.0000
v -2.5000 3.0000 2.0000
v -2.5000 5.0000 3.0000
v -2.5000 6.0000 3.0000
v -2.5000 7.0000 3.0000
v -2.5000 8.0000 3.0000
v -2.5000 9.0000 3.0000
v -2.5000 10.0000 3.0000
v -3.5000 11.0000 3.0000
v -2.5000 11.0000 3.0000
v -2.5000 11.0000 2.0000
v -2.5000 3.0000 1.0000
v -2.5000 11.0000 1.0000
v -3.5000 11.0000 1.0000
v -2.5000 3.0000 0.0000
v -2.5000 11.0000 0.0000
v -3.5000 11.0000 0.0000
v -2.5000 3.0000 -1.0000
v -2.5000 11.0000 -1.0000
v -3.5000 11.0000 -1.0000
v -2.5000 3.0000 -2.0000
v -2.5000 11.0000 -2.0000
v -2.5000 4.0000 -3.0000
v -2.5000 3.0000 -3.0000
v -2.5000 5.0000 -3.0000
v -2.5000 6.0000 -3.0000
v -2.5000 7.0000 -3.0000
v -2.5000 8.0000 -3.0000
v -2.5000 9.0000 -3.0000
v -2.5000 10.0000 -3.0000
v -3.5000 11.0000 -3.0000
v -2.5000 11.0000 -3.0000
v -1.5000 3.0000 3.0000
v -1.5000 4.0000 3.0000
v -1.5000 3.0000 2.0000
v -1.5000 5.0000 3.0000
v -1.5000 6.0000 3.0000
v -1.5000 7.0000 3.0000
v -1.5000 8.0000 3.0000
v -1.5000 9.0000 3.0000
v -1.5000 10.0000 3.0000
v -1.5000 11.0000 3.0000
v -1.5000 11.0000 2.0000
v -1.5000 3.0000 1.0000
v -1.5000 11.0000 1.0000
v -1.5000 11.0000 0.0000
v -1.5000 3.0000 -1.0000
v -1.5000 3.0000 0.0000
v -1.5000 11.0000 -1.0000
v -1.5000 3.0000 -2.0000
v -1.5000 11.0000 -2.0000
v -1.5000 4.0000 -3.0000
v -1.5000 3.0000 -3.0000
v -1.5000 5.0000 -3.0000
v -1.5000 6.0000 -3.0000
v -1.5000 7.0000 -3.0000
v -1.5000 8.0000 -3.0000
v -1.5000 9.0000 -3.0000
v -1.5000 10.0000 -3.0000
v -1.5000 11.0000 -3.0000
v -0.5000 3.0000 3.0000
v -0.5000 4.0000 3.0000
v -0.5000 3.0000 2.0000
v -0.5000 5.0000 3.0000
v -0.5000 6.0000 3.0000
v -0.5000 7.0000 3.0000
v -0.5000 8.0000 3.0000
v -0.5000 9.0000 3.0000
v -0.5000 10.0000 3.0000
v -0.5000 11.0000 3.0000
v -0.5000 11.0000 2.0000
v -0.5000 3.0000 1.0000
v -0.5000 11.0000 1.0000
v -0.5000 3.0000 0.0000
v -0.5000 11.0000 0.0000
v -0.5000 3.0000 -1.0000
v -0.5000 11.0000 -1.0000
v -0.5000 3.0000 -2.0000
v -0.5000 11.0000 -2.0000
v -0.5000 4.0000 -3.0000
v -0.5000 3.0000 -3.0000
v -0.5000 5.0000 -3.0000
v -0.5000 6.0000 -3.0000
v -0.5000 7.0000 -3.0000
v -0.5000 8.0000 -3.0000
v -0.5000 9.0000 -3.0000
v -0.5000 10.0000 -3.0000
v -0.5000 11.0000 -3.0000
v 0.5000 3.0000 3.0000
v 0.5000 4.0000 3.0000
v 0.5000 3.0000 2.0000
v 0.5000 5.0000 3.0000
v 0.5000 6.0000 3.0000
v 0.5000 7.0000 3.0000
v 0.5000 8.0000 3.0000
v 0.5000 9.0000 3.0000
v 0.5000 10.0000 3.0000
v 0.5000 11.0000 3.0000
v 0.5000 11.0000 2.0000
v 0.5000 3.0000 1.0000
v 0.5000 11.0000 1.0000
v 0.5000 3.0000 0.0000
v 0.5000 11.0000 0.0000
v 0.5000 3.0000 -1.0000
v 0.5000 11.0000 -1.0000
v 0.5000 3.0000 -2.0000
v 0.5000 11.0000 -2.0000
v 0.5000 4.0000 -3.0000
v 0.5000 3.0000 -3.0000
v 0.5000 5.0000 -3.0000
v 0.5000 6.0000 -3.0000
v 0.5000 7.0000 -3.0000
v 0.5000 8.0000 -3.0000
v 0.5000 9.0000 -3.0000
v 0.5000 10.0000 -3.0000
v 0.5000 11.0000 -3.0000
v 1.5000 3.0000 3.0000
v 1.5000 4.0000 3.0000
v 1.5000 3.0000 2.0000
v 1.5000 5.0000 3.0000
v 1.5000 6.0000 3.0000
v 1.5000 7.0000 3.0000
v 1.5000 8.0000 3.0000
v 1.5000 9.0000 3.0000
v 1.5000 10.0000 3.0000
v 1.5000 11.0000 3.0000
v 1.5000 11.0000 2.0000
v 1.5000 3.0000 1.0000
v 1.5000 11.0000 1.0000
v 1.5000 3.0000 0.0000
v 1.5000 11.0000 0.0000
v 1.5000 11.0000 -1.0000
v 1.5000 3.0000 -2.0000
v 1.5000 3.0000 -1.0000
v 1.5000 11.0000 -2.0000
v 1.5000 4.0000 -3.0000
v 1.5000 3.0000 -3.0000
v 1.5000 5.0000 -3.0000
v 1.5000 6.0000 -3.0000
v 1.5000 7.0000 -3.0000
v 1.5000 8.0000 -3.0000
v 1.5000 9.0000 -3.0000
v 1.5000 10.0000 -3.0000
v 1.5000 11.0000 -3.0000
v 2.5000 3.0000 3.0000
v 2.5000 4.0000 3.0000
v 2.5000 3.0000 2.0000
v 2.5000 5.0000 3.0000
v 2.5000 6.0000 3.0000
v 2.5000 7.0000 3.0000
v 2.5000 8.0000 3.0000
v 2.5000 9.0000 3.0000
v 2.5000 10.0000 3.0000
v 2.5000 11.0000 3.0000
v 2.5000 11.0000 2.0000
v 2.5000 3.0000 1.0000
v 2.5000 3.0000 0.0000
v 2.5000 3.0000 -1.0000
v 2.5000 3.0000 -2.0000
v 2.5000 4.0000 -3.0000
v 2.5000 3.0000 -3.0000
v 2.5000 5.0000 -3.0000
v 2.5000 6.0000 -3.0000
v 2.5000 7.0000 -3.0000
v 2.5000 8.0000 -3.0000
v 2.5000 9.0000 -3.0000
v 2.5000 10.0000 -3.0000
v 2.5000 11.0000 -3.0000
v 2.5000 11.0000 -2.0000
v 3.5000 3.0000 3.0000
v 3.5000 3.0000 2.0000
v 3.5000 4.0000 2.0000
v 3.5000 4.0000 3.0000
v 3.5000 5.0000 2.0000
v 3.5000 5.0000 3.0000
v 3.5000 6.0000 2.0000
v 3.5000 6.0000 3.0000
v 3.5000 7.0000 2.0000
v 3.5000 7.0000 3.0000
v 3.5000 8.0000 2.0000
v 3.5000 8.0000 3.0000
v 3.5000 9.0000 2.0000
v 3.5000 9.0000 3.0000
v 3.5000 10.0000 2.0000
v 3.5000 10.0000 3.0000
v 3.5000 11.0000 2.0000
v 3.5000 11.0000 3.0000
v 3.5000 3.0000 1.0000
v 3.5000 4.0000 1.0000
v 3.5000 5.0000 1.0000
v 3.5000 6.0000 1.0000
v 3.5000 7.0000 1.0000
v 3.5000 8.0000 1.0000
v 3.5000 9.0000 1.0000
v 3.5000 3.0000 0.0000
v 3.5000 4.0000 0.0000
v 3.5000 5.0000 0.0000
v 3.5000 6.0000 0.0000
v 3.5000 7.0000 0.0000
v 3.5000 8.0000 0.0000
v 3.5000 9.0000 0.0000
v 3.5000 3.0000 -1.0000
v 3.5000 4.0000 -1.0000
v 3.5000 5.0000 -1.0000
v 3.5000 6.0000 -1.0000
v 3.5000 7.0000 -1.0000
v 3.5000 8.0000 -1.0000
v 3.5000 9.0000 -1.0000
v 3.5000 3.0000 -2.0000
v 3.5000 4.0000 -2.0000
v 3.5000 5.0000 -2.0000
v 3.5000 6.0000 -2.0000
v 3.5000 7.0000 -2.0000
v 3.5000 8.0000 -2.0000
v 3.5000 9.0000 -2.0000
v 3.5000 3.0000 -3.0000
v 3.5000 4.0000 -3.0000
v 3.5000 5.0000 -3.0000
v 3.5000 6.0000 -3.0000
v 3.5000 7.0000 -3.0000
v 3.5000 8.0000 -3.0000
v 3.5000 9.0000 -3.0000
v 3.5000 10.0000 -3.0000
v 3.5000 10.0000 -2.0000
v 3.5000 11.0000 -3.0000
v 3.5000 11.0000 -2.0000
v 1.5000 12.0000 2.0000
v 1.5000 12.0000 1.0000
v 2.5000 12.0000 2.0000
v 1.5000 13.0000 2.0000
v 1.5000 13.0000 1.0000
v 2.5000 13.0000 2.0000
v 1.5000 14.0000 2.0000
v 1.5000 14.0000 1.0000
v 2.5000 14.0000 2.0000
v 2.5000 14.0000 1.0000
v 1.5000 12.0000 0.0000
v 1.5000 13.0000 0.0000
v 1.5000 14.0000 0.0000
v 2.5000 14.0000 0.0000
v 1.5000 12.0000 -1.0000
v 1.5000 13.0000 -1.0000
v 1.5000 14.0000 -1.0000
v 2.5000 14.0000 -1.0000
v 1.5000 12.0000 -2.0000
v 2.5000 12.0000 -2.0000
v 1.5000 13.0000 -2.0000
v 2.5000 13.0000 -2.0000
v 1.5000 14.0000 -2.0000
v 2.5000 14.0000 -2.0000
v 3.5000 12.0000 2.0000
v 3.5000 13.0000 2.0000
v 3.5000 14.0000 2.0000
v 3.5000 14.0000 1.0000
v 3.5000 12.0000 -2.0000
v 3.5000 13.0000 -2.0000
v 3.5000 14.0000 -2.0000
v 3.5000 14.0000 -1.0000
v 4.5000 9.0000 2.0000
v 4.5000 10.0000 2.0000
v 4.5000 9.0000 1.0000
v 4.5000 11.0000 2.0000
v 4.5000 12.0000 2.0000
v 4.5000 13.0000 2.0000
v 4.5000 14.0000 2.0000
v 4.5000 14.0000 1.0000
v 4.5000 9.0000 0.0000
v 4.5000 9.0000 -1.0000
v 4.5000 10.0000 -2.0000
v 4.5000 9.0000 -2.0000
v 4.5000 11.0000 -2.0000
v 4.5000 12.0000 -2.0000
v 4.5000 13.0000 -2.0000
v 4.5000 14.0000 -2.0000
v 4.5000 14.0000 -1.0000
v 5.5000 9.0000 2.0000
v 5.5000 9.0000 1.0000
v 5.5000 10.0000 1.0000
v 5.5000 10.0000 2.0000
v 5.5000 11.0000 1.0000
v 5.5000 11.0000 2.0000
v 5.5000 12.0000 1.0000
v 5.5000 12.0000 2.0000
v 5.5000 13.0000 1.0000
v 5.5000 13.0000 2.0000
v 5.5000 14.0000 1.0000
v 5.5000 14.0000 2.0000
v 5.5000 9.0000 0.0000
v 5.5000 10.0000 0.0000
v 5.5000 11.0000 0.0000
v 5.5000 12.0000 0.0000
v 5.5000 13.0000 0.0000
v 5.5000 14.0000 0.0000
v 4.5000 14.0000 0.0000
v 5.5000 9.0000 -1.0000
v 5.5000 10.0000 -1.0000
v 5.5000 11.0000 -1.0000
v 5.5000 12.0000 -1.0000
v 5.5000 13.0000 -1.0000
v 5.5000 14.0000 -1.0000
v 5.5000 9.0000 -2.0000
v 5.5000 10.0000 -2.0000
v 5.5000 11.0000 -2.0000
v 5.5000 12.0000 -2.0000
v 5.5000 13.0000 -2.0000
v 5.5000 14.0000 -2.0000
v -6.5000 8.0000 2.0000
v -6.5000 9.0000 2.0000
v -6.5000 9.0000 1.0000
v -6.5000 8.0000 1.0000
v -5.5000 8.0000 2.0000
v -5.5000 9.0000 2.0000
v -5.5000 8.0000 1.0000
v -6.5000 10.0000 2.0000
v -6.5000 10.0000 1.0000
v -5.5000 10.0000 2.0000
v -6.5000 11.0000 2.0000
v -6.5000 11.0000 1.0000
v -5.5000 11.0000 2.0000
v -6.5000 12.0000 2.0000
v -6.5000 12.0000 1.0000
v -5.5000 12.0000 2.0000
v -6.5000 13.0000 2.0000
v -6.5000 13.0000 1.0000
v -5.5000 13.0000 2.0000
v -5.5000 13.0000 1.0000
v -6.5000 9.0000 0.0000
v -6.5000 8.0000 0.0000
v -5.5000 8.0000 0.0000
v -6.5000 10.0000 0.0000
v -6.5000 11.0000 0.0000
v -6.5000 12.0000 0.0000
v -6.5000 13.0000 0.0000
v -5.5000 13.0000 0.0000
v -6.5000 9.0000 -1.0000
v -6.5000 8.0000 -1.0000
v -5.5000 8.0000 -1.0000
v -6.5000 10.0000 -1.0000
v -6.5000 11.0000 -1.0000
v -6.5000 12.0000 -1.0000
v -6.5000 13.0000 -1.0000
v -5.5000 13.0000 -1.0000
v -6.5000 9.0000 -2.0000
v -6.5000 8.0000 -2.0000
v -5.5000 9.0000 -2.0000
v -5.5000 8.0000 -2.0000
v -6.5000 10.0000 -2.0000
v -5.5000 10.0000 -2.0000
v -6.5000 11.0000 -2.0000
v -5.5000 11.0000 -2.0000
v -6.5000 12.0000 -2.0000
v -5.5000 12.0000 -2.0000
v -6.5000 13.0000 -2.0000
v -5.5000 13.0000 -2.0000
v -4.5000 12.0000 2.0000
v -4.5000 13.0000 2.0000
v -4.5000 13.0000 1.0000
v -4.5000 13.0000 0.0000
v -4.5000 13.0000 -1.0000
v -4.5000 12.0000 -2.0000
v -4.5000 13.0000 -2.0000
v -3.5000 12.0000 1.0000
v -3.5000 12.0000 2.0000
v -3.5000 13.0000 1.0000
v -3.5000 13.0000 2.0000
v -3.5000 12.0000 0.0000
v -3.5000 13.0000 0.0000
v -3.5000 12.0000 -1.0000
v -3.5000 13.0000 -1.0000
v -3.5000 12.0000 -2.0000
v -3.5000 13.0000 -2.0000
v 2.5000 15.0000 1.0000
v 2.5000 15.0000 0.0000
v 3.5000 15.0000 1.0000
v 3.5000 15.0000 0.0000
v 2.5000 15.0000 -1.0000
v 3.5000 15.0000 -1.0000
v 4.5000 15.0000 0.0000
v 4.5000 15.0000 1.0000
v 4.5000 15.0000 -1.0000
v 6.5000 11.0000 1.0000
v 6.5000 11.0000 0.0000
v 6.5000 12.0000 0.0000
v 6.5000 12.0000 1.0000
v 6.5000 11.0000 -1.0000
v 6.5000 12.0000 -1.0000
v -1.5000 0.0000 1.0000
v -1.5000 0.0000 0.0000
v -1.5000 1.0000 0.0000
v -1.5000 1.0000 1.0000
v -2.5000 0.0000 1.0000
v -2.5000 1.0000 1.0000
v -2.5000 1.0000 0.0000
v -2.5000 0.0000 0.0000
v -1.5000 2.0000 0.0000
v -1.5000 2.0000 1.0000
v -2.5000 2.0000 1.0000
v -2.5000 2.0000 0.0000
v 1.5000 0.0000 0.0000
v 1.5000 0.0000 -1.0000
v 1.5000 1.0000 -1.0000
v 1.5000 1.0000 0.0000
v 0.5000 0.0000 0.0000
v 0.5000 1.0000 0.0000
v 0.5000 1.0000 -1.0000
v 0.5000 0.0000 -1.0000
v 1.5000 2.0000 -1.0000
v 1.5000 2.0000 0.0000
v 0.5000 2.0000 0.0000
v 0.5000 2.0000 -1.0000
usemtl c25
f 361 360 362 363
f 341 361 363 342
f 376 382 383 377
f 350 351 383 382
usemtl c26
f 1 2 3 4
f 1 5 6 2
f 1 4 7 5
f 2 8 9 3
f 2 6 10 8
f 8 11 12 9
f 8 10 13 11
f 11 14 15 12
f 11 13 16 14
f 14 17 18 15
f 14 16 19 17
f 17 20 21 18
f 17 19 22 20
f 20 23 24 21
f 20 22 25 23
f 23 25 26 24
f 4 3 27 28
f 4 28 29 7
f 3 9 30 27
f 9 12 31 30
f 12 15 32 31
f 15 18 33 32
f 24 26 34 35
f 28 27 36 37
f 28 37 38 29
f 27 30 39 36
f 30 31 40 39
f 31 32 41 40
f 32 33 42 41
f 37 36 43 44
f 37 44 45 38
f 36 39 46 43
f 39 40 47 46
f 40 41 48 47
f 41 42 49 48
f 44 43 50 51
f 44 51 52 45
f 43 46 53 50
f 46 47 54 53
f 47 48 55 54
f 48 49 56 55
f 57 58 59 60
f 51 50 61 62
f 62 61 63 64
f 51 62 64 52
f 50 53 65 61
f 61 65 66 63
f 53 54 67 65
f 65 67 68 66
f 54 55 69 67
f 67 69 70 68
f 55 56 71 69
f 69 71 72 70
f 56 73 74 71
f 71 74 75 72
f 73 57 76 74
f 74 76 77 75
f 57 60 77 76
f 5 78 79 6
f 5 7 80 78
f 6 79 81 10
f 10 81 82 13
f 13 82 83 16
f 16 83 84 19
f 19 84 85 22
f 22 85 86 25
f 25 87 34 26
f 25 86 88 87
f 87 88 89 34
f 7 29 90 80
f 34 89 91 92
f 29 38 93 90
f 92 91 94 95
f 38 45 96 93
f 95 94 97 98
f 45 52 99 96
f 98 97 100 59
f 64 63 101 102
f 52 64 102 99
f 63 66 103 101
f 66 68 104 103
f 68 70 105 104
f 70 72 106 105
f 72 75 107 106
f 75 77 108 107
f 60 59 109 77
f 77 109 110 108
f 59 100 110 109
f 78 111 112 79
f 78 80 113 111
f 79 112 114 81
f 81 114 115 82
f 82 115 116 83
f 83 116 117 84
f 84 117 118 85
f 85 118 119 86
f 86 119 120 88
f 88 120 121 89
f 80 90 122 113
f 89 121 123 91
f 91 123 124 94
f 93 96 125 126
f 94 124 127 97
f 96 99 128 125
f 97 127 129 100
f 102 101 130 131
f 99 102 131 128
f 101 103 132 130
f 103 104 133 132
f 104 105 134 133
f 105 106 135 134
f 106 107 136 135
f 107 108 137 136
f 108 110 138 137
f 100 129 138 110
f 111 139 140 112
f 111 113 141 139
f 112 140 142 114
f 114 142 143 115
f 115 143 144 116
f 116 144 145 117
f 117 145 146 118
f 118 146 147 119
f 119 147 148 120
f 120 148 149 121
f 113 122 150 141
f 121 149 151 123
f 122 126 152 150
f 123 151 153 124
f 126 125 154 152
f 124 153 155 127
f 125 128 156 154
f 127 155 157 129
f 131 130 158 159
f 128 131 159 156
f 130 132 160 158
f 132 133 161 160
f 133 134 162 161
f 134 135 163 162
f 135 136 164 163
f 136 137 165 164
f 137 138 166 165
f 129 157 166 138
f 139 167 168 140
f 139 141 169 167
f 140 168 170 142
f 142 170 171 143
f 143 171 172 144
f 144 172 173 145
f 145 173 174 146
f 146 174 175 147
f 147 175 176 148
f 148 176 177 149
f 141 150 178 169
f 149 177 179 151
f 150 152 180 178
f 151 179 181 153
f 152 154 182 180
f 153 181 183 155
f 154 156 184 182
f 155 183 185 157
f 159 158 186 187
f 156 159 187 184
f 158 160 188 186
f 160 161 189 188
f 161 162 190 189
f 162 163 191 190
f 163 164 192 191
f 164 165 193 192
f 165 166 194 193
f 157 185 194 166
f 167 195 196 168
f 167 169 197 195
f 168 196 198 170
f 170 198 199 171
f 171 199 200 172
f 172 200 201 173
f 173 201 202 174
f 174 202 203 175
f 175 203 204 176
f 176 204 205 177
f 169 178 206 197
f 177 205 207 179
f 178 180 208 206
f 179 207 209 181
f 181 209 210 183
f 182 184 211 212
f 183 210 213 185
f 187 186 214 215
f 184 187 215 211
f 186 188 216 214
f 188 189 217 216
f 189 190 218 217
f 190 191 219 218
f 191 192 220 219
f 192 193 221 220
f 193 194 222 221
f 185 213 222 194
f 195 223 224 196
f 195 197 225 223
f 196 224 226 198
f 198 226 227 199
f 199 227 228 200
f 200 228 229 201
f 201 229 230 202
f 202 230 231 203
f 203 231 232 204
f 204 232 233 205
f 197 206 234 225
f 206 208 235 234
f 208 212 236 235
f 212 211 237 236
f 215 214 238 239
f 211 215 239 237
f 214 216 240 238
f 216 217 241 240
f 217 218 242 241
f 218 219 243 242
f 219 220 244 243
f 220 221 245 244
f 221 222 246 245
f 213 247 246 222
f 248 249 250 251
f 223 248 251 224
f 223 225 249 248
f 251 250 252 253
f 224 251 253 226
f 253 252 254 255
f 226 253 255 227
f 255 254 256 257
f 227 255 257 228
f 257 256 258 259
f 228 257 259 229
f 259 258 260 261
f 229 259 261 230
f 261 260 262 263
f 230 261 263 231
f 263 262 264 265
f 231 263 265 232
f 232 265 264 233
f 249 266 267 250
f 225 234 266 249
f 250 267 268 252
f 252 268 269 254
f 254 269 270 256
f 256 270 271 258
f 258 271 272 260
f 266 273 274 267
f 234 235 273 266
f 267 274 275 268
f 268 275 276 269
f 269 276 277 270
f 270 277 278 271
f 271 278 279 272
f 273 280 281 274
f 235 236 280 273
f 274 281 282 275
f 275 282 283 276
f 276 283 284 277
f 277 284 285 278
f 278 285 286 279
f 280 287 288 281
f 236 237 287 280
f 281 288 289 282
f 282 289 290 283
f 283 290 291 284
f 284 291 292 285
f 285 292 293 286
f 287 294 295 288
f 239 238 295 294
f 237 239 294 287
f 288 295 296 289
f 238 240 296 295
f 289 296 297 290
f 240 241 297 296
f 290 297 298 291
f 241 242 298 297
f 291 298 299 292
f 242 243 299 298
f 292 299 300 293
f 243 244 300 299
f 293 300 301 302
f 244 245 301 300
f 302 301 303 304
f 245 246 303 301
f 247 304 303 246
f 205 305 306 207
f 205 233 307 305
f 305 308 309 306
f 305 307 310 308
f 308 311 312 309
f 308 310 313 311
f 311 313 314 312
f 207 306 315 209
f 306 309 316 315
f 309 312 317 316
f 312 314 318 317
f 209 315 319 210
f 315 316 320 319
f 316 317 321 320
f 317 318 322 321
f 210 319 323 213
f 213 323 324 247
f 319 320 325 323
f 323 325 326 324
f 320 321 327 325
f 325 327 328 326
f 321 322 328 327
f 233 264 329 307
f 307 329 330 310
f 310 330 331 313
f 313 331 332 314
f 247 324 333 304
f 324 326 334 333
f 326 328 335 334
f 322 336 335 328
f 260 337 338 262
f 260 272 339 337
f 262 338 340 264
f 264 340 341 329
f 329 341 342 330
f 330 342 343 331
f 331 343 344 332
f 272 279 345 339
f 279 286 346 345
f 293 302 347 348
f 286 293 348 346
f 302 304 349 347
f 304 333 350 349
f 333 334 351 350
f 334 335 352 351
f 336 353 352 335
f 354 355 356 357
f 337 354 357 338
f 337 339 355 354
f 357 356 358 359
f 338 357 359 340
f 359 358 360 361
f 340 359 361 341
f 363 362 364 365
f 342 363 365 343
f 343 365 364 344
f 356 367 368 358
f 360 369 370 362
f 362 370 371 364
f 344 364 371 372
f 366 373 374 367
f 345 346 373 366
f 367 374 375 368
f 369 376 377 370
f 370 377 378 371
f 372 371 378 353
f 373 379 380 374
f 348 347 380 379
f 346 348 379 373
f 374 380 381 375
f 347 349 381 380
f 375 381 382 376
f 349 350 382 381
f 377 383 384 378
f 351 352 384 383
f 353 378 384 352
f 385 386 387 388
f 385 389 390 386
f 385 388 391 389
f 386 392 393 387
f 386 390 394 392
f 392 395 396 393
f 392 394 397 395
f 395 398 399 396
f 395 397 400 398
f 398 401 402 399
f 398 400 403 401
f 401 403 404 402
f 388 387 405 406
f 388 406 407 391
f 387 393 408 405
f 393 396 409 408
f 396 399 410 409
f 399 402 411 410
f 402 404 412 411
f 406 405 413 414
f 406 414 415 407
f 405 408 416 413
f 408 409 417 416
f 409 410 418 417
f 410 411 419 418
f 411 412 420 419
f 414 413 421 422
f 422 421 423 424
f 414 422 424 415
f 413 416 425 421
f 421 425 426 423
f 416 417 427 425
f 425 427 428 426
f 417 418 429 427
f 427 429 430 428
f 418 419 431 429
f 429 431 432 430
f 419 420 432 431
f 389 18 21 390
f 389 391 33 18
f 390 21 24 394
f 394 24 35 397
f 397 35 433 400
f 400 433 434 403
f 403 434 435 404
f 391 407 42 33
f 404 435 436 412
f 407 415 49 42
f 412 436 437 420
f 424 423 73 56
f 415 424 56 49
f 423 426 57 73
f 426 428 58 57
f 428 430 438 58
f 430 432 439 438
f 420 437 439 432
f 34 92 440 441
f 35 34 441 433
f 441 440 442 443
f 433 441 443 434
f 434 443 442 435
f 92 95 444 440
f 440 444 445 442
f 435 442 445 436
f 95 98 446 444
f 444 446 447 445
f 436 445 447 437
f 98 59 448 446
f 58 438 448 59
f 446 448 449 447
f 438 439 449 448
f 437 447 449 439
usemtl c36
f 355 366 367 356
f 339 345 366 355
f 314 450 451 318
f 314 332 452 450
f 450 452 453 451
f 318 451 454 322
f 322 454 455 336
f 451 453 455 454
f 344 372 456 457
f 332 344 457 452
f 452 457 456 453
f 372 353 458 456
f 336 455 458 353
f 453 456 458 455
usemtl c37
f 459 460 461 462
f 358 459 462 360
f 360 462 461 369
f 358 368 460 459
f 460 463 464 461
f 375 376 464 463
f 369 461 464 376
f 368 375 463 460
f 465 466 467 468
f 469 470 471 472
f 472 471 467 466
f 469 465 468 470
f 469 472 466 465
f 468 467 473 474
f 470 475 476 471
f 471 476 473 467
f 470 468 474 475
f 474 473 126 122
f 475 90 93 476
f 476 93 126 473
f 475 474 122 90
f 477 478 479 480
f 481 482 483 484
f 484 483 479 478
f 481 477 480 482
f 481 484 478 477
f 480 479 485 486
f 482 487 488 483
f 483 488 485 479
f 482 480 486 487
f 486 485 212 208
f 487 180 182 488
f 488 182 212 485
f 487 486 208 180
