# generado por tools/vox_to_obj.py desde pollito_v4.vox
mtllib pollito_v4.mtl
v -0.5000 0.6000 0.1000
v -0.5000 0.7000 0.1000
v -0.5000 0.7000 0.0000
v -0.5000 0.6000 0.0000
v -0.4000 0.6000 0.1000
v -0.4000 0.7000 0.1000
v -0.4000 0.6000 0.0000
v -0.5000 0.8000 0.1000
v -0.5000 0.8000 0.0000
v -0.4000 0.8000 0.1000
v -0.5000 0.9000 0.1000
v -0.5000 0.9000 0.0000
v -0.4000 0.9000 0.1000
v -0.5000 1.0000 0.1000
v -0.5000 1.0000 0.0000
v -0.4000 1.0000 0.1000
v -0.4000 1.0000 0.0000
v -0.5000 0.7000 -0.1000
v -0.5000 0.6000 -0.1000
v -0.4000 0.6000 -0.1000
v -0.5000 0.8000 -0.1000
v -0.5000 0.9000 -0.1000
v -0.5000 1.0000 -0.1000
v -0.4000 1.0000 -0.1000
v -0.5000 0.7000 -0.2000
v -0.5000 0.6000 -0.2000
v -0.4000 0.6000 -0.2000
v -0.5000 0.8000 -0.2000
v -0.5000 0.9000 -0.2000
v -0.5000 1.0000 -0.2000
v -0.4000 1.0000 -0.2000
v -0.5000 0.7000 -0.3000
v -0.5000 0.6000 -0.3000
v -0.4000 0.7000 -0.3000
v -0.4000 0.6000 -0.3000
v -0.5000 0.8000 -0.3000
v -0.4000 0.8000 -0.3000
v -0.5000 0.9000 -0.3000
v -0.4000 0.9000 -0.3000
v -0.5000 1.0000 -0.3000
v -0.4000 1.0000 -0.3000
v -0.4000 0.6000 0.3000
v -0.4000 0.7000 0.3000
v -0.4000 0.7000 0.2000
v -0.4000 0.6000 0.2000
v -0.3000 0.6000 0.3000
v -0.3000 0.7000 0.3000
v -0.3000 0.6000 0.2000
v -0.4000 0.8000 0.3000
v -0.4000 0.8000 0.2000
v -0.3000 0.8000 0.3000
v -0.4000 0.9000 0.3000
v -0.4000 0.9000 0.2000
v -0.3000 0.9000 0.3000
v -0.4000 1.0000 0.3000
v -0.4000 1.0000 0.2000
v -0.3000 1.0000 0.3000
v -0.4000 1.1000 0.3000
v -0.4000 1.1000 0.2000
v -0.3000 1.1000 0.3000
v -0.4000 1.2000 0.3000
v -0.4000 1.2000 0.2000
v -0.3000 1.2000 0.3000
v -0.4000 1.3000 0.3000
v -0.4000 1.3000 0.2000
v -0.3000 1.3000 0.3000
v -0.4000 1.4000 0.3000
v -0.4000 1.4000 0.2000
v -0.3000 1.4000 0.3000
v -0.3000 1.4000 0.2000
v -0.3000 0.6000 0.1000
v -0.4000 1.1000 0.1000
v -0.4000 1.2000 0.1000
v -0.4000 1.3000 0.1000
v -0.4000 1.4000 0.1000
v -0.3000 1.4000 0.1000
v -0.3000 0.6000 0.0000
v -0.4000 1.1000 0.0000
v -0.4000 1.2000 0.0000
v -0.4000 1.3000 0.0000
v -0.4000 1.4000 0.0000
v -0.3000 1.4000 0.0000
v -0.3000 0.6000 -0.1000
v -0.4000 1.1000 -0.1000
v -0.4000 1.2000 -0.1000
v -0.4000 1.3000 -0.1000
v -0.4000 1.4000 -0.1000
v -0.3000 1.4000 -0.1000
v -0.3000 0.6000 -0.2000
v -0.4000 1.1000 -0.2000
v -0.4000 1.2000 -0.2000
v -0.4000 1.3000 -0.2000
v -0.4000 1.4000 -0.2000
v -0.3000 1.4000 -0.2000
v -0.3000 0.6000 -0.3000
v -0.4000 1.1000 -0.3000
v -0.4000 1.2000 -0.3000
v -0.4000 1.3000 -0.3000
v -0.4000 1.4000 -0.3000
v -0.3000 1.4000 -0.3000
v -0.4000 0.7000 -0.4000
v -0.4000 0.6000 -0.4000
v -0.3000 0.6000 -0.4000
v -0.4000 0.8000 -0.4000
v -0.4000 0.9000 -0.4000
v -0.4000 1.0000 -0.4000
v -0.4000 1.1000 -0.4000
v -0.4000 1.2000 -0.4000
v -0.4000 1.3000 -0.4000
v -0.4000 1.4000 -0.4000
v -0.3000 1.4000 -0.4000
v -0.4000 0.7000 -0.5000
v -0.4000 0.6000 -0.5000
v -0.3000 0.7000 -0.5000
v -0.3000 0.6000 -0.5000
v -0.4000 0.8000 -0.5000
v -0.3000 0.8000 -0.5000
v -0.4000 0.9000 -0.5000
v -0.3000 0.9000 -0.5000
v -0.4000 1.0000 -0.5000
v -0.3000 1.0000 -0.5000
v -0.4000 1.1000 -0.5000
v -0.3000 1.1000 -0.5000
v -0.4000 1.2000 -0.5000
v -0.3000 1.2000 -0.5000
v -0.4000 1.3000 -0.5000
v -0.3000 1.3000 -0.5000
v -0.4000 1.4000 -0.5000
v -0.3000 1.4000 -0.5000
v -0.2000 0.6000 0.3000
v -0.2000 0.7000 0.3000
v -0.2000 0.6000 0.2000
v -0.2000 0.8000 0.3000
v -0.2000 0.9000 0.3000
v -0.2000 1.0000 0.3000
v -0.2000 1.1000 0.3000
v -0.2000 1.2000 0.3000
v -0.2000 1.3000 0.3000
v -0.2000 1.4000 0.3000
v -0.2000 1.4000 0.2000
v -0.3000 0.3000 0.2000
v -0.3000 0.4000 0.2000
v -0.3000 0.4000 0.1000
v -0.3000 0.3000 0.1000
v -0.2000 0.3000 0.2000
v -0.2000 0.4000 0.2000
v -0.2000 0.3000 0.1000
v -0.3000 0.5000 0.2000
v -0.3000 0.5000 0.1000
v -0.2000 0.5000 0.2000
v -0.2000 1.4000 0.1000
v -0.3000 0.4000 0.0000
v -0.3000 0.3000 0.0000
v -0.2000 0.3000 0.0000
v -0.3000 0.5000 0.0000
v -0.2000 1.4000 0.0000
v -0.3000 0.0000 0.0000
v -0.3000 0.1000 0.0000
v -0.3000 0.1000 -0.1000
v -0.3000 0.0000 -0.1000
v -0.2000 0.0000 0.0000
v -0.2000 0.1000 0.0000
v -0.2000 0.1000 -0.1000
v -0.2000 0.0000 -0.1000
v -0.3000 0.4000 -0.1000
v -0.3000 0.3000 -0.1000
v -0.2000 0.3000 -0.1000
v -0.3000 0.5000 -0.1000
v -0.2000 1.4000 -0.1000
v -0.3000 0.1000 -0.2000
v -0.3000 0.0000 -0.2000
v -0.2000 0.1000 -0.2000
v -0.2000 0.0000 -0.2000
v -0.3000 0.4000 -0.2000
v -0.3000 0.3000 -0.2000
v -0.2000 0.3000 -0.2000
v -0.3000 0.5000 -0.2000
v -0.2000 1.4000 -0.2000
v -0.3000 0.4000 -0.3000
v -0.3000 0.3000 -0.3000
v -0.2000 0.3000 -0.3000
v -0.3000 0.5000 -0.3000
v -0.2000 1.4000 -0.3000
v -0.3000 0.4000 -0.4000
v -0.3000 0.3000 -0.4000
v -0.2000 0.4000 -0.4000
v -0.2000 0.3000 -0.4000
v -0.3000 0.5000 -0.4000
v -0.2000 0.5000 -0.4000
v -0.2000 0.6000 -0.4000
v -0.2000 1.4000 -0.4000
v -0.2000 0.7000 -0.5000
v -0.2000 0.6000 -0.5000
v -0.2000 0.8000 -0.5000
v -0.2000 0.9000 -0.5000
v -0.2000 1.0000 -0.5000
v -0.2000 1.1000 -0.5000
v -0.2000 1.2000 -0.5000
v -0.2000 1.3000 -0.5000
v -0.2000 1.4000 -0.5000
v -0.1000 0.6000 0.3000
v -0.1000 0.7000 0.3000
v -0.1000 0.6000 0.2000
v -0.1000 0.8000 0.3000
v -0.1000 0.9000 0.3000
v -0.1000 1.0000 0.3000
v -0.1000 1.1000 0.3000
v -0.1000 1.2000 0.3000
v -0.1000 1.3000 0.3000
v -0.1000 1.4000 0.3000
v -0.1000 1.4000 0.2000
v -0.1000 0.3000 0.2000
v -0.1000 0.4000 0.2000
v -0.1000 0.3000 0.1000
v -0.1000 0.5000 0.2000
v -0.1000 1.4000 0.1000
v -0.1000 0.3000 0.0000
v -0.1000 1.4000 0.0000
v -0.1000 0.0000 0.0000
v -0.1000 0.0000 -0.1000
v -0.1000 0.1000 -0.1000
v -0.1000 0.1000 0.0000
v -0.1000 0.2000 -0.1000
v -0.1000 0.2000 0.0000
v -0.2000 0.2000 0.0000
v -0.2000 0.2000 -0.1000
v -0.1000 0.3000 -0.1000
v -0.1000 1.4000 -0.1000
v -0.1000 0.0000 -0.2000
v -0.1000 0.1000 -0.2000
v -0.1000 0.3000 -0.2000
v -0.1000 1.4000 -0.2000
v -0.1000 0.3000 -0.3000
v -0.1000 1.4000 -0.3000
v -0.1000 0.4000 -0.4000
v -0.1000 0.3000 -0.4000
v -0.1000 0.5000 -0.4000
v -0.1000 0.6000 -0.4000
v -0.1000 1.4000 -0.4000
v -0.1000 0.7000 -0.5000
v -0.1000 0.6000 -0.5000
v -0.1000 0.8000 -0.5000
v -0.1000 0.9000 -0.5000
v -0.1000 1.0000 -0.5000
v -0.1000 1.1000 -0.5000
v -0.1000 1.2000 -0.5000
v -0.1000 1.3000 -0.5000
v -0.1000 1.4000 -0.5000
v -0.1000 0.8000 0.5000
v -0.1000 0.9000 0.5000
v -0.1000 0.9000 0.4000
v -0.1000 0.8000 0.4000
v 0.0000 0.8000 0.5000
v 0.0000 0.9000 0.5000
v 0.0000 0.8000 0.4000
v -0.1000 1.0000 0.5000
v -0.1000 1.0000 0.4000
v 0.0000 1.0000 0.5000
v 0.0000 1.0000 0.4000
v 0.0000 0.8000 0.3000
v 0.0000 1.0000 0.3000
v 0.0000 0.6000 0.3000
v 0.0000 0.7000 0.3000
v 0.0000 0.6000 0.2000
v 0.0000 1.1000 0.3000
v 0.0000 1.2000 0.3000
v 0.0000 1.3000 0.3000
v 0.0000 1.4000 0.3000
v 0.0000 1.4000 0.2000
v 0.0000 0.3000 0.2000
v 0.0000 0.4000 0.2000
v 0.0000 0.3000 0.1000
v 0.0000 0.5000 0.2000
v 0.0000 1.4000 0.1000
v 0.0000 0.3000 0.0000
v 0.0000 1.4000 0.0000
v 0.0000 0.3000 -0.1000
v 0.0000 1.4000 -0.1000
v 0.0000 0.3000 -0.2000
v 0.0000 1.4000 -0.2000
v 0.0000 0.3000 -0.3000
v 0.0000 1.4000 -0.3000
v 0.0000 0.4000 -0.4000
v 0.0000 0.3000 -0.4000
v 0.0000 0.5000 -0.4000
v 0.0000 0.6000 -0.4000
v 0.0000 1.4000 -0.4000
v 0.0000 0.7000 -0.5000
v 0.0000 0.6000 -0.5000
v 0.0000 0.8000 -0.5000
v 0.0000 0.9000 -0.5000
v 0.0000 1.0000 -0.5000
v 0.0000 1.1000 -0.5000
v 0.0000 1.2000 -0.5000
v 0.0000 1.3000 -0.5000
v 0.0000 1.4000 -0.5000
v 0.1000 0.8000 0.5000
v 0.1000 0.8000 0.4000
v 0.1000 0.9000 0.4000
v 0.1000 0.9000 0.5000
v 0.1000 1.0000 0.4000
v 0.1000 1.0000 0.5000
v 0.1000 0.8000 0.3000
v 0.1000 0.9000 0.3000
v 0.1000 1.0000 0.3000
v 0.1000 0.6000 0.3000
v 0.1000 0.7000 0.3000
v 0.1000 0.6000 0.2000
v 0.1000 1.1000 0.3000
v 0.1000 1.2000 0.3000
v 0.1000 1.3000 0.3000
v 0.1000 1.4000 0.3000
v 0.1000 1.4000 0.2000
v 0.1000 0.3000 0.2000
v 0.1000 0.4000 0.2000
v 0.1000 0.3000 0.1000
v 0.1000 0.5000 0.2000
v 0.1000 1.4000 0.1000
v 0.1000 0.3000 0.0000
v 0.1000 1.4000 0.0000
v 0.1000 0.3000 -0.1000
v 0.1000 1.4000 -0.1000
v 0.1000 0.3000 -0.2000
v 0.1000 1.4000 -0.2000
v 0.1000 0.3000 -0.3000
v 0.1000 1.4000 -0.3000
v 0.1000 0.4000 -0.4000
v 0.1000 0.3000 -0.4000
v 0.1000 0.5000 -0.4000
v 0.1000 0.6000 -0.4000
v 0.1000 1.4000 -0.4000
v 0.1000 0.7000 -0.5000
v 0.1000 0.6000 -0.5000
v 0.1000 0.8000 -0.5000
v 0.1000 0.9000 -0.5000
v 0.1000 1.0000 -0.5000
v 0.1000 1.1000 -0.5000
v 0.1000 1.2000 -0.5000
v 0.1000 1.3000 -0.5000
v 0.1000 1.4000 -0.5000
v 0.2000 0.6000 0.3000
v 0.2000 0.7000 0.3000
v 0.2000 0.6000 0.2000
v 0.2000 0.8000 0.3000
v 0.2000 0.9000 0.3000
v 0.2000 1.0000 0.3000
v 0.2000 1.1000 0.3000
v 0.2000 1.2000 0.3000
v 0.2000 1.3000 0.3000
v 0.2000 1.4000 0.3000
v 0.2000 1.4000 0.2000
v 0.2000 0.3000 0.2000
v 0.2000 0.4000 0.2000
v 0.2000 0.3000 0.1000
v 0.2000 0.5000 0.2000
v 0.2000 1.4000 0.1000
v 0.2000 0.3000 0.0000
v 0.2000 1.4000 0.0000
v 0.1000 0.0000 0.0000
v 0.1000 0.1000 0.0000
v 0.1000 0.1000 -0.1000
v 0.1000 0.0000 -0.1000
v 0.2000 0.0000 0.0000
v 0.2000 0.1000 0.0000
v 0.2000 0.0000 -0.1000
v 0.2000 0.1000 -0.1000
v 0.2000 0.2000 -0.1000
v 0.2000 0.2000 0.0000
v 0.1000 0.2000 0.0000
v 0.1000 0.2000 -0.1000
v 0.2000 0.3000 -0.1000
v 0.2000 1.4000 -0.1000
v 0.1000 0.1000 -0.2000
v 0.1000 0.0000 -0.2000
v 0.2000 0.1000 -0.2000
v 0.2000 0.0000 -0.2000
v 0.2000 0.3000 -0.2000
v 0.2000 1.4000 -0.2000
v 0.2000 0.3000 -0.3000
v 0.2000 1.4000 -0.3000
v 0.2000 0.4000 -0.4000
v 0.2000 0.3000 -0.4000
v 0.2000 0.5000 -0.4000
v 0.2000 0.6000 -0.4000
v 0.2000 1.4000 -0.4000
v 0.2000 0.7000 -0.5000
v 0.2000 0.6000 -0.5000
v 0.2000 0.8000 -0.5000
v 0.2000 0.9000 -0.5000
v 0.2000 1.0000 -0.5000
v 0.2000 1.1000 -0.5000
v 0.2000 1.2000 -0.5000
v 0.2000 1.3000 -0.5000
v 0.2000 1.4000 -0.5000
v 0.3000 0.6000 0.3000
v 0.3000 0.7000 0.3000
v 0.3000 0.6000 0.2000
v 0.3000 0.8000 0.3000
v 0.3000 0.9000 0.3000
v 0.3000 1.0000 0.3000
v 0.3000 1.1000 0.3000
v 0.3000 1.2000 0.3000
v 0.3000 1.3000 0.3000
v 0.3000 1.4000 0.3000
v 0.3000 1.4000 0.2000
v 0.3000 0.3000 0.2000
v 0.3000 0.3000 0.1000
v 0.3000 0.4000 0.1000
v 0.3000 0.4000 0.2000
v 0.3000 0.5000 0.1000
v 0.3000 0.5000 0.2000
v 0.3000 0.6000 0.1000
v 0.3000 1.4000 0.1000
v 0.3000 0.3000 0.0000
v 0.3000 0.4000 0.0000
v 0.3000 0.5000 0.0000
v 0.3000 0.6000 0.0000
v 0.3000 1.4000 0.0000
v 0.3000 0.0000 0.0000
v 0.3000 0.0000 -0.1000
v 0.3000 0.1000 -0.1000
v 0.3000 0.1000 0.0000
v 0.3000 0.3000 -0.1000
v 0.3000 0.4000 -0.1000
v 0.3000 0.5000 -0.1000
v 0.3000 0.6000 -0.1000
v 0.3000 1.4000 -0.1000
v 0.3000 0.0000 -0.2000
v 0.3000 0.1000 -0.2000
v 0.3000 0.3000 -0.2000
v 0.3000 0.4000 -0.2000
v 0.3000 0.5000 -0.2000
v 0.3000 0.6000 -0.2000
v 0.3000 1.4000 -0.2000
v 0.3000 0.3000 -0.3000
v 0.3000 0.4000 -0.3000
v 0.3000 0.5000 -0.3000
v 0.3000 0.6000 -0.3000
v 0.3000 1.4000 -0.3000
v 0.3000 0.3000 -0.4000
v 0.3000 0.4000 -0.4000
v 0.3000 0.5000 -0.4000
v 0.3000 0.6000 -0.4000
v 0.3000 1.4000 -0.4000
v 0.3000 0.7000 -0.5000
v 0.3000 0.6000 -0.5000
v 0.3000 0.8000 -0.5000
v 0.3000 0.9000 -0.5000
v 0.3000 1.0000 -0.5000
v 0.3000 1.1000 -0.5000
v 0.3000 1.2000 -0.5000
v 0.3000 1.3000 -0.5000
v 0.3000 1.4000 -0.5000
v 0.4000 0.6000 0.3000
v 0.4000 0.6000 0.2000
v 0.4000 0.7000 0.2000
v 0.4000 0.7000 0.3000
v 0.4000 0.8000 0.2000
v 0.4000 0.8000 0.3000
v 0.4000 0.9000 0.2000
v 0.4000 0.9000 0.3000
v 0.4000 1.0000 0.2000
v 0.4000 1.0000 0.3000
v 0.4000 1.1000 0.2000
v 0.4000 1.1000 0.3000
v 0.4000 1.2000 0.2000
v 0.4000 1.2000 0.3000
v 0.4000 1.3000 0.2000
v 0.4000 1.3000 0.3000
v 0.4000 1.4000 0.2000
v 0.4000 1.4000 0.3000
v 0.4000 0.6000 0.1000
v 0.4000 0.7000 0.1000
v 0.4000 0.8000 0.1000
v 0.4000 0.9000 0.1000
v 0.4000 1.0000 0.1000
v 0.4000 1.1000 0.1000
v 0.4000 1.2000 0.1000
v 0.4000 1.3000 0.1000
v 0.4000 1.4000 0.1000
v 0.4000 0.6000 0.0000
v 0.4000 1.0000 0.0000
v 0.4000 1.1000 0.0000
v 0.4000 1.2000 0.0000
v 0.4000 1.3000 0.0000
v 0.4000 1.4000 0.0000
v 0.4000 0.6000 -0.1000
v 0.4000 1.0000 -0.1000
v 0.4000 1.1000 -0.1000
v 0.4000 1.2000 -0.1000
v 0.4000 1.3000 -0.1000
v 0.4000 1.4000 -0.1000
v 0.4000 0.6000 -0.2000
v 0.4000 1.0000 -0.2000
v 0.4000 1.1000 -0.2000
v 0.4000 1.2000 -0.2000
v 0.4000 1.3000 -0.2000
v 0.4000 1.4000 -0.2000
v 0.4000 0.6000 -0.3000
v 0.4000 1.0000 -0.3000
v 0.4000 1.1000 -0.3000
v 0.4000 1.2000 -0.3000
v 0.4000 1.3000 -0.3000
v 0.4000 1.4000 -0.3000
v 0.4000 0.6000 -0.4000
v 0.4000 0.7000 -0.4000
v 0.4000 0.7000 -0.3000
v 0.4000 0.8000 -0.4000
v 0.4000 0.8000 -0.3000
v 0.4000 0.9000 -0.4000
v 0.4000 0.9000 -0.3000
v 0.4000 1.0000 -0.4000
v 0.4000 1.1000 -0.4000
v 0.4000 1.2000 -0.4000
v 0.4000 1.3000 -0.4000
v 0.4000 1.4000 -0.4000
v 0.4000 0.6000 -0.5000
v 0.4000 0.7000 -0.5000
v 0.4000 0.8000 -0.5000
v 0.4000 0.9000 -0.5000
v 0.4000 1.0000 -0.5000
v 0.4000 1.1000 -0.5000
v 0.4000 1.2000 -0.5000
v 0.4000 1.3000 -0.5000
v 0.4000 1.4000 -0.5000
v 0.5000 0.6000 0.1000
v 0.5000 0.6000 0.0000
v 0.5000 0.7000 0.0000
v 0.5000 0.7000 0.1000
v 0.5000 0.8000 0.0000
v 0.5000 0.8000 0.1000
v 0.5000 0.9000 0.0000
v 0.5000 0.9000 0.1000
v 0.5000 1.0000 0.0000
v 0.5000 1.0000 0.1000
v 0.5000 0.6000 -0.1000
v 0.5000 0.7000 -0.1000
v 0.5000 0.8000 -0.1000
v 0.5000 0.9000 -0.1000
v 0.5000 1.0000 -0.1000
v 0.5000 0.6000 -0.2000
v 0.5000 0.7000 -0.2000
v 0.5000 0.8000 -0.2000
v 0.5000 0.9000 -0.2000
v 0.5000 1.0000 -0.2000
v 0.5000 0.6000 -0.3000
v 0.5000 0.7000 -0.3000
v 0.5000 0.8000 -0.3000
v 0.5000 0.9000 -0.3000
v 0.5000 1.0000 -0.3000
usemtl c21
f 43 49 50 44
f 43 47 51 49
f 52 55 56 53
f 52 54 57 55
f 58 61 62 59
f 58 60 63 61
f 64 67 68 65
f 64 66 69 67
f 67 69 70 68
f 45 44 6 5
f 45 5 71 48
f 50 53 13 10
f 56 59 72 16
f 72 73 79 78
f 74 75 81 80
f 75 76 82 81
f 7 20 83 77
f 17 78 84 24
f 79 80 86 85
f 27 35 95 89
f 31 90 96 41
f 91 92 98 97
f 34 37 104 101
f 39 41 106 105
f 96 97 108 107
f 98 99 110 109
f 99 100 111 110
f 102 101 112 113
f 113 112 114 115
f 102 113 115 103
f 104 105 118 116
f 116 118 119 117
f 106 107 122 120
f 120 122 123 121
f 46 130 131 47
f 46 48 132 130
f 51 133 134 54
f 141 142 143 144
f 141 145 146 142
f 141 144 147 145
f 148 48 71 149
f 148 150 132 48
f 70 140 151 76
f 143 149 155 152
f 149 71 77 155
f 76 151 156 82
f 153 152 165 166
f 153 166 167 154
f 155 77 83 168
f 165 168 177 174
f 168 83 89 177
f 88 169 178 94
f 175 174 179 180
f 175 180 181 176
f 177 89 95 182
f 94 178 183 100
f 179 182 188 184
f 184 188 189 186
f 182 95 103 188
f 188 103 190 189
f 114 117 194 192
f 119 121 196 195
f 123 125 198 197
f 127 129 200 199
f 111 191 200 129
f 131 202 204 133
f 134 205 206 135
f 136 207 208 137
f 138 209 210 139
f 139 210 211 140
f 146 213 215 150
f 150 215 203 132
f 140 211 216 151
f 147 154 217 214
f 156 218 228 169
f 167 176 231 227
f 169 228 232 178
f 187 186 235 236
f 181 187 236 233
f 189 190 238 237
f 183 234 239 191
f 193 192 240 241
f 190 193 241 238
f 194 195 243 242
f 196 197 245 244
f 198 199 247 246
f 201 262 263 202
f 201 203 264 262
f 206 261 265 207
f 208 266 267 209
f 212 270 271 213
f 212 214 272 270
f 215 273 264 203
f 216 274 276 218
f 217 227 277 275
f 218 276 278 228
f 231 233 281 279
f 232 280 282 234
f 235 237 285 283
f 237 238 286 285
f 234 282 287 239
f 240 242 290 288
f 243 244 292 291
f 263 307 303 260
f 271 315 317 273
f 273 317 308 264
f 269 313 318 274
f 272 275 319 316
f 274 318 320 276
f 277 279 323 321
f 278 322 324 280
f 280 324 326 282
f 284 283 327 328
f 281 284 328 325
f 285 286 330 329
f 289 288 332 333
f 286 289 333 330
f 290 291 335 334
f 292 293 337 336
f 294 295 339 338
f 306 341 342 307
f 306 308 343 341
f 303 344 345 304
f 305 346 347 309
f 310 348 349 311
f 314 352 353 315
f 314 316 354 352
f 317 355 343 308
f 313 351 356 318
f 320 358 372 322
f 322 372 378 324
f 323 325 379 377
f 327 329 383 381
f 329 330 384 383
f 326 380 385 331
f 332 334 388 386
f 335 336 390 389
f 337 338 392 391
f 339 340 394 393
f 331 385 394 340
f 342 396 398 344
f 345 399 400 346
f 347 401 402 348
f 349 403 404 350
f 350 404 405 351
f 409 408 410 411
f 353 409 411 355
f 411 410 412 397
f 355 411 397 343
f 407 414 415 408
f 354 357 414 407
f 410 416 417 412
f 356 413 418 358
f 415 424 425 416
f 416 425 426 417
f 358 418 427 372
f 423 430 431 424
f 371 377 430 423
f 425 432 433 426
f 431 436 437 432
f 432 437 438 433
f 378 434 439 380
f 435 440 441 436
f 382 381 441 440
f 379 382 440 435
f 437 442 443 438
f 383 384 443 442
f 380 439 444 385
f 387 386 445 446
f 384 387 446 443
f 388 389 448 447
f 390 391 450 449
f 454 455 456 457
f 395 454 457 396
f 395 397 455 454
f 459 458 460 461
f 398 459 461 399
f 463 462 464 465
f 400 463 465 401
f 456 473 474 458
f 460 475 476 462
f 464 477 478 466
f 468 479 480 470
f 405 470 480 413
f 412 417 481 472
f 476 482 483 477
f 478 484 485 479
f 426 433 493 487
f 488 494 495 489
f 490 496 497 491
f 495 501 502 496
f 497 503 504 498
f 434 498 504 439
f 499 505 506 507
f 438 443 505 499
f 509 508 510 511
f 500 512 513 501
f 506 518 519 508
f 445 447 519 518
f 510 520 521 512
f 448 449 521 520
f 513 522 523 514
f 450 451 523 522
f 515 524 525 516
f 452 453 525 524
f 444 516 525 453
usemtl c22
f 249 250 251 252
f 249 253 254 250
f 249 252 255 253
f 250 256 257 251
f 250 254 258 256
f 256 258 259 257
f 252 251 205 204
f 252 204 260 255
f 251 257 206 205
f 257 259 261 206
f 297 298 299 300
f 253 297 300 254
f 253 255 298 297
f 300 299 301 302
f 254 300 302 258
f 258 302 301 259
f 298 303 304 299
f 255 260 303 298
f 299 304 305 301
f 259 301 305 261
usemtl c23
f 222 221 223 224
f 162 225 226 163
f 163 226 223 221
f 162 222 224 225
f 224 223 227 217
f 225 154 167 226
f 226 167 227 223
f 225 224 217 154
f 364 366 367 368
f 360 369 370 361
f 361 370 367 366
f 360 364 368 369
f 368 367 371 357
f 369 319 321 370
f 370 321 371 367
f 369 368 357 319
usemtl c24
f 1 2 3 4
f 1 5 6 2
f 1 4 7 5
f 2 8 9 3
f 2 6 10 8
f 8 11 12 9
f 8 10 13 11
f 11 14 15 12
f 11 13 16 14
f 14 16 17 15
f 4 3 18 19
f 4 19 20 7
f 3 9 21 18
f 9 12 22 21
f 12 15 23 22
f 15 17 24 23
f 19 18 25 26
f 19 26 27 20
f 18 21 28 25
f 21 22 29 28
f 22 23 30 29
f 23 24 31 30
f 26 25 32 33
f 33 32 34 35
f 26 33 35 27
f 25 28 36 32
f 32 36 37 34
f 28 29 38 36
f 36 38 39 37
f 29 30 40 38
f 38 40 41 39
f 30 31 41 40
f 42 43 44 45
f 42 46 47 43
f 42 45 48 46
f 49 52 53 50
f 49 51 54 52
f 55 58 59 56
f 55 57 60 58
f 61 64 65 62
f 61 63 66 64
f 44 50 10 6
f 53 56 16 13
f 5 7 77 71
f 16 72 78 17
f 73 74 80 79
f 78 79 85 84
f 80 81 87 86
f 81 82 88 87
f 20 27 89 83
f 24 84 90 31
f 90 91 97 96
f 92 93 99 98
f 93 94 100 99
f 35 34 101 102
f 35 102 103 95
f 37 39 105 104
f 41 96 107 106
f 97 98 109 108
f 101 104 116 112
f 112 116 117 114
f 105 106 120 118
f 118 120 121 119
f 47 131 133 51
f 54 134 135 57
f 142 148 149 143
f 142 146 150 148
f 144 143 152 153
f 144 153 154 147
f 157 158 159 160
f 157 161 162 158
f 158 162 163 159
f 157 160 164 161
f 152 155 168 165
f 160 159 170 171
f 171 170 172 173
f 159 163 172 170
f 160 171 173 164
f 166 165 174 175
f 166 175 176 167
f 174 177 182 179
f 180 179 184 185
f 185 184 186 187
f 180 185 187 181
f 115 114 192 193
f 103 115 193 190
f 117 119 195 194
f 121 123 197 196
f 125 127 199 198
f 130 201 202 131
f 130 132 203 201
f 133 204 205 134
f 135 206 207 136
f 137 208 209 138
f 145 212 213 146
f 145 147 214 212
f 219 220 221 222
f 161 219 222 162
f 161 164 220 219
f 220 229 230 221
f 173 172 230 229
f 163 221 230 172
f 164 173 229 220
f 176 181 233 231
f 186 189 237 235
f 192 194 242 240
f 195 196 244 243
f 197 198 246 245
f 199 200 248 247
f 191 239 248 200
f 202 263 260 204
f 207 265 266 208
f 209 267 268 210
f 210 268 269 211
f 213 271 273 215
f 214 217 275 272
f 227 231 279 277
f 236 235 283 284
f 233 236 284 281
f 241 240 288 289
f 238 241 289 286
f 242 243 291 290
f 244 245 293 292
f 262 306 307 263
f 262 264 308 306
f 261 305 309 265
f 270 314 315 271
f 270 272 316 314
f 275 277 321 319
f 279 281 325 323
f 283 285 329 327
f 288 290 334 332
f 291 292 336 335
f 293 294 338 337
f 295 296 340 339
f 287 331 340 296
f 307 342 344 303
f 304 345 346 305
f 309 347 348 310
f 311 349 350 312
f 312 350 351 313
f 315 353 355 317
f 316 319 357 354
f 359 360 361 362
f 359 363 364 360
f 359 362 365 363
f 362 361 373 374
f 374 373 375 376
f 361 366 375 373
f 362 374 376 365
f 321 323 377 371
f 328 327 381 382
f 325 328 382 379
f 333 332 386 387
f 330 333 387 384
f 334 335 389 388
f 336 337 391 390
f 338 339 393 392
f 341 395 396 342
f 341 343 397 395
f 344 398 399 345
f 346 400 401 347
f 348 402 403 349
f 406 407 408 409
f 352 406 409 353
f 352 354 407 406
f 408 415 416 410
f 419 420 421 422
f 363 419 422 364
f 364 422 421 366
f 363 365 420 419
f 414 423 424 415
f 357 371 423 414
f 420 428 429 421
f 376 375 429 428
f 366 421 429 375
f 365 376 428 420
f 424 431 432 425
f 430 435 436 431
f 377 379 435 430
f 436 441 442 437
f 381 383 442 441
f 386 388 447 445
f 389 390 449 448
f 457 456 458 459
f 396 457 459 398
f 461 460 462 463
f 399 461 463 400
f 455 472 473 456
f 397 412 472 455
f 458 474 475 460
f 462 476 477 464
f 466 478 479 468
f 477 483 484 478
f 479 485 486 480
f 413 480 486 418
f 417 426 487 481
f 482 488 489 483
f 489 495 496 490
f 491 497 498 492
f 427 492 498 434
f 433 438 499 493
f 494 500 501 495
f 496 502 503 497
f 507 506 508 509
f 511 510 512 500
f 505 517 518 506
f 446 445 518 517
f 443 446 517 505
f 508 519 520 510
f 447 448 520 519
f 512 521 522 513
f 449 450 522 521
f 514 523 524 515
f 451 452 524 523
f 526 527 528 529
f 472 526 529 473
f 472 481 527 526
f 529 528 530 531
f 473 529 531 474
f 531 530 532 533
f 474 531 533 475
f 533 532 534 535
f 475 533 535 476
f 476 535 534 482
f 527 536 537 528
f 481 487 536 527
f 528 537 538 530
f 530 538 539 532
f 532 539 540 534
f 482 534 540 488
f 536 541 542 537
f 487 493 541 536
f 537 542 543 538
f 538 543 544 539
f 539 544 545 540
f 488 540 545 494
f 541 546 547 542
f 499 507 547 546
f 493 499 546 541
f 542 547 548 543
f 507 509 548 547
f 543 548 549 544
f 509 511 549 548
f 544 549 550 545
f 511 500 550 549
f 494 545 550 500
usemtl c25
f 57 135 136 60
usemtl c26
f 59 62 73 72
f 62 65 74 73
f 65 68 75 74
f 68 70 76 75
f 84 85 91 90
f 85 86 92 91
f 86 87 93 92
f 87 88 94 93
f 107 108 124 122
f 122 124 125 123
f 108 109 126 124
f 124 126 127 125
f 109 110 128 126
f 126 128 129 127
f 110 111 129 128
f 60 136 137 63
f 63 137 138 66
f 66 138 139 69
f 69 139 140 70
f 82 156 169 88
f 100 183 191 111
f 151 216 218 156
f 178 232 234 183
f 211 269 274 216
f 228 278 280 232
f 245 246 294 293
f 246 247 295 294
f 247 248 296 295
f 239 287 296 248
f 265 309 310 266
f 266 310 311 267
f 267 311 312 268
f 268 312 313 269
f 276 320 322 278
f 282 326 331 287
f 318 356 358 320
f 324 378 380 326
f 351 405 413 356
f 372 427 434 378
f 391 392 451 450
f 392 393 452 451
f 393 394 453 452
f 385 444 453 394
f 465 464 466 467
f 401 465 467 402
f 467 466 468 469
f 402 467 469 403
f 469 468 470 471
f 403 469 471 404
f 404 471 470 405
f 483 489 490 484
f 484 490 491 485
f 485 491 492 486
f 418 486 492 427
f 501 513 514 502
f 502 514 515 503
f 503 515 516 504
f 439 504 516 444
