# generado por tools/vox_to_obj.py desde pollito_v1.vox
mtllib pollito_v1.mtl
v -2.5000 3.0000 1.0000
v -2.5000 4.0000 1.0000
v -2.5000 4.0000 0.0000
v -2.5000 3.0000 0.0000
v -1.5000 3.0000 1.0000
v -1.5000 4.0000 1.0000
v -1.5000 3.0000 0.0000
v -2.5000 4.0000 -1.0000
v -2.5000 3.0000 -1.0000
v -1.5000 3.0000 -1.0000
v -2.5000 4.0000 -2.0000
v -2.5000 3.0000 -2.0000
v -1.5000 3.0000 -2.0000
v -2.5000 4.0000 -3.0000
v -2.5000 3.0000 -3.0000
v -1.5000 3.0000 -3.0000
v -2.5000 4.0000 -4.0000
v -2.5000 3.0000 -4.0000
v -1.5000 4.0000 -4.0000
v -1.5000 3.0000 -4.0000
v -2.5000 5.0000 1.0000
v -2.5000 5.0000 0.0000
v -1.5000 5.0000 1.0000
v -2.5000 5.0000 -1.0000
v -2.5000 5.0000 -2.0000
v -2.5000 5.0000 -3.0000
v -2.5000 5.0000 -4.0000
v -1.5000 5.0000 -4.0000
v -2.5000 6.0000 1.0000
v -2.5000 6.0000 0.0000
v -1.5000 6.0000 1.0000
v -2.5000 6.0000 -1.0000
v -2.5000 6.0000 -2.0000
v -2.5000 6.0000 -3.0000
v -2.5000 6.0000 -4.0000
v -1.5000 6.0000 -4.0000
v -2.5000 7.0000 1.0000
v -2.5000 7.0000 0.0000
v -1.5000 7.0000 1.0000
v -2.5000 7.0000 -1.0000
v -2.5000 7.0000 -2.0000
v -1.5000 7.0000 -1.0000
v -1.5000 7.0000 -2.0000
v -2.5000 7.0000 -3.0000
v -1.5000 7.0000 -3.0000
v -2.5000 7.0000 -4.0000
v -1.5000 7.0000 -4.0000
v -0.5000 3.0000 1.0000
v -0.5000 4.0000 1.0000
v -0.5000 3.0000 0.0000
v -0.5000 3.0000 -1.0000
v -0.5000 3.0000 -2.0000
v -0.5000 3.0000 -3.0000
v -0.5000 4.0000 -4.0000
v -0.5000 3.0000 -4.0000
v -0.5000 5.0000 1.0000
v -0.5000 5.0000 -4.0000
v -0.5000 6.0000 1.0000
v -0.5000 6.0000 -4.0000
v -0.5000 7.0000 1.0000
v -0.5000 7.0000 -1.0000
v -0.5000 7.0000 -2.0000
v -0.5000 7.0000 -3.0000
v -0.5000 7.0000 -4.0000
v 0.5000 3.0000 1.0000
v 0.5000 4.0000 1.0000
v 0.5000 3.0000 0.0000
v 0.5000 3.0000 -1.0000
v 0.5000 3.0000 -2.0000
v 0.5000 3.0000 -3.0000
v 0.5000 4.0000 -4.0000
v 0.5000 3.0000 -4.0000
v 0.5000 5.0000 1.0000
v 0.5000 5.0000 -4.0000
v 0.5000 6.0000 1.0000
v 0.5000 6.0000 -4.0000
v 0.5000 7.0000 1.0000
v 0.5000 7.0000 -1.0000
v 0.5000 7.0000 -2.0000
v 0.5000 7.0000 -3.0000
v 0.5000 7.0000 -4.0000
v 1.5000 3.0000 1.0000
v 1.5000 4.0000 1.0000
v 1.5000 3.0000 0.0000
v 1.5000 3.0000 -1.0000
v 1.5000 3.0000 -2.0000
v 1.5000 3.0000 -3.0000
v 1.5000 4.0000 -4.0000
v 1.5000 3.0000 -4.0000
v 1.5000 5.0000 1.0000
v 1.5000 5.0000 -4.0000
v 1.5000 6.0000 1.0000
v 1.5000 6.0000 -4.0000
v 1.5000 7.0000 1.0000
v 1.5000 7.0000 -1.0000
v 1.5000 7.0000 -2.0000
v 1.5000 7.0000 -3.0000
v 1.5000 7.0000 -4.0000
v 2.5000 3.0000 1.0000
v 2.5000 3.0000 0.0000
v 2.5000 4.0000 0.0000
v 2.5000 4.0000 1.0000
v 2.5000 3.0000 -1.0000
v 2.5000 4.0000 -1.0000
v 2.5000 3.0000 -2.0000
v 2.5000 4.0000 -2.0000
v 2.5000 3.0000 -3.0000
v 2.5000 4.0000 -3.0000
v 2.5000 3.0000 -4.0000
v 2.5000 4.0000 -4.0000
v 2.5000 5.0000 0.0000
v 2.5000 5.0000 1.0000
v 2.5000 5.0000 -1.0000
v 2.5000 5.0000 -2.0000
v 2.5000 5.0000 -3.0000
v 2.5000 5.0000 -4.0000
v 2.5000 6.0000 0.0000
v 2.5000 6.0000 1.0000
v 2.5000 6.0000 -1.0000
v 2.5000 6.0000 -2.0000
v 2.5000 6.0000 -3.0000
v 2.5000 6.0000 -4.0000
v 2.5000 7.0000 0.0000
v 2.5000 7.0000 1.0000
v 2.5000 7.0000 -1.0000
v 2.5000 7.0000 -2.0000
v 2.5000 7.0000 -3.0000
v 2.5000 7.0000 -4.0000
v -2.5000 7.0000 3.0000
v -2.5000 8.0000 3.0000
v -2.5000 8.0000 2.0000
v -2.5000 7.0000 2.0000
v -1.5000 7.0000 3.0000
v -1.5000 8.0000 3.0000
v -1.5000 7.0000 2.0000
v -2.5000 8.0000 1.0000
v -2.5000 8.0000 0.0000
v -2.5000 8.0000 -1.0000
v -1.5000 8.0000 -1.0000
v -2.5000 9.0000 3.0000
v -2.5000 9.0000 2.0000
v -1.5000 9.0000 3.0000
v -2.5000 9.0000 1.0000
v -2.5000 9.0000 0.0000
v -2.5000 9.0000 -1.0000
v -1.5000 9.0000 -1.0000
v -2.5000 10.0000 3.0000
v -2.5000 10.0000 2.0000
v -1.5000 10.0000 3.0000
v -2.5000 10.0000 1.0000
v -2.5000 10.0000 0.0000
v -2.5000 10.0000 -1.0000
v -1.5000 10.0000 -1.0000
v -2.5000 11.0000 3.0000
v -2.5000 11.0000 2.0000
v -1.5000 11.0000 3.0000
v -1.5000 11.0000 2.0000
v -2.5000 11.0000 1.0000
v -1.5000 11.0000 1.0000
v -2.5000 11.0000 0.0000
v -1.5000 11.0000 0.0000
v -2.5000 11.0000 -1.0000
v -1.5000 11.0000 -1.0000
v -0.5000 7.0000 3.0000
v -0.5000 8.0000 3.0000
v -0.5000 7.0000 2.0000
v -0.5000 8.0000 -1.0000
v -0.5000 9.0000 3.0000
v -0.5000 9.0000 -1.0000
v -0.5000 10.0000 3.0000
v -0.5000 10.0000 -1.0000
v -0.5000 11.0000 3.0000
v -0.5000 11.0000 2.0000
v -0.5000 11.0000 1.0000
v -0.5000 11.0000 0.0000
v -0.5000 11.0000 -1.0000
v 0.5000 7.0000 3.0000
v 0.5000 8.0000 3.0000
v 0.5000 7.0000 2.0000
v 0.5000 8.0000 -1.0000
v 0.5000 9.0000 3.0000
v 0.5000 9.0000 -1.0000
v 0.5000 10.0000 3.0000
v 0.5000 10.0000 -1.0000
v 0.5000 11.0000 3.0000
v 0.5000 11.0000 2.0000
v 0.5000 11.0000 1.0000
v 0.5000 11.0000 0.0000
v 0.5000 11.0000 -1.0000
v 1.5000 7.0000 3.0000
v 1.5000 8.0000 3.0000
v 1.5000 7.0000 2.0000
v 1.5000 8.0000 -1.0000
v 1.5000 9.0000 3.0000
v 1.5000 9.0000 -1.0000
v 1.5000 10.0000 3.0000
v 1.5000 10.0000 -1.0000
v 1.5000 11.0000 3.0000
v 1.5000 11.0000 2.0000
v 1.5000 11.0000 1.0000
v 1.5000 11.0000 0.0000
v 1.5000 11.0000 -1.0000
v 2.5000 7.0000 3.0000
v 2.5000 7.0000 2.0000
v 2.5000 8.0000 2.0000
v 2.5000 8.0000 3.0000
v 2.5000 8.0000 1.0000
v 2.5000 8.0000 0.0000
v 2.5000 8.0000 -1.0000
v 2.5000 9.0000 2.0000
v 2.5000 9.0000 3.0000
v 2.5000 9.0000 1.0000
v 2.5000 9.0000 0.0000
v 2.5000 9.0000 -1.0000
v 2.5000 10.0000 2.0000
v 2.5000 10.0000 3.0000
v 2.5000 10.0000 1.0000
v 2.5000 10.0000 0.0000
v 2.5000 10.0000 -1.0000
v 2.5000 11.0000 2.0000
v 2.5000 11.0000 3.0000
v 2.5000 11.0000 1.0000
v 2.5000 11.0000 0.0000
v 2.5000 11.0000 -1.0000
v -1.5000 8.0000 5.0000
v -1.5000 9.0000 5.0000
v -1.5000 9.0000 4.0000
v -1.5000 8.0000 4.0000
v -0.5000 9.0000 4.0000
v -0.5000 8.0000 4.0000
v -0.5000 8.0000 5.0000
v -0.5000 9.0000 5.0000
v -1.5000 10.0000 5.0000
v -1.5000 10.0000 4.0000
v -0.5000 10.0000 4.0000
v -0.5000 10.0000 5.0000
v 0.5000 9.0000 4.0000
v 0.5000 8.0000 4.0000
v 0.5000 8.0000 5.0000
v 0.5000 9.0000 5.0000
v 0.5000 10.0000 4.0000
v 0.5000 10.0000 5.0000
v 1.5000 8.0000 5.0000
v 1.5000 8.0000 4.0000
v 1.5000 9.0000 4.0000
v 1.5000 9.0000 5.0000
v 1.5000 10.0000 4.0000
v 1.5000 10.0000 5.0000
v -0.5000 0.0000 -4.0000
v -0.5000 0.0000 -5.0000
v -0.5000 1.0000 -5.0000
v -0.5000 1.0000 -4.0000
v -1.5000 0.0000 -4.0000
v -1.5000 1.0000 -4.0000
v -1.5000 1.0000 -5.0000
v -1.5000 0.0000 -5.0000
v 1.5000 0.0000 -4.0000
v 1.5000 0.0000 -5.0000
v 1.5000 1.0000 -5.0000
v 1.5000 1.0000 -4.0000
v 0.5000 0.0000 -4.0000
v 0.5000 1.0000 -4.0000
v 0.5000 1.0000 -5.0000
v 0.5000 0.0000 -5.0000
v -0.5000 2.0000 -5.0000
v -0.5000 2.0000 -4.0000
v -1.5000 2.0000 -4.0000
v -1.5000 2.0000 -5.0000
v 1.5000 2.0000 -5.0000
v 1.5000 2.0000 -4.0000
v 0.5000 2.0000 -4.0000
v 0.5000 2.0000 -5.0000
v -0.5000 3.0000 -5.0000
v -1.5000 3.0000 -5.0000
v 1.5000 3.0000 -5.0000
v 0.5000 3.0000 -5.0000
usemtl c25
f 142 168 170 149
f 181 194 196 183
usemtl c37
f 15 14 17 18
f 18 17 19 20
f 15 18 20 16
f 11 25 26 14
f 24 32 33 25
f 30 38 40 32
f 13 16 53 52
f 31 58 60 39
f 51 52 69 68
f 56 73 75 58
f 59 64 81 76
f 63 80 81 64
f 67 68 85 84
f 66 83 90 73
f 74 76 93 91
f 79 96 97 80
f 99 100 101 102
f 82 99 102 83
f 82 84 100 99
f 108 110 116 115
f 88 91 116 110
f 114 115 121 120
f 119 120 126 125
f 95 125 126 96
f 37 136 137 38
f 136 143 144 137
f 143 150 151 144
f 150 158 160 151
f 158 159 161 160
f 135 39 60 166
f 157 173 174 159
f 164 177 178 165
f 164 166 179 177
f 165 178 181 168
f 168 181 183 170
f 170 183 185 172
f 172 185 186 173
f 78 180 193 95
f 180 182 195 193
f 182 184 197 195
f 184 189 202 197
f 188 201 202 189
f 124 123 208 207
f 207 208 213 212
f 212 213 218 217
f 217 218 223 222
f 200 222 223 201
f 225 226 227 228
f 228 227 229 230
f 225 231 232 226
f 225 228 230 231
f 226 233 234 227
f 227 234 235 229
f 226 232 236 233
f 233 236 235 234
f 230 229 237 238
f 231 239 240 232
f 231 230 238 239
f 229 235 241 237
f 232 240 242 236
f 236 242 241 235
f 243 244 245 246
f 238 237 245 244
f 239 243 246 240
f 239 238 244 243
f 246 245 247 248
f 237 241 247 245
f 240 246 248 242
f 242 248 247 241
f 249 250 251 252
f 253 254 255 256
f 256 255 251 250
f 253 249 252 254
f 253 256 250 249
f 257 258 259 260
f 261 262 263 264
f 264 263 259 258
f 261 257 260 262
f 261 264 258 257
f 252 251 265 266
f 254 267 268 255
f 255 268 265 251
f 254 252 266 267
f 260 259 269 270
f 262 271 272 263
f 263 272 269 259
f 262 260 270 271
f 266 265 273 55
f 267 20 274 268
f 268 274 273 265
f 267 266 55 20
f 20 55 273 274
f 270 269 275 89
f 271 72 276 272
f 272 276 275 269
f 271 270 89 72
f 72 89 275 276
usemtl c38
f 1 2 3 4
f 1 5 6 2
f 1 4 7 5
f 4 3 8 9
f 4 9 10 7
f 9 8 11 12
f 9 12 13 10
f 12 11 14 15
f 12 15 16 13
f 2 21 22 3
f 2 6 23 21
f 3 22 24 8
f 8 24 25 11
f 14 26 27 17
f 17 27 28 19
f 21 29 30 22
f 21 23 31 29
f 22 30 32 24
f 25 33 34 26
f 26 34 35 27
f 27 35 36 28
f 29 37 38 30
f 29 31 39 37
f 32 40 41 33
f 40 42 43 41
f 33 41 44 34
f 41 43 45 44
f 34 44 46 35
f 35 46 47 36
f 44 45 47 46
f 5 48 49 6
f 5 7 50 48
f 7 10 51 50
f 10 13 52 51
f 20 19 54 55
f 16 20 55 53
f 6 49 56 23
f 19 28 57 54
f 23 56 58 31
f 28 36 59 57
f 42 61 62 43
f 43 62 63 45
f 36 47 64 59
f 45 63 64 47
f 48 65 66 49
f 48 50 67 65
f 50 51 68 67
f 52 53 70 69
f 55 54 71 72
f 53 55 72 70
f 49 66 73 56
f 54 57 74 71
f 57 59 76 74
f 58 75 77 60
f 61 78 79 62
f 62 79 80 63
f 65 82 83 66
f 65 67 84 82
f 68 69 86 85
f 69 70 87 86
f 72 71 88 89
f 70 72 89 87
f 71 74 91 88
f 73 90 92 75
f 75 92 94 77
f 78 95 96 79
f 76 81 98 93
f 80 97 98 81
f 100 103 104 101
f 84 85 103 100
f 103 105 106 104
f 85 86 105 103
f 105 107 108 106
f 86 87 107 105
f 107 109 110 108
f 89 88 110 109
f 87 89 109 107
f 102 101 111 112
f 83 102 112 90
f 101 104 113 111
f 104 106 114 113
f 106 108 115 114
f 112 111 117 118
f 90 112 118 92
f 111 113 119 117
f 113 114 120 119
f 115 116 122 121
f 91 93 122 116
f 118 117 123 124
f 92 118 124 94
f 117 119 125 123
f 120 121 127 126
f 96 126 127 97
f 121 122 128 127
f 93 98 128 122
f 97 127 128 98
f 129 130 131 132
f 129 133 134 130
f 129 132 135 133
f 132 131 136 37
f 132 37 39 135
f 38 137 138 40
f 40 138 139 42
f 130 140 141 131
f 130 134 142 140
f 131 141 143 136
f 137 144 145 138
f 138 145 146 139
f 140 147 148 141
f 140 142 149 147
f 141 148 150 143
f 144 151 152 145
f 145 152 153 146
f 147 154 155 148
f 147 149 156 154
f 154 156 157 155
f 148 155 158 150
f 155 157 159 158
f 151 160 162 152
f 152 162 163 153
f 160 161 163 162
f 133 164 165 134
f 133 135 166 164
f 42 139 167 61
f 134 165 168 142
f 139 146 169 167
f 142 168 170 149
f 146 153 171 169
f 149 170 172 156
f 156 172 173 157
f 159 174 175 161
f 153 163 176 171
f 161 175 176 163
f 166 60 77 179
f 61 167 180 78
f 167 169 182 180
f 169 171 184 182
f 173 186 187 174
f 174 187 188 175
f 171 176 189 184
f 175 188 189 176
f 177 190 191 178
f 177 179 192 190
f 179 77 94 192
f 178 191 194 181
f 181 194 196 183
f 183 196 198 185
f 185 198 199 186
f 186 199 200 187
f 187 200 201 188
f 203 204 205 206
f 190 203 206 191
f 190 192 204 203
f 204 124 207 205
f 192 94 124 204
f 123 125 209 208
f 95 193 209 125
f 206 205 210 211
f 191 206 211 194
f 205 207 212 210
f 208 209 214 213
f 193 195 214 209
f 211 210 215 216
f 194 211 216 196
f 210 212 217 215
f 213 214 219 218
f 195 197 219 214
f 216 215 220 221
f 196 216 221 198
f 198 221 220 199
f 215 217 222 220
f 199 220 222 200
f 218 219 224 223
f 197 202 224 219
f 201 223 224 202
