# generado por tools/vox_to_obj.py desde arbusto.vox
mtllib arbusto.mtl
v -0.7500 0.6000 0.0500
v -0.7500 0.7000 0.0500
v -0.7500 0.7000 -0.0500
v -0.7500 0.6000 -0.0500
v -0.6500 0.7000 -0.0500
v -0.6500 0.6000 -0.0500
v -0.6500 0.6000 0.0500
v -0.6500 0.7000 0.0500
v -0.6500 0.4000 0.3500
v -0.6500 0.5000 0.3500
v -0.6500 0.5000 0.2500
v -0.6500 0.4000 0.2500
v -0.5500 0.4000 0.3500
v -0.5500 0.5000 0.3500
v -0.5500 0.4000 0.2500
v -0.6500 0.6000 0.3500
v -0.6500 0.6000 0.2500
v -0.5500 0.6000 0.3500
v -0.6500 0.7000 0.3500
v -0.6500 0.7000 0.2500
v -0.5500 0.7000 0.3500
v -0.6500 0.8000 0.3500
v -0.6500 0.8000 0.2500
v -0.5500 0.8000 0.3500
v -0.6500 0.9000 0.3500
v -0.6500 0.9000 0.2500
v -0.5500 0.9000 0.3500
v -0.5500 0.9000 0.2500
v -0.6500 0.3000 0.2500
v -0.6500 0.4000 0.1500
v -0.6500 0.3000 0.1500
v -0.5500 0.3000 0.2500
v -0.5500 0.3000 0.1500
v -0.6500 0.5000 0.1500
v -0.6500 0.6000 0.1500
v -0.6500 0.7000 0.1500
v -0.6500 0.8000 0.1500
v -0.6500 0.9000 0.1500
v -0.6500 1.0000 0.2500
v -0.6500 1.0000 0.1500
v -0.5500 1.0000 0.2500
v -0.5500 1.0000 0.1500
v -0.6500 0.4000 0.0500
v -0.6500 0.3000 0.0500
v -0.5500 0.3000 0.0500
v -0.6500 0.5000 0.0500
v -0.6500 0.8000 0.0500
v -0.6500 0.9000 0.0500
v -0.6500 1.0000 0.0500
v -0.5500 1.0000 0.0500
v -0.6500 0.4000 -0.0500
v -0.6500 0.3000 -0.0500
v -0.5500 0.3000 -0.0500
v -0.6500 0.5000 -0.0500
v -0.6500 0.8000 -0.0500
v -0.6500 0.9000 -0.0500
v -0.6500 1.0000 -0.0500
v -0.5500 1.0000 -0.0500
v -0.6500 0.4000 -0.1500
v -0.6500 0.3000 -0.1500
v -0.5500 0.3000 -0.1500
v -0.6500 0.5000 -0.1500
v -0.6500 0.6000 -0.1500
v -0.6500 0.7000 -0.1500
v -0.6500 0.8000 -0.1500
v -0.6500 0.9000 -0.1500
v -0.6500 1.0000 -0.1500
v -0.5500 1.0000 -0.1500
v -0.6500 0.4000 -0.2500
v -0.6500 0.3000 -0.2500
v -0.5500 0.4000 -0.2500
v -0.5500 0.3000 -0.2500
v -0.6500 0.5000 -0.2500
v -0.6500 0.6000 -0.2500
v -0.6500 0.7000 -0.2500
v -0.6500 0.8000 -0.2500
v -0.6500 0.9000 -0.2500
v -0.6500 1.0000 -0.2500
v -0.5500 1.0000 -0.2500
v -0.5500 0.9000 -0.2500
v -0.6500 0.5000 -0.3500
v -0.6500 0.4000 -0.3500
v -0.5500 0.5000 -0.3500
v -0.5500 0.4000 -0.3500
v -0.6500 0.6000 -0.3500
v -0.5500 0.6000 -0.3500
v -0.6500 0.7000 -0.3500
v -0.5500 0.7000 -0.3500
v -0.6500 0.8000 -0.3500
v -0.5500 0.8000 -0.3500
v -0.6500 0.9000 -0.3500
v -0.5500 0.9000 -0.3500
v -0.5500 0.4000 0.4500
v -0.5500 0.5000 0.4500
v -0.4500 0.4000 0.4500
v -0.4500 0.5000 0.4500
v -0.4500 0.4000 0.3500
v -0.5500 0.6000 0.4500
v -0.4500 0.6000 0.4500
v -0.5500 0.7000 0.4500
v -0.4500 0.7000 0.4500
v -0.5500 0.8000 0.4500
v -0.4500 0.8000 0.4500
v -0.5500 0.9000 0.4500
v -0.4500 0.9000 0.4500
v -0.4500 0.9000 0.3500
v -0.5500 0.3000 0.3500
v -0.4500 0.3000 0.3500
v -0.4500 0.3000 0.2500
v -0.5500 1.0000 0.3500
v -0.4500 1.0000 0.3500
v -0.4500 1.0000 0.2500
v -0.5500 0.2000 0.2500
v -0.5500 0.2000 0.1500
v -0.4500 0.2000 0.2500
v -0.4500 0.2000 0.1500
v -0.5500 1.1000 0.2500
v -0.5500 1.1000 0.1500
v -0.4500 1.1000 0.2500
v -0.4500 1.1000 0.1500
v -0.5500 0.2000 0.0500
v -0.4500 0.2000 0.0500
v -0.5500 1.1000 0.0500
v -0.4500 1.1000 0.0500
v -0.5500 0.2000 -0.0500
v -0.4500 0.2000 -0.0500
v -0.5500 1.1000 -0.0500
v -0.4500 1.1000 -0.0500
v -0.5500 0.2000 -0.1500
v -0.5500 1.1000 -0.1500
v -0.4500 1.1000 -0.1500
v -0.5500 0.2000 -0.2500
v -0.4500 0.2000 -0.2500
v -0.4500 0.2000 -0.1500
v -0.5500 1.1000 -0.2500
v -0.4500 1.1000 -0.2500
v -0.4500 1.0000 -0.2500
v -0.5500 0.3000 -0.3500
v -0.4500 0.4000 -0.3500
v -0.4500 0.3000 -0.3500
v -0.5500 1.0000 -0.3500
v -0.4500 1.0000 -0.3500
v -0.4500 0.9000 -0.3500
v -0.5500 0.5000 -0.4500
v -0.5500 0.4000 -0.4500
v -0.4500 0.5000 -0.4500
v -0.4500 0.4000 -0.4500
v -0.5500 0.6000 -0.4500
v -0.4500 0.6000 -0.4500
v -0.5500 0.7000 -0.4500
v -0.4500 0.7000 -0.4500
v -0.5500 0.8000 -0.4500
v -0.4500 0.8000 -0.4500
v -0.5500 0.9000 -0.4500
v -0.4500 0.9000 -0.4500
v -0.4500 0.4000 0.5500
v -0.4500 0.5000 0.5500
v -0.3500 0.4000 0.5500
v -0.3500 0.5000 0.5500
v -0.3500 0.4000 0.4500
v -0.4500 0.6000 0.5500
v -0.3500 0.6000 0.5500
v -0.4500 0.7000 0.5500
v -0.3500 0.7000 0.5500
v -0.4500 0.8000 0.5500
v -0.3500 0.8000 0.5500
v -0.4500 0.9000 0.5500
v -0.3500 0.9000 0.5500
v -0.3500 0.9000 0.4500
v -0.4500 0.2000 0.4500
v -0.4500 0.3000 0.4500
v -0.4500 0.2000 0.3500
v -0.3500 0.2000 0.4500
v -0.3500 0.3000 0.4500
v -0.3500 0.2000 0.3500
v -0.4500 1.0000 0.4500
v -0.3500 1.0000 0.4500
v -0.4500 1.1000 0.4500
v -0.4500 1.1000 0.3500
v -0.3500 1.1000 0.4500
v -0.3500 1.1000 0.3500
v -0.3500 0.2000 0.2500
v -0.3500 1.1000 0.2500
v -0.4500 0.1000 0.2500
v -0.4500 0.1000 0.1500
v -0.3500 0.1000 0.2500
v -0.3500 0.1000 0.1500
v -0.4500 1.2000 0.2500
v -0.4500 1.2000 0.1500
v -0.3500 1.2000 0.2500
v -0.3500 1.2000 0.1500
v -0.4500 0.1000 0.0500
v -0.3500 0.1000 0.0500
v -0.4500 1.2000 0.0500
v -0.3500 1.2000 0.0500
v -0.4500 0.1000 -0.0500
v -0.3500 0.1000 -0.0500
v -0.4500 1.2000 -0.0500
v -0.3500 1.2000 -0.0500
v -0.4500 1.2000 -0.1500
v -0.3500 1.2000 -0.1500
v -0.4500 0.1000 -0.1500
v -0.4500 0.1000 -0.2500
v -0.3500 0.1000 -0.2500
v -0.3500 0.1000 -0.1500
v -0.4500 1.2000 -0.2500
v -0.3500 1.2000 -0.2500
v -0.3500 1.1000 -0.2500
v -0.4500 1.1000 -0.3500
v -0.3500 1.1000 -0.3500
v -0.4500 0.2000 -0.3500
v -0.4500 0.3000 -0.4500
v -0.4500 0.2000 -0.4500
v -0.3500 0.3000 -0.4500
v -0.3500 0.2000 -0.4500
v -0.3500 0.2000 -0.3500
v -0.3500 0.4000 -0.4500
v -0.4500 1.0000 -0.4500
v -0.3500 1.0000 -0.4500
v -0.3500 0.9000 -0.4500
v -0.4500 1.1000 -0.4500
v -0.3500 1.1000 -0.4500
v -0.4500 0.5000 -0.5500
v -0.4500 0.4000 -0.5500
v -0.3500 0.5000 -0.5500
v -0.3500 0.4000 -0.5500
v -0.4500 0.6000 -0.5500
v -0.3500 0.6000 -0.5500
v -0.4500 0.7000 -0.5500
v -0.3500 0.7000 -0.5500
v -0.4500 0.8000 -0.5500
v -0.3500 0.8000 -0.5500
v -0.4500 0.9000 -0.5500
v -0.3500 0.9000 -0.5500
v -0.3500 0.4000 0.6500
v -0.3500 0.5000 0.6500
v -0.2500 0.4000 0.6500
v -0.2500 0.5000 0.6500
v -0.2500 0.4000 0.5500
v -0.3500 0.6000 0.6500
v -0.2500 0.6000 0.6500
v -0.3500 0.7000 0.6500
v -0.2500 0.7000 0.6500
v -0.3500 0.8000 0.6500
v -0.2500 0.8000 0.6500
v -0.3500 0.9000 0.6500
v -0.2500 0.9000 0.6500
v -0.2500 0.9000 0.5500
v -0.3500 0.3000 0.5500
v -0.2500 0.3000 0.5500
v -0.2500 0.3000 0.4500
v -0.3500 1.0000 0.5500
v -0.2500 1.0000 0.5500
v -0.2500 1.0000 0.4500
v -0.2500 0.2000 0.4500
v -0.2500 0.2000 0.3500
v -0.2500 1.1000 0.4500
v -0.2500 1.1000 0.3500
v -0.3500 0.1000 0.3500
v -0.2500 0.1000 0.3500
v -0.2500 0.1000 0.2500
v -0.3500 1.2000 0.3500
v -0.2500 1.2000 0.3500
v -0.3500 0.0000 0.2500
v -0.3500 0.0000 0.1500
v -0.2500 0.0000 0.2500
v -0.2500 0.0000 0.1500
v -0.3500 1.3000 0.2500
v -0.3500 1.3000 0.1500
v -0.2500 1.3000 0.2500
v -0.2500 1.3000 0.1500
v -0.3500 0.0000 0.0500
v -0.2500 0.0000 0.0500
v -0.3500 1.3000 0.0500
v -0.3500 0.0000 -0.0500
v -0.2500 0.0000 -0.0500
v -0.3500 1.3000 -0.0500
v -0.2500 1.3000 0.0500
v -0.2500 1.3000 -0.0500
v -0.3500 0.0000 -0.1500
v -0.2500 0.0000 -0.1500
v -0.3500 1.3000 -0.1500
v -0.2500 1.3000 -0.1500
v -0.3500 0.0000 -0.2500
v -0.2500 0.0000 -0.2500
v -0.3500 1.3000 -0.2500
v -0.2500 1.3000 -0.2500
v -0.2500 1.2000 -0.2500
v -0.3500 1.2000 -0.3500
v -0.2500 1.2000 -0.3500
v -0.2500 1.1000 -0.3500
v -0.2500 1.1000 -0.4500
v -0.2500 1.0000 -0.4500
v -0.3500 0.3000 -0.5500
v -0.2500 0.4000 -0.5500
v -0.2500 0.3000 -0.5500
v -0.3500 1.0000 -0.5500
v -0.2500 1.0000 -0.5500
v -0.2500 0.9000 -0.5500
v -0.3500 0.5000 -0.6500
v -0.3500 0.4000 -0.6500
v -0.2500 0.5000 -0.6500
v -0.2500 0.4000 -0.6500
v -0.3500 0.6000 -0.6500
v -0.2500 0.6000 -0.6500
v -0.3500 0.7000 -0.6500
v -0.2500 0.7000 -0.6500
v -0.3500 0.8000 -0.6500
v -0.2500 0.8000 -0.6500
v -0.3500 0.9000 -0.6500
v -0.2500 0.9000 -0.6500
v -0.2500 0.3000 0.6500
v -0.1500 0.3000 0.6500
v -0.1500 0.4000 0.6500
v -0.1500 0.3000 0.5500
v -0.1500 0.5000 0.6500
v -0.1500 0.6000 0.6500
v -0.1500 0.7000 0.6500
v -0.1500 0.8000 0.6500
v -0.1500 0.9000 0.6500
v -0.2500 1.0000 0.6500
v -0.1500 1.0000 0.6500
v -0.1500 1.0000 0.5500
v -0.2500 0.2000 0.5500
v -0.1500 0.2000 0.5500
v -0.1500 0.2000 0.4500
v -0.2500 1.1000 0.5500
v -0.1500 1.1000 0.5500
v -0.1500 1.1000 0.4500
v -0.2500 0.1000 0.4500
v -0.1500 0.1000 0.4500
v -0.1500 0.1000 0.3500
v -0.2500 1.2000 0.4500
v -0.1500 1.2000 0.4500
v -0.2500 0.0000 0.3500
v -0.1500 0.0000 0.3500
v -0.1500 0.0000 0.2500
v -0.1500 0.0000 0.1500
v -0.1500 0.0000 0.0500
v -0.1500 0.0000 -0.0500
v -0.1500 0.0000 -0.1500
v -0.1500 0.0000 -0.2500
v -0.1500 1.3000 -0.1500
v -0.1500 1.3000 -0.2500
v -0.2500 0.0000 -0.3500
v -0.2500 0.1000 -0.3500
v -0.1500 0.1000 -0.3500
v -0.1500 0.0000 -0.3500
v -0.2500 1.3000 -0.3500
v -0.1500 1.3000 -0.3500
v -0.1500 1.2000 -0.3500
v -0.2500 0.1000 -0.4500
v -0.2500 0.2000 -0.4500
v -0.1500 0.2000 -0.4500
v -0.1500 0.1000 -0.4500
v -0.2500 1.2000 -0.4500
v -0.1500 1.2000 -0.4500
v -0.1500 1.1000 -0.4500
v -0.2500 0.2000 -0.5500
v -0.1500 0.3000 -0.5500
v -0.1500 0.2000 -0.5500
v -0.2500 1.1000 -0.5500
v -0.1500 1.1000 -0.5500
v -0.1500 1.0000 -0.5500
v -0.2500 0.3000 -0.6500
v -0.1500 0.4000 -0.6500
v -0.1500 0.3000 -0.6500
v -0.1500 0.5000 -0.6500
v -0.1500 0.6000 -0.6500
v -0.1500 0.7000 -0.6500
v -0.1500 0.8000 -0.6500
v -0.1500 0.9000 -0.6500
v -0.2500 1.0000 -0.6500
v -0.1500 1.0000 -0.6500
v -0.0500 0.3000 0.6500
v -0.0500 0.4000 0.6500
v -0.0500 0.3000 0.5500
v -0.0500 0.5000 0.6500
v -0.0500 0.6000 0.6500
v -0.0500 0.7000 0.6500
v -0.0500 0.8000 0.6500
v -0.0500 0.9000 0.6500
v -0.0500 1.0000 0.6500
v -0.0500 1.0000 0.5500
v -0.0500 0.2000 0.5500
v -0.0500 0.2000 0.4500
v -0.0500 1.1000 0.5500
v -0.0500 0.1000 0.4500
v -0.0500 0.1000 0.3500
v -0.0500 0.0000 0.3500
v -0.0500 0.0000 0.2500
v -0.0500 0.0000 0.1500
v -0.0500 0.0000 0.0500
v -0.0500 0.0000 -0.0500
v -0.0500 0.0000 -0.1500
v -0.0500 0.0000 -0.2500
v -0.0500 0.0000 -0.3500
v -0.0500 1.3000 -0.3500
v -0.0500 1.2000 -0.3500
v -0.0500 1.3000 -0.2500
v -0.0500 1.2000 -0.4500
v -0.0500 1.1000 -0.4500
v -0.0500 0.3000 -0.5500
v -0.0500 0.2000 -0.5500
v -0.0500 1.1000 -0.5500
v -0.0500 1.0000 -0.5500
v -0.0500 0.4000 -0.6500
v -0.0500 0.3000 -0.6500
v -0.0500 0.5000 -0.6500
v -0.0500 0.6000 -0.6500
v -0.0500 0.7000 -0.6500
v -0.0500 0.8000 -0.6500
v -0.0500 0.9000 -0.6500
v -0.0500 1.0000 -0.6500
v 0.0500 0.6000 0.7500
v 0.0500 0.6000 0.6500
v 0.0500 0.7000 0.6500
v 0.0500 0.7000 0.7500
v -0.0500 0.6000 0.7500
v -0.0500 0.7000 0.7500
v 0.0500 0.3000 0.6500
v 0.0500 0.4000 0.6500
v 0.0500 0.3000 0.5500
v 0.0500 0.5000 0.6500
v 0.0500 0.8000 0.6500
v 0.0500 0.9000 0.6500
v 0.0500 1.0000 0.6500
v 0.0500 1.0000 0.5500
v 0.0500 0.2000 0.5500
v 0.0500 0.2000 0.4500
v 0.0500 1.1000 0.5500
v 0.0500 0.1000 0.4500
v 0.0500 0.1000 0.3500
v 0.0500 0.0000 0.3500
v 0.0500 0.0000 0.2500
v 0.0500 0.0000 0.1500
v 0.0500 0.0000 0.0500
v 0.0500 0.0000 -0.0500
v 0.0500 0.0000 -0.1500
v 0.0500 0.0000 -0.2500
v -0.0500 0.1000 -0.3500
v 0.0500 0.1000 -0.3500
v 0.0500 0.0000 -0.3500
v 0.0500 1.3000 -0.3500
v 0.0500 1.2000 -0.3500
v 0.0500 1.3000 -0.2500
v -0.0500 0.1000 -0.4500
v -0.0500 0.2000 -0.4500
v 0.0500 0.2000 -0.4500
v 0.0500 0.1000 -0.4500
v 0.0500 1.2000 -0.4500
v 0.0500 1.1000 -0.4500
v 0.0500 0.3000 -0.5500
v 0.0500 0.2000 -0.5500
v 0.0500 1.1000 -0.5500
v 0.0500 1.0000 -0.5500
v 0.0500 0.4000 -0.6500
v 0.0500 0.3000 -0.6500
v 0.0500 0.5000 -0.6500
v 0.0500 0.6000 -0.6500
v 0.0500 0.8000 -0.6500
v 0.0500 0.7000 -0.6500
v 0.0500 0.9000 -0.6500
v 0.0500 1.0000 -0.6500
v 0.0500 0.6000 -0.7500
v 0.0500 0.7000 -0.7500
v -0.0500 0.7000 -0.7500
v -0.0500 0.6000 -0.7500
v 0.1500 0.3000 0.6500
v 0.1500 0.4000 0.6500
v 0.1500 0.3000 0.5500
v 0.1500 0.5000 0.6500
v 0.1500 0.6000 0.6500
v 0.1500 0.7000 0.6500
v 0.1500 0.8000 0.6500
v 0.1500 0.9000 0.6500
v 0.1500 1.0000 0.6500
v 0.1500 0.2000 0.5500
v 0.1500 0.2000 0.4500
v 0.1500 0.1000 0.4500
v 0.1500 0.1000 0.3500
v 0.1500 0.0000 0.3500
v 0.1500 0.0000 0.2500
v 0.1500 0.0000 0.1500
v 0.1500 0.0000 0.0500
v 0.1500 0.0000 -0.0500
v 0.1500 0.0000 -0.1500
v 0.1500 0.0000 -0.2500
v 0.1500 0.1000 -0.3500
v 0.1500 0.0000 -0.3500
v 0.1500 1.3000 -0.3500
v 0.1500 1.2000 -0.3500
v 0.1500 0.2000 -0.4500
v 0.1500 0.1000 -0.4500
v 0.1500 1.2000 -0.4500
v 0.1500 1.1000 -0.4500
v 0.1500 0.3000 -0.5500
v 0.1500 0.2000 -0.5500
v 0.1500 1.1000 -0.5500
v 0.1500 1.0000 -0.5500
v 0.1500 0.4000 -0.6500
v 0.1500 0.3000 -0.6500
v 0.1500 0.5000 -0.6500
v 0.1500 0.6000 -0.6500
v 0.1500 0.7000 -0.6500
v 0.1500 0.8000 -0.6500
v 0.1500 0.9000 -0.6500
v 0.1500 1.0000 -0.6500
v 0.2500 0.3000 0.6500
v 0.2500 0.3000 0.5500
v 0.2500 0.4000 0.5500
v 0.2500 0.4000 0.6500
v 0.2500 0.5000 0.6500
v 0.2500 0.6000 0.6500
v 0.2500 0.7000 0.6500
v 0.2500 0.8000 0.6500
v 0.2500 0.9000 0.6500
v 0.2500 0.9000 0.5500
v 0.2500 1.0000 0.5500
v 0.2500 1.0000 0.6500
v 0.1500 1.0000 0.5500
v 0.2500 0.2000 0.5500
v 0.2500 0.2000 0.4500
v 0.2500 0.3000 0.4500
v 0.2500 1.1000 0.5500
v 0.1500 1.1000 0.5500
v 0.2500 0.1000 0.4500
v 0.2500 0.1000 0.3500
v 0.2500 0.2000 0.3500
v 0.2500 0.0000 0.3500
v 0.2500 0.0000 0.2500
v 0.2500 0.1000 0.2500
v 0.2500 0.0000 0.1500
v 0.2500 0.0000 0.0500
v 0.2500 0.0000 -0.0500
v 0.2500 0.0000 -0.1500
v 0.2500 0.0000 -0.2500
v 0.2500 0.0000 -0.3500
v 0.2500 0.1000 -0.3500
v 0.2500 0.1000 -0.2500
v 0.2500 1.3000 -0.3500
v 0.2500 1.2000 -0.3500
v 0.1500 1.3000 -0.2500
v 0.2500 1.3000 -0.2500
v 0.2500 0.1000 -0.4500
v 0.2500 0.2000 -0.4500
v 0.2500 0.2000 -0.3500
v 0.2500 1.1000 -0.3500
v 0.2500 1.1000 -0.4500
v 0.2500 1.2000 -0.4500
v 0.2500 0.2000 -0.5500
v 0.2500 0.3000 -0.5500
v 0.2500 0.3000 -0.4500
v 0.2500 1.0000 -0.4500
v 0.2500 1.0000 -0.5500
v 0.2500 1.1000 -0.5500
v 0.2500 0.3000 -0.6500
v 0.2500 0.4000 -0.6500
v 0.2500 0.4000 -0.5500
v 0.2500 0.5000 -0.6500
v 0.2500 0.6000 -0.6500
v 0.2500 0.7000 -0.6500
v 0.2500 0.8000 -0.6500
v 0.2500 0.9000 -0.6500
v 0.2500 0.9000 -0.5500
v 0.2500 1.0000 -0.6500
v 0.3500 0.4000 0.6500
v 0.3500 0.4000 0.5500
v 0.3500 0.5000 0.5500
v 0.3500 0.5000 0.6500
v 0.3500 0.6000 0.5500
v 0.3500 0.6000 0.6500
v 0.3500 0.7000 0.5500
v 0.3500 0.7000 0.6500
v 0.3500 0.8000 0.5500
v 0.3500 0.8000 0.6500
v 0.3500 0.9000 0.5500
v 0.3500 0.9000 0.6500
v 0.3500 0.3000 0.5500
v 0.3500 0.3000 0.4500
v 0.3500 0.4000 0.4500
v 0.3500 0.9000 0.4500
v 0.3500 1.0000 0.4500
v 0.3500 1.0000 0.5500
v 0.3500 0.2000 0.4500
v 0.3500 0.2000 0.3500
v 0.3500 0.1000 0.3500
v 0.3500 0.1000 0.2500
v 0.3500 0.2000 0.2500
v 0.3500 0.0000 0.2500
v 0.3500 0.0000 0.1500
v 0.3500 0.1000 0.1500
v 0.3500 0.0000 0.0500
v 0.3500 0.1000 0.0500
v 0.3500 0.0000 -0.0500
v 0.3500 0.1000 -0.0500
v 0.3500 0.0000 -0.1500
v 0.3500 0.1000 -0.1500
v 0.3500 0.0000 -0.2500
v 0.3500 0.1000 -0.2500
v 0.3500 0.1000 -0.3500
v 0.3500 0.2000 -0.3500
v 0.3500 0.2000 -0.2500
v 0.3500 1.1000 -0.2500
v 0.3500 1.1000 -0.3500
v 0.3500 1.2000 -0.3500
v 0.3500 1.2000 -0.2500
v 0.3500 0.3000 -0.4500
v 0.3500 0.2000 -0.4500
v 0.3500 1.1000 -0.4500
v 0.3500 1.0000 -0.4500
v 0.3500 0.3000 -0.5500
v 0.3500 0.4000 -0.5500
v 0.3500 0.4000 -0.4500
v 0.3500 0.9000 -0.4500
v 0.3500 0.9000 -0.5500
v 0.3500 1.0000 -0.5500
v 0.3500 0.4000 -0.6500
v 0.3500 0.5000 -0.6500
v 0.3500 0.5000 -0.5500
v 0.3500 0.6000 -0.6500
v 0.3500 0.6000 -0.5500
v 0.3500 0.7000 -0.6500
v 0.3500 0.7000 -0.5500
v 0.3500 0.8000 -0.6500
v 0.3500 0.8000 -0.5500
v 0.3500 0.9000 -0.6500
v 0.4500 0.4000 0.5500
v 0.4500 0.4000 0.4500
v 0.4500 0.5000 0.4500
v 0.4500 0.5000 0.5500
v 0.4500 0.6000 0.4500
v 0.4500 0.6000 0.5500
v 0.4500 0.7000 0.4500
v 0.4500 0.7000 0.5500
v 0.4500 0.8000 0.4500
v 0.4500 0.8000 0.5500
v 0.4500 0.9000 0.4500
v 0.4500 0.9000 0.5500
v 0.4500 0.2000 0.4500
v 0.4500 0.2000 0.3500
v 0.4500 0.3000 0.3500
v 0.4500 0.3000 0.4500
v 0.4500 0.4000 0.3500
v 0.4500 0.9000 0.3500
v 0.4500 1.0000 0.3500
v 0.4500 1.0000 0.4500
v 0.4500 0.2000 0.2500
v 0.4500 0.3000 0.2500
v 0.4500 0.1000 0.2500
v 0.4500 0.1000 0.1500
v 0.4500 0.2000 0.1500
v 0.4500 0.1000 0.0500
v 0.4500 0.2000 0.0500
v 0.4500 0.1000 -0.0500
v 0.4500 0.2000 -0.0500
v 0.4500 0.1000 -0.1500
v 0.4500 0.2000 -0.1500
v 0.4500 0.1000 -0.2500
v 0.4500 0.2000 -0.2500
v 0.4500 1.1000 -0.1500
v 0.4500 1.1000 -0.2500
v 0.4500 1.2000 -0.2500
v 0.4500 1.2000 -0.1500
v 0.4500 0.2000 -0.3500
v 0.4500 0.3000 -0.3500
v 0.4500 0.3000 -0.2500
v 0.4500 1.0000 -0.2500
v 0.4500 1.0000 -0.3500
v 0.4500 1.1000 -0.3500
v 0.4500 0.2000 -0.4500
v 0.4500 0.3000 -0.4500
v 0.4500 0.4000 -0.4500
v 0.4500 0.4000 -0.3500
v 0.4500 0.9000 -0.3500
v 0.4500 0.9000 -0.4500
v 0.4500 1.0000 -0.4500
v 0.4500 1.1000 -0.4500
v 0.4500 0.4000 -0.5500
v 0.4500 0.5000 -0.5500
v 0.4500 0.5000 -0.4500
v 0.4500 0.6000 -0.5500
v 0.4500 0.6000 -0.4500
v 0.4500 0.7000 -0.5500
v 0.4500 0.7000 -0.4500
v 0.4500 0.8000 -0.5500
v 0.4500 0.8000 -0.4500
v 0.4500 0.9000 -0.5500
v 0.5500 0.4000 0.4500
v 0.5500 0.4000 0.3500
v 0.5500 0.5000 0.3500
v 0.5500 0.5000 0.4500
v 0.5500 0.6000 0.3500
v 0.5500 0.6000 0.4500
v 0.5500 0.7000 0.3500
v 0.5500 0.7000 0.4500
v 0.5500 0.8000 0.3500
v 0.5500 0.8000 0.4500
v 0.5500 0.9000 0.3500
v 0.5500 0.9000 0.4500
v 0.5500 0.3000 0.3500
v 0.5500 0.3000 0.2500
v 0.5500 0.4000 0.2500
v 0.5500 0.9000 0.2500
v 0.5500 1.0000 0.2500
v 0.5500 1.0000 0.3500
v 0.5500 0.2000 0.2500
v 0.5500 0.2000 0.1500
v 0.5500 0.3000 0.1500
v 0.5500 1.0000 0.1500
v 0.5500 1.1000 0.1500
v 0.5500 1.1000 0.2500
v 0.5500 0.2000 0.0500
v 0.5500 0.3000 0.0500
v 0.5500 0.2000 -0.0500
v 0.5500 0.3000 -0.0500
v 0.5500 1.0000 0.0500
v 0.5500 1.0000 -0.0500
v 0.5500 1.1000 -0.0500
v 0.5500 1.1000 0.0500
v 0.5500 0.2000 -0.1500
v 0.5500 0.3000 -0.1500
v 0.5500 1.0000 -0.1500
v 0.5500 1.1000 -0.1500
v 0.5500 0.2000 -0.2500
v 0.5500 0.3000 -0.2500
v 0.5500 1.0000 -0.2500
v 0.5500 1.1000 -0.2500
v 0.5500 0.3000 -0.3500
v 0.5500 0.4000 -0.3500
v 0.5500 0.4000 -0.2500
v 0.5500 0.9000 -0.2500
v 0.5500 0.9000 -0.3500
v 0.5500 1.0000 -0.3500
v 0.5500 0.4000 -0.4500
v 0.5500 0.5000 -0.4500
v 0.5500 0.5000 -0.3500
v 0.5500 0.6000 -0.4500
v 0.5500 0.6000 -0.3500
v 0.5500 0.7000 -0.4500
v 0.5500 0.7000 -0.3500
v 0.5500 0.8000 -0.4500
v 0.5500 0.8000 -0.3500
v 0.5500 0.9000 -0.4500
v 0.6500 0.4000 0.3500
v 0.6500 0.4000 0.2500
v 0.6500 0.5000 0.2500
v 0.6500 0.5000 0.3500
v 0.6500 0.6000 0.2500
v 0.6500 0.6000 0.3500
v 0.6500 0.7000 0.2500
v 0.6500 0.7000 0.3500
v 0.6500 0.8000 0.2500
v 0.6500 0.8000 0.3500
v 0.6500 0.9000 0.2500
v 0.6500 0.9000 0.3500
v 0.6500 0.3000 0.2500
v 0.6500 0.3000 0.1500
v 0.6500 0.4000 0.1500
v 0.6500 0.5000 0.1500
v 0.6500 0.6000 0.1500
v 0.6500 0.7000 0.1500
v 0.6500 0.8000 0.1500
v 0.6500 0.9000 0.1500
v 0.6500 1.0000 0.1500
v 0.6500 1.0000 0.2500
v 0.6500 0.3000 0.0500
v 0.6500 0.4000 0.0500
v 0.6500 0.5000 0.0500
v 0.6500 0.6000 0.0500
v 0.6500 0.7000 0.0500
v 0.6500 0.8000 0.0500
v 0.6500 0.9000 0.0500
v 0.6500 1.0000 0.0500
v 0.6500 0.3000 -0.0500
v 0.6500 0.4000 -0.0500
v 0.6500 0.5000 -0.0500
v 0.6500 0.6000 -0.0500
v 0.6500 0.7000 -0.0500
v 0.6500 0.8000 -0.0500
v 0.6500 0.9000 -0.0500
v 0.6500 1.0000 -0.0500
v 0.6500 0.3000 -0.1500
v 0.6500 0.4000 -0.1500
v 0.6500 0.5000 -0.1500
v 0.6500 0.6000 -0.1500
v 0.6500 0.7000 -0.1500
v 0.6500 0.8000 -0.1500
v 0.6500 0.9000 -0.1500
v 0.6500 1.0000 -0.1500
v 0.6500 0.3000 -0.2500
v 0.6500 0.4000 -0.2500
v 0.6500 0.5000 -0.2500
v 0.6500 0.6000 -0.2500
v 0.6500 0.7000 -0.2500
v 0.6500 0.8000 -0.2500
v 0.6500 0.9000 -0.2500
v 0.6500 1.0000 -0.2500
v 0.6500 0.4000 -0.3500
v 0.6500 0.5000 -0.3500
v 0.6500 0.6000 -0.3500
v 0.6500 0.7000 -0.3500
v 0.6500 0.8000 -0.3500
v 0.6500 0.9000 -0.3500
v 0.7500 0.6000 0.0500
v 0.7500 0.6000 -0.0500
v 0.7500 0.7000 -0.0500
v 0.7500 0.7000 0.0500
v -0.3500 1.3000 0.3500
v -0.2500 1.3000 0.3500
v -0.3500 1.4000 0.1500
v -0.3500 1.4000 0.0500
v -0.2500 1.4000 0.0500
v -0.2500 1.4000 0.1500
v -0.2500 1.3000 0.4500
v -0.1500 1.3000 0.4500
v -0.1500 1.3000 0.3500
v -0.2500 1.4000 0.3500
v -0.2500 1.4000 0.2500
v -0.1500 1.4000 0.3500
v -0.1500 1.4000 0.2500
v -0.1500 1.4000 0.1500
v -0.2500 1.5000 0.1500
v -0.2500 1.5000 0.0500
v -0.1500 1.5000 0.0500
v -0.1500 1.4000 0.0500
v -0.1500 1.5000 0.1500
v -0.2500 1.4000 -0.0500
v -0.1500 1.4000 -0.0500
v -0.2500 1.4000 -0.1500
v -0.1500 1.4000 -0.1500
v -0.1500 1.2000 0.5500
v -0.0500 1.2000 0.5500
v -0.1500 1.3000 0.5500
v -0.0500 1.3000 0.5500
v -0.0500 1.3000 0.4500
v -0.1500 1.4000 0.4500
v -0.0500 1.4000 0.4500
v -0.0500 1.4000 0.3500
v -0.1500 1.5000 0.3500
v -0.1500 1.5000 0.2500
v -0.0500 1.5000 0.3500
v -0.0500 1.5000 0.2500
v -0.0500 1.5000 0.1500
v -0.0500 1.5000 0.0500
v -0.1500 1.5000 -0.0500
v -0.0500 1.5000 -0.0500
v -0.1500 1.5000 -0.1500
v -0.0500 1.5000 -0.1500
v -0.0500 1.4000 -0.1500
v -0.1500 1.4000 -0.2500
v -0.0500 1.4000 -0.2500
v 0.0500 1.2000 0.5500
v 0.0500 1.3000 0.5500
v 0.0500 1.3000 0.4500
v 0.0500 1.4000 0.4500
v 0.0500 1.4000 0.3500
v 0.0500 1.5000 0.3500
v 0.0500 1.5000 0.2500
v 0.0500 1.5000 0.1500
v 0.0500 1.5000 0.0500
v 0.0500 1.5000 -0.0500
v 0.0500 1.5000 -0.1500
v 0.0500 1.4000 -0.1500
v 0.0500 1.4000 -0.2500
v 0.1500 1.1000 0.6500
v 0.0500 1.1000 0.6500
v 0.1500 1.2000 0.5500
v 0.1500 1.3000 0.5500
v 0.1500 1.3000 0.4500
v 0.1500 1.4000 0.4500
v 0.1500 1.4000 0.5500
v 0.0500 1.4000 0.5500
v 0.1500 1.4000 0.3500
v 0.1500 1.5000 0.3500
v 0.1500 1.5000 0.4500
v 0.0500 1.5000 0.4500
v 0.1500 1.5000 0.2500
v 0.1500 1.5000 0.1500
v 0.1500 1.5000 0.0500
v 0.1500 1.6000 0.0500
v 0.1500 1.6000 0.1500
v 0.0500 1.6000 0.1500
v 0.0500 1.6000 0.0500
v 0.1500 1.5000 -0.0500
v 0.1500 1.5000 -0.1500
v 0.1500 1.4000 -0.1500
v 0.1500 1.4000 -0.2500
v 0.1500 1.5000 -0.2500
v 0.0500 1.5000 -0.2500
v 0.1500 1.4000 -0.3500
v 0.0500 1.4000 -0.3500
v 0.2500 1.2000 0.5500
v 0.2500 1.3000 0.5500
v 0.2500 1.3000 0.4500
v 0.2500 1.4000 0.4500
v 0.2500 1.4000 0.3500
v 0.2500 1.5000 0.3500
v 0.2500 1.5000 0.2500
v 0.2500 1.5000 0.1500
v 0.2500 1.5000 0.0500
v 0.2500 1.5000 -0.0500
v 0.2500 1.5000 -0.1500
v 0.2500 1.4000 -0.1500
v 0.2500 1.4000 -0.2500
v 0.3500 1.1000 0.5500
v 0.3500 1.1000 0.4500
v 0.3500 1.2000 0.4500
v 0.3500 1.2000 0.5500
v 0.3500 1.3000 0.4500
v 0.3500 1.3000 0.5500
v 0.3500 1.3000 0.3500
v 0.3500 1.4000 0.3500
v 0.3500 1.4000 0.4500
v 0.3500 1.4000 0.2500
v 0.3500 1.5000 0.2500
v 0.3500 1.5000 0.3500
v 0.3500 1.4000 0.1500
v 0.3500 1.5000 0.1500
v 0.3500 1.5000 0.0500
v 0.3500 1.4000 0.0500
v 0.3500 1.4000 -0.0500
v 0.3500 1.5000 -0.0500
v 0.3500 1.4000 -0.1500
v 0.3500 1.5000 -0.1500
v 0.3500 1.3000 -0.1500
v 0.3500 1.3000 -0.2500
v 0.3500 1.4000 -0.2500
v 0.3500 1.3000 -0.3500
v 0.4500 1.0000 0.5500
v 0.4500 1.1000 0.4500
v 0.4500 1.1000 0.5500
v 0.4500 1.1000 0.3500
v 0.4500 1.2000 0.3500
v 0.4500 1.2000 0.4500
v 0.4500 1.3000 0.3500
v 0.4500 1.3000 0.4500
v 0.4500 1.3000 0.2500
v 0.4500 1.4000 0.2500
v 0.4500 1.4000 0.3500
v 0.4500 1.3000 0.1500
v 0.4500 1.4000 0.1500
v 0.4500 1.4000 0.0500
v 0.4500 1.5000 0.0500
v 0.4500 1.5000 0.1500
v 0.4500 1.3000 0.0500
v 0.4500 1.3000 -0.0500
v 0.4500 1.4000 -0.0500
v 0.4500 1.3000 -0.1500
v 0.4500 1.4000 -0.1500
v 0.4500 1.3000 -0.2500
v 0.5500 1.0000 0.4500
v 0.5500 1.1000 0.3500
v 0.5500 1.1000 0.4500
v 0.5500 1.2000 0.2500
v 0.5500 1.2000 0.3500
v 0.5500 1.3000 0.2500
v 0.5500 1.3000 0.3500
v 0.5500 1.2000 0.1500
v 0.5500 1.3000 0.1500
v 0.5500 1.2000 0.0500
v 0.5500 1.3000 0.0500
v 0.5500 1.4000 0.0500
v 0.5500 1.4000 0.1500
v 0.5500 1.2000 -0.0500
v 0.5500 1.3000 -0.0500
v 0.5500 1.2000 -0.1500
v 0.5500 1.3000 -0.1500
v 0.6500 1.1000 0.0500
v 0.6500 1.1000 0.1500
v -0.5500 0.1000 -0.0500
v -0.5500 0.1000 -0.1500
v -0.5500 0.2000 -0.3500
v -0.4500 0.0000 -0.0500
v -0.4500 0.0000 -0.1500
v -0.4500 0.1000 -0.3500
v -0.3500 0.1000 -0.3500
v -0.3500 0.0000 -0.3500
v -0.3500 0.1000 -0.4500
v -0.3500 0.2000 -0.5500
v -0.0500 0.0000 -0.4500
v -0.1500 0.0000 -0.4500
v -0.0500 0.1000 -0.5500
v -0.1500 0.1000 -0.5500
usemtl c10
f 177 254 257 180
f 180 257 258 181
f 181 262 190 183
f 181 258 263 262
f 190 268 269 191
f 268 270 271 269
f 191 269 274 195
f 195 274 277 199
f 274 278 279 277
f 199 277 282 201
f 277 279 283 282
f 253 327 257 254
f 253 323 328 327
f 327 328 329 257
f 257 333 263 258
f 257 329 334 333
f 283 343 344 287
f 323 384 387 328
f 351 350 398 399
f 344 400 398 350
f 384 428 431 387
f 399 398 444 445
f 400 446 444 398
f 445 444 491 492
f 521 519 525 526
f 492 491 541 542
f 543 544 541 491
f 577 582 583 584
f 518 577 584 519
f 604 605 606 607
f 548 542 606 605
f 638 645 646 647
f 582 638 647 583
f 661 662 663 664
f 604 607 663 662
f 668 669 670 662
f 604 662 670 605
f 699 704 705 706
f 645 699 706 646
f 705 710 711 712
f 717 718 719 720
f 718 723 724 719
f 723 727 728 724
f 668 662 728 727
f 661 724 728 662
f 262 809 268 190
f 262 263 810 809
f 809 810 270 268
f 269 811 812 274
f 274 812 813 278
f 269 271 814 811
f 811 814 813 812
f 333 815 810 263
f 333 334 816 815
f 815 816 817 810
f 810 818 819 270
f 810 817 820 818
f 818 820 821 819
f 270 819 814 271
f 819 821 822 814
f 814 823 824 813
f 813 824 825 826
f 814 822 827 823
f 823 827 825 824
f 278 813 828 279
f 813 826 829 828
f 279 828 830 283
f 283 830 831 343
f 828 829 831 830
f 328 832 334 329
f 328 387 833 832
f 832 834 816 334
f 832 833 835 834
f 834 835 836 816
f 816 837 820 817
f 816 836 838 837
f 837 838 839 820
f 820 840 841 821
f 820 839 842 840
f 840 842 843 841
f 821 841 827 822
f 841 843 844 827
f 827 844 845 825
f 826 825 846 829
f 825 845 847 846
f 829 846 848 831
f 831 848 849 850
f 846 847 849 848
f 343 831 851 344
f 344 851 852 400
f 831 850 852 851
f 387 431 853 833
f 833 853 854 835
f 835 854 855 836
f 836 855 856 838
f 838 856 857 839
f 839 857 858 842
f 842 858 859 843
f 843 859 860 844
f 844 860 861 845
f 845 861 862 847
f 850 849 863 864
f 847 862 863 849
f 400 852 865 446
f 850 864 865 852
f 477 521 526 866
f 427 867 431 428
f 427 477 866 867
f 867 866 526 431
f 431 526 868 853
f 853 868 869 854
f 869 870 871 872
f 854 873 856 855
f 854 869 872 873
f 873 872 871 856
f 871 874 875 876
f 856 877 858 857
f 856 871 876 877
f 877 876 875 858
f 858 875 878 859
f 859 878 879 860
f 879 880 881 882
f 860 883 884 861
f 861 884 881 880
f 860 879 882 883
f 883 882 881 884
f 861 880 885 862
f 862 885 886 863
f 887 888 889 886
f 864 863 890 865
f 865 890 889 888
f 863 886 889 890
f 543 491 891 888
f 446 865 892 444
f 444 892 891 491
f 865 888 891 892
f 526 525 893 868
f 868 893 894 869
f 869 894 895 870
f 870 895 896 871
f 871 896 897 874
f 874 897 898 875
f 875 898 899 878
f 878 899 900 879
f 879 900 901 880
f 880 901 902 885
f 887 886 903 904
f 885 902 903 886
f 543 888 905 544
f 887 904 905 888
f 519 584 906 525
f 906 907 908 909
f 525 906 909 893
f 909 908 910 911
f 893 909 911 894
f 894 911 910 895
f 910 912 913 914
f 895 910 914 896
f 896 914 913 897
f 913 915 916 917
f 897 913 917 898
f 898 917 916 899
f 915 918 919 916
f 899 916 919 900
f 900 919 920 901
f 921 922 923 920
f 901 920 923 902
f 922 924 925 923
f 904 903 925 924
f 902 923 925 903
f 926 927 928 924
f 544 905 928 927
f 904 924 928 905
f 607 606 929 927
f 542 541 929 606
f 544 927 929 541
f 930 647 931 932
f 584 930 932 906
f 906 932 931 907
f 584 583 647 930
f 931 933 934 935
f 907 931 935 908
f 935 934 936 937
f 908 935 937 910
f 910 937 936 912
f 936 938 939 940
f 912 936 940 913
f 913 940 939 915
f 938 941 942 939
f 915 939 942 918
f 942 943 944 945
f 921 920 944 943
f 918 942 945 919
f 919 945 944 920
f 946 947 948 943
f 921 943 948 922
f 947 949 950 948
f 926 924 950 949
f 922 948 950 924
f 664 663 951 949
f 607 927 951 663
f 926 949 951 927
f 952 706 953 954
f 647 952 954 931
f 931 954 953 933
f 647 646 706 952
f 706 705 712 953
f 953 712 955 956
f 933 953 956 934
f 956 955 957 958
f 934 956 958 936
f 936 958 957 938
f 712 711 959 955
f 955 959 960 957
f 938 957 960 941
f 711 720 961 959
f 959 961 962 960
f 960 962 963 964
f 946 943 963 962
f 941 960 964 942
f 942 964 963 943
f 720 719 965 961
f 961 965 966 962
f 946 962 966 947
f 719 724 967 965
f 661 664 967 724
f 965 967 968 966
f 664 949 968 967
f 947 966 968 949
f 765 774 969 970
f 717 720 969 774
f 710 765 970 711
f 711 970 969 720
usemtl c11
f 51 54 62 59
f 114 33 45 121
f 114 121 122 116
f 121 45 53 125
f 121 125 126 122
f 125 53 61 129
f 129 61 72 132
f 129 132 133 134
f 72 71 84 138
f 138 84 139 140
f 84 83 144 145
f 145 144 146 147
f 84 145 147 139
f 185 116 122 192
f 185 192 193 187
f 192 122 126 196
f 192 196 197 193
f 202 134 133 203
f 202 203 204 205
f 211 140 212 213
f 213 212 214 215
f 211 213 215 216
f 140 139 147 212
f 212 147 217 214
f 147 146 223 224
f 224 223 225 226
f 147 224 226 217
f 265 187 193 272
f 265 272 273 267
f 272 193 197 275
f 272 275 276 273
f 275 280 281 276
f 280 205 204 284
f 280 284 285 281
f 214 217 226 294
f 294 226 295 296
f 267 273 339 338
f 273 276 340 339
f 276 281 341 340
f 281 285 342 341
f 345 346 347 348
f 285 345 348 342
f 352 353 354 355
f 346 352 355 347
f 359 296 360 361
f 353 359 361 354
f 337 338 392 391
f 338 339 393 392
f 339 340 394 393
f 340 341 395 394
f 341 342 396 395
f 342 348 397 396
f 361 360 403 404
f 366 368 409 407
f 392 393 437 436
f 393 394 438 437
f 394 395 439 438
f 395 396 440 439
f 397 441 442 443
f 396 397 443 440
f 447 448 449 450
f 441 447 450 442
f 404 403 453 454
f 448 404 454 449
f 436 437 485 484
f 437 438 486 485
f 438 439 487 486
f 439 440 488 487
f 443 442 489 490
f 440 443 490 488
f 450 449 493 494
f 442 450 494 489
f 454 453 497 498
f 449 454 498 493
f 486 487 536 535
f 971 125 129 972
f 972 129 134 202
f 971 196 126 125
f 971 972 202 196
f 132 72 138 973
f 973 138 140 211
f 132 973 211 133
f 974 196 202 975
f 975 202 205 280
f 974 275 197 196
f 974 975 280 275
f 203 133 211 976
f 976 211 216 977
f 203 976 977 204
f 284 204 977 978
f 978 977 346 345
f 284 978 345 285
f 977 216 215 979
f 979 215 353 352
f 977 979 352 346
f 215 214 294 980
f 980 294 296 359
f 215 980 359 353
f 397 981 447 441
f 348 347 355 982
f 982 355 447 981
f 348 982 981 397
f 447 983 404 448
f 355 354 361 984
f 984 361 404 983
f 355 984 983 447
usemtl c16
f 1 2 3 4
f 4 3 5 6
f 1 7 8 2
f 2 8 5 3
f 1 4 6 7
f 9 10 11 12
f 9 13 14 10
f 9 12 15 13
f 10 16 17 11
f 10 14 18 16
f 16 19 20 17
f 16 18 21 19
f 19 22 23 20
f 19 21 24 22
f 22 25 26 23
f 22 24 27 25
f 25 27 28 26
f 29 12 30 31
f 29 32 15 12
f 29 31 33 32
f 12 11 34 30
f 11 17 35 34
f 17 20 36 35
f 23 26 38 37
f 26 39 40 38
f 26 28 41 39
f 39 41 42 40
f 31 30 43 44
f 31 44 45 33
f 30 34 46 43
f 34 35 7 46
f 35 36 8 7
f 36 37 47 8
f 37 38 48 47
f 38 40 49 48
f 40 42 50 49
f 44 43 51 52
f 44 52 53 45
f 43 46 54 51
f 46 7 6 54
f 8 47 55 5
f 47 48 56 55
f 48 49 57 56
f 49 50 58 57
f 52 51 59 60
f 52 60 61 53
f 54 6 63 62
f 6 5 64 63
f 5 55 65 64
f 55 56 66 65
f 56 57 67 66
f 57 58 68 67
f 60 59 69 70
f 70 69 71 72
f 60 70 72 61
f 59 62 73 69
f 62 63 74 73
f 63 64 75 74
f 64 65 76 75
f 65 66 77 76
f 66 67 78 77
f 77 78 79 80
f 67 68 79 78
f 69 73 81 82
f 82 81 83 84
f 69 82 84 71
f 73 74 85 81
f 81 85 86 83
f 74 75 87 85
f 85 87 88 86
f 75 76 89 87
f 87 89 90 88
f 76 77 91 89
f 89 91 92 90
f 77 80 92 91
f 93 94 14 13
f 93 95 96 94
f 93 13 97 95
f 94 98 18 14
f 94 96 99 98
f 98 100 21 18
f 98 99 101 100
f 100 102 24 21
f 100 101 103 102
f 102 104 27 24
f 102 103 105 104
f 104 105 106 27
f 107 13 15 32
f 107 108 97 13
f 107 32 109 108
f 27 110 41 28
f 27 106 111 110
f 110 111 112 41
f 113 32 33 114
f 113 115 109 32
f 113 114 116 115
f 41 117 118 42
f 41 112 119 117
f 117 119 120 118
f 42 118 123 50
f 118 120 124 123
f 50 123 127 58
f 123 124 128 127
f 58 127 130 68
f 127 128 131 130
f 68 130 135 79
f 79 135 136 137
f 130 131 136 135
f 80 79 141 92
f 92 141 142 143
f 79 137 142 141
f 83 86 148 144
f 144 148 149 146
f 86 88 150 148
f 148 150 151 149
f 88 90 152 150
f 150 152 153 151
f 90 92 154 152
f 152 154 155 153
f 92 143 155 154
f 156 157 96 95
f 156 158 159 157
f 156 95 160 158
f 157 161 99 96
f 157 159 162 161
f 161 163 101 99
f 161 162 164 163
f 163 165 103 101
f 163 164 166 165
f 165 167 105 103
f 165 166 168 167
f 167 168 169 105
f 170 171 108 172
f 170 173 174 171
f 170 172 175 173
f 171 95 97 108
f 171 174 160 95
f 105 176 111 106
f 105 169 177 176
f 176 178 179 111
f 176 177 180 178
f 178 180 181 179
f 172 108 109 115
f 172 115 182 175
f 111 179 119 112
f 179 181 183 119
f 184 115 116 185
f 184 186 182 115
f 184 185 187 186
f 119 188 189 120
f 119 183 190 188
f 188 190 191 189
f 120 189 194 124
f 189 191 195 194
f 124 194 198 128
f 194 195 199 198
f 128 198 200 131
f 198 199 201 200
f 131 200 206 136
f 136 206 207 208
f 200 201 207 206
f 137 136 209 142
f 136 208 210 209
f 143 142 218 155
f 155 218 219 220
f 142 209 221 218
f 218 221 222 219
f 209 210 222 221
f 146 149 227 223
f 223 227 228 225
f 149 151 229 227
f 227 229 230 228
f 151 153 231 229
f 229 231 232 230
f 153 155 233 231
f 231 233 234 232
f 155 220 234 233
f 235 236 159 158
f 235 237 238 236
f 235 158 239 237
f 236 240 162 159
f 236 238 241 240
f 240 242 164 162
f 240 241 243 242
f 242 244 166 164
f 242 243 245 244
f 244 246 168 166
f 244 245 247 246
f 246 247 248 168
f 249 158 160 174
f 249 250 239 158
f 249 174 251 250
f 168 252 177 169
f 168 248 253 252
f 252 253 254 177
f 173 255 251 174
f 173 175 256 255
f 259 175 182 186
f 259 260 256 175
f 259 186 261 260
f 264 186 187 265
f 264 266 261 186
f 264 265 267 266
f 201 282 286 207
f 207 286 287 288
f 282 283 287 286
f 208 207 289 210
f 210 289 290 291
f 207 288 290 289
f 219 222 292 293
f 210 291 292 222
f 220 219 297 234
f 234 297 298 299
f 219 293 298 297
f 226 225 300 301
f 301 300 302 303
f 226 301 303 295
f 225 228 304 300
f 300 304 305 302
f 228 230 306 304
f 304 306 307 305
f 230 232 308 306
f 306 308 309 307
f 232 234 310 308
f 308 310 311 309
f 234 299 311 310
f 312 237 239 250
f 312 313 314 237
f 312 250 315 313
f 237 314 316 238
f 238 316 317 241
f 241 317 318 243
f 243 318 319 245
f 245 319 320 247
f 247 321 253 248
f 247 320 322 321
f 321 322 323 253
f 324 250 251 255
f 324 325 315 250
f 324 255 326 325
f 330 255 256 260
f 330 331 326 255
f 330 260 332 331
f 335 260 261 266
f 335 336 332 260
f 335 266 337 336
f 266 267 338 337
f 288 287 349 290
f 290 349 350 351
f 287 344 350 349
f 291 290 356 292
f 292 356 357 358
f 290 351 357 356
f 293 292 362 298
f 298 362 363 364
f 292 358 363 362
f 296 295 303 365
f 365 303 366 367
f 296 365 367 360
f 303 302 368 366
f 302 305 369 368
f 305 307 370 369
f 307 309 371 370
f 309 311 372 371
f 299 298 373 311
f 311 373 374 372
f 298 364 374 373
f 313 375 376 314
f 313 315 377 375
f 314 376 378 316
f 316 378 379 317
f 317 379 380 318
f 318 380 381 319
f 319 381 382 320
f 320 382 383 322
f 322 383 384 323
f 325 385 377 315
f 325 326 386 385
f 331 388 386 326
f 331 332 389 388
f 336 390 389 332
f 336 337 391 390
f 358 357 401 402
f 351 399 401 357
f 364 363 405 406
f 358 402 405 363
f 367 366 407 408
f 360 367 408 403
f 368 369 410 409
f 369 370 411 410
f 370 371 412 411
f 371 372 413 412
f 372 374 414 413
f 364 406 414 374
f 415 416 417 418
f 419 420 380 379
f 419 415 418 420
f 420 418 417 380
f 419 379 416 415
f 375 421 422 376
f 375 377 423 421
f 376 422 424 378
f 378 424 416 379
f 380 417 425 381
f 381 425 426 382
f 382 426 427 383
f 383 427 428 384
f 385 429 423 377
f 385 386 430 429
f 388 432 430 386
f 388 389 433 432
f 390 434 433 389
f 390 391 435 434
f 391 392 436 435
f 402 401 451 452
f 399 445 451 401
f 406 405 455 456
f 402 452 455 405
f 408 407 457 458
f 403 408 458 453
f 407 409 459 457
f 409 410 460 459
f 411 412 461 462
f 412 413 463 461
f 413 414 464 463
f 406 456 464 414
f 460 465 466 462
f 410 411 467 468
f 468 467 466 465
f 411 462 466 467
f 410 468 465 460
f 421 469 470 422
f 421 423 471 469
f 422 470 472 424
f 424 472 473 416
f 416 473 474 417
f 417 474 475 425
f 425 475 476 426
f 426 476 477 427
f 429 478 471 423
f 429 430 479 478
f 432 480 479 430
f 432 433 481 480
f 434 482 481 433
f 434 435 483 482
f 435 436 484 483
f 452 451 495 496
f 445 492 495 451
f 456 455 499 500
f 452 496 499 455
f 458 457 501 502
f 453 458 502 497
f 457 459 503 501
f 459 460 504 503
f 460 462 505 504
f 462 461 506 505
f 461 463 507 506
f 463 464 508 507
f 456 500 508 464
f 509 510 511 512
f 469 509 512 470
f 469 471 510 509
f 470 512 513 472
f 472 513 514 473
f 473 514 515 474
f 474 515 516 475
f 475 516 517 476
f 517 518 519 520
f 476 517 520 477
f 477 520 519 521
f 522 523 524 510
f 478 522 510 471
f 478 479 523 522
f 527 528 529 523
f 480 527 523 479
f 480 481 528 527
f 530 531 532 528
f 482 530 528 481
f 482 483 531 530
f 483 484 533 531
f 484 485 534 533
f 485 486 535 534
f 487 488 537 536
f 537 538 539 540
f 490 489 539 538
f 488 490 538 537
f 539 545 546 547
f 494 493 546 545
f 489 494 545 539
f 548 549 550 542
f 496 495 550 549
f 492 542 550 495
f 546 551 552 553
f 498 497 552 551
f 493 498 551 546
f 554 555 556 549
f 500 499 556 555
f 496 549 556 499
f 552 557 558 559
f 502 501 558 557
f 497 502 557 552
f 501 503 560 558
f 503 504 561 560
f 504 505 562 561
f 505 506 563 562
f 506 507 564 563
f 565 564 566 555
f 507 508 566 564
f 500 555 566 508
f 567 568 569 570
f 512 567 570 513
f 512 511 568 567
f 570 569 571 572
f 513 570 572 514
f 572 571 573 574
f 514 572 574 515
f 574 573 575 576
f 515 574 576 516
f 576 575 577 578
f 516 576 578 517
f 517 578 577 518
f 579 580 581 568
f 510 579 568 511
f 510 524 580 579
f 523 585 580 524
f 523 529 586 585
f 587 588 589 586
f 528 587 586 529
f 528 532 588 587
f 590 591 592 588
f 531 590 588 532
f 531 533 591 590
f 591 593 594 592
f 533 534 593 591
f 593 595 596 594
f 534 535 595 593
f 595 597 598 596
f 535 536 597 595
f 597 599 600 598
f 537 540 600 599
f 536 537 599 597
f 600 601 602 603
f 539 547 602 601
f 540 539 601 600
f 546 553 608 609
f 547 546 609 602
f 554 549 610 611
f 548 605 610 549
f 608 612 613 614
f 552 559 613 612
f 553 552 612 608
f 615 616 617 611
f 565 555 617 616
f 554 611 617 555
f 613 618 619 620
f 558 560 619 618
f 559 558 618 613
f 620 619 621 622
f 560 561 621 619
f 622 621 623 624
f 561 562 623 621
f 624 623 625 626
f 562 563 625 623
f 626 625 627 616
f 563 564 627 625
f 565 616 627 564
f 628 629 630 631
f 568 628 631 569
f 568 581 629 628
f 631 630 632 633
f 569 631 633 571
f 633 632 634 635
f 571 633 635 573
f 635 634 636 637
f 573 635 637 575
f 637 636 638 639
f 575 637 639 577
f 577 639 638 582
f 640 641 642 643
f 585 640 643 580
f 585 586 641 640
f 643 642 644 629
f 580 643 629 581
f 641 648 649 642
f 586 589 648 641
f 650 651 652 648
f 588 650 648 589
f 588 592 651 650
f 651 653 654 652
f 592 594 653 651
f 653 655 656 654
f 594 596 655 653
f 655 657 658 656
f 596 598 657 655
f 657 659 660 658
f 600 603 660 659
f 598 600 659 657
f 660 665 666 667
f 603 602 665 660
f 665 671 672 666
f 609 608 672 671
f 602 609 671 665
f 666 672 673 674
f 608 614 673 672
f 675 676 677 669
f 615 611 677 676
f 669 677 678 670
f 611 610 678 677
f 605 670 678 610
f 673 679 680 681
f 613 620 680 679
f 614 613 679 673
f 681 680 682 683
f 620 622 682 680
f 683 682 684 685
f 622 624 684 682
f 685 684 686 687
f 624 626 686 684
f 687 686 688 676
f 626 616 688 686
f 615 676 688 616
f 689 690 691 692
f 629 689 692 630
f 629 644 690 689
f 692 691 693 694
f 630 692 694 632
f 694 693 695 696
f 632 694 696 634
f 696 695 697 698
f 634 696 698 636
f 698 697 699 700
f 636 698 700 638
f 638 700 699 645
f 701 702 703 690
f 642 701 690 644
f 642 649 702 701
f 707 708 709 702
f 648 707 702 649
f 648 652 708 707
f 708 713 714 709
f 652 654 713 708
f 713 715 716 714
f 654 656 715 713
f 715 721 722 716
f 656 658 721 715
f 721 725 726 722
f 660 667 726 725
f 658 660 725 721
f 726 729 730 731
f 666 674 730 729
f 667 666 729 726
f 732 733 734 727
f 675 669 734 733
f 668 727 734 669
f 730 735 736 737
f 673 681 736 735
f 674 673 735 730
f 737 736 738 739
f 681 683 738 736
f 739 738 740 741
f 683 685 740 738
f 741 740 742 743
f 685 687 742 740
f 743 742 744 733
f 687 676 744 742
f 675 733 744 676
f 745 746 747 748
f 690 745 748 691
f 690 703 746 745
f 748 747 749 750
f 691 748 750 693
f 750 749 751 752
f 693 750 752 695
f 752 751 753 754
f 695 752 754 697
f 754 753 755 756
f 697 754 756 699
f 699 756 755 704
f 757 758 759 746
f 702 757 746 703
f 702 709 758 757
f 746 759 760 747
f 747 760 761 749
f 749 761 762 751
f 751 762 763 753
f 753 763 764 755
f 755 764 765 766
f 704 755 766 705
f 705 766 765 710
f 758 767 768 759
f 709 714 767 758
f 759 768 769 760
f 760 769 770 761
f 761 770 771 762
f 762 771 772 763
f 763 772 773 764
f 764 773 774 765
f 767 775 776 768
f 714 716 775 767
f 768 776 777 769
f 769 777 778 770
f 771 779 780 772
f 772 780 781 773
f 773 781 782 774
f 717 774 782 718
f 775 783 784 776
f 716 722 783 775
f 776 784 785 777
f 777 785 786 778
f 778 786 787 779
f 779 787 788 780
f 780 788 789 781
f 781 789 790 782
f 718 782 790 723
f 783 791 792 784
f 726 731 792 791
f 722 726 791 783
f 784 792 793 785
f 785 793 794 786
f 786 794 795 787
f 787 795 796 788
f 788 796 797 789
f 789 797 798 790
f 732 727 798 797
f 723 790 798 727
f 792 799 800 793
f 730 737 800 799
f 731 730 799 792
f 793 800 801 794
f 737 739 801 800
f 794 801 802 795
f 739 741 802 801
f 795 802 803 796
f 741 743 803 802
f 796 803 804 797
f 743 733 804 803
f 732 797 804 733
f 805 806 807 808
f 778 779 807 806
f 770 805 808 771
f 771 808 807 779
f 770 778 806 805
usemtl c18
f 20 23 37 36
