# generado por tools/vox_to_obj.py desde arbusto_v2.vox
mtllib arbusto_v2.mtl
v -1.5000 0.0000 1.5000
v -1.5000 1.0000 1.5000
v -1.5000 1.0000 0.5000
v -1.5000 0.0000 0.5000
v -0.5000 0.0000 1.5000
v -0.5000 1.0000 1.5000
v -0.5000 0.0000 0.5000
v -1.5000 2.0000 1.5000
v -1.5000 2.0000 0.5000
v -0.5000 2.0000 1.5000
v -1.5000 3.0000 1.5000
v -1.5000 3.0000 0.5000
v -0.5000 3.0000 1.5000
v -1.5000 4.0000 1.5000
v -1.5000 4.0000 0.5000
v -0.5000 4.0000 1.5000
v -1.5000 5.0000 1.5000
v -1.5000 5.0000 0.5000
v -0.5000 5.0000 1.5000
v -1.5000 1.0000 -0.5000
v -1.5000 0.0000 -0.5000
v -0.5000 0.0000 -0.5000
v -1.5000 2.0000 -0.5000
v -1.5000 3.0000 -0.5000
v -1.5000 4.0000 -0.5000
v -1.5000 5.0000 -0.5000
v -1.5000 1.0000 -1.5000
v -1.5000 0.0000 -1.5000
v -0.5000 1.0000 -1.5000
v -0.5000 0.0000 -1.5000
v -1.5000 2.0000 -1.5000
v -0.5000 2.0000 -1.5000
v -1.5000 3.0000 -1.5000
v -0.5000 3.0000 -1.5000
v -1.5000 4.0000 -1.5000
v -0.5000 4.0000 -1.5000
v -1.5000 5.0000 -1.5000
v -0.5000 5.0000 -1.5000
v 0.5000 0.0000 1.5000
v 0.5000 1.0000 1.5000
v 0.5000 0.0000 0.5000
v 0.5000 2.0000 1.5000
v 0.5000 3.0000 1.5000
v 0.5000 4.0000 1.5000
v 0.5000 5.0000 1.5000
v 0.5000 0.0000 -0.5000
v 0.5000 1.0000 -1.5000
v 0.5000 0.0000 -1.5000
v 0.5000 2.0000 -1.5000
v 0.5000 3.0000 -1.5000
v 0.5000 4.0000 -1.5000
v 0.5000 5.0000 -1.5000
v 1.5000 0.0000 1.5000
v 1.5000 0.0000 0.5000
v 1.5000 1.0000 0.5000
v 1.5000 1.0000 1.5000
v 1.5000 2.0000 0.5000
v 1.5000 2.0000 1.5000
v 1.5000 3.0000 0.5000
v 1.5000 3.0000 1.5000
v 1.5000 4.0000 0.5000
v 1.5000 4.0000 1.5000
v 1.5000 5.0000 0.5000
v 1.5000 5.0000 1.5000
v 1.5000 0.0000 -0.5000
v 1.5000 1.0000 -0.5000
v 1.5000 2.0000 -0.5000
v 1.5000 3.0000 -0.5000
v 1.5000 4.0000 -0.5000
v 1.5000 5.0000 -0.5000
v 1.5000 0.0000 -1.5000
v 1.5000 1.0000 -1.5000
v 1.5000 2.0000 -1.5000
v 1.5000 3.0000 -1.5000
v 1.5000 4.0000 -1.5000
v 1.5000 5.0000 -1.5000
v -6.5000 5.0000 0.5000
v -6.5000 6.0000 0.5000
v -6.5000 6.0000 -0.5000
v -6.5000 5.0000 -0.5000
v -5.5000 6.0000 -0.5000
v -5.5000 5.0000 -0.5000
v -5.5000 5.0000 0.5000
v -5.5000 6.0000 0.5000
v -5.5000 5.0000 3.5000
v -5.5000 6.0000 3.5000
v -5.5000 6.0000 2.5000
v -5.5000 5.0000 2.5000
v -4.5000 5.0000 3.5000
v -4.5000 6.0000 3.5000
v -4.5000 5.0000 2.5000
v -5.5000 6.0000 1.5000
v -5.5000 5.0000 1.5000
v -4.5000 5.0000 1.5000
v -4.5000 5.0000 0.5000
v -4.5000 5.0000 -0.5000
v -5.5000 6.0000 -1.5000
v -5.5000 5.0000 -1.5000
v -4.5000 5.0000 -1.5000
v -5.5000 6.0000 -2.5000
v -5.5000 5.0000 -2.5000
v -4.5000 5.0000 -2.5000
v -5.5000 6.0000 -3.5000
v -5.5000 5.0000 -3.5000
v -4.5000 6.0000 -3.5000
v -4.5000 5.0000 -3.5000
v -4.5000 5.0000 4.5000
v -4.5000 6.0000 4.5000
v -3.5000 5.0000 4.5000
v -3.5000 6.0000 4.5000
v -3.5000 5.0000 3.5000
v -3.5000 5.0000 2.5000
v -3.5000 5.0000 1.5000
v -3.5000 5.0000 0.5000
v -3.5000 5.0000 -0.5000
v -3.5000 5.0000 -1.5000
v -3.5000 5.0000 -2.5000
v -3.5000 5.0000 -3.5000
v -4.5000 6.0000 -4.5000
v -4.5000 5.0000 -4.5000
v -3.5000 6.0000 -4.5000
v -3.5000 5.0000 -4.5000
v -3.5000 5.0000 5.5000
v -3.5000 6.0000 5.5000
v -2.5000 5.0000 5.5000
v -2.5000 6.0000 5.5000
v -2.5000 5.0000 4.5000
v -2.5000 5.0000 3.5000
v -2.5000 5.0000 2.5000
v -2.5000 5.0000 1.5000
v -2.5000 5.0000 0.5000
v -2.5000 5.0000 -0.5000
v -2.5000 5.0000 -1.5000
v -2.5000 5.0000 -2.5000
v -2.5000 5.0000 -3.5000
v -2.5000 5.0000 -4.5000
v -3.5000 6.0000 -5.5000
v -3.5000 5.0000 -5.5000
v -2.5000 6.0000 -5.5000
v -2.5000 5.0000 -5.5000
v -1.5000 5.0000 5.5000
v -1.5000 6.0000 5.5000
v -1.5000 5.0000 4.5000
v -1.5000 5.0000 3.5000
v -1.5000 5.0000 2.5000
v -1.5000 5.0000 -2.5000
v -1.5000 5.0000 -3.5000
v -1.5000 5.0000 -4.5000
v -1.5000 6.0000 -5.5000
v -1.5000 5.0000 -5.5000
v -0.5000 5.0000 5.5000
v -0.5000 6.0000 5.5000
v -0.5000 5.0000 4.5000
v -0.5000 5.0000 3.5000
v -0.5000 5.0000 2.5000
v -0.5000 5.0000 -2.5000
v -0.5000 5.0000 -3.5000
v -0.5000 5.0000 -4.5000
v -0.5000 6.0000 -5.5000
v -0.5000 5.0000 -5.5000
v 0.5000 5.0000 6.5000
v 0.5000 5.0000 5.5000
v 0.5000 6.0000 5.5000
v 0.5000 6.0000 6.5000
v -0.5000 5.0000 6.5000
v -0.5000 6.0000 6.5000
v 0.5000 5.0000 4.5000
v 0.5000 5.0000 3.5000
v 0.5000 5.0000 2.5000
v 0.5000 5.0000 -2.5000
v 0.5000 5.0000 -3.5000
v 0.5000 5.0000 -4.5000
v 0.5000 5.0000 -5.5000
v 0.5000 5.0000 -6.5000
v 0.5000 6.0000 -6.5000
v 0.5000 6.0000 -5.5000
v -0.5000 6.0000 -6.5000
v -0.5000 5.0000 -6.5000
v 1.5000 5.0000 5.5000
v 1.5000 6.0000 5.5000
v 1.5000 5.0000 4.5000
v 1.5000 5.0000 3.5000
v 1.5000 5.0000 2.5000
v 1.5000 5.0000 -2.5000
v 1.5000 5.0000 -3.5000
v 1.5000 5.0000 -4.5000
v 1.5000 6.0000 -5.5000
v 1.5000 5.0000 -5.5000
v 2.5000 5.0000 5.5000
v 2.5000 6.0000 5.5000
v 2.5000 5.0000 4.5000
v 2.5000 5.0000 3.5000
v 2.5000 5.0000 2.5000
v 2.5000 5.0000 1.5000
v 2.5000 5.0000 0.5000
v 2.5000 5.0000 -0.5000
v 2.5000 5.0000 -1.5000
v 2.5000 5.0000 -2.5000
v 2.5000 5.0000 -3.5000
v 2.5000 5.0000 -4.5000
v 2.5000 6.0000 -5.5000
v 2.5000 5.0000 -5.5000
v 3.5000 5.0000 5.5000
v 3.5000 5.0000 4.5000
v 3.5000 6.0000 4.5000
v 3.5000 6.0000 5.5000
v 3.5000 5.0000 3.5000
v 3.5000 5.0000 2.5000
v 3.5000 5.0000 1.5000
v 3.5000 5.0000 0.5000
v 3.5000 5.0000 -0.5000
v 3.5000 5.0000 -1.5000
v 3.5000 5.0000 -2.5000
v 3.5000 5.0000 -3.5000
v 3.5000 5.0000 -4.5000
v 3.5000 5.0000 -5.5000
v 3.5000 6.0000 -5.5000
v 3.5000 6.0000 -4.5000
v 4.5000 5.0000 4.5000
v 4.5000 5.0000 3.5000
v 4.5000 6.0000 3.5000
v 4.5000 6.0000 4.5000
v 4.5000 5.0000 2.5000
v 4.5000 5.0000 1.5000
v 4.5000 5.0000 0.5000
v 4.5000 5.0000 -0.5000
v 4.5000 5.0000 -1.5000
v 4.5000 5.0000 -2.5000
v 4.5000 5.0000 -3.5000
v 4.5000 5.0000 -4.5000
v 4.5000 6.0000 -4.5000
v 4.5000 6.0000 -3.5000
v 5.5000 5.0000 3.5000
v 5.5000 5.0000 2.5000
v 5.5000 6.0000 2.5000
v 5.5000 6.0000 3.5000
v 5.5000 5.0000 1.5000
v 5.5000 6.0000 1.5000
v 5.5000 5.0000 0.5000
v 5.5000 6.0000 0.5000
v 5.5000 5.0000 -0.5000
v 5.5000 5.0000 -1.5000
v 5.5000 6.0000 -1.5000
v 5.5000 6.0000 -0.5000
v 5.5000 5.0000 -2.5000
v 5.5000 6.0000 -2.5000
v 5.5000 5.0000 -3.5000
v 5.5000 6.0000 -3.5000
v 6.5000 5.0000 0.5000
v 6.5000 5.0000 -0.5000
v 6.5000 6.0000 -0.5000
v 6.5000 6.0000 0.5000
v -7.5000 6.0000 0.5000
v -7.5000 7.0000 0.5000
v -7.5000 7.0000 -0.5000
v -7.5000 6.0000 -0.5000
v -6.5000 7.0000 -0.5000
v -6.5000 7.0000 0.5000
v -6.5000 6.0000 3.5000
v -6.5000 7.0000 3.5000
v -6.5000 7.0000 2.5000
v -6.5000 6.0000 2.5000
v -5.5000 7.0000 3.5000
v -6.5000 7.0000 1.5000
v -6.5000 6.0000 1.5000
v -6.5000 7.0000 -1.5000
v -6.5000 6.0000 -1.5000
v -6.5000 7.0000 -2.5000
v -6.5000 6.0000 -2.5000
v -6.5000 7.0000 -3.5000
v -6.5000 6.0000 -3.5000
v -5.5000 7.0000 -3.5000
v -5.5000 6.0000 4.5000
v -5.5000 7.0000 4.5000
v -4.5000 7.0000 4.5000
v -5.5000 7.0000 -4.5000
v -5.5000 6.0000 -4.5000
v -4.5000 7.0000 -4.5000
v -4.5000 6.0000 5.5000
v -4.5000 7.0000 5.5000
v -3.5000 7.0000 5.5000
v -4.5000 7.0000 -5.5000
v -4.5000 6.0000 -5.5000
v -3.5000 7.0000 -5.5000
v -3.5000 6.0000 6.5000
v -3.5000 7.0000 6.5000
v -2.5000 6.0000 6.5000
v -2.5000 7.0000 6.5000
v -3.5000 7.0000 -6.5000
v -3.5000 6.0000 -6.5000
v -2.5000 7.0000 -6.5000
v -2.5000 6.0000 -6.5000
v -1.5000 6.0000 6.5000
v -1.5000 7.0000 6.5000
v -1.5000 7.0000 -6.5000
v -1.5000 6.0000 -6.5000
v -0.5000 7.0000 6.5000
v -0.5000 7.0000 -6.5000
v 0.5000 6.0000 7.5000
v 0.5000 7.0000 6.5000
v 0.5000 7.0000 7.5000
v -0.5000 6.0000 7.5000
v -0.5000 7.0000 7.5000
v 0.5000 6.0000 -7.5000
v 0.5000 7.0000 -7.5000
v 0.5000 7.0000 -6.5000
v -0.5000 7.0000 -7.5000
v -0.5000 6.0000 -7.5000
v 1.5000 6.0000 6.5000
v 1.5000 7.0000 6.5000
v 1.5000 7.0000 -6.5000
v 1.5000 6.0000 -6.5000
v 2.5000 6.0000 6.5000
v 2.5000 7.0000 6.5000
v 2.5000 7.0000 -6.5000
v 2.5000 6.0000 -6.5000
v 3.5000 6.0000 6.5000
v 3.5000 7.0000 5.5000
v 3.5000 7.0000 6.5000
v 3.5000 6.0000 -6.5000
v 3.5000 7.0000 -6.5000
v 3.5000 7.0000 -5.5000
v 4.5000 6.0000 5.5000
v 4.5000 7.0000 4.5000
v 4.5000 7.0000 5.5000
v 4.5000 6.0000 -5.5000
v 4.5000 7.0000 -5.5000
v 4.5000 7.0000 -4.5000
v 5.5000 6.0000 4.5000
v 5.5000 7.0000 3.5000
v 5.5000 7.0000 4.5000
v 5.5000 6.0000 -4.5000
v 5.5000 7.0000 -4.5000
v 5.5000 7.0000 -3.5000
v 6.5000 6.0000 3.5000
v 6.5000 6.0000 2.5000
v 6.5000 7.0000 2.5000
v 6.5000 7.0000 3.5000
v 6.5000 6.0000 1.5000
v 6.5000 7.0000 1.5000
v 6.5000 7.0000 0.5000
v 6.5000 6.0000 -1.5000
v 6.5000 7.0000 -1.5000
v 6.5000 7.0000 -0.5000
v 6.5000 6.0000 -2.5000
v 6.5000 7.0000 -2.5000
v 6.5000 6.0000 -3.5000
v 6.5000 7.0000 -3.5000
v 7.5000 6.0000 0.5000
v 7.5000 6.0000 -0.5000
v 7.5000 7.0000 -0.5000
v 7.5000 7.0000 0.5000
v -7.5000 8.0000 0.5000
v -7.5000 8.0000 -0.5000
v -6.5000 8.0000 -0.5000
v -6.5000 8.0000 0.5000
v -6.5000 8.0000 3.5000
v -6.5000 8.0000 2.5000
v -5.5000 8.0000 3.5000
v -5.5000 8.0000 2.5000
v -6.5000 8.0000 1.5000
v -5.5000 8.0000 1.5000
v -5.5000 8.0000 0.5000
v -6.5000 8.0000 -1.5000
v -5.5000 8.0000 -0.5000
v -5.5000 8.0000 -1.5000
v -6.5000 8.0000 -2.5000
v -5.5000 8.0000 -2.5000
v -6.5000 8.0000 -3.5000
v -5.5000 8.0000 -3.5000
v -5.5000 8.0000 4.5000
v -4.5000 8.0000 4.5000
v -4.5000 8.0000 3.5000
v -5.5000 8.0000 -4.5000
v -4.5000 8.0000 -4.5000
v -4.5000 8.0000 -3.5000
v -4.5000 8.0000 5.5000
v -3.5000 8.0000 5.5000
v -3.5000 8.0000 4.5000
v -4.5000 8.0000 -5.5000
v -3.5000 8.0000 -5.5000
v -3.5000 8.0000 -4.5000
v -3.5000 8.0000 6.5000
v -2.5000 8.0000 6.5000
v -2.5000 8.0000 5.5000
v -3.5000 8.0000 -6.5000
v -2.5000 8.0000 -6.5000
v -2.5000 8.0000 -5.5000
v -1.5000 8.0000 6.5000
v -1.5000 8.0000 5.5000
v -1.5000 8.0000 -6.5000
v -1.5000 8.0000 -5.5000
v -0.5000 8.0000 6.5000
v -0.5000 8.0000 5.5000
v -0.5000 8.0000 -6.5000
v -0.5000 8.0000 -5.5000
v 0.5000 8.0000 6.5000
v 0.5000 8.0000 7.5000
v -0.5000 8.0000 7.5000
v 0.5000 8.0000 -7.5000
v 0.5000 8.0000 -6.5000
v -0.5000 8.0000 -7.5000
v 1.5000 8.0000 6.5000
v 1.5000 8.0000 5.5000
v 0.5000 8.0000 5.5000
v 1.5000 8.0000 -6.5000
v 0.5000 8.0000 -5.5000
v 1.5000 8.0000 -5.5000
v 2.5000 8.0000 6.5000
v 2.5000 8.0000 5.5000
v 2.5000 8.0000 -6.5000
v 2.5000 8.0000 -5.5000
v 3.5000 8.0000 5.5000
v 3.5000 8.0000 6.5000
v 3.5000 8.0000 -6.5000
v 3.5000 8.0000 -5.5000
v 4.5000 8.0000 4.5000
v 4.5000 8.0000 5.5000
v 3.5000 8.0000 4.5000
v 4.5000 8.0000 -5.5000
v 4.5000 8.0000 -4.5000
v 3.5000 8.0000 -4.5000
v 5.5000 8.0000 3.5000
v 5.5000 8.0000 4.5000
v 4.5000 8.0000 3.5000
v 5.5000 8.0000 -4.5000
v 5.5000 8.0000 -3.5000
v 4.5000 8.0000 -3.5000
v 6.5000 8.0000 2.5000
v 6.5000 8.0000 3.5000
v 5.5000 8.0000 2.5000
v 6.5000 8.0000 1.5000
v 5.5000 8.0000 1.5000
v 6.5000 8.0000 0.5000
v 5.5000 8.0000 0.5000
v 6.5000 8.0000 -1.5000
v 6.5000 8.0000 -0.5000
v 5.5000 8.0000 -0.5000
v 5.5000 8.0000 -1.5000
v 6.5000 8.0000 -2.5000
v 5.5000 8.0000 -2.5000
v 6.5000 8.0000 -3.5000
v 7.5000 8.0000 -0.5000
v 7.5000 8.0000 0.5000
v -6.5000 9.0000 0.5000
v -6.5000 9.0000 -0.5000
v -5.5000 9.0000 -0.5000
v -5.5000 9.0000 0.5000
v -5.5000 9.0000 3.5000
v -5.5000 9.0000 2.5000
v -4.5000 9.0000 3.5000
v -4.5000 9.0000 2.5000
v -5.5000 9.0000 1.5000
v -4.5000 9.0000 1.5000
v -4.5000 9.0000 0.5000
v -5.5000 9.0000 -1.5000
v -4.5000 9.0000 -0.5000
v -4.5000 9.0000 -1.5000
v -5.5000 9.0000 -2.5000
v -4.5000 9.0000 -2.5000
v -5.5000 9.0000 -3.5000
v -4.5000 9.0000 -3.5000
v -4.5000 9.0000 4.5000
v -3.5000 9.0000 4.5000
v -3.5000 9.0000 3.5000
v -4.5000 9.0000 -4.5000
v -3.5000 9.0000 -4.5000
v -3.5000 9.0000 -3.5000
v -3.5000 9.0000 5.5000
v -2.5000 9.0000 5.5000
v -2.5000 9.0000 4.5000
v -3.5000 9.0000 -5.5000
v -2.5000 9.0000 -5.5000
v -2.5000 9.0000 -4.5000
v -1.5000 9.0000 5.5000
v -1.5000 9.0000 4.5000
v -1.5000 9.0000 -5.5000
v -1.5000 9.0000 -4.5000
v -0.5000 9.0000 5.5000
v -0.5000 9.0000 4.5000
v -0.5000 9.0000 -5.5000
v -0.5000 9.0000 -4.5000
v 0.5000 9.0000 5.5000
v 0.5000 9.0000 6.5000
v -0.5000 9.0000 6.5000
v 0.5000 9.0000 -6.5000
v 0.5000 9.0000 -5.5000
v -0.5000 9.0000 -6.5000
v 1.5000 9.0000 5.5000
v 1.5000 9.0000 4.5000
v 0.5000 9.0000 4.5000
v 1.5000 9.0000 -5.5000
v 0.5000 9.0000 -4.5000
v 1.5000 9.0000 -4.5000
v 2.5000 9.0000 5.5000
v 2.5000 9.0000 4.5000
v 2.5000 9.0000 -5.5000
v 2.5000 9.0000 -4.5000
v 3.5000 9.0000 4.5000
v 3.5000 9.0000 5.5000
v 3.5000 9.0000 -5.5000
v 3.5000 9.0000 -4.5000
v 4.5000 9.0000 3.5000
v 4.5000 9.0000 4.5000
v 3.5000 9.0000 3.5000
v 4.5000 9.0000 -4.5000
v 4.5000 9.0000 -3.5000
v 3.5000 9.0000 -3.5000
v 5.5000 9.0000 2.5000
v 5.5000 9.0000 3.5000
v 4.5000 9.0000 2.5000
v 5.5000 9.0000 1.5000
v 4.5000 9.0000 1.5000
v 5.5000 9.0000 0.5000
v 4.5000 9.0000 0.5000
v 5.5000 9.0000 -1.5000
v 5.5000 9.0000 -0.5000
v 4.5000 9.0000 -0.5000
v 4.5000 9.0000 -1.5000
v 5.5000 9.0000 -2.5000
v 4.5000 9.0000 -2.5000
v 5.5000 9.0000 -3.5000
v 6.5000 9.0000 -0.5000
v 6.5000 9.0000 0.5000
v -5.5000 10.0000 0.5000
v -5.5000 10.0000 -0.5000
v -4.5000 10.0000 -0.5000
v -4.5000 10.0000 0.5000
v -4.5000 10.0000 3.5000
v -4.5000 10.0000 2.5000
v -3.5000 10.0000 3.5000
v -3.5000 10.0000 2.5000
v -4.5000 10.0000 1.5000
v -3.5000 10.0000 1.5000
v -3.5000 10.0000 0.5000
v -4.5000 10.0000 -1.5000
v -3.5000 10.0000 -0.5000
v -3.5000 10.0000 -1.5000
v -4.5000 10.0000 -2.5000
v -3.5000 10.0000 -2.5000
v -4.5000 10.0000 -3.5000
v -3.5000 10.0000 -3.5000
v -3.5000 10.0000 4.5000
v -2.5000 10.0000 4.5000
v -2.5000 10.0000 3.5000
v -2.5000 10.0000 2.5000
v -2.5000 10.0000 -2.5000
v -2.5000 10.0000 -3.5000
v -3.5000 10.0000 -4.5000
v -2.5000 10.0000 -4.5000
v -1.5000 10.0000 4.5000
v -1.5000 10.0000 3.5000
v -1.5000 10.0000 -4.5000
v -1.5000 10.0000 -3.5000
v -0.5000 10.0000 4.5000
v -0.5000 10.0000 3.5000
v -0.5000 10.0000 -4.5000
v -0.5000 10.0000 -3.5000
v 0.5000 10.0000 4.5000
v 0.5000 10.0000 5.5000
v -0.5000 10.0000 5.5000
v 0.5000 10.0000 -5.5000
v 0.5000 10.0000 -4.5000
v -0.5000 10.0000 -5.5000
v 1.5000 10.0000 4.5000
v 1.5000 10.0000 3.5000
v 0.5000 10.0000 3.5000
v 1.5000 10.0000 -4.5000
v 0.5000 10.0000 -3.5000
v 1.5000 10.0000 -3.5000
v 2.5000 10.0000 4.5000
v 2.5000 10.0000 3.5000
v 2.5000 10.0000 -4.5000
v 2.5000 10.0000 -3.5000
v 3.5000 10.0000 3.5000
v 3.5000 10.0000 4.5000
v 3.5000 10.0000 2.5000
v 2.5000 10.0000 2.5000
v 2.5000 10.0000 -2.5000
v 3.5000 10.0000 -2.5000
v 3.5000 10.0000 -3.5000
v 3.5000 10.0000 -4.5000
v 4.5000 10.0000 2.5000
v 4.5000 10.0000 3.5000
v 4.5000 10.0000 1.5000
v 3.5000 10.0000 1.5000
v 4.5000 10.0000 0.5000
v 3.5000 10.0000 0.5000
v 4.5000 10.0000 -1.5000
v 4.5000 10.0000 -0.5000
v 3.5000 10.0000 -0.5000
v 3.5000 10.0000 -1.5000
v 4.5000 10.0000 -2.5000
v 4.5000 10.0000 -3.5000
v 5.5000 10.0000 -0.5000
v 5.5000 10.0000 0.5000
v -4.5000 11.0000 0.5000
v -4.5000 11.0000 -0.5000
v -3.5000 11.0000 -0.5000
v -3.5000 11.0000 0.5000
v -3.5000 11.0000 2.5000
v -3.5000 11.0000 1.5000
v -2.5000 11.0000 2.5000
v -2.5000 11.0000 1.5000
v -2.5000 11.0000 0.5000
v -2.5000 11.0000 -0.5000
v -3.5000 11.0000 -1.5000
v -2.5000 11.0000 -1.5000
v -3.5000 11.0000 -2.5000
v -2.5000 11.0000 -2.5000
v -2.5000 11.0000 3.5000
v -1.5000 11.0000 3.5000
v -1.5000 11.0000 2.5000
v -1.5000 11.0000 1.5000
v -1.5000 11.0000 0.5000
v -1.5000 11.0000 -0.5000
v -1.5000 11.0000 -1.5000
v -1.5000 11.0000 -2.5000
v -2.5000 11.0000 -3.5000
v -1.5000 11.0000 -3.5000
v -0.5000 11.0000 3.5000
v -0.5000 11.0000 2.5000
v -0.5000 11.0000 1.5000
v -0.5000 11.0000 -1.5000
v -0.5000 11.0000 -2.5000
v -0.5000 11.0000 -3.5000
v 0.5000 11.0000 3.5000
v 0.5000 11.0000 4.5000
v -0.5000 11.0000 4.5000
v 0.5000 11.0000 2.5000
v 0.5000 11.0000 -2.5000
v 0.5000 11.0000 -3.5000
v 0.5000 11.0000 -4.5000
v -0.5000 11.0000 -4.5000
v 1.5000 11.0000 3.5000
v 1.5000 11.0000 2.5000
v 1.5000 11.0000 1.5000
v 0.5000 11.0000 1.5000
v 0.5000 11.0000 -1.5000
v 1.5000 11.0000 -1.5000
v 1.5000 11.0000 -2.5000
v 1.5000 11.0000 -3.5000
v 2.5000 11.0000 2.5000
v 2.5000 11.0000 3.5000
v 2.5000 11.0000 1.5000
v 2.5000 11.0000 0.5000
v 1.5000 11.0000 0.5000
v 1.5000 11.0000 -0.5000
v 2.5000 11.0000 -0.5000
v 2.5000 11.0000 -1.5000
v 2.5000 11.0000 -2.5000
v 2.5000 11.0000 -3.5000
v 3.5000 11.0000 1.5000
v 3.5000 11.0000 2.5000
v 3.5000 11.0000 0.5000
v 3.5000 11.0000 -0.5000
v 3.5000 11.0000 -1.5000
v 3.5000 11.0000 -2.5000
v 4.5000 11.0000 -0.5000
v 4.5000 11.0000 0.5000
v -2.5000 12.0000 0.5000
v -2.5000 12.0000 -0.5000
v -1.5000 12.0000 -0.5000
v -1.5000 12.0000 0.5000
v -1.5000 12.0000 1.5000
v -0.5000 12.0000 1.5000
v -0.5000 12.0000 0.5000
v -0.5000 12.0000 -0.5000
v -1.5000 12.0000 -1.5000
v -0.5000 12.0000 -1.5000
v 0.5000 12.0000 1.5000
v 0.5000 12.0000 2.5000
v -0.5000 12.0000 2.5000
v 0.5000 12.0000 0.5000
v 0.5000 12.0000 -0.5000
v 0.5000 12.0000 -1.5000
v 0.5000 12.0000 -2.5000
v -0.5000 12.0000 -2.5000
v 1.5000 12.0000 0.5000
v 1.5000 12.0000 1.5000
v 1.5000 12.0000 -0.5000
v 1.5000 12.0000 -1.5000
v 2.5000 12.0000 -0.5000
v 2.5000 12.0000 0.5000
usemtl c7
f 7 22 46 41
usemtl c8
f 1 2 3 4
f 1 5 6 2
f 1 4 7 5
f 2 8 9 3
f 2 6 10 8
f 8 11 12 9
f 8 10 13 11
f 11 14 15 12
f 11 13 16 14
f 14 17 18 15
f 14 16 19 17
f 4 3 20 21
f 4 21 22 7
f 3 9 23 20
f 9 12 24 23
f 12 15 25 24
f 15 18 26 25
f 21 20 27 28
f 28 27 29 30
f 21 28 30 22
f 20 23 31 27
f 27 31 32 29
f 23 24 33 31
f 31 33 34 32
f 24 25 35 33
f 33 35 36 34
f 25 26 37 35
f 35 37 38 36
f 5 39 40 6
f 5 7 41 39
f 6 40 42 10
f 10 42 43 13
f 13 43 44 16
f 16 44 45 19
f 30 29 47 48
f 22 30 48 46
f 29 32 49 47
f 32 34 50 49
f 34 36 51 50
f 36 38 52 51
f 53 54 55 56
f 39 53 56 40
f 39 41 54 53
f 56 55 57 58
f 40 56 58 42
f 58 57 59 60
f 42 58 60 43
f 60 59 61 62
f 43 60 62 44
f 62 61 63 64
f 44 62 64 45
f 54 65 66 55
f 41 46 65 54
f 55 66 67 57
f 57 67 68 59
f 59 68 69 61
f 61 69 70 63
f 65 71 72 66
f 48 47 72 71
f 46 48 71 65
f 66 72 73 67
f 47 49 73 72
f 67 73 74 68
f 49 50 74 73
f 68 74 75 69
f 50 51 75 74
f 69 75 76 70
f 51 52 76 75
usemtl c9
f 77 78 79 80
f 80 79 81 82
f 77 83 84 78
f 77 80 82 83
f 161 162 163 164
f 165 166 152 151
f 165 161 164 166
f 165 151 162 161
f 173 174 175 176
f 160 159 177 178
f 178 177 175 174
f 160 178 174 173
f 249 250 251 252
f 241 244 251 250
f 239 249 252 240
f 239 241 250 249
f 253 254 255 256
f 256 255 257 79
f 253 78 258 254
f 253 256 79 78
f 299 164 300 301
f 302 303 297 166
f 302 299 301 303
f 302 166 164 299
f 175 304 305 306
f 177 298 307 308
f 308 307 305 304
f 177 308 304 175
f 349 350 351 352
f 251 344 351 350
f 252 349 352 341
f 252 251 350 349
f 254 353 354 255
f 255 354 355 257
f 254 258 356 353
f 353 356 355 354
f 260 357 358 261
f 260 263 359 357
f 357 359 360 358
f 261 358 361 264
f 358 360 362 361
f 264 361 356 258
f 361 362 363 356
f 257 355 364 266
f 355 365 366 364
f 266 364 367 268
f 364 366 368 367
f 268 367 369 270
f 270 369 370 272
f 367 368 370 369
f 274 371 359 263
f 274 275 372 371
f 371 372 373 359
f 272 370 374 276
f 276 374 375 278
f 370 376 375 374
f 280 377 372 275
f 280 281 378 377
f 377 378 379 372
f 278 375 380 282
f 282 380 381 284
f 375 382 381 380
f 286 383 378 281
f 286 288 384 383
f 383 384 385 378
f 284 381 386 289
f 289 386 387 291
f 381 388 387 386
f 288 294 389 384
f 384 389 390 385
f 291 387 391 295
f 388 392 391 387
f 294 297 393 389
f 389 393 394 390
f 295 391 395 298
f 392 396 395 391
f 301 300 397 398
f 303 399 393 297
f 303 301 398 399
f 399 398 397 393
f 306 305 400 401
f 298 395 402 307
f 307 402 400 305
f 395 401 400 402
f 300 310 403 397
f 397 403 404 405
f 306 401 406 311
f 407 408 406 401
f 310 314 409 403
f 403 409 410 404
f 311 406 411 315
f 408 412 411 406
f 319 318 413 414
f 314 319 414 409
f 409 414 413 410
f 322 321 415 416
f 315 411 415 321
f 412 416 415 411
f 325 324 417 418
f 318 325 418 413
f 413 418 417 419
f 328 327 420 421
f 322 416 420 327
f 422 421 420 416
f 331 330 423 424
f 324 331 424 417
f 417 424 423 425
f 334 333 426 427
f 328 421 426 333
f 428 427 426 421
f 338 337 429 430
f 330 338 430 423
f 423 430 429 431
f 337 340 432 429
f 431 429 432 433
f 340 341 434 432
f 433 432 434 435
f 344 343 436 437
f 438 437 436 439
f 343 346 440 436
f 439 436 440 441
f 346 348 442 440
f 334 427 442 348
f 441 440 442 427
f 352 351 443 444
f 344 437 443 351
f 341 352 444 434
f 434 444 443 437
f 356 445 446 355
f 355 446 447 365
f 356 363 448 445
f 445 448 447 446
f 359 449 450 360
f 359 373 451 449
f 449 451 452 450
f 360 450 453 362
f 450 452 454 453
f 362 453 448 363
f 453 454 455 448
f 365 447 456 366
f 447 457 458 456
f 366 456 459 368
f 456 458 460 459
f 368 459 461 370
f 370 461 462 376
f 459 460 462 461
f 372 463 451 373
f 372 379 464 463
f 463 464 465 451
f 376 462 466 375
f 375 466 467 382
f 462 468 467 466
f 378 469 464 379
f 378 385 470 469
f 469 470 471 464
f 382 467 472 381
f 381 472 473 388
f 467 474 473 472
f 385 390 475 470
f 470 475 476 471
f 388 473 477 392
f 474 478 477 473
f 390 394 479 475
f 475 479 480 476
f 392 477 481 396
f 478 482 481 477
f 397 405 483 484
f 393 485 479 394
f 393 397 484 485
f 485 484 483 479
f 407 401 486 487
f 396 481 488 395
f 395 488 486 401
f 481 487 486 488
f 405 404 489 483
f 483 489 490 491
f 407 487 492 408
f 493 494 492 487
f 404 410 495 489
f 489 495 496 490
f 408 492 497 412
f 494 498 497 492
f 413 419 499 500
f 410 413 500 495
f 495 500 499 496
f 422 416 501 502
f 412 497 501 416
f 498 502 501 497
f 417 425 503 504
f 419 417 504 499
f 499 504 503 505
f 428 421 506 507
f 422 502 506 421
f 508 507 506 502
f 423 431 509 510
f 425 423 510 503
f 503 510 509 511
f 431 433 512 509
f 511 509 512 513
f 433 435 514 512
f 513 512 514 515
f 438 439 516 517
f 518 517 516 519
f 439 441 520 516
f 519 516 520 521
f 441 427 522 520
f 428 507 522 427
f 521 520 522 507
f 434 437 523 524
f 438 517 523 437
f 435 434 524 514
f 514 524 523 517
f 448 525 526 447
f 447 526 527 457
f 448 455 528 525
f 525 528 527 526
f 483 491 559 560
f 479 561 555 480
f 479 483 560 561
f 561 560 559 555
f 493 487 562 563
f 482 557 564 481
f 481 564 562 487
f 557 563 562 564
f 514 517 595 596
f 518 590 595 517
f 515 514 596 587
f 587 596 595 590
f 528 597 598 527
f 527 598 599 537
f 528 535 600 597
f 597 600 599 598
f 559 567 627 628
f 555 629 621 556
f 555 559 628 629
f 629 628 627 621
f 569 563 633 632
f 558 626 634 557
f 557 634 633 563
f 626 632 633 634
f 587 590 659 660
f 591 656 659 590
f 588 587 660 655
f 655 660 659 656
f 605 661 662 606
f 606 662 663 616
f 605 615 664 661
f 661 664 663 662
f 630 638 671 672
f 622 673 666 623
f 622 630 672 673
f 673 672 671 666
f 639 631 677 676
f 624 670 678 625
f 625 678 677 631
f 670 676 677 678
f 646 649 683 684
f 648 681 683 649
f 647 646 684 679
f 679 684 683 681
usemtl c10
f 451 529 530 452
f 451 465 531 529
f 529 531 532 530
f 452 530 533 454
f 530 532 534 533
f 454 533 528 455
f 533 534 535 528
f 457 527 536 458
f 527 537 538 536
f 458 536 539 460
f 536 538 540 539
f 460 539 541 462
f 462 541 542 468
f 539 540 542 541
f 464 543 531 465
f 464 471 544 543
f 543 544 545 531
f 531 545 546 532
f 540 547 548 542
f 468 542 549 467
f 467 549 550 474
f 542 548 550 549
f 471 476 551 544
f 544 551 552 545
f 474 550 553 478
f 548 554 553 550
f 476 480 555 551
f 551 555 556 552
f 478 553 557 482
f 554 558 557 553
f 491 490 565 559
f 559 565 566 567
f 493 563 568 494
f 569 570 568 563
f 490 496 571 565
f 565 571 572 566
f 494 568 573 498
f 570 574 573 568
f 499 505 575 576
f 496 499 576 571
f 571 576 575 572
f 572 575 577 578
f 579 580 581 574
f 508 502 582 581
f 498 573 582 502
f 574 581 582 573
f 503 511 583 584
f 505 503 584 575
f 575 584 583 577
f 511 513 585 583
f 577 583 585 586
f 513 515 587 585
f 586 585 587 588
f 518 519 589 590
f 591 590 589 592
f 519 521 593 589
f 592 589 593 580
f 521 507 594 593
f 508 581 594 507
f 580 593 594 581
f 532 601 602 534
f 532 546 603 601
f 601 603 604 602
f 534 602 600 535
f 602 604 605 600
f 600 605 606 599
f 537 599 607 538
f 599 606 608 607
f 538 607 609 540
f 540 609 610 547
f 607 608 610 609
f 545 611 603 546
f 545 552 612 611
f 611 612 613 603
f 603 613 614 604
f 604 614 615 605
f 606 616 617 608
f 608 617 618 610
f 547 610 619 548
f 548 619 620 554
f 610 618 620 619
f 552 556 621 612
f 612 621 622 613
f 613 622 623 614
f 617 624 625 618
f 554 620 626 558
f 618 625 626 620
f 621 627 630 622
f 625 631 632 626
f 567 566 635 627
f 627 635 636 630
f 630 636 637 638
f 639 640 641 631
f 569 632 642 570
f 631 641 642 632
f 572 578 643 644
f 566 572 644 635
f 635 644 643 636
f 636 643 645 637
f 637 645 646 647
f 648 649 650 640
f 640 650 651 641
f 579 574 652 651
f 570 642 652 574
f 641 651 652 642
f 577 586 653 654
f 578 577 654 643
f 643 654 653 645
f 586 588 655 653
f 645 653 655 646
f 646 655 656 649
f 591 592 657 656
f 649 656 657 650
f 592 580 658 657
f 579 651 658 580
f 650 657 658 651
f 614 665 664 615
f 614 623 666 665
f 665 666 667 664
f 664 667 668 663
f 616 663 669 617
f 617 669 670 624
f 663 668 670 669
f 666 671 674 667
f 667 674 675 668
f 668 675 676 670
f 637 647 679 680
f 638 637 680 671
f 671 680 679 674
f 674 679 681 675
f 648 640 682 681
f 639 676 682 640
f 675 681 682 676
usemtl c11
f 85 86 87 88
f 85 89 90 86
f 85 88 91 89
f 88 87 92 93
f 88 93 94 91
f 93 92 84 83
f 93 83 95 94
f 83 82 96 95
f 82 81 97 98
f 82 98 99 96
f 98 97 100 101
f 98 101 102 99
f 101 100 103 104
f 104 103 105 106
f 101 104 106 102
f 107 108 90 89
f 107 109 110 108
f 107 89 111 109
f 89 91 112 111
f 91 94 113 112
f 94 95 114 113
f 95 96 115 114
f 96 99 116 115
f 99 102 117 116
f 102 106 118 117
f 106 105 119 120
f 120 119 121 122
f 106 120 122 118
f 123 124 110 109
f 123 125 126 124
f 123 109 127 125
f 109 111 128 127
f 111 112 129 128
f 112 113 130 129
f 113 114 131 130
f 114 115 132 131
f 115 116 133 132
f 116 117 134 133
f 117 118 135 134
f 118 122 136 135
f 122 121 137 138
f 138 137 139 140
f 122 138 140 136
f 125 141 142 126
f 125 127 143 141
f 127 128 144 143
f 128 129 145 144
f 129 130 17 145
f 130 131 18 17
f 131 132 26 18
f 132 133 37 26
f 133 134 146 37
f 134 135 147 146
f 135 136 148 147
f 140 139 149 150
f 136 140 150 148
f 141 151 152 142
f 141 143 153 151
f 143 144 154 153
f 144 145 155 154
f 145 17 19 155
f 37 146 156 38
f 146 147 157 156
f 147 148 158 157
f 150 149 159 160
f 148 150 160 158
f 151 153 167 162
f 153 154 168 167
f 154 155 169 168
f 155 19 45 169
f 38 156 170 52
f 156 157 171 170
f 157 158 172 171
f 158 160 173 172
f 162 179 180 163
f 162 167 181 179
f 167 168 182 181
f 168 169 183 182
f 169 45 64 183
f 52 170 184 76
f 170 171 185 184
f 171 172 186 185
f 173 176 187 188
f 172 173 188 186
f 179 189 190 180
f 179 181 191 189
f 181 182 192 191
f 182 183 193 192
f 183 64 194 193
f 64 63 195 194
f 63 70 196 195
f 70 76 197 196
f 76 184 198 197
f 184 185 199 198
f 185 186 200 199
f 188 187 201 202
f 186 188 202 200
f 203 204 205 206
f 189 203 206 190
f 189 191 204 203
f 191 192 207 204
f 192 193 208 207
f 193 194 209 208
f 194 195 210 209
f 195 196 211 210
f 196 197 212 211
f 197 198 213 212
f 198 199 214 213
f 199 200 215 214
f 215 216 217 218
f 202 201 217 216
f 200 202 216 215
f 219 220 221 222
f 204 219 222 205
f 204 207 220 219
f 207 208 223 220
f 208 209 224 223
f 209 210 225 224
f 210 211 226 225
f 211 212 227 226
f 212 213 228 227
f 213 214 229 228
f 229 230 231 232
f 215 218 231 230
f 214 215 230 229
f 233 234 235 236
f 220 233 236 221
f 220 223 234 233
f 234 237 238 235
f 223 224 237 234
f 237 239 240 238
f 224 225 239 237
f 225 226 241 239
f 241 242 243 244
f 226 227 242 241
f 242 245 246 243
f 227 228 245 242
f 245 247 248 246
f 229 232 248 247
f 228 229 247 245
f 259 260 261 262
f 259 86 263 260
f 259 262 87 86
f 262 261 264 265
f 262 265 92 87
f 265 264 258 78
f 265 78 84 92
f 79 257 266 267
f 79 267 97 81
f 267 266 268 269
f 267 269 100 97
f 269 268 270 271
f 271 270 272 103
f 269 271 103 100
f 273 274 263 86
f 273 108 275 274
f 273 86 90 108
f 103 272 276 277
f 277 276 278 119
f 103 277 119 105
f 279 280 275 108
f 279 124 281 280
f 279 108 110 124
f 119 278 282 283
f 283 282 284 137
f 119 283 137 121
f 285 286 281 124
f 285 287 288 286
f 285 124 126 287
f 137 284 289 290
f 290 289 291 292
f 137 290 292 139
f 287 293 294 288
f 287 126 142 293
f 292 291 295 296
f 139 292 296 149
f 293 166 297 294
f 293 142 152 166
f 296 295 298 177
f 149 296 177 159
f 164 309 310 300
f 164 163 180 309
f 175 306 311 312
f 176 175 312 187
f 309 313 314 310
f 309 180 190 313
f 312 311 315 316
f 187 312 316 201
f 317 206 318 319
f 313 317 319 314
f 313 190 206 317
f 217 320 321 322
f 316 315 321 320
f 201 316 320 217
f 323 222 324 325
f 206 323 325 318
f 206 205 222 323
f 231 326 327 328
f 217 322 327 326
f 218 217 326 231
f 329 236 330 331
f 222 329 331 324
f 222 221 236 329
f 248 332 333 334
f 231 328 333 332
f 232 231 332 248
f 335 336 337 338
f 236 335 338 330
f 236 235 336 335
f 336 339 340 337
f 235 238 339 336
f 339 252 341 340
f 238 240 252 339
f 251 342 343 344
f 244 243 342 251
f 342 345 346 343
f 243 246 345 342
f 345 347 348 346
f 248 334 348 347
f 246 248 347 345
