# generado por tools/vox_to_obj.py desde cacao_v1.vox
mtllib cacao_v1.mtl
v 0.5000 0.0000 0.5000
v 0.5000 0.0000 -0.5000
v 0.5000 1.0000 -0.5000
v 0.5000 1.0000 0.5000
v -0.5000 0.0000 0.5000
v -0.5000 1.0000 0.5000
v -0.5000 1.0000 -0.5000
v -0.5000 0.0000 -0.5000
v 0.5000 2.0000 -0.5000
v 0.5000 2.0000 0.5000
v -0.5000 2.0000 0.5000
v -0.5000 2.0000 -0.5000
v 0.5000 3.0000 -0.5000
v 0.5000 3.0000 0.5000
v -0.5000 3.0000 0.5000
v -0.5000 3.0000 -0.5000
v 0.5000 4.0000 -0.5000
v 0.5000 4.0000 0.5000
v -0.5000 4.0000 0.5000
v -0.5000 4.0000 -0.5000
v 0.5000 5.0000 -0.5000
v 0.5000 5.0000 0.5000
v -0.5000 5.0000 -0.5000
v -0.5000 5.0000 0.5000
v -0.5000 6.0000 0.5000
v -0.5000 6.0000 -0.5000
v 0.5000 6.0000 -0.5000
v 0.5000 6.0000 0.5000
v 0.5000 7.0000 -0.5000
v 0.5000 7.0000 0.5000
v -0.5000 7.0000 0.5000
v -0.5000 7.0000 -0.5000
v 0.5000 8.0000 -0.5000
v 0.5000 8.0000 0.5000
v -0.5000 8.0000 0.5000
v -0.5000 8.0000 -0.5000
v -4.5000 4.0000 1.5000
v -4.5000 5.0000 1.5000
v -4.5000 5.0000 0.5000
v -4.5000 4.0000 0.5000
v -3.5000 4.0000 1.5000
v -3.5000 5.0000 1.5000
v -3.5000 5.0000 0.5000
v -4.5000 5.0000 -0.5000
v -4.5000 4.0000 -0.5000
v -3.5000 5.0000 -0.5000
v -3.5000 4.0000 -0.5000
v -2.5000 4.0000 1.5000
v -2.5000 5.0000 1.5000
v -2.5000 5.0000 0.5000
v -3.5000 4.0000 0.5000
v -2.5000 4.0000 0.5000
v -2.5000 5.0000 -0.5000
v -2.5000 4.0000 -0.5000
v -1.5000 4.0000 1.5000
v -1.5000 5.0000 1.5000
v -1.5000 5.0000 0.5000
v -1.5000 4.0000 0.5000
v -1.5000 5.0000 -0.5000
v -1.5000 4.0000 -0.5000
v -0.5000 4.0000 1.5000
v -0.5000 5.0000 1.5000
v -3.5000 3.0000 1.5000
v -3.5000 3.0000 0.5000
v -4.5000 3.0000 1.5000
v -4.5000 3.0000 0.5000
v -3.5000 3.0000 -0.5000
v -4.5000 3.0000 -0.5000
v 0.5000 5.0000 1.5000
v 0.5000 6.0000 1.5000
v 1.5000 5.0000 1.5000
v 1.5000 6.0000 1.5000
v 1.5000 6.0000 0.5000
v 1.5000 5.0000 0.5000
v 1.5000 6.0000 -0.5000
v 1.5000 5.0000 -0.5000
v 2.5000 5.0000 1.5000
v 2.5000 6.0000 1.5000
v 2.5000 6.0000 0.5000
v 2.5000 5.0000 0.5000
v 2.5000 6.0000 -0.5000
v 2.5000 5.0000 -0.5000
v 3.5000 5.0000 1.5000
v 3.5000 6.0000 1.5000
v 3.5000 6.0000 0.5000
v 3.5000 5.0000 0.5000
v 3.5000 6.0000 -0.5000
v 3.5000 5.0000 -0.5000
v 4.5000 5.0000 1.5000
v 4.5000 5.0000 0.5000
v 4.5000 6.0000 0.5000
v 4.5000 6.0000 1.5000
v 4.5000 5.0000 -0.5000
v 4.5000 6.0000 -0.5000
v 4.5000 4.0000 1.5000
v 4.5000 4.0000 0.5000
v 3.5000 4.0000 1.5000
v 3.5000 4.0000 0.5000
v 4.5000 4.0000 -0.5000
v 3.5000 4.0000 -0.5000
v -1.5000 6.0000 4.5000
v -1.5000 7.0000 4.5000
v -1.5000 7.0000 3.5000
v -1.5000 6.0000 3.5000
v -0.5000 6.0000 4.5000
v -0.5000 7.0000 4.5000
v -0.5000 7.0000 3.5000
v -0.5000 6.0000 3.5000
v -1.5000 7.0000 2.5000
v -1.5000 6.0000 2.5000
v -0.5000 7.0000 2.5000
v -0.5000 6.0000 2.5000
v -1.5000 7.0000 1.5000
v -1.5000 6.0000 1.5000
v -0.5000 7.0000 1.5000
v -0.5000 6.0000 1.5000
v -1.5000 7.0000 0.5000
v -1.5000 6.0000 0.5000
v 0.5000 6.0000 4.5000
v 0.5000 6.0000 3.5000
v 0.5000 7.0000 3.5000
v 0.5000 7.0000 4.5000
v 0.5000 6.0000 2.5000
v 0.5000 7.0000 2.5000
v 0.5000 7.0000 1.5000
v -1.5000 7.0000 -0.5000
v -1.5000 8.0000 -0.5000
v -1.5000 8.0000 -1.5000
v -1.5000 7.0000 -1.5000
v -0.5000 8.0000 -1.5000
v -0.5000 7.0000 -1.5000
v -1.5000 8.0000 -2.5000
v -1.5000 7.0000 -2.5000
v -0.5000 8.0000 -2.5000
v -0.5000 7.0000 -2.5000
v -1.5000 8.0000 -3.5000
v -1.5000 7.0000 -3.5000
v -0.5000 8.0000 -3.5000
v -0.5000 7.0000 -3.5000
v -1.5000 8.0000 -4.5000
v -1.5000 7.0000 -4.5000
v -0.5000 8.0000 -4.5000
v -0.5000 7.0000 -4.5000
v 0.5000 7.0000 -1.5000
v 0.5000 8.0000 -1.5000
v 0.5000 7.0000 -2.5000
v 0.5000 8.0000 -2.5000
v 0.5000 7.0000 -3.5000
v 0.5000 8.0000 -3.5000
v 0.5000 7.0000 -4.5000
v 0.5000 8.0000 -4.5000
v -2.5000 12.0000 2.5000
v -2.5000 13.0000 2.5000
v -2.5000 13.0000 1.5000
v -2.5000 12.0000 1.5000
v -1.5000 12.0000 2.5000
v -1.5000 13.0000 2.5000
v -1.5000 13.0000 1.5000
v -1.5000 12.0000 1.5000
v -2.5000 13.0000 0.5000
v -2.5000 12.0000 0.5000
v -1.5000 13.0000 0.5000
v -1.5000 12.0000 0.5000
v -0.5000 12.0000 2.5000
v -0.5000 12.0000 1.5000
v -0.5000 13.0000 1.5000
v -0.5000 13.0000 2.5000
v -0.5000 12.0000 0.5000
v -0.5000 13.0000 0.5000
v 0.5000 13.0000 -0.5000
v 0.5000 14.0000 -0.5000
v 0.5000 14.0000 -1.5000
v 0.5000 13.0000 -1.5000
v 1.5000 13.0000 -0.5000
v 1.5000 14.0000 -0.5000
v 1.5000 14.0000 -1.5000
v 1.5000 13.0000 -1.5000
v 0.5000 14.0000 -2.5000
v 0.5000 13.0000 -2.5000
v 1.5000 14.0000 -2.5000
v 1.5000 13.0000 -2.5000
v 2.5000 13.0000 -0.5000
v 2.5000 13.0000 -1.5000
v 2.5000 14.0000 -1.5000
v 2.5000 14.0000 -0.5000
v 2.5000 13.0000 -2.5000
v 2.5000 14.0000 -2.5000
usemtl c1
f 1 2 3 4
f 5 6 7 8
f 8 7 3 2
f 5 1 4 6
f 5 8 2 1
f 4 3 9 10
f 6 11 12 7
f 7 12 9 3
f 6 4 10 11
f 10 9 13 14
f 11 15 16 12
f 12 16 13 9
f 11 10 14 15
f 14 13 17 18
f 15 19 20 16
f 16 20 17 13
f 15 14 18 19
f 18 17 21 22
f 20 23 21 17
f 19 18 22 24
f 24 25 26 23
f 23 26 27 21
f 24 22 28 25
f 28 27 29 30
f 25 31 32 26
f 26 32 29 27
f 30 29 33 34
f 31 35 36 32
f 31 30 34 35
f 35 34 33 36
usemtl c2
f 37 38 39 40
f 37 41 42 38
f 38 42 43 39
f 40 39 44 45
f 45 44 46 47
f 39 43 46 44
f 41 48 49 42
f 42 49 50 43
f 41 51 52 48
f 47 46 53 54
f 43 50 53 46
f 51 47 54 52
f 48 55 56 49
f 49 56 57 50
f 48 52 58 55
f 54 53 59 60
f 50 57 59 53
f 52 54 60 58
f 61 19 24 62
f 55 61 62 56
f 56 62 24 57
f 55 58 19 61
f 60 59 23 20
f 57 24 23 59
f 58 60 20 19
f 63 64 51 41
f 65 37 40 66
f 65 63 41 37
f 65 66 64 63
f 64 67 47 51
f 66 40 45 68
f 68 45 47 67
f 66 68 67 64
f 101 102 103 104
f 101 105 106 102
f 102 106 107 103
f 101 104 108 105
f 104 103 109 110
f 103 107 111 109
f 104 110 112 108
f 110 109 113 114
f 109 111 115 113
f 110 114 116 112
f 114 113 117 118
f 118 117 31 25
f 113 115 31 117
f 114 118 25 116
f 119 120 121 122
f 105 119 122 106
f 106 122 121 107
f 105 108 120 119
f 120 123 124 121
f 107 121 124 111
f 108 112 123 120
f 123 70 125 124
f 111 124 125 115
f 112 116 70 123
f 70 28 30 125
f 115 125 30 31
f 116 25 28 70
usemtl c3
f 69 70 28 22
f 69 71 72 70
f 70 72 73 28
f 69 22 74 71
f 21 27 75 76
f 28 73 75 27
f 22 21 76 74
f 71 77 78 72
f 72 78 79 73
f 71 74 80 77
f 76 75 81 82
f 73 79 81 75
f 74 76 82 80
f 77 83 84 78
f 78 84 85 79
f 77 80 86 83
f 82 81 87 88
f 79 85 87 81
f 80 82 88 86
f 89 90 91 92
f 83 89 92 84
f 84 92 91 85
f 90 93 94 91
f 88 87 94 93
f 85 91 94 87
f 95 96 90 89
f 97 83 86 98
f 97 95 89 83
f 97 98 96 95
f 96 99 93 90
f 98 86 88 100
f 100 88 93 99
f 98 100 99 96
f 126 127 128 129
f 126 32 36 127
f 127 36 130 128
f 126 129 131 32
f 129 128 132 133
f 128 130 134 132
f 129 133 135 131
f 133 132 136 137
f 132 134 138 136
f 133 137 139 135
f 137 136 140 141
f 141 140 142 143
f 136 138 142 140
f 137 141 143 139
f 29 144 145 33
f 36 33 145 130
f 32 131 144 29
f 144 146 147 145
f 130 145 147 134
f 131 135 146 144
f 146 148 149 147
f 134 147 149 138
f 135 139 148 146
f 148 150 151 149
f 143 142 151 150
f 138 149 151 142
f 139 143 150 148
usemtl c4
f 152 153 154 155
f 152 156 157 153
f 153 157 158 154
f 152 155 159 156
f 155 154 160 161
f 161 160 162 163
f 154 158 162 160
f 155 161 163 159
f 164 165 166 167
f 156 164 167 157
f 157 167 166 158
f 156 159 165 164
f 165 168 169 166
f 163 162 169 168
f 158 166 169 162
f 159 163 168 165
f 170 171 172 173
f 170 174 175 171
f 171 175 176 172
f 170 173 177 174
f 173 172 178 179
f 179 178 180 181
f 172 176 180 178
f 173 179 181 177
f 182 183 184 185
f 174 182 185 175
f 175 185 184 176
f 174 177 183 182
f 183 186 187 184
f 181 180 187 186
f 176 184 187 180
f 177 181 186 183
