# generado por tools/vox_to_obj.py desde cacao_v2.vox
mtllib cacao_v2.mtl
v -1.0000 0.0000 3.5000
v -1.0000 1.0000 3.5000
v -1.0000 1.0000 2.5000
v -1.0000 0.0000 2.5000
v 0.0000 0.0000 3.5000
v 0.0000 1.0000 3.5000
v 0.0000 0.0000 2.5000
v -1.0000 2.0000 3.5000
v -1.0000 2.0000 2.5000
v 0.0000 2.0000 3.5000
v -1.0000 3.0000 3.5000
v -1.0000 3.0000 2.5000
v 0.0000 3.0000 3.5000
v -1.0000 4.0000 3.5000
v -1.0000 4.0000 2.5000
v 0.0000 4.0000 3.5000
v -1.0000 5.0000 3.5000
v -1.0000 5.0000 2.5000
v 0.0000 5.0000 3.5000
v -1.0000 6.0000 3.5000
v -1.0000 6.0000 2.5000
v 0.0000 6.0000 3.5000
v 0.0000 7.0000 3.5000
v -1.0000 7.0000 3.5000
v -1.0000 8.0000 3.5000
v -1.0000 8.0000 2.5000
v -1.0000 7.0000 2.5000
v 0.0000 8.0000 3.5000
v -1.0000 9.0000 3.5000
v -1.0000 9.0000 2.5000
v 0.0000 9.0000 3.5000
v -1.0000 10.0000 3.5000
v -1.0000 10.0000 2.5000
v -1.0000 11.0000 3.5000
v -1.0000 11.0000 2.5000
v 0.0000 10.0000 3.5000
v 0.0000 11.0000 3.5000
v -1.0000 12.0000 3.5000
v -1.0000 12.0000 2.5000
v 0.0000 12.0000 3.5000
v -1.0000 1.0000 1.5000
v -1.0000 0.0000 1.5000
v 0.0000 1.0000 1.5000
v 0.0000 0.0000 1.5000
v -1.0000 2.0000 1.5000
v 0.0000 2.0000 1.5000
v -1.0000 3.0000 1.5000
v 0.0000 3.0000 1.5000
v -1.0000 4.0000 1.5000
v 0.0000 4.0000 1.5000
v -1.0000 5.0000 1.5000
v 0.0000 5.0000 1.5000
v -1.0000 6.0000 1.5000
v 0.0000 6.0000 1.5000
v -1.0000 7.0000 1.5000
v 0.0000 7.0000 1.5000
v -1.0000 8.0000 1.5000
v 0.0000 8.0000 1.5000
v -1.0000 9.0000 1.5000
v 0.0000 9.0000 1.5000
v -1.0000 10.0000 1.5000
v 0.0000 10.0000 1.5000
v -1.0000 11.0000 1.5000
v 0.0000 11.0000 1.5000
v -1.0000 12.0000 1.5000
v 1.0000 0.0000 3.5000
v 1.0000 0.0000 2.5000
v 1.0000 1.0000 2.5000
v 1.0000 1.0000 3.5000
v 1.0000 2.0000 2.5000
v 1.0000 2.0000 3.5000
v 1.0000 3.0000 2.5000
v 1.0000 3.0000 3.5000
v 1.0000 4.0000 2.5000
v 1.0000 4.0000 3.5000
v 1.0000 5.0000 2.5000
v 1.0000 5.0000 3.5000
v 1.0000 6.0000 3.5000
v 1.0000 7.0000 3.5000
v 1.0000 8.0000 3.5000
v 1.0000 9.0000 3.5000
v 1.0000 9.0000 2.5000
v 1.0000 10.0000 2.5000
v 1.0000 10.0000 3.5000
v 1.0000 11.0000 2.5000
v 1.0000 11.0000 3.5000
v 1.0000 12.0000 3.5000
v 1.0000 0.0000 1.5000
v 1.0000 1.0000 1.5000
v 1.0000 2.0000 1.5000
v 1.0000 3.0000 1.5000
v 1.0000 4.0000 1.5000
v 1.0000 5.0000 1.5000
v 1.0000 6.0000 1.5000
v 1.0000 7.0000 1.5000
v 1.0000 9.0000 1.5000
v 1.0000 8.0000 1.5000
v 1.0000 10.0000 1.5000
v 1.0000 11.0000 1.5000
v 1.0000 12.0000 1.5000
v 1.0000 12.0000 2.5000
v 0.0000 12.0000 1.5000
v 2.0000 12.0000 2.5000
v 2.0000 11.0000 2.5000
v 2.0000 11.0000 3.5000
v 2.0000 12.0000 3.5000
v 3.0000 12.0000 2.5000
v 3.0000 11.0000 2.5000
v 3.0000 11.0000 3.5000
v 3.0000 12.0000 3.5000
v 4.0000 12.0000 2.5000
v 4.0000 11.0000 2.5000
v 4.0000 11.0000 3.5000
v 4.0000 12.0000 3.5000
v 5.0000 12.0000 2.5000
v 5.0000 11.0000 2.5000
v 5.0000 11.0000 3.5000
v 5.0000 12.0000 3.5000
v 6.0000 12.0000 2.5000
v 6.0000 11.0000 2.5000
v 6.0000 11.0000 3.5000
v 6.0000 12.0000 3.5000
v 7.0000 11.0000 3.5000
v 7.0000 11.0000 2.5000
v 7.0000 12.0000 2.5000
v 7.0000 12.0000 3.5000
v 0.0000 11.0000 0.5000
v 0.0000 12.0000 0.5000
v -1.0000 12.0000 0.5000
v -1.0000 11.0000 0.5000
v 0.0000 11.0000 -0.5000
v 0.0000 12.0000 -0.5000
v -1.0000 12.0000 -0.5000
v -1.0000 11.0000 -0.5000
v 0.0000 11.0000 -1.5000
v 0.0000 12.0000 -1.5000
v -1.0000 12.0000 -1.5000
v -1.0000 11.0000 -1.5000
v 0.0000 11.0000 -2.5000
v 0.0000 12.0000 -2.5000
v -1.0000 12.0000 -2.5000
v -1.0000 11.0000 -2.5000
v 0.0000 11.0000 -3.5000
v 0.0000 12.0000 -3.5000
v -1.0000 12.0000 -3.5000
v -1.0000 11.0000 -3.5000
v 0.0000 11.0000 -4.5000
v 0.0000 12.0000 -4.5000
v -1.0000 12.0000 -4.5000
v -1.0000 11.0000 -4.5000
v -6.0000 12.0000 2.5000
v -6.0000 13.0000 2.5000
v -6.0000 13.0000 1.5000
v -6.0000 12.0000 1.5000
v -5.0000 13.0000 1.5000
v -5.0000 12.0000 1.5000
v -5.0000 12.0000 2.5000
v -5.0000 13.0000 2.5000
v -4.0000 13.0000 1.5000
v -4.0000 12.0000 1.5000
v -4.0000 12.0000 2.5000
v -4.0000 13.0000 2.5000
v -3.0000 13.0000 1.5000
v -3.0000 12.0000 1.5000
v -3.0000 12.0000 2.5000
v -3.0000 13.0000 2.5000
v -2.0000 12.0000 1.5000
v -2.0000 12.0000 2.5000
v 3.0000 12.0000 6.5000
v 3.0000 13.0000 6.5000
v 3.0000 13.0000 5.5000
v 3.0000 12.0000 5.5000
v 4.0000 12.0000 6.5000
v 4.0000 13.0000 6.5000
v 4.0000 12.0000 5.5000
v 3.0000 14.0000 6.5000
v 3.0000 14.0000 5.5000
v 4.0000 14.0000 6.5000
v 3.0000 15.0000 6.5000
v 3.0000 15.0000 5.5000
v 4.0000 15.0000 6.5000
v 4.0000 15.0000 5.5000
v 3.0000 12.0000 4.5000
v 4.0000 12.0000 4.5000
v 4.0000 15.0000 4.5000
v 3.0000 15.0000 4.5000
v 4.0000 15.0000 3.5000
v 3.0000 15.0000 3.5000
v 4.0000 15.0000 2.5000
v 3.0000 15.0000 2.5000
v 3.0000 12.0000 1.5000
v 4.0000 12.0000 1.5000
v 4.0000 15.0000 1.5000
v 3.0000 15.0000 1.5000
v 3.0000 12.0000 0.5000
v 3.0000 13.0000 0.5000
v 4.0000 13.0000 0.5000
v 4.0000 12.0000 0.5000
v 3.0000 14.0000 0.5000
v 4.0000 14.0000 0.5000
v 3.0000 15.0000 0.5000
v 4.0000 15.0000 0.5000
v 5.0000 12.0000 6.5000
v 5.0000 13.0000 6.5000
v 5.0000 12.0000 5.5000
v 5.0000 14.0000 6.5000
v 5.0000 15.0000 6.5000
v 5.0000 15.0000 5.5000
v 5.0000 12.0000 4.5000
v 5.0000 15.0000 4.5000
v 5.0000 15.0000 3.5000
v 5.0000 15.0000 2.5000
v 5.0000 12.0000 1.5000
v 5.0000 15.0000 1.5000
v 5.0000 13.0000 0.5000
v 5.0000 12.0000 0.5000
v 5.0000 14.0000 0.5000
v 5.0000 15.0000 0.5000
v 6.0000 12.0000 6.5000
v 6.0000 13.0000 6.5000
v 6.0000 12.0000 5.5000
v 6.0000 14.0000 6.5000
v 6.0000 15.0000 6.5000
v 6.0000 15.0000 5.5000
v 6.0000 12.0000 4.5000
v 6.0000 15.0000 4.5000
v 6.0000 15.0000 3.5000
v 6.0000 15.0000 2.5000
v 6.0000 12.0000 1.5000
v 6.0000 15.0000 1.5000
v 6.0000 13.0000 0.5000
v 6.0000 12.0000 0.5000
v 6.0000 14.0000 0.5000
v 6.0000 15.0000 0.5000
v 7.0000 12.0000 6.5000
v 7.0000 13.0000 6.5000
v 7.0000 12.0000 5.5000
v 7.0000 14.0000 6.5000
v 7.0000 15.0000 6.5000
v 7.0000 15.0000 5.5000
v 7.0000 12.0000 4.5000
v 7.0000 15.0000 4.5000
v 7.0000 15.0000 3.5000
v 7.0000 15.0000 2.5000
v 7.0000 12.0000 1.5000
v 7.0000 15.0000 1.5000
v 7.0000 13.0000 0.5000
v 7.0000 12.0000 0.5000
v 7.0000 14.0000 0.5000
v 7.0000 15.0000 0.5000
v 8.0000 12.0000 6.5000
v 8.0000 13.0000 6.5000
v 8.0000 12.0000 5.5000
v 8.0000 14.0000 6.5000
v 8.0000 15.0000 6.5000
v 8.0000 15.0000 5.5000
v 8.0000 12.0000 4.5000
v 8.0000 15.0000 4.5000
v 8.0000 12.0000 3.5000
v 8.0000 15.0000 3.5000
v 8.0000 12.0000 2.5000
v 8.0000 15.0000 2.5000
v 8.0000 12.0000 1.5000
v 8.0000 15.0000 1.5000
v 8.0000 13.0000 0.5000
v 8.0000 12.0000 0.5000
v 8.0000 14.0000 0.5000
v 8.0000 15.0000 0.5000
v 9.0000 12.0000 6.5000
v 9.0000 12.0000 5.5000
v 9.0000 13.0000 5.5000
v 9.0000 13.0000 6.5000
v 9.0000 14.0000 5.5000
v 9.0000 14.0000 6.5000
v 9.0000 15.0000 5.5000
v 9.0000 15.0000 6.5000
v 9.0000 12.0000 4.5000
v 9.0000 13.0000 4.5000
v 9.0000 14.0000 4.5000
v 9.0000 15.0000 4.5000
v 9.0000 12.0000 3.5000
v 9.0000 13.0000 3.5000
v 9.0000 14.0000 3.5000
v 9.0000 15.0000 3.5000
v 9.0000 12.0000 2.5000
v 9.0000 13.0000 2.5000
v 9.0000 14.0000 2.5000
v 9.0000 15.0000 2.5000
v 9.0000 12.0000 1.5000
v 9.0000 13.0000 1.5000
v 9.0000 14.0000 1.5000
v 9.0000 15.0000 1.5000
v 9.0000 12.0000 0.5000
v 9.0000 13.0000 0.5000
v 9.0000 14.0000 0.5000
v 9.0000 15.0000 0.5000
v -4.0000 12.0000 -0.5000
v -4.0000 13.0000 -0.5000
v -4.0000 13.0000 -1.5000
v -4.0000 12.0000 -1.5000
v -3.0000 12.0000 -0.5000
v -3.0000 13.0000 -0.5000
v -3.0000 12.0000 -1.5000
v -4.0000 13.0000 -2.5000
v -4.0000 12.0000 -2.5000
v -3.0000 12.0000 -2.5000
v -4.0000 14.0000 -1.5000
v -4.0000 14.0000 -2.5000
v -4.0000 15.0000 -1.5000
v -4.0000 15.0000 -2.5000
v -3.0000 15.0000 -1.5000
v -3.0000 15.0000 -2.5000
v -4.0000 13.0000 -3.5000
v -4.0000 12.0000 -3.5000
v -3.0000 12.0000 -3.5000
v -4.0000 14.0000 -3.5000
v -4.0000 15.0000 -3.5000
v -3.0000 15.0000 -3.5000
v -4.0000 13.0000 -4.5000
v -4.0000 12.0000 -4.5000
v -3.0000 12.0000 -4.5000
v -4.0000 14.0000 -4.5000
v -4.0000 15.0000 -4.5000
v -3.0000 15.0000 -4.5000
v -4.0000 13.0000 -5.5000
v -4.0000 12.0000 -5.5000
v -3.0000 12.0000 -5.5000
v -4.0000 14.0000 -5.5000
v -4.0000 15.0000 -5.5000
v -3.0000 15.0000 -5.5000
v -4.0000 13.0000 -6.5000
v -4.0000 12.0000 -6.5000
v -3.0000 13.0000 -6.5000
v -3.0000 12.0000 -6.5000
v -4.0000 14.0000 -6.5000
v -3.0000 14.0000 -6.5000
v -4.0000 15.0000 -6.5000
v -3.0000 15.0000 -6.5000
v -2.0000 12.0000 -1.5000
v -2.0000 12.0000 -0.5000
v -3.0000 15.0000 -0.5000
v -2.0000 15.0000 -0.5000
v -2.0000 15.0000 -1.5000
v -2.0000 12.0000 -2.5000
v -2.0000 15.0000 -2.5000
v -2.0000 12.0000 -3.5000
v -2.0000 15.0000 -3.5000
v -2.0000 12.0000 -4.5000
v -2.0000 15.0000 -4.5000
v -2.0000 12.0000 -5.5000
v -2.0000 15.0000 -5.5000
v -2.0000 13.0000 -6.5000
v -2.0000 12.0000 -6.5000
v -2.0000 14.0000 -6.5000
v -2.0000 15.0000 -6.5000
v -1.0000 15.0000 -0.5000
v -1.0000 15.0000 -1.5000
v -1.0000 15.0000 -2.5000
v -1.0000 15.0000 -3.5000
v -1.0000 15.0000 -4.5000
v -1.0000 12.0000 -5.5000
v -1.0000 15.0000 -5.5000
v -1.0000 13.0000 -6.5000
v -1.0000 12.0000 -6.5000
v -1.0000 14.0000 -6.5000
v -1.0000 15.0000 -6.5000
v 0.0000 15.0000 -0.5000
v 0.0000 15.0000 -1.5000
v 0.0000 15.0000 -2.5000
v 0.0000 15.0000 -3.5000
v 0.0000 15.0000 -4.5000
v 0.0000 12.0000 -5.5000
v 0.0000 15.0000 -5.5000
v 0.0000 13.0000 -6.5000
v 0.0000 12.0000 -6.5000
v 0.0000 14.0000 -6.5000
v 0.0000 15.0000 -6.5000
v 1.0000 12.0000 -1.5000
v 1.0000 12.0000 -0.5000
v 1.0000 15.0000 -0.5000
v 1.0000 15.0000 -1.5000
v 1.0000 12.0000 -2.5000
v 1.0000 15.0000 -2.5000
v 1.0000 12.0000 -3.5000
v 1.0000 15.0000 -3.5000
v 1.0000 12.0000 -4.5000
v 1.0000 15.0000 -4.5000
v 1.0000 12.0000 -5.5000
v 1.0000 15.0000 -5.5000
v 1.0000 13.0000 -6.5000
v 1.0000 12.0000 -6.5000
v 1.0000 14.0000 -6.5000
v 1.0000 15.0000 -6.5000
v 2.0000 12.0000 -0.5000
v 2.0000 12.0000 -1.5000
v 2.0000 13.0000 -1.5000
v 2.0000 13.0000 -0.5000
v 2.0000 14.0000 -1.5000
v 2.0000 14.0000 -0.5000
v 2.0000 15.0000 -1.5000
v 2.0000 15.0000 -0.5000
v 2.0000 12.0000 -2.5000
v 2.0000 13.0000 -2.5000
v 2.0000 14.0000 -2.5000
v 2.0000 15.0000 -2.5000
v 2.0000 12.0000 -3.5000
v 2.0000 13.0000 -3.5000
v 2.0000 14.0000 -3.5000
v 2.0000 15.0000 -3.5000
v 2.0000 12.0000 -4.5000
v 2.0000 13.0000 -4.5000
v 2.0000 14.0000 -4.5000
v 2.0000 15.0000 -4.5000
v 2.0000 12.0000 -5.5000
v 2.0000 13.0000 -5.5000
v 2.0000 14.0000 -5.5000
v 2.0000 15.0000 -5.5000
v 2.0000 12.0000 -6.5000
v 2.0000 13.0000 -6.5000
v 2.0000 14.0000 -6.5000
v 2.0000 15.0000 -6.5000
v -9.0000 13.0000 4.5000
v -9.0000 14.0000 4.5000
v -9.0000 14.0000 3.5000
v -9.0000 13.0000 3.5000
v -8.0000 13.0000 4.5000
v -8.0000 14.0000 4.5000
v -8.0000 13.0000 3.5000
v -9.0000 15.0000 4.5000
v -9.0000 15.0000 3.5000
v -8.0000 15.0000 4.5000
v -9.0000 16.0000 4.5000
v -9.0000 16.0000 3.5000
v -8.0000 16.0000 4.5000
v -8.0000 16.0000 3.5000
v -9.0000 14.0000 2.5000
v -9.0000 13.0000 2.5000
v -8.0000 13.0000 2.5000
v -9.0000 15.0000 2.5000
v -9.0000 16.0000 2.5000
v -8.0000 16.0000 2.5000
v -9.0000 14.0000 1.5000
v -9.0000 13.0000 1.5000
v -8.0000 13.0000 1.5000
v -9.0000 15.0000 1.5000
v -9.0000 16.0000 1.5000
v -8.0000 16.0000 1.5000
v -9.0000 14.0000 0.5000
v -9.0000 13.0000 0.5000
v -8.0000 13.0000 0.5000
v -9.0000 15.0000 0.5000
v -9.0000 16.0000 0.5000
v -8.0000 16.0000 0.5000
v -9.0000 14.0000 -0.5000
v -9.0000 13.0000 -0.5000
v -8.0000 13.0000 -0.5000
v -9.0000 15.0000 -0.5000
v -9.0000 16.0000 -0.5000
v -8.0000 16.0000 -0.5000
v -9.0000 14.0000 -1.5000
v -9.0000 13.0000 -1.5000
v -8.0000 14.0000 -1.5000
v -8.0000 13.0000 -1.5000
v -9.0000 15.0000 -1.5000
v -8.0000 15.0000 -1.5000
v -9.0000 16.0000 -1.5000
v -8.0000 16.0000 -1.5000
v -7.0000 13.0000 4.5000
v -7.0000 14.0000 4.5000
v -7.0000 13.0000 3.5000
v -7.0000 15.0000 4.5000
v -7.0000 16.0000 4.5000
v -7.0000 16.0000 3.5000
v -7.0000 13.0000 2.5000
v -7.0000 16.0000 2.5000
v -7.0000 13.0000 1.5000
v -7.0000 16.0000 1.5000
v -7.0000 13.0000 0.5000
v -7.0000 16.0000 0.5000
v -7.0000 13.0000 -0.5000
v -7.0000 16.0000 -0.5000
v -7.0000 14.0000 -1.5000
v -7.0000 13.0000 -1.5000
v -7.0000 15.0000 -1.5000
v -7.0000 16.0000 -1.5000
v -6.0000 13.0000 4.5000
v -6.0000 14.0000 4.5000
v -6.0000 13.0000 3.5000
v -6.0000 15.0000 4.5000
v -6.0000 16.0000 4.5000
v -6.0000 16.0000 3.5000
v -6.0000 16.0000 2.5000
v -6.0000 16.0000 1.5000
v -6.0000 13.0000 0.5000
v -6.0000 16.0000 0.5000
v -6.0000 13.0000 -0.5000
v -6.0000 16.0000 -0.5000
v -6.0000 14.0000 -1.5000
v -6.0000 13.0000 -1.5000
v -6.0000 15.0000 -1.5000
v -6.0000 16.0000 -1.5000
v -5.0000 13.0000 4.5000
v -5.0000 14.0000 4.5000
v -5.0000 13.0000 3.5000
v -5.0000 15.0000 4.5000
v -5.0000 16.0000 4.5000
v -5.0000 16.0000 3.5000
v -5.0000 16.0000 2.5000
v -5.0000 16.0000 1.5000
v -5.0000 13.0000 0.5000
v -5.0000 16.0000 0.5000
v -5.0000 13.0000 -0.5000
v -5.0000 16.0000 -0.5000
v -5.0000 14.0000 -1.5000
v -5.0000 13.0000 -1.5000
v -5.0000 15.0000 -1.5000
v -5.0000 16.0000 -1.5000
v -4.0000 13.0000 4.5000
v -4.0000 14.0000 4.5000
v -4.0000 13.0000 3.5000
v -4.0000 15.0000 4.5000
v -4.0000 16.0000 4.5000
v -4.0000 16.0000 3.5000
v -4.0000 16.0000 2.5000
v -4.0000 16.0000 1.5000
v -4.0000 13.0000 0.5000
v -4.0000 16.0000 0.5000
v -4.0000 16.0000 -0.5000
v -4.0000 16.0000 -1.5000
v -3.0000 13.0000 4.5000
v -3.0000 14.0000 4.5000
v -3.0000 13.0000 3.5000
v -3.0000 15.0000 4.5000
v -3.0000 15.0000 3.5000
v -3.0000 16.0000 3.5000
v -3.0000 16.0000 4.5000
v -3.0000 15.0000 2.5000
v -3.0000 16.0000 2.5000
v -3.0000 15.0000 1.5000
v -3.0000 16.0000 1.5000
v -3.0000 13.0000 0.5000
v -3.0000 15.0000 0.5000
v -3.0000 16.0000 0.5000
v -3.0000 16.0000 -0.5000
v -3.0000 16.0000 -1.5000
v -3.0000 12.0000 5.5000
v -3.0000 13.0000 5.5000
v -3.0000 12.0000 4.5000
v -2.0000 12.0000 5.5000
v -2.0000 13.0000 5.5000
v -2.0000 12.0000 4.5000
v -3.0000 14.0000 5.5000
v -2.0000 14.0000 5.5000
v -3.0000 15.0000 5.5000
v -2.0000 15.0000 5.5000
v -2.0000 15.0000 4.5000
v -3.0000 12.0000 3.5000
v -2.0000 12.0000 3.5000
v -2.0000 15.0000 3.5000
v -2.0000 15.0000 2.5000
v -2.0000 15.0000 1.5000
v -3.0000 12.0000 0.5000
v -2.0000 12.0000 0.5000
v -2.0000 15.0000 0.5000
v -1.0000 12.0000 5.5000
v -1.0000 13.0000 5.5000
v -1.0000 12.0000 4.5000
v -1.0000 14.0000 5.5000
v -1.0000 15.0000 5.5000
v -1.0000 15.0000 4.5000
v -1.0000 15.0000 3.5000
v -1.0000 15.0000 2.5000
v -1.0000 15.0000 1.5000
v -1.0000 15.0000 0.5000
v 0.0000 12.0000 5.5000
v 0.0000 13.0000 5.5000
v 0.0000 12.0000 4.5000
v 0.0000 14.0000 5.5000
v 0.0000 15.0000 5.5000
v 0.0000 15.0000 4.5000
v 0.0000 15.0000 3.5000
v 0.0000 15.0000 2.5000
v 0.0000 15.0000 1.5000
v 0.0000 15.0000 0.5000
v 1.0000 12.0000 5.5000
v 1.0000 13.0000 5.5000
v 1.0000 12.0000 4.5000
v 1.0000 14.0000 5.5000
v 1.0000 15.0000 5.5000
v 1.0000 15.0000 4.5000
v 1.0000 15.0000 3.5000
v 1.0000 15.0000 2.5000
v 1.0000 15.0000 1.5000
v 1.0000 12.0000 0.5000
v 1.0000 15.0000 0.5000
v 2.0000 12.0000 5.5000
v 2.0000 13.0000 5.5000
v 2.0000 12.0000 4.5000
v 2.0000 14.0000 5.5000
v 2.0000 15.0000 5.5000
v 2.0000 15.0000 4.5000
v 2.0000 15.0000 3.5000
v 2.0000 15.0000 2.5000
v 2.0000 12.0000 1.5000
v 2.0000 15.0000 1.5000
v 2.0000 12.0000 0.5000
v 2.0000 15.0000 0.5000
v 3.0000 12.0000 -0.5000
v 3.0000 13.0000 -0.5000
v 3.0000 14.0000 -0.5000
v 3.0000 15.0000 -0.5000
v 2.0000 5.0000 3.5000
v 2.0000 5.0000 2.5000
v 2.0000 6.0000 2.5000
v 2.0000 6.0000 3.5000
v 2.0000 7.0000 3.5000
v 2.0000 7.0000 2.5000
v 2.0000 8.0000 2.5000
v 2.0000 8.0000 3.5000
v 2.0000 9.0000 2.5000
v 2.0000 9.0000 3.5000
v 2.0000 5.0000 1.5000
v 2.0000 6.0000 1.5000
v 2.0000 7.0000 1.5000
v 2.0000 8.0000 1.5000
v 2.0000 9.0000 1.5000
v 3.0000 6.0000 3.5000
v 3.0000 6.0000 2.5000
v 3.0000 7.0000 2.5000
v 3.0000 7.0000 3.5000
v -2.0000 6.0000 3.5000
v -2.0000 7.0000 3.5000
v -2.0000 7.0000 2.5000
v -2.0000 6.0000 2.5000
v -2.0000 8.0000 2.5000
v -2.0000 9.0000 2.5000
v -2.0000 9.0000 1.5000
v -2.0000 8.0000 1.5000
v 0.0000 9.0000 4.5000
v 0.0000 10.0000 4.5000
v -1.0000 9.0000 4.5000
v -1.0000 10.0000 4.5000
v 1.0000 7.0000 0.5000
v 1.0000 8.0000 0.5000
v 0.0000 8.0000 0.5000
v 0.0000 7.0000 0.5000
usemtl c5
f 1 2 3 4
f 1 5 6 2
f 1 4 7 5
f 2 8 9 3
f 2 6 10 8
f 8 11 12 9
f 8 10 13 11
f 11 14 15 12
f 11 13 16 14
f 14 17 18 15
f 14 16 19 17
f 17 20 21 18
f 17 19 22 20
f 20 22 23 24
f 24 25 26 27
f 24 23 28 25
f 25 29 30 26
f 25 28 31 29
f 29 32 33 30
f 32 34 35 33
f 32 36 37 34
f 34 38 39 35
f 34 37 40 38
f 67 88 89 68
f 44 43 89 88
f 7 44 88 67
f 68 89 90 70
f 43 46 90 89
f 70 90 91 72
f 46 48 91 90
f 72 91 92 74
f 48 50 92 91
f 74 92 93 76
f 50 52 93 92
f 52 54 94 93
f 54 56 95 94
f 58 60 96 97
f 82 96 98 83
f 60 62 98 96
f 83 98 99 85
f 62 64 99 98
f 85 99 100 101
f 64 102 100 99
f 85 101 103 104
f 86 105 106 87
f 86 85 104 105
f 104 103 107 108
f 105 109 110 106
f 105 104 108 109
f 108 107 111 112
f 109 113 114 110
f 109 108 112 113
f 112 111 115 116
f 113 117 118 114
f 113 112 116 117
f 116 115 119 120
f 117 121 122 118
f 117 116 120 121
f 123 124 125 126
f 120 119 125 124
f 121 123 126 122
f 121 120 124 123
f 64 127 128 102
f 63 65 129 130
f 63 130 127 64
f 127 131 132 128
f 130 129 133 134
f 130 134 131 127
f 131 135 136 132
f 134 133 137 138
f 134 138 135 131
f 135 139 140 136
f 138 137 141 142
f 138 142 139 135
f 139 143 144 140
f 142 141 145 146
f 142 146 143 139
f 143 147 148 144
f 146 145 149 150
f 150 149 148 147
f 146 150 147 143
f 151 152 153 154
f 154 153 155 156
f 151 157 158 152
f 151 154 156 157
f 156 155 159 160
f 157 161 162 158
f 157 156 160 161
f 160 159 163 164
f 161 165 166 162
f 161 160 164 165
usemtl c6
f 4 3 41 42
f 42 41 43 44
f 4 42 44 7
f 3 9 45 41
f 41 45 46 43
f 9 12 47 45
f 45 47 48 46
f 12 15 49 47
f 47 49 50 48
f 15 18 51 49
f 49 51 52 50
f 18 21 53 51
f 51 53 54 52
f 21 27 55 53
f 53 55 56 54
f 27 26 57 55
f 55 57 58 56
f 57 59 60 58
f 30 33 61 59
f 59 61 62 60
f 33 35 63 61
f 61 63 64 62
f 35 39 65 63
f 66 67 68 69
f 5 66 69 6
f 5 7 67 66
f 69 68 70 71
f 6 69 71 10
f 71 70 72 73
f 10 71 73 13
f 73 72 74 75
f 13 73 75 16
f 75 74 76 77
f 16 75 77 19
f 19 77 78 22
f 22 78 79 23
f 23 79 80 28
f 28 80 81 31
f 81 82 83 84
f 31 81 84 36
f 84 83 85 86
f 36 84 86 37
f 37 86 87 40
usemtl c7
f 165 164 167 168
f 168 167 65 39
f 169 170 171 172
f 169 173 174 170
f 169 172 175 173
f 170 176 177 171
f 170 174 178 176
f 176 179 180 177
f 176 178 181 179
f 179 181 182 180
f 172 183 184 175
f 180 182 185 186
f 183 110 114 184
f 186 185 187 188
f 188 187 189 190
f 107 191 192 111
f 190 189 193 194
f 195 196 197 198
f 191 195 198 192
f 196 199 200 197
f 199 201 202 200
f 194 193 202 201
f 173 203 204 174
f 173 175 205 203
f 174 204 206 178
f 178 206 207 181
f 181 207 208 182
f 175 184 209 205
f 182 208 210 185
f 184 114 118 209
f 185 210 211 187
f 187 211 212 189
f 111 192 213 115
f 189 212 214 193
f 198 197 215 216
f 192 198 216 213
f 197 200 217 215
f 200 202 218 217
f 193 214 218 202
f 203 219 220 204
f 203 205 221 219
f 204 220 222 206
f 206 222 223 207
f 207 223 224 208
f 205 209 225 221
f 208 224 226 210
f 209 118 122 225
f 210 226 227 211
f 211 227 228 212
f 115 213 229 119
f 212 228 230 214
f 216 215 231 232
f 213 216 232 229
f 215 217 233 231
f 217 218 234 233
f 214 230 234 218
f 219 235 236 220
f 219 221 237 235
f 220 236 238 222
f 222 238 239 223
f 223 239 240 224
f 221 225 241 237
f 224 240 242 226
f 225 122 126 241
f 226 242 243 227
f 227 243 244 228
f 119 229 245 125
f 228 244 246 230
f 232 231 247 248
f 229 232 248 245
f 231 233 249 247
f 233 234 250 249
f 230 246 250 234
f 235 251 252 236
f 235 237 253 251
f 236 252 254 238
f 238 254 255 239
f 239 255 256 240
f 237 241 257 253
f 240 256 258 242
f 241 126 259 257
f 242 258 260 243
f 126 125 261 259
f 243 260 262 244
f 125 245 263 261
f 244 262 264 246
f 248 247 265 266
f 245 248 266 263
f 247 249 267 265
f 249 250 268 267
f 246 264 268 250
f 269 270 271 272
f 251 269 272 252
f 251 253 270 269
f 272 271 273 274
f 252 272 274 254
f 274 273 275 276
f 254 274 276 255
f 255 276 275 256
f 270 277 278 271
f 253 257 277 270
f 271 278 279 273
f 273 279 280 275
f 256 275 280 258
f 277 281 282 278
f 257 259 281 277
f 278 282 283 279
f 279 283 284 280
f 258 280 284 260
f 281 285 286 282
f 259 261 285 281
f 282 286 287 283
f 283 287 288 284
f 260 284 288 262
f 285 289 290 286
f 261 263 289 285
f 286 290 291 287
f 287 291 292 288
f 262 288 292 264
f 289 293 294 290
f 266 265 294 293
f 263 266 293 289
f 290 294 295 291
f 265 267 295 294
f 291 295 296 292
f 267 268 296 295
f 264 292 296 268
f 297 298 299 300
f 297 301 302 298
f 297 300 303 301
f 300 299 304 305
f 300 305 306 303
f 299 307 308 304
f 307 309 310 308
f 309 311 312 310
f 305 304 313 314
f 305 314 315 306
f 304 308 316 313
f 308 310 317 316
f 310 312 318 317
f 314 313 319 320
f 314 320 321 315
f 313 316 322 319
f 316 317 323 322
f 317 318 324 323
f 320 319 325 326
f 320 326 327 321
f 319 322 328 325
f 322 323 329 328
f 323 324 330 329
f 326 325 331 332
f 332 331 333 334
f 326 332 334 327
f 325 328 335 331
f 331 335 336 333
f 328 329 337 335
f 335 337 338 336
f 329 330 338 337
f 301 303 339 340
f 341 342 343 311
f 303 306 344 339
f 311 343 345 312
f 306 315 346 344
f 312 345 347 318
f 315 321 348 346
f 318 347 349 324
f 321 327 350 348
f 324 349 351 330
f 334 333 352 353
f 327 334 353 350
f 333 336 354 352
f 336 338 355 354
f 330 351 355 338
f 340 339 137 133
f 342 356 357 343
f 339 344 141 137
f 343 357 358 345
f 344 346 145 141
f 345 358 359 347
f 346 348 149 145
f 347 359 360 349
f 348 350 361 149
f 349 360 362 351
f 353 352 363 364
f 350 353 364 361
f 352 354 365 363
f 354 355 366 365
f 351 362 366 355
f 356 367 368 357
f 357 368 369 358
f 358 369 370 359
f 359 370 371 360
f 149 361 372 148
f 360 371 373 362
f 364 363 374 375
f 361 364 375 372
f 363 365 376 374
f 365 366 377 376
f 362 373 377 366
f 132 136 378 379
f 367 380 381 368
f 136 140 382 378
f 368 381 383 369
f 140 144 384 382
f 369 383 385 370
f 144 148 386 384
f 370 385 387 371
f 148 372 388 386
f 371 387 389 373
f 375 374 390 391
f 372 375 391 388
f 374 376 392 390
f 376 377 393 392
f 373 389 393 377
f 394 395 396 397
f 379 378 395 394
f 397 396 398 399
f 399 398 400 401
f 380 401 400 381
f 395 402 403 396
f 378 382 402 395
f 396 403 404 398
f 398 404 405 400
f 381 400 405 383
f 402 406 407 403
f 382 384 406 402
f 403 407 408 404
f 404 408 409 405
f 383 405 409 385
f 406 410 411 407
f 384 386 410 406
f 407 411 412 408
f 408 412 413 409
f 385 409 413 387
f 410 414 415 411
f 386 388 414 410
f 411 415 416 412
f 412 416 417 413
f 387 413 417 389
f 414 418 419 415
f 391 390 419 418
f 388 391 418 414
f 415 419 420 416
f 390 392 420 419
f 416 420 421 417
f 392 393 421 420
f 389 417 421 393
f 422 423 424 425
f 422 426 427 423
f 422 425 428 426
f 423 429 430 424
f 423 427 431 429
f 429 432 433 430
f 429 431 434 432
f 432 434 435 433
f 425 424 436 437
f 425 437 438 428
f 424 430 439 436
f 430 433 440 439
f 433 435 441 440
f 437 436 442 443
f 437 443 444 438
f 436 439 445 442
f 439 440 446 445
f 440 441 447 446
f 443 442 448 449
f 443 449 450 444
f 442 445 451 448
f 445 446 452 451
f 446 447 453 452
f 449 448 454 455
f 449 455 456 450
f 448 451 457 454
f 451 452 458 457
f 452 453 459 458
f 455 454 460 461
f 461 460 462 463
f 455 461 463 456
f 454 457 464 460
f 460 464 465 462
f 457 458 466 464
f 464 466 467 465
f 458 459 467 466
f 426 468 469 427
f 426 428 470 468
f 427 469 471 431
f 431 471 472 434
f 434 472 473 435
f 428 438 474 470
f 435 473 475 441
f 438 444 476 474
f 441 475 477 447
f 444 450 478 476
f 447 477 479 453
f 450 456 480 478
f 453 479 481 459
f 463 462 482 483
f 456 463 483 480
f 462 465 484 482
f 465 467 485 484
f 459 481 485 467
f 468 486 487 469
f 468 470 488 486
f 469 487 489 471
f 471 489 490 472
f 472 490 491 473
f 470 474 152 488
f 473 491 492 475
f 474 476 153 152
f 475 492 493 477
f 476 478 494 153
f 477 493 495 479
f 478 480 496 494
f 479 495 497 481
f 483 482 498 499
f 480 483 499 496
f 482 484 500 498
f 484 485 501 500
f 481 497 501 485
f 486 502 503 487
f 486 488 504 502
f 487 503 505 489
f 489 505 506 490
f 490 506 507 491
f 488 152 158 504
f 491 507 508 492
f 492 508 509 493
f 153 494 510 155
f 493 509 511 495
f 494 496 512 510
f 495 511 513 497
f 499 498 514 515
f 496 499 515 512
f 498 500 516 514
f 500 501 517 516
f 497 513 517 501
f 502 518 519 503
f 502 504 520 518
f 503 519 521 505
f 505 521 522 506
f 506 522 523 507
f 504 158 162 520
f 507 523 524 508
f 508 524 525 509
f 155 510 526 159
f 509 525 527 511
f 510 512 298 526
f 511 527 528 513
f 515 514 307 299
f 512 515 299 298
f 514 516 309 307
f 516 517 529 309
f 513 528 529 517
f 518 530 531 519
f 518 520 532 530
f 519 531 533 521
f 533 534 535 536
f 521 533 536 522
f 522 536 535 523
f 520 162 166 532
f 534 537 538 535
f 523 535 538 524
f 537 539 540 538
f 524 538 540 525
f 159 526 541 163
f 539 542 543 540
f 525 540 543 527
f 526 298 302 541
f 542 341 544 543
f 527 543 544 528
f 341 311 545 544
f 309 529 545 311
f 528 544 545 529
f 546 547 530 548
f 546 549 550 547
f 546 548 551 549
f 547 552 531 530
f 547 550 553 552
f 552 554 533 531
f 552 553 555 554
f 554 555 556 533
f 548 530 532 557
f 548 557 558 551
f 533 556 559 534
f 557 532 166 165
f 557 165 168 558
f 534 559 560 537
f 537 560 561 539
f 164 163 541 562
f 164 562 563 167
f 539 561 564 542
f 562 541 302 301
f 562 301 340 563
f 542 564 342 341
f 549 565 566 550
f 549 551 567 565
f 550 566 568 553
f 553 568 569 555
f 555 569 570 556
f 551 558 38 567
f 556 570 571 559
f 558 168 39 38
f 559 571 572 560
f 560 572 573 561
f 167 563 129 65
f 561 573 574 564
f 563 340 133 129
f 564 574 356 342
f 565 575 576 566
f 565 567 577 575
f 566 576 578 568
f 568 578 579 569
f 569 579 580 570
f 567 38 40 577
f 570 580 581 571
f 571 581 582 572
f 572 582 583 573
f 573 583 584 574
f 574 584 367 356
f 575 585 586 576
f 575 577 587 585
f 576 586 588 578
f 578 588 589 579
f 579 589 590 580
f 577 40 87 587
f 580 590 591 581
f 581 591 592 582
f 582 592 593 583
f 102 128 594 100
f 583 593 595 584
f 128 132 379 594
f 584 595 380 367
f 585 596 597 586
f 585 587 598 596
f 586 597 599 588
f 588 599 600 589
f 589 600 601 590
f 587 87 106 598
f 590 601 602 591
f 591 602 603 592
f 101 100 604 103
f 592 603 605 593
f 100 594 606 604
f 593 605 607 595
f 594 379 394 606
f 595 607 401 380
f 596 172 171 597
f 596 598 183 172
f 597 171 177 599
f 599 177 180 600
f 600 180 186 601
f 598 106 110 183
f 601 186 188 602
f 602 188 190 603
f 103 604 191 107
f 603 190 194 605
f 604 606 195 191
f 605 194 201 607
f 195 608 609 196
f 394 397 609 608
f 606 394 608 195
f 196 609 610 199
f 397 399 610 609
f 199 610 611 201
f 399 401 611 610
f 607 201 611 401
usemtl c8
f 631 632 633 634
f 634 633 27 21
f 631 20 24 632
f 632 24 27 633
f 631 634 21 20
f 635 636 637 638
f 638 637 59 57
f 635 26 30 636
f 636 30 59 637
f 635 638 57 26
f 639 31 36 640
f 641 642 32 29
f 641 639 640 642
f 642 640 36 32
f 641 29 31 639
f 95 643 644 97
f 56 58 645 646
f 646 645 644 643
f 58 97 644 645
f 56 646 643 95
usemtl c9
f 612 613 614 615
f 77 612 615 78
f 77 76 613 612
f 78 615 616 79
f 616 617 618 619
f 79 616 619 80
f 619 618 620 621
f 80 619 621 81
f 81 621 620 82
f 613 622 623 614
f 93 94 623 622
f 76 93 622 613
f 614 623 624 617
f 94 95 624 623
f 617 624 625 618
f 95 97 625 624
f 618 625 626 620
f 97 96 626 625
f 82 620 626 96
f 627 628 629 630
f 614 617 629 628
f 615 627 630 616
f 616 630 629 617
f 615 614 628 627
