# generado por tools/vox_to_obj.py desde cafe_v3.vox
mtllib cafe_v3.mtl
v -2.0000 0.0000 2.0000
v -2.0000 1.0000 2.0000
v -2.0000 1.0000 1.0000
v -2.0000 0.0000 1.0000
v -1.0000 0.0000 2.0000
v -1.0000 1.0000 2.0000
v -1.0000 0.0000 1.0000
v -2.0000 2.0000 2.0000
v -2.0000 2.0000 1.0000
v -1.0000 2.0000 2.0000
v -2.0000 3.0000 2.0000
v -2.0000 3.0000 1.0000
v -1.0000 3.0000 2.0000
v -2.0000 4.0000 2.0000
v -2.0000 4.0000 1.0000
v -1.0000 4.0000 2.0000
v -2.0000 1.0000 0.0000
v -2.0000 0.0000 0.0000
v -1.0000 0.0000 0.0000
v -2.0000 2.0000 0.0000
v -2.0000 3.0000 0.0000
v -2.0000 4.0000 0.0000
v -2.0000 1.0000 -1.0000
v -2.0000 0.0000 -1.0000
v -1.0000 0.0000 -1.0000
v -2.0000 2.0000 -1.0000
v -2.0000 3.0000 -1.0000
v -2.0000 4.0000 -1.0000
v -2.0000 1.0000 -2.0000
v -2.0000 0.0000 -2.0000
v -1.0000 1.0000 -2.0000
v -1.0000 0.0000 -2.0000
v -2.0000 2.0000 -2.0000
v -1.0000 2.0000 -2.0000
v -2.0000 3.0000 -2.0000
v -1.0000 3.0000 -2.0000
v -2.0000 4.0000 -2.0000
v -1.0000 4.0000 -2.0000
v 0.0000 0.0000 2.0000
v 0.0000 1.0000 2.0000
v 0.0000 0.0000 1.0000
v 0.0000 2.0000 2.0000
v 0.0000 3.0000 2.0000
v 0.0000 4.0000 2.0000
v 0.0000 0.0000 0.0000
v 0.0000 0.0000 -1.0000
v 0.0000 1.0000 -2.0000
v 0.0000 0.0000 -2.0000
v 0.0000 2.0000 -2.0000
v 0.0000 3.0000 -2.0000
v 0.0000 4.0000 -2.0000
v 1.0000 0.0000 2.0000
v 1.0000 1.0000 2.0000
v 1.0000 0.0000 1.0000
v 1.0000 2.0000 2.0000
v 1.0000 3.0000 2.0000
v 1.0000 4.0000 2.0000
v 1.0000 0.0000 0.0000
v 1.0000 0.0000 -1.0000
v 1.0000 1.0000 -2.0000
v 1.0000 0.0000 -2.0000
v 1.0000 2.0000 -2.0000
v 1.0000 3.0000 -2.0000
v 1.0000 4.0000 -2.0000
v 2.0000 0.0000 2.0000
v 2.0000 0.0000 1.0000
v 2.0000 1.0000 1.0000
v 2.0000 1.0000 2.0000
v 2.0000 2.0000 1.0000
v 2.0000 2.0000 2.0000
v 2.0000 3.0000 1.0000
v 2.0000 3.0000 2.0000
v 2.0000 4.0000 1.0000
v 2.0000 4.0000 2.0000
v 2.0000 0.0000 0.0000
v 2.0000 1.0000 0.0000
v 2.0000 2.0000 0.0000
v 2.0000 3.0000 0.0000
v 2.0000 4.0000 0.0000
v 2.0000 0.0000 -1.0000
v 2.0000 1.0000 -1.0000
v 2.0000 2.0000 -1.0000
v 2.0000 3.0000 -1.0000
v 2.0000 4.0000 -1.0000
v 2.0000 0.0000 -2.0000
v 2.0000 1.0000 -2.0000
v 2.0000 2.0000 -2.0000
v 2.0000 3.0000 -2.0000
v 2.0000 4.0000 -2.0000
v -4.0000 4.0000 4.0000
v -4.0000 5.0000 4.0000
v -4.0000 5.0000 3.0000
v -4.0000 4.0000 3.0000
v -3.0000 4.0000 4.0000
v -3.0000 5.0000 4.0000
v -3.0000 4.0000 3.0000
v -4.0000 6.0000 4.0000
v -4.0000 6.0000 3.0000
v -3.0000 6.0000 4.0000
v -4.0000 7.0000 4.0000
v -4.0000 7.0000 3.0000
v -3.0000 7.0000 4.0000
v -4.0000 8.0000 4.0000
v -4.0000 8.0000 3.0000
v -3.0000 8.0000 4.0000
v -4.0000 5.0000 2.0000
v -4.0000 4.0000 2.0000
v -3.0000 4.0000 2.0000
v -4.0000 6.0000 2.0000
v -4.0000 7.0000 2.0000
v -4.0000 8.0000 2.0000
v -4.0000 5.0000 1.0000
v -4.0000 4.0000 1.0000
v -3.0000 4.0000 1.0000
v -4.0000 6.0000 1.0000
v -4.0000 7.0000 1.0000
v -4.0000 8.0000 1.0000
v -4.0000 5.0000 0.0000
v -4.0000 4.0000 0.0000
v -3.0000 4.0000 0.0000
v -4.0000 6.0000 0.0000
v -4.0000 7.0000 0.0000
v -4.0000 8.0000 0.0000
v -4.0000 5.0000 -1.0000
v -4.0000 4.0000 -1.0000
v -3.0000 4.0000 -1.0000
v -4.0000 6.0000 -1.0000
v -4.0000 7.0000 -1.0000
v -4.0000 8.0000 -1.0000
v -4.0000 5.0000 -2.0000
v -4.0000 4.0000 -2.0000
v -3.0000 4.0000 -2.0000
v -4.0000 6.0000 -2.0000
v -4.0000 7.0000 -2.0000
v -4.0000 8.0000 -2.0000
v -4.0000 5.0000 -3.0000
v -4.0000 4.0000 -3.0000
v -3.0000 4.0000 -3.0000
v -4.0000 6.0000 -3.0000
v -4.0000 7.0000 -3.0000
v -4.0000 8.0000 -3.0000
v -4.0000 5.0000 -4.0000
v -4.0000 4.0000 -4.0000
v -3.0000 5.0000 -4.0000
v -3.0000 4.0000 -4.0000
v -4.0000 6.0000 -4.0000
v -3.0000 6.0000 -4.0000
v -4.0000 7.0000 -4.0000
v -3.0000 7.0000 -4.0000
v -4.0000 8.0000 -4.0000
v -3.0000 8.0000 -4.0000
v -2.0000 4.0000 4.0000
v -2.0000 5.0000 4.0000
v -2.0000 4.0000 3.0000
v -2.0000 6.0000 4.0000
v -2.0000 7.0000 4.0000
v -2.0000 8.0000 4.0000
v -2.0000 4.0000 -3.0000
v -2.0000 5.0000 -4.0000
v -2.0000 4.0000 -4.0000
v -2.0000 6.0000 -4.0000
v -2.0000 7.0000 -4.0000
v -2.0000 8.0000 -4.0000
v -1.0000 4.0000 4.0000
v -1.0000 5.0000 4.0000
v -1.0000 4.0000 3.0000
v -1.0000 6.0000 4.0000
v -1.0000 7.0000 4.0000
v -1.0000 8.0000 4.0000
v -1.0000 4.0000 -3.0000
v -1.0000 5.0000 -4.0000
v -1.0000 4.0000 -4.0000
v -1.0000 6.0000 -4.0000
v -1.0000 7.0000 -4.0000
v -1.0000 8.0000 -4.0000
v 0.0000 4.0000 4.0000
v 0.0000 5.0000 4.0000
v 0.0000 4.0000 3.0000
v 0.0000 6.0000 4.0000
v 0.0000 7.0000 4.0000
v 0.0000 8.0000 4.0000
v 0.0000 4.0000 -3.0000
v 0.0000 5.0000 -4.0000
v 0.0000 4.0000 -4.0000
v 0.0000 6.0000 -4.0000
v 0.0000 7.0000 -4.0000
v 0.0000 8.0000 -4.0000
v 1.0000 4.0000 4.0000
v 1.0000 5.0000 4.0000
v 1.0000 4.0000 3.0000
v 1.0000 6.0000 4.0000
v 1.0000 7.0000 4.0000
v 1.0000 8.0000 4.0000
v 1.0000 4.0000 -3.0000
v 1.0000 5.0000 -4.0000
v 1.0000 4.0000 -4.0000
v 1.0000 6.0000 -4.0000
v 1.0000 7.0000 -4.0000
v 1.0000 8.0000 -4.0000
v 2.0000 4.0000 4.0000
v 2.0000 5.0000 4.0000
v 2.0000 4.0000 3.0000
v 2.0000 6.0000 4.0000
v 2.0000 7.0000 4.0000
v 2.0000 8.0000 4.0000
v 2.0000 4.0000 -3.0000
v 2.0000 5.0000 -4.0000
v 2.0000 4.0000 -4.0000
v 2.0000 6.0000 -4.0000
v 2.0000 7.0000 -4.0000
v 2.0000 8.0000 -4.0000
v 3.0000 4.0000 4.0000
v 3.0000 5.0000 4.0000
v 3.0000 4.0000 3.0000
v 3.0000 6.0000 4.0000
v 3.0000 7.0000 4.0000
v 3.0000 8.0000 4.0000
v 3.0000 4.0000 2.0000
v 3.0000 4.0000 1.0000
v 3.0000 4.0000 0.0000
v 3.0000 4.0000 -1.0000
v 3.0000 4.0000 -2.0000
v 3.0000 4.0000 -3.0000
v 3.0000 5.0000 -4.0000
v 3.0000 4.0000 -4.0000
v 3.0000 6.0000 -4.0000
v 3.0000 7.0000 -4.0000
v 3.0000 8.0000 -4.0000
v 4.0000 4.0000 4.0000
v 4.0000 4.0000 3.0000
v 4.0000 5.0000 3.0000
v 4.0000 5.0000 4.0000
v 4.0000 6.0000 3.0000
v 4.0000 6.0000 4.0000
v 4.0000 7.0000 3.0000
v 4.0000 7.0000 4.0000
v 4.0000 8.0000 3.0000
v 4.0000 8.0000 4.0000
v 4.0000 4.0000 2.0000
v 4.0000 5.0000 2.0000
v 4.0000 6.0000 2.0000
v 4.0000 7.0000 2.0000
v 4.0000 8.0000 2.0000
v 4.0000 4.0000 1.0000
v 4.0000 5.0000 1.0000
v 4.0000 6.0000 1.0000
v 4.0000 7.0000 1.0000
v 4.0000 8.0000 1.0000
v 4.0000 4.0000 0.0000
v 4.0000 5.0000 0.0000
v 4.0000 6.0000 0.0000
v 4.0000 7.0000 0.0000
v 4.0000 8.0000 0.0000
v 4.0000 4.0000 -1.0000
v 4.0000 5.0000 -1.0000
v 4.0000 6.0000 -1.0000
v 4.0000 7.0000 -1.0000
v 4.0000 8.0000 -1.0000
v 4.0000 4.0000 -2.0000
v 4.0000 5.0000 -2.0000
v 4.0000 6.0000 -2.0000
v 4.0000 7.0000 -2.0000
v 4.0000 8.0000 -2.0000
v 4.0000 4.0000 -3.0000
v 4.0000 5.0000 -3.0000
v 4.0000 6.0000 -3.0000
v 4.0000 7.0000 -3.0000
v 4.0000 8.0000 -3.0000
v 4.0000 4.0000 -4.0000
v 4.0000 5.0000 -4.0000
v 4.0000 6.0000 -4.0000
v 4.0000 7.0000 -4.0000
v 4.0000 8.0000 -4.0000
v -7.0000 8.0000 7.0000
v -7.0000 9.0000 7.0000
v -7.0000 9.0000 6.0000
v -7.0000 8.0000 6.0000
v -6.0000 8.0000 7.0000
v -6.0000 9.0000 7.0000
v -6.0000 8.0000 6.0000
v -7.0000 10.0000 7.0000
v -7.0000 10.0000 6.0000
v -6.0000 10.0000 7.0000
v -7.0000 11.0000 7.0000
v -7.0000 11.0000 6.0000
v -6.0000 11.0000 7.0000
v -7.0000 12.0000 7.0000
v -7.0000 12.0000 6.0000
v -6.0000 12.0000 7.0000
v -7.0000 9.0000 5.0000
v -7.0000 8.0000 5.0000
v -6.0000 8.0000 5.0000
v -7.0000 10.0000 5.0000
v -7.0000 11.0000 5.0000
v -7.0000 12.0000 5.0000
v -7.0000 9.0000 4.0000
v -7.0000 8.0000 4.0000
v -6.0000 8.0000 4.0000
v -7.0000 10.0000 4.0000
v -7.0000 11.0000 4.0000
v -7.0000 12.0000 4.0000
v -7.0000 9.0000 3.0000
v -7.0000 8.0000 3.0000
v -6.0000 8.0000 3.0000
v -7.0000 10.0000 3.0000
v -7.0000 11.0000 3.0000
v -7.0000 12.0000 3.0000
v -7.0000 9.0000 2.0000
v -7.0000 8.0000 2.0000
v -6.0000 8.0000 2.0000
v -7.0000 10.0000 2.0000
v -7.0000 11.0000 2.0000
v -7.0000 12.0000 2.0000
v -7.0000 9.0000 1.0000
v -7.0000 8.0000 1.0000
v -6.0000 8.0000 1.0000
v -7.0000 10.0000 1.0000
v -7.0000 11.0000 1.0000
v -7.0000 12.0000 1.0000
v -7.0000 9.0000 0.0000
v -7.0000 8.0000 0.0000
v -6.0000 8.0000 0.0000
v -7.0000 10.0000 0.0000
v -7.0000 11.0000 0.0000
v -7.0000 12.0000 0.0000
v -7.0000 9.0000 -1.0000
v -7.0000 8.0000 -1.0000
v -6.0000 8.0000 -1.0000
v -7.0000 10.0000 -1.0000
v -7.0000 11.0000 -1.0000
v -7.0000 12.0000 -1.0000
v -7.0000 9.0000 -2.0000
v -7.0000 8.0000 -2.0000
v -6.0000 8.0000 -2.0000
v -7.0000 10.0000 -2.0000
v -7.0000 11.0000 -2.0000
v -7.0000 12.0000 -2.0000
v -7.0000 9.0000 -3.0000
v -7.0000 8.0000 -3.0000
v -6.0000 8.0000 -3.0000
v -7.0000 10.0000 -3.0000
v -7.0000 11.0000 -3.0000
v -7.0000 12.0000 -3.0000
v -7.0000 9.0000 -4.0000
v -7.0000 8.0000 -4.0000
v -6.0000 8.0000 -4.0000
v -7.0000 10.0000 -4.0000
v -7.0000 11.0000 -4.0000
v -7.0000 12.0000 -4.0000
v -7.0000 9.0000 -5.0000
v -7.0000 8.0000 -5.0000
v -6.0000 8.0000 -5.0000
v -7.0000 10.0000 -5.0000
v -7.0000 11.0000 -5.0000
v -7.0000 12.0000 -5.0000
v -7.0000 9.0000 -6.0000
v -7.0000 8.0000 -6.0000
v -6.0000 8.0000 -6.0000
v -7.0000 10.0000 -6.0000
v -7.0000 11.0000 -6.0000
v -7.0000 12.0000 -6.0000
v -7.0000 9.0000 -7.0000
v -7.0000 8.0000 -7.0000
v -6.0000 9.0000 -7.0000
v -6.0000 8.0000 -7.0000
v -7.0000 10.0000 -7.0000
v -6.0000 10.0000 -7.0000
v -7.0000 11.0000 -7.0000
v -6.0000 11.0000 -7.0000
v -7.0000 12.0000 -7.0000
v -6.0000 12.0000 -7.0000
v -5.0000 8.0000 7.0000
v -5.0000 9.0000 7.0000
v -5.0000 8.0000 6.0000
v -5.0000 10.0000 7.0000
v -5.0000 11.0000 7.0000
v -5.0000 12.0000 7.0000
v -5.0000 8.0000 5.0000
v -5.0000 8.0000 4.0000
v -5.0000 8.0000 3.0000
v -5.0000 8.0000 2.0000
v -5.0000 8.0000 1.0000
v -5.0000 8.0000 0.0000
v -5.0000 8.0000 -2.0000
v -5.0000 8.0000 -1.0000
v -5.0000 8.0000 -3.0000
v -5.0000 8.0000 -4.0000
v -5.0000 8.0000 -5.0000
v -5.0000 8.0000 -6.0000
v -5.0000 9.0000 -7.0000
v -5.0000 8.0000 -7.0000
v -5.0000 10.0000 -7.0000
v -5.0000 11.0000 -7.0000
v -5.0000 12.0000 -7.0000
v -4.0000 8.0000 7.0000
v -4.0000 9.0000 7.0000
v -4.0000 8.0000 6.0000
v -4.0000 10.0000 7.0000
v -4.0000 11.0000 7.0000
v -4.0000 12.0000 7.0000
v -4.0000 8.0000 5.0000
v -4.0000 8.0000 -5.0000
v -4.0000 8.0000 -6.0000
v -4.0000 9.0000 -7.0000
v -4.0000 8.0000 -7.0000
v -4.0000 10.0000 -7.0000
v -4.0000 11.0000 -7.0000
v -4.0000 12.0000 -7.0000
v -3.0000 8.0000 7.0000
v -3.0000 9.0000 7.0000
v -3.0000 8.0000 6.0000
v -3.0000 10.0000 7.0000
v -3.0000 11.0000 7.0000
v -3.0000 12.0000 7.0000
v -3.0000 8.0000 5.0000
v -3.0000 8.0000 -5.0000
v -3.0000 8.0000 -6.0000
v -3.0000 9.0000 -7.0000
v -3.0000 8.0000 -7.0000
v -3.0000 10.0000 -7.0000
v -3.0000 11.0000 -7.0000
v -3.0000 12.0000 -7.0000
v -2.0000 8.0000 7.0000
v -2.0000 9.0000 7.0000
v -2.0000 8.0000 6.0000
v -2.0000 10.0000 7.0000
v -2.0000 11.0000 7.0000
v -2.0000 12.0000 7.0000
v -2.0000 8.0000 5.0000
v -2.0000 8.0000 -5.0000
v -2.0000 8.0000 -6.0000
v -2.0000 9.0000 -7.0000
v -2.0000 8.0000 -7.0000
v -2.0000 10.0000 -7.0000
v -2.0000 11.0000 -7.0000
v -2.0000 12.0000 -7.0000
v -1.0000 8.0000 7.0000
v -1.0000 9.0000 7.0000
v -1.0000 8.0000 6.0000
v -1.0000 10.0000 7.0000
v -1.0000 11.0000 7.0000
v -1.0000 12.0000 7.0000
v -1.0000 8.0000 5.0000
v -1.0000 8.0000 -5.0000
v -1.0000 8.0000 -6.0000
v -1.0000 9.0000 -7.0000
v -1.0000 8.0000 -7.0000
v -1.0000 10.0000 -7.0000
v -1.0000 11.0000 -7.0000
v -1.0000 12.0000 -7.0000
v 0.0000 8.0000 7.0000
v 0.0000 9.0000 7.0000
v 0.0000 8.0000 6.0000
v 0.0000 10.0000 7.0000
v 0.0000 11.0000 7.0000
v 0.0000 12.0000 7.0000
v 0.0000 8.0000 5.0000
v 0.0000 8.0000 -5.0000
v 0.0000 8.0000 -6.0000
v 0.0000 9.0000 -7.0000
v 0.0000 8.0000 -7.0000
v 0.0000 10.0000 -7.0000
v 0.0000 11.0000 -7.0000
v 0.0000 12.0000 -7.0000
v 1.0000 8.0000 7.0000
v 1.0000 9.0000 7.0000
v 1.0000 8.0000 6.0000
v 1.0000 10.0000 7.0000
v 1.0000 11.0000 7.0000
v 1.0000 12.0000 7.0000
v 1.0000 8.0000 5.0000
v 1.0000 8.0000 -5.0000
v 1.0000 8.0000 -6.0000
v 1.0000 9.0000 -7.0000
v 1.0000 8.0000 -7.0000
v 1.0000 10.0000 -7.0000
v 1.0000 11.0000 -7.0000
v 1.0000 12.0000 -7.0000
v 2.0000 8.0000 7.0000
v 2.0000 9.0000 7.0000
v 2.0000 8.0000 6.0000
v 2.0000 10.0000 7.0000
v 2.0000 11.0000 7.0000
v 2.0000 12.0000 7.0000
v 2.0000 8.0000 5.0000
v 2.0000 8.0000 -5.0000
v 2.0000 8.0000 -6.0000
v 2.0000 9.0000 -7.0000
v 2.0000 8.0000 -7.0000
v 2.0000 10.0000 -7.0000
v 2.0000 11.0000 -7.0000
v 2.0000 12.0000 -7.0000
v 3.0000 8.0000 7.0000
v 3.0000 9.0000 7.0000
v 3.0000 8.0000 6.0000
v 3.0000 10.0000 7.0000
v 3.0000 11.0000 7.0000
v 3.0000 12.0000 7.0000
v 3.0000 8.0000 5.0000
v 3.0000 8.0000 -5.0000
v 3.0000 8.0000 -6.0000
v 3.0000 9.0000 -7.0000
v 3.0000 8.0000 -7.0000
v 3.0000 10.0000 -7.0000
v 3.0000 11.0000 -7.0000
v 3.0000 12.0000 -7.0000
v 4.0000 8.0000 7.0000
v 4.0000 9.0000 7.0000
v 4.0000 8.0000 6.0000
v 4.0000 10.0000 7.0000
v 4.0000 11.0000 7.0000
v 4.0000 12.0000 7.0000
v 4.0000 8.0000 5.0000
v 4.0000 8.0000 -5.0000
v 4.0000 8.0000 -6.0000
v 4.0000 9.0000 -7.0000
v 4.0000 8.0000 -7.0000
v 4.0000 10.0000 -7.0000
v 4.0000 11.0000 -7.0000
v 4.0000 12.0000 -7.0000
v 5.0000 8.0000 7.0000
v 5.0000 9.0000 7.0000
v 5.0000 8.0000 6.0000
v 5.0000 10.0000 7.0000
v 5.0000 11.0000 7.0000
v 5.0000 12.0000 7.0000
v 5.0000 8.0000 5.0000
v 5.0000 8.0000 4.0000
v 5.0000 8.0000 3.0000
v 5.0000 8.0000 2.0000
v 5.0000 8.0000 1.0000
v 5.0000 8.0000 0.0000
v 5.0000 8.0000 -1.0000
v 5.0000 8.0000 -2.0000
v 5.0000 8.0000 -3.0000
v 5.0000 8.0000 -4.0000
v 5.0000 8.0000 -5.0000
v 5.0000 8.0000 -6.0000
v 5.0000 9.0000 -7.0000
v 5.0000 8.0000 -7.0000
v 5.0000 10.0000 -7.0000
v 5.0000 11.0000 -7.0000
v 5.0000 12.0000 -7.0000
v 6.0000 8.0000 7.0000
v 6.0000 9.0000 7.0000
v 6.0000 8.0000 6.0000
v 6.0000 10.0000 7.0000
v 6.0000 11.0000 7.0000
v 6.0000 12.0000 7.0000
v 6.0000 8.0000 5.0000
v 6.0000 8.0000 4.0000
v 6.0000 8.0000 3.0000
v 6.0000 8.0000 2.0000
v 6.0000 8.0000 1.0000
v 6.0000 8.0000 0.0000
v 6.0000 8.0000 -1.0000
v 6.0000 8.0000 -2.0000
v 6.0000 8.0000 -3.0000
v 6.0000 8.0000 -4.0000
v 6.0000 8.0000 -5.0000
v 6.0000 8.0000 -6.0000
v 6.0000 9.0000 -7.0000
v 6.0000 8.0000 -7.0000
v 6.0000 10.0000 -7.0000
v 6.0000 11.0000 -7.0000
v 6.0000 12.0000 -7.0000
v 7.0000 8.0000 7.0000
v 7.0000 8.0000 6.0000
v 7.0000 9.0000 6.0000
v 7.0000 9.0000 7.0000
v 7.0000 10.0000 6.0000
v 7.0000 10.0000 7.0000
v 7.0000 11.0000 6.0000
v 7.0000 11.0000 7.0000
v 7.0000 12.0000 6.0000
v 7.0000 12.0000 7.0000
v 7.0000 8.0000 5.0000
v 7.0000 9.0000 5.0000
v 7.0000 10.0000 5.0000
v 7.0000 11.0000 5.0000
v 7.0000 12.0000 5.0000
v 7.0000 8.0000 4.0000
v 7.0000 9.0000 4.0000
v 7.0000 10.0000 4.0000
v 7.0000 11.0000 4.0000
v 7.0000 12.0000 4.0000
v 7.0000 8.0000 3.0000
v 7.0000 9.0000 3.0000
v 7.0000 10.0000 3.0000
v 7.0000 11.0000 3.0000
v 7.0000 12.0000 3.0000
v 7.0000 8.0000 2.0000
v 7.0000 9.0000 2.0000
v 7.0000 10.0000 2.0000
v 7.0000 11.0000 2.0000
v 7.0000 12.0000 2.0000
v 7.0000 8.0000 1.0000
v 7.0000 9.0000 1.0000
v 7.0000 10.0000 1.0000
v 7.0000 11.0000 1.0000
v 7.0000 12.0000 1.0000
v 7.0000 8.0000 0.0000
v 7.0000 9.0000 0.0000
v 7.0000 10.0000 0.0000
v 7.0000 11.0000 0.0000
v 7.0000 12.0000 0.0000
v 7.0000 8.0000 -1.0000
v 7.0000 9.0000 -1.0000
v 7.0000 10.0000 -1.0000
v 7.0000 11.0000 -1.0000
v 7.0000 12.0000 -1.0000
v 7.0000 8.0000 -2.0000
v 7.0000 9.0000 -2.0000
v 7.0000 10.0000 -2.0000
v 7.0000 11.0000 -2.0000
v 7.0000 12.0000 -2.0000
v 7.0000 8.0000 -3.0000
v 7.0000 9.0000 -3.0000
v 7.0000 10.0000 -3.0000
v 7.0000 11.0000 -3.0000
v 7.0000 12.0000 -3.0000
v 7.0000 8.0000 -4.0000
v 7.0000 9.0000 -4.0000
v 7.0000 10.0000 -4.0000
v 7.0000 11.0000 -4.0000
v 7.0000 12.0000 -4.0000
v 7.0000 8.0000 -5.0000
v 7.0000 9.0000 -5.0000
v 7.0000 10.0000 -5.0000
v 7.0000 11.0000 -5.0000
v 7.0000 12.0000 -5.0000
v 7.0000 8.0000 -6.0000
v 7.0000 9.0000 -6.0000
v 7.0000 10.0000 -6.0000
v 7.0000 11.0000 -6.0000
v 7.0000 12.0000 -6.0000
v 7.0000 8.0000 -7.0000
v 7.0000 9.0000 -7.0000
v 7.0000 10.0000 -7.0000
v 7.0000 11.0000 -7.0000
v 7.0000 12.0000 -7.0000
v -9.0000 12.0000 9.0000
v -9.0000 13.0000 9.0000
v -9.0000 13.0000 8.0000
v -9.0000 12.0000 8.0000
v -8.0000 12.0000 9.0000
v -8.0000 13.0000 9.0000
v -8.0000 12.0000 8.0000
v -9.0000 14.0000 9.0000
v -9.0000 14.0000 8.0000
v -8.0000 14.0000 9.0000
v -9.0000 15.0000 9.0000
v -9.0000 15.0000 8.0000
v -8.0000 15.0000 9.0000
v -9.0000 16.0000 9.0000
v -9.0000 16.0000 8.0000
v -8.0000 16.0000 9.0000
v -9.0000 17.0000 9.0000
v -9.0000 17.0000 8.0000
v -8.0000 17.0000 9.0000
v -8.0000 17.0000 8.0000
v -9.0000 13.0000 7.0000
v -9.0000 12.0000 7.0000
v -8.0000 12.0000 7.0000
v -9.0000 14.0000 7.0000
v -9.0000 15.0000 7.0000
v -9.0000 16.0000 7.0000
v -9.0000 17.0000 7.0000
v -8.0000 17.0000 7.0000
v -9.0000 13.0000 6.0000
v -9.0000 12.0000 6.0000
v -8.0000 12.0000 6.0000
v -9.0000 14.0000 6.0000
v -9.0000 15.0000 6.0000
v -9.0000 16.0000 6.0000
v -9.0000 17.0000 6.0000
v -8.0000 17.0000 6.0000
v -9.0000 13.0000 5.0000
v -9.0000 12.0000 5.0000
v -8.0000 12.0000 5.0000
v -9.0000 14.0000 5.0000
v -9.0000 15.0000 5.0000
v -9.0000 16.0000 5.0000
v -9.0000 17.0000 5.0000
v -8.0000 17.0000 5.0000
v -9.0000 13.0000 4.0000
v -9.0000 12.0000 4.0000
v -8.0000 12.0000 4.0000
v -9.0000 14.0000 4.0000
v -9.0000 15.0000 4.0000
v -9.0000 16.0000 4.0000
v -9.0000 17.0000 4.0000
v -8.0000 17.0000 4.0000
v -9.0000 13.0000 3.0000
v -9.0000 12.0000 3.0000
v -8.0000 12.0000 3.0000
v -9.0000 14.0000 3.0000
v -9.0000 15.0000 3.0000
v -9.0000 16.0000 3.0000
v -9.0000 17.0000 3.0000
v -8.0000 17.0000 3.0000
v -9.0000 13.0000 2.0000
v -9.0000 12.0000 2.0000
v -8.0000 12.0000 2.0000
v -9.0000 14.0000 2.0000
v -9.0000 15.0000 2.0000
v -9.0000 16.0000 2.0000
v -9.0000 17.0000 2.0000
v -8.0000 17.0000 2.0000
v -9.0000 13.0000 1.0000
v -9.0000 12.0000 1.0000
v -8.0000 12.0000 1.0000
v -9.0000 14.0000 1.0000
v -9.0000 15.0000 1.0000
v -9.0000 16.0000 1.0000
v -9.0000 17.0000 1.0000
v -8.0000 17.0000 1.0000
v -9.0000 13.0000 0.0000
v -9.0000 12.0000 0.0000
v -8.0000 12.0000 0.0000
v -9.0000 14.0000 0.0000
v -9.0000 15.0000 0.0000
v -9.0000 16.0000 0.0000
v -9.0000 17.0000 0.0000
v -8.0000 17.0000 0.0000
v -9.0000 13.0000 -1.0000
v -9.0000 12.0000 -1.0000
v -8.0000 12.0000 -1.0000
v -9.0000 14.0000 -1.0000
v -9.0000 15.0000 -1.0000
v -9.0000 16.0000 -1.0000
v -9.0000 17.0000 -1.0000
v -8.0000 17.0000 -1.0000
v -9.0000 13.0000 -2.0000
v -9.0000 12.0000 -2.0000
v -8.0000 12.0000 -2.0000
v -9.0000 14.0000 -2.0000
v -9.0000 15.0000 -2.0000
v -9.0000 16.0000 -2.0000
v -9.0000 17.0000 -2.0000
v -8.0000 17.0000 -2.0000
v -9.0000 13.0000 -3.0000
v -9.0000 12.0000 -3.0000
v -8.0000 12.0000 -3.0000
v -9.0000 14.0000 -3.0000
v -9.0000 15.0000 -3.0000
v -9.0000 16.0000 -3.0000
v -9.0000 17.0000 -3.0000
v -8.0000 17.0000 -3.0000
v -9.0000 13.0000 -4.0000
v -9.0000 12.0000 -4.0000
v -8.0000 12.0000 -4.0000
v -9.0000 14.0000 -4.0000
v -9.0000 15.0000 -4.0000
v -9.0000 16.0000 -4.0000
v -9.0000 17.0000 -4.0000
v -8.0000 17.0000 -4.0000
v -9.0000 13.0000 -5.0000
v -9.0000 12.0000 -5.0000
v -8.0000 12.0000 -5.0000
v -9.0000 14.0000 -5.0000
v -9.0000 15.0000 -5.0000
v -9.0000 16.0000 -5.0000
v -9.0000 17.0000 -5.0000
v -8.0000 17.0000 -5.0000
v -9.0000 13.0000 -6.0000
v -9.0000 12.0000 -6.0000
v -8.0000 12.0000 -6.0000
v -9.0000 14.0000 -6.0000
v -9.0000 15.0000 -6.0000
v -9.0000 16.0000 -6.0000
v -9.0000 17.0000 -6.0000
v -8.0000 17.0000 -6.0000
v -9.0000 13.0000 -7.0000
v -9.0000 12.0000 -7.0000
v -8.0000 12.0000 -7.0000
v -9.0000 14.0000 -7.0000
v -9.0000 15.0000 -7.0000
v -9.0000 16.0000 -7.0000
v -9.0000 17.0000 -7.0000
v -8.0000 17.0000 -7.0000
v -9.0000 13.0000 -8.0000
v -9.0000 12.0000 -8.0000
v -8.0000 12.0000 -8.0000
v -9.0000 14.0000 -8.0000
v -9.0000 15.0000 -8.0000
v -9.0000 16.0000 -8.0000
v -9.0000 17.0000 -8.0000
v -8.0000 17.0000 -8.0000
v -9.0000 13.0000 -9.0000
v -9.0000 12.0000 -9.0000
v -8.0000 13.0000 -9.0000
v -8.0000 12.0000 -9.0000
v -9.0000 14.0000 -9.0000
v -8.0000 14.0000 -9.0000
v -9.0000 15.0000 -9.0000
v -8.0000 15.0000 -9.0000
v -9.0000 16.0000 -9.0000
v -8.0000 16.0000 -9.0000
v -9.0000 17.0000 -9.0000
v -8.0000 17.0000 -9.0000
v -7.0000 12.0000 9.0000
v -7.0000 13.0000 9.0000
v -7.0000 12.0000 8.0000
v -7.0000 14.0000 9.0000
v -7.0000 15.0000 9.0000
v -7.0000 16.0000 9.0000
v -7.0000 17.0000 9.0000
v -7.0000 17.0000 8.0000
v -7.0000 17.0000 7.0000
v -7.0000 17.0000 6.0000
v -7.0000 17.0000 5.0000
v -7.0000 17.0000 4.0000
v -7.0000 17.0000 3.0000
v -7.0000 17.0000 2.0000
v -7.0000 17.0000 1.0000
v -7.0000 17.0000 0.0000
v -7.0000 17.0000 -1.0000
v -7.0000 17.0000 -2.0000
v -7.0000 17.0000 -3.0000
v -7.0000 17.0000 -4.0000
v -7.0000 17.0000 -5.0000
v -7.0000 17.0000 -6.0000
v -7.0000 17.0000 -7.0000
v -7.0000 12.0000 -8.0000
v -7.0000 17.0000 -8.0000
v -7.0000 13.0000 -9.0000
v -7.0000 12.0000 -9.0000
v -7.0000 14.0000 -9.0000
v -7.0000 15.0000 -9.0000
v -7.0000 16.0000 -9.0000
v -7.0000 17.0000 -9.0000
v -6.0000 12.0000 9.0000
v -6.0000 13.0000 9.0000
v -6.0000 12.0000 8.0000
v -6.0000 14.0000 9.0000
v -6.0000 15.0000 9.0000
v -6.0000 16.0000 9.0000
v -6.0000 17.0000 9.0000
v -6.0000 17.0000 8.0000
v -6.0000 17.0000 7.0000
v -6.0000 12.0000 -8.0000
v -6.0000 17.0000 -7.0000
v -6.0000 17.0000 -8.0000
v -6.0000 13.0000 -9.0000
v -6.0000 12.0000 -9.0000
v -6.0000 14.0000 -9.0000
v -6.0000 15.0000 -9.0000
v -6.0000 16.0000 -9.0000
v -6.0000 17.0000 -9.0000
v -5.0000 12.0000 9.0000
v -5.0000 13.0000 9.0000
v -5.0000 12.0000 8.0000
v -5.0000 14.0000 9.0000
v -5.0000 15.0000 9.0000
v -5.0000 16.0000 9.0000
v -5.0000 17.0000 9.0000
v -5.0000 17.0000 8.0000
v -5.0000 17.0000 7.0000
v -5.0000 12.0000 -8.0000
v -5.0000 17.0000 -7.0000
v -5.0000 17.0000 -8.0000
v -5.0000 13.0000 -9.0000
v -5.0000 12.0000 -9.0000
v -5.0000 14.0000 -9.0000
v -5.0000 15.0000 -9.0000
v -5.0000 16.0000 -9.0000
v -5.0000 17.0000 -9.0000
v -4.0000 12.0000 9.0000
v -4.0000 13.0000 9.0000
v -4.0000 12.0000 8.0000
v -4.0000 14.0000 9.0000
v -4.0000 15.0000 9.0000
v -4.0000 16.0000 9.0000
v -4.0000 17.0000 9.0000
v -4.0000 17.0000 8.0000
v -4.0000 17.0000 7.0000
v -4.0000 12.0000 -8.0000
v -4.0000 17.0000 -7.0000
v -4.0000 17.0000 -8.0000
v -4.0000 13.0000 -9.0000
v -4.0000 12.0000 -9.0000
v -4.0000 14.0000 -9.0000
v -4.0000 15.0000 -9.0000
v -4.0000 16.0000 -9.0000
v -4.0000 17.0000 -9.0000
v -3.0000 12.0000 9.0000
v -3.0000 13.0000 9.0000
v -3.0000 12.0000 8.0000
v -3.0000 14.0000 9.0000
v -3.0000 15.0000 9.0000
v -3.0000 16.0000 9.0000
v -3.0000 17.0000 9.0000
v -3.0000 17.0000 8.0000
v -3.0000 17.0000 7.0000
v -3.0000 12.0000 -8.0000
v -3.0000 17.0000 -7.0000
v -3.0000 17.0000 -8.0000
v -3.0000 13.0000 -9.0000
v -3.0000 12.0000 -9.0000
v -3.0000 14.0000 -9.0000
v -3.0000 15.0000 -9.0000
v -3.0000 16.0000 -9.0000
v -3.0000 17.0000 -9.0000
v -2.0000 12.0000 9.0000
v -2.0000 13.0000 9.0000
v -2.0000 12.0000 8.0000
v -2.0000 14.0000 9.0000
v -2.0000 15.0000 9.0000
v -2.0000 16.0000 9.0000
v -2.0000 17.0000 9.0000
v -2.0000 17.0000 8.0000
v -2.0000 17.0000 7.0000
v -2.0000 12.0000 -8.0000
v -2.0000 17.0000 -7.0000
v -2.0000 17.0000 -8.0000
v -2.0000 13.0000 -9.0000
v -2.0000 12.0000 -9.0000
v -2.0000 14.0000 -9.0000
v -2.0000 15.0000 -9.0000
v -2.0000 16.0000 -9.0000
v -2.0000 17.0000 -9.0000
v -1.0000 12.0000 9.0000
v -1.0000 13.0000 9.0000
v -1.0000 12.0000 8.0000
v -1.0000 14.0000 9.0000
v -1.0000 15.0000 9.0000
v -1.0000 16.0000 9.0000
v -1.0000 17.0000 9.0000
v -1.0000 17.0000 8.0000
v -1.0000 17.0000 7.0000
v -1.0000 12.0000 -8.0000
v -1.0000 17.0000 -7.0000
v -1.0000 17.0000 -8.0000
v -1.0000 13.0000 -9.0000
v -1.0000 12.0000 -9.0000
v -1.0000 14.0000 -9.0000
v -1.0000 15.0000 -9.0000
v -1.0000 16.0000 -9.0000
v -1.0000 17.0000 -9.0000
v 0.0000 12.0000 9.0000
v 0.0000 13.0000 9.0000
v 0.0000 12.0000 8.0000
v 0.0000 14.0000 9.0000
v 0.0000 15.0000 9.0000
v 0.0000 16.0000 9.0000
v 0.0000 17.0000 9.0000
v 0.0000 17.0000 8.0000
v 0.0000 17.0000 7.0000
v 0.0000 12.0000 -8.0000
v 0.0000 17.0000 -7.0000
v 0.0000 17.0000 -8.0000
v 0.0000 13.0000 -9.0000
v 0.0000 12.0000 -9.0000
v 0.0000 14.0000 -9.0000
v 0.0000 15.0000 -9.0000
v 0.0000 16.0000 -9.0000
v 0.0000 17.0000 -9.0000
v 1.0000 12.0000 9.0000
v 1.0000 13.0000 9.0000
v 1.0000 12.0000 8.0000
v 1.0000 14.0000 9.0000
v 1.0000 15.0000 9.0000
v 1.0000 16.0000 9.0000
v 1.0000 17.0000 9.0000
v 1.0000 17.0000 8.0000
v 1.0000 17.0000 7.0000
v 1.0000 12.0000 -8.0000
v 1.0000 17.0000 -7.0000
v 1.0000 17.0000 -8.0000
v 1.0000 13.0000 -9.0000
v 1.0000 12.0000 -9.0000
v 1.0000 14.0000 -9.0000
v 1.0000 15.0000 -9.0000
v 1.0000 16.0000 -9.0000
v 1.0000 17.0000 -9.0000
v 2.0000 12.0000 9.0000
v 2.0000 13.0000 9.0000
v 2.0000 12.0000 8.0000
v 2.0000 14.0000 9.0000
v 2.0000 15.0000 9.0000
v 2.0000 16.0000 9.0000
v 2.0000 17.0000 9.0000
v 2.0000 17.0000 8.0000
v 2.0000 17.0000 7.0000
v 2.0000 12.0000 -8.0000
v 2.0000 17.0000 -7.0000
v 2.0000 17.0000 -8.0000
v 2.0000 13.0000 -9.0000
v 2.0000 12.0000 -9.0000
v 2.0000 14.0000 -9.0000
v 2.0000 15.0000 -9.0000
v 2.0000 16.0000 -9.0000
v 2.0000 17.0000 -9.0000
v 3.0000 12.0000 9.0000
v 3.0000 13.0000 9.0000
v 3.0000 12.0000 8.0000
v 3.0000 14.0000 9.0000
v 3.0000 15.0000 9.0000
v 3.0000 16.0000 9.0000
v 3.0000 17.0000 9.0000
v 3.0000 17.0000 8.0000
v 3.0000 17.0000 7.0000
v 3.0000 12.0000 -8.0000
v 3.0000 17.0000 -7.0000
v 3.0000 17.0000 -8.0000
v 3.0000 13.0000 -9.0000
v 3.0000 12.0000 -9.0000
v 3.0000 14.0000 -9.0000
v 3.0000 15.0000 -9.0000
v 3.0000 16.0000 -9.0000
v 3.0000 17.0000 -9.0000
v 4.0000 12.0000 9.0000
v 4.0000 13.0000 9.0000
v 4.0000 12.0000 8.0000
v 4.0000 14.0000 9.0000
v 4.0000 15.0000 9.0000
v 4.0000 16.0000 9.0000
v 4.0000 17.0000 9.0000
v 4.0000 17.0000 8.0000
v 4.0000 17.0000 7.0000
v 4.0000 12.0000 -8.0000
v 4.0000 17.0000 -7.0000
v 4.0000 17.0000 -8.0000
v 4.0000 13.0000 -9.0000
v 4.0000 12.0000 -9.0000
v 4.0000 14.0000 -9.0000
v 4.0000 15.0000 -9.0000
v 4.0000 16.0000 -9.0000
v 4.0000 17.0000 -9.0000
v 5.0000 12.0000 9.0000
v 5.0000 13.0000 9.0000
v 5.0000 12.0000 8.0000
v 5.0000 14.0000 9.0000
v 5.0000 15.0000 9.0000
v 5.0000 16.0000 9.0000
v 5.0000 17.0000 9.0000
v 5.0000 17.0000 8.0000
v 5.0000 17.0000 7.0000
v 5.0000 12.0000 -8.0000
v 5.0000 17.0000 -7.0000
v 5.0000 17.0000 -8.0000
v 5.0000 13.0000 -9.0000
v 5.0000 12.0000 -9.0000
v 5.0000 14.0000 -9.0000
v 5.0000 15.0000 -9.0000
v 5.0000 16.0000 -9.0000
v 5.0000 17.0000 -9.0000
v 6.0000 12.0000 9.0000
v 6.0000 13.0000 9.0000
v 6.0000 12.0000 8.0000
v 6.0000 14.0000 9.0000
v 6.0000 15.0000 9.0000
v 6.0000 16.0000 9.0000
v 6.0000 17.0000 9.0000
v 6.0000 17.0000 8.0000
v 6.0000 17.0000 7.0000
v 6.0000 12.0000 -8.0000
v 6.0000 17.0000 -7.0000
v 6.0000 17.0000 -8.0000
v 6.0000 13.0000 -9.0000
v 6.0000 12.0000 -9.0000
v 6.0000 14.0000 -9.0000
v 6.0000 15.0000 -9.0000
v 6.0000 16.0000 -9.0000
v 6.0000 17.0000 -9.0000
v 7.0000 12.0000 9.0000
v 7.0000 13.0000 9.0000
v 7.0000 12.0000 8.0000
v 7.0000 14.0000 9.0000
v 7.0000 15.0000 9.0000
v 7.0000 16.0000 9.0000
v 7.0000 17.0000 9.0000
v 7.0000 17.0000 8.0000
v 7.0000 17.0000 7.0000
v 7.0000 12.0000 -8.0000
v 7.0000 17.0000 -7.0000
v 7.0000 17.0000 -8.0000
v 7.0000 13.0000 -9.0000
v 7.0000 12.0000 -9.0000
v 7.0000 14.0000 -9.0000
v 7.0000 15.0000 -9.0000
v 7.0000 16.0000 -9.0000
v 7.0000 17.0000 -9.0000
v 8.0000 12.0000 9.0000
v 8.0000 13.0000 9.0000
v 8.0000 12.0000 8.0000
v 8.0000 14.0000 9.0000
v 8.0000 15.0000 9.0000
v 8.0000 16.0000 9.0000
v 8.0000 17.0000 9.0000
v 8.0000 17.0000 8.0000
v 8.0000 12.0000 7.0000
v 8.0000 17.0000 7.0000
v 8.0000 12.0000 6.0000
v 8.0000 17.0000 6.0000
v 7.0000 17.0000 6.0000
v 8.0000 12.0000 5.0000
v 8.0000 17.0000 5.0000
v 7.0000 17.0000 5.0000
v 8.0000 12.0000 4.0000
v 8.0000 17.0000 4.0000
v 7.0000 17.0000 4.0000
v 8.0000 12.0000 3.0000
v 8.0000 17.0000 3.0000
v 7.0000 17.0000 3.0000
v 8.0000 12.0000 2.0000
v 8.0000 17.0000 2.0000
v 7.0000 17.0000 2.0000
v 8.0000 12.0000 1.0000
v 8.0000 17.0000 1.0000
v 7.0000 17.0000 1.0000
v 8.0000 12.0000 0.0000
v 8.0000 17.0000 0.0000
v 7.0000 17.0000 0.0000
v 8.0000 12.0000 -1.0000
v 8.0000 17.0000 -1.0000
v 7.0000 17.0000 -1.0000
v 8.0000 12.0000 -2.0000
v 8.0000 17.0000 -2.0000
v 7.0000 17.0000 -2.0000
v 8.0000 12.0000 -3.0000
v 8.0000 17.0000 -3.0000
v 7.0000 17.0000 -3.0000
v 8.0000 12.0000 -4.0000
v 8.0000 17.0000 -4.0000
v 7.0000 17.0000 -4.0000
v 8.0000 12.0000 -5.0000
v 8.0000 17.0000 -5.0000
v 7.0000 17.0000 -5.0000
v 8.0000 12.0000 -6.0000
v 8.0000 17.0000 -6.0000
v 7.0000 17.0000 -6.0000
v 8.0000 12.0000 -7.0000
v 8.0000 17.0000 -7.0000
v 8.0000 12.0000 -8.0000
v 8.0000 17.0000 -8.0000
v 8.0000 13.0000 -9.0000
v 8.0000 12.0000 -9.0000
v 8.0000 14.0000 -9.0000
v 8.0000 15.0000 -9.0000
v 8.0000 16.0000 -9.0000
v 8.0000 17.0000 -9.0000
v 9.0000 12.0000 9.0000
v 9.0000 12.0000 8.0000
v 9.0000 13.0000 8.0000
v 9.0000 13.0000 9.0000
v 9.0000 14.0000 8.0000
v 9.0000 14.0000 9.0000
v 9.0000 15.0000 8.0000
v 9.0000 15.0000 9.0000
v 9.0000 16.0000 8.0000
v 9.0000 16.0000 9.0000
v 9.0000 17.0000 8.0000
v 9.0000 17.0000 9.0000
v 9.0000 12.0000 7.0000
v 9.0000 13.0000 7.0000
v 9.0000 14.0000 7.0000
v 9.0000 15.0000 7.0000
v 9.0000 16.0000 7.0000
v 9.0000 17.0000 7.0000
v 9.0000 12.0000 6.0000
v 9.0000 13.0000 6.0000
v 9.0000 14.0000 6.0000
v 9.0000 15.0000 6.0000
v 9.0000 16.0000 6.0000
v 9.0000 17.0000 6.0000
v 9.0000 12.0000 5.0000
v 9.0000 13.0000 5.0000
v 9.0000 14.0000 5.0000
v 9.0000 15.0000 5.0000
v 9.0000 16.0000 5.0000
v 9.0000 17.0000 5.0000
v 9.0000 12.0000 4.0000
v 9.0000 13.0000 4.0000
v 9.0000 14.0000 4.0000
v 9.0000 15.0000 4.0000
v 9.0000 16.0000 4.0000
v 9.0000 17.0000 4.0000
v 9.0000 12.0000 3.0000
v 9.0000 13.0000 3.0000
v 9.0000 14.0000 3.0000
v 9.0000 15.0000 3.0000
v 9.0000 16.0000 3.0000
v 9.0000 17.0000 3.0000
v 9.0000 12.0000 2.0000
v 9.0000 13.0000 2.0000
v 9.0000 14.0000 2.0000
v 9.0000 15.0000 2.0000
v 9.0000 16.0000 2.0000
v 9.0000 17.0000 2.0000
v 9.0000 12.0000 1.0000
v 9.0000 13.0000 1.0000
v 9.0000 14.0000 1.0000
v 9.0000 15.0000 1.0000
v 9.0000 16.0000 1.0000
v 9.0000 17.0000 1.0000
v 9.0000 12.0000 0.0000
v 9.0000 13.0000 0.0000
v 9.0000 14.0000 0.0000
v 9.0000 15.0000 0.0000
v 9.0000 16.0000 0.0000
v 9.0000 17.0000 0.0000
v 9.0000 12.0000 -1.0000
v 9.0000 13.0000 -1.0000
v 9.0000 14.0000 -1.0000
v 9.0000 15.0000 -1.0000
v 9.0000 16.0000 -1.0000
v 9.0000 17.0000 -1.0000
v 9.0000 12.0000 -2.0000
v 9.0000 13.0000 -2.0000
v 9.0000 14.0000 -2.0000
v 9.0000 15.0000 -2.0000
v 9.0000 16.0000 -2.0000
v 9.0000 17.0000 -2.0000
v 9.0000 12.0000 -3.0000
v 9.0000 13.0000 -3.0000
v 9.0000 14.0000 -3.0000
v 9.0000 15.0000 -3.0000
v 9.0000 16.0000 -3.0000
v 9.0000 17.0000 -3.0000
v 9.0000 12.0000 -4.0000
v 9.0000 13.0000 -4.0000
v 9.0000 14.0000 -4.0000
v 9.0000 15.0000 -4.0000
v 9.0000 16.0000 -4.0000
v 9.0000 17.0000 -4.0000
v 9.0000 12.0000 -5.0000
v 9.0000 13.0000 -5.0000
v 9.0000 14.0000 -5.0000
v 9.0000 15.0000 -5.0000
v 9.0000 16.0000 -5.0000
v 9.0000 17.0000 -5.0000
v 9.0000 12.0000 -6.0000
v 9.0000 13.0000 -6.0000
v 9.0000 14.0000 -6.0000
v 9.0000 15.0000 -6.0000
v 9.0000 16.0000 -6.0000
v 9.0000 17.0000 -6.0000
v 9.0000 12.0000 -7.0000
v 9.0000 13.0000 -7.0000
v 9.0000 14.0000 -7.0000
v 9.0000 15.0000 -7.0000
v 9.0000 16.0000 -7.0000
v 9.0000 17.0000 -7.0000
v 9.0000 12.0000 -8.0000
v 9.0000 13.0000 -8.0000
v 9.0000 14.0000 -8.0000
v 9.0000 15.0000 -8.0000
v 9.0000 16.0000 -8.0000
v 9.0000 17.0000 -8.0000
v 9.0000 12.0000 -9.0000
v 9.0000 13.0000 -9.0000
v 9.0000 14.0000 -9.0000
v 9.0000 15.0000 -9.0000
v 9.0000 16.0000 -9.0000
v 9.0000 17.0000 -9.0000
v -7.0000 18.0000 7.0000
v -7.0000 18.0000 6.0000
v -6.0000 18.0000 7.0000
v -7.0000 19.0000 7.0000
v -7.0000 19.0000 6.0000
v -6.0000 19.0000 7.0000
v -7.0000 20.0000 7.0000
v -7.0000 20.0000 6.0000
v -6.0000 20.0000 7.0000
v -7.0000 21.0000 7.0000
v -7.0000 21.0000 6.0000
v -6.0000 21.0000 7.0000
v -6.0000 21.0000 6.0000
v -7.0000 18.0000 5.0000
v -7.0000 19.0000 5.0000
v -7.0000 20.0000 5.0000
v -7.0000 21.0000 5.0000
v -6.0000 21.0000 5.0000
v -7.0000 18.0000 4.0000
v -7.0000 19.0000 4.0000
v -7.0000 20.0000 4.0000
v -7.0000 21.0000 4.0000
v -6.0000 21.0000 4.0000
v -7.0000 18.0000 3.0000
v -7.0000 19.0000 3.0000
v -7.0000 20.0000 3.0000
v -7.0000 21.0000 3.0000
v -6.0000 21.0000 3.0000
v -7.0000 18.0000 2.0000
v -7.0000 19.0000 2.0000
v -7.0000 20.0000 2.0000
v -7.0000 21.0000 2.0000
v -6.0000 21.0000 2.0000
v -7.0000 18.0000 1.0000
v -7.0000 19.0000 1.0000
v -7.0000 20.0000 1.0000
v -7.0000 21.0000 1.0000
v -6.0000 21.0000 1.0000
v -7.0000 18.0000 0.0000
v -7.0000 19.0000 0.0000
v -7.0000 20.0000 0.0000
v -7.0000 21.0000 0.0000
v -6.0000 21.0000 0.0000
v -7.0000 18.0000 -1.0000
v -7.0000 19.0000 -1.0000
v -7.0000 20.0000 -1.0000
v -7.0000 21.0000 -1.0000
v -6.0000 21.0000 -1.0000
v -7.0000 18.0000 -2.0000
v -7.0000 19.0000 -2.0000
v -7.0000 20.0000 -2.0000
v -7.0000 21.0000 -2.0000
v -6.0000 21.0000 -2.0000
v -7.0000 18.0000 -3.0000
v -7.0000 19.0000 -3.0000
v -7.0000 20.0000 -3.0000
v -7.0000 21.0000 -3.0000
v -6.0000 21.0000 -3.0000
v -7.0000 18.0000 -4.0000
v -7.0000 19.0000 -4.0000
v -7.0000 20.0000 -4.0000
v -7.0000 21.0000 -4.0000
v -6.0000 21.0000 -4.0000
v -7.0000 18.0000 -5.0000
v -7.0000 19.0000 -5.0000
v -7.0000 20.0000 -5.0000
v -7.0000 21.0000 -5.0000
v -6.0000 21.0000 -5.0000
v -7.0000 18.0000 -6.0000
v -7.0000 19.0000 -6.0000
v -7.0000 20.0000 -6.0000
v -7.0000 21.0000 -6.0000
v -6.0000 21.0000 -6.0000
v -7.0000 18.0000 -7.0000
v -6.0000 18.0000 -7.0000
v -7.0000 19.0000 -7.0000
v -6.0000 19.0000 -7.0000
v -7.0000 20.0000 -7.0000
v -6.0000 20.0000 -7.0000
v -7.0000 21.0000 -7.0000
v -6.0000 21.0000 -7.0000
v -5.0000 18.0000 7.0000
v -5.0000 19.0000 7.0000
v -5.0000 20.0000 7.0000
v -5.0000 21.0000 7.0000
v -5.0000 21.0000 6.0000
v -5.0000 21.0000 5.0000
v -5.0000 21.0000 4.0000
v -5.0000 21.0000 3.0000
v -5.0000 21.0000 2.0000
v -5.0000 21.0000 1.0000
v -5.0000 21.0000 0.0000
v -5.0000 21.0000 -1.0000
v -5.0000 21.0000 -2.0000
v -5.0000 21.0000 -3.0000
v -5.0000 21.0000 -4.0000
v -5.0000 21.0000 -5.0000
v -5.0000 21.0000 -6.0000
v -5.0000 18.0000 -7.0000
v -5.0000 19.0000 -7.0000
v -5.0000 20.0000 -7.0000
v -5.0000 21.0000 -7.0000
v -4.0000 18.0000 7.0000
v -4.0000 19.0000 7.0000
v -4.0000 20.0000 7.0000
v -4.0000 21.0000 7.0000
v -4.0000 21.0000 6.0000
v -4.0000 21.0000 5.0000
v -4.0000 21.0000 4.0000
v -4.0000 21.0000 3.0000
v -4.0000 21.0000 2.0000
v -4.0000 21.0000 1.0000
v -4.0000 21.0000 0.0000
v -4.0000 21.0000 -1.0000
v -4.0000 21.0000 -2.0000
v -4.0000 21.0000 -3.0000
v -4.0000 21.0000 -4.0000
v -4.0000 21.0000 -5.0000
v -4.0000 21.0000 -6.0000
v -4.0000 18.0000 -7.0000
v -4.0000 19.0000 -7.0000
v -4.0000 20.0000 -7.0000
v -4.0000 21.0000 -7.0000
v -3.0000 18.0000 7.0000
v -3.0000 19.0000 7.0000
v -3.0000 20.0000 7.0000
v -3.0000 21.0000 7.0000
v -3.0000 21.0000 6.0000
v -3.0000 21.0000 5.0000
v -3.0000 21.0000 4.0000
v -3.0000 21.0000 -4.0000
v -3.0000 21.0000 -5.0000
v -3.0000 21.0000 -6.0000
v -3.0000 18.0000 -7.0000
v -3.0000 19.0000 -7.0000
v -3.0000 20.0000 -7.0000
v -3.0000 21.0000 -7.0000
v -2.0000 18.0000 7.0000
v -2.0000 19.0000 7.0000
v -2.0000 20.0000 7.0000
v -2.0000 21.0000 7.0000
v -2.0000 21.0000 6.0000
v -2.0000 21.0000 5.0000
v -2.0000 21.0000 4.0000
v -2.0000 21.0000 -4.0000
v -2.0000 21.0000 -5.0000
v -2.0000 21.0000 -6.0000
v -2.0000 18.0000 -7.0000
v -2.0000 19.0000 -7.0000
v -2.0000 20.0000 -7.0000
v -2.0000 21.0000 -7.0000
v -1.0000 18.0000 7.0000
v -1.0000 19.0000 7.0000
v -1.0000 20.0000 7.0000
v -1.0000 21.0000 7.0000
v -1.0000 21.0000 6.0000
v -1.0000 21.0000 5.0000
v -1.0000 21.0000 4.0000
v -1.0000 21.0000 -4.0000
v -1.0000 21.0000 -5.0000
v -1.0000 21.0000 -6.0000
v -1.0000 18.0000 -7.0000
v -1.0000 19.0000 -7.0000
v -1.0000 20.0000 -7.0000
v -1.0000 21.0000 -7.0000
v 0.0000 18.0000 7.0000
v 0.0000 19.0000 7.0000
v 0.0000 20.0000 7.0000
v 0.0000 21.0000 7.0000
v 0.0000 21.0000 6.0000
v 0.0000 21.0000 5.0000
v 0.0000 21.0000 4.0000
v 0.0000 21.0000 -4.0000
v 0.0000 21.0000 -5.0000
v 0.0000 21.0000 -6.0000
v 0.0000 18.0000 -7.0000
v 0.0000 19.0000 -7.0000
v 0.0000 20.0000 -7.0000
v 0.0000 21.0000 -7.0000
v 1.0000 18.0000 7.0000
v 1.0000 19.0000 7.0000
v 1.0000 20.0000 7.0000
v 1.0000 21.0000 7.0000
v 1.0000 21.0000 6.0000
v 1.0000 21.0000 5.0000
v 1.0000 21.0000 4.0000
v 1.0000 21.0000 -4.0000
v 1.0000 21.0000 -5.0000
v 1.0000 21.0000 -6.0000
v 1.0000 18.0000 -7.0000
v 1.0000 19.0000 -7.0000
v 1.0000 20.0000 -7.0000
v 1.0000 21.0000 -7.0000
v 2.0000 18.0000 7.0000
v 2.0000 19.0000 7.0000
v 2.0000 20.0000 7.0000
v 2.0000 21.0000 7.0000
v 2.0000 21.0000 6.0000
v 2.0000 21.0000 5.0000
v 2.0000 21.0000 4.0000
v 2.0000 21.0000 -4.0000
v 2.0000 21.0000 -5.0000
v 2.0000 21.0000 -6.0000
v 2.0000 18.0000 -7.0000
v 2.0000 19.0000 -7.0000
v 2.0000 20.0000 -7.0000
v 2.0000 21.0000 -7.0000
v 3.0000 18.0000 7.0000
v 3.0000 19.0000 7.0000
v 3.0000 20.0000 7.0000
v 3.0000 21.0000 7.0000
v 3.0000 21.0000 6.0000
v 3.0000 21.0000 5.0000
v 3.0000 21.0000 4.0000
v 3.0000 21.0000 -4.0000
v 3.0000 21.0000 -5.0000
v 3.0000 21.0000 -6.0000
v 3.0000 18.0000 -7.0000
v 3.0000 19.0000 -7.0000
v 3.0000 20.0000 -7.0000
v 3.0000 21.0000 -7.0000
v 4.0000 18.0000 7.0000
v 4.0000 19.0000 7.0000
v 4.0000 20.0000 7.0000
v 4.0000 21.0000 7.0000
v 4.0000 21.0000 6.0000
v 4.0000 21.0000 5.0000
v 4.0000 21.0000 4.0000
v 4.0000 21.0000 -4.0000
v 4.0000 21.0000 -5.0000
v 4.0000 21.0000 -6.0000
v 4.0000 18.0000 -7.0000
v 4.0000 19.0000 -7.0000
v 4.0000 20.0000 -7.0000
v 4.0000 21.0000 -7.0000
v 5.0000 18.0000 7.0000
v 5.0000 19.0000 7.0000
v 5.0000 20.0000 7.0000
v 5.0000 21.0000 7.0000
v 5.0000 21.0000 6.0000
v 5.0000 21.0000 5.0000
v 5.0000 21.0000 4.0000
v 5.0000 21.0000 3.0000
v 4.0000 21.0000 3.0000
v 5.0000 21.0000 2.0000
v 4.0000 21.0000 2.0000
v 5.0000 21.0000 1.0000
v 4.0000 21.0000 1.0000
v 5.0000 21.0000 0.0000
v 4.0000 21.0000 0.0000
v 5.0000 21.0000 -1.0000
v 4.0000 21.0000 -1.0000
v 5.0000 21.0000 -2.0000
v 4.0000 21.0000 -2.0000
v 5.0000 21.0000 -3.0000
v 4.0000 21.0000 -3.0000
v 5.0000 21.0000 -4.0000
v 5.0000 21.0000 -5.0000
v 5.0000 21.0000 -6.0000
v 5.0000 18.0000 -7.0000
v 5.0000 19.0000 -7.0000
v 5.0000 20.0000 -7.0000
v 5.0000 21.0000 -7.0000
v 6.0000 18.0000 7.0000
v 6.0000 19.0000 7.0000
v 6.0000 20.0000 7.0000
v 6.0000 21.0000 7.0000
v 6.0000 21.0000 6.0000
v 6.0000 21.0000 5.0000
v 6.0000 21.0000 4.0000
v 6.0000 21.0000 3.0000
v 6.0000 21.0000 2.0000
v 6.0000 21.0000 1.0000
v 6.0000 21.0000 0.0000
v 6.0000 21.0000 -1.0000
v 6.0000 21.0000 -2.0000
v 6.0000 21.0000 -3.0000
v 6.0000 21.0000 -4.0000
v 6.0000 21.0000 -5.0000
v 6.0000 21.0000 -6.0000
v 6.0000 18.0000 -7.0000
v 6.0000 19.0000 -7.0000
v 6.0000 20.0000 -7.0000
v 6.0000 21.0000 -7.0000
v 7.0000 18.0000 6.0000
v 7.0000 18.0000 7.0000
v 7.0000 19.0000 6.0000
v 7.0000 19.0000 7.0000
v 7.0000 20.0000 6.0000
v 7.0000 20.0000 7.0000
v 7.0000 21.0000 6.0000
v 7.0000 21.0000 7.0000
v 7.0000 18.0000 5.0000
v 7.0000 19.0000 5.0000
v 7.0000 20.0000 5.0000
v 7.0000 21.0000 5.0000
v 7.0000 18.0000 4.0000
v 7.0000 19.0000 4.0000
v 7.0000 20.0000 4.0000
v 7.0000 21.0000 4.0000
v 7.0000 18.0000 3.0000
v 7.0000 19.0000 3.0000
v 7.0000 20.0000 3.0000
v 7.0000 21.0000 3.0000
v 7.0000 18.0000 2.0000
v 7.0000 19.0000 2.0000
v 7.0000 20.0000 2.0000
v 7.0000 21.0000 2.0000
v 7.0000 18.0000 1.0000
v 7.0000 19.0000 1.0000
v 7.0000 20.0000 1.0000
v 7.0000 21.0000 1.0000
v 7.0000 18.0000 0.0000
v 7.0000 19.0000 0.0000
v 7.0000 20.0000 0.0000
v 7.0000 21.0000 0.0000
v 7.0000 18.0000 -1.0000
v 7.0000 19.0000 -1.0000
v 7.0000 20.0000 -1.0000
v 7.0000 21.0000 -1.0000
v 7.0000 18.0000 -2.0000
v 7.0000 19.0000 -2.0000
v 7.0000 20.0000 -2.0000
v 7.0000 21.0000 -2.0000
v 7.0000 18.0000 -3.0000
v 7.0000 19.0000 -3.0000
v 7.0000 20.0000 -3.0000
v 7.0000 21.0000 -3.0000
v 7.0000 18.0000 -4.0000
v 7.0000 19.0000 -4.0000
v 7.0000 20.0000 -4.0000
v 7.0000 21.0000 -4.0000
v 7.0000 18.0000 -5.0000
v 7.0000 19.0000 -5.0000
v 7.0000 20.0000 -5.0000
v 7.0000 21.0000 -5.0000
v 7.0000 18.0000 -6.0000
v 7.0000 19.0000 -6.0000
v 7.0000 20.0000 -6.0000
v 7.0000 21.0000 -6.0000
v 7.0000 18.0000 -7.0000
v 7.0000 19.0000 -7.0000
v 7.0000 20.0000 -7.0000
v 7.0000 21.0000 -7.0000
v -4.0000 22.0000 4.0000
v -4.0000 22.0000 3.0000
v -3.0000 22.0000 4.0000
v -4.0000 23.0000 4.0000
v -4.0000 23.0000 3.0000
v -3.0000 23.0000 4.0000
v -4.0000 24.0000 4.0000
v -4.0000 24.0000 3.0000
v -3.0000 24.0000 4.0000
v -4.0000 25.0000 4.0000
v -4.0000 25.0000 3.0000
v -3.0000 25.0000 4.0000
v -3.0000 25.0000 3.0000
v -4.0000 22.0000 2.0000
v -4.0000 23.0000 2.0000
v -4.0000 24.0000 2.0000
v -4.0000 25.0000 2.0000
v -3.0000 25.0000 2.0000
v -4.0000 22.0000 1.0000
v -4.0000 23.0000 1.0000
v -4.0000 24.0000 1.0000
v -4.0000 25.0000 1.0000
v -3.0000 25.0000 1.0000
v -4.0000 22.0000 0.0000
v -4.0000 23.0000 0.0000
v -4.0000 24.0000 0.0000
v -4.0000 25.0000 0.0000
v -3.0000 25.0000 0.0000
v -4.0000 22.0000 -1.0000
v -4.0000 23.0000 -1.0000
v -4.0000 24.0000 -1.0000
v -4.0000 25.0000 -1.0000
v -3.0000 25.0000 -1.0000
v -4.0000 22.0000 -2.0000
v -4.0000 23.0000 -2.0000
v -4.0000 24.0000 -2.0000
v -4.0000 25.0000 -2.0000
v -3.0000 25.0000 -2.0000
v -4.0000 22.0000 -3.0000
v -4.0000 23.0000 -3.0000
v -4.0000 24.0000 -3.0000
v -4.0000 25.0000 -3.0000
v -3.0000 25.0000 -3.0000
v -4.0000 22.0000 -4.0000
v -3.0000 22.0000 -4.0000
v -4.0000 23.0000 -4.0000
v -3.0000 23.0000 -4.0000
v -4.0000 24.0000 -4.0000
v -3.0000 24.0000 -4.0000
v -4.0000 25.0000 -4.0000
v -3.0000 25.0000 -4.0000
v -2.0000 22.0000 4.0000
v -2.0000 23.0000 4.0000
v -2.0000 24.0000 4.0000
v -2.0000 25.0000 4.0000
v -2.0000 25.0000 3.0000
v -2.0000 25.0000 2.0000
v -2.0000 25.0000 1.0000
v -2.0000 25.0000 0.0000
v -2.0000 25.0000 -1.0000
v -2.0000 25.0000 -2.0000
v -2.0000 25.0000 -3.0000
v -2.0000 22.0000 -4.0000
v -2.0000 23.0000 -4.0000
v -2.0000 24.0000 -4.0000
v -2.0000 25.0000 -4.0000
v -1.0000 22.0000 4.0000
v -1.0000 23.0000 4.0000
v -1.0000 24.0000 4.0000
v -1.0000 25.0000 4.0000
v -1.0000 25.0000 3.0000
v -1.0000 25.0000 2.0000
v -1.0000 25.0000 1.0000
v -1.0000 25.0000 0.0000
v -1.0000 25.0000 -1.0000
v -1.0000 25.0000 -2.0000
v -1.0000 25.0000 -3.0000
v -1.0000 22.0000 -4.0000
v -1.0000 23.0000 -4.0000
v -1.0000 24.0000 -4.0000
v -1.0000 25.0000 -4.0000
v 0.0000 22.0000 4.0000
v 0.0000 23.0000 4.0000
v 0.0000 24.0000 4.0000
v 0.0000 25.0000 4.0000
v 0.0000 25.0000 3.0000
v 0.0000 25.0000 2.0000
v 0.0000 25.0000 1.0000
v 0.0000 25.0000 0.0000
v 0.0000 25.0000 -1.0000
v 0.0000 25.0000 -2.0000
v 0.0000 25.0000 -3.0000
v 0.0000 22.0000 -4.0000
v 0.0000 23.0000 -4.0000
v 0.0000 24.0000 -4.0000
v 0.0000 25.0000 -4.0000
v 1.0000 22.0000 4.0000
v 1.0000 23.0000 4.0000
v 1.0000 24.0000 4.0000
v 1.0000 25.0000 4.0000
v 1.0000 25.0000 3.0000
v 1.0000 25.0000 2.0000
v 1.0000 25.0000 1.0000
v 1.0000 25.0000 0.0000
v 1.0000 25.0000 -1.0000
v 1.0000 25.0000 -2.0000
v 1.0000 25.0000 -3.0000
v 1.0000 22.0000 -4.0000
v 1.0000 23.0000 -4.0000
v 1.0000 24.0000 -4.0000
v 1.0000 25.0000 -4.0000
v 2.0000 22.0000 4.0000
v 2.0000 23.0000 4.0000
v 2.0000 24.0000 4.0000
v 2.0000 25.0000 4.0000
v 2.0000 25.0000 3.0000
v 2.0000 25.0000 2.0000
v 2.0000 25.0000 1.0000
v 2.0000 25.0000 0.0000
v 2.0000 25.0000 -1.0000
v 2.0000 25.0000 -2.0000
v 2.0000 25.0000 -3.0000
v 2.0000 22.0000 -4.0000
v 2.0000 23.0000 -4.0000
v 2.0000 24.0000 -4.0000
v 2.0000 25.0000 -4.0000
v 3.0000 22.0000 4.0000
v 3.0000 23.0000 4.0000
v 3.0000 24.0000 4.0000
v 3.0000 25.0000 4.0000
v 3.0000 25.0000 3.0000
v 3.0000 25.0000 2.0000
v 3.0000 25.0000 1.0000
v 3.0000 25.0000 0.0000
v 3.0000 25.0000 -1.0000
v 3.0000 25.0000 -2.0000
v 3.0000 25.0000 -3.0000
v 3.0000 22.0000 -4.0000
v 3.0000 23.0000 -4.0000
v 3.0000 24.0000 -4.0000
v 3.0000 25.0000 -4.0000
v 4.0000 22.0000 3.0000
v 4.0000 22.0000 4.0000
v 4.0000 23.0000 3.0000
v 4.0000 23.0000 4.0000
v 4.0000 24.0000 3.0000
v 4.0000 24.0000 4.0000
v 4.0000 25.0000 3.0000
v 4.0000 25.0000 4.0000
v 4.0000 22.0000 2.0000
v 4.0000 23.0000 2.0000
v 4.0000 24.0000 2.0000
v 4.0000 25.0000 2.0000
v 4.0000 22.0000 1.0000
v 4.0000 23.0000 1.0000
v 4.0000 24.0000 1.0000
v 4.0000 25.0000 1.0000
v 4.0000 22.0000 0.0000
v 4.0000 23.0000 0.0000
v 4.0000 24.0000 0.0000
v 4.0000 25.0000 0.0000
v 4.0000 22.0000 -1.0000
v 4.0000 23.0000 -1.0000
v 4.0000 24.0000 -1.0000
v 4.0000 25.0000 -1.0000
v 4.0000 22.0000 -2.0000
v 4.0000 23.0000 -2.0000
v 4.0000 24.0000 -2.0000
v 4.0000 25.0000 -2.0000
v 4.0000 22.0000 -3.0000
v 4.0000 23.0000 -3.0000
v 4.0000 24.0000 -3.0000
v 4.0000 25.0000 -3.0000
v 4.0000 22.0000 -4.0000
v 4.0000 23.0000 -4.0000
v 4.0000 24.0000 -4.0000
v 4.0000 25.0000 -4.0000
v 0.0000 10.0000 -8.0000
v 0.0000 10.0000 -9.0000
v 0.0000 11.0000 -9.0000
v 0.0000 11.0000 -8.0000
v -1.0000 10.0000 -8.0000
v -1.0000 11.0000 -8.0000
v -1.0000 11.0000 -9.0000
v -1.0000 10.0000 -9.0000
v 8.0000 21.0000 -3.0000
v 8.0000 21.0000 -4.0000
v 8.0000 22.0000 -4.0000
v 8.0000 22.0000 -3.0000
v 7.0000 22.0000 -3.0000
v 7.0000 22.0000 -4.0000
v -3.0000 22.0000 5.0000
v -3.0000 22.0000 6.0000
v -4.0000 22.0000 6.0000
v -4.0000 22.0000 5.0000
v 3.0000 23.0000 -7.0000
v 3.0000 23.0000 -8.0000
v 3.0000 24.0000 -8.0000
v 3.0000 24.0000 -7.0000
v 2.0000 23.0000 -7.0000
v 2.0000 24.0000 -7.0000
v 2.0000 24.0000 -8.0000
v 2.0000 23.0000 -8.0000
v -5.0000 7.0000 0.0000
v -5.0000 7.0000 -1.0000
v -6.0000 7.0000 0.0000
v -6.0000 7.0000 -1.0000
v 9.0000 18.0000 4.0000
v 9.0000 18.0000 3.0000
v 9.0000 19.0000 3.0000
v 9.0000 19.0000 4.0000
v 8.0000 18.0000 4.0000
v 8.0000 19.0000 4.0000
v 8.0000 19.0000 3.0000
v 8.0000 18.0000 3.0000
v -6.0000 22.0000 -6.0000
v -6.0000 22.0000 -7.0000
v -6.0000 23.0000 -7.0000
v -6.0000 23.0000 -6.0000
v -7.0000 22.0000 -6.0000
v -7.0000 23.0000 -6.0000
v -7.0000 23.0000 -7.0000
v -7.0000 22.0000 -7.0000
usemtl c1
f 1 2 3 4
f 1 5 6 2
f 1 4 7 5
f 2 8 9 3
f 2 6 10 8
f 8 11 12 9
f 8 10 13 11
f 11 14 15 12
f 11 13 16 14
f 4 3 17 18
f 4 18 19 7
f 3 9 20 17
f 9 12 21 20
f 12 15 22 21
f 18 17 23 24
f 18 24 25 19
f 17 20 26 23
f 20 21 27 26
f 21 22 28 27
f 24 23 29 30
f 30 29 31 32
f 24 30 32 25
f 23 26 33 29
f 29 33 34 31
f 26 27 35 33
f 33 35 36 34
f 27 28 37 35
f 35 37 38 36
f 5 39 40 6
f 5 7 41 39
f 6 40 42 10
f 10 42 43 13
f 13 43 44 16
f 7 19 45 41
f 19 25 46 45
f 32 31 47 48
f 25 32 48 46
f 31 34 49 47
f 34 36 50 49
f 36 38 51 50
f 39 52 53 40
f 39 41 54 52
f 40 53 55 42
f 42 55 56 43
f 43 56 57 44
f 41 45 58 54
f 45 46 59 58
f 48 47 60 61
f 46 48 61 59
f 47 49 62 60
f 49 50 63 62
f 50 51 64 63
f 65 66 67 68
f 52 65 68 53
f 52 54 66 65
f 68 67 69 70
f 53 68 70 55
f 70 69 71 72
f 55 70 72 56
f 72 71 73 74
f 56 72 74 57
f 66 75 76 67
f 54 58 75 66
f 67 76 77 69
f 69 77 78 71
f 71 78 79 73
f 75 80 81 76
f 58 59 80 75
f 76 81 82 77
f 77 82 83 78
f 78 83 84 79
f 80 85 86 81
f 61 60 86 85
f 59 61 85 80
f 81 86 87 82
f 60 62 87 86
f 82 87 88 83
f 62 63 88 87
f 83 88 89 84
f 63 64 89 88
usemtl c2
f 90 91 92 93
f 90 94 95 91
f 90 93 96 94
f 91 97 98 92
f 91 95 99 97
f 97 100 101 98
f 97 99 102 100
f 100 103 104 101
f 100 102 105 103
f 93 92 106 107
f 93 107 108 96
f 92 98 109 106
f 98 101 110 109
f 101 104 111 110
f 107 106 112 113
f 107 113 114 108
f 106 109 115 112
f 109 110 116 115
f 110 111 117 116
f 113 112 118 119
f 113 119 120 114
f 112 115 121 118
f 115 116 122 121
f 116 117 123 122
f 119 118 124 125
f 119 125 126 120
f 118 121 127 124
f 121 122 128 127
f 122 123 129 128
f 125 124 130 131
f 125 131 132 126
f 124 127 133 130
f 127 128 134 133
f 128 129 135 134
f 131 130 136 137
f 131 137 138 132
f 130 133 139 136
f 133 134 140 139
f 134 135 141 140
f 137 136 142 143
f 143 142 144 145
f 137 143 145 138
f 136 139 146 142
f 142 146 147 144
f 139 140 148 146
f 146 148 149 147
f 140 141 150 148
f 148 150 151 149
f 94 152 153 95
f 94 96 154 152
f 95 153 155 99
f 99 155 156 102
f 102 156 157 105
f 96 108 14 154
f 108 114 15 14
f 114 120 22 15
f 120 126 28 22
f 126 132 37 28
f 132 138 158 37
f 145 144 159 160
f 138 145 160 158
f 144 147 161 159
f 147 149 162 161
f 149 151 163 162
f 152 164 165 153
f 152 154 166 164
f 153 165 167 155
f 155 167 168 156
f 156 168 169 157
f 154 14 16 166
f 37 158 170 38
f 160 159 171 172
f 158 160 172 170
f 159 161 173 171
f 161 162 174 173
f 162 163 175 174
f 164 176 177 165
f 164 166 178 176
f 165 177 179 167
f 167 179 180 168
f 168 180 181 169
f 166 16 44 178
f 38 170 182 51
f 172 171 183 184
f 170 172 184 182
f 171 173 185 183
f 173 174 186 185
f 174 175 187 186
f 176 188 189 177
f 176 178 190 188
f 177 189 191 179
f 179 191 192 180
f 180 192 193 181
f 178 44 57 190
f 51 182 194 64
f 184 183 195 196
f 182 184 196 194
f 183 185 197 195
f 185 186 198 197
f 186 187 199 198
f 188 200 201 189
f 188 190 202 200
f 189 201 203 191
f 191 203 204 192
f 192 204 205 193
f 190 57 74 202
f 64 194 206 89
f 196 195 207 208
f 194 196 208 206
f 195 197 209 207
f 197 198 210 209
f 198 199 211 210
f 200 212 213 201
f 200 202 214 212
f 201 213 215 203
f 203 215 216 204
f 204 216 217 205
f 202 74 218 214
f 74 73 219 218
f 73 79 220 219
f 79 84 221 220
f 84 89 222 221
f 89 206 223 222
f 208 207 224 225
f 206 208 225 223
f 207 209 226 224
f 209 210 227 226
f 210 211 228 227
f 229 230 231 232
f 212 229 232 213
f 212 214 230 229
f 232 231 233 234
f 213 232 234 215
f 234 233 235 236
f 215 234 236 216
f 236 235 237 238
f 216 236 238 217
f 230 239 240 231
f 214 218 239 230
f 231 240 241 233
f 233 241 242 235
f 235 242 243 237
f 239 244 245 240
f 218 219 244 239
f 240 245 246 241
f 241 246 247 242
f 242 247 248 243
f 244 249 250 245
f 219 220 249 244
f 245 250 251 246
f 246 251 252 247
f 247 252 253 248
f 249 254 255 250
f 220 221 254 249
f 250 255 256 251
f 251 256 257 252
f 252 257 258 253
f 254 259 260 255
f 221 222 259 254
f 255 260 261 256
f 256 261 262 257
f 257 262 263 258
f 259 264 265 260
f 222 223 264 259
f 260 265 266 261
f 261 266 267 262
f 262 267 268 263
f 264 269 270 265
f 225 224 270 269
f 223 225 269 264
f 265 270 271 266
f 224 226 271 270
f 266 271 272 267
f 226 227 272 271
f 267 272 273 268
f 227 228 273 272
f 274 275 276 277
f 274 278 279 275
f 274 277 280 278
f 275 281 282 276
f 275 279 283 281
f 281 284 285 282
f 281 283 286 284
f 284 287 288 285
f 284 286 289 287
f 277 276 290 291
f 277 291 292 280
f 276 282 293 290
f 282 285 294 293
f 285 288 295 294
f 291 290 296 297
f 291 297 298 292
f 290 293 299 296
f 293 294 300 299
f 294 295 301 300
f 297 296 302 303
f 297 303 304 298
f 296 299 305 302
f 299 300 306 305
f 300 301 307 306
f 303 302 308 309
f 303 309 310 304
f 302 305 311 308
f 305 306 312 311
f 306 307 313 312
f 309 308 314 315
f 309 315 316 310
f 308 311 317 314
f 311 312 318 317
f 312 313 319 318
f 315 314 320 321
f 315 321 322 316
f 314 317 323 320
f 317 318 324 323
f 318 319 325 324
f 321 320 326 327
f 321 327 328 322
f 320 323 329 326
f 323 324 330 329
f 324 325 331 330
f 327 326 332 333
f 327 333 334 328
f 326 329 335 332
f 329 330 336 335
f 330 331 337 336
f 333 332 338 339
f 333 339 340 334
f 332 335 341 338
f 335 336 342 341
f 336 337 343 342
f 339 338 344 345
f 339 345 346 340
f 338 341 347 344
f 341 342 348 347
f 342 343 349 348
f 345 344 350 351
f 345 351 352 346
f 344 347 353 350
f 347 348 354 353
f 348 349 355 354
f 351 350 356 357
f 351 357 358 352
f 350 353 359 356
f 353 354 360 359
f 354 355 361 360
f 357 356 362 363
f 363 362 364 365
f 357 363 365 358
f 356 359 366 362
f 362 366 367 364
f 359 360 368 366
f 366 368 369 367
f 360 361 370 368
f 368 370 371 369
f 278 372 373 279
f 278 280 374 372
f 279 373 375 283
f 283 375 376 286
f 286 376 377 289
f 280 292 378 374
f 292 298 379 378
f 298 304 380 379
f 304 310 381 380
f 310 316 382 381
f 316 322 383 382
f 328 334 384 385
f 334 340 386 384
f 340 346 387 386
f 346 352 388 387
f 352 358 389 388
f 365 364 390 391
f 358 365 391 389
f 364 367 392 390
f 367 369 393 392
f 369 371 394 393
f 372 395 396 373
f 372 374 397 395
f 373 396 398 375
f 375 398 399 376
f 376 399 400 377
f 374 378 401 397
f 378 379 103 401
f 379 380 104 103
f 380 381 111 104
f 381 382 117 111
f 382 383 123 117
f 383 385 129 123
f 385 384 135 129
f 384 386 141 135
f 386 387 150 141
f 387 388 402 150
f 388 389 403 402
f 391 390 404 405
f 389 391 405 403
f 390 392 406 404
f 392 393 407 406
f 393 394 408 407
f 395 409 410 396
f 395 397 411 409
f 396 410 412 398
f 398 412 413 399
f 399 413 414 400
f 397 401 415 411
f 401 103 105 415
f 150 402 416 151
f 402 403 417 416
f 405 404 418 419
f 403 405 419 417
f 404 406 420 418
f 406 407 421 420
f 407 408 422 421
f 409 423 424 410
f 409 411 425 423
f 410 424 426 412
f 412 426 427 413
f 413 427 428 414
f 411 415 429 425
f 415 105 157 429
f 151 416 430 163
f 416 417 431 430
f 419 418 432 433
f 417 419 433 431
f 418 420 434 432
f 420 421 435 434
f 421 422 436 435
f 423 437 438 424
f 423 425 439 437
f 424 438 440 426
f 426 440 441 427
f 427 441 442 428
f 425 429 443 439
f 429 157 169 443
f 163 430 444 175
f 430 431 445 444
f 433 432 446 447
f 431 433 447 445
f 432 434 448 446
f 434 435 449 448
f 435 436 450 449
f 437 451 452 438
f 437 439 453 451
f 438 452 454 440
f 440 454 455 441
f 441 455 456 442
f 439 443 457 453
f 443 169 181 457
f 175 444 458 187
f 444 445 459 458
f 447 446 460 461
f 445 447 461 459
f 446 448 462 460
f 448 449 463 462
f 449 450 464 463
f 451 465 466 452
f 451 453 467 465
f 452 466 468 454
f 454 468 469 455
f 455 469 470 456
f 453 457 471 467
f 457 181 193 471
f 187 458 472 199
f 458 459 473 472
f 461 460 474 475
f 459 461 475 473
f 460 462 476 474
f 462 463 477 476
f 463 464 478 477
f 465 479 480 466
f 465 467 481 479
f 466 480 482 468
f 468 482 483 469
f 469 483 484 470
f 467 471 485 481
f 471 193 205 485
f 199 472 486 211
f 472 473 487 486
f 475 474 488 489
f 473 475 489 487
f 474 476 490 488
f 476 477 491 490
f 477 478 492 491
f 479 493 494 480
f 479 481 495 493
f 480 494 496 482
f 482 496 497 483
f 483 497 498 484
f 481 485 499 495
f 485 205 217 499
f 211 486 500 228
f 486 487 501 500
f 489 488 502 503
f 487 489 503 501
f 488 490 504 502
f 490 491 505 504
f 491 492 506 505
f 493 507 508 494
f 493 495 509 507
f 494 508 510 496
f 496 510 511 497
f 497 511 512 498
f 495 499 513 509
f 499 217 238 513
f 228 500 514 273
f 500 501 515 514
f 503 502 516 517
f 501 503 517 515
f 502 504 518 516
f 504 505 519 518
f 505 506 520 519
f 507 521 522 508
f 507 509 523 521
f 508 522 524 510
f 510 524 525 511
f 511 525 526 512
f 509 513 527 523
f 513 238 528 527
f 238 237 529 528
f 237 243 530 529
f 243 248 531 530
f 248 253 532 531
f 253 258 533 532
f 258 263 534 533
f 263 268 535 534
f 268 273 536 535
f 273 514 537 536
f 514 515 538 537
f 517 516 539 540
f 515 517 540 538
f 516 518 541 539
f 518 519 542 541
f 519 520 543 542
f 521 544 545 522
f 521 523 546 544
f 522 545 547 524
f 524 547 548 525
f 525 548 549 526
f 523 527 550 546
f 527 528 551 550
f 528 529 552 551
f 529 530 553 552
f 530 531 554 553
f 531 532 555 554
f 532 533 556 555
f 533 534 557 556
f 534 535 558 557
f 535 536 559 558
f 536 537 560 559
f 537 538 561 560
f 540 539 562 563
f 538 540 563 561
f 539 541 564 562
f 541 542 565 564
f 542 543 566 565
f 567 568 569 570
f 544 567 570 545
f 544 546 568 567
f 570 569 571 572
f 545 570 572 547
f 572 571 573 574
f 547 572 574 548
f 574 573 575 576
f 548 574 576 549
f 568 577 578 569
f 546 550 577 568
f 569 578 579 571
f 571 579 580 573
f 573 580 581 575
f 577 582 583 578
f 550 551 582 577
f 578 583 584 579
f 579 584 585 580
f 580 585 586 581
f 582 587 588 583
f 551 552 587 582
f 583 588 589 584
f 584 589 590 585
f 585 590 591 586
f 587 592 593 588
f 552 553 592 587
f 588 593 594 589
f 589 594 595 590
f 590 595 596 591
f 592 597 598 593
f 553 554 597 592
f 593 598 599 594
f 594 599 600 595
f 595 600 601 596
f 597 602 603 598
f 554 555 602 597
f 598 603 604 599
f 599 604 605 600
f 600 605 606 601
f 602 607 608 603
f 555 556 607 602
f 603 608 609 604
f 604 609 610 605
f 605 610 611 606
f 607 612 613 608
f 556 557 612 607
f 608 613 614 609
f 609 614 615 610
f 610 615 616 611
f 612 617 618 613
f 557 558 617 612
f 613 618 619 614
f 614 619 620 615
f 615 620 621 616
f 617 622 623 618
f 558 559 622 617
f 618 623 624 619
f 619 624 625 620
f 620 625 626 621
f 622 627 628 623
f 559 560 627 622
f 623 628 629 624
f 624 629 630 625
f 625 630 631 626
f 627 632 633 628
f 560 561 632 627
f 628 633 634 629
f 629 634 635 630
f 630 635 636 631
f 632 637 638 633
f 563 562 638 637
f 561 563 637 632
f 633 638 639 634
f 562 564 639 638
f 634 639 640 635
f 564 565 640 639
f 635 640 641 636
f 565 566 641 640
f 642 643 644 645
f 642 646 647 643
f 642 645 648 646
f 643 649 650 644
f 643 647 651 649
f 649 652 653 650
f 649 651 654 652
f 652 655 656 653
f 652 654 657 655
f 655 658 659 656
f 655 657 660 658
f 658 660 661 659
f 645 644 662 663
f 645 663 664 648
f 644 650 665 662
f 650 653 666 665
f 653 656 667 666
f 656 659 668 667
f 659 661 669 668
f 663 662 670 671
f 663 671 672 664
f 662 665 673 670
f 665 666 674 673
f 666 667 675 674
f 667 668 676 675
f 668 669 677 676
f 671 670 678 679
f 671 679 680 672
f 670 673 681 678
f 673 674 682 681
f 674 675 683 682
f 675 676 684 683
f 676 677 685 684
f 679 678 686 687
f 679 687 688 680
f 678 681 689 686
f 681 682 690 689
f 682 683 691 690
f 683 684 692 691
f 684 685 693 692
f 687 686 694 695
f 687 695 696 688
f 686 689 697 694
f 689 690 698 697
f 690 691 699 698
f 691 692 700 699
f 692 693 701 700
f 695 694 702 703
f 695 703 704 696
f 694 697 705 702
f 697 698 706 705
f 698 699 707 706
f 699 700 708 707
f 700 701 709 708
f 703 702 710 711
f 703 711 712 704
f 702 705 713 710
f 705 706 714 713
f 706 707 715 714
f 707 708 716 715
f 708 709 717 716
f 711 710 718 719
f 711 719 720 712
f 710 713 721 718
f 713 714 722 721
f 714 715 723 722
f 715 716 724 723
f 716 717 725 724
f 719 718 726 727
f 719 727 728 720
f 718 721 729 726
f 721 722 730 729
f 722 723 731 730
f 723 724 732 731
f 724 725 733 732
f 727 726 734 735
f 727 735 736 728
f 726 729 737 734
f 729 730 738 737
f 730 731 739 738
f 731 732 740 739
f 732 733 741 740
f 735 734 742 743
f 735 743 744 736
f 734 737 745 742
f 737 738 746 745
f 738 739 747 746
f 739 740 748 747
f 740 741 749 748
f 743 742 750 751
f 743 751 752 744
f 742 745 753 750
f 745 746 754 753
f 746 747 755 754
f 747 748 756 755
f 748 749 757 756
f 751 750 758 759
f 751 759 760 752
f 750 753 761 758
f 753 754 762 761
f 754 755 763 762
f 755 756 764 763
f 756 757 765 764
f 759 758 766 767
f 759 767 768 760
f 758 761 769 766
f 761 762 770 769
f 762 763 771 770
f 763 764 772 771
f 764 765 773 772
f 767 766 774 775
f 767 775 776 768
f 766 769 777 774
f 769 770 778 777
f 770 771 779 778
f 771 772 780 779
f 772 773 781 780
f 775 774 782 783
f 775 783 784 776
f 774 777 785 782
f 777 778 786 785
f 778 779 787 786
f 779 780 788 787
f 780 781 789 788
f 783 782 790 791
f 791 790 792 793
f 783 791 793 784
f 782 785 794 790
f 790 794 795 792
f 785 786 796 794
f 794 796 797 795
f 786 787 798 796
f 796 798 799 797
f 787 788 800 798
f 798 800 801 799
f 788 789 801 800
f 646 802 803 647
f 646 648 804 802
f 647 803 805 651
f 651 805 806 654
f 654 806 807 657
f 657 807 808 660
f 660 808 809 661
f 648 664 287 804
f 661 809 810 669
f 664 672 288 287
f 669 810 811 677
f 672 680 295 288
f 677 811 812 685
f 680 688 301 295
f 685 812 813 693
f 688 696 307 301
f 693 813 814 701
f 696 704 313 307
f 701 814 815 709
f 704 712 319 313
f 709 815 816 717
f 717 816 817 725
f 720 728 331 325
f 725 817 818 733
f 728 736 337 331
f 733 818 819 741
f 736 744 343 337
f 741 819 820 749
f 744 752 349 343
f 749 820 821 757
f 752 760 355 349
f 757 821 822 765
f 760 768 361 355
f 765 822 823 773
f 768 776 370 361
f 773 823 824 781
f 776 784 825 370
f 781 824 826 789
f 793 792 827 828
f 784 793 828 825
f 792 795 829 827
f 795 797 830 829
f 797 799 831 830
f 799 801 832 831
f 789 826 832 801
f 802 833 834 803
f 802 804 835 833
f 803 834 836 805
f 805 836 837 806
f 806 837 838 807
f 807 838 839 808
f 808 839 840 809
f 804 287 289 835
f 809 840 841 810
f 370 825 842 371
f 824 843 844 826
f 828 827 845 846
f 825 828 846 842
f 827 829 847 845
f 829 830 848 847
f 830 831 849 848
f 831 832 850 849
f 826 844 850 832
f 833 851 852 834
f 833 835 853 851
f 834 852 854 836
f 836 854 855 837
f 837 855 856 838
f 838 856 857 839
f 839 857 858 840
f 835 289 377 853
f 840 858 859 841
f 371 842 860 394
f 843 861 862 844
f 846 845 863 864
f 842 846 864 860
f 845 847 865 863
f 847 848 866 865
f 848 849 867 866
f 849 850 868 867
f 844 862 868 850
f 851 869 870 852
f 851 853 871 869
f 852 870 872 854
f 854 872 873 855
f 855 873 874 856
f 856 874 875 857
f 857 875 876 858
f 853 377 400 871
f 858 876 877 859
f 394 860 878 408
f 861 879 880 862
f 864 863 881 882
f 860 864 882 878
f 863 865 883 881
f 865 866 884 883
f 866 867 885 884
f 867 868 886 885
f 862 880 886 868
f 869 887 888 870
f 869 871 889 887
f 870 888 890 872
f 872 890 891 873
f 873 891 892 874
f 874 892 893 875
f 875 893 894 876
f 871 400 414 889
f 876 894 895 877
f 408 878 896 422
f 879 897 898 880
f 882 881 899 900
f 878 882 900 896
f 881 883 901 899
f 883 884 902 901
f 884 885 903 902
f 885 886 904 903
f 880 898 904 886
f 887 905 906 888
f 887 889 907 905
f 888 906 908 890
f 890 908 909 891
f 891 909 910 892
f 892 910 911 893
f 893 911 912 894
f 889 414 428 907
f 894 912 913 895
f 422 896 914 436
f 897 915 916 898
f 900 899 917 918
f 896 900 918 914
f 899 901 919 917
f 901 902 920 919
f 902 903 921 920
f 903 904 922 921
f 898 916 922 904
f 905 923 924 906
f 905 907 925 923
f 906 924 926 908
f 908 926 927 909
f 909 927 928 910
f 910 928 929 911
f 911 929 930 912
f 907 428 442 925
f 912 930 931 913
f 436 914 932 450
f 915 933 934 916
f 918 917 935 936
f 914 918 936 932
f 917 919 937 935
f 919 920 938 937
f 920 921 939 938
f 921 922 940 939
f 916 934 940 922
f 923 941 942 924
f 923 925 943 941
f 924 942 944 926
f 926 944 945 927
f 927 945 946 928
f 928 946 947 929
f 929 947 948 930
f 925 442 456 943
f 930 948 949 931
f 450 932 950 464
f 933 951 952 934
f 936 935 953 954
f 932 936 954 950
f 935 937 955 953
f 937 938 956 955
f 938 939 957 956
f 939 940 958 957
f 934 952 958 940
f 941 959 960 942
f 941 943 961 959
f 942 960 962 944
f 944 962 963 945
f 945 963 964 946
f 946 964 965 947
f 947 965 966 948
f 943 456 470 961
f 948 966 967 949
f 464 950 968 478
f 951 969 970 952
f 954 953 971 972
f 950 954 972 968
f 953 955 973 971
f 955 956 974 973
f 956 957 975 974
f 957 958 976 975
f 952 970 976 958
f 959 977 978 960
f 959 961 979 977
f 960 978 980 962
f 962 980 981 963
f 963 981 982 964
f 964 982 983 965
f 965 983 984 966
f 961 470 484 979
f 478 968 986 492
f 969 987 988 970
f 972 971 989 990
f 968 972 990 986
f 971 973 991 989
f 973 974 992 991
f 974 975 993 992
f 975 976 994 993
f 970 988 994 976
f 977 995 996 978
f 977 979 997 995
f 978 996 998 980
f 980 998 999 981
f 981 999 1000 982
f 982 1000 1001 983
f 983 1001 1002 984
f 979 484 498 997
f 984 1002 1003 985
f 492 986 1004 506
f 987 1005 1006 988
f 990 989 1007 1008
f 986 990 1008 1004
f 989 991 1009 1007
f 991 992 1010 1009
f 992 993 1011 1010
f 993 994 1012 1011
f 988 1006 1012 994
f 995 1013 1014 996
f 995 997 1015 1013
f 996 1014 1016 998
f 998 1016 1017 999
f 999 1017 1018 1000
f 1000 1018 1019 1001
f 1001 1019 1020 1002
f 997 498 512 1015
f 1002 1020 1021 1003
f 506 1004 1022 520
f 1005 1023 1024 1006
f 1008 1007 1025 1026
f 1004 1008 1026 1022
f 1007 1009 1027 1025
f 1009 1010 1028 1027
f 1010 1011 1029 1028
f 1011 1012 1030 1029
f 1006 1024 1030 1012
f 1013 1031 1032 1014
f 1013 1015 1033 1031
f 1014 1032 1034 1016
f 1016 1034 1035 1017
f 1017 1035 1036 1018
f 1018 1036 1037 1019
f 1019 1037 1038 1020
f 1015 512 526 1033
f 1020 1038 1039 1021
f 520 1022 1040 543
f 1023 1041 1042 1024
f 1026 1025 1043 1044
f 1022 1026 1044 1040
f 1025 1027 1045 1043
f 1027 1028 1046 1045
f 1028 1029 1047 1046
f 1029 1030 1048 1047
f 1024 1042 1048 1030
f 1031 1049 1050 1032
f 1031 1033 1051 1049
f 1032 1050 1052 1034
f 1034 1052 1053 1035
f 1035 1053 1054 1036
f 1036 1054 1055 1037
f 1037 1055 1056 1038
f 1033 526 549 1051
f 1038 1056 1057 1039
f 543 1040 1058 566
f 1041 1059 1060 1042
f 1044 1043 1061 1062
f 1040 1044 1062 1058
f 1043 1045 1063 1061
f 1045 1046 1064 1063
f 1046 1047 1065 1064
f 1047 1048 1066 1065
f 1042 1060 1066 1048
f 1049 1067 1068 1050
f 1049 1051 1069 1067
f 1050 1068 1070 1052
f 1052 1070 1071 1053
f 1053 1071 1072 1054
f 1054 1072 1073 1055
f 1055 1073 1074 1056
f 1051 549 576 1069
f 1056 1074 1075 1057
f 566 1058 1076 641
f 1059 1077 1078 1060
f 1062 1061 1079 1080
f 1058 1062 1080 1076
f 1061 1063 1081 1079
f 1063 1064 1082 1081
f 1064 1065 1083 1082
f 1065 1066 1084 1083
f 1060 1078 1084 1066
f 1067 1085 1086 1068
f 1067 1069 1087 1085
f 1068 1086 1088 1070
f 1070 1088 1089 1071
f 1071 1089 1090 1072
f 1072 1090 1091 1073
f 1073 1091 1092 1074
f 1069 576 1093 1087
f 1074 1092 1094 1075
f 576 575 1095 1093
f 1075 1094 1096 1097
f 575 581 1098 1095
f 1097 1096 1099 1100
f 581 586 1101 1098
f 1100 1099 1102 1103
f 586 591 1104 1101
f 1103 1102 1105 1106
f 591 596 1107 1104
f 1106 1105 1108 1109
f 596 601 1110 1107
f 1109 1108 1111 1112
f 601 606 1113 1110
f 1112 1111 1114 1115
f 606 611 1116 1113
f 1115 1114 1117 1118
f 611 616 1119 1116
f 1118 1117 1120 1121
f 616 621 1122 1119
f 1121 1120 1123 1124
f 621 626 1125 1122
f 1124 1123 1126 1127
f 626 631 1128 1125
f 1127 1126 1129 1130
f 631 636 1131 1128
f 1130 1129 1132 1133
f 636 641 1134 1131
f 1133 1132 1135 1077
f 641 1076 1136 1134
f 1077 1135 1137 1078
f 1080 1079 1138 1139
f 1076 1080 1139 1136
f 1079 1081 1140 1138
f 1081 1082 1141 1140
f 1082 1083 1142 1141
f 1083 1084 1143 1142
f 1078 1137 1143 1084
f 1144 1145 1146 1147
f 1085 1144 1147 1086
f 1085 1087 1145 1144
f 1147 1146 1148 1149
f 1086 1147 1149 1088
f 1149 1148 1150 1151
f 1088 1149 1151 1089
f 1151 1150 1152 1153
f 1089 1151 1153 1090
f 1153 1152 1154 1155
f 1090 1153 1155 1091
f 1091 1155 1154 1092
f 1145 1156 1157 1146
f 1087 1093 1156 1145
f 1146 1157 1158 1148
f 1148 1158 1159 1150
f 1150 1159 1160 1152
f 1152 1160 1161 1154
f 1092 1154 1161 1094
f 1156 1162 1163 1157
f 1093 1095 1162 1156
f 1157 1163 1164 1158
f 1158 1164 1165 1159
f 1159 1165 1166 1160
f 1160 1166 1167 1161
f 1094 1161 1167 1096
f 1162 1168 1169 1163
f 1095 1098 1168 1162
f 1163 1169 1170 1164
f 1164 1170 1171 1165
f 1165 1171 1172 1166
f 1166 1172 1173 1167
f 1096 1167 1173 1099
f 1168 1174 1175 1169
f 1098 1101 1174 1168
f 1169 1175 1176 1170
f 1170 1176 1177 1171
f 1171 1177 1178 1172
f 1172 1178 1179 1173
f 1099 1173 1179 1102
f 1174 1180 1181 1175
f 1101 1104 1180 1174
f 1175 1181 1182 1176
f 1176 1182 1183 1177
f 1177 1183 1184 1178
f 1178 1184 1185 1179
f 1102 1179 1185 1105
f 1180 1186 1187 1181
f 1104 1107 1186 1180
f 1181 1187 1188 1182
f 1182 1188 1189 1183
f 1183 1189 1190 1184
f 1184 1190 1191 1185
f 1105 1185 1191 1108
f 1186 1192 1193 1187
f 1107 1110 1192 1186
f 1187 1193 1194 1188
f 1188 1194 1195 1189
f 1189 1195 1196 1190
f 1190 1196 1197 1191
f 1108 1191 1197 1111
f 1192 1198 1199 1193
f 1110 1113 1198 1192
f 1193 1199 1200 1194
f 1194 1200 1201 1195
f 1195 1201 1202 1196
f 1196 1202 1203 1197
f 1111 1197 1203 1114
f 1198 1204 1205 1199
f 1113 1116 1204 1198
f 1199 1205 1206 1200
f 1200 1206 1207 1201
f 1201 1207 1208 1202
f 1202 1208 1209 1203
f 1114 1203 1209 1117
f 1204 1210 1211 1205
f 1116 1119 1210 1204
f 1205 1211 1212 1206
f 1207 1213 1214 1208
f 1208 1214 1215 1209
f 1117 1209 1215 1120
f 1210 1216 1217 1211
f 1119 1122 1216 1210
f 1211 1217 1218 1212
f 1212 1218 1219 1213
f 1213 1219 1220 1214
f 1214 1220 1221 1215
f 1120 1215 1221 1123
f 1216 1222 1223 1217
f 1122 1125 1222 1216
f 1217 1223 1224 1218
f 1218 1224 1225 1219
f 1219 1225 1226 1220
f 1220 1226 1227 1221
f 1123 1221 1227 1126
f 1222 1228 1229 1223
f 1125 1128 1228 1222
f 1223 1229 1230 1224
f 1224 1230 1231 1225
f 1225 1231 1232 1226
f 1226 1232 1233 1227
f 1126 1227 1233 1129
f 1228 1234 1235 1229
f 1128 1131 1234 1228
f 1229 1235 1236 1230
f 1230 1236 1237 1231
f 1231 1237 1238 1232
f 1232 1238 1239 1233
f 1129 1233 1239 1132
f 1234 1240 1241 1235
f 1131 1134 1240 1234
f 1235 1241 1242 1236
f 1236 1242 1243 1237
f 1237 1243 1244 1238
f 1238 1244 1245 1239
f 1132 1239 1245 1135
f 1240 1246 1247 1241
f 1134 1136 1246 1240
f 1241 1247 1248 1242
f 1242 1248 1249 1243
f 1243 1249 1250 1244
f 1244 1250 1251 1245
f 1135 1245 1251 1137
f 1246 1252 1253 1247
f 1139 1138 1253 1252
f 1136 1139 1252 1246
f 1247 1253 1254 1248
f 1138 1140 1254 1253
f 1248 1254 1255 1249
f 1140 1141 1255 1254
f 1249 1255 1256 1250
f 1141 1142 1256 1255
f 1250 1256 1257 1251
f 1142 1143 1257 1256
f 1137 1251 1257 1143
f 810 1258 1259 811
f 810 841 1260 1258
f 1258 1261 1262 1259
f 1258 1260 1263 1261
f 1261 1264 1265 1262
f 1261 1263 1266 1264
f 1264 1267 1268 1265
f 1264 1266 1269 1267
f 1267 1269 1270 1268
f 811 1259 1271 812
f 1259 1262 1272 1271
f 1262 1265 1273 1272
f 1265 1268 1274 1273
f 1268 1270 1275 1274
f 812 1271 1276 813
f 1271 1272 1277 1276
f 1272 1273 1278 1277
f 1273 1274 1279 1278
f 1274 1275 1280 1279
f 813 1276 1281 814
f 1276 1277 1282 1281
f 1277 1278 1283 1282
f 1278 1279 1284 1283
f 1279 1280 1285 1284
f 814 1281 1286 815
f 1281 1282 1287 1286
f 1282 1283 1288 1287
f 1283 1284 1289 1288
f 1284 1285 1290 1289
f 815 1286 1291 816
f 1286 1287 1292 1291
f 1287 1288 1293 1292
f 1288 1289 1294 1293
f 1289 1290 1295 1294
f 816 1291 1296 817
f 1291 1292 1297 1296
f 1292 1293 1298 1297
f 1293 1294 1299 1298
f 1294 1295 1300 1299
f 817 1296 1301 818
f 1296 1297 1302 1301
f 1297 1298 1303 1302
f 1298 1299 1304 1303
f 1299 1300 1305 1304
f 818 1301 1306 819
f 1301 1302 1307 1306
f 1302 1303 1308 1307
f 1303 1304 1309 1308
f 1304 1305 1310 1309
f 819 1306 1311 820
f 1306 1307 1312 1311
f 1307 1308 1313 1312
f 1308 1309 1314 1313
f 1309 1310 1315 1314
f 820 1311 1316 821
f 1311 1312 1317 1316
f 1312 1313 1318 1317
f 1313 1314 1319 1318
f 1314 1315 1320 1319
f 821 1316 1321 822
f 1316 1317 1322 1321
f 1317 1318 1323 1322
f 1318 1319 1324 1323
f 1319 1320 1325 1324
f 822 1321 1326 823
f 1321 1322 1327 1326
f 1323 1324 1329 1328
f 1324 1325 1330 1329
f 823 1326 1331 824
f 824 1331 1332 843
f 1326 1327 1333 1331
f 1331 1333 1334 1332
f 1327 1328 1335 1333
f 1333 1335 1336 1334
f 1328 1329 1337 1335
f 1335 1337 1338 1336
f 1329 1330 1338 1337
f 841 859 1339 1260
f 1260 1339 1340 1263
f 1263 1340 1341 1266
f 1266 1341 1342 1269
f 1269 1342 1343 1270
f 1270 1343 1344 1275
f 1275 1344 1345 1280
f 1280 1345 1346 1285
f 1285 1346 1347 1290
f 1290 1347 1348 1295
f 1295 1348 1349 1300
f 1300 1349 1350 1305
f 1305 1350 1351 1310
f 1310 1351 1352 1315
f 1315 1352 1353 1320
f 1320 1353 1354 1325
f 1325 1354 1355 1330
f 843 1332 1356 861
f 1332 1334 1357 1356
f 1334 1336 1358 1357
f 1336 1338 1359 1358
f 1330 1355 1359 1338
f 859 877 1360 1339
f 1339 1360 1361 1340
f 1340 1361 1362 1341
f 1341 1362 1363 1342
f 1342 1363 1364 1343
f 1343 1364 1365 1344
f 1344 1365 1366 1345
f 1345 1366 1367 1346
f 1346 1367 1368 1347
f 1347 1368 1369 1348
f 1348 1369 1370 1349
f 1349 1370 1371 1350
f 1350 1371 1372 1351
f 1351 1372 1373 1352
f 1352 1373 1374 1353
f 1353 1374 1375 1354
f 1354 1375 1376 1355
f 861 1356 1377 879
f 1356 1357 1378 1377
f 1357 1358 1379 1378
f 1358 1359 1380 1379
f 1355 1376 1380 1359
f 877 895 1381 1360
f 1360 1381 1382 1361
f 1361 1382 1383 1362
f 1362 1383 1384 1363
f 1363 1384 1385 1364
f 1365 1386 1387 1366
f 1374 1388 1389 1375
f 1375 1389 1390 1376
f 879 1377 1391 897
f 1377 1378 1392 1391
f 1378 1379 1393 1392
f 1379 1380 1394 1393
f 1376 1390 1394 1380
f 895 913 1395 1381
f 1381 1395 1396 1382
f 1382 1396 1397 1383
f 1383 1397 1398 1384
f 1384 1398 1399 1385
f 1385 1399 1400 1386
f 1386 1400 1401 1387
f 1388 1402 1403 1389
f 1389 1403 1404 1390
f 897 1391 1405 915
f 1391 1392 1406 1405
f 1392 1393 1407 1406
f 1393 1394 1408 1407
f 1390 1404 1408 1394
f 913 931 1409 1395
f 1395 1409 1410 1396
f 1396 1410 1411 1397
f 1397 1411 1412 1398
f 1398 1412 1413 1399
f 1399 1413 1414 1400
f 1400 1414 1415 1401
f 1402 1416 1417 1403
f 1403 1417 1418 1404
f 915 1405 1419 933
f 1405 1406 1420 1419
f 1406 1407 1421 1420
f 1407 1408 1422 1421
f 1404 1418 1422 1408
f 931 949 1423 1409
f 1409 1423 1424 1410
f 1410 1424 1425 1411
f 1411 1425 1426 1412
f 1412 1426 1427 1413
f 1413 1427 1428 1414
f 1414 1428 1429 1415
f 1416 1430 1431 1417
f 1417 1431 1432 1418
f 933 1419 1433 951
f 1419 1420 1434 1433
f 1420 1421 1435 1434
f 1421 1422 1436 1435
f 1418 1432 1436 1422
f 949 967 1437 1423
f 1423 1437 1438 1424
f 1424 1438 1439 1425
f 1425 1439 1440 1426
f 1426 1440 1441 1427
f 1427 1441 1442 1428
f 1428 1442 1443 1429
f 1430 1444 1445 1431
f 1431 1445 1446 1432
f 951 1433 1447 969
f 1433 1434 1448 1447
f 1434 1435 1449 1448
f 1435 1436 1450 1449
f 1432 1446 1450 1436
f 967 985 1451 1437
f 1437 1451 1452 1438
f 1438 1452 1453 1439
f 1439 1453 1454 1440
f 1440 1454 1455 1441
f 1441 1455 1456 1442
f 1442 1456 1457 1443
f 1444 1458 1459 1445
f 1445 1459 1460 1446
f 969 1447 1461 987
f 1447 1448 1462 1461
f 1448 1449 1463 1462
f 1449 1450 1464 1463
f 1446 1460 1464 1450
f 985 1003 1465 1451
f 1451 1465 1466 1452
f 1452 1466 1467 1453
f 1453 1467 1468 1454
f 1454 1468 1469 1455
f 1455 1469 1470 1456
f 1456 1470 1471 1457
f 1458 1472 1473 1459
f 1459 1473 1474 1460
f 987 1461 1475 1005
f 1461 1462 1476 1475
f 1462 1463 1477 1476
f 1463 1464 1478 1477
f 1460 1474 1478 1464
f 1003 1021 1479 1465
f 1465 1479 1480 1466
f 1466 1480 1481 1467
f 1467 1481 1482 1468
f 1468 1482 1483 1469
f 1469 1483 1484 1470
f 1470 1484 1485 1471
f 1472 1486 1487 1473
f 1473 1487 1488 1474
f 1005 1475 1489 1023
f 1475 1476 1490 1489
f 1476 1477 1491 1490
f 1477 1478 1492 1491
f 1474 1488 1492 1478
f 1021 1039 1493 1479
f 1479 1493 1494 1480
f 1480 1494 1495 1481
f 1481 1495 1496 1482
f 1482 1496 1497 1483
f 1483 1497 1498 1484
f 1484 1498 1499 1485
f 1485 1499 1500 1501
f 1501 1500 1502 1503
f 1503 1502 1504 1505
f 1507 1506 1508 1509
f 1509 1508 1510 1511
f 1511 1510 1512 1513
f 1513 1512 1514 1486
f 1486 1514 1515 1487
f 1487 1515 1516 1488
f 1023 1489 1517 1041
f 1489 1490 1518 1517
f 1490 1491 1519 1518
f 1491 1492 1520 1519
f 1488 1516 1520 1492
f 1039 1057 1521 1493
f 1493 1521 1522 1494
f 1494 1522 1523 1495
f 1495 1523 1524 1496
f 1496 1524 1525 1497
f 1497 1525 1526 1498
f 1498 1526 1527 1499
f 1499 1527 1528 1500
f 1500 1528 1529 1502
f 1502 1529 1530 1504
f 1504 1530 1531 1506
f 1506 1531 1532 1508
f 1508 1532 1533 1510
f 1510 1533 1534 1512
f 1512 1534 1535 1514
f 1514 1535 1536 1515
f 1515 1536 1537 1516
f 1041 1517 1538 1059
f 1517 1518 1539 1538
f 1518 1519 1540 1539
f 1519 1520 1541 1540
f 1516 1537 1541 1520
f 1075 1097 1542 1543
f 1057 1075 1543 1521
f 1543 1542 1544 1545
f 1521 1543 1545 1522
f 1545 1544 1546 1547
f 1522 1545 1547 1523
f 1547 1546 1548 1549
f 1523 1547 1549 1524
f 1524 1549 1548 1525
f 1097 1100 1550 1542
f 1542 1550 1551 1544
f 1544 1551 1552 1546
f 1546 1552 1553 1548
f 1525 1548 1553 1526
f 1100 1103 1554 1550
f 1550 1554 1555 1551
f 1551 1555 1556 1552
f 1552 1556 1557 1553
f 1526 1553 1557 1527
f 1103 1106 1558 1554
f 1554 1558 1559 1555
f 1555 1559 1560 1556
f 1556 1560 1561 1557
f 1527 1557 1561 1528
f 1106 1109 1562 1558
f 1559 1563 1564 1560
f 1560 1564 1565 1561
f 1528 1561 1565 1529
f 1109 1112 1566 1562
f 1562 1566 1567 1563
f 1563 1567 1568 1564
f 1564 1568 1569 1565
f 1529 1565 1569 1530
f 1112 1115 1570 1566
f 1566 1570 1571 1567
f 1567 1571 1572 1568
f 1568 1572 1573 1569
f 1530 1569 1573 1531
f 1115 1118 1574 1570
f 1570 1574 1575 1571
f 1571 1575 1576 1572
f 1572 1576 1577 1573
f 1531 1573 1577 1532
f 1118 1121 1578 1574
f 1574 1578 1579 1575
f 1575 1579 1580 1576
f 1576 1580 1581 1577
f 1532 1577 1581 1533
f 1121 1124 1582 1578
f 1578 1582 1583 1579
f 1579 1583 1584 1580
f 1580 1584 1585 1581
f 1533 1581 1585 1534
f 1124 1127 1586 1582
f 1582 1586 1587 1583
f 1583 1587 1588 1584
f 1584 1588 1589 1585
f 1534 1585 1589 1535
f 1127 1130 1590 1586
f 1586 1590 1591 1587
f 1587 1591 1592 1588
f 1588 1592 1593 1589
f 1535 1589 1593 1536
f 1130 1133 1594 1590
f 1590 1594 1595 1591
f 1591 1595 1596 1592
f 1592 1596 1597 1593
f 1536 1593 1597 1537
f 1133 1077 1598 1594
f 1059 1538 1598 1077
f 1594 1598 1599 1595
f 1538 1539 1599 1598
f 1595 1599 1600 1596
f 1539 1540 1600 1599
f 1596 1600 1601 1597
f 1540 1541 1601 1600
f 1537 1597 1601 1541
f 1366 1602 1603 1367
f 1366 1387 1604 1602
f 1602 1605 1606 1603
f 1602 1604 1607 1605
f 1605 1608 1609 1606
f 1605 1607 1610 1608
f 1608 1611 1612 1609
f 1608 1610 1613 1611
f 1611 1613 1614 1612
f 1367 1603 1615 1368
f 1603 1606 1616 1615
f 1606 1609 1617 1616
f 1609 1612 1618 1617
f 1612 1614 1619 1618
f 1368 1615 1620 1369
f 1615 1616 1621 1620
f 1616 1617 1622 1621
f 1617 1618 1623 1622
f 1618 1619 1624 1623
f 1369 1620 1625 1370
f 1620 1621 1626 1625
f 1621 1622 1627 1626
f 1622 1623 1628 1627
f 1623 1624 1629 1628
f 1370 1625 1630 1371
f 1625 1626 1631 1630
f 1626 1627 1632 1631
f 1627 1628 1633 1632
f 1628 1629 1634 1633
f 1371 1630 1635 1372
f 1630 1631 1636 1635
f 1631 1632 1637 1636
f 1632 1633 1638 1637
f 1633 1634 1639 1638
f 1372 1635 1640 1373
f 1635 1636 1641 1640
f 1636 1637 1642 1641
f 1637 1638 1643 1642
f 1638 1639 1644 1643
f 1373 1640 1645 1374
f 1374 1645 1646 1388
f 1640 1641 1647 1645
f 1645 1647 1648 1646
f 1641 1642 1649 1647
f 1647 1649 1650 1648
f 1642 1643 1651 1649
f 1649 1651 1652 1650
f 1643 1644 1652 1651
f 1387 1401 1653 1604
f 1604 1653 1654 1607
f 1607 1654 1655 1610
f 1610 1655 1656 1613
f 1613 1656 1657 1614
f 1614 1657 1658 1619
f 1619 1658 1659 1624
f 1624 1659 1660 1629
f 1629 1660 1661 1634
f 1634 1661 1662 1639
f 1639 1662 1663 1644
f 1388 1646 1664 1402
f 1646 1648 1665 1664
f 1648 1650 1666 1665
f 1650 1652 1667 1666
f 1644 1663 1667 1652
f 1401 1415 1668 1653
f 1653 1668 1669 1654
f 1654 1669 1670 1655
f 1655 1670 1671 1656
f 1656 1671 1672 1657
f 1657 1672 1673 1658
f 1658 1673 1674 1659
f 1659 1674 1675 1660
f 1660 1675 1676 1661
f 1661 1676 1677 1662
f 1662 1677 1678 1663
f 1402 1664 1679 1416
f 1664 1665 1680 1679
f 1665 1666 1681 1680
f 1666 1667 1682 1681
f 1663 1678 1682 1667
f 1415 1429 1683 1668
f 1668 1683 1684 1669
f 1669 1684 1685 1670
f 1670 1685 1686 1671
f 1671 1686 1687 1672
f 1672 1687 1688 1673
f 1673 1688 1689 1674
f 1674 1689 1690 1675
f 1675 1690 1691 1676
f 1676 1691 1692 1677
f 1677 1692 1693 1678
f 1416 1679 1694 1430
f 1679 1680 1695 1694
f 1680 1681 1696 1695
f 1681 1682 1697 1696
f 1678 1693 1697 1682
f 1429 1443 1698 1683
f 1683 1698 1699 1684
f 1684 1699 1700 1685
f 1685 1700 1701 1686
f 1686 1701 1702 1687
f 1687 1702 1703 1688
f 1688 1703 1704 1689
f 1689 1704 1705 1690
f 1690 1705 1706 1691
f 1691 1706 1707 1692
f 1692 1707 1708 1693
f 1430 1694 1709 1444
f 1694 1695 1710 1709
f 1695 1696 1711 1710
f 1696 1697 1712 1711
f 1693 1708 1712 1697
f 1443 1457 1713 1698
f 1698 1713 1714 1699
f 1699 1714 1715 1700
f 1700 1715 1716 1701
f 1701 1716 1717 1702
f 1702 1717 1718 1703
f 1703 1718 1719 1704
f 1704 1719 1720 1705
f 1705 1720 1721 1706
f 1706 1721 1722 1707
f 1707 1722 1723 1708
f 1444 1709 1724 1458
f 1709 1710 1725 1724
f 1710 1711 1726 1725
f 1711 1712 1727 1726
f 1708 1723 1727 1712
f 1457 1471 1728 1713
f 1713 1728 1729 1714
f 1714 1729 1730 1715
f 1715 1730 1731 1716
f 1716 1731 1732 1717
f 1717 1732 1733 1718
f 1718 1733 1734 1719
f 1719 1734 1735 1720
f 1720 1735 1736 1721
f 1721 1736 1737 1722
f 1722 1737 1738 1723
f 1458 1724 1739 1472
f 1724 1725 1740 1739
f 1725 1726 1741 1740
f 1726 1727 1742 1741
f 1723 1738 1742 1727
f 1485 1501 1743 1744
f 1471 1485 1744 1728
f 1744 1743 1745 1746
f 1728 1744 1746 1729
f 1746 1745 1747 1748
f 1729 1746 1748 1730
f 1748 1747 1749 1750
f 1730 1748 1750 1731
f 1731 1750 1749 1732
f 1501 1503 1751 1743
f 1743 1751 1752 1745
f 1745 1752 1753 1747
f 1747 1753 1754 1749
f 1732 1749 1754 1733
f 1503 1505 1755 1751
f 1751 1755 1756 1752
f 1752 1756 1757 1753
f 1753 1757 1758 1754
f 1733 1754 1758 1734
f 1505 1507 1759 1755
f 1755 1759 1760 1756
f 1756 1760 1761 1757
f 1757 1761 1762 1758
f 1734 1758 1762 1735
f 1507 1509 1763 1759
f 1759 1763 1764 1760
f 1760 1764 1765 1761
f 1761 1765 1766 1762
f 1735 1762 1766 1736
f 1509 1511 1767 1763
f 1763 1767 1768 1764
f 1764 1768 1769 1765
f 1765 1769 1770 1766
f 1736 1766 1770 1737
f 1511 1513 1771 1767
f 1767 1771 1772 1768
f 1768 1772 1773 1769
f 1769 1773 1774 1770
f 1737 1770 1774 1738
f 1513 1486 1775 1771
f 1472 1739 1775 1486
f 1771 1775 1776 1772
f 1739 1740 1776 1775
f 1772 1776 1777 1773
f 1740 1741 1777 1776
f 1773 1777 1778 1774
f 1741 1742 1778 1777
f 1738 1774 1778 1742
usemtl c3
f 712 720 325 319
f 966 984 985 967
f 1206 1212 1213 1207
f 1322 1323 1328 1327
f 1558 1562 1563 1559
f 1779 1780 1781 1782
f 1783 1784 1785 1786
f 1786 1785 1781 1780
f 1783 1779 1782 1784
f 1784 1782 1781 1785
f 1783 1786 1780 1779
f 1787 1788 1789 1790
f 1585 1791 1792 1589
f 1589 1792 1789 1788
f 1585 1787 1790 1791
f 1791 1790 1789 1792
f 1585 1589 1788 1787
f 1385 1386 1793 1794
f 1364 1795 1796 1365
f 1365 1796 1793 1386
f 1364 1385 1794 1795
f 1795 1794 1793 1796
f 1797 1798 1799 1800
f 1801 1802 1803 1804
f 1804 1803 1799 1798
f 1801 1797 1800 1802
f 1802 1800 1799 1803
f 1801 1804 1798 1797
f 1805 1806 385 383
f 1807 322 328 1808
f 1808 328 385 1806
f 1807 1805 383 322
f 1807 1808 1806 1805
usemtl c4
f 1505 1504 1506 1507
f 1809 1810 1811 1812
f 1813 1814 1815 1816
f 1816 1815 1811 1810
f 1813 1809 1812 1814
f 1814 1812 1811 1815
f 1813 1816 1810 1809
f 1817 1818 1819 1820
f 1821 1822 1823 1824
f 1824 1823 1819 1818
f 1821 1817 1820 1822
f 1822 1820 1819 1823
f 1821 1824 1818 1817
