# generado por tools/vox_to_obj.py desde cana_v1.vox
mtllib cana_v1.mtl
v -0.5000 0.0000 1.0000
v -0.5000 1.0000 1.0000
v -0.5000 1.0000 0.0000
v -0.5000 0.0000 0.0000
v 0.5000 0.0000 1.0000
v 0.5000 1.0000 1.0000
v 0.5000 0.0000 0.0000
v -0.5000 1.0000 -1.0000
v -0.5000 0.0000 -1.0000
v 0.5000 1.0000 -1.0000
v 0.5000 0.0000 -1.0000
v 0.5000 1.0000 0.0000
v 1.5000 0.0000 1.0000
v 1.5000 0.0000 0.0000
v 1.5000 1.0000 0.0000
v 1.5000 1.0000 1.0000
v 1.5000 0.0000 -1.0000
v 1.5000 1.0000 -1.0000
v 0.5000 2.0000 0.0000
v 0.5000 2.0000 1.0000
v -0.5000 2.0000 1.0000
v -0.5000 2.0000 0.0000
v 0.5000 3.0000 0.0000
v 0.5000 3.0000 1.0000
v -0.5000 3.0000 1.0000
v -0.5000 3.0000 0.0000
v 0.5000 4.0000 0.0000
v 0.5000 4.0000 1.0000
v -0.5000 4.0000 1.0000
v -0.5000 4.0000 0.0000
v 0.5000 5.0000 0.0000
v 0.5000 5.0000 1.0000
v -0.5000 5.0000 0.0000
v -0.5000 5.0000 1.0000
v -0.5000 6.0000 1.0000
v -0.5000 6.0000 0.0000
v 0.5000 6.0000 0.0000
v 0.5000 6.0000 1.0000
v 0.5000 7.0000 0.0000
v 0.5000 7.0000 1.0000
v -0.5000 7.0000 1.0000
v -0.5000 7.0000 0.0000
v -1.5000 4.0000 1.0000
v -1.5000 5.0000 1.0000
v -1.5000 5.0000 0.0000
v -1.5000 4.0000 0.0000
v -1.5000 6.0000 0.0000
v -1.5000 6.0000 1.0000
v -2.5000 5.0000 1.0000
v -2.5000 6.0000 1.0000
v -2.5000 6.0000 0.0000
v -2.5000 5.0000 0.0000
v 1.5000 5.0000 1.0000
v 1.5000 5.0000 0.0000
v 1.5000 6.0000 0.0000
v 1.5000 6.0000 1.0000
v 2.5000 6.0000 1.0000
v 2.5000 6.0000 0.0000
v 2.5000 7.0000 0.0000
v 2.5000 7.0000 1.0000
v 1.5000 7.0000 1.0000
v 1.5000 7.0000 0.0000
usemtl c1
f 6 12 19 20
f 2 21 22 3
f 3 22 19 12
f 2 6 20 21
f 24 23 27 28
f 25 29 30 26
f 26 30 27 23
f 25 24 28 29
f 34 35 36 33
f 33 36 37 31
f 34 32 38 35
usemtl c2
f 43 44 45 46
f 46 45 33 30
f 43 29 34 44
f 44 34 33 45
f 43 46 30 29
f 44 45 47 48
f 49 50 51 52
f 52 51 47 45
f 49 44 48 50
f 50 48 47 51
f 49 52 45 44
f 53 54 55 56
f 31 37 55 54
f 32 53 56 38
f 38 56 55 37
f 32 31 54 53
f 57 58 59 60
f 56 61 62 55
f 55 62 59 58
f 56 57 60 61
f 61 60 59 62
f 56 55 58 57
usemtl c3
f 20 19 23 24
f 21 25 26 22
f 22 26 23 19
f 21 20 24 25
f 28 27 31 32
f 30 33 31 27
f 29 28 32 34
f 38 37 39 40
f 35 41 42 36
f 36 42 39 37
f 35 38 40 41
f 41 40 39 42
usemtl c4
f 1 2 3 4
f 1 5 6 2
f 1 4 7 5
f 4 3 8 9
f 9 8 10 11
f 3 12 10 8
f 4 9 11 7
f 13 14 15 16
f 5 13 16 6
f 6 16 15 12
f 5 7 14 13
f 14 17 18 15
f 11 10 18 17
f 12 15 18 10
f 7 11 17 14
