# generado por tools/vox_to_obj.py desde cana_v2.vox
mtllib cana_v2.mtl
v -2.0000 0.0000 2.0000
v -2.0000 1.0000 2.0000
v -2.0000 1.0000 1.0000
v -2.0000 0.0000 1.0000
v -1.0000 0.0000 2.0000
v -1.0000 1.0000 2.0000
v -1.0000 1.0000 1.0000
v -1.0000 0.0000 1.0000
v -2.0000 1.0000 0.0000
v -2.0000 0.0000 0.0000
v -1.0000 1.0000 0.0000
v -1.0000 0.0000 0.0000
v -2.0000 1.0000 -1.0000
v -2.0000 0.0000 -1.0000
v -1.0000 1.0000 -1.0000
v -1.0000 0.0000 -1.0000
v 0.0000 0.0000 2.0000
v 0.0000 1.0000 2.0000
v 0.0000 1.0000 1.0000
v 0.0000 0.0000 1.0000
v 0.0000 0.0000 0.0000
v 0.0000 1.0000 -1.0000
v 0.0000 0.0000 -1.0000
v 1.0000 0.0000 2.0000
v 1.0000 0.0000 1.0000
v 1.0000 1.0000 1.0000
v 1.0000 1.0000 2.0000
v 1.0000 0.0000 0.0000
v 1.0000 1.0000 0.0000
v 1.0000 0.0000 -1.0000
v 1.0000 1.0000 -1.0000
v -1.0000 2.0000 1.0000
v -1.0000 2.0000 0.0000
v 0.0000 2.0000 1.0000
v -1.0000 3.0000 1.0000
v -1.0000 3.0000 0.0000
v 0.0000 3.0000 1.0000
v -1.0000 4.0000 1.0000
v -1.0000 4.0000 0.0000
v 0.0000 4.0000 1.0000
v -1.0000 5.0000 1.0000
v -1.0000 5.0000 0.0000
v 0.0000 5.0000 1.0000
v -1.0000 6.0000 1.0000
v -1.0000 6.0000 0.0000
v 0.0000 6.0000 1.0000
v -1.0000 7.0000 1.0000
v -1.0000 7.0000 0.0000
v 0.0000 7.0000 1.0000
v -1.0000 8.0000 1.0000
v -1.0000 8.0000 0.0000
v 0.0000 8.0000 1.0000
v -1.0000 9.0000 1.0000
v -1.0000 9.0000 0.0000
v 0.0000 9.0000 1.0000
v -1.0000 10.0000 1.0000
v -1.0000 10.0000 0.0000
v 0.0000 10.0000 1.0000
v -1.0000 11.0000 1.0000
v -1.0000 11.0000 0.0000
v 0.0000 11.0000 1.0000
v -1.0000 12.0000 1.0000
v -1.0000 12.0000 0.0000
v 0.0000 12.0000 1.0000
v -1.0000 13.0000 1.0000
v -1.0000 13.0000 0.0000
v 0.0000 13.0000 1.0000
v -1.0000 14.0000 1.0000
v -1.0000 14.0000 0.0000
v 0.0000 14.0000 1.0000
v -1.0000 15.0000 1.0000
v -1.0000 15.0000 0.0000
v 0.0000 15.0000 1.0000
v -1.0000 16.0000 1.0000
v -1.0000 16.0000 0.0000
v 0.0000 16.0000 1.0000
v -1.0000 17.0000 1.0000
v -1.0000 17.0000 0.0000
v 0.0000 17.0000 1.0000
v -1.0000 18.0000 1.0000
v -1.0000 18.0000 0.0000
v 0.0000 18.0000 1.0000
v -1.0000 19.0000 1.0000
v -1.0000 19.0000 0.0000
v 0.0000 19.0000 1.0000
v -1.0000 20.0000 1.0000
v -1.0000 20.0000 0.0000
v 0.0000 20.0000 1.0000
v -1.0000 21.0000 1.0000
v -1.0000 21.0000 0.0000
v 0.0000 21.0000 1.0000
v -1.0000 22.0000 1.0000
v -1.0000 22.0000 0.0000
v 0.0000 22.0000 1.0000
v 0.0000 23.0000 1.0000
v -1.0000 23.0000 1.0000
v -1.0000 24.0000 1.0000
v -1.0000 24.0000 0.0000
v -1.0000 23.0000 0.0000
v 0.0000 24.0000 1.0000
v -1.0000 25.0000 1.0000
v -1.0000 25.0000 0.0000
v 0.0000 25.0000 1.0000
v -1.0000 26.0000 1.0000
v -1.0000 26.0000 0.0000
v 0.0000 26.0000 1.0000
v -1.0000 27.0000 1.0000
v -1.0000 27.0000 0.0000
v 0.0000 27.0000 1.0000
v -1.0000 28.0000 1.0000
v -1.0000 28.0000 0.0000
v 0.0000 28.0000 1.0000
v -1.0000 29.0000 1.0000
v -1.0000 29.0000 0.0000
v 0.0000 29.0000 1.0000
v 0.0000 29.0000 0.0000
v -1.0000 2.0000 -1.0000
v 0.0000 2.0000 -1.0000
v -1.0000 3.0000 -1.0000
v 0.0000 3.0000 -1.0000
v -1.0000 4.0000 -1.0000
v 0.0000 4.0000 -1.0000
v -1.0000 5.0000 -1.0000
v 0.0000 5.0000 -1.0000
v -1.0000 6.0000 -1.0000
v 0.0000 6.0000 -1.0000
v -1.0000 7.0000 -1.0000
v 0.0000 7.0000 -1.0000
v -1.0000 8.0000 -1.0000
v 0.0000 8.0000 -1.0000
v -1.0000 9.0000 -1.0000
v 0.0000 9.0000 -1.0000
v -1.0000 10.0000 -1.0000
v 0.0000 10.0000 -1.0000
v -1.0000 11.0000 -1.0000
v 0.0000 11.0000 -1.0000
v -1.0000 12.0000 -1.0000
v 0.0000 12.0000 -1.0000
v -1.0000 13.0000 -1.0000
v 0.0000 13.0000 -1.0000
v -1.0000 14.0000 -1.0000
v 0.0000 14.0000 -1.0000
v -1.0000 15.0000 -1.0000
v 0.0000 15.0000 -1.0000
v -1.0000 16.0000 -1.0000
v 0.0000 16.0000 -1.0000
v -1.0000 17.0000 -1.0000
v 0.0000 17.0000 -1.0000
v -1.0000 18.0000 -1.0000
v 0.0000 18.0000 -1.0000
v -1.0000 19.0000 -1.0000
v 0.0000 19.0000 -1.0000
v -1.0000 20.0000 -1.0000
v 0.0000 20.0000 -1.0000
v -1.0000 21.0000 -1.0000
v -1.0000 22.0000 -1.0000
v 0.0000 22.0000 -1.0000
v 0.0000 21.0000 -1.0000
v -1.0000 23.0000 -1.0000
v 0.0000 23.0000 -1.0000
v -1.0000 24.0000 -1.0000
v 0.0000 24.0000 -1.0000
v -1.0000 25.0000 -1.0000
v 0.0000 25.0000 -1.0000
v -1.0000 26.0000 -1.0000
v 0.0000 26.0000 -1.0000
v -1.0000 27.0000 -1.0000
v 0.0000 27.0000 -1.0000
v -1.0000 28.0000 -1.0000
v 0.0000 28.0000 -1.0000
v -1.0000 29.0000 -1.0000
v 0.0000 29.0000 -1.0000
v 1.0000 2.0000 0.0000
v 1.0000 2.0000 1.0000
v 1.0000 3.0000 0.0000
v 1.0000 3.0000 1.0000
v 1.0000 4.0000 0.0000
v 1.0000 4.0000 1.0000
v 1.0000 5.0000 0.0000
v 1.0000 5.0000 1.0000
v 1.0000 6.0000 0.0000
v 1.0000 6.0000 1.0000
v 1.0000 7.0000 0.0000
v 1.0000 7.0000 1.0000
v 1.0000 8.0000 0.0000
v 1.0000 8.0000 1.0000
v 1.0000 9.0000 0.0000
v 1.0000 9.0000 1.0000
v 1.0000 10.0000 0.0000
v 1.0000 10.0000 1.0000
v 1.0000 11.0000 0.0000
v 1.0000 11.0000 1.0000
v 1.0000 12.0000 0.0000
v 1.0000 12.0000 1.0000
v 1.0000 13.0000 0.0000
v 1.0000 13.0000 1.0000
v 1.0000 14.0000 0.0000
v 1.0000 14.0000 1.0000
v 1.0000 15.0000 0.0000
v 1.0000 15.0000 1.0000
v 1.0000 16.0000 0.0000
v 1.0000 16.0000 1.0000
v 1.0000 17.0000 0.0000
v 1.0000 17.0000 1.0000
v 1.0000 18.0000 0.0000
v 1.0000 18.0000 1.0000
v 1.0000 19.0000 0.0000
v 1.0000 19.0000 1.0000
v 1.0000 20.0000 0.0000
v 1.0000 20.0000 1.0000
v 1.0000 21.0000 0.0000
v 1.0000 21.0000 1.0000
v 1.0000 22.0000 0.0000
v 1.0000 22.0000 1.0000
v 1.0000 23.0000 0.0000
v 1.0000 23.0000 1.0000
v 1.0000 24.0000 0.0000
v 1.0000 24.0000 1.0000
v 1.0000 25.0000 1.0000
v 1.0000 25.0000 0.0000
v 1.0000 26.0000 0.0000
v 1.0000 26.0000 1.0000
v 1.0000 27.0000 0.0000
v 1.0000 27.0000 1.0000
v 1.0000 28.0000 0.0000
v 1.0000 28.0000 1.0000
v 1.0000 29.0000 0.0000
v 1.0000 29.0000 1.0000
v 1.0000 2.0000 -1.0000
v 1.0000 3.0000 -1.0000
v 1.0000 4.0000 -1.0000
v 1.0000 5.0000 -1.0000
v 1.0000 6.0000 -1.0000
v 1.0000 7.0000 -1.0000
v 1.0000 8.0000 -1.0000
v 1.0000 9.0000 -1.0000
v 1.0000 10.0000 -1.0000
v 1.0000 11.0000 -1.0000
v 1.0000 12.0000 -1.0000
v 1.0000 13.0000 -1.0000
v 1.0000 14.0000 -1.0000
v 1.0000 15.0000 -1.0000
v 1.0000 16.0000 -1.0000
v 1.0000 17.0000 -1.0000
v 1.0000 18.0000 -1.0000
v 1.0000 19.0000 -1.0000
v 1.0000 20.0000 -1.0000
v 1.0000 21.0000 -1.0000
v 1.0000 22.0000 -1.0000
v 1.0000 23.0000 -1.0000
v 1.0000 24.0000 -1.0000
v 1.0000 25.0000 -1.0000
v 1.0000 26.0000 -1.0000
v 1.0000 27.0000 -1.0000
v 1.0000 28.0000 -1.0000
v 1.0000 29.0000 -1.0000
v 2.0000 25.0000 0.0000
v 2.0000 24.0000 0.0000
v 2.0000 24.0000 1.0000
v 2.0000 25.0000 1.0000
v 3.0000 25.0000 0.0000
v 3.0000 24.0000 0.0000
v 3.0000 24.0000 1.0000
v 3.0000 25.0000 1.0000
v 4.0000 24.0000 1.0000
v 4.0000 24.0000 0.0000
v 4.0000 25.0000 0.0000
v 4.0000 25.0000 1.0000
v 4.0000 23.0000 1.0000
v 4.0000 23.0000 0.0000
v 5.0000 24.0000 0.0000
v 5.0000 23.0000 0.0000
v 5.0000 23.0000 1.0000
v 5.0000 24.0000 1.0000
v 6.0000 23.0000 1.0000
v 6.0000 23.0000 0.0000
v 6.0000 24.0000 0.0000
v 6.0000 24.0000 1.0000
v 6.0000 22.0000 1.0000
v 6.0000 22.0000 0.0000
v 5.0000 22.0000 1.0000
v 5.0000 22.0000 0.0000
v -3.0000 22.0000 1.0000
v -3.0000 23.0000 1.0000
v -3.0000 23.0000 0.0000
v -3.0000 22.0000 0.0000
v -2.0000 23.0000 0.0000
v -2.0000 22.0000 0.0000
v -2.0000 22.0000 1.0000
v -2.0000 23.0000 1.0000
v -5.0000 21.0000 1.0000
v -5.0000 22.0000 1.0000
v -5.0000 22.0000 0.0000
v -5.0000 21.0000 0.0000
v -4.0000 22.0000 0.0000
v -4.0000 21.0000 0.0000
v -4.0000 21.0000 1.0000
v -4.0000 22.0000 1.0000
v -3.0000 21.0000 1.0000
v -3.0000 21.0000 0.0000
v -5.0000 20.0000 1.0000
v -5.0000 20.0000 0.0000
v -6.0000 20.0000 1.0000
v -6.0000 21.0000 1.0000
v -6.0000 21.0000 0.0000
v -6.0000 20.0000 0.0000
v 0.0000 20.0000 -2.0000
v 0.0000 21.0000 -2.0000
v -1.0000 21.0000 -2.0000
v -1.0000 20.0000 -2.0000
v 0.0000 20.0000 -3.0000
v 0.0000 21.0000 -3.0000
v -1.0000 21.0000 -3.0000
v -1.0000 20.0000 -3.0000
v 0.0000 20.0000 -4.0000
v 0.0000 21.0000 -4.0000
v -1.0000 21.0000 -4.0000
v -1.0000 20.0000 -4.0000
v 0.0000 19.0000 -4.0000
v 0.0000 19.0000 -5.0000
v 0.0000 20.0000 -5.0000
v -1.0000 19.0000 -4.0000
v -1.0000 20.0000 -5.0000
v -1.0000 19.0000 -5.0000
v 0.0000 19.0000 -6.0000
v 0.0000 20.0000 -6.0000
v -1.0000 20.0000 -6.0000
v -1.0000 19.0000 -6.0000
v 1.0000 18.0000 4.0000
v 1.0000 18.0000 3.0000
v 1.0000 19.0000 3.0000
v 1.0000 19.0000 4.0000
v 0.0000 18.0000 4.0000
v 0.0000 19.0000 4.0000
v 0.0000 19.0000 3.0000
v 0.0000 18.0000 3.0000
v 1.0000 18.0000 2.0000
v 1.0000 19.0000 2.0000
v 0.0000 19.0000 2.0000
v 0.0000 18.0000 2.0000
v 1.0000 17.0000 6.0000
v 1.0000 17.0000 5.0000
v 1.0000 18.0000 5.0000
v 1.0000 18.0000 6.0000
v 0.0000 17.0000 6.0000
v 0.0000 18.0000 6.0000
v 0.0000 18.0000 5.0000
v 0.0000 17.0000 5.0000
v 1.0000 17.0000 4.0000
v 0.0000 17.0000 4.0000
v 2.0000 27.0000 -1.0000
v 2.0000 26.0000 -1.0000
v 2.0000 26.0000 0.0000
v 2.0000 27.0000 0.0000
v 3.0000 27.0000 -1.0000
v 3.0000 26.0000 -1.0000
v 3.0000 26.0000 0.0000
v 3.0000 27.0000 0.0000
v 4.0000 26.0000 0.0000
v 4.0000 26.0000 -1.0000
v 4.0000 27.0000 -1.0000
v 4.0000 27.0000 0.0000
v -3.0000 26.0000 0.0000
v -3.0000 27.0000 0.0000
v -3.0000 27.0000 -1.0000
v -3.0000 26.0000 -1.0000
v -2.0000 27.0000 -1.0000
v -2.0000 26.0000 -1.0000
v -2.0000 26.0000 0.0000
v -2.0000 27.0000 0.0000
usemtl c5
f 35 38 39 36
f 35 37 40 38
f 41 44 45 42
f 41 43 46 44
f 44 47 48 45
f 44 46 49 47
f 47 50 51 48
f 47 49 52 50
f 53 56 57 54
f 53 55 58 56
f 56 59 60 57
f 56 58 61 59
f 59 62 63 60
f 59 61 64 62
f 65 68 69 66
f 65 67 70 68
f 68 71 72 69
f 68 70 73 71
f 71 74 75 72
f 71 73 76 74
f 77 80 81 78
f 77 79 82 80
f 80 83 84 81
f 80 82 85 83
f 83 86 87 84
f 83 85 88 86
f 89 92 93 90
f 89 91 94 92
f 92 94 95 96
f 96 97 98 99
f 96 95 100 97
f 101 104 105 102
f 101 103 106 104
f 104 107 108 105
f 104 106 109 107
f 107 110 111 108
f 107 109 112 110
f 36 39 121 119
f 119 121 122 120
f 42 45 125 123
f 123 125 126 124
f 45 48 127 125
f 125 127 128 126
f 48 51 129 127
f 127 129 130 128
f 54 57 133 131
f 131 133 134 132
f 57 60 135 133
f 133 135 136 134
f 60 63 137 135
f 135 137 138 136
f 66 69 141 139
f 139 141 142 140
f 69 72 143 141
f 141 143 144 142
f 72 75 145 143
f 143 145 146 144
f 78 81 149 147
f 147 149 150 148
f 81 84 151 149
f 149 151 152 150
f 84 87 153 151
f 151 153 154 152
f 90 93 156 155
f 155 156 157 158
f 93 99 159 156
f 156 159 160 157
f 99 98 161 159
f 159 161 162 160
f 102 105 165 163
f 163 165 166 164
f 165 167 168 166
f 108 111 169 167
f 167 169 170 168
f 176 175 177 178
f 37 176 178 40
f 180 179 181 182
f 43 180 182 46
f 182 181 183 184
f 46 182 184 49
f 184 183 185 186
f 49 184 186 52
f 188 187 189 190
f 55 188 190 58
f 190 189 191 192
f 58 190 192 61
f 192 191 193 194
f 61 192 194 64
f 196 195 197 198
f 67 196 198 70
f 198 197 199 200
f 70 198 200 73
f 200 199 201 202
f 73 200 202 76
f 204 203 205 206
f 79 204 206 82
f 206 205 207 208
f 208 207 209 210
f 85 208 210 88
f 212 211 213 214
f 91 212 214 94
f 214 213 215 216
f 94 214 216 95
f 216 215 217 218
f 95 216 218 100
f 219 220 221 222
f 103 219 222 106
f 222 221 223 224
f 106 222 224 109
f 224 223 225 226
f 109 224 226 112
f 175 230 231 177
f 120 122 231 230
f 179 232 233 181
f 124 126 233 232
f 181 233 234 183
f 126 128 234 233
f 183 234 235 185
f 128 130 235 234
f 187 236 237 189
f 132 134 237 236
f 189 237 238 191
f 134 136 238 237
f 191 238 239 193
f 136 138 239 238
f 195 240 241 197
f 140 142 241 240
f 197 241 242 199
f 142 144 242 241
f 199 242 243 201
f 144 146 243 242
f 203 244 245 205
f 148 150 245 244
f 205 245 246 207
f 150 152 246 245
f 207 246 247 209
f 152 154 247 246
f 211 248 249 213
f 158 157 249 248
f 213 249 250 215
f 157 160 250 249
f 215 250 251 217
f 160 162 251 250
f 220 252 253 221
f 164 166 253 252
f 166 168 254 253
f 223 254 255 225
f 168 170 255 254
usemtl c6
f 38 41 42 39
f 38 40 43 41
f 50 53 54 51
f 50 52 55 53
f 62 65 66 63
f 62 64 67 65
f 74 77 78 75
f 74 76 79 77
f 86 89 90 87
f 86 88 91 89
f 97 101 102 98
f 97 100 103 101
f 110 113 114 111
f 110 112 115 113
f 113 115 116 114
f 39 42 123 121
f 121 123 124 122
f 51 54 131 129
f 129 131 132 130
f 63 66 139 137
f 137 139 140 138
f 75 78 147 145
f 145 147 148 146
f 87 90 155 153
f 98 102 163 161
f 161 163 164 162
f 111 114 171 169
f 169 171 172 170
f 114 116 172 171
f 178 177 179 180
f 40 178 180 43
f 186 185 187 188
f 52 186 188 55
f 194 193 195 196
f 64 194 196 67
f 202 201 203 204
f 76 202 204 79
f 210 209 211 212
f 88 210 212 91
f 100 218 219 103
f 226 225 227 228
f 112 226 228 115
f 115 228 227 116
f 177 231 232 179
f 122 124 232 231
f 185 235 236 187
f 130 132 236 235
f 193 239 240 195
f 138 140 240 239
f 201 243 244 203
f 146 148 244 243
f 209 247 248 211
f 154 158 248 247
f 217 251 252 220
f 162 164 252 251
f 225 255 256 227
f 170 172 256 255
f 116 227 256 172
usemtl c7
f 217 220 257 258
f 218 259 260 219
f 219 260 257 220
f 218 217 258 259
f 258 257 261 262
f 259 263 264 260
f 260 264 261 257
f 259 258 262 263
f 265 266 267 268
f 262 261 267 266
f 263 265 268 264
f 264 268 267 261
f 263 262 266 265
f 269 265 266 270
f 270 266 271 272
f 269 273 274 265
f 265 274 271 266
f 269 270 272 273
f 275 276 277 278
f 272 271 277 276
f 273 275 278 274
f 274 278 277 271
f 279 280 276 275
f 281 273 272 282
f 282 272 276 280
f 281 279 275 273
f 281 282 280 279
f 283 284 285 286
f 286 285 287 288
f 283 289 290 284
f 284 290 287 285
f 283 286 288 289
f 288 287 99 93
f 289 92 96 290
f 290 96 99 287
f 289 288 93 92
f 291 292 293 294
f 294 293 295 296
f 291 297 298 292
f 292 298 295 293
f 291 294 296 297
f 299 300 286 283
f 296 295 286 300
f 297 299 283 298
f 298 283 286 295
f 297 296 300 299
f 301 302 294 291
f 303 304 305 306
f 306 305 294 302
f 303 301 291 304
f 304 291 294 305
f 303 306 302 301
f 154 307 308 158
f 153 155 309 310
f 155 158 308 309
f 153 310 307 154
f 307 311 312 308
f 310 309 313 314
f 309 308 312 313
f 310 314 311 307
f 311 315 316 312
f 314 313 317 318
f 318 317 316 315
f 313 312 316 317
f 314 318 315 311
f 319 320 321 315
f 322 318 323 324
f 322 319 315 318
f 318 315 321 323
f 322 324 320 319
f 320 325 326 321
f 324 323 327 328
f 328 327 326 325
f 323 321 326 327
f 324 328 325 320
f 329 330 331 332
f 333 334 335 336
f 333 329 332 334
f 334 332 331 335
f 333 336 330 329
f 330 337 338 331
f 336 335 339 340
f 335 331 338 339
f 336 340 337 330
f 337 206 208 338
f 340 339 85 82
f 339 338 208 85
f 340 82 206 337
f 341 342 343 344
f 345 346 347 348
f 345 341 344 346
f 346 344 343 347
f 345 348 342 341
f 342 349 329 343
f 348 347 333 350
f 350 333 329 349
f 347 343 329 333
f 348 350 349 342
f 253 254 351 352
f 221 353 354 223
f 223 354 351 254
f 221 253 352 353
f 352 351 355 356
f 353 357 358 354
f 354 358 355 351
f 353 352 356 357
f 359 360 361 362
f 356 355 361 360
f 357 359 362 358
f 358 362 361 355
f 357 356 360 359
f 363 364 365 366
f 366 365 367 368
f 363 369 370 364
f 364 370 367 365
f 363 366 368 369
f 368 367 167 165
f 369 105 108 370
f 370 108 167 367
f 369 368 165 105
usemtl c8
f 7 32 33 11
f 7 19 34 32
f 32 35 36 33
f 32 34 37 35
f 11 33 117 15
f 15 117 118 22
f 33 36 119 117
f 117 119 120 118
f 26 29 173 174
f 19 26 174 34
f 174 173 175 176
f 34 174 176 37
f 29 31 229 173
f 22 118 229 31
f 173 229 230 175
f 118 120 230 229
usemtl c9
f 1 2 3 4
f 1 5 6 2
f 2 6 7 3
f 1 4 8 5
f 4 3 9 10
f 3 7 11 9
f 4 10 12 8
f 10 9 13 14
f 14 13 15 16
f 9 11 15 13
f 10 14 16 12
f 5 17 18 6
f 6 18 19 7
f 5 8 20 17
f 8 12 21 20
f 16 15 22 23
f 12 16 23 21
f 24 25 26 27
f 17 24 27 18
f 18 27 26 19
f 17 20 25 24
f 25 28 29 26
f 20 21 28 25
f 28 30 31 29
f 23 22 31 30
f 21 23 30 28
