# generado por tools/vox_to_obj.py desde cana_v3.vox
mtllib cana_v3.mtl
v -2.0000 0.0000 2.0000
v -2.0000 1.0000 2.0000
v -2.0000 1.0000 1.0000
v -2.0000 0.0000 1.0000
v -1.0000 0.0000 2.0000
v -1.0000 1.0000 2.0000
v -1.0000 1.0000 1.0000
v -1.0000 0.0000 1.0000
v -2.0000 1.0000 0.0000
v -2.0000 0.0000 0.0000
v -1.0000 1.0000 0.0000
v -1.0000 0.0000 0.0000
v -2.0000 1.0000 -1.0000
v -2.0000 0.0000 -1.0000
v -1.0000 1.0000 -1.0000
v -1.0000 0.0000 -1.0000
v -2.0000 1.0000 -2.0000
v -2.0000 0.0000 -2.0000
v -1.0000 1.0000 -2.0000
v -1.0000 0.0000 -2.0000
v 0.0000 0.0000 2.0000
v 0.0000 1.0000 2.0000
v 0.0000 1.0000 1.0000
v 0.0000 0.0000 1.0000
v 0.0000 0.0000 0.0000
v 0.0000 0.0000 -1.0000
v 0.0000 1.0000 -2.0000
v 0.0000 0.0000 -2.0000
v 0.0000 1.0000 -1.0000
v 1.0000 0.0000 2.0000
v 1.0000 1.0000 2.0000
v 1.0000 1.0000 1.0000
v 1.0000 0.0000 1.0000
v 1.0000 0.0000 0.0000
v 1.0000 0.0000 -1.0000
v 1.0000 1.0000 -2.0000
v 1.0000 0.0000 -2.0000
v 1.0000 1.0000 -1.0000
v 2.0000 0.0000 2.0000
v 2.0000 0.0000 1.0000
v 2.0000 1.0000 1.0000
v 2.0000 1.0000 2.0000
v 2.0000 0.0000 0.0000
v 2.0000 1.0000 0.0000
v 1.0000 1.0000 0.0000
v 2.0000 0.0000 -1.0000
v 2.0000 1.0000 -1.0000
v 2.0000 0.0000 -2.0000
v 2.0000 1.0000 -2.0000
v -1.0000 2.0000 1.0000
v -1.0000 2.0000 0.0000
v 0.0000 2.0000 1.0000
v -1.0000 3.0000 1.0000
v -1.0000 3.0000 0.0000
v 0.0000 3.0000 1.0000
v -1.0000 4.0000 1.0000
v -1.0000 4.0000 0.0000
v 0.0000 4.0000 1.0000
v -1.0000 5.0000 1.0000
v -1.0000 5.0000 0.0000
v 0.0000 5.0000 1.0000
v -1.0000 6.0000 1.0000
v -1.0000 6.0000 0.0000
v 0.0000 6.0000 1.0000
v -1.0000 7.0000 1.0000
v -1.0000 7.0000 0.0000
v 0.0000 7.0000 1.0000
v -1.0000 8.0000 1.0000
v -1.0000 8.0000 0.0000
v 0.0000 8.0000 1.0000
v -1.0000 9.0000 1.0000
v -1.0000 9.0000 0.0000
v 0.0000 9.0000 1.0000
v -1.0000 10.0000 1.0000
v -1.0000 10.0000 0.0000
v 0.0000 10.0000 1.0000
v -1.0000 11.0000 1.0000
v -1.0000 11.0000 0.0000
v 0.0000 11.0000 1.0000
v -1.0000 12.0000 1.0000
v -1.0000 12.0000 0.0000
v 0.0000 12.0000 1.0000
v -1.0000 13.0000 1.0000
v -1.0000 13.0000 0.0000
v 0.0000 13.0000 1.0000
v -1.0000 14.0000 1.0000
v -1.0000 14.0000 0.0000
v 0.0000 14.0000 1.0000
v -1.0000 15.0000 1.0000
v -1.0000 15.0000 0.0000
v 0.0000 15.0000 1.0000
v -1.0000 16.0000 1.0000
v -1.0000 16.0000 0.0000
v 0.0000 16.0000 1.0000
v -1.0000 17.0000 1.0000
v -1.0000 17.0000 0.0000
v 0.0000 17.0000 1.0000
v -1.0000 18.0000 1.0000
v -1.0000 18.0000 0.0000
v 0.0000 18.0000 1.0000
v -1.0000 19.0000 1.0000
v -1.0000 19.0000 0.0000
v 0.0000 19.0000 1.0000
v -1.0000 20.0000 1.0000
v -1.0000 20.0000 0.0000
v 0.0000 20.0000 1.0000
v -1.0000 21.0000 1.0000
v -1.0000 21.0000 0.0000
v 0.0000 21.0000 1.0000
v -1.0000 22.0000 1.0000
v -1.0000 22.0000 0.0000
v 0.0000 22.0000 1.0000
v -1.0000 23.0000 1.0000
v -1.0000 23.0000 0.0000
v 0.0000 23.0000 1.0000
v -1.0000 2.0000 -1.0000
v 0.0000 2.0000 -1.0000
v -1.0000 3.0000 -1.0000
v 0.0000 3.0000 -1.0000
v -1.0000 4.0000 -1.0000
v 0.0000 4.0000 -1.0000
v -1.0000 5.0000 -1.0000
v 0.0000 5.0000 -1.0000
v -1.0000 6.0000 -1.0000
v 0.0000 6.0000 -1.0000
v -1.0000 7.0000 -1.0000
v 0.0000 7.0000 -1.0000
v -1.0000 8.0000 -1.0000
v 0.0000 8.0000 -1.0000
v -1.0000 9.0000 -1.0000
v 0.0000 9.0000 -1.0000
v -1.0000 10.0000 -1.0000
v 0.0000 10.0000 -1.0000
v -1.0000 11.0000 -1.0000
v 0.0000 11.0000 -1.0000
v -1.0000 12.0000 -1.0000
v 0.0000 12.0000 -1.0000
v -1.0000 13.0000 -1.0000
v 0.0000 13.0000 -1.0000
v -1.0000 14.0000 -1.0000
v 0.0000 14.0000 -1.0000
v -1.0000 15.0000 -1.0000
v 0.0000 15.0000 -1.0000
v -1.0000 16.0000 -1.0000
v 0.0000 16.0000 -1.0000
v -1.0000 17.0000 -1.0000
v 0.0000 17.0000 -1.0000
v -1.0000 18.0000 -1.0000
v 0.0000 18.0000 -1.0000
v -1.0000 19.0000 -1.0000
v 0.0000 19.0000 -1.0000
v -1.0000 20.0000 -1.0000
v 0.0000 20.0000 -1.0000
v -1.0000 21.0000 -1.0000
v 0.0000 21.0000 -1.0000
v -1.0000 22.0000 -1.0000
v 0.0000 22.0000 -1.0000
v -1.0000 23.0000 -1.0000
v 0.0000 23.0000 -1.0000
v 1.0000 2.0000 0.0000
v 1.0000 2.0000 1.0000
v 1.0000 3.0000 0.0000
v 1.0000 3.0000 1.0000
v 1.0000 4.0000 0.0000
v 1.0000 4.0000 1.0000
v 1.0000 5.0000 0.0000
v 1.0000 5.0000 1.0000
v 1.0000 6.0000 0.0000
v 1.0000 6.0000 1.0000
v 1.0000 7.0000 0.0000
v 1.0000 7.0000 1.0000
v 1.0000 8.0000 0.0000
v 1.0000 8.0000 1.0000
v 1.0000 9.0000 0.0000
v 1.0000 9.0000 1.0000
v 1.0000 10.0000 0.0000
v 1.0000 10.0000 1.0000
v 1.0000 11.0000 0.0000
v 1.0000 11.0000 1.0000
v 1.0000 12.0000 0.0000
v 1.0000 12.0000 1.0000
v 1.0000 13.0000 0.0000
v 1.0000 13.0000 1.0000
v 1.0000 14.0000 0.0000
v 1.0000 14.0000 1.0000
v 1.0000 15.0000 0.0000
v 1.0000 15.0000 1.0000
v 1.0000 16.0000 0.0000
v 1.0000 16.0000 1.0000
v 1.0000 17.0000 0.0000
v 1.0000 17.0000 1.0000
v 1.0000 18.0000 0.0000
v 1.0000 18.0000 1.0000
v 1.0000 19.0000 0.0000
v 1.0000 19.0000 1.0000
v 1.0000 20.0000 0.0000
v 1.0000 20.0000 1.0000
v 1.0000 21.0000 0.0000
v 1.0000 21.0000 1.0000
v 1.0000 22.0000 0.0000
v 1.0000 22.0000 1.0000
v 1.0000 23.0000 0.0000
v 1.0000 23.0000 1.0000
v 1.0000 2.0000 -1.0000
v 1.0000 3.0000 -1.0000
v 1.0000 4.0000 -1.0000
v 1.0000 5.0000 -1.0000
v 1.0000 6.0000 -1.0000
v 1.0000 7.0000 -1.0000
v 1.0000 8.0000 -1.0000
v 1.0000 9.0000 -1.0000
v 1.0000 10.0000 -1.0000
v 1.0000 11.0000 -1.0000
v 1.0000 12.0000 -1.0000
v 1.0000 13.0000 -1.0000
v 1.0000 14.0000 -1.0000
v 1.0000 15.0000 -1.0000
v 1.0000 16.0000 -1.0000
v 1.0000 17.0000 -1.0000
v 1.0000 18.0000 -1.0000
v 1.0000 19.0000 -1.0000
v 1.0000 20.0000 -1.0000
v 1.0000 21.0000 -1.0000
v 1.0000 22.0000 -1.0000
v 1.0000 23.0000 -1.0000
v -1.0000 24.0000 1.0000
v -1.0000 24.0000 0.0000
v 0.0000 24.0000 1.0000
v -1.0000 25.0000 1.0000
v -1.0000 25.0000 0.0000
v 0.0000 25.0000 1.0000
v -1.0000 26.0000 1.0000
v -1.0000 26.0000 0.0000
v 0.0000 26.0000 1.0000
v -1.0000 27.0000 1.0000
v -1.0000 27.0000 0.0000
v 0.0000 27.0000 1.0000
v -1.0000 28.0000 1.0000
v -1.0000 28.0000 0.0000
v 0.0000 28.0000 1.0000
v -1.0000 29.0000 1.0000
v -1.0000 29.0000 0.0000
v 0.0000 29.0000 1.0000
v -1.0000 30.0000 1.0000
v -1.0000 30.0000 0.0000
v 0.0000 30.0000 1.0000
v -1.0000 31.0000 1.0000
v -1.0000 31.0000 0.0000
v 0.0000 31.0000 1.0000
v -1.0000 32.0000 1.0000
v -1.0000 32.0000 0.0000
v 0.0000 32.0000 1.0000
v -1.0000 33.0000 1.0000
v -1.0000 33.0000 0.0000
v 0.0000 33.0000 1.0000
v -1.0000 34.0000 1.0000
v -1.0000 34.0000 0.0000
v 0.0000 34.0000 1.0000
v -1.0000 35.0000 1.0000
v -1.0000 35.0000 0.0000
v 0.0000 35.0000 1.0000
v -1.0000 36.0000 1.0000
v -1.0000 36.0000 0.0000
v 0.0000 36.0000 1.0000
v -1.0000 37.0000 1.0000
v -1.0000 37.0000 0.0000
v 0.0000 37.0000 1.0000
v -1.0000 38.0000 1.0000
v -1.0000 38.0000 0.0000
v 0.0000 38.0000 1.0000
v -1.0000 39.0000 1.0000
v -1.0000 39.0000 0.0000
v 0.0000 39.0000 1.0000
v -1.0000 40.0000 1.0000
v -1.0000 40.0000 0.0000
v 0.0000 40.0000 1.0000
v -1.0000 41.0000 1.0000
v -1.0000 41.0000 0.0000
v 0.0000 41.0000 1.0000
v -1.0000 42.0000 1.0000
v -1.0000 42.0000 0.0000
v 0.0000 42.0000 1.0000
v -1.0000 43.0000 1.0000
v -1.0000 43.0000 0.0000
v -1.0000 44.0000 1.0000
v -1.0000 44.0000 0.0000
v 0.0000 43.0000 1.0000
v 0.0000 44.0000 1.0000
v 0.0000 45.0000 1.0000
v -1.0000 45.0000 1.0000
v -1.0000 46.0000 1.0000
v -1.0000 46.0000 0.0000
v -1.0000 45.0000 0.0000
v 0.0000 46.0000 1.0000
v -1.0000 24.0000 -1.0000
v 0.0000 24.0000 -1.0000
v -1.0000 25.0000 -1.0000
v 0.0000 25.0000 -1.0000
v -1.0000 26.0000 -1.0000
v 0.0000 26.0000 -1.0000
v -1.0000 27.0000 -1.0000
v 0.0000 27.0000 -1.0000
v -1.0000 28.0000 -1.0000
v 0.0000 28.0000 -1.0000
v -1.0000 29.0000 -1.0000
v 0.0000 29.0000 -1.0000
v -1.0000 30.0000 -1.0000
v 0.0000 30.0000 -1.0000
v -1.0000 31.0000 -1.0000
v 0.0000 31.0000 -1.0000
v -1.0000 32.0000 -1.0000
v 0.0000 32.0000 -1.0000
v -1.0000 33.0000 -1.0000
v 0.0000 33.0000 -1.0000
v -1.0000 34.0000 -1.0000
v 0.0000 34.0000 -1.0000
v -1.0000 35.0000 -1.0000
v 0.0000 35.0000 -1.0000
v -1.0000 36.0000 -1.0000
v 0.0000 36.0000 -1.0000
v -1.0000 37.0000 -1.0000
v 0.0000 37.0000 -1.0000
v -1.0000 38.0000 -1.0000
v 0.0000 38.0000 -1.0000
v -1.0000 39.0000 -1.0000
v 0.0000 39.0000 -1.0000
v -1.0000 40.0000 -1.0000
v 0.0000 40.0000 -1.0000
v -1.0000 41.0000 -1.0000
v 0.0000 41.0000 -1.0000
v -1.0000 42.0000 -1.0000
v 0.0000 42.0000 -1.0000
v -1.0000 43.0000 -1.0000
v -1.0000 44.0000 -1.0000
v 0.0000 44.0000 -1.0000
v 0.0000 43.0000 -1.0000
v -1.0000 45.0000 -1.0000
v 0.0000 45.0000 -1.0000
v -1.0000 46.0000 -1.0000
v 0.0000 46.0000 -1.0000
v 1.0000 24.0000 0.0000
v 1.0000 24.0000 1.0000
v 1.0000 25.0000 0.0000
v 1.0000 25.0000 1.0000
v 1.0000 26.0000 0.0000
v 1.0000 26.0000 1.0000
v 1.0000 27.0000 0.0000
v 1.0000 27.0000 1.0000
v 1.0000 28.0000 0.0000
v 1.0000 28.0000 1.0000
v 1.0000 29.0000 0.0000
v 1.0000 29.0000 1.0000
v 1.0000 30.0000 0.0000
v 1.0000 30.0000 1.0000
v 1.0000 31.0000 0.0000
v 1.0000 31.0000 1.0000
v 1.0000 32.0000 0.0000
v 1.0000 32.0000 1.0000
v 1.0000 33.0000 0.0000
v 1.0000 33.0000 1.0000
v 1.0000 34.0000 0.0000
v 1.0000 34.0000 1.0000
v 1.0000 35.0000 0.0000
v 1.0000 35.0000 1.0000
v 1.0000 36.0000 0.0000
v 1.0000 36.0000 1.0000
v 1.0000 37.0000 0.0000
v 1.0000 37.0000 1.0000
v 1.0000 38.0000 0.0000
v 1.0000 38.0000 1.0000
v 1.0000 39.0000 0.0000
v 1.0000 39.0000 1.0000
v 1.0000 40.0000 0.0000
v 1.0000 40.0000 1.0000
v 1.0000 41.0000 0.0000
v 1.0000 41.0000 1.0000
v 1.0000 42.0000 0.0000
v 1.0000 42.0000 1.0000
v 1.0000 43.0000 0.0000
v 1.0000 43.0000 1.0000
v 1.0000 44.0000 0.0000
v 1.0000 44.0000 1.0000
v 1.0000 45.0000 1.0000
v 1.0000 45.0000 0.0000
v 1.0000 46.0000 0.0000
v 1.0000 46.0000 1.0000
v 1.0000 24.0000 -1.0000
v 1.0000 25.0000 -1.0000
v 1.0000 26.0000 -1.0000
v 1.0000 27.0000 -1.0000
v 1.0000 28.0000 -1.0000
v 1.0000 29.0000 -1.0000
v 1.0000 30.0000 -1.0000
v 1.0000 31.0000 -1.0000
v 1.0000 32.0000 -1.0000
v 1.0000 33.0000 -1.0000
v 1.0000 34.0000 -1.0000
v 1.0000 35.0000 -1.0000
v 1.0000 36.0000 -1.0000
v 1.0000 37.0000 -1.0000
v 1.0000 38.0000 -1.0000
v 1.0000 39.0000 -1.0000
v 1.0000 40.0000 -1.0000
v 1.0000 41.0000 -1.0000
v 1.0000 42.0000 -1.0000
v 1.0000 43.0000 -1.0000
v 1.0000 44.0000 -1.0000
v 1.0000 45.0000 -1.0000
v 1.0000 46.0000 -1.0000
v 2.0000 44.0000 1.0000
v 2.0000 45.0000 1.0000
v 2.0000 45.0000 0.0000
v 2.0000 44.0000 0.0000
v 2.0000 45.0000 -1.0000
v 2.0000 44.0000 -1.0000
v 3.0000 44.0000 1.0000
v 3.0000 45.0000 1.0000
v 3.0000 45.0000 0.0000
v 3.0000 44.0000 0.0000
v 3.0000 45.0000 -1.0000
v 3.0000 44.0000 -1.0000
v 4.0000 44.0000 1.0000
v 4.0000 45.0000 1.0000
v 4.0000 45.0000 0.0000
v 4.0000 44.0000 0.0000
v 4.0000 45.0000 -1.0000
v 4.0000 44.0000 -1.0000
v 5.0000 44.0000 1.0000
v 5.0000 44.0000 0.0000
v 5.0000 45.0000 0.0000
v 5.0000 45.0000 1.0000
v 5.0000 44.0000 -1.0000
v 5.0000 45.0000 -1.0000
v 5.0000 43.0000 1.0000
v 5.0000 43.0000 0.0000
v 6.0000 43.0000 1.0000
v 6.0000 44.0000 1.0000
v 6.0000 44.0000 0.0000
v 6.0000 43.0000 0.0000
v 5.0000 43.0000 -1.0000
v 6.0000 44.0000 -1.0000
v 6.0000 43.0000 -1.0000
v 7.0000 43.0000 1.0000
v 7.0000 44.0000 1.0000
v 7.0000 44.0000 0.0000
v 7.0000 43.0000 0.0000
v 7.0000 44.0000 -1.0000
v 7.0000 43.0000 -1.0000
v 8.0000 43.0000 1.0000
v 8.0000 43.0000 0.0000
v 8.0000 44.0000 0.0000
v 8.0000 44.0000 1.0000
v 8.0000 43.0000 -1.0000
v 8.0000 44.0000 -1.0000
v -5.0000 44.0000 1.0000
v -5.0000 45.0000 1.0000
v -5.0000 45.0000 0.0000
v -5.0000 44.0000 0.0000
v -4.0000 44.0000 1.0000
v -4.0000 45.0000 1.0000
v -4.0000 45.0000 0.0000
v -4.0000 44.0000 0.0000
v -5.0000 45.0000 -1.0000
v -5.0000 44.0000 -1.0000
v -4.0000 45.0000 -1.0000
v -4.0000 44.0000 -1.0000
v -3.0000 44.0000 1.0000
v -3.0000 45.0000 1.0000
v -3.0000 45.0000 0.0000
v -3.0000 44.0000 0.0000
v -3.0000 45.0000 -1.0000
v -3.0000 44.0000 -1.0000
v -2.0000 44.0000 1.0000
v -2.0000 45.0000 1.0000
v -2.0000 45.0000 0.0000
v -2.0000 44.0000 0.0000
v -2.0000 45.0000 -1.0000
v -2.0000 44.0000 -1.0000
v -8.0000 43.0000 1.0000
v -8.0000 44.0000 1.0000
v -8.0000 44.0000 0.0000
v -8.0000 43.0000 0.0000
v -7.0000 43.0000 1.0000
v -7.0000 44.0000 1.0000
v -7.0000 44.0000 0.0000
v -7.0000 43.0000 0.0000
v -8.0000 44.0000 -1.0000
v -8.0000 43.0000 -1.0000
v -7.0000 44.0000 -1.0000
v -7.0000 43.0000 -1.0000
v -6.0000 43.0000 1.0000
v -6.0000 44.0000 1.0000
v -6.0000 44.0000 0.0000
v -6.0000 43.0000 0.0000
v -6.0000 44.0000 -1.0000
v -6.0000 43.0000 -1.0000
v -5.0000 43.0000 1.0000
v -5.0000 43.0000 0.0000
v -5.0000 43.0000 -1.0000
v -1.0000 43.0000 -2.0000
v -1.0000 42.0000 -2.0000
v 0.0000 43.0000 -2.0000
v 0.0000 42.0000 -2.0000
v -1.0000 43.0000 -3.0000
v -1.0000 42.0000 -3.0000
v 0.0000 43.0000 -3.0000
v 0.0000 42.0000 -3.0000
v -1.0000 43.0000 -4.0000
v -1.0000 42.0000 -4.0000
v 0.0000 43.0000 -4.0000
v 0.0000 42.0000 -4.0000
v -1.0000 43.0000 -5.0000
v -1.0000 42.0000 -5.0000
v 0.0000 43.0000 -5.0000
v 0.0000 42.0000 -5.0000
v 1.0000 42.0000 -2.0000
v 1.0000 43.0000 -2.0000
v 1.0000 42.0000 -3.0000
v 1.0000 43.0000 -3.0000
v 1.0000 42.0000 -4.0000
v 1.0000 43.0000 -4.0000
v 1.0000 42.0000 -5.0000
v 1.0000 43.0000 -5.0000
v -1.0000 41.0000 -5.0000
v -1.0000 42.0000 -6.0000
v -1.0000 41.0000 -6.0000
v 0.0000 41.0000 -5.0000
v 0.0000 42.0000 -6.0000
v 0.0000 41.0000 -6.0000
v -1.0000 42.0000 -7.0000
v -1.0000 41.0000 -7.0000
v 0.0000 42.0000 -7.0000
v 0.0000 41.0000 -7.0000
v -1.0000 42.0000 -8.0000
v -1.0000 41.0000 -8.0000
v 0.0000 42.0000 -8.0000
v 0.0000 41.0000 -8.0000
v 1.0000 41.0000 -5.0000
v 1.0000 41.0000 -6.0000
v 1.0000 42.0000 -6.0000
v 1.0000 41.0000 -7.0000
v 1.0000 42.0000 -7.0000
v 1.0000 41.0000 -8.0000
v 1.0000 42.0000 -8.0000
v -1.0000 42.0000 5.0000
v -1.0000 43.0000 5.0000
v -1.0000 43.0000 4.0000
v -1.0000 42.0000 4.0000
v 0.0000 42.0000 5.0000
v 0.0000 43.0000 5.0000
v 0.0000 43.0000 4.0000
v 0.0000 42.0000 4.0000
v -1.0000 43.0000 3.0000
v -1.0000 42.0000 3.0000
v 0.0000 43.0000 3.0000
v 0.0000 42.0000 3.0000
v -1.0000 43.0000 2.0000
v -1.0000 42.0000 2.0000
v 0.0000 43.0000 2.0000
v 0.0000 42.0000 2.0000
v 1.0000 42.0000 5.0000
v 1.0000 42.0000 4.0000
v 1.0000 43.0000 4.0000
v 1.0000 43.0000 5.0000
v 1.0000 42.0000 3.0000
v 1.0000 43.0000 3.0000
v 1.0000 42.0000 2.0000
v 1.0000 43.0000 2.0000
v -1.0000 41.0000 8.0000
v -1.0000 42.0000 8.0000
v -1.0000 42.0000 7.0000
v -1.0000 41.0000 7.0000
v 0.0000 41.0000 8.0000
v 0.0000 42.0000 8.0000
v 0.0000 42.0000 7.0000
v 0.0000 41.0000 7.0000
v -1.0000 42.0000 6.0000
v -1.0000 41.0000 6.0000
v 0.0000 42.0000 6.0000
v 0.0000 41.0000 6.0000
v -1.0000 41.0000 5.0000
v 0.0000 41.0000 5.0000
v 1.0000 41.0000 8.0000
v 1.0000 41.0000 7.0000
v 1.0000 42.0000 7.0000
v 1.0000 42.0000 8.0000
v 1.0000 41.0000 6.0000
v 1.0000 42.0000 6.0000
v 1.0000 41.0000 5.0000
v 1.0000 41.0000 -2.0000
v 1.0000 40.0000 -2.0000
v 2.0000 40.0000 -1.0000
v 2.0000 41.0000 -1.0000
v 2.0000 41.0000 -2.0000
v 2.0000 40.0000 -2.0000
v 1.0000 41.0000 -3.0000
v 1.0000 40.0000 -3.0000
v 2.0000 41.0000 -3.0000
v 2.0000 40.0000 -3.0000
v 1.0000 41.0000 -4.0000
v 1.0000 40.0000 -4.0000
v 2.0000 41.0000 -4.0000
v 2.0000 40.0000 -4.0000
v 3.0000 40.0000 -1.0000
v 3.0000 41.0000 -1.0000
v 3.0000 41.0000 -2.0000
v 3.0000 40.0000 -2.0000
v 3.0000 41.0000 -3.0000
v 3.0000 40.0000 -3.0000
v 3.0000 41.0000 -4.0000
v 3.0000 40.0000 -4.0000
v 4.0000 40.0000 -1.0000
v 4.0000 40.0000 -2.0000
v 4.0000 41.0000 -2.0000
v 4.0000 41.0000 -1.0000
v 4.0000 40.0000 -3.0000
v 4.0000 41.0000 -3.0000
v 4.0000 40.0000 -4.0000
v 4.0000 41.0000 -4.0000
v -4.0000 40.0000 -1.0000
v -4.0000 41.0000 -1.0000
v -4.0000 41.0000 -2.0000
v -4.0000 40.0000 -2.0000
v -3.0000 40.0000 -1.0000
v -3.0000 41.0000 -1.0000
v -3.0000 41.0000 -2.0000
v -3.0000 40.0000 -2.0000
v -4.0000 41.0000 -3.0000
v -4.0000 40.0000 -3.0000
v -3.0000 41.0000 -3.0000
v -3.0000 40.0000 -3.0000
v -4.0000 41.0000 -4.0000
v -4.0000 40.0000 -4.0000
v -3.0000 41.0000 -4.0000
v -3.0000 40.0000 -4.0000
v -2.0000 40.0000 -1.0000
v -2.0000 41.0000 -1.0000
v -2.0000 41.0000 -2.0000
v -2.0000 40.0000 -2.0000
v -2.0000 41.0000 -3.0000
v -2.0000 40.0000 -3.0000
v -2.0000 41.0000 -4.0000
v -2.0000 40.0000 -4.0000
v -1.0000 40.0000 -2.0000
v -1.0000 41.0000 -2.0000
v -1.0000 40.0000 -3.0000
v -1.0000 41.0000 -3.0000
v -1.0000 40.0000 -4.0000
v -1.0000 41.0000 -4.0000
v 1.0000 38.0000 4.0000
v 1.0000 39.0000 4.0000
v 1.0000 39.0000 3.0000
v 1.0000 38.0000 3.0000
v 2.0000 38.0000 4.0000
v 2.0000 39.0000 4.0000
v 2.0000 39.0000 3.0000
v 2.0000 38.0000 3.0000
v 1.0000 39.0000 2.0000
v 1.0000 38.0000 2.0000
v 2.0000 39.0000 2.0000
v 2.0000 38.0000 2.0000
v 2.0000 39.0000 1.0000
v 2.0000 38.0000 1.0000
v 3.0000 38.0000 4.0000
v 3.0000 39.0000 4.0000
v 3.0000 39.0000 3.0000
v 3.0000 38.0000 3.0000
v 3.0000 39.0000 2.0000
v 3.0000 38.0000 2.0000
v 3.0000 39.0000 1.0000
v 3.0000 38.0000 1.0000
v 4.0000 38.0000 4.0000
v 4.0000 38.0000 3.0000
v 4.0000 39.0000 3.0000
v 4.0000 39.0000 4.0000
v 4.0000 38.0000 2.0000
v 4.0000 39.0000 2.0000
v 4.0000 38.0000 1.0000
v 4.0000 39.0000 1.0000
v -4.0000 38.0000 4.0000
v -4.0000 39.0000 4.0000
v -4.0000 39.0000 3.0000
v -4.0000 38.0000 3.0000
v -3.0000 38.0000 4.0000
v -3.0000 39.0000 4.0000
v -3.0000 39.0000 3.0000
v -3.0000 38.0000 3.0000
v -4.0000 39.0000 2.0000
v -4.0000 38.0000 2.0000
v -3.0000 39.0000 2.0000
v -3.0000 38.0000 2.0000
v -4.0000 39.0000 1.0000
v -4.0000 38.0000 1.0000
v -3.0000 39.0000 1.0000
v -3.0000 38.0000 1.0000
v -2.0000 38.0000 4.0000
v -2.0000 39.0000 4.0000
v -2.0000 39.0000 3.0000
v -2.0000 38.0000 3.0000
v -2.0000 39.0000 2.0000
v -2.0000 38.0000 2.0000
v -2.0000 39.0000 1.0000
v -2.0000 38.0000 1.0000
v -1.0000 38.0000 4.0000
v -1.0000 38.0000 3.0000
v -1.0000 39.0000 3.0000
v -1.0000 39.0000 4.0000
v -1.0000 38.0000 2.0000
v -1.0000 39.0000 2.0000
v -3.0000 46.0000 3.0000
v -3.0000 47.0000 3.0000
v -3.0000 47.0000 2.0000
v -3.0000 46.0000 2.0000
v -2.0000 46.0000 3.0000
v -2.0000 47.0000 3.0000
v -2.0000 47.0000 2.0000
v -2.0000 46.0000 2.0000
v -3.0000 47.0000 1.0000
v -3.0000 46.0000 1.0000
v -2.0000 47.0000 1.0000
v -2.0000 46.0000 1.0000
v -3.0000 47.0000 0.0000
v -3.0000 46.0000 0.0000
v -2.0000 47.0000 0.0000
v -2.0000 46.0000 0.0000
v -3.0000 47.0000 -1.0000
v -3.0000 46.0000 -1.0000
v -2.0000 47.0000 -1.0000
v -2.0000 46.0000 -1.0000
v -3.0000 47.0000 -2.0000
v -3.0000 46.0000 -2.0000
v -2.0000 47.0000 -2.0000
v -2.0000 46.0000 -2.0000
v -3.0000 47.0000 -3.0000
v -3.0000 46.0000 -3.0000
v -2.0000 47.0000 -3.0000
v -2.0000 46.0000 -3.0000
v -1.0000 46.0000 3.0000
v -1.0000 47.0000 3.0000
v -1.0000 47.0000 2.0000
v -1.0000 46.0000 2.0000
v -1.0000 46.0000 -2.0000
v -1.0000 47.0000 -3.0000
v -1.0000 46.0000 -3.0000
v -1.0000 47.0000 -2.0000
v 0.0000 46.0000 3.0000
v 0.0000 47.0000 3.0000
v 0.0000 47.0000 2.0000
v 0.0000 46.0000 2.0000
v 0.0000 46.0000 -2.0000
v 0.0000 47.0000 -3.0000
v 0.0000 46.0000 -3.0000
v 0.0000 47.0000 -2.0000
v 1.0000 46.0000 3.0000
v 1.0000 47.0000 3.0000
v 1.0000 47.0000 2.0000
v 1.0000 46.0000 2.0000
v 1.0000 46.0000 -2.0000
v 1.0000 47.0000 -3.0000
v 1.0000 46.0000 -3.0000
v 1.0000 47.0000 -2.0000
v 2.0000 46.0000 3.0000
v 2.0000 47.0000 3.0000
v 2.0000 47.0000 2.0000
v 2.0000 46.0000 2.0000
v 2.0000 46.0000 1.0000
v 2.0000 46.0000 0.0000
v 2.0000 46.0000 -1.0000
v 2.0000 46.0000 -2.0000
v 2.0000 47.0000 -3.0000
v 2.0000 46.0000 -3.0000
v 2.0000 47.0000 -2.0000
v 3.0000 46.0000 3.0000
v 3.0000 46.0000 2.0000
v 3.0000 47.0000 2.0000
v 3.0000 47.0000 3.0000
v 3.0000 46.0000 1.0000
v 3.0000 47.0000 1.0000
v 2.0000 47.0000 1.0000
v 3.0000 46.0000 0.0000
v 3.0000 47.0000 0.0000
v 2.0000 47.0000 0.0000
v 3.0000 46.0000 -1.0000
v 3.0000 47.0000 -1.0000
v 2.0000 47.0000 -1.0000
v 3.0000 46.0000 -2.0000
v 3.0000 47.0000 -2.0000
v 3.0000 46.0000 -3.0000
v 3.0000 47.0000 -3.0000
v -2.0000 48.0000 2.0000
v -2.0000 48.0000 1.0000
v -1.0000 48.0000 2.0000
v -2.0000 49.0000 2.0000
v -2.0000 49.0000 1.0000
v -1.0000 49.0000 2.0000
v -1.0000 49.0000 1.0000
v -2.0000 48.0000 0.0000
v -2.0000 49.0000 0.0000
v -1.0000 49.0000 0.0000
v -2.0000 48.0000 -1.0000
v -2.0000 49.0000 -1.0000
v -1.0000 49.0000 -1.0000
v -2.0000 48.0000 -2.0000
v -1.0000 48.0000 -2.0000
v -2.0000 49.0000 -2.0000
v -1.0000 49.0000 -2.0000
v 0.0000 48.0000 2.0000
v 0.0000 49.0000 2.0000
v 0.0000 49.0000 1.0000
v 0.0000 48.0000 -2.0000
v 0.0000 49.0000 -2.0000
v 0.0000 49.0000 -1.0000
v 1.0000 48.0000 2.0000
v 1.0000 49.0000 2.0000
v 1.0000 49.0000 1.0000
v 1.0000 48.0000 -2.0000
v 1.0000 49.0000 -2.0000
v 1.0000 49.0000 -1.0000
v 2.0000 48.0000 1.0000
v 2.0000 48.0000 2.0000
v 2.0000 49.0000 1.0000
v 2.0000 49.0000 2.0000
v 2.0000 48.0000 0.0000
v 2.0000 49.0000 0.0000
v 1.0000 49.0000 0.0000
v 2.0000 48.0000 -1.0000
v 2.0000 49.0000 -1.0000
v 2.0000 48.0000 -2.0000
v 2.0000 49.0000 -2.0000
v -1.0000 50.0000 1.0000
v -1.0000 50.0000 0.0000
v 0.0000 50.0000 1.0000
v -1.0000 51.0000 1.0000
v -1.0000 51.0000 0.0000
v 0.0000 51.0000 1.0000
v 0.0000 51.0000 0.0000
v -1.0000 50.0000 -1.0000
v 0.0000 50.0000 -1.0000
v -1.0000 51.0000 -1.0000
v 0.0000 51.0000 -1.0000
v 1.0000 50.0000 0.0000
v 1.0000 50.0000 1.0000
v 1.0000 51.0000 0.0000
v 1.0000 51.0000 1.0000
v 1.0000 50.0000 -1.0000
v 1.0000 51.0000 -1.0000
usemtl c10
f 7 50 51 11
f 7 23 52 50
f 50 53 54 51
f 50 52 55 53
f 53 56 57 54
f 53 55 58 56
f 56 59 60 57
f 56 58 61 59
f 62 65 66 63
f 62 64 67 65
f 65 68 69 66
f 65 67 70 68
f 68 71 72 69
f 68 70 73 71
f 71 74 75 72
f 71 73 76 74
f 77 80 81 78
f 77 79 82 80
f 80 83 84 81
f 80 82 85 83
f 83 86 87 84
f 83 85 88 86
f 86 89 90 87
f 86 88 91 89
f 92 95 96 93
f 92 94 97 95
f 95 98 99 96
f 95 97 100 98
f 98 101 102 99
f 98 100 103 101
f 101 104 105 102
f 101 103 106 104
f 107 110 111 108
f 107 109 112 110
f 110 113 114 111
f 110 112 115 113
f 11 51 116 15
f 15 116 117 29
f 51 54 118 116
f 116 118 119 117
f 54 57 120 118
f 118 120 121 119
f 57 60 122 120
f 120 122 123 121
f 63 66 126 124
f 124 126 127 125
f 66 69 128 126
f 126 128 129 127
f 69 72 130 128
f 128 130 131 129
f 72 75 132 130
f 130 132 133 131
f 78 81 136 134
f 134 136 137 135
f 81 84 138 136
f 136 138 139 137
f 84 87 140 138
f 138 140 141 139
f 87 90 142 140
f 140 142 143 141
f 93 96 146 144
f 144 146 147 145
f 96 99 148 146
f 146 148 149 147
f 99 102 150 148
f 148 150 151 149
f 102 105 152 150
f 150 152 153 151
f 108 111 156 154
f 154 156 157 155
f 111 114 158 156
f 156 158 159 157
f 32 45 160 161
f 23 32 161 52
f 161 160 162 163
f 52 161 163 55
f 163 162 164 165
f 55 163 165 58
f 165 164 166 167
f 58 165 167 61
f 169 168 170 171
f 64 169 171 67
f 171 170 172 173
f 67 171 173 70
f 173 172 174 175
f 70 173 175 73
f 175 174 176 177
f 73 175 177 76
f 179 178 180 181
f 79 179 181 82
f 181 180 182 183
f 82 181 183 85
f 183 182 184 185
f 85 183 185 88
f 185 184 186 187
f 88 185 187 91
f 189 188 190 191
f 94 189 191 97
f 191 190 192 193
f 97 191 193 100
f 193 192 194 195
f 100 193 195 103
f 195 194 196 197
f 103 195 197 106
f 199 198 200 201
f 109 199 201 112
f 201 200 202 203
f 112 201 203 115
f 45 38 204 160
f 29 117 204 38
f 160 204 205 162
f 117 119 205 204
f 162 205 206 164
f 119 121 206 205
f 164 206 207 166
f 121 123 207 206
f 168 208 209 170
f 125 127 209 208
f 170 209 210 172
f 127 129 210 209
f 172 210 211 174
f 129 131 211 210
f 174 211 212 176
f 131 133 212 211
f 178 213 214 180
f 135 137 214 213
f 180 214 215 182
f 137 139 215 214
f 182 215 216 184
f 139 141 216 215
f 184 216 217 186
f 141 143 217 216
f 188 218 219 190
f 145 147 219 218
f 190 219 220 192
f 147 149 220 219
f 192 220 221 194
f 149 151 221 220
f 194 221 222 196
f 151 153 222 221
f 198 223 224 200
f 155 157 224 223
f 200 224 225 202
f 157 159 225 224
usemtl c11
f 113 226 227 114
f 113 115 228 226
f 226 229 230 227
f 226 228 231 229
f 232 235 236 233
f 232 234 237 235
f 235 238 239 236
f 235 237 240 238
f 238 241 242 239
f 238 240 243 241
f 241 244 245 242
f 241 243 246 244
f 247 250 251 248
f 247 249 252 250
f 250 253 254 251
f 250 252 255 253
f 253 256 257 254
f 253 255 258 256
f 256 259 260 257
f 256 258 261 259
f 262 265 266 263
f 262 264 267 265
f 265 268 269 266
f 265 267 270 268
f 268 271 272 269
f 268 270 273 271
f 271 274 275 272
f 271 273 276 274
f 277 280 281 278
f 277 279 282 280
f 280 283 284 281
f 283 285 286 284
f 283 287 288 285
f 285 288 289 290
f 290 291 292 293
f 290 289 294 291
f 114 227 295 158
f 158 295 296 159
f 227 230 297 295
f 295 297 298 296
f 233 236 301 299
f 299 301 302 300
f 236 239 303 301
f 301 303 304 302
f 239 242 305 303
f 303 305 306 304
f 242 245 307 305
f 305 307 308 306
f 248 251 311 309
f 309 311 312 310
f 251 254 313 311
f 311 313 314 312
f 254 257 315 313
f 313 315 316 314
f 257 260 317 315
f 315 317 318 316
f 263 266 321 319
f 319 321 322 320
f 266 269 323 321
f 321 323 324 322
f 269 272 325 323
f 323 325 326 324
f 272 275 327 325
f 325 327 328 326
f 278 281 331 329
f 329 331 332 330
f 281 284 333 331
f 284 286 334 333
f 333 334 335 336
f 334 337 338 335
f 293 292 339 337
f 337 339 340 338
f 203 202 341 342
f 115 203 342 228
f 342 341 343 344
f 228 342 344 231
f 346 345 347 348
f 234 346 348 237
f 348 347 349 350
f 237 348 350 240
f 350 349 351 352
f 240 350 352 243
f 352 351 353 354
f 243 352 354 246
f 356 355 357 358
f 249 356 358 252
f 358 357 359 360
f 252 358 360 255
f 360 359 361 362
f 255 360 362 258
f 362 361 363 364
f 258 362 364 261
f 366 365 367 368
f 264 366 368 267
f 368 367 369 370
f 267 368 370 270
f 370 369 371 372
f 270 370 372 273
f 372 371 373 374
f 273 372 374 276
f 376 375 377 378
f 279 376 378 282
f 378 377 379 380
f 380 379 381 382
f 287 380 382 288
f 288 382 383 289
f 383 384 385 386
f 289 383 386 294
f 202 225 387 341
f 159 296 387 225
f 341 387 388 343
f 296 298 388 387
f 345 389 390 347
f 300 302 390 389
f 347 390 391 349
f 302 304 391 390
f 349 391 392 351
f 304 306 392 391
f 351 392 393 353
f 306 308 393 392
f 355 394 395 357
f 310 312 395 394
f 357 395 396 359
f 312 314 396 395
f 359 396 397 361
f 314 316 397 396
f 361 397 398 363
f 316 318 398 397
f 365 399 400 367
f 320 322 400 399
f 367 400 401 369
f 322 324 401 400
f 369 401 402 371
f 324 326 402 401
f 371 402 403 373
f 326 328 403 402
f 375 404 405 377
f 330 332 405 404
f 377 405 406 379
f 379 406 407 381
f 336 335 407 406
f 335 338 408 407
f 384 408 409 385
f 338 340 409 408
usemtl c12
f 382 410 411 383
f 383 411 412 384
f 382 381 413 410
f 407 408 414 415
f 384 412 414 408
f 381 407 415 413
f 410 416 417 411
f 411 417 418 412
f 410 413 419 416
f 415 414 420 421
f 412 418 420 414
f 413 415 421 419
f 416 422 423 417
f 417 423 424 418
f 416 419 425 422
f 421 420 426 427
f 418 424 426 420
f 419 421 427 425
f 428 429 430 431
f 422 428 431 423
f 423 431 430 424
f 422 425 429 428
f 429 432 433 430
f 427 426 433 432
f 424 430 433 426
f 425 427 432 429
f 434 428 429 435
f 434 436 437 428
f 428 437 438 429
f 434 435 439 436
f 435 429 432 440
f 440 432 441 442
f 429 438 441 432
f 435 440 442 439
f 436 443 444 437
f 437 444 445 438
f 436 439 446 443
f 442 441 447 448
f 438 445 447 441
f 439 442 448 446
f 449 450 451 452
f 443 449 452 444
f 444 452 451 445
f 443 446 450 449
f 450 453 454 451
f 448 447 454 453
f 445 451 454 447
f 446 448 453 450
f 455 456 457 458
f 455 459 460 456
f 456 460 461 457
f 455 458 462 459
f 458 457 463 464
f 464 463 465 466
f 457 461 465 463
f 458 464 466 462
f 459 467 468 460
f 460 468 469 461
f 459 462 470 467
f 466 465 471 472
f 461 469 471 465
f 462 466 472 470
f 467 473 474 468
f 468 474 475 469
f 467 470 476 473
f 472 471 477 478
f 469 475 477 471
f 470 472 478 476
f 473 285 290 474
f 474 290 293 475
f 473 476 286 285
f 478 477 337 334
f 475 293 337 477
f 476 478 334 286
f 479 480 481 482
f 479 483 484 480
f 480 484 485 481
f 479 482 486 483
f 482 481 487 488
f 488 487 489 490
f 481 485 489 487
f 482 488 490 486
f 483 491 492 484
f 484 492 493 485
f 483 486 494 491
f 490 489 495 496
f 485 493 495 489
f 486 490 496 494
f 497 498 458 455
f 491 497 455 492
f 492 455 458 493
f 491 494 498 497
f 498 499 464 458
f 496 495 464 499
f 493 458 464 495
f 494 496 499 498
f 331 333 500 501
f 333 336 502 500
f 331 501 503 332
f 501 500 504 505
f 500 502 506 504
f 501 505 507 503
f 505 504 508 509
f 504 506 510 508
f 505 509 511 507
f 509 508 512 513
f 513 512 514 515
f 508 510 514 512
f 509 513 515 511
f 405 516 517 406
f 336 406 517 502
f 332 503 516 405
f 516 518 519 517
f 502 517 519 506
f 503 507 518 516
f 518 520 521 519
f 506 519 521 510
f 507 511 520 518
f 520 522 523 521
f 515 514 523 522
f 510 521 523 514
f 511 515 522 520
f 524 513 525 526
f 524 527 515 513
f 513 515 528 525
f 524 526 529 527
f 526 525 530 531
f 525 528 532 530
f 526 531 533 529
f 531 530 534 535
f 535 534 536 537
f 530 532 536 534
f 531 535 537 533
f 538 539 540 522
f 527 538 522 515
f 515 522 540 528
f 527 529 539 538
f 539 541 542 540
f 528 540 542 532
f 529 533 541 539
f 541 543 544 542
f 537 536 544 543
f 532 542 544 536
f 533 537 543 541
f 545 546 547 548
f 545 549 550 546
f 546 550 551 547
f 545 548 552 549
f 548 547 553 554
f 547 551 555 553
f 548 554 556 552
f 554 553 557 558
f 553 555 559 557
f 554 558 560 556
f 558 557 283 280
f 557 559 287 283
f 558 280 282 560
f 561 562 563 564
f 549 561 564 550
f 550 564 563 551
f 549 552 562 561
f 562 565 566 563
f 551 563 566 555
f 552 556 565 562
f 565 567 568 566
f 555 566 568 559
f 556 560 567 565
f 567 378 380 568
f 559 568 380 287
f 560 282 378 567
f 569 570 571 572
f 569 573 574 570
f 570 574 575 571
f 569 572 576 573
f 572 571 577 578
f 571 575 579 577
f 572 578 580 576
f 578 577 545 581
f 581 545 549 582
f 577 579 549 545
f 578 581 582 580
f 583 584 585 586
f 573 583 586 574
f 574 586 585 575
f 573 576 584 583
f 584 587 588 585
f 575 585 588 579
f 576 580 587 584
f 587 589 561 588
f 582 549 561 589
f 579 588 561 549
f 580 582 589 587
f 403 404 590 591
f 403 592 593 404
f 404 593 594 590
f 403 591 595 592
f 591 590 596 597
f 590 594 598 596
f 591 597 599 595
f 597 596 600 601
f 601 600 602 603
f 596 598 602 600
f 597 601 603 599
f 592 604 605 593
f 593 605 606 594
f 592 595 607 604
f 594 606 608 598
f 595 599 609 607
f 603 602 610 611
f 598 608 610 602
f 599 603 611 609
f 612 613 614 615
f 604 612 615 605
f 605 615 614 606
f 604 607 613 612
f 613 616 617 614
f 606 614 617 608
f 607 609 616 613
f 616 618 619 617
f 611 610 619 618
f 608 617 619 610
f 609 611 618 616
f 620 621 622 623
f 620 624 625 621
f 621 625 626 622
f 620 623 627 624
f 623 622 628 629
f 622 626 630 628
f 623 629 631 627
f 629 628 632 633
f 633 632 634 635
f 628 630 634 632
f 629 633 635 631
f 624 636 637 625
f 625 637 638 626
f 624 627 639 636
f 626 638 640 630
f 627 631 641 639
f 635 634 642 643
f 630 640 642 634
f 631 635 643 641
f 327 644 645 329
f 636 327 329 637
f 637 329 645 638
f 636 639 644 327
f 644 646 647 645
f 638 645 647 640
f 639 641 646 644
f 646 648 649 647
f 643 642 649 648
f 640 647 649 642
f 641 643 648 646
f 650 651 652 653
f 650 654 655 651
f 651 655 656 652
f 650 653 657 654
f 653 652 658 659
f 652 656 660 658
f 653 659 661 657
f 659 658 372 370
f 370 372 662 663
f 658 660 662 372
f 659 370 663 661
f 654 664 665 655
f 655 665 666 656
f 654 657 667 664
f 656 666 668 660
f 657 661 669 667
f 663 662 670 671
f 660 668 670 662
f 661 663 671 669
f 672 673 674 675
f 664 672 675 665
f 665 675 674 666
f 664 667 673 672
f 673 676 677 674
f 666 674 677 668
f 667 669 676 673
f 676 678 679 677
f 671 670 679 678
f 668 677 679 670
f 669 671 678 676
f 680 681 682 683
f 680 684 685 681
f 681 685 686 682
f 680 683 687 684
f 683 682 688 689
f 682 686 690 688
f 683 689 691 687
f 689 688 692 693
f 693 692 694 695
f 688 690 694 692
f 689 693 695 691
f 684 696 697 685
f 685 697 698 686
f 684 687 699 696
f 686 698 700 690
f 687 691 701 699
f 695 694 702 703
f 690 700 702 694
f 691 695 703 701
f 704 705 706 707
f 696 704 707 697
f 697 707 706 698
f 696 699 705 704
f 705 708 709 706
f 698 706 709 700
f 699 701 708 705
f 708 268 271 709
f 703 702 271 268
f 700 709 271 702
f 701 703 268 708
usemtl c13
f 710 711 712 713
f 710 714 715 711
f 711 715 716 712
f 710 713 717 714
f 713 712 718 719
f 712 716 720 718
f 713 719 721 717
f 719 718 722 723
f 718 720 724 722
f 719 723 725 721
f 723 722 726 727
f 722 724 728 726
f 723 727 729 725
f 727 726 730 731
f 726 728 732 730
f 727 731 733 729
f 731 730 734 735
f 735 734 736 737
f 730 732 736 734
f 731 735 737 733
f 714 738 739 715
f 715 739 740 716
f 714 717 741 738
f 717 721 291 741
f 721 725 292 291
f 725 729 339 292
f 729 733 742 339
f 737 736 743 744
f 732 745 743 736
f 733 737 744 742
f 738 746 747 739
f 739 747 748 740
f 738 741 749 746
f 741 291 294 749
f 339 742 750 340
f 744 743 751 752
f 745 753 751 743
f 742 744 752 750
f 746 754 755 747
f 747 755 756 748
f 746 749 757 754
f 749 294 386 757
f 340 750 758 409
f 752 751 759 760
f 753 761 759 751
f 750 752 760 758
f 754 762 763 755
f 755 763 764 756
f 754 757 765 762
f 757 386 766 765
f 386 385 767 766
f 385 409 768 767
f 409 758 769 768
f 760 759 770 771
f 761 772 770 759
f 758 760 771 769
f 773 774 775 776
f 762 773 776 763
f 763 776 775 764
f 762 765 774 773
f 774 777 778 775
f 764 775 778 779
f 765 766 777 774
f 777 780 781 778
f 779 778 781 782
f 766 767 780 777
f 780 783 784 781
f 782 781 784 785
f 767 768 783 780
f 783 786 787 784
f 785 784 787 772
f 768 769 786 783
f 786 788 789 787
f 771 770 789 788
f 772 787 789 770
f 769 771 788 786
f 716 790 791 720
f 716 740 792 790
f 790 793 794 791
f 790 792 795 793
f 793 795 796 794
f 720 791 797 724
f 791 794 798 797
f 794 796 799 798
f 724 797 800 728
f 797 798 801 800
f 798 799 802 801
f 728 800 803 732
f 732 803 804 745
f 800 801 805 803
f 803 805 806 804
f 801 802 806 805
f 740 748 807 792
f 792 807 808 795
f 795 808 809 796
f 745 804 810 753
f 804 806 811 810
f 802 812 811 806
f 748 756 813 807
f 807 813 814 808
f 808 814 815 809
f 753 810 816 761
f 810 811 817 816
f 812 818 817 811
f 764 779 819 820
f 756 764 820 813
f 820 819 821 822
f 813 820 822 814
f 814 822 821 815
f 779 782 823 819
f 819 823 824 821
f 815 821 824 825
f 782 785 826 823
f 823 826 827 824
f 825 824 827 818
f 785 772 828 826
f 761 816 828 772
f 826 828 829 827
f 816 817 829 828
f 818 827 829 817
f 796 830 831 799
f 796 809 832 830
f 830 833 834 831
f 830 832 835 833
f 833 835 836 834
f 799 831 837 802
f 802 837 838 812
f 831 834 839 837
f 837 839 840 838
f 834 836 840 839
f 815 825 841 842
f 809 815 842 832
f 842 841 843 844
f 832 842 844 835
f 835 844 843 836
f 825 818 845 841
f 812 838 845 818
f 841 845 846 843
f 838 840 846 845
f 836 843 846 840
usemtl c14
f 1 2 3 4
f 1 5 6 2
f 2 6 7 3
f 1 4 8 5
f 4 3 9 10
f 3 7 11 9
f 4 10 12 8
f 10 9 13 14
f 9 11 15 13
f 10 14 16 12
f 14 13 17 18
f 18 17 19 20
f 13 15 19 17
f 14 18 20 16
f 5 21 22 6
f 6 22 23 7
f 5 8 24 21
f 8 12 25 24
f 12 16 26 25
f 20 19 27 28
f 15 29 27 19
f 16 20 28 26
f 21 30 31 22
f 22 31 32 23
f 21 24 33 30
f 24 25 34 33
f 25 26 35 34
f 28 27 36 37
f 29 38 36 27
f 26 28 37 35
f 39 40 41 42
f 30 39 42 31
f 31 42 41 32
f 30 33 40 39
f 40 43 44 41
f 32 41 44 45
f 33 34 43 40
f 43 46 47 44
f 45 44 47 38
f 34 35 46 43
f 46 48 49 47
f 37 36 49 48
f 38 47 49 36
f 35 37 48 46
f 59 62 63 60
f 59 61 64 62
f 74 77 78 75
f 74 76 79 77
f 89 92 93 90
f 89 91 94 92
f 104 107 108 105
f 104 106 109 107
f 60 63 124 122
f 122 124 125 123
f 75 78 134 132
f 132 134 135 133
f 90 93 144 142
f 142 144 145 143
f 105 108 154 152
f 152 154 155 153
f 167 166 168 169
f 61 167 169 64
f 177 176 178 179
f 76 177 179 79
f 187 186 188 189
f 91 187 189 94
f 197 196 198 199
f 106 197 199 109
f 166 207 208 168
f 123 125 208 207
f 176 212 213 178
f 133 135 213 212
f 186 217 218 188
f 143 145 218 217
f 196 222 223 198
f 153 155 223 222
f 229 232 233 230
f 229 231 234 232
f 244 247 248 245
f 244 246 249 247
f 259 262 263 260
f 259 261 264 262
f 274 277 278 275
f 274 276 279 277
f 230 233 299 297
f 297 299 300 298
f 245 248 309 307
f 307 309 310 308
f 260 263 319 317
f 317 319 320 318
f 275 278 329 327
f 327 329 330 328
f 344 343 345 346
f 231 344 346 234
f 354 353 355 356
f 246 354 356 249
f 364 363 365 366
f 261 364 366 264
f 374 373 375 376
f 276 374 376 279
f 343 388 389 345
f 298 300 389 388
f 353 393 394 355
f 308 310 394 393
f 363 398 399 365
f 318 320 399 398
f 373 403 404 375
f 328 330 404 403
