# generado por tools/vox_to_obj.py desde caraota_v1.vox
mtllib caraota_v1.mtl
v -2.0000 0.0000 1.5000
v -2.0000 1.0000 1.5000
v -2.0000 1.0000 0.5000
v -2.0000 0.0000 0.5000
v -1.0000 0.0000 1.5000
v -1.0000 1.0000 1.5000
v -1.0000 1.0000 0.5000
v -1.0000 0.0000 0.5000
v -2.0000 1.0000 -0.5000
v -2.0000 0.0000 -0.5000
v -1.0000 1.0000 -0.5000
v -1.0000 0.0000 -0.5000
v -2.0000 1.0000 -1.5000
v -2.0000 0.0000 -1.5000
v -1.0000 1.0000 -1.5000
v -1.0000 0.0000 -1.5000
v 0.0000 0.0000 1.5000
v 0.0000 1.0000 1.5000
v 0.0000 1.0000 0.5000
v 0.0000 0.0000 0.5000
v 0.0000 0.0000 -0.5000
v 0.0000 1.0000 -1.5000
v 0.0000 0.0000 -1.5000
v 0.0000 1.0000 -0.5000
v 1.0000 0.0000 1.5000
v 1.0000 0.0000 0.5000
v 1.0000 1.0000 0.5000
v 1.0000 1.0000 1.5000
v 1.0000 1.0000 -0.5000
v 1.0000 0.0000 -0.5000
v 1.0000 1.0000 -1.5000
v 1.0000 0.0000 -1.5000
v 0.0000 2.0000 -0.5000
v 0.0000 2.0000 0.5000
v -1.0000 2.0000 0.5000
v -1.0000 2.0000 -0.5000
v -1.0000 3.0000 0.5000
v -1.0000 3.0000 -0.5000
v 0.0000 3.0000 -0.5000
v 0.0000 3.0000 0.5000
v 1.0000 2.0000 0.5000
v 1.0000 2.0000 -0.5000
v 1.0000 3.0000 -0.5000
v 1.0000 3.0000 0.5000
v -3.0000 3.0000 0.5000
v -3.0000 4.0000 0.5000
v -3.0000 4.0000 -0.5000
v -3.0000 3.0000 -0.5000
v -2.0000 3.0000 0.5000
v -2.0000 4.0000 0.5000
v -2.0000 4.0000 -0.5000
v -2.0000 3.0000 -0.5000
v -3.0000 4.0000 -1.5000
v -3.0000 3.0000 -1.5000
v -2.0000 4.0000 -1.5000
v -2.0000 3.0000 -1.5000
v -1.0000 4.0000 -0.5000
v -1.0000 4.0000 0.5000
v -1.0000 3.0000 -1.5000
v -1.0000 4.0000 -1.5000
v 0.0000 4.0000 0.5000
v 0.0000 4.0000 -0.5000
v 1.0000 4.0000 0.5000
v 1.0000 4.0000 -0.5000
v 0.0000 4.0000 -1.5000
v 0.0000 3.0000 -1.5000
v 1.0000 4.0000 -1.5000
v 1.0000 3.0000 -1.5000
v 2.0000 3.0000 0.5000
v 2.0000 3.0000 -0.5000
v 2.0000 4.0000 -0.5000
v 2.0000 4.0000 0.5000
v 2.0000 3.0000 -1.5000
v 2.0000 4.0000 -1.5000
v 2.0000 0.0000 0.5000
v 2.0000 1.0000 0.5000
v 2.0000 1.0000 -0.5000
v 2.0000 0.0000 -0.5000
v 2.0000 1.0000 -1.5000
v 2.0000 0.0000 -1.5000
v 3.0000 0.0000 0.5000
v 3.0000 0.0000 -0.5000
v 3.0000 1.0000 -0.5000
v 3.0000 1.0000 0.5000
v 3.0000 0.0000 -1.5000
v 3.0000 1.0000 -1.5000
v 3.0000 2.0000 -0.5000
v 3.0000 2.0000 0.5000
v 2.0000 2.0000 0.5000
v 2.0000 2.0000 -0.5000
usemtl c1
f 19 24 33 34
f 7 35 36 11
f 11 36 33 24
f 7 19 34 35
f 35 37 38 36
f 36 38 39 33
f 35 34 40 37
f 37 40 39 38
f 41 42 43 44
f 33 39 43 42
f 34 41 44 40
f 34 33 42 41
usemtl c2
f 45 46 47 48
f 45 49 50 46
f 46 50 51 47
f 45 48 52 49
f 48 47 53 54
f 54 53 55 56
f 47 51 55 53
f 48 54 56 52
f 37 38 57 58
f 49 37 58 50
f 50 58 57 51
f 49 52 38 37
f 38 59 60 57
f 56 55 60 59
f 51 57 60 55
f 52 56 59 38
f 40 61 62 39
f 40 44 63 61
f 61 63 64 62
f 39 62 65 66
f 66 65 67 68
f 62 64 67 65
f 39 66 68 43
f 69 70 71 72
f 44 69 72 63
f 63 72 71 64
f 44 43 70 69
f 70 73 74 71
f 68 67 74 73
f 64 71 74 67
f 43 68 73 70
usemtl c3
f 26 75 76 27
f 27 76 77 29
f 26 30 78 75
f 32 31 79 80
f 29 77 79 31
f 30 32 80 78
f 81 82 83 84
f 75 81 84 76
f 75 78 82 81
f 82 85 86 83
f 80 79 86 85
f 77 83 86 79
f 78 80 85 82
usemtl c4
f 84 83 87 88
f 76 89 90 77
f 77 90 87 83
f 76 84 88 89
f 89 88 87 90
usemtl c5
f 1 2 3 4
f 1 5 6 2
f 2 6 7 3
f 1 4 8 5
f 4 3 9 10
f 3 7 11 9
f 4 10 12 8
f 10 9 13 14
f 14 13 15 16
f 9 11 15 13
f 10 14 16 12
f 5 17 18 6
f 6 18 19 7
f 5 8 20 17
f 8 12 21 20
f 16 15 22 23
f 11 24 22 15
f 12 16 23 21
f 25 26 27 28
f 17 25 28 18
f 18 28 27 19
f 17 20 26 25
f 19 27 29 24
f 20 21 30 26
f 23 22 31 32
f 24 29 31 22
f 21 23 32 30
