# generado por tools/vox_to_obj.py desde caraota_v3.vox
mtllib caraota_v3.mtl
v -3.0000 0.0000 2.0000
v -3.0000 1.0000 2.0000
v -3.0000 1.0000 1.0000
v -3.0000 0.0000 1.0000
v -2.0000 0.0000 2.0000
v -2.0000 1.0000 2.0000
v -2.0000 1.0000 1.0000
v -2.0000 0.0000 1.0000
v -3.0000 1.0000 0.0000
v -3.0000 0.0000 0.0000
v -2.0000 1.0000 0.0000
v -2.0000 0.0000 0.0000
v -3.0000 1.0000 -1.0000
v -3.0000 0.0000 -1.0000
v -2.0000 1.0000 -1.0000
v -2.0000 0.0000 -1.0000
v -3.0000 1.0000 -2.0000
v -3.0000 0.0000 -2.0000
v -2.0000 1.0000 -2.0000
v -2.0000 0.0000 -2.0000
v -3.0000 1.0000 -3.0000
v -3.0000 0.0000 -3.0000
v -2.0000 1.0000 -3.0000
v -2.0000 0.0000 -3.0000
v -1.0000 0.0000 2.0000
v -1.0000 1.0000 2.0000
v -1.0000 1.0000 1.0000
v -1.0000 0.0000 1.0000
v -1.0000 1.0000 0.0000
v -1.0000 0.0000 0.0000
v -1.0000 1.0000 -1.0000
v -1.0000 0.0000 -1.0000
v -1.0000 1.0000 -2.0000
v -1.0000 0.0000 -2.0000
v -1.0000 1.0000 -3.0000
v -1.0000 0.0000 -3.0000
v 0.0000 0.0000 2.0000
v 0.0000 1.0000 2.0000
v 0.0000 1.0000 1.0000
v 0.0000 0.0000 1.0000
v 0.0000 1.0000 0.0000
v 0.0000 0.0000 0.0000
v 0.0000 0.0000 -1.0000
v 0.0000 0.0000 -2.0000
v 0.0000 1.0000 -3.0000
v 0.0000 0.0000 -3.0000
v 0.0000 1.0000 -2.0000
v 1.0000 0.0000 2.0000
v 1.0000 1.0000 2.0000
v 1.0000 1.0000 1.0000
v 1.0000 0.0000 1.0000
v 1.0000 1.0000 0.0000
v 1.0000 0.0000 0.0000
v 1.0000 0.0000 -1.0000
v 1.0000 0.0000 -2.0000
v 1.0000 1.0000 -3.0000
v 1.0000 0.0000 -3.0000
v 1.0000 1.0000 -2.0000
v 2.0000 0.0000 2.0000
v 2.0000 0.0000 1.0000
v 2.0000 1.0000 1.0000
v 2.0000 1.0000 2.0000
v 2.0000 0.0000 0.0000
v 2.0000 1.0000 0.0000
v 2.0000 0.0000 -1.0000
v 2.0000 1.0000 -1.0000
v 1.0000 1.0000 -1.0000
v 2.0000 0.0000 -2.0000
v 2.0000 1.0000 -2.0000
v 2.0000 0.0000 -3.0000
v 2.0000 1.0000 -3.0000
v -1.0000 4.0000 0.0000
v -1.0000 5.0000 0.0000
v -1.0000 5.0000 -1.0000
v -1.0000 4.0000 -1.0000
v 0.0000 4.0000 0.0000
v 0.0000 5.0000 0.0000
v -1.0000 6.0000 0.0000
v -1.0000 6.0000 -1.0000
v 0.0000 6.0000 0.0000
v -1.0000 7.0000 0.0000
v -1.0000 7.0000 -1.0000
v 0.0000 7.0000 0.0000
v -1.0000 8.0000 0.0000
v -1.0000 8.0000 -1.0000
v 0.0000 8.0000 0.0000
v -1.0000 9.0000 0.0000
v -1.0000 9.0000 -1.0000
v 0.0000 9.0000 0.0000
v -1.0000 10.0000 0.0000
v -1.0000 10.0000 -1.0000
v 0.0000 10.0000 0.0000
v -1.0000 11.0000 0.0000
v -1.0000 11.0000 -1.0000
v 0.0000 11.0000 0.0000
v 0.0000 12.0000 0.0000
v -1.0000 12.0000 0.0000
v -1.0000 13.0000 0.0000
v -1.0000 13.0000 -1.0000
v -1.0000 12.0000 -1.0000
v 0.0000 13.0000 0.0000
v -1.0000 14.0000 0.0000
v -1.0000 14.0000 -1.0000
v 0.0000 14.0000 0.0000
v -1.0000 15.0000 0.0000
v -1.0000 15.0000 -1.0000
v 0.0000 15.0000 0.0000
v 0.0000 15.0000 -1.0000
v -1.0000 5.0000 -2.0000
v -1.0000 4.0000 -2.0000
v 0.0000 5.0000 -2.0000
v 0.0000 4.0000 -2.0000
v -1.0000 6.0000 -2.0000
v 0.0000 6.0000 -2.0000
v -1.0000 7.0000 -2.0000
v 0.0000 7.0000 -2.0000
v -1.0000 8.0000 -2.0000
v 0.0000 8.0000 -2.0000
v -1.0000 9.0000 -2.0000
v 0.0000 9.0000 -2.0000
v -1.0000 10.0000 -2.0000
v 0.0000 10.0000 -2.0000
v -1.0000 11.0000 -2.0000
v 0.0000 11.0000 -2.0000
v -1.0000 12.0000 -2.0000
v 0.0000 12.0000 -2.0000
v -1.0000 13.0000 -2.0000
v 0.0000 13.0000 -2.0000
v -1.0000 14.0000 -2.0000
v 0.0000 14.0000 -2.0000
v -1.0000 15.0000 -2.0000
v 0.0000 15.0000 -2.0000
v 1.0000 4.0000 0.0000
v 1.0000 4.0000 -1.0000
v 1.0000 5.0000 -1.0000
v 1.0000 5.0000 0.0000
v 1.0000 6.0000 -1.0000
v 1.0000 6.0000 0.0000
v 1.0000 7.0000 -1.0000
v 1.0000 7.0000 0.0000
v 1.0000 8.0000 -1.0000
v 1.0000 8.0000 0.0000
v 1.0000 9.0000 -1.0000
v 1.0000 9.0000 0.0000
v 1.0000 10.0000 -1.0000
v 1.0000 10.0000 0.0000
v 1.0000 11.0000 -1.0000
v 1.0000 11.0000 0.0000
v 1.0000 12.0000 -1.0000
v 1.0000 12.0000 0.0000
v 1.0000 13.0000 -1.0000
v 1.0000 13.0000 0.0000
v 1.0000 14.0000 -1.0000
v 1.0000 14.0000 0.0000
v 1.0000 15.0000 -1.0000
v 1.0000 15.0000 0.0000
v 1.0000 4.0000 -2.0000
v 1.0000 5.0000 -2.0000
v 1.0000 6.0000 -2.0000
v 1.0000 7.0000 -2.0000
v 1.0000 8.0000 -2.0000
v 1.0000 9.0000 -2.0000
v 1.0000 10.0000 -2.0000
v 1.0000 11.0000 -2.0000
v 1.0000 12.0000 -2.0000
v 1.0000 13.0000 -2.0000
v 1.0000 14.0000 -2.0000
v 1.0000 15.0000 -2.0000
v -1.0000 2.0000 0.0000
v -1.0000 2.0000 -1.0000
v 0.0000 2.0000 0.0000
v -1.0000 3.0000 0.0000
v -1.0000 3.0000 -1.0000
v 0.0000 3.0000 0.0000
v -1.0000 2.0000 -2.0000
v 0.0000 2.0000 -2.0000
v -1.0000 3.0000 -2.0000
v 0.0000 3.0000 -2.0000
v 1.0000 2.0000 -1.0000
v 1.0000 2.0000 0.0000
v 1.0000 3.0000 -1.0000
v 1.0000 3.0000 0.0000
v 1.0000 2.0000 -2.0000
v 1.0000 3.0000 -2.0000
v -4.0000 11.0000 0.0000
v -4.0000 12.0000 0.0000
v -4.0000 12.0000 -1.0000
v -4.0000 11.0000 -1.0000
v -3.0000 12.0000 -1.0000
v -3.0000 11.0000 -1.0000
v -3.0000 11.0000 0.0000
v -3.0000 12.0000 0.0000
v -2.0000 12.0000 -1.0000
v -2.0000 11.0000 -1.0000
v -2.0000 11.0000 0.0000
v -2.0000 12.0000 0.0000
v -3.0000 13.0000 -1.0000
v -3.0000 13.0000 0.0000
v -4.0000 13.0000 -1.0000
v -4.0000 13.0000 0.0000
v 2.0000 12.0000 -2.0000
v 2.0000 11.0000 -2.0000
v 2.0000 11.0000 -1.0000
v 2.0000 12.0000 -1.0000
v 3.0000 12.0000 -2.0000
v 3.0000 11.0000 -2.0000
v 3.0000 11.0000 -1.0000
v 3.0000 12.0000 -1.0000
v 4.0000 11.0000 -1.0000
v 4.0000 11.0000 -2.0000
v 4.0000 12.0000 -2.0000
v 4.0000 12.0000 -1.0000
v 4.0000 13.0000 -2.0000
v 4.0000 13.0000 -1.0000
v 3.0000 13.0000 -2.0000
v 3.0000 13.0000 -1.0000
v 0.0000 16.0000 -2.0000
v 0.0000 16.0000 -1.0000
v -1.0000 16.0000 -1.0000
v -1.0000 16.0000 -2.0000
v 1.0000 16.0000 0.0000
v 1.0000 16.0000 -1.0000
v 1.0000 17.0000 -1.0000
v 1.0000 17.0000 0.0000
v 0.0000 16.0000 0.0000
v 0.0000 17.0000 0.0000
v 0.0000 17.0000 -1.0000
v -5.0000 12.0000 1.0000
v -5.0000 13.0000 1.0000
v -5.0000 13.0000 0.0000
v -5.0000 12.0000 0.0000
v -4.0000 12.0000 1.0000
v -4.0000 13.0000 1.0000
v -5.0000 13.0000 -1.0000
v -5.0000 12.0000 -1.0000
v -3.0000 12.0000 1.0000
v -3.0000 13.0000 1.0000
v -5.0000 14.0000 -1.0000
v -5.0000 14.0000 -2.0000
v -5.0000 13.0000 -2.0000
v -4.0000 14.0000 -1.0000
v -4.0000 14.0000 -2.0000
v -4.0000 13.0000 -2.0000
v -5.0000 14.0000 -3.0000
v -5.0000 13.0000 -3.0000
v -4.0000 14.0000 -3.0000
v -4.0000 13.0000 -3.0000
v -3.0000 13.0000 -2.0000
v -3.0000 14.0000 -2.0000
v -3.0000 14.0000 -1.0000
v -3.0000 13.0000 -3.0000
v -3.0000 14.0000 -3.0000
v 2.0000 12.0000 0.0000
v 2.0000 13.0000 0.0000
v 2.0000 13.0000 -1.0000
v 3.0000 12.0000 0.0000
v 3.0000 13.0000 0.0000
v 2.0000 13.0000 -2.0000
v 4.0000 12.0000 0.0000
v 4.0000 13.0000 0.0000
v 2.0000 14.0000 -2.0000
v 2.0000 14.0000 -3.0000
v 2.0000 13.0000 -3.0000
v 3.0000 14.0000 -2.0000
v 3.0000 14.0000 -3.0000
v 3.0000 13.0000 -3.0000
v 2.0000 14.0000 -4.0000
v 2.0000 13.0000 -4.0000
v 3.0000 14.0000 -4.0000
v 3.0000 13.0000 -4.0000
v 4.0000 13.0000 -3.0000
v 4.0000 14.0000 -3.0000
v 4.0000 14.0000 -2.0000
v 4.0000 13.0000 -4.0000
v 4.0000 14.0000 -4.0000
v -2.0000 14.0000 -3.0000
v -2.0000 15.0000 -3.0000
v -2.0000 15.0000 -4.0000
v -2.0000 14.0000 -4.0000
v -1.0000 14.0000 -3.0000
v -1.0000 15.0000 -3.0000
v -1.0000 15.0000 -4.0000
v -1.0000 14.0000 -4.0000
v -2.0000 15.0000 -5.0000
v -2.0000 14.0000 -5.0000
v -1.0000 15.0000 -5.0000
v -1.0000 14.0000 -5.0000
v 0.0000 14.0000 -3.0000
v 0.0000 14.0000 -4.0000
v 0.0000 15.0000 -4.0000
v 0.0000 15.0000 -3.0000
v 0.0000 14.0000 -5.0000
v 0.0000 15.0000 -5.0000
v 0.0000 14.0000 4.0000
v 0.0000 15.0000 4.0000
v 0.0000 15.0000 3.0000
v 0.0000 14.0000 3.0000
v 1.0000 14.0000 4.0000
v 1.0000 15.0000 4.0000
v 1.0000 15.0000 3.0000
v 1.0000 14.0000 3.0000
v 0.0000 15.0000 2.0000
v 0.0000 14.0000 2.0000
v 1.0000 15.0000 2.0000
v 1.0000 14.0000 2.0000
v 2.0000 14.0000 4.0000
v 2.0000 14.0000 3.0000
v 2.0000 15.0000 3.0000
v 2.0000 15.0000 4.0000
v 2.0000 14.0000 2.0000
v 2.0000 15.0000 2.0000
v -2.0000 17.0000 1.0000
v -2.0000 18.0000 1.0000
v -2.0000 18.0000 0.0000
v -2.0000 17.0000 0.0000
v -1.0000 17.0000 1.0000
v -1.0000 18.0000 1.0000
v -1.0000 18.0000 0.0000
v -1.0000 17.0000 0.0000
v -2.0000 18.0000 -1.0000
v -2.0000 17.0000 -1.0000
v -1.0000 18.0000 -1.0000
v -1.0000 17.0000 -1.0000
v 0.0000 17.0000 1.0000
v 0.0000 18.0000 0.0000
v 0.0000 18.0000 1.0000
v 0.0000 18.0000 -1.0000
v 0.0000 17.0000 -2.0000
v 1.0000 17.0000 -2.0000
v 1.0000 16.0000 -2.0000
v 0.0000 17.0000 -3.0000
v 0.0000 16.0000 -3.0000
v 1.0000 17.0000 -3.0000
v 1.0000 16.0000 -3.0000
v 2.0000 16.0000 -1.0000
v 2.0000 16.0000 -2.0000
v 2.0000 17.0000 -2.0000
v 2.0000 17.0000 -1.0000
v 2.0000 16.0000 -3.0000
v 2.0000 17.0000 -3.0000
v -2.0000 6.0000 0.0000
v -2.0000 6.0000 -1.0000
v -2.0000 7.0000 -1.0000
v -2.0000 7.0000 0.0000
v -3.0000 6.0000 0.0000
v -3.0000 7.0000 0.0000
v -3.0000 7.0000 -1.0000
v -3.0000 6.0000 -1.0000
v -2.0000 8.0000 -1.0000
v -2.0000 8.0000 0.0000
v -3.0000 8.0000 0.0000
v -3.0000 8.0000 -1.0000
v -2.0000 9.0000 -1.0000
v -2.0000 9.0000 0.0000
v -3.0000 9.0000 0.0000
v -3.0000 9.0000 -1.0000
v -2.0000 10.0000 -1.0000
v -2.0000 10.0000 0.0000
v -3.0000 10.0000 0.0000
v -3.0000 10.0000 -1.0000
v 4.0000 6.0000 -1.0000
v 4.0000 6.0000 -2.0000
v 4.0000 7.0000 -2.0000
v 4.0000 7.0000 -1.0000
v 3.0000 6.0000 -1.0000
v 3.0000 7.0000 -1.0000
v 3.0000 7.0000 -2.0000
v 3.0000 6.0000 -2.0000
v 4.0000 8.0000 -2.0000
v 4.0000 8.0000 -1.0000
v 3.0000 8.0000 -1.0000
v 3.0000 8.0000 -2.0000
v 4.0000 9.0000 -2.0000
v 4.0000 9.0000 -1.0000
v 3.0000 9.0000 -1.0000
v 3.0000 9.0000 -2.0000
v 4.0000 10.0000 -2.0000
v 4.0000 10.0000 -1.0000
v 3.0000 10.0000 -1.0000
v 3.0000 10.0000 -2.0000
v 0.0000 6.0000 3.0000
v 0.0000 6.0000 2.0000
v 0.0000 7.0000 2.0000
v 0.0000 7.0000 3.0000
v -1.0000 6.0000 3.0000
v -1.0000 7.0000 3.0000
v -1.0000 7.0000 2.0000
v -1.0000 6.0000 2.0000
v 0.0000 8.0000 2.0000
v 0.0000 8.0000 3.0000
v -1.0000 8.0000 3.0000
v -1.0000 8.0000 2.0000
v 0.0000 9.0000 2.0000
v 0.0000 9.0000 3.0000
v -1.0000 9.0000 3.0000
v -1.0000 9.0000 2.0000
v 0.0000 10.0000 2.0000
v 0.0000 10.0000 3.0000
v -1.0000 10.0000 3.0000
v -1.0000 10.0000 2.0000
v 0.0000 11.0000 2.0000
v 0.0000 11.0000 3.0000
v -1.0000 11.0000 3.0000
v -1.0000 11.0000 2.0000
v 2.0000 6.0000 -4.0000
v 2.0000 6.0000 -5.0000
v 2.0000 7.0000 -5.0000
v 2.0000 7.0000 -4.0000
v 1.0000 6.0000 -4.0000
v 1.0000 7.0000 -4.0000
v 1.0000 7.0000 -5.0000
v 1.0000 6.0000 -5.0000
v 2.0000 8.0000 -5.0000
v 2.0000 8.0000 -4.0000
v 1.0000 8.0000 -4.0000
v 1.0000 8.0000 -5.0000
v 2.0000 9.0000 -5.0000
v 2.0000 9.0000 -4.0000
v 1.0000 9.0000 -4.0000
v 1.0000 9.0000 -5.0000
v 2.0000 10.0000 -5.0000
v 2.0000 10.0000 -4.0000
v 1.0000 10.0000 -4.0000
v 1.0000 10.0000 -5.0000
v 2.0000 11.0000 -5.0000
v 2.0000 11.0000 -4.0000
v 1.0000 11.0000 -4.0000
v 1.0000 11.0000 -5.0000
v -3.0000 5.0000 -2.0000
v -3.0000 5.0000 -3.0000
v -3.0000 6.0000 -3.0000
v -3.0000 6.0000 -2.0000
v -4.0000 5.0000 -2.0000
v -4.0000 6.0000 -2.0000
v -4.0000 6.0000 -3.0000
v -4.0000 5.0000 -3.0000
v -3.0000 7.0000 -3.0000
v -3.0000 7.0000 -2.0000
v -4.0000 7.0000 -2.0000
v -4.0000 7.0000 -3.0000
v -3.0000 8.0000 -3.0000
v -3.0000 8.0000 -2.0000
v -4.0000 8.0000 -2.0000
v -4.0000 8.0000 -3.0000
v -3.0000 9.0000 -3.0000
v -3.0000 9.0000 -2.0000
v -4.0000 9.0000 -2.0000
v -4.0000 9.0000 -3.0000
v -3.0000 10.0000 -3.0000
v -3.0000 10.0000 -2.0000
v -4.0000 10.0000 -2.0000
v -4.0000 10.0000 -3.0000
v 5.0000 5.0000 1.0000
v 5.0000 5.0000 0.0000
v 5.0000 6.0000 0.0000
v 5.0000 6.0000 1.0000
v 4.0000 5.0000 1.0000
v 4.0000 6.0000 1.0000
v 4.0000 6.0000 0.0000
v 4.0000 5.0000 0.0000
v 5.0000 7.0000 0.0000
v 5.0000 7.0000 1.0000
v 4.0000 7.0000 1.0000
v 4.0000 7.0000 0.0000
v 5.0000 8.0000 0.0000
v 5.0000 8.0000 1.0000
v 4.0000 8.0000 1.0000
v 4.0000 8.0000 0.0000
v 5.0000 9.0000 0.0000
v 5.0000 9.0000 1.0000
v 4.0000 9.0000 1.0000
v 4.0000 9.0000 0.0000
v 5.0000 10.0000 0.0000
v 5.0000 10.0000 1.0000
v 4.0000 10.0000 1.0000
v 4.0000 10.0000 0.0000
v 0.0000 8.0000 5.0000
v 0.0000 8.0000 4.0000
v 0.0000 9.0000 4.0000
v 0.0000 9.0000 5.0000
v -1.0000 8.0000 5.0000
v -1.0000 9.0000 5.0000
v -1.0000 9.0000 4.0000
v -1.0000 8.0000 4.0000
v 0.0000 10.0000 4.0000
v 0.0000 10.0000 5.0000
v -1.0000 10.0000 5.0000
v -1.0000 10.0000 4.0000
v 0.0000 11.0000 4.0000
v 0.0000 11.0000 5.0000
v -1.0000 11.0000 5.0000
v -1.0000 11.0000 4.0000
usemtl c3
f 478 390 394 479
f 484 483 395 391
f 484 391 390 478
f 479 394 398 485
f 483 488 399 395
f 485 398 402 489
f 488 492 403 399
f 492 489 402 403
usemtl c5
f 1 2 3 4
f 1 5 6 2
f 2 6 7 3
f 1 4 8 5
f 4 3 9 10
f 3 7 11 9
f 4 10 12 8
f 10 9 13 14
f 9 11 15 13
f 10 14 16 12
f 14 13 17 18
f 13 15 19 17
f 14 18 20 16
f 18 17 21 22
f 22 21 23 24
f 17 19 23 21
f 18 22 24 20
f 5 25 26 6
f 6 26 27 7
f 5 8 28 25
f 7 27 29 11
f 8 12 30 28
f 11 29 31 15
f 12 16 32 30
f 15 31 33 19
f 16 20 34 32
f 24 23 35 36
f 19 33 35 23
f 20 24 36 34
f 25 37 38 26
f 26 38 39 27
f 25 28 40 37
f 27 39 41 29
f 28 30 42 40
f 30 32 43 42
f 32 34 44 43
f 36 35 45 46
f 33 47 45 35
f 34 36 46 44
f 37 48 49 38
f 38 49 50 39
f 37 40 51 48
f 39 50 52 41
f 40 42 53 51
f 42 43 54 53
f 43 44 55 54
f 46 45 56 57
f 47 58 56 45
f 44 46 57 55
f 59 60 61 62
f 48 59 62 49
f 49 62 61 50
f 48 51 60 59
f 60 63 64 61
f 50 61 64 52
f 51 53 63 60
f 63 65 66 64
f 52 64 66 67
f 53 54 65 63
f 65 68 69 66
f 67 66 69 58
f 54 55 68 65
f 68 70 71 69
f 57 56 71 70
f 58 69 71 56
f 55 57 70 68
usemtl c11
f 72 73 74 75
f 72 76 77 73
f 73 78 79 74
f 73 77 80 78
f 78 81 82 79
f 78 80 83 81
f 81 84 85 82
f 81 83 86 84
f 84 87 88 85
f 84 86 89 87
f 87 90 91 88
f 87 89 92 90
f 90 93 94 91
f 90 92 95 93
f 93 95 96 97
f 97 98 99 100
f 97 96 101 98
f 98 102 103 99
f 98 101 104 102
f 102 105 106 103
f 102 104 107 105
f 105 107 108 106
f 75 74 109 110
f 110 109 111 112
f 74 79 113 109
f 109 113 114 111
f 79 82 115 113
f 113 115 116 114
f 82 85 117 115
f 115 117 118 116
f 85 88 119 117
f 117 119 120 118
f 88 91 121 119
f 119 121 122 120
f 91 94 123 121
f 121 123 124 122
f 94 100 125 123
f 123 125 126 124
f 100 99 127 125
f 125 127 128 126
f 99 103 129 127
f 127 129 130 128
f 103 106 131 129
f 129 131 132 130
f 133 134 135 136
f 76 133 136 77
f 136 135 137 138
f 77 136 138 80
f 138 137 139 140
f 80 138 140 83
f 140 139 141 142
f 83 140 142 86
f 142 141 143 144
f 86 142 144 89
f 144 143 145 146
f 89 144 146 92
f 146 145 147 148
f 92 146 148 95
f 148 147 149 150
f 95 148 150 96
f 150 149 151 152
f 96 150 152 101
f 152 151 153 154
f 101 152 154 104
f 154 153 155 156
f 104 154 156 107
f 107 156 155 108
f 134 157 158 135
f 112 111 158 157
f 135 158 159 137
f 111 114 159 158
f 137 159 160 139
f 114 116 160 159
f 139 160 161 141
f 116 118 161 160
f 141 161 162 143
f 118 120 162 161
f 143 162 163 145
f 120 122 163 162
f 145 163 164 147
f 122 124 164 163
f 124 126 165 164
f 149 165 166 151
f 126 128 166 165
f 151 166 167 153
f 128 130 167 166
f 153 167 168 155
f 130 132 168 167
f 108 155 168 132
f 185 186 187 188
f 188 187 189 190
f 185 191 192 186
f 185 188 190 191
f 190 189 193 194
f 191 195 196 192
f 192 196 193 189
f 194 193 100 94
f 195 93 97 196
f 196 97 100 193
f 195 194 94 93
f 164 165 201 202
f 147 203 204 149
f 149 204 201 165
f 147 164 202 203
f 202 201 205 206
f 203 207 208 204
f 203 202 206 207
f 209 210 211 212
f 206 205 211 210
f 207 209 212 208
f 108 132 217 218
f 106 219 220 131
f 131 220 217 132
f 106 108 218 219
f 219 218 217 220
f 221 222 223 224
f 225 226 227 218
f 225 221 224 226
f 226 224 223 227
f 225 218 222 221
usemtl c12
f 192 189 197 198
f 187 199 197 189
f 200 198 197 199
f 212 211 213 214
f 205 215 213 211
f 216 214 213 215
f 228 229 230 231
f 228 232 233 229
f 229 233 200 230
f 228 231 186 232
f 231 230 234 235
f 235 234 199 187
f 230 200 199 234
f 231 235 187 186
f 236 192 198 237
f 232 236 237 233
f 233 237 198 200
f 232 186 192 236
f 234 238 239 240
f 234 199 241 238
f 238 241 242 239
f 234 240 243 199
f 240 239 244 245
f 245 244 246 247
f 239 242 246 244
f 240 245 247 243
f 197 248 249 250
f 199 197 250 241
f 241 250 249 242
f 199 243 248 197
f 248 251 252 249
f 247 246 252 251
f 242 249 252 246
f 243 247 251 248
f 253 254 255 204
f 253 256 257 254
f 254 257 216 255
f 253 204 208 256
f 204 255 258 201
f 201 258 215 205
f 255 216 215 258
f 259 212 214 260
f 256 259 260 257
f 257 260 214 216
f 256 208 212 259
f 258 261 262 263
f 258 215 264 261
f 261 264 265 262
f 258 263 266 215
f 263 262 267 268
f 268 267 269 270
f 262 265 269 267
f 263 268 270 266
f 213 271 272 273
f 215 213 273 264
f 264 273 272 265
f 215 266 271 213
f 271 274 275 272
f 270 269 275 274
f 265 272 275 269
f 266 270 274 271
f 276 277 278 279
f 276 280 281 277
f 277 281 282 278
f 276 279 283 280
f 279 278 284 285
f 285 284 286 287
f 278 282 286 284
f 279 285 287 283
f 288 289 290 291
f 280 288 291 281
f 281 291 290 282
f 280 283 289 288
f 289 292 293 290
f 287 286 293 292
f 282 290 293 286
f 283 287 292 289
f 294 295 296 297
f 294 298 299 295
f 295 299 300 296
f 294 297 301 298
f 297 296 302 303
f 303 302 304 305
f 296 300 304 302
f 297 303 305 301
f 306 307 308 309
f 298 306 309 299
f 299 309 308 300
f 298 301 307 306
f 307 310 311 308
f 305 304 311 310
f 300 308 311 304
f 301 305 310 307
f 312 313 314 315
f 312 316 317 313
f 313 317 318 314
f 312 315 319 316
f 315 314 320 321
f 321 320 322 323
f 314 318 322 320
f 315 321 323 319
f 324 226 325 326
f 316 324 326 317
f 317 326 325 318
f 316 319 226 324
f 226 227 327 325
f 323 322 327 227
f 318 325 327 322
f 319 323 227 226
f 218 227 328 217
f 227 223 329 328
f 218 217 330 222
f 217 328 331 332
f 332 331 333 334
f 328 329 333 331
f 217 332 334 330
f 335 336 337 338
f 222 335 338 223
f 223 338 337 329
f 222 330 336 335
f 336 339 340 337
f 334 333 340 339
f 329 337 340 333
f 330 334 339 336
usemtl c13
f 341 342 343 344
f 345 346 347 348
f 348 347 343 342
f 345 341 344 346
f 345 348 342 341
f 344 343 349 350
f 346 351 352 347
f 347 352 349 343
f 346 344 350 351
f 350 349 353 354
f 351 355 356 352
f 352 356 353 349
f 351 350 354 355
f 354 353 357 358
f 355 359 360 356
f 356 360 357 353
f 355 354 358 359
f 358 357 194 195
f 359 191 190 360
f 360 190 194 357
f 359 358 195 191
f 361 362 363 364
f 365 366 367 368
f 368 367 363 362
f 365 361 364 366
f 365 368 362 361
f 364 363 369 370
f 366 371 372 367
f 367 372 369 363
f 366 364 370 371
f 370 369 373 374
f 371 375 376 372
f 372 376 373 369
f 371 370 374 375
f 374 373 377 378
f 375 379 380 376
f 376 380 377 373
f 375 374 378 379
f 378 377 210 209
f 379 207 206 380
f 380 206 210 377
f 379 378 209 207
f 381 382 383 384
f 385 386 387 388
f 388 387 383 382
f 385 381 384 386
f 385 388 382 381
f 384 383 389 390
f 386 391 392 387
f 387 392 389 383
f 386 384 390 391
f 390 389 393 394
f 391 395 396 392
f 392 396 393 389
f 394 393 397 398
f 395 399 400 396
f 396 400 397 393
f 398 397 401 402
f 399 403 404 400
f 400 404 401 397
f 403 402 401 404
f 405 406 407 408
f 409 410 411 412
f 412 411 407 406
f 409 405 408 410
f 409 412 406 405
f 408 407 413 414
f 410 415 416 411
f 411 416 413 407
f 410 408 414 415
f 414 413 417 418
f 415 419 420 416
f 416 420 417 413
f 415 414 418 419
f 418 417 421 422
f 419 423 424 420
f 420 424 421 417
f 419 418 422 423
f 422 421 425 426
f 423 427 428 424
f 424 428 425 421
f 423 422 426 427
f 427 426 425 428
f 477 478 479 480
f 481 482 483 484
f 481 477 480 482
f 481 484 478 477
f 480 479 485 486
f 482 487 488 483
f 482 480 486 487
f 486 485 489 490
f 487 491 492 488
f 487 486 490 491
f 491 490 489 492
usemtl c14
f 29 169 170 31
f 29 41 171 169
f 169 172 173 170
f 169 171 174 172
f 172 72 75 173
f 172 174 76 72
f 31 170 175 33
f 33 175 176 47
f 170 173 177 175
f 175 177 178 176
f 173 75 110 177
f 177 110 112 178
f 52 67 179 180
f 41 52 180 171
f 180 179 181 182
f 171 180 182 174
f 182 181 134 133
f 174 182 133 76
f 67 58 183 179
f 47 176 183 58
f 179 183 184 181
f 176 178 184 183
f 181 184 157 134
f 178 112 157 184
f 429 430 431 432
f 433 434 435 436
f 436 435 431 430
f 433 429 432 434
f 433 436 430 429
f 432 431 437 438
f 434 439 440 435
f 435 440 437 431
f 434 432 438 439
f 438 437 441 442
f 439 443 444 440
f 440 444 441 437
f 439 438 442 443
f 442 441 445 446
f 443 447 448 444
f 444 448 445 441
f 443 442 446 447
f 446 445 449 450
f 447 451 452 448
f 448 452 449 445
f 447 446 450 451
f 451 450 449 452
f 453 454 455 456
f 457 458 459 460
f 460 459 455 454
f 457 453 456 458
f 457 460 454 453
f 456 455 461 462
f 458 463 464 459
f 459 464 461 455
f 458 456 462 463
f 462 461 465 466
f 463 467 468 464
f 464 468 465 461
f 463 462 466 467
f 466 465 469 470
f 467 471 472 468
f 468 472 469 465
f 467 466 470 471
f 470 469 473 474
f 471 475 476 472
f 472 476 473 469
f 471 470 474 475
f 475 474 473 476
