# generado por tools/vox_to_obj.py desde caraota_v2.vox
mtllib caraota_v2.mtl
v -1.5000 0.0000 2.0000
v -1.5000 1.0000 2.0000
v -1.5000 1.0000 1.0000
v -1.5000 0.0000 1.0000
v -0.5000 0.0000 2.0000
v -0.5000 1.0000 2.0000
v -0.5000 1.0000 1.0000
v -0.5000 0.0000 1.0000
v -1.5000 1.0000 0.0000
v -1.5000 0.0000 0.0000
v -0.5000 1.0000 0.0000
v -0.5000 0.0000 0.0000
v -1.5000 1.0000 -1.0000
v -1.5000 0.0000 -1.0000
v -0.5000 1.0000 -1.0000
v -0.5000 0.0000 -1.0000
v -1.5000 1.0000 -2.0000
v -1.5000 0.0000 -2.0000
v -0.5000 1.0000 -2.0000
v -0.5000 0.0000 -2.0000
v 0.5000 0.0000 2.0000
v 0.5000 1.0000 2.0000
v 0.5000 1.0000 1.0000
v 0.5000 0.0000 1.0000
v 0.5000 1.0000 0.0000
v 0.5000 0.0000 0.0000
v 0.5000 0.0000 -1.0000
v 0.5000 1.0000 -2.0000
v 0.5000 0.0000 -2.0000
v 0.5000 1.0000 -1.0000
v 1.5000 0.0000 2.0000
v 1.5000 1.0000 2.0000
v 1.5000 1.0000 1.0000
v 1.5000 0.0000 1.0000
v 1.5000 1.0000 0.0000
v 1.5000 0.0000 0.0000
v 1.5000 0.0000 -1.0000
v 1.5000 1.0000 -2.0000
v 1.5000 0.0000 -2.0000
v 1.5000 1.0000 -1.0000
v 2.5000 0.0000 2.0000
v 2.5000 0.0000 1.0000
v 2.5000 1.0000 1.0000
v 2.5000 1.0000 2.0000
v 2.5000 0.0000 0.0000
v 2.5000 1.0000 0.0000
v 2.5000 0.0000 -1.0000
v 2.5000 1.0000 -1.0000
v 2.5000 0.0000 -2.0000
v 2.5000 1.0000 -2.0000
v 1.5000 2.0000 -1.0000
v 1.5000 2.0000 0.0000
v 0.5000 2.0000 -1.0000
v 0.5000 2.0000 0.0000
v 1.5000 3.0000 -1.0000
v 1.5000 3.0000 0.0000
v 0.5000 3.0000 0.0000
v 0.5000 3.0000 -1.0000
v 0.5000 4.0000 0.0000
v 0.5000 4.0000 -1.0000
v 1.5000 4.0000 -1.0000
v 1.5000 4.0000 0.0000
v 1.5000 5.0000 -1.0000
v 1.5000 5.0000 0.0000
v 0.5000 5.0000 0.0000
v 0.5000 5.0000 -1.0000
v 1.5000 6.0000 -1.0000
v 1.5000 6.0000 0.0000
v 0.5000 6.0000 -1.0000
v 0.5000 6.0000 0.0000
v 1.5000 7.0000 -1.0000
v 1.5000 7.0000 0.0000
v 0.5000 7.0000 0.0000
v 0.5000 7.0000 -1.0000
v 0.5000 8.0000 0.0000
v 0.5000 8.0000 -1.0000
v 1.5000 8.0000 -1.0000
v 1.5000 8.0000 0.0000
v 1.5000 9.0000 -1.0000
v 1.5000 9.0000 0.0000
v 0.5000 9.0000 0.0000
v 0.5000 9.0000 -1.0000
v 1.5000 10.0000 -1.0000
v 1.5000 10.0000 0.0000
v 0.5000 10.0000 -1.0000
v 0.5000 10.0000 0.0000
v 1.5000 11.0000 -1.0000
v 1.5000 11.0000 0.0000
v 0.5000 11.0000 0.0000
v 0.5000 11.0000 -1.0000
v 0.5000 12.0000 0.0000
v 0.5000 12.0000 -1.0000
v 1.5000 12.0000 -1.0000
v 1.5000 12.0000 0.0000
v 1.5000 13.0000 -1.0000
v 1.5000 13.0000 0.0000
v 0.5000 13.0000 0.0000
v 0.5000 13.0000 -1.0000
v 1.5000 14.0000 -1.0000
v 1.5000 14.0000 0.0000
v 0.5000 14.0000 -1.0000
v 0.5000 14.0000 0.0000
v 1.5000 15.0000 -1.0000
v 1.5000 15.0000 0.0000
v 0.5000 15.0000 0.0000
v 0.5000 15.0000 -1.0000
v 1.5000 16.0000 -1.0000
v 1.5000 16.0000 0.0000
v 0.5000 16.0000 0.0000
v 0.5000 16.0000 -1.0000
v 1.5000 17.0000 -1.0000
v 1.5000 17.0000 0.0000
v 0.5000 17.0000 0.0000
v 0.5000 17.0000 -1.0000
v 1.5000 18.0000 -1.0000
v 1.5000 18.0000 0.0000
v 0.5000 18.0000 0.0000
v 0.5000 18.0000 -1.0000
v 1.5000 19.0000 -1.0000
v 1.5000 19.0000 0.0000
v 0.5000 19.0000 0.0000
v 0.5000 19.0000 -1.0000
v -0.5000 2.0000 0.0000
v -0.5000 2.0000 -1.0000
v 0.5000 2.0000 1.0000
v 0.5000 3.0000 1.0000
v -0.5000 2.0000 1.0000
v -0.5000 3.0000 1.0000
v -0.5000 3.0000 0.0000
v 2.5000 3.0000 0.0000
v 2.5000 3.0000 -1.0000
v 2.5000 4.0000 -1.0000
v 2.5000 4.0000 0.0000
v 2.5000 4.0000 1.0000
v 2.5000 5.0000 0.0000
v 2.5000 5.0000 1.0000
v 1.5000 4.0000 1.0000
v 1.5000 5.0000 1.0000
v -0.5000 5.0000 0.0000
v -0.5000 6.0000 0.0000
v -0.5000 6.0000 -1.0000
v -0.5000 5.0000 -1.0000
v 0.5000 6.0000 -2.0000
v 0.5000 7.0000 -2.0000
v -0.5000 7.0000 -1.0000
v -0.5000 7.0000 -2.0000
v -0.5000 6.0000 -2.0000
v 2.5000 7.0000 0.0000
v 2.5000 7.0000 -1.0000
v 2.5000 8.0000 -1.0000
v 2.5000 8.0000 0.0000
v 1.5000 9.0000 -2.0000
v 1.5000 8.0000 -2.0000
v 2.5000 9.0000 -1.0000
v 2.5000 9.0000 -2.0000
v 2.5000 8.0000 -2.0000
v -0.5000 9.0000 0.0000
v -0.5000 10.0000 0.0000
v -0.5000 10.0000 -1.0000
v -0.5000 9.0000 -1.0000
v 0.5000 10.0000 1.0000
v 0.5000 11.0000 1.0000
v -0.5000 10.0000 1.0000
v -0.5000 11.0000 1.0000
v -0.5000 11.0000 0.0000
v 2.5000 11.0000 0.0000
v 2.5000 11.0000 -1.0000
v 2.5000 12.0000 -1.0000
v 2.5000 12.0000 0.0000
v 2.5000 12.0000 -2.0000
v 2.5000 13.0000 -2.0000
v 2.5000 13.0000 -1.0000
v 1.5000 13.0000 -2.0000
v 1.5000 12.0000 -2.0000
v -0.5000 13.0000 0.0000
v -0.5000 14.0000 0.0000
v -0.5000 14.0000 -1.0000
v -0.5000 13.0000 -1.0000
v 0.5000 14.0000 1.0000
v 0.5000 15.0000 1.0000
v -0.5000 14.0000 1.0000
v -0.5000 15.0000 1.0000
v -0.5000 15.0000 0.0000
v 1.5000 15.0000 -2.0000
v 1.5000 16.0000 -2.0000
v 0.5000 16.0000 -2.0000
v 0.5000 15.0000 -2.0000
v 1.5000 16.0000 1.0000
v 1.5000 17.0000 1.0000
v 0.5000 16.0000 1.0000
v 0.5000 17.0000 1.0000
v -3.5000 5.0000 1.0000
v -3.5000 6.0000 1.0000
v -3.5000 6.0000 0.0000
v -3.5000 5.0000 0.0000
v -2.5000 5.0000 1.0000
v -2.5000 6.0000 1.0000
v -2.5000 6.0000 0.0000
v -2.5000 5.0000 0.0000
v -3.5000 5.0000 -1.0000
v -3.5000 6.0000 -1.0000
v -2.5000 6.0000 -1.0000
v -2.5000 5.0000 -1.0000
v -1.5000 5.0000 1.0000
v -1.5000 5.0000 0.0000
v -1.5000 6.0000 0.0000
v -1.5000 6.0000 1.0000
v -1.5000 5.0000 -1.0000
v -1.5000 6.0000 -1.0000
v -5.5000 5.0000 0.0000
v -5.5000 6.0000 0.0000
v -5.5000 6.0000 -1.0000
v -5.5000 5.0000 -1.0000
v -4.5000 5.0000 0.0000
v -4.5000 6.0000 0.0000
v -4.5000 6.0000 -1.0000
v -4.5000 5.0000 -1.0000
v -5.5000 6.0000 -2.0000
v -5.5000 5.0000 -2.0000
v -4.5000 6.0000 -2.0000
v -4.5000 5.0000 -2.0000
v -3.5000 5.0000 -2.0000
v -3.5000 6.0000 -2.0000
v -3.5000 7.0000 -1.0000
v -3.5000 7.0000 -2.0000
v -2.5000 7.0000 -1.0000
v -2.5000 7.0000 -2.0000
v -2.5000 6.0000 -2.0000
v -3.5000 7.0000 -3.0000
v -3.5000 6.0000 -3.0000
v -2.5000 7.0000 -3.0000
v -2.5000 6.0000 -3.0000
v -1.5000 6.0000 -2.0000
v -1.5000 7.0000 -2.0000
v -1.5000 7.0000 -1.0000
v -1.5000 6.0000 -3.0000
v -1.5000 7.0000 -3.0000
v 0.5000 8.0000 -2.0000
v 0.5000 9.0000 -2.0000
v 0.5000 9.0000 -3.0000
v 0.5000 8.0000 -3.0000
v 1.5000 9.0000 -3.0000
v 1.5000 8.0000 -3.0000
v 0.5000 9.0000 -4.0000
v 0.5000 8.0000 -4.0000
v 1.5000 9.0000 -4.0000
v 1.5000 8.0000 -4.0000
v 2.5000 9.0000 -3.0000
v 2.5000 8.0000 -3.0000
v 2.5000 8.0000 -4.0000
v 2.5000 9.0000 -4.0000
v 3.5000 8.0000 -1.0000
v 3.5000 9.0000 -1.0000
v 3.5000 9.0000 -2.0000
v 3.5000 8.0000 -2.0000
v 3.5000 9.0000 -3.0000
v 3.5000 8.0000 -3.0000
v 4.5000 8.0000 -1.0000
v 4.5000 8.0000 -2.0000
v 4.5000 9.0000 -2.0000
v 4.5000 9.0000 -1.0000
v 4.5000 8.0000 -3.0000
v 4.5000 9.0000 -3.0000
v 1.5000 10.0000 -3.0000
v 1.5000 10.0000 -4.0000
v 2.5000 10.0000 -3.0000
v 2.5000 10.0000 -4.0000
v 1.5000 10.0000 -5.0000
v 1.5000 9.0000 -5.0000
v 2.5000 10.0000 -5.0000
v 2.5000 9.0000 -5.0000
v 3.5000 9.0000 -4.0000
v 3.5000 10.0000 -4.0000
v 3.5000 10.0000 -3.0000
v 3.5000 9.0000 -5.0000
v 3.5000 10.0000 -5.0000
v -1.5000 12.0000 4.0000
v -0.5000 12.0000 4.0000
v -0.5000 13.0000 4.0000
v -1.5000 13.0000 4.0000
v -0.5000 13.0000 3.0000
v -1.5000 13.0000 3.0000
v -1.5000 12.0000 3.0000
v -0.5000 12.0000 3.0000
v -1.5000 13.0000 2.0000
v -1.5000 12.0000 2.0000
v -0.5000 13.0000 2.0000
v -0.5000 12.0000 2.0000
v 0.5000 12.0000 4.0000
v 0.5000 12.0000 3.0000
v 0.5000 13.0000 3.0000
v 0.5000 13.0000 4.0000
v 0.5000 12.0000 2.0000
v 0.5000 13.0000 2.0000
v -3.5000 12.0000 5.0000
v -3.5000 13.0000 5.0000
v -3.5000 13.0000 4.0000
v -3.5000 12.0000 4.0000
v -2.5000 12.0000 5.0000
v -2.5000 13.0000 5.0000
v -2.5000 13.0000 4.0000
v -2.5000 12.0000 4.0000
v -3.5000 13.0000 3.0000
v -3.5000 12.0000 3.0000
v -2.5000 13.0000 3.0000
v -2.5000 12.0000 3.0000
v -1.5000 12.0000 5.0000
v -1.5000 13.0000 5.0000
v -0.5000 14.0000 4.0000
v -0.5000 14.0000 3.0000
v 0.5000 14.0000 4.0000
v 0.5000 14.0000 3.0000
v -0.5000 14.0000 2.0000
v 0.5000 14.0000 2.0000
v 1.5000 13.0000 4.0000
v 1.5000 13.0000 3.0000
v 1.5000 14.0000 3.0000
v 1.5000 14.0000 4.0000
v 1.5000 13.0000 2.0000
v 1.5000 14.0000 2.0000
v 2.5000 15.0000 1.0000
v 2.5000 16.0000 1.0000
v 2.5000 16.0000 0.0000
v 2.5000 15.0000 0.0000
v 3.5000 15.0000 1.0000
v 3.5000 16.0000 1.0000
v 3.5000 16.0000 0.0000
v 3.5000 15.0000 0.0000
v 2.5000 16.0000 -1.0000
v 2.5000 15.0000 -1.0000
v 3.5000 16.0000 -1.0000
v 3.5000 15.0000 -1.0000
v 4.5000 15.0000 1.0000
v 4.5000 15.0000 0.0000
v 4.5000 16.0000 0.0000
v 4.5000 16.0000 1.0000
v 4.5000 16.0000 -1.0000
v 3.5000 16.0000 -2.0000
v 3.5000 15.0000 -2.0000
v 4.5000 16.0000 -2.0000
v 4.5000 15.0000 -2.0000
v 4.5000 15.0000 -1.0000
v 5.5000 15.0000 0.0000
v 5.5000 15.0000 -1.0000
v 5.5000 16.0000 -1.0000
v 5.5000 16.0000 0.0000
v 5.5000 15.0000 -2.0000
v 5.5000 16.0000 -2.0000
v 2.5000 17.0000 -1.0000
v 2.5000 17.0000 -2.0000
v 2.5000 16.0000 -2.0000
v 3.5000 17.0000 -1.0000
v 3.5000 17.0000 -2.0000
v 2.5000 17.0000 -3.0000
v 2.5000 16.0000 -3.0000
v 3.5000 17.0000 -3.0000
v 3.5000 16.0000 -3.0000
v 4.5000 17.0000 -2.0000
v 4.5000 17.0000 -1.0000
v 4.5000 16.0000 -3.0000
v 4.5000 17.0000 -3.0000
v -1.5000 7.0000 2.0000
v -1.5000 7.0000 1.0000
v -1.5000 8.0000 1.0000
v -1.5000 8.0000 2.0000
v -2.5000 7.0000 2.0000
v -2.5000 8.0000 2.0000
v -2.5000 8.0000 1.0000
v -2.5000 7.0000 1.0000
v -1.5000 9.0000 1.0000
v -1.5000 9.0000 2.0000
v -2.5000 9.0000 2.0000
v -2.5000 9.0000 1.0000
v -1.5000 10.0000 1.0000
v -1.5000 10.0000 2.0000
v -2.5000 10.0000 2.0000
v -2.5000 10.0000 1.0000
v 4.5000 12.0000 0.0000
v 4.5000 12.0000 -1.0000
v 4.5000 13.0000 -1.0000
v 4.5000 13.0000 0.0000
v 3.5000 12.0000 0.0000
v 3.5000 13.0000 0.0000
v 3.5000 13.0000 -1.0000
v 3.5000 12.0000 -1.0000
v 4.5000 14.0000 -1.0000
v 4.5000 14.0000 0.0000
v 3.5000 14.0000 0.0000
v 3.5000 14.0000 -1.0000
v 1.5000 18.0000 1.0000
v 0.5000 18.0000 1.0000
v 1.5000 17.0000 -2.0000
v 1.5000 18.0000 -2.0000
v 0.5000 18.0000 -2.0000
v 0.5000 17.0000 -2.0000
usemtl c5
f 1 2 3 4
f 1 5 6 2
f 2 6 7 3
f 1 4 8 5
f 4 3 9 10
f 3 7 11 9
f 4 10 12 8
f 10 9 13 14
f 9 11 15 13
f 10 14 16 12
f 14 13 17 18
f 18 17 19 20
f 13 15 19 17
f 14 18 20 16
f 5 21 22 6
f 6 22 23 7
f 5 8 24 21
f 7 23 25 11
f 8 12 26 24
f 12 16 27 26
f 20 19 28 29
f 15 30 28 19
f 16 20 29 27
f 21 31 32 22
f 22 32 33 23
f 21 24 34 31
f 23 33 35 25
f 24 26 36 34
f 26 27 37 36
f 29 28 38 39
f 30 40 38 28
f 27 29 39 37
f 41 42 43 44
f 31 41 44 32
f 32 44 43 33
f 31 34 42 41
f 42 45 46 43
f 33 43 46 35
f 34 36 45 42
f 45 47 48 46
f 35 46 48 40
f 36 37 47 45
f 47 49 50 48
f 39 38 50 49
f 40 48 50 38
f 37 39 49 47
usemtl c6
f 11 123 124 15
f 15 124 53 30
f 11 25 54 123
f 123 54 53 124
f 125 54 57 126
f 127 128 129 123
f 123 129 57 54
f 127 125 126 128
f 128 126 57 129
f 127 123 54 125
f 130 131 132 133
f 55 61 132 131
f 56 130 133 62
f 62 133 132 61
f 56 55 131 130
f 134 133 135 136
f 137 138 64 62
f 62 64 135 133
f 137 134 136 138
f 138 136 135 64
f 137 62 133 134
f 139 140 141 142
f 142 141 69 66
f 139 65 70 140
f 140 70 69 141
f 139 142 66 65
f 69 143 144 74
f 141 145 146 147
f 147 146 144 143
f 141 69 74 145
f 145 74 144 146
f 141 147 143 69
f 148 149 150 151
f 71 77 150 149
f 72 148 151 78
f 78 151 150 77
f 72 71 149 148
f 77 79 152 153
f 77 150 154 79
f 79 154 155 152
f 77 153 156 150
f 157 158 159 160
f 160 159 85 82
f 157 81 86 158
f 158 86 85 159
f 157 160 82 81
f 161 86 89 162
f 163 164 165 158
f 158 165 89 86
f 163 161 162 164
f 164 162 89 165
f 163 158 86 161
f 166 167 168 169
f 87 93 168 167
f 88 166 169 94
f 94 169 168 93
f 88 87 167 166
f 168 170 171 172
f 93 95 173 174
f 174 173 171 170
f 93 168 172 95
f 95 172 171 173
f 93 174 170 168
f 175 176 177 178
f 178 177 101 98
f 175 97 102 176
f 176 102 101 177
f 175 178 98 97
f 179 102 105 180
f 181 182 183 176
f 176 183 105 102
f 181 179 180 182
f 182 180 105 183
f 181 176 102 179
f 103 184 185 107
f 106 110 186 187
f 187 186 185 184
f 110 107 185 186
f 106 187 184 103
f 188 108 112 189
f 190 191 113 109
f 190 188 189 191
f 190 109 108 188
usemtl c7
f 192 193 194 195
f 192 196 197 193
f 193 197 198 194
f 192 195 199 196
f 200 201 202 203
f 194 198 202 201
f 195 200 203 199
f 204 205 206 207
f 196 204 207 197
f 197 207 206 198
f 196 199 205 204
f 205 208 209 206
f 203 202 209 208
f 198 206 209 202
f 199 203 208 205
f 210 211 212 213
f 210 214 215 211
f 211 215 216 212
f 210 213 217 214
f 213 212 218 219
f 219 218 220 221
f 212 216 220 218
f 213 219 221 217
f 214 195 194 215
f 215 194 201 216
f 214 217 200 195
f 200 222 223 201
f 221 220 223 222
f 216 201 223 220
f 217 221 222 200
f 201 224 225 223
f 201 202 226 224
f 224 226 227 225
f 201 223 228 202
f 223 225 229 230
f 230 229 231 232
f 225 227 231 229
f 223 230 232 228
f 209 233 234 235
f 202 209 235 226
f 226 235 234 227
f 202 228 233 209
f 233 236 237 234
f 232 231 237 236
f 227 234 237 231
f 228 232 236 233
f 238 239 240 241
f 238 153 152 239
f 239 152 242 240
f 238 241 243 153
f 241 240 244 245
f 245 244 246 247
f 240 242 246 244
f 241 245 247 243
f 152 155 248 242
f 153 243 249 156
f 249 250 251 248
f 247 246 251 250
f 243 247 250 249
f 150 252 253 154
f 154 253 254 155
f 150 156 255 252
f 249 248 256 257
f 155 254 256 248
f 156 249 257 255
f 258 259 260 261
f 252 258 261 253
f 253 261 260 254
f 252 255 259 258
f 259 262 263 260
f 257 256 263 262
f 254 260 263 256
f 255 257 262 259
f 242 264 265 246
f 242 248 266 264
f 264 266 267 265
f 246 265 268 269
f 269 268 270 271
f 265 267 270 268
f 246 269 271 251
f 256 272 273 274
f 248 256 274 266
f 266 274 273 267
f 248 251 272 256
f 272 275 276 273
f 271 270 276 275
f 267 273 276 270
f 251 271 275 272
f 277 278 279 280
f 280 279 281 282
f 277 283 284 278
f 283 282 285 286
f 286 285 287 288
f 282 281 287 285
f 283 286 288 284
f 289 290 291 292
f 278 289 292 279
f 278 284 290 289
f 290 293 294 291
f 288 287 294 293
f 284 288 293 290
f 295 296 297 298
f 295 299 300 296
f 296 300 301 297
f 295 298 302 299
f 298 297 303 304
f 304 303 305 306
f 297 301 305 303
f 298 304 306 302
f 307 277 280 308
f 299 307 308 300
f 300 308 280 301
f 299 302 277 307
f 306 305 282 283
f 301 280 282 305
f 302 306 283 277
f 279 309 310 281
f 279 292 311 309
f 309 311 312 310
f 281 310 313 287
f 287 313 314 294
f 310 312 314 313
f 315 316 317 318
f 292 315 318 311
f 311 318 317 312
f 292 291 316 315
f 316 319 320 317
f 294 314 320 319
f 312 317 320 314
f 291 294 319 316
f 321 322 323 324
f 321 325 326 322
f 322 326 327 323
f 321 324 328 325
f 324 323 329 330
f 330 329 331 332
f 323 327 331 329
f 324 330 332 328
f 333 334 335 336
f 325 333 336 326
f 326 336 335 327
f 325 328 334 333
f 327 335 337 331
f 332 331 338 339
f 339 338 340 341
f 332 339 341 342
f 343 344 345 346
f 334 343 346 335
f 335 346 345 337
f 334 342 344 343
f 344 347 348 345
f 341 340 348 347
f 337 345 348 340
f 342 341 347 344
f 329 349 350 351
f 329 331 352 349
f 349 352 353 350
f 329 351 338 331
f 351 350 354 355
f 355 354 356 357
f 350 353 356 354
f 351 355 357 338
f 337 340 358 359
f 331 337 359 352
f 352 359 358 353
f 340 360 361 358
f 357 356 361 360
f 353 358 361 356
f 338 357 360 340
usemtl c8
f 362 363 364 365
f 366 367 368 369
f 369 368 364 363
f 366 362 365 367
f 366 369 363 362
f 365 364 370 371
f 367 372 373 368
f 368 373 370 364
f 367 365 371 372
f 371 370 374 375
f 372 376 377 373
f 373 377 374 370
f 372 371 375 376
f 376 375 374 377
f 378 379 380 381
f 382 383 384 385
f 385 384 380 379
f 382 378 381 383
f 382 385 379 378
f 381 380 386 387
f 383 388 389 384
f 384 389 386 380
f 383 381 387 388
f 387 386 342 334
f 388 328 332 389
f 389 332 342 386
f 388 387 334 328
usemtl c9
f 189 112 116 390
f 191 391 117 113
f 191 189 390 391
f 391 390 116 117
f 111 392 393 115
f 114 118 394 395
f 395 394 393 392
f 118 115 393 394
f 114 395 392 111
usemtl c10
f 35 40 51 52
f 30 53 51 40
f 25 35 52 54
f 52 51 55 56
f 54 57 58 53
f 53 58 55 51
f 54 52 56 57
f 57 59 60 58
f 58 60 61 55
f 57 56 62 59
f 62 61 63 64
f 59 65 66 60
f 60 66 63 61
f 59 62 64 65
f 64 63 67 68
f 66 69 67 63
f 65 64 68 70
f 68 67 71 72
f 70 73 74 69
f 69 74 71 67
f 70 68 72 73
f 73 75 76 74
f 74 76 77 71
f 73 72 78 75
f 78 77 79 80
f 75 81 82 76
f 76 82 79 77
f 75 78 80 81
f 80 79 83 84
f 82 85 83 79
f 81 80 84 86
f 84 83 87 88
f 86 89 90 85
f 85 90 87 83
f 86 84 88 89
f 89 91 92 90
f 90 92 93 87
f 89 88 94 91
f 94 93 95 96
f 91 97 98 92
f 92 98 95 93
f 91 94 96 97
f 96 95 99 100
f 98 101 99 95
f 97 96 100 102
f 100 99 103 104
f 102 105 106 101
f 101 106 103 99
f 102 100 104 105
f 104 103 107 108
f 105 109 110 106
f 105 104 108 109
f 108 107 111 112
f 109 113 114 110
f 110 114 111 107
f 112 111 115 116
f 113 117 118 114
f 116 115 119 120
f 117 121 122 118
f 118 122 119 115
f 117 116 120 121
f 121 120 119 122
