# generado por tools/vox_to_obj.py desde cerco_cultivo.vox
mtllib cerco_cultivo.mtl
v -6.0000 0.0000 1.0000
v -6.0000 1.0000 1.0000
v -6.0000 1.0000 0.0000
v -6.0000 0.0000 0.0000
v -5.0000 0.0000 1.0000
v -5.0000 1.0000 1.0000
v -5.0000 0.0000 0.0000
v -6.0000 1.0000 -1.0000
v -6.0000 0.0000 -1.0000
v -5.0000 1.0000 -1.0000
v -5.0000 0.0000 -1.0000
v -4.0000 0.0000 1.0000
v -4.0000 1.0000 1.0000
v -4.0000 0.0000 0.0000
v -4.0000 1.0000 -1.0000
v -4.0000 0.0000 -1.0000
v -3.0000 0.0000 1.0000
v -3.0000 1.0000 1.0000
v -3.0000 1.0000 0.0000
v -4.0000 1.0000 0.0000
v -3.0000 0.0000 0.0000
v -3.0000 1.0000 -1.0000
v -3.0000 0.0000 -1.0000
v -2.0000 0.0000 1.0000
v -2.0000 1.0000 1.0000
v -2.0000 1.0000 0.0000
v -2.0000 0.0000 0.0000
v -2.0000 1.0000 -1.0000
v -2.0000 0.0000 -1.0000
v -1.0000 0.0000 1.0000
v -1.0000 1.0000 1.0000
v -1.0000 1.0000 0.0000
v -1.0000 0.0000 0.0000
v -1.0000 1.0000 -1.0000
v -1.0000 0.0000 -1.0000
v 0.0000 0.0000 1.0000
v 0.0000 1.0000 1.0000
v 0.0000 0.0000 0.0000
v 0.0000 1.0000 -1.0000
v 0.0000 0.0000 -1.0000
v 1.0000 0.0000 1.0000
v 1.0000 1.0000 1.0000
v 1.0000 0.0000 0.0000
v 1.0000 1.0000 -1.0000
v 1.0000 0.0000 -1.0000
v 2.0000 0.0000 1.0000
v 2.0000 1.0000 1.0000
v 2.0000 1.0000 0.0000
v 1.0000 1.0000 0.0000
v 2.0000 0.0000 0.0000
v 2.0000 1.0000 -1.0000
v 2.0000 0.0000 -1.0000
v 3.0000 0.0000 1.0000
v 3.0000 1.0000 1.0000
v 3.0000 1.0000 0.0000
v 3.0000 0.0000 0.0000
v 3.0000 1.0000 -1.0000
v 3.0000 0.0000 -1.0000
v 4.0000 0.0000 1.0000
v 4.0000 1.0000 1.0000
v 4.0000 1.0000 0.0000
v 4.0000 0.0000 0.0000
v 4.0000 1.0000 -1.0000
v 4.0000 0.0000 -1.0000
v 5.0000 0.0000 1.0000
v 5.0000 1.0000 1.0000
v 5.0000 0.0000 0.0000
v 5.0000 1.0000 -1.0000
v 5.0000 0.0000 -1.0000
v 6.0000 0.0000 1.0000
v 6.0000 0.0000 0.0000
v 6.0000 1.0000 0.0000
v 6.0000 1.0000 1.0000
v 6.0000 0.0000 -1.0000
v 6.0000 1.0000 -1.0000
v -6.0000 3.0000 1.0000
v -6.0000 4.0000 1.0000
v -6.0000 4.0000 0.0000
v -6.0000 3.0000 0.0000
v -5.0000 3.0000 1.0000
v -5.0000 4.0000 1.0000
v -5.0000 4.0000 0.0000
v -6.0000 4.0000 -1.0000
v -6.0000 3.0000 -1.0000
v -5.0000 4.0000 -1.0000
v -5.0000 3.0000 -1.0000
v -4.0000 3.0000 1.0000
v -4.0000 4.0000 1.0000
v -4.0000 4.0000 0.0000
v -4.0000 4.0000 -1.0000
v -4.0000 3.0000 -1.0000
v -3.0000 3.0000 1.0000
v -3.0000 4.0000 1.0000
v -3.0000 4.0000 0.0000
v -4.0000 3.0000 0.0000
v -3.0000 3.0000 0.0000
v -3.0000 4.0000 -1.0000
v -3.0000 3.0000 -1.0000
v -2.0000 3.0000 1.0000
v -2.0000 4.0000 1.0000
v -2.0000 4.0000 0.0000
v -2.0000 3.0000 0.0000
v -2.0000 4.0000 -1.0000
v -2.0000 3.0000 -1.0000
v -1.0000 3.0000 1.0000
v -1.0000 4.0000 1.0000
v -1.0000 4.0000 0.0000
v -1.0000 3.0000 0.0000
v -1.0000 4.0000 -1.0000
v -1.0000 3.0000 -1.0000
v 0.0000 3.0000 1.0000
v 0.0000 4.0000 1.0000
v 0.0000 4.0000 0.0000
v 0.0000 4.0000 -1.0000
v 0.0000 3.0000 -1.0000
v 1.0000 3.0000 1.0000
v 1.0000 4.0000 1.0000
v 1.0000 4.0000 0.0000
v 1.0000 4.0000 -1.0000
v 1.0000 3.0000 -1.0000
v 2.0000 3.0000 1.0000
v 2.0000 4.0000 1.0000
v 2.0000 4.0000 0.0000
v 1.0000 3.0000 0.0000
v 2.0000 3.0000 0.0000
v 2.0000 4.0000 -1.0000
v 2.0000 3.0000 -1.0000
v 3.0000 3.0000 1.0000
v 3.0000 4.0000 1.0000
v 3.0000 4.0000 0.0000
v 3.0000 3.0000 0.0000
v 3.0000 4.0000 -1.0000
v 3.0000 3.0000 -1.0000
v 4.0000 3.0000 1.0000
v 4.0000 4.0000 1.0000
v 4.0000 4.0000 0.0000
v 4.0000 3.0000 0.0000
v 4.0000 4.0000 -1.0000
v 4.0000 3.0000 -1.0000
v 5.0000 3.0000 1.0000
v 5.0000 4.0000 1.0000
v 5.0000 4.0000 0.0000
v 5.0000 4.0000 -1.0000
v 5.0000 3.0000 -1.0000
v 6.0000 3.0000 1.0000
v 6.0000 3.0000 0.0000
v 6.0000 4.0000 0.0000
v 6.0000 4.0000 1.0000
v 6.0000 3.0000 -1.0000
v 6.0000 4.0000 -1.0000
v -6.0000 2.0000 1.0000
v -6.0000 2.0000 0.0000
v -5.0000 2.0000 1.0000
v -6.0000 2.0000 -1.0000
v -5.0000 2.0000 -1.0000
v -4.0000 2.0000 0.0000
v -4.0000 2.0000 1.0000
v -4.0000 2.0000 -1.0000
v -1.0000 2.0000 1.0000
v -1.0000 2.0000 0.0000
v 0.0000 2.0000 1.0000
v -1.0000 2.0000 -1.0000
v 0.0000 2.0000 -1.0000
v 1.0000 2.0000 0.0000
v 1.0000 2.0000 1.0000
v 1.0000 2.0000 -1.0000
v 4.0000 2.0000 1.0000
v 4.0000 2.0000 0.0000
v 5.0000 2.0000 1.0000
v 4.0000 2.0000 -1.0000
v 5.0000 2.0000 -1.0000
v 6.0000 2.0000 0.0000
v 6.0000 2.0000 1.0000
v 6.0000 2.0000 -1.0000
usemtl c1
f 1 2 3 4
f 1 5 6 2
f 1 4 7 5
f 4 3 8 9
f 9 8 10 11
f 4 9 11 7
f 5 12 13 6
f 5 7 14 12
f 11 10 15 16
f 7 11 16 14
f 12 17 18 13
f 13 18 19 20
f 12 14 21 17
f 16 15 22 23
f 20 19 22 15
f 14 16 23 21
f 17 24 25 18
f 18 25 26 19
f 17 21 27 24
f 23 22 28 29
f 19 26 28 22
f 21 23 29 27
f 24 30 31 25
f 25 31 32 26
f 24 27 33 30
f 29 28 34 35
f 26 32 34 28
f 27 29 35 33
f 30 36 37 31
f 30 33 38 36
f 35 34 39 40
f 33 35 40 38
f 36 41 42 37
f 36 38 43 41
f 40 39 44 45
f 38 40 45 43
f 41 46 47 42
f 42 47 48 49
f 41 43 50 46
f 45 44 51 52
f 49 48 51 44
f 43 45 52 50
f 46 53 54 47
f 47 54 55 48
f 46 50 56 53
f 52 51 57 58
f 48 55 57 51
f 50 52 58 56
f 53 59 60 54
f 54 60 61 55
f 53 56 62 59
f 58 57 63 64
f 55 61 63 57
f 56 58 64 62
f 59 65 66 60
f 59 62 67 65
f 64 63 68 69
f 62 64 69 67
f 70 71 72 73
f 65 70 73 66
f 65 67 71 70
f 71 74 75 72
f 69 68 75 74
f 67 69 74 71
f 76 77 78 79
f 76 80 81 77
f 77 81 82 78
f 79 78 83 84
f 84 83 85 86
f 78 82 85 83
f 80 87 88 81
f 81 88 89 82
f 86 85 90 91
f 82 89 90 85
f 87 92 93 88
f 88 93 94 89
f 87 95 96 92
f 91 90 97 98
f 89 94 97 90
f 95 91 98 96
f 92 99 100 93
f 93 100 101 94
f 92 96 102 99
f 98 97 103 104
f 94 101 103 97
f 96 98 104 102
f 99 105 106 100
f 100 106 107 101
f 99 102 108 105
f 104 103 109 110
f 101 107 109 103
f 102 104 110 108
f 105 111 112 106
f 106 112 113 107
f 110 109 114 115
f 107 113 114 109
f 111 116 117 112
f 112 117 118 113
f 115 114 119 120
f 113 118 119 114
f 116 121 122 117
f 117 122 123 118
f 116 124 125 121
f 120 119 126 127
f 118 123 126 119
f 124 120 127 125
f 121 128 129 122
f 122 129 130 123
f 121 125 131 128
f 127 126 132 133
f 123 130 132 126
f 125 127 133 131
f 128 134 135 129
f 129 135 136 130
f 128 131 137 134
f 133 132 138 139
f 130 136 138 132
f 131 133 139 137
f 134 140 141 135
f 135 141 142 136
f 139 138 143 144
f 136 142 143 138
f 145 146 147 148
f 140 145 148 141
f 141 148 147 142
f 146 149 150 147
f 144 143 150 149
f 142 147 150 143
f 2 151 152 3
f 2 6 153 151
f 151 76 79 152
f 151 153 80 76
f 3 152 154 8
f 8 154 155 10
f 152 79 84 154
f 154 84 86 155
f 13 20 156 157
f 6 13 157 153
f 157 156 95 87
f 153 157 87 80
f 20 15 158 156
f 10 155 158 15
f 156 158 91 95
f 155 86 91 158
f 31 159 160 32
f 31 37 161 159
f 159 105 108 160
f 159 161 111 105
f 32 160 162 34
f 34 162 163 39
f 160 108 110 162
f 162 110 115 163
f 42 49 164 165
f 37 42 165 161
f 165 164 124 116
f 161 165 116 111
f 49 44 166 164
f 39 163 166 44
f 164 166 120 124
f 163 115 120 166
f 60 167 168 61
f 60 66 169 167
f 167 134 137 168
f 167 169 140 134
f 61 168 170 63
f 63 170 171 68
f 168 137 139 170
f 170 139 144 171
f 73 72 172 173
f 66 73 173 169
f 173 172 146 145
f 169 173 145 140
f 72 75 174 172
f 68 171 174 75
f 172 174 149 146
f 171 144 149 174
