# generado por tools/vox_to_obj.py desde cerca.vox
mtllib cerca.mtl
v -8.0000 0.0000 1.0000
v -8.0000 1.0000 1.0000
v -8.0000 1.0000 0.0000
v -8.0000 0.0000 0.0000
v -7.0000 0.0000 1.0000
v -7.0000 1.0000 1.0000
v -7.0000 0.0000 0.0000
v -8.0000 2.0000 1.0000
v -8.0000 2.0000 0.0000
v -7.0000 2.0000 1.0000
v -8.0000 3.0000 1.0000
v -8.0000 3.0000 0.0000
v -7.0000 3.0000 1.0000
v -8.0000 4.0000 1.0000
v -8.0000 4.0000 0.0000
v -7.0000 4.0000 1.0000
v -8.0000 5.0000 1.0000
v -8.0000 5.0000 0.0000
v -7.0000 5.0000 1.0000
v -8.0000 6.0000 1.0000
v -8.0000 6.0000 0.0000
v -7.0000 6.0000 1.0000
v -8.0000 7.0000 1.0000
v -8.0000 7.0000 0.0000
v -7.0000 7.0000 1.0000
v -8.0000 8.0000 1.0000
v -8.0000 8.0000 0.0000
v -7.0000 8.0000 1.0000
v -8.0000 9.0000 1.0000
v -8.0000 9.0000 0.0000
v -7.0000 9.0000 1.0000
v -8.0000 10.0000 1.0000
v -8.0000 10.0000 0.0000
v -7.0000 10.0000 1.0000
v -8.0000 11.0000 1.0000
v -8.0000 11.0000 0.0000
v -7.0000 11.0000 1.0000
v -8.0000 12.0000 1.0000
v -8.0000 12.0000 0.0000
v -7.0000 12.0000 1.0000
v -7.0000 12.0000 0.0000
v -8.0000 1.0000 -1.0000
v -8.0000 0.0000 -1.0000
v -7.0000 1.0000 -1.0000
v -7.0000 0.0000 -1.0000
v -8.0000 2.0000 -1.0000
v -7.0000 2.0000 -1.0000
v -8.0000 3.0000 -1.0000
v -7.0000 3.0000 -1.0000
v -8.0000 4.0000 -1.0000
v -7.0000 4.0000 -1.0000
v -8.0000 5.0000 -1.0000
v -7.0000 5.0000 -1.0000
v -8.0000 6.0000 -1.0000
v -7.0000 6.0000 -1.0000
v -8.0000 7.0000 -1.0000
v -7.0000 7.0000 -1.0000
v -8.0000 8.0000 -1.0000
v -7.0000 8.0000 -1.0000
v -8.0000 9.0000 -1.0000
v -7.0000 9.0000 -1.0000
v -8.0000 10.0000 -1.0000
v -7.0000 10.0000 -1.0000
v -8.0000 11.0000 -1.0000
v -7.0000 11.0000 -1.0000
v -8.0000 12.0000 -1.0000
v -7.0000 12.0000 -1.0000
v -6.0000 0.0000 1.0000
v -6.0000 0.0000 0.0000
v -6.0000 1.0000 0.0000
v -6.0000 1.0000 1.0000
v -6.0000 2.0000 0.0000
v -6.0000 2.0000 1.0000
v -6.0000 3.0000 0.0000
v -6.0000 3.0000 1.0000
v -6.0000 4.0000 1.0000
v -6.0000 5.0000 1.0000
v -6.0000 5.0000 0.0000
v -6.0000 6.0000 0.0000
v -6.0000 6.0000 1.0000
v -6.0000 7.0000 0.0000
v -6.0000 7.0000 1.0000
v -6.0000 8.0000 0.0000
v -6.0000 8.0000 1.0000
v -6.0000 9.0000 1.0000
v -6.0000 10.0000 1.0000
v -6.0000 10.0000 0.0000
v -6.0000 11.0000 0.0000
v -6.0000 11.0000 1.0000
v -6.0000 12.0000 0.0000
v -6.0000 12.0000 1.0000
v -6.0000 0.0000 -1.0000
v -6.0000 1.0000 -1.0000
v -6.0000 2.0000 -1.0000
v -6.0000 3.0000 -1.0000
v -6.0000 4.0000 -1.0000
v -6.0000 4.0000 0.0000
v -6.0000 5.0000 -1.0000
v -6.0000 6.0000 -1.0000
v -6.0000 7.0000 -1.0000
v -6.0000 8.0000 -1.0000
v -6.0000 9.0000 -1.0000
v -6.0000 9.0000 0.0000
v -6.0000 10.0000 -1.0000
v -6.0000 11.0000 -1.0000
v -6.0000 12.0000 -1.0000
v 6.0000 0.0000 1.0000
v 6.0000 1.0000 1.0000
v 6.0000 1.0000 0.0000
v 6.0000 0.0000 0.0000
v 7.0000 0.0000 1.0000
v 7.0000 1.0000 1.0000
v 7.0000 0.0000 0.0000
v 6.0000 2.0000 1.0000
v 6.0000 2.0000 0.0000
v 7.0000 2.0000 1.0000
v 6.0000 3.0000 1.0000
v 6.0000 3.0000 0.0000
v 7.0000 3.0000 1.0000
v 7.0000 4.0000 1.0000
v 6.0000 4.0000 1.0000
v 7.0000 5.0000 1.0000
v 6.0000 5.0000 1.0000
v 6.0000 6.0000 1.0000
v 6.0000 6.0000 0.0000
v 6.0000 5.0000 0.0000
v 7.0000 6.0000 1.0000
v 6.0000 7.0000 1.0000
v 6.0000 7.0000 0.0000
v 7.0000 7.0000 1.0000
v 6.0000 8.0000 1.0000
v 6.0000 8.0000 0.0000
v 7.0000 8.0000 1.0000
v 7.0000 9.0000 1.0000
v 6.0000 9.0000 1.0000
v 7.0000 10.0000 1.0000
v 6.0000 10.0000 1.0000
v 6.0000 11.0000 1.0000
v 6.0000 11.0000 0.0000
v 6.0000 10.0000 0.0000
v 7.0000 11.0000 1.0000
v 6.0000 12.0000 1.0000
v 6.0000 12.0000 0.0000
v 7.0000 12.0000 1.0000
v 7.0000 12.0000 0.0000
v 6.0000 1.0000 -1.0000
v 6.0000 0.0000 -1.0000
v 7.0000 1.0000 -1.0000
v 7.0000 0.0000 -1.0000
v 6.0000 2.0000 -1.0000
v 7.0000 2.0000 -1.0000
v 6.0000 3.0000 -1.0000
v 7.0000 3.0000 -1.0000
v 6.0000 4.0000 0.0000
v 6.0000 4.0000 -1.0000
v 7.0000 4.0000 -1.0000
v 6.0000 5.0000 -1.0000
v 7.0000 5.0000 -1.0000
v 6.0000 6.0000 -1.0000
v 7.0000 6.0000 -1.0000
v 6.0000 7.0000 -1.0000
v 7.0000 7.0000 -1.0000
v 6.0000 8.0000 -1.0000
v 7.0000 8.0000 -1.0000
v 6.0000 9.0000 0.0000
v 6.0000 9.0000 -1.0000
v 7.0000 9.0000 -1.0000
v 6.0000 10.0000 -1.0000
v 7.0000 10.0000 -1.0000
v 6.0000 11.0000 -1.0000
v 7.0000 11.0000 -1.0000
v 6.0000 12.0000 -1.0000
v 7.0000 12.0000 -1.0000
v 8.0000 0.0000 1.0000
v 8.0000 0.0000 0.0000
v 8.0000 1.0000 0.0000
v 8.0000 1.0000 1.0000
v 8.0000 2.0000 0.0000
v 8.0000 2.0000 1.0000
v 8.0000 3.0000 0.0000
v 8.0000 3.0000 1.0000
v 8.0000 4.0000 0.0000
v 8.0000 4.0000 1.0000
v 8.0000 5.0000 0.0000
v 8.0000 5.0000 1.0000
v 8.0000 6.0000 0.0000
v 8.0000 6.0000 1.0000
v 8.0000 7.0000 0.0000
v 8.0000 7.0000 1.0000
v 8.0000 8.0000 0.0000
v 8.0000 8.0000 1.0000
v 8.0000 9.0000 0.0000
v 8.0000 9.0000 1.0000
v 8.0000 10.0000 0.0000
v 8.0000 10.0000 1.0000
v 8.0000 11.0000 0.0000
v 8.0000 11.0000 1.0000
v 8.0000 12.0000 0.0000
v 8.0000 12.0000 1.0000
v 8.0000 0.0000 -1.0000
v 8.0000 1.0000 -1.0000
v 8.0000 2.0000 -1.0000
v 8.0000 3.0000 -1.0000
v 8.0000 4.0000 -1.0000
v 8.0000 5.0000 -1.0000
v 8.0000 6.0000 -1.0000
v 8.0000 7.0000 -1.0000
v 8.0000 8.0000 -1.0000
v 8.0000 9.0000 -1.0000
v 8.0000 10.0000 -1.0000
v 8.0000 11.0000 -1.0000
v 8.0000 12.0000 -1.0000
v -5.0000 4.0000 0.0000
v -5.0000 3.0000 0.0000
v -5.0000 3.0000 1.0000
v -5.0000 4.0000 1.0000
v -5.0000 5.0000 0.0000
v -5.0000 5.0000 1.0000
v -4.0000 4.0000 0.0000
v -4.0000 3.0000 0.0000
v -4.0000 3.0000 1.0000
v -4.0000 4.0000 1.0000
v -4.0000 5.0000 0.0000
v -4.0000 5.0000 1.0000
v -3.0000 4.0000 0.0000
v -3.0000 3.0000 0.0000
v -3.0000 3.0000 1.0000
v -3.0000 4.0000 1.0000
v -3.0000 5.0000 0.0000
v -3.0000 5.0000 1.0000
v -2.0000 4.0000 0.0000
v -2.0000 3.0000 0.0000
v -2.0000 3.0000 1.0000
v -2.0000 4.0000 1.0000
v -2.0000 5.0000 0.0000
v -2.0000 5.0000 1.0000
v -1.0000 4.0000 0.0000
v -1.0000 3.0000 0.0000
v -1.0000 3.0000 1.0000
v -1.0000 4.0000 1.0000
v -1.0000 5.0000 0.0000
v -1.0000 5.0000 1.0000
v 0.0000 4.0000 0.0000
v 0.0000 3.0000 0.0000
v 0.0000 3.0000 1.0000
v 0.0000 4.0000 1.0000
v 0.0000 5.0000 0.0000
v 0.0000 5.0000 1.0000
v 1.0000 4.0000 0.0000
v 1.0000 3.0000 0.0000
v 1.0000 3.0000 1.0000
v 1.0000 4.0000 1.0000
v 1.0000 5.0000 0.0000
v 1.0000 5.0000 1.0000
v 2.0000 4.0000 0.0000
v 2.0000 3.0000 0.0000
v 2.0000 3.0000 1.0000
v 2.0000 4.0000 1.0000
v 2.0000 5.0000 0.0000
v 2.0000 5.0000 1.0000
v 3.0000 4.0000 0.0000
v 3.0000 3.0000 0.0000
v 3.0000 3.0000 1.0000
v 3.0000 4.0000 1.0000
v 3.0000 5.0000 0.0000
v 3.0000 5.0000 1.0000
v 4.0000 4.0000 0.0000
v 4.0000 3.0000 0.0000
v 4.0000 3.0000 1.0000
v 4.0000 4.0000 1.0000
v 4.0000 5.0000 0.0000
v 4.0000 5.0000 1.0000
v 5.0000 4.0000 0.0000
v 5.0000 3.0000 0.0000
v 5.0000 3.0000 1.0000
v 5.0000 4.0000 1.0000
v 5.0000 5.0000 0.0000
v 5.0000 5.0000 1.0000
v -5.0000 9.0000 0.0000
v -5.0000 8.0000 0.0000
v -5.0000 8.0000 1.0000
v -5.0000 9.0000 1.0000
v -5.0000 10.0000 0.0000
v -5.0000 10.0000 1.0000
v -4.0000 9.0000 0.0000
v -4.0000 8.0000 0.0000
v -4.0000 8.0000 1.0000
v -4.0000 9.0000 1.0000
v -4.0000 10.0000 0.0000
v -4.0000 10.0000 1.0000
v -3.0000 9.0000 0.0000
v -3.0000 8.0000 0.0000
v -3.0000 8.0000 1.0000
v -3.0000 9.0000 1.0000
v -3.0000 10.0000 0.0000
v -3.0000 10.0000 1.0000
v -2.0000 9.0000 0.0000
v -2.0000 8.0000 0.0000
v -2.0000 8.0000 1.0000
v -2.0000 9.0000 1.0000
v -2.0000 10.0000 0.0000
v -2.0000 10.0000 1.0000
v -1.0000 9.0000 0.0000
v -1.0000 8.0000 0.0000
v -1.0000 8.0000 1.0000
v -1.0000 9.0000 1.0000
v -1.0000 10.0000 0.0000
v -1.0000 10.0000 1.0000
v 0.0000 9.0000 0.0000
v 0.0000 8.0000 0.0000
v 0.0000 8.0000 1.0000
v 0.0000 9.0000 1.0000
v 0.0000 10.0000 0.0000
v 0.0000 10.0000 1.0000
v 1.0000 9.0000 0.0000
v 1.0000 8.0000 0.0000
v 1.0000 8.0000 1.0000
v 1.0000 9.0000 1.0000
v 1.0000 10.0000 0.0000
v 1.0000 10.0000 1.0000
v 2.0000 9.0000 0.0000
v 2.0000 8.0000 0.0000
v 2.0000 8.0000 1.0000
v 2.0000 9.0000 1.0000
v 2.0000 10.0000 0.0000
v 2.0000 10.0000 1.0000
v 3.0000 9.0000 0.0000
v 3.0000 8.0000 0.0000
v 3.0000 8.0000 1.0000
v 3.0000 9.0000 1.0000
v 3.0000 10.0000 0.0000
v 3.0000 10.0000 1.0000
v 4.0000 9.0000 0.0000
v 4.0000 8.0000 0.0000
v 4.0000 8.0000 1.0000
v 4.0000 9.0000 1.0000
v 4.0000 10.0000 0.0000
v 4.0000 10.0000 1.0000
v 5.0000 9.0000 0.0000
v 5.0000 8.0000 0.0000
v 5.0000 8.0000 1.0000
v 5.0000 9.0000 1.0000
v 5.0000 10.0000 0.0000
v 5.0000 10.0000 1.0000
usemtl c19
f 11 14 15 12
f 11 13 16 14
f 14 17 18 15
f 14 16 19 17
f 26 29 30 27
f 26 28 31 29
f 29 32 33 30
f 29 31 34 32
f 13 75 76 16
f 16 76 77 19
f 28 84 85 31
f 31 85 86 34
f 117 119 120 121
f 121 120 122 123
f 131 133 134 135
f 135 134 136 137
f 181 180 182 183
f 119 181 183 120
f 183 182 184 185
f 120 183 185 122
f 191 190 192 193
f 133 191 193 134
f 193 192 194 195
f 134 193 195 136
f 74 97 213 214
f 75 215 216 76
f 75 74 214 215
f 97 78 217 213
f 76 216 218 77
f 77 218 217 78
f 214 213 219 220
f 215 221 222 216
f 215 214 220 221
f 213 217 223 219
f 216 222 224 218
f 218 224 223 217
f 220 219 225 226
f 221 227 228 222
f 221 220 226 227
f 219 223 229 225
f 222 228 230 224
f 224 230 229 223
f 226 225 231 232
f 227 233 234 228
f 227 226 232 233
f 225 229 235 231
f 228 234 236 230
f 230 236 235 229
f 232 231 237 238
f 233 239 240 234
f 233 232 238 239
f 231 235 241 237
f 234 240 242 236
f 236 242 241 235
f 238 237 243 244
f 239 245 246 240
f 239 238 244 245
f 237 241 247 243
f 240 246 248 242
f 242 248 247 241
f 244 243 249 250
f 245 251 252 246
f 245 244 250 251
f 243 247 253 249
f 246 252 254 248
f 248 254 253 247
f 250 249 255 256
f 251 257 258 252
f 251 250 256 257
f 249 253 259 255
f 252 258 260 254
f 254 260 259 253
f 256 255 261 262
f 257 263 264 258
f 257 256 262 263
f 255 259 265 261
f 258 264 266 260
f 260 266 265 259
f 262 261 267 268
f 263 269 270 264
f 263 262 268 269
f 261 265 271 267
f 264 270 272 266
f 266 272 271 265
f 268 267 273 274
f 269 275 276 270
f 269 268 274 275
f 267 271 277 273
f 270 276 278 272
f 272 278 277 271
f 274 273 154 118
f 275 117 121 276
f 275 274 118 117
f 273 277 126 154
f 276 121 123 278
f 278 123 126 277
f 83 103 279 280
f 84 281 282 85
f 84 83 280 281
f 103 87 283 279
f 85 282 284 86
f 86 284 283 87
f 280 279 285 286
f 281 287 288 282
f 281 280 286 287
f 279 283 289 285
f 282 288 290 284
f 284 290 289 283
f 286 285 291 292
f 287 293 294 288
f 287 286 292 293
f 285 289 295 291
f 288 294 296 290
f 290 296 295 289
f 292 291 297 298
f 293 299 300 294
f 293 292 298 299
f 291 295 301 297
f 294 300 302 296
f 296 302 301 295
f 298 297 303 304
f 299 305 306 300
f 299 298 304 305
f 297 301 307 303
f 300 306 308 302
f 302 308 307 301
f 304 303 309 310
f 305 311 312 306
f 305 304 310 311
f 303 307 313 309
f 306 312 314 308
f 308 314 313 307
f 310 309 315 316
f 311 317 318 312
f 311 310 316 317
f 309 313 319 315
f 312 318 320 314
f 314 320 319 313
f 316 315 321 322
f 317 323 324 318
f 317 316 322 323
f 315 319 325 321
f 318 324 326 320
f 320 326 325 319
f 322 321 327 328
f 323 329 330 324
f 323 322 328 329
f 321 325 331 327
f 324 330 332 326
f 326 332 331 325
f 328 327 333 334
f 329 335 336 330
f 329 328 334 335
f 327 331 337 333
f 330 336 338 332
f 332 338 337 331
f 334 333 339 340
f 335 341 342 336
f 335 334 340 341
f 333 337 343 339
f 336 342 344 338
f 338 344 343 337
f 340 339 165 132
f 341 131 135 342
f 341 340 132 131
f 339 343 140 165
f 342 135 137 344
f 344 137 140 343
usemtl c20
f 1 2 3 4
f 1 5 6 2
f 1 4 7 5
f 2 8 9 3
f 2 6 10 8
f 8 11 12 9
f 8 10 13 11
f 17 20 21 18
f 17 19 22 20
f 20 23 24 21
f 20 22 25 23
f 23 26 27 24
f 23 25 28 26
f 32 35 36 33
f 32 34 37 35
f 35 38 39 36
f 35 37 40 38
f 38 40 41 39
f 4 3 42 43
f 43 42 44 45
f 4 43 45 7
f 3 9 46 42
f 42 46 47 44
f 9 12 48 46
f 46 48 49 47
f 12 15 50 48
f 48 50 51 49
f 15 18 52 50
f 50 52 53 51
f 18 21 54 52
f 52 54 55 53
f 21 24 56 54
f 54 56 57 55
f 24 27 58 56
f 56 58 59 57
f 27 30 60 58
f 58 60 61 59
f 30 33 62 60
f 60 62 63 61
f 33 36 64 62
f 62 64 65 63
f 36 39 66 64
f 64 66 67 65
f 39 41 67 66
f 68 69 70 71
f 5 68 71 6
f 5 7 69 68
f 71 70 72 73
f 6 71 73 10
f 73 72 74 75
f 10 73 75 13
f 77 78 79 80
f 19 77 80 22
f 80 79 81 82
f 22 80 82 25
f 82 81 83 84
f 25 82 84 28
f 86 87 88 89
f 34 86 89 37
f 89 88 90 91
f 37 89 91 40
f 40 91 90 41
f 69 92 93 70
f 45 44 93 92
f 7 45 92 69
f 70 93 94 72
f 44 47 94 93
f 72 94 95 74
f 47 49 95 94
f 74 95 96 97
f 49 51 96 95
f 97 96 98 78
f 51 53 98 96
f 78 98 99 79
f 53 55 99 98
f 79 99 100 81
f 55 57 100 99
f 81 100 101 83
f 57 59 101 100
f 83 101 102 103
f 59 61 102 101
f 103 102 104 87
f 61 63 104 102
f 87 104 105 88
f 63 65 105 104
f 88 105 106 90
f 65 67 106 105
f 41 90 106 67
f 107 108 109 110
f 107 111 112 108
f 107 110 113 111
f 108 114 115 109
f 108 112 116 114
f 114 117 118 115
f 114 116 119 117
f 123 124 125 126
f 123 122 127 124
f 124 128 129 125
f 124 127 130 128
f 128 131 132 129
f 128 130 133 131
f 137 138 139 140
f 137 136 141 138
f 138 142 143 139
f 138 141 144 142
f 142 144 145 143
f 110 109 146 147
f 147 146 148 149
f 110 147 149 113
f 109 115 150 146
f 146 150 151 148
f 115 118 152 150
f 150 152 153 151
f 118 154 155 152
f 152 155 156 153
f 154 126 157 155
f 155 157 158 156
f 126 125 159 157
f 157 159 160 158
f 125 129 161 159
f 159 161 162 160
f 129 132 163 161
f 161 163 164 162
f 132 165 166 163
f 163 166 167 164
f 165 140 168 166
f 166 168 169 167
f 140 139 170 168
f 168 170 171 169
f 139 143 172 170
f 170 172 173 171
f 143 145 173 172
f 174 175 176 177
f 111 174 177 112
f 111 113 175 174
f 177 176 178 179
f 112 177 179 116
f 179 178 180 181
f 116 179 181 119
f 185 184 186 187
f 122 185 187 127
f 187 186 188 189
f 127 187 189 130
f 189 188 190 191
f 130 189 191 133
f 195 194 196 197
f 136 195 197 141
f 197 196 198 199
f 141 197 199 144
f 144 199 198 145
f 175 200 201 176
f 149 148 201 200
f 113 149 200 175
f 176 201 202 178
f 148 151 202 201
f 178 202 203 180
f 151 153 203 202
f 180 203 204 182
f 153 156 204 203
f 182 204 205 184
f 156 158 205 204
f 184 205 206 186
f 158 160 206 205
f 186 206 207 188
f 160 162 207 206
f 188 207 208 190
f 162 164 208 207
f 190 208 209 192
f 164 167 209 208
f 192 209 210 194
f 167 169 210 209
f 194 210 211 196
f 169 171 211 210
f 196 211 212 198
f 171 173 212 211
f 145 198 212 173
