# generado por tools/vox_to_obj.py desde gallo.vox
mtllib gallo.mtl
v -3.5000 4.0000 3.0000
v -3.5000 5.0000 3.0000
v -3.5000 5.0000 2.0000
v -3.5000 4.0000 2.0000
v -2.5000 4.0000 3.0000
v -2.5000 5.0000 3.0000
v -2.5000 4.0000 2.0000
v -3.5000 6.0000 3.0000
v -3.5000 6.0000 2.0000
v -2.5000 6.0000 3.0000
v -3.5000 7.0000 3.0000
v -3.5000 7.0000 2.0000
v -2.5000 7.0000 3.0000
v -3.5000 8.0000 3.0000
v -3.5000 8.0000 2.0000
v -2.5000 8.0000 3.0000
v -3.5000 9.0000 3.0000
v -3.5000 9.0000 2.0000
v -2.5000 9.0000 3.0000
v -3.5000 10.0000 3.0000
v -3.5000 10.0000 2.0000
v -2.5000 10.0000 3.0000
v -3.5000 11.0000 3.0000
v -3.5000 11.0000 2.0000
v -2.5000 11.0000 3.0000
v -2.5000 11.0000 2.0000
v -3.5000 5.0000 1.0000
v -3.5000 4.0000 1.0000
v -2.5000 4.0000 1.0000
v -3.5000 6.0000 1.0000
v -3.5000 7.0000 1.0000
v -3.5000 8.0000 1.0000
v -3.5000 5.0000 0.0000
v -3.5000 4.0000 0.0000
v -2.5000 4.0000 0.0000
v -3.5000 6.0000 0.0000
v -3.5000 7.0000 0.0000
v -3.5000 8.0000 0.0000
v -3.5000 5.0000 -1.0000
v -3.5000 4.0000 -1.0000
v -2.5000 4.0000 -1.0000
v -3.5000 6.0000 -1.0000
v -3.5000 7.0000 -1.0000
v -3.5000 8.0000 -1.0000
v -3.5000 5.0000 -2.0000
v -3.5000 4.0000 -2.0000
v -2.5000 4.0000 -2.0000
v -3.5000 6.0000 -2.0000
v -3.5000 7.0000 -2.0000
v -3.5000 8.0000 -2.0000
v -3.5000 5.0000 -3.0000
v -3.5000 4.0000 -3.0000
v -2.5000 5.0000 -3.0000
v -2.5000 4.0000 -3.0000
v -3.5000 6.0000 -3.0000
v -2.5000 6.0000 -3.0000
v -3.5000 7.0000 -3.0000
v -2.5000 7.0000 -3.0000
v -3.5000 8.0000 -3.0000
v -2.5000 8.0000 -3.0000
v -3.5000 9.0000 -2.0000
v -3.5000 9.0000 -3.0000
v -2.5000 9.0000 -3.0000
v -3.5000 10.0000 -2.0000
v -3.5000 10.0000 -3.0000
v -2.5000 10.0000 -3.0000
v -3.5000 11.0000 -2.0000
v -3.5000 11.0000 -3.0000
v -2.5000 11.0000 -3.0000
v -2.5000 11.0000 -2.0000
v -1.5000 4.0000 3.0000
v -1.5000 5.0000 3.0000
v -1.5000 4.0000 2.0000
v -1.5000 6.0000 3.0000
v -1.5000 7.0000 3.0000
v -1.5000 8.0000 3.0000
v -1.5000 9.0000 3.0000
v -1.5000 10.0000 3.0000
v -1.5000 11.0000 3.0000
v -1.5000 11.0000 2.0000
v -1.5000 4.0000 1.0000
v -1.5000 11.0000 1.0000
v -2.5000 11.0000 1.0000
v -1.5000 4.0000 0.0000
v -1.5000 11.0000 0.0000
v -2.5000 11.0000 0.0000
v -1.5000 4.0000 -1.0000
v -1.5000 11.0000 -1.0000
v -2.5000 11.0000 -1.0000
v -1.5000 4.0000 -2.0000
v -1.5000 11.0000 -2.0000
v -1.5000 5.0000 -3.0000
v -1.5000 4.0000 -3.0000
v -1.5000 6.0000 -3.0000
v -1.5000 7.0000 -3.0000
v -1.5000 8.0000 -3.0000
v -1.5000 9.0000 -3.0000
v -1.5000 10.0000 -3.0000
v -1.5000 11.0000 -3.0000
v -0.5000 4.0000 3.0000
v -0.5000 5.0000 3.0000
v -0.5000 4.0000 2.0000
v -0.5000 6.0000 3.0000
v -0.5000 7.0000 3.0000
v -0.5000 8.0000 3.0000
v -0.5000 9.0000 3.0000
v -0.5000 10.0000 3.0000
v -0.5000 11.0000 3.0000
v -0.5000 11.0000 2.0000
v -0.5000 4.0000 1.0000
v -0.5000 11.0000 1.0000
v -0.5000 11.0000 0.0000
v -0.5000 4.0000 -1.0000
v -0.5000 4.0000 0.0000
v -0.5000 11.0000 -1.0000
v -0.5000 4.0000 -2.0000
v -0.5000 11.0000 -2.0000
v -0.5000 5.0000 -3.0000
v -0.5000 4.0000 -3.0000
v -0.5000 6.0000 -3.0000
v -0.5000 7.0000 -3.0000
v -0.5000 8.0000 -3.0000
v -0.5000 9.0000 -3.0000
v -0.5000 10.0000 -3.0000
v -0.5000 11.0000 -3.0000
v 0.5000 4.0000 3.0000
v 0.5000 5.0000 3.0000
v 0.5000 4.0000 2.0000
v 0.5000 6.0000 3.0000
v 0.5000 7.0000 3.0000
v 0.5000 8.0000 3.0000
v 0.5000 9.0000 3.0000
v 0.5000 10.0000 3.0000
v 0.5000 11.0000 3.0000
v 0.5000 11.0000 2.0000
v 0.5000 4.0000 1.0000
v 0.5000 11.0000 1.0000
v 0.5000 4.0000 0.0000
v 0.5000 11.0000 0.0000
v 0.5000 4.0000 -1.0000
v 0.5000 11.0000 -1.0000
v 0.5000 4.0000 -2.0000
v 0.5000 11.0000 -2.0000
v 0.5000 5.0000 -3.0000
v 0.5000 4.0000 -3.0000
v 0.5000 6.0000 -3.0000
v 0.5000 7.0000 -3.0000
v 0.5000 8.0000 -3.0000
v 0.5000 9.0000 -3.0000
v 0.5000 10.0000 -3.0000
v 0.5000 11.0000 -3.0000
v 1.5000 4.0000 3.0000
v 1.5000 5.0000 3.0000
v 1.5000 4.0000 2.0000
v 1.5000 6.0000 3.0000
v 1.5000 7.0000 3.0000
v 1.5000 8.0000 3.0000
v 1.5000 9.0000 3.0000
v 1.5000 10.0000 3.0000
v 1.5000 11.0000 3.0000
v 1.5000 11.0000 2.0000
v 1.5000 4.0000 1.0000
v 1.5000 4.0000 0.0000
v 1.5000 4.0000 -2.0000
v 1.5000 4.0000 -1.0000
v 1.5000 5.0000 -3.0000
v 1.5000 4.0000 -3.0000
v 1.5000 6.0000 -3.0000
v 1.5000 7.0000 -3.0000
v 1.5000 8.0000 -3.0000
v 1.5000 9.0000 -3.0000
v 1.5000 10.0000 -3.0000
v 1.5000 11.0000 -3.0000
v 1.5000 11.0000 -2.0000
v 2.5000 4.0000 3.0000
v 2.5000 5.0000 3.0000
v 2.5000 4.0000 2.0000
v 2.5000 6.0000 3.0000
v 2.5000 7.0000 3.0000
v 2.5000 8.0000 3.0000
v 2.5000 9.0000 3.0000
v 2.5000 10.0000 3.0000
v 2.5000 11.0000 3.0000
v 2.5000 11.0000 2.0000
v 2.5000 4.0000 1.0000
v 2.5000 4.0000 0.0000
v 2.5000 4.0000 -1.0000
v 2.5000 4.0000 -2.0000
v 2.5000 5.0000 -3.0000
v 2.5000 4.0000 -3.0000
v 2.5000 6.0000 -3.0000
v 2.5000 7.0000 -3.0000
v 2.5000 8.0000 -3.0000
v 2.5000 9.0000 -3.0000
v 2.5000 10.0000 -3.0000
v 2.5000 11.0000 -3.0000
v 2.5000 11.0000 -2.0000
v 3.5000 4.0000 3.0000
v 3.5000 4.0000 2.0000
v 3.5000 5.0000 2.0000
v 3.5000 5.0000 3.0000
v 3.5000 6.0000 2.0000
v 3.5000 6.0000 3.0000
v 3.5000 7.0000 2.0000
v 3.5000 7.0000 3.0000
v 3.5000 8.0000 2.0000
v 3.5000 8.0000 3.0000
v 3.5000 9.0000 2.0000
v 3.5000 9.0000 3.0000
v 3.5000 10.0000 2.0000
v 3.5000 10.0000 3.0000
v 3.5000 11.0000 2.0000
v 3.5000 11.0000 3.0000
v 3.5000 4.0000 1.0000
v 3.5000 5.0000 1.0000
v 3.5000 6.0000 1.0000
v 3.5000 7.0000 1.0000
v 3.5000 8.0000 1.0000
v 3.5000 9.0000 1.0000
v 3.5000 4.0000 0.0000
v 3.5000 5.0000 0.0000
v 3.5000 6.0000 0.0000
v 3.5000 7.0000 0.0000
v 3.5000 8.0000 0.0000
v 3.5000 9.0000 0.0000
v 3.5000 4.0000 -1.0000
v 3.5000 5.0000 -1.0000
v 3.5000 6.0000 -1.0000
v 3.5000 7.0000 -1.0000
v 3.5000 8.0000 -1.0000
v 3.5000 9.0000 -1.0000
v 3.5000 4.0000 -2.0000
v 3.5000 5.0000 -2.0000
v 3.5000 6.0000 -2.0000
v 3.5000 7.0000 -2.0000
v 3.5000 8.0000 -2.0000
v 3.5000 9.0000 -2.0000
v 3.5000 4.0000 -3.0000
v 3.5000 5.0000 -3.0000
v 3.5000 6.0000 -3.0000
v 3.5000 7.0000 -3.0000
v 3.5000 8.0000 -3.0000
v 3.5000 9.0000 -3.0000
v 3.5000 10.0000 -3.0000
v 3.5000 10.0000 -2.0000
v 3.5000 11.0000 -3.0000
v 3.5000 11.0000 -2.0000
v 0.5000 12.0000 2.0000
v 0.5000 12.0000 1.0000
v 1.5000 12.0000 2.0000
v 0.5000 13.0000 2.0000
v 0.5000 13.0000 1.0000
v 1.5000 13.0000 2.0000
v 0.5000 14.0000 2.0000
v 0.5000 14.0000 1.0000
v 1.5000 14.0000 2.0000
v 0.5000 15.0000 2.0000
v 0.5000 15.0000 1.0000
v 1.5000 15.0000 2.0000
v 1.5000 15.0000 1.0000
v 0.5000 12.0000 0.0000
v 0.5000 13.0000 0.0000
v 0.5000 14.0000 0.0000
v 0.5000 15.0000 0.0000
v 1.5000 15.0000 0.0000
v 0.5000 12.0000 -1.0000
v 0.5000 13.0000 -1.0000
v 0.5000 14.0000 -1.0000
v 0.5000 15.0000 -1.0000
v 1.5000 15.0000 -1.0000
v 0.5000 12.0000 -2.0000
v 1.5000 12.0000 -2.0000
v 0.5000 13.0000 -2.0000
v 1.5000 13.0000 -2.0000
v 0.5000 14.0000 -2.0000
v 1.5000 14.0000 -2.0000
v 0.5000 15.0000 -2.0000
v 1.5000 15.0000 -2.0000
v 2.5000 12.0000 2.0000
v 2.5000 13.0000 2.0000
v 2.5000 14.0000 2.0000
v 2.5000 15.0000 2.0000
v 2.5000 12.0000 -2.0000
v 2.5000 13.0000 -2.0000
v 2.5000 14.0000 -2.0000
v 2.5000 15.0000 -2.0000
v 3.5000 12.0000 2.0000
v 3.5000 13.0000 2.0000
v 3.5000 14.0000 2.0000
v 3.5000 15.0000 2.0000
v 3.5000 12.0000 -2.0000
v 3.5000 13.0000 -2.0000
v 3.5000 14.0000 -2.0000
v 3.5000 15.0000 -2.0000
v 4.5000 9.0000 2.0000
v 4.5000 9.0000 1.0000
v 4.5000 10.0000 1.0000
v 4.5000 10.0000 2.0000
v 4.5000 11.0000 1.0000
v 4.5000 11.0000 2.0000
v 4.5000 12.0000 1.0000
v 4.5000 12.0000 2.0000
v 4.5000 13.0000 1.0000
v 4.5000 13.0000 2.0000
v 4.5000 14.0000 1.0000
v 4.5000 14.0000 2.0000
v 4.5000 15.0000 2.0000
v 4.5000 9.0000 0.0000
v 4.5000 10.0000 0.0000
v 4.5000 11.0000 0.0000
v 4.5000 12.0000 0.0000
v 4.5000 9.0000 -1.0000
v 4.5000 10.0000 -1.0000
v 4.5000 11.0000 -1.0000
v 4.5000 12.0000 -1.0000
v 4.5000 9.0000 -2.0000
v 4.5000 10.0000 -2.0000
v 4.5000 11.0000 -2.0000
v 4.5000 12.0000 -2.0000
v 4.5000 13.0000 -2.0000
v 4.5000 13.0000 -1.0000
v 4.5000 14.0000 -2.0000
v 4.5000 14.0000 -1.0000
v 4.5000 15.0000 -2.0000
v 1.5000 16.0000 2.0000
v 1.5000 16.0000 1.0000
v 2.5000 16.0000 2.0000
v 1.5000 17.0000 2.0000
v 1.5000 17.0000 1.0000
v 2.5000 17.0000 2.0000
v 1.5000 18.0000 2.0000
v 1.5000 18.0000 1.0000
v 2.5000 18.0000 2.0000
v 2.5000 18.0000 1.0000
v 1.5000 16.0000 0.0000
v 1.5000 17.0000 0.0000
v 1.5000 18.0000 0.0000
v 2.5000 18.0000 0.0000
v 1.5000 16.0000 -1.0000
v 1.5000 17.0000 -1.0000
v 1.5000 18.0000 -1.0000
v 2.5000 18.0000 -1.0000
v 1.5000 16.0000 -2.0000
v 2.5000 16.0000 -2.0000
v 1.5000 17.0000 -2.0000
v 2.5000 17.0000 -2.0000
v 1.5000 18.0000 -2.0000
v 2.5000 18.0000 -2.0000
v 3.5000 16.0000 2.0000
v 3.5000 17.0000 2.0000
v 3.5000 18.0000 2.0000
v 3.5000 18.0000 1.0000
v 3.5000 18.0000 0.0000
v 3.5000 18.0000 -1.0000
v 3.5000 16.0000 -2.0000
v 3.5000 17.0000 -2.0000
v 3.5000 18.0000 -2.0000
v 4.5000 16.0000 2.0000
v 4.5000 17.0000 2.0000
v 4.5000 18.0000 2.0000
v 4.5000 18.0000 1.0000
v 4.5000 18.0000 0.0000
v 4.5000 18.0000 -1.0000
v 4.5000 16.0000 -2.0000
v 4.5000 17.0000 -2.0000
v 4.5000 18.0000 -2.0000
v 5.5000 14.0000 2.0000
v 5.5000 14.0000 1.0000
v 5.5000 15.0000 1.0000
v 5.5000 15.0000 2.0000
v 5.5000 16.0000 1.0000
v 5.5000 16.0000 2.0000
v 5.5000 17.0000 1.0000
v 5.5000 17.0000 2.0000
v 5.5000 18.0000 1.0000
v 5.5000 18.0000 2.0000
v 5.5000 14.0000 0.0000
v 5.5000 15.0000 0.0000
v 5.5000 16.0000 0.0000
v 5.5000 17.0000 0.0000
v 5.5000 18.0000 0.0000
v 5.5000 14.0000 -1.0000
v 5.5000 15.0000 -1.0000
v 5.5000 16.0000 -1.0000
v 5.5000 17.0000 -1.0000
v 5.5000 18.0000 -1.0000
v 5.5000 14.0000 -2.0000
v 5.5000 15.0000 -2.0000
v 5.5000 16.0000 -2.0000
v 5.5000 17.0000 -2.0000
v 5.5000 18.0000 -2.0000
v 2.5000 19.0000 1.0000
v 2.5000 19.0000 0.0000
v 3.5000 19.0000 0.0000
v 3.5000 19.0000 1.0000
v 4.5000 19.0000 0.0000
v 4.5000 19.0000 1.0000
v 5.5000 19.0000 0.0000
v 5.5000 19.0000 1.0000
v 5.5000 12.0000 1.0000
v 5.5000 12.0000 0.0000
v 5.5000 13.0000 0.0000
v 5.5000 13.0000 1.0000
v 5.5000 12.0000 -1.0000
v 5.5000 13.0000 -1.0000
v 6.5000 15.0000 1.0000
v 6.5000 15.0000 0.0000
v 6.5000 16.0000 0.0000
v 6.5000 16.0000 1.0000
v 6.5000 15.0000 -1.0000
v 6.5000 16.0000 -1.0000
v -5.5000 8.0000 2.0000
v -5.5000 9.0000 2.0000
v -5.5000 9.0000 1.0000
v -5.5000 8.0000 1.0000
v -4.5000 8.0000 2.0000
v -4.5000 9.0000 2.0000
v -4.5000 8.0000 1.0000
v -5.5000 10.0000 2.0000
v -5.5000 10.0000 1.0000
v -4.5000 10.0000 2.0000
v -5.5000 11.0000 2.0000
v -5.5000 11.0000 1.0000
v -4.5000 11.0000 2.0000
v -4.5000 12.0000 2.0000
v -5.5000 12.0000 2.0000
v -5.5000 9.0000 0.0000
v -5.5000 8.0000 0.0000
v -4.5000 8.0000 0.0000
v -5.5000 10.0000 0.0000
v -5.5000 11.0000 0.0000
v -5.5000 9.0000 -1.0000
v -5.5000 8.0000 -1.0000
v -4.5000 8.0000 -1.0000
v -5.5000 10.0000 -1.0000
v -5.5000 11.0000 -1.0000
v -5.5000 9.0000 -2.0000
v -5.5000 8.0000 -2.0000
v -4.5000 9.0000 -2.0000
v -4.5000 8.0000 -2.0000
v -5.5000 10.0000 -2.0000
v -4.5000 10.0000 -2.0000
v -5.5000 11.0000 -2.0000
v -4.5000 11.0000 -2.0000
v -5.5000 12.0000 -2.0000
v -4.5000 12.0000 -2.0000
v -3.5000 12.0000 2.0000
v -3.5000 12.0000 -2.0000
v -2.5000 12.0000 1.0000
v -2.5000 12.0000 2.0000
v -3.5000 12.0000 1.0000
v -2.5000 12.0000 0.0000
v -3.5000 12.0000 0.0000
v -2.5000 12.0000 -1.0000
v -3.5000 12.0000 -1.0000
v -2.5000 12.0000 -2.0000
v -6.5000 11.0000 2.0000
v -6.5000 12.0000 2.0000
v -6.5000 12.0000 1.0000
v -6.5000 11.0000 1.0000
v -6.5000 13.0000 2.0000
v -6.5000 13.0000 1.0000
v -5.5000 13.0000 2.0000
v -6.5000 14.0000 2.0000
v -6.5000 14.0000 1.0000
v -5.5000 14.0000 2.0000
v -6.5000 15.0000 2.0000
v -6.5000 15.0000 1.0000
v -5.5000 15.0000 2.0000
v -6.5000 16.0000 2.0000
v -6.5000 16.0000 1.0000
v -5.5000 16.0000 2.0000
v -5.5000 16.0000 1.0000
v -6.5000 12.0000 0.0000
v -6.5000 11.0000 0.0000
v -6.5000 13.0000 0.0000
v -6.5000 14.0000 0.0000
v -6.5000 15.0000 0.0000
v -6.5000 16.0000 0.0000
v -5.5000 16.0000 0.0000
v -6.5000 12.0000 -1.0000
v -6.5000 11.0000 -1.0000
v -6.5000 13.0000 -1.0000
v -6.5000 14.0000 -1.0000
v -6.5000 15.0000 -1.0000
v -6.5000 16.0000 -1.0000
v -5.5000 16.0000 -1.0000
v -6.5000 12.0000 -2.0000
v -6.5000 11.0000 -2.0000
v -6.5000 13.0000 -2.0000
v -5.5000 13.0000 -2.0000
v -6.5000 14.0000 -2.0000
v -5.5000 14.0000 -2.0000
v -6.5000 15.0000 -2.0000
v -5.5000 15.0000 -2.0000
v -6.5000 16.0000 -2.0000
v -5.5000 16.0000 -2.0000
v -4.5000 13.0000 2.0000
v -4.5000 14.0000 2.0000
v -4.5000 15.0000 2.0000
v -4.5000 16.0000 2.0000
v -4.5000 13.0000 -2.0000
v -4.5000 14.0000 -2.0000
v -4.5000 15.0000 -2.0000
v -4.5000 16.0000 -2.0000
v -3.5000 13.0000 1.0000
v -3.5000 13.0000 2.0000
v -3.5000 14.0000 1.0000
v -3.5000 14.0000 2.0000
v -3.5000 15.0000 1.0000
v -3.5000 15.0000 2.0000
v -3.5000 16.0000 2.0000
v -3.5000 13.0000 0.0000
v -3.5000 14.0000 0.0000
v -3.5000 15.0000 0.0000
v -3.5000 13.0000 -1.0000
v -3.5000 14.0000 -1.0000
v -3.5000 15.0000 -1.0000
v -3.5000 13.0000 -2.0000
v -3.5000 14.0000 -2.0000
v -3.5000 15.0000 -2.0000
v -3.5000 16.0000 -2.0000
v -5.5000 17.0000 2.0000
v -5.5000 17.0000 1.0000
v -4.5000 17.0000 2.0000
v -5.5000 18.0000 2.0000
v -5.5000 18.0000 1.0000
v -4.5000 18.0000 2.0000
v -5.5000 19.0000 2.0000
v -5.5000 19.0000 1.0000
v -4.5000 19.0000 2.0000
v -4.5000 19.0000 1.0000
v -5.5000 17.0000 0.0000
v -5.5000 18.0000 0.0000
v -5.5000 19.0000 0.0000
v -4.5000 19.0000 0.0000
v -5.5000 17.0000 -1.0000
v -5.5000 18.0000 -1.0000
v -5.5000 19.0000 -1.0000
v -4.5000 19.0000 -1.0000
v -5.5000 17.0000 -2.0000
v -4.5000 17.0000 -2.0000
v -5.5000 18.0000 -2.0000
v -4.5000 18.0000 -2.0000
v -5.5000 19.0000 -2.0000
v -4.5000 19.0000 -2.0000
v -3.5000 17.0000 2.0000
v -3.5000 18.0000 2.0000
v -3.5000 19.0000 2.0000
v -3.5000 19.0000 1.0000
v -3.5000 19.0000 0.0000
v -3.5000 19.0000 -1.0000
v -3.5000 17.0000 -2.0000
v -3.5000 18.0000 -2.0000
v -3.5000 19.0000 -2.0000
v -2.5000 15.0000 2.0000
v -2.5000 16.0000 2.0000
v -2.5000 15.0000 1.0000
v -2.5000 17.0000 2.0000
v -2.5000 18.0000 2.0000
v -2.5000 19.0000 2.0000
v -2.5000 19.0000 1.0000
v -2.5000 15.0000 0.0000
v -2.5000 19.0000 0.0000
v -2.5000 15.0000 -1.0000
v -2.5000 19.0000 -1.0000
v -2.5000 16.0000 -2.0000
v -2.5000 15.0000 -2.0000
v -2.5000 17.0000 -2.0000
v -2.5000 18.0000 -2.0000
v -2.5000 19.0000 -2.0000
v -1.5000 15.0000 2.0000
v -1.5000 15.0000 1.0000
v -1.5000 16.0000 1.0000
v -1.5000 16.0000 2.0000
v -1.5000 17.0000 1.0000
v -1.5000 17.0000 2.0000
v -1.5000 18.0000 1.0000
v -1.5000 18.0000 2.0000
v -1.5000 19.0000 1.0000
v -1.5000 19.0000 2.0000
v -1.5000 15.0000 0.0000
v -1.5000 16.0000 0.0000
v -1.5000 17.0000 0.0000
v -1.5000 18.0000 0.0000
v -1.5000 19.0000 0.0000
v -1.5000 15.0000 -1.0000
v -1.5000 16.0000 -1.0000
v -1.5000 17.0000 -1.0000
v -1.5000 18.0000 -1.0000
v -1.5000 19.0000 -1.0000
v -1.5000 15.0000 -2.0000
v -1.5000 16.0000 -2.0000
v -1.5000 17.0000 -2.0000
v -1.5000 18.0000 -2.0000
v -1.5000 19.0000 -2.0000
v -0.5000 0.0000 1.0000
v -0.5000 0.0000 0.0000
v -0.5000 1.0000 0.0000
v -0.5000 1.0000 1.0000
v -1.5000 0.0000 1.0000
v -1.5000 1.0000 1.0000
v -1.5000 1.0000 0.0000
v -1.5000 0.0000 0.0000
v -0.5000 2.0000 0.0000
v -0.5000 2.0000 1.0000
v -1.5000 2.0000 1.0000
v -1.5000 2.0000 0.0000
v -0.5000 3.0000 0.0000
v -0.5000 3.0000 1.0000
v -1.5000 3.0000 1.0000
v -1.5000 3.0000 0.0000
v 1.5000 0.0000 0.0000
v 1.5000 0.0000 -1.0000
v 1.5000 1.0000 -1.0000
v 1.5000 1.0000 0.0000
v 0.5000 0.0000 0.0000
v 0.5000 1.0000 0.0000
v 0.5000 1.0000 -1.0000
v 0.5000 0.0000 -1.0000
v 1.5000 2.0000 -1.0000
v 1.5000 2.0000 0.0000
v 0.5000 2.0000 0.0000
v 0.5000 2.0000 -1.0000
v 1.5000 3.0000 -1.0000
v 1.5000 3.0000 0.0000
v 0.5000 3.0000 0.0000
v 0.5000 3.0000 -1.0000
usemtl c25
f 372 371 373 374
f 358 372 374 359
f 384 389 390 385
f 364 365 390 389
usemtl c32
f 1 2 3 4
f 1 5 6 2
f 1 4 7 5
f 2 8 9 3
f 2 6 10 8
f 8 11 12 9
f 8 10 13 11
f 11 14 15 12
f 11 13 16 14
f 14 17 18 15
f 14 16 19 17
f 17 20 21 18
f 17 19 22 20
f 20 23 24 21
f 20 22 25 23
f 23 25 26 24
f 4 3 27 28
f 4 28 29 7
f 3 9 30 27
f 9 12 31 30
f 12 15 32 31
f 28 27 33 34
f 28 34 35 29
f 27 30 36 33
f 30 31 37 36
f 31 32 38 37
f 34 33 39 40
f 34 40 41 35
f 33 36 42 39
f 36 37 43 42
f 37 38 44 43
f 40 39 45 46
f 40 46 47 41
f 39 42 48 45
f 42 43 49 48
f 43 44 50 49
f 46 45 51 52
f 52 51 53 54
f 46 52 54 47
f 45 48 55 51
f 51 55 56 53
f 48 49 57 55
f 55 57 58 56
f 49 50 59 57
f 57 59 60 58
f 50 61 62 59
f 59 62 63 60
f 61 64 65 62
f 62 65 66 63
f 64 67 68 65
f 65 68 69 66
f 67 70 69 68
f 5 71 72 6
f 5 7 73 71
f 6 72 74 10
f 10 74 75 13
f 13 75 76 16
f 16 76 77 19
f 19 77 78 22
f 22 78 79 25
f 25 79 80 26
f 7 29 81 73
f 26 80 82 83
f 29 35 84 81
f 83 82 85 86
f 35 41 87 84
f 86 85 88 89
f 41 47 90 87
f 89 88 91 70
f 54 53 92 93
f 47 54 93 90
f 53 56 94 92
f 56 58 95 94
f 58 60 96 95
f 60 63 97 96
f 63 66 98 97
f 66 69 99 98
f 70 91 99 69
f 71 100 101 72
f 71 73 102 100
f 72 101 103 74
f 74 103 104 75
f 75 104 105 76
f 76 105 106 77
f 77 106 107 78
f 78 107 108 79
f 79 108 109 80
f 73 81 110 102
f 80 109 111 82
f 82 111 112 85
f 84 87 113 114
f 85 112 115 88
f 87 90 116 113
f 88 115 117 91
f 93 92 118 119
f 90 93 119 116
f 92 94 120 118
f 94 95 121 120
f 95 96 122 121
f 96 97 123 122
f 97 98 124 123
f 98 99 125 124
f 91 117 125 99
f 100 126 127 101
f 100 102 128 126
f 101 127 129 103
f 103 129 130 104
f 104 130 131 105
f 105 131 132 106
f 106 132 133 107
f 107 133 134 108
f 108 134 135 109
f 102 110 136 128
f 109 135 137 111
f 110 114 138 136
f 111 137 139 112
f 114 113 140 138
f 112 139 141 115
f 113 116 142 140
f 115 141 143 117
f 119 118 144 145
f 116 119 145 142
f 118 120 146 144
f 120 121 147 146
f 121 122 148 147
f 122 123 149 148
f 123 124 150 149
f 124 125 151 150
f 117 143 151 125
f 126 152 153 127
f 126 128 154 152
f 127 153 155 129
f 129 155 156 130
f 130 156 157 131
f 131 157 158 132
f 132 158 159 133
f 133 159 160 134
f 134 160 161 135
f 128 136 162 154
f 136 138 163 162
f 140 142 164 165
f 145 144 166 167
f 142 145 167 164
f 144 146 168 166
f 146 147 169 168
f 147 148 170 169
f 148 149 171 170
f 149 150 172 171
f 150 151 173 172
f 143 174 173 151
f 152 175 176 153
f 152 154 177 175
f 153 176 178 155
f 155 178 179 156
f 156 179 180 157
f 157 180 181 158
f 158 181 182 159
f 159 182 183 160
f 160 183 184 161
f 154 162 185 177
f 162 163 186 185
f 163 165 187 186
f 165 164 188 187
f 167 166 189 190
f 164 167 190 188
f 166 168 191 189
f 168 169 192 191
f 169 170 193 192
f 170 171 194 193
f 171 172 195 194
f 172 173 196 195
f 174 197 196 173
f 198 199 200 201
f 175 198 201 176
f 175 177 199 198
f 201 200 202 203
f 176 201 203 178
f 203 202 204 205
f 178 203 205 179
f 205 204 206 207
f 179 205 207 180
f 207 206 208 209
f 180 207 209 181
f 209 208 210 211
f 181 209 211 182
f 211 210 212 213
f 182 211 213 183
f 183 213 212 184
f 199 214 215 200
f 177 185 214 199
f 200 215 216 202
f 202 216 217 204
f 204 217 218 206
f 206 218 219 208
f 214 220 221 215
f 185 186 220 214
f 215 221 222 216
f 216 222 223 217
f 217 223 224 218
f 218 224 225 219
f 220 226 227 221
f 186 187 226 220
f 221 227 228 222
f 222 228 229 223
f 223 229 230 224
f 224 230 231 225
f 226 232 233 227
f 187 188 232 226
f 227 233 234 228
f 228 234 235 229
f 229 235 236 230
f 230 236 237 231
f 232 238 239 233
f 190 189 239 238
f 188 190 238 232
f 233 239 240 234
f 189 191 240 239
f 234 240 241 235
f 191 192 241 240
f 235 241 242 236
f 192 193 242 241
f 236 242 243 237
f 193 194 243 242
f 237 243 244 245
f 194 195 244 243
f 245 244 246 247
f 195 196 246 244
f 197 247 246 196
usemtl c33
f 135 248 249 137
f 135 161 250 248
f 248 251 252 249
f 248 250 253 251
f 251 254 255 252
f 251 253 256 254
f 254 257 258 255
f 254 256 259 257
f 257 259 260 258
f 137 249 261 139
f 249 252 262 261
f 252 255 263 262
f 255 258 264 263
f 258 260 265 264
f 139 261 266 141
f 261 262 267 266
f 262 263 268 267
f 263 264 269 268
f 264 265 270 269
f 141 266 271 143
f 143 271 272 174
f 266 267 273 271
f 271 273 274 272
f 267 268 275 273
f 273 275 276 274
f 268 269 277 275
f 275 277 278 276
f 269 270 278 277
f 161 184 279 250
f 250 279 280 253
f 253 280 281 256
f 256 281 282 259
f 174 272 283 197
f 272 274 284 283
f 274 276 285 284
f 276 278 286 285
f 184 212 287 279
f 279 287 288 280
f 280 288 289 281
f 281 289 290 282
f 197 283 291 247
f 283 284 292 291
f 284 285 293 292
f 285 286 294 293
f 295 296 297 298
f 208 295 298 210
f 208 219 296 295
f 298 297 299 300
f 210 298 300 212
f 300 299 301 302
f 212 300 302 287
f 302 301 303 304
f 287 302 304 288
f 304 303 305 306
f 288 304 306 289
f 289 306 307 290
f 296 308 309 297
f 219 225 308 296
f 297 309 310 299
f 299 310 311 301
f 308 312 313 309
f 225 231 312 308
f 309 313 314 310
f 310 314 315 311
f 312 316 317 313
f 237 245 317 316
f 231 237 316 312
f 313 317 318 314
f 245 247 318 317
f 314 318 319 315
f 247 291 319 318
f 315 319 320 321
f 291 292 320 319
f 321 320 322 323
f 292 293 322 320
f 293 294 324 322
f 259 325 326 260
f 259 282 327 325
f 325 328 329 326
f 325 327 330 328
f 328 331 332 329
f 328 330 333 331
f 331 333 334 332
f 260 326 335 265
f 326 329 336 335
f 329 332 337 336
f 332 334 338 337
f 265 335 339 270
f 335 336 340 339
f 336 337 341 340
f 337 338 342 341
f 270 339 343 278
f 278 343 344 286
f 339 340 345 343
f 343 345 346 344
f 340 341 347 345
f 345 347 348 346
f 341 342 348 347
f 282 290 349 327
f 327 349 350 330
f 330 350 351 333
f 333 351 352 334
f 338 353 354 342
f 286 344 355 294
f 344 346 356 355
f 346 348 357 356
f 342 354 357 348
f 290 307 358 349
f 349 358 359 350
f 350 359 360 351
f 351 360 361 352
f 353 362 363 354
f 294 355 364 324
f 355 356 365 364
f 356 357 366 365
f 354 363 366 357
f 367 368 369 370
f 306 367 370 307
f 306 305 368 367
f 370 369 371 372
f 307 370 372 358
f 374 373 375 376
f 359 374 376 360
f 360 376 375 361
f 371 379 380 373
f 373 380 381 375
f 379 384 385 380
f 380 385 386 381
f 362 381 386 363
f 382 387 388 383
f 322 324 388 387
f 323 322 387 382
f 383 388 389 384
f 324 364 389 388
f 385 390 391 386
f 365 366 391 390
f 363 386 391 366
f 469 500 501 472
f 495 497 505 504
f 500 511 512 501
f 504 505 522 521
f 472 523 524 473
f 472 501 525 523
f 523 526 527 524
f 523 525 528 526
f 526 529 530 527
f 526 528 531 529
f 529 531 532 530
f 473 524 533 480
f 524 527 534 533
f 527 530 535 534
f 530 532 536 535
f 480 533 537 487
f 533 534 538 537
f 534 535 539 538
f 535 536 540 539
f 487 537 541 497
f 497 541 542 505
f 537 538 543 541
f 541 543 544 542
f 538 539 545 543
f 543 545 546 544
f 539 540 546 545
f 501 512 547 525
f 525 547 548 528
f 528 548 549 531
f 531 549 550 532
f 532 550 551 536
f 536 551 552 540
f 505 542 553 522
f 542 544 554 553
f 544 546 555 554
f 540 552 555 546
f 511 556 557 512
f 511 510 558 556
f 512 557 559 547
f 547 559 560 548
f 548 560 561 549
f 549 561 562 550
f 510 515 563 558
f 550 562 564 551
f 515 518 565 563
f 551 564 566 552
f 521 522 567 568
f 518 521 568 565
f 522 553 569 567
f 553 554 570 569
f 554 555 571 570
f 552 566 571 555
f 572 573 574 575
f 556 572 575 557
f 556 558 573 572
f 575 574 576 577
f 557 575 577 559
f 577 576 578 579
f 559 577 579 560
f 579 578 580 581
f 560 579 581 561
f 561 581 580 562
f 573 582 583 574
f 558 563 582 573
f 574 583 584 576
f 576 584 585 578
f 578 585 586 580
f 562 580 586 564
f 582 587 588 583
f 563 565 587 582
f 583 588 589 584
f 584 589 590 585
f 585 590 591 586
f 564 586 591 566
f 587 592 593 588
f 568 567 593 592
f 565 568 592 587
f 588 593 594 589
f 567 569 594 593
f 589 594 595 590
f 569 570 595 594
f 590 595 596 591
f 570 571 596 595
f 566 591 596 571
usemtl c34
f 412 413 414 415
f 412 416 417 413
f 412 415 418 416
f 413 419 420 414
f 413 417 421 419
f 419 422 423 420
f 419 421 424 422
f 415 414 427 428
f 415 428 429 418
f 414 420 430 427
f 420 423 431 430
f 428 427 432 433
f 428 433 434 429
f 427 430 435 432
f 430 431 436 435
f 433 432 437 438
f 438 437 439 440
f 433 438 440 434
f 432 435 441 437
f 437 441 442 439
f 435 436 443 441
f 441 443 444 442
f 416 15 18 417
f 416 418 32 15
f 417 18 21 421
f 421 21 24 424
f 418 429 38 32
f 429 434 44 38
f 440 439 61 50
f 434 440 50 44
f 439 442 64 61
f 442 444 67 64
f 26 83 449 450
f 24 26 450 447
f 447 450 449 451
f 83 86 452 449
f 451 449 452 453
f 86 89 454 452
f 453 452 454 455
f 89 70 456 454
f 67 448 456 70
f 455 454 456 448
usemtl c35
f 422 424 425 426
f 443 445 446 444
f 424 24 447 425
f 444 446 448 67
f 457 458 459 460
f 457 422 426 458
f 457 460 423 422
f 458 461 462 459
f 458 426 463 461
f 461 464 465 462
f 461 463 466 464
f 464 467 468 465
f 464 466 469 467
f 467 470 471 468
f 467 469 472 470
f 470 472 473 471
f 460 459 474 475
f 460 475 431 423
f 459 462 476 474
f 462 465 477 476
f 465 468 478 477
f 468 471 479 478
f 471 473 480 479
f 475 474 481 482
f 475 482 436 431
f 474 476 483 481
f 476 477 484 483
f 477 478 485 484
f 478 479 486 485
f 479 480 487 486
f 482 481 488 489
f 489 488 445 443
f 482 489 443 436
f 481 483 490 488
f 488 490 491 445
f 483 484 492 490
f 490 492 493 491
f 484 485 494 492
f 492 494 495 493
f 485 486 496 494
f 494 496 497 495
f 486 487 497 496
f 426 425 498 463
f 463 498 499 466
f 466 499 500 469
f 445 491 502 446
f 491 493 503 502
f 493 495 504 503
f 447 451 506 507
f 425 447 507 498
f 507 506 508 509
f 498 507 509 499
f 509 508 510 511
f 499 509 511 500
f 451 453 513 506
f 506 513 514 508
f 508 514 515 510
f 453 455 516 513
f 513 516 517 514
f 514 517 518 515
f 455 448 519 516
f 446 502 519 448
f 516 519 520 517
f 502 503 520 519
f 517 520 521 518
f 503 504 521 520
usemtl c36
f 368 377 378 369
f 377 382 383 378
f 334 392 393 338
f 338 393 394 353
f 334 352 395 392
f 392 395 394 393
f 353 394 396 362
f 352 361 397 395
f 395 397 396 394
f 375 381 398 399
f 362 396 398 381
f 361 375 399 397
f 397 399 398 396
f 400 401 402 403
f 301 400 403 303
f 301 311 401 400
f 403 402 377 368
f 303 403 368 305
f 401 404 405 402
f 315 321 405 404
f 311 315 404 401
f 402 405 382 377
f 321 323 382 405
usemtl c37
f 406 407 408 409
f 369 406 409 371
f 371 409 408 379
f 369 378 407 406
f 407 410 411 408
f 383 384 411 410
f 379 408 411 384
f 378 383 410 407
f 597 598 599 600
f 601 602 603 604
f 604 603 599 598
f 601 597 600 602
f 601 604 598 597
f 600 599 605 606
f 602 607 608 603
f 603 608 605 599
f 602 600 606 607
f 606 605 609 610
f 607 611 612 608
f 608 612 609 605
f 607 606 610 611
f 610 609 114 110
f 611 81 84 612
f 612 84 114 609
f 611 610 110 81
f 613 614 615 616
f 617 618 619 620
f 620 619 615 614
f 617 613 616 618
f 617 620 614 613
f 616 615 621 622
f 618 623 624 619
f 619 624 621 615
f 618 616 622 623
f 622 621 625 626
f 623 627 628 624
f 624 628 625 621
f 623 622 626 627
f 626 625 165 163
f 627 138 140 628
f 628 140 165 625
f 627 626 163 138
