# generado por tools/vox_to_obj.py desde grama_seca.vox
mtllib grama_seca.mtl
v -3.0000 0.0000 3.0000
v -3.0000 1.0000 3.0000
v -3.0000 1.0000 2.0000
v -3.0000 0.0000 2.0000
v -2.0000 0.0000 3.0000
v -2.0000 1.0000 3.0000
v -2.0000 1.0000 2.0000
v -2.0000 0.0000 2.0000
v -3.0000 1.0000 1.0000
v -3.0000 0.0000 1.0000
v -2.0000 1.0000 1.0000
v -2.0000 0.0000 1.0000
v -3.0000 1.0000 0.0000
v -3.0000 0.0000 0.0000
v -2.0000 1.0000 0.0000
v -2.0000 0.0000 0.0000
v -3.0000 1.0000 -1.0000
v -3.0000 0.0000 -1.0000
v -2.0000 1.0000 -1.0000
v -2.0000 0.0000 -1.0000
v -3.0000 1.0000 -2.0000
v -3.0000 0.0000 -2.0000
v -2.0000 1.0000 -2.0000
v -2.0000 0.0000 -2.0000
v -3.0000 1.0000 -3.0000
v -3.0000 0.0000 -3.0000
v -2.0000 1.0000 -3.0000
v -2.0000 0.0000 -3.0000
v -1.0000 0.0000 3.0000
v -1.0000 1.0000 3.0000
v -1.0000 1.0000 2.0000
v -1.0000 0.0000 2.0000
v -1.0000 0.0000 1.0000
v -1.0000 1.0000 1.0000
v -1.0000 1.0000 0.0000
v -1.0000 0.0000 0.0000
v -1.0000 0.0000 -1.0000
v -1.0000 1.0000 -1.0000
v -1.0000 1.0000 -2.0000
v -1.0000 0.0000 -2.0000
v -1.0000 1.0000 -3.0000
v -1.0000 0.0000 -3.0000
v 0.0000 0.0000 3.0000
v 0.0000 1.0000 3.0000
v 0.0000 1.0000 2.0000
v 0.0000 0.0000 2.0000
v 0.0000 1.0000 1.0000
v 0.0000 0.0000 1.0000
v 0.0000 1.0000 0.0000
v 0.0000 0.0000 0.0000
v 0.0000 0.0000 -1.0000
v 0.0000 1.0000 -1.0000
v 0.0000 1.0000 -2.0000
v 0.0000 0.0000 -2.0000
v 0.0000 1.0000 -3.0000
v 0.0000 0.0000 -3.0000
v 1.0000 0.0000 3.0000
v 1.0000 1.0000 3.0000
v 1.0000 1.0000 2.0000
v 1.0000 0.0000 2.0000
v 1.0000 0.0000 1.0000
v 1.0000 1.0000 1.0000
v 1.0000 1.0000 0.0000
v 1.0000 0.0000 0.0000
v 1.0000 0.0000 -1.0000
v 1.0000 1.0000 -1.0000
v 1.0000 1.0000 -2.0000
v 1.0000 0.0000 -2.0000
v 1.0000 1.0000 -3.0000
v 1.0000 0.0000 -3.0000
v 2.0000 0.0000 3.0000
v 2.0000 1.0000 3.0000
v 2.0000 1.0000 2.0000
v 2.0000 0.0000 2.0000
v 2.0000 1.0000 1.0000
v 2.0000 0.0000 1.0000
v 2.0000 0.0000 0.0000
v 2.0000 1.0000 0.0000
v 2.0000 1.0000 -1.0000
v 2.0000 0.0000 -1.0000
v 2.0000 1.0000 -2.0000
v 2.0000 0.0000 -2.0000
v 2.0000 1.0000 -3.0000
v 2.0000 0.0000 -3.0000
v 3.0000 0.0000 3.0000
v 3.0000 0.0000 2.0000
v 3.0000 1.0000 2.0000
v 3.0000 1.0000 3.0000
v 3.0000 0.0000 1.0000
v 3.0000 1.0000 1.0000
v 3.0000 0.0000 0.0000
v 3.0000 1.0000 0.0000
v 3.0000 0.0000 -1.0000
v 3.0000 1.0000 -1.0000
v 3.0000 0.0000 -2.0000
v 3.0000 1.0000 -2.0000
v 3.0000 0.0000 -3.0000
v 3.0000 1.0000 -3.0000
v -1.0000 2.0000 1.0000
v -1.0000 2.0000 2.0000
v -2.0000 2.0000 2.0000
v -2.0000 2.0000 1.0000
v -1.0000 3.0000 1.0000
v -1.0000 3.0000 2.0000
v -2.0000 3.0000 2.0000
v -2.0000 3.0000 1.0000
v -1.0000 4.0000 1.0000
v -1.0000 4.0000 2.0000
v -2.0000 4.0000 2.0000
v -2.0000 4.0000 1.0000
v -1.0000 5.0000 1.0000
v -1.0000 5.0000 2.0000
v -2.0000 5.0000 2.0000
v -2.0000 5.0000 1.0000
v 1.0000 2.0000 1.0000
v 1.0000 2.0000 2.0000
v 0.0000 2.0000 2.0000
v 0.0000 2.0000 1.0000
v 1.0000 3.0000 1.0000
v 1.0000 3.0000 2.0000
v 0.0000 3.0000 2.0000
v 0.0000 3.0000 1.0000
v 1.0000 4.0000 1.0000
v 1.0000 4.0000 2.0000
v 0.0000 4.0000 2.0000
v 0.0000 4.0000 1.0000
v 2.0000 4.0000 2.0000
v 2.0000 4.0000 1.0000
v 2.0000 5.0000 1.0000
v 2.0000 5.0000 2.0000
v 1.0000 5.0000 2.0000
v 1.0000 5.0000 1.0000
v 2.0000 6.0000 1.0000
v 2.0000 6.0000 2.0000
v 1.0000 6.0000 2.0000
v 1.0000 6.0000 1.0000
v -1.0000 2.0000 -1.0000
v 0.0000 2.0000 -1.0000
v 0.0000 2.0000 0.0000
v -1.0000 2.0000 0.0000
v -1.0000 3.0000 -1.0000
v 0.0000 3.0000 -1.0000
v 0.0000 3.0000 0.0000
v -1.0000 3.0000 0.0000
v -1.0000 4.0000 -1.0000
v 0.0000 4.0000 -1.0000
v 0.0000 4.0000 0.0000
v -1.0000 4.0000 0.0000
v 0.0000 5.0000 -1.0000
v 0.0000 5.0000 0.0000
v -1.0000 5.0000 -1.0000
v -1.0000 5.0000 0.0000
v 0.0000 6.0000 -1.0000
v 0.0000 6.0000 0.0000
v -1.0000 6.0000 -1.0000
v -1.0000 6.0000 0.0000
v 0.0000 7.0000 -1.0000
v 0.0000 7.0000 0.0000
v -1.0000 7.0000 0.0000
v -1.0000 7.0000 -1.0000
v 2.0000 2.0000 0.0000
v 2.0000 2.0000 1.0000
v 1.0000 2.0000 0.0000
v 2.0000 3.0000 0.0000
v 2.0000 3.0000 1.0000
v 1.0000 3.0000 0.0000
v 2.0000 4.0000 0.0000
v 1.0000 4.0000 0.0000
v 3.0000 4.0000 1.0000
v 3.0000 4.0000 0.0000
v 3.0000 5.0000 0.0000
v 3.0000 5.0000 1.0000
v 2.0000 5.0000 0.0000
v -2.0000 2.0000 0.0000
v -2.0000 2.0000 -1.0000
v -2.0000 3.0000 0.0000
v -2.0000 3.0000 -1.0000
v -2.0000 4.0000 0.0000
v -2.0000 4.0000 -1.0000
v -2.0000 5.0000 0.0000
v -2.0000 5.0000 -1.0000
v -2.0000 6.0000 0.0000
v -2.0000 6.0000 -1.0000
v 1.0000 2.0000 -1.0000
v 1.0000 3.0000 -1.0000
v 1.0000 4.0000 -1.0000
v 2.0000 4.0000 -1.0000
v 2.0000 5.0000 -1.0000
v 1.0000 5.0000 0.0000
v 1.0000 5.0000 -1.0000
v 2.0000 6.0000 -1.0000
v 2.0000 6.0000 0.0000
v 1.0000 6.0000 0.0000
v 1.0000 6.0000 -1.0000
v 2.0000 7.0000 -1.0000
v 2.0000 7.0000 0.0000
v 1.0000 7.0000 0.0000
v 1.0000 7.0000 -1.0000
usemtl c5
f 1 2 3 4
f 1 5 6 2
f 2 6 7 3
f 1 4 8 5
f 4 3 9 10
f 3 7 11 9
f 4 10 12 8
f 10 9 13 14
f 9 11 15 13
f 10 14 16 12
f 14 13 17 18
f 13 15 19 17
f 14 18 20 16
f 18 17 21 22
f 17 19 23 21
f 18 22 24 20
f 22 21 25 26
f 26 25 27 28
f 21 23 27 25
f 22 26 28 24
f 5 29 30 6
f 6 30 31 7
f 5 8 32 29
f 8 12 33 32
f 11 34 35 15
f 12 16 36 33
f 16 20 37 36
f 19 38 39 23
f 20 24 40 37
f 28 27 41 42
f 23 39 41 27
f 24 28 42 40
f 29 43 44 30
f 30 44 45 31
f 29 32 46 43
f 31 45 47 34
f 32 33 48 46
f 34 47 49 35
f 33 36 50 48
f 36 37 51 50
f 38 52 53 39
f 37 40 54 51
f 42 41 55 56
f 39 53 55 41
f 40 42 56 54
f 43 57 58 44
f 44 58 59 45
f 43 46 60 57
f 46 48 61 60
f 47 62 63 49
f 48 50 64 61
f 50 51 65 64
f 52 66 67 53
f 51 54 68 65
f 56 55 69 70
f 53 67 69 55
f 54 56 70 68
f 57 71 72 58
f 58 72 73 59
f 57 60 74 71
f 59 73 75 62
f 60 61 76 74
f 61 64 77 76
f 63 78 79 66
f 64 65 80 77
f 66 79 81 67
f 65 68 82 80
f 70 69 83 84
f 67 81 83 69
f 68 70 84 82
f 85 86 87 88
f 71 85 88 72
f 72 88 87 73
f 71 74 86 85
f 86 89 90 87
f 73 87 90 75
f 74 76 89 86
f 89 91 92 90
f 75 90 92 78
f 76 77 91 89
f 91 93 94 92
f 78 92 94 79
f 77 80 93 91
f 93 95 96 94
f 79 94 96 81
f 80 82 95 93
f 95 97 98 96
f 84 83 98 97
f 81 96 98 83
f 82 84 97 95
usemtl c50
f 100 99 103 104
f 101 105 106 102
f 102 106 103 99
f 101 100 104 105
f 116 115 119 120
f 117 121 122 118
f 118 122 119 115
f 117 116 120 121
f 127 128 129 130
f 124 131 132 123
f 123 132 129 128
f 124 127 130 131
f 124 123 128 127
f 137 141 142 138
f 140 139 143 144
f 147 146 149 150
f 145 151 149 146
f 148 147 150 152
f 162 161 164 165
f 115 119 166 163
f 163 166 164 161
f 115 162 165 119
f 174 176 177 175
f 175 177 141 137
f 174 140 144 176
f 178 180 181 179
f 179 181 151 145
f 178 148 152 180
f 163 184 185 166
f 138 142 185 184
f 139 163 166 143
f 167 187 188 173
f 168 189 190 186
f 186 190 188 187
f 168 167 173 189
f 168 186 187 167
usemtl c51
f 31 34 99 100
f 7 101 102 11
f 11 102 99 34
f 7 31 100 101
f 104 103 107 108
f 105 109 110 106
f 106 110 107 103
f 105 104 108 109
f 59 62 115 116
f 45 117 118 47
f 47 118 115 62
f 45 59 116 117
f 120 119 123 124
f 121 125 126 122
f 122 126 123 119
f 121 120 124 125
f 125 124 123 126
f 38 137 138 52
f 35 49 139 140
f 141 145 146 142
f 144 143 147 148
f 150 149 153 154
f 151 155 153 149
f 152 150 154 156
f 75 78 161 162
f 62 115 163 63
f 63 163 161 78
f 62 75 162 115
f 165 164 167 128
f 119 123 168 166
f 166 168 167 164
f 119 165 128 123
f 123 128 167 168
f 15 174 175 19
f 19 175 137 38
f 15 35 140 174
f 176 178 179 177
f 177 179 145 141
f 176 144 148 178
f 63 66 184 163
f 52 138 184 66
f 49 63 163 139
f 166 185 186 168
f 142 146 186 185
f 143 166 168 147
f 147 168 186 146
f 173 188 191 192
f 189 193 194 190
f 190 194 191 188
f 189 173 192 193
usemtl c52
f 108 107 111 112
f 109 113 114 110
f 110 114 111 107
f 109 108 112 113
f 113 112 111 114
f 130 129 133 134
f 131 135 136 132
f 132 136 133 129
f 131 130 134 135
f 135 134 133 136
f 154 153 157 158
f 156 159 160 155
f 155 160 157 153
f 156 154 158 159
f 159 158 157 160
f 169 170 171 172
f 128 129 173 167
f 167 173 171 170
f 128 169 172 129
f 129 172 171 173
f 128 167 170 169
f 180 182 183 181
f 181 183 155 151
f 180 152 156 182
f 182 156 155 183
f 192 191 195 196
f 193 197 198 194
f 194 198 195 191
f 193 192 196 197
f 197 196 195 198
