# generado por tools/vox_to_obj.py desde grama_alta.vox
mtllib grama_alta.mtl
v -4.0000 0.0000 4.0000
v -4.0000 1.0000 4.0000
v -4.0000 1.0000 3.0000
v -4.0000 0.0000 3.0000
v -3.0000 0.0000 4.0000
v -3.0000 1.0000 4.0000
v -3.0000 0.0000 3.0000
v -4.0000 2.0000 4.0000
v -4.0000 2.0000 3.0000
v -3.0000 2.0000 4.0000
v -3.0000 2.0000 3.0000
v -4.0000 1.0000 2.0000
v -4.0000 0.0000 2.0000
v -3.0000 0.0000 2.0000
v -4.0000 2.0000 2.0000
v -3.0000 2.0000 2.0000
v -4.0000 1.0000 1.0000
v -4.0000 0.0000 1.0000
v -3.0000 0.0000 1.0000
v -4.0000 2.0000 1.0000
v -3.0000 2.0000 1.0000
v -4.0000 1.0000 0.0000
v -4.0000 0.0000 0.0000
v -3.0000 0.0000 0.0000
v -4.0000 2.0000 0.0000
v -3.0000 2.0000 0.0000
v -4.0000 1.0000 -1.0000
v -4.0000 0.0000 -1.0000
v -3.0000 0.0000 -1.0000
v -4.0000 2.0000 -1.0000
v -3.0000 2.0000 -1.0000
v -4.0000 1.0000 -2.0000
v -4.0000 0.0000 -2.0000
v -3.0000 0.0000 -2.0000
v -4.0000 2.0000 -2.0000
v -3.0000 2.0000 -2.0000
v -4.0000 1.0000 -3.0000
v -4.0000 0.0000 -3.0000
v -3.0000 0.0000 -3.0000
v -4.0000 2.0000 -3.0000
v -3.0000 2.0000 -3.0000
v -4.0000 1.0000 -4.0000
v -4.0000 0.0000 -4.0000
v -3.0000 1.0000 -4.0000
v -3.0000 0.0000 -4.0000
v -4.0000 2.0000 -4.0000
v -3.0000 2.0000 -4.0000
v -2.0000 0.0000 4.0000
v -2.0000 1.0000 4.0000
v -2.0000 0.0000 3.0000
v -2.0000 2.0000 4.0000
v -2.0000 2.0000 3.0000
v -2.0000 0.0000 2.0000
v -2.0000 2.0000 2.0000
v -2.0000 0.0000 1.0000
v -2.0000 2.0000 1.0000
v -2.0000 0.0000 0.0000
v -2.0000 0.0000 -1.0000
v -2.0000 2.0000 0.0000
v -2.0000 2.0000 -1.0000
v -2.0000 0.0000 -2.0000
v -2.0000 2.0000 -2.0000
v -2.0000 0.0000 -3.0000
v -2.0000 2.0000 -3.0000
v -2.0000 1.0000 -4.0000
v -2.0000 0.0000 -4.0000
v -2.0000 2.0000 -4.0000
v -1.0000 0.0000 4.0000
v -1.0000 1.0000 4.0000
v -1.0000 0.0000 3.0000
v -1.0000 2.0000 4.0000
v -1.0000 2.0000 3.0000
v -1.0000 0.0000 2.0000
v -1.0000 2.0000 2.0000
v -1.0000 0.0000 1.0000
v -1.0000 0.0000 0.0000
v -1.0000 2.0000 1.0000
v -1.0000 2.0000 0.0000
v -1.0000 0.0000 -1.0000
v -1.0000 0.0000 -2.0000
v -1.0000 2.0000 -1.0000
v -1.0000 2.0000 -2.0000
v -1.0000 0.0000 -3.0000
v -1.0000 2.0000 -3.0000
v -1.0000 1.0000 -4.0000
v -1.0000 0.0000 -4.0000
v -1.0000 2.0000 -4.0000
v 0.0000 0.0000 4.0000
v 0.0000 1.0000 4.0000
v 0.0000 0.0000 3.0000
v 0.0000 2.0000 4.0000
v 0.0000 2.0000 3.0000
v 0.0000 0.0000 2.0000
v 0.0000 0.0000 1.0000
v 0.0000 2.0000 2.0000
v 0.0000 2.0000 1.0000
v 0.0000 0.0000 0.0000
v 0.0000 0.0000 -1.0000
v 0.0000 2.0000 0.0000
v 0.0000 2.0000 -1.0000
v 0.0000 0.0000 -2.0000
v 0.0000 2.0000 -2.0000
v 0.0000 0.0000 -3.0000
v 0.0000 2.0000 -3.0000
v 0.0000 1.0000 -4.0000
v 0.0000 0.0000 -4.0000
v 0.0000 2.0000 -4.0000
v 1.0000 0.0000 4.0000
v 1.0000 1.0000 4.0000
v 1.0000 0.0000 3.0000
v 1.0000 2.0000 4.0000
v 1.0000 2.0000 3.0000
v 1.0000 0.0000 2.0000
v 1.0000 2.0000 2.0000
v 1.0000 0.0000 1.0000
v 1.0000 0.0000 0.0000
v 1.0000 2.0000 1.0000
v 1.0000 2.0000 0.0000
v 1.0000 0.0000 -1.0000
v 1.0000 0.0000 -2.0000
v 1.0000 2.0000 -1.0000
v 1.0000 2.0000 -2.0000
v 1.0000 0.0000 -3.0000
v 1.0000 2.0000 -3.0000
v 1.0000 1.0000 -4.0000
v 1.0000 0.0000 -4.0000
v 1.0000 2.0000 -4.0000
v 2.0000 0.0000 4.0000
v 2.0000 1.0000 4.0000
v 2.0000 0.0000 3.0000
v 2.0000 2.0000 4.0000
v 2.0000 2.0000 3.0000
v 2.0000 0.0000 2.0000
v 2.0000 0.0000 1.0000
v 2.0000 2.0000 2.0000
v 2.0000 2.0000 1.0000
v 2.0000 0.0000 0.0000
v 2.0000 0.0000 -1.0000
v 2.0000 2.0000 0.0000
v 2.0000 2.0000 -1.0000
v 2.0000 0.0000 -2.0000
v 2.0000 2.0000 -2.0000
v 2.0000 0.0000 -3.0000
v 2.0000 2.0000 -3.0000
v 2.0000 1.0000 -4.0000
v 2.0000 0.0000 -4.0000
v 2.0000 2.0000 -4.0000
v 3.0000 0.0000 4.0000
v 3.0000 1.0000 4.0000
v 3.0000 0.0000 3.0000
v 3.0000 2.0000 4.0000
v 3.0000 2.0000 3.0000
v 3.0000 0.0000 2.0000
v 3.0000 2.0000 2.0000
v 3.0000 0.0000 1.0000
v 3.0000 2.0000 1.0000
v 3.0000 0.0000 0.0000
v 3.0000 2.0000 0.0000
v 3.0000 0.0000 -1.0000
v 3.0000 2.0000 -1.0000
v 3.0000 0.0000 -2.0000
v 3.0000 2.0000 -2.0000
v 3.0000 0.0000 -3.0000
v 3.0000 2.0000 -3.0000
v 3.0000 1.0000 -4.0000
v 3.0000 0.0000 -4.0000
v 3.0000 2.0000 -4.0000
v 4.0000 0.0000 4.0000
v 4.0000 0.0000 3.0000
v 4.0000 1.0000 3.0000
v 4.0000 1.0000 4.0000
v 4.0000 2.0000 3.0000
v 4.0000 2.0000 4.0000
v 4.0000 0.0000 2.0000
v 4.0000 1.0000 2.0000
v 4.0000 2.0000 2.0000
v 4.0000 0.0000 1.0000
v 4.0000 1.0000 1.0000
v 4.0000 2.0000 1.0000
v 4.0000 0.0000 0.0000
v 4.0000 1.0000 0.0000
v 4.0000 2.0000 0.0000
v 4.0000 0.0000 -1.0000
v 4.0000 1.0000 -1.0000
v 4.0000 2.0000 -1.0000
v 4.0000 0.0000 -2.0000
v 4.0000 1.0000 -2.0000
v 4.0000 2.0000 -2.0000
v 4.0000 0.0000 -3.0000
v 4.0000 1.0000 -3.0000
v 4.0000 2.0000 -3.0000
v 4.0000 0.0000 -4.0000
v 4.0000 1.0000 -4.0000
v 4.0000 2.0000 -4.0000
v -1.0000 3.0000 1.0000
v -1.0000 3.0000 2.0000
v -2.0000 3.0000 2.0000
v -2.0000 3.0000 1.0000
v -1.0000 4.0000 1.0000
v -1.0000 4.0000 2.0000
v -2.0000 4.0000 2.0000
v -2.0000 4.0000 1.0000
v -1.0000 5.0000 1.0000
v -1.0000 5.0000 2.0000
v -2.0000 5.0000 2.0000
v -2.0000 5.0000 1.0000
v -1.0000 6.0000 1.0000
v -1.0000 6.0000 2.0000
v -2.0000 6.0000 2.0000
v -2.0000 6.0000 1.0000
v -2.0000 7.0000 1.0000
v -2.0000 7.0000 2.0000
v -3.0000 6.0000 2.0000
v -3.0000 7.0000 2.0000
v -3.0000 7.0000 1.0000
v -3.0000 6.0000 1.0000
v -2.0000 7.0000 3.0000
v -2.0000 8.0000 2.0000
v -2.0000 8.0000 3.0000
v -3.0000 7.0000 3.0000
v -3.0000 8.0000 3.0000
v -3.0000 8.0000 2.0000
v -2.0000 9.0000 2.0000
v -2.0000 9.0000 3.0000
v -3.0000 9.0000 3.0000
v -3.0000 9.0000 2.0000
v -2.0000 10.0000 2.0000
v -2.0000 10.0000 3.0000
v -3.0000 10.0000 3.0000
v -3.0000 10.0000 2.0000
v -2.0000 10.0000 1.0000
v -2.0000 11.0000 1.0000
v -2.0000 11.0000 2.0000
v -3.0000 11.0000 2.0000
v -3.0000 11.0000 1.0000
v -3.0000 10.0000 1.0000
v 0.0000 3.0000 2.0000
v 0.0000 3.0000 3.0000
v -1.0000 3.0000 3.0000
v 0.0000 4.0000 2.0000
v 0.0000 4.0000 3.0000
v -1.0000 4.0000 3.0000
v 0.0000 5.0000 2.0000
v 0.0000 5.0000 3.0000
v -1.0000 5.0000 3.0000
v 0.0000 6.0000 2.0000
v 0.0000 6.0000 3.0000
v -1.0000 6.0000 3.0000
v 0.0000 7.0000 2.0000
v 0.0000 7.0000 3.0000
v -1.0000 7.0000 3.0000
v -1.0000 7.0000 2.0000
v 0.0000 7.0000 4.0000
v 0.0000 8.0000 3.0000
v 0.0000 8.0000 4.0000
v -1.0000 7.0000 4.0000
v -1.0000 8.0000 4.0000
v -1.0000 8.0000 3.0000
v 0.0000 9.0000 3.0000
v 0.0000 9.0000 4.0000
v -1.0000 9.0000 4.0000
v -1.0000 9.0000 3.0000
v 0.0000 10.0000 3.0000
v 0.0000 10.0000 4.0000
v -1.0000 10.0000 4.0000
v -1.0000 10.0000 3.0000
v 0.0000 11.0000 3.0000
v 0.0000 11.0000 4.0000
v -1.0000 11.0000 4.0000
v -1.0000 11.0000 3.0000
v 0.0000 11.0000 2.0000
v 0.0000 12.0000 2.0000
v 0.0000 12.0000 3.0000
v -1.0000 12.0000 3.0000
v -1.0000 12.0000 2.0000
v -1.0000 11.0000 2.0000
v 1.0000 3.0000 1.0000
v 1.0000 3.0000 2.0000
v 0.0000 3.0000 1.0000
v 1.0000 4.0000 1.0000
v 1.0000 4.0000 2.0000
v 0.0000 4.0000 1.0000
v 1.0000 5.0000 1.0000
v 1.0000 5.0000 2.0000
v 0.0000 5.0000 1.0000
v 1.0000 6.0000 1.0000
v 1.0000 6.0000 2.0000
v 0.0000 6.0000 1.0000
v 2.0000 6.0000 2.0000
v 2.0000 6.0000 1.0000
v 2.0000 7.0000 1.0000
v 2.0000 7.0000 2.0000
v 1.0000 7.0000 2.0000
v 1.0000 7.0000 1.0000
v 2.0000 7.0000 3.0000
v 2.0000 8.0000 2.0000
v 2.0000 8.0000 3.0000
v 1.0000 7.0000 3.0000
v 1.0000 8.0000 3.0000
v 1.0000 8.0000 2.0000
v 2.0000 9.0000 2.0000
v 2.0000 9.0000 3.0000
v 1.0000 9.0000 3.0000
v 1.0000 9.0000 2.0000
v 2.0000 10.0000 2.0000
v 2.0000 10.0000 3.0000
v 1.0000 10.0000 3.0000
v 1.0000 10.0000 2.0000
v 1.0000 11.0000 3.0000
v 1.0000 11.0000 2.0000
v 2.0000 11.0000 2.0000
v 2.0000 11.0000 3.0000
v 2.0000 12.0000 2.0000
v 2.0000 12.0000 3.0000
v 1.0000 12.0000 3.0000
v 1.0000 12.0000 2.0000
v 2.0000 12.0000 1.0000
v 2.0000 13.0000 1.0000
v 2.0000 13.0000 2.0000
v 1.0000 13.0000 2.0000
v 1.0000 13.0000 1.0000
v 1.0000 12.0000 1.0000
v 2.0000 3.0000 0.0000
v 2.0000 3.0000 1.0000
v 1.0000 3.0000 0.0000
v 2.0000 4.0000 0.0000
v 2.0000 4.0000 1.0000
v 1.0000 4.0000 0.0000
v 2.0000 5.0000 0.0000
v 2.0000 5.0000 1.0000
v 1.0000 5.0000 0.0000
v 2.0000 6.0000 0.0000
v 1.0000 6.0000 0.0000
v 1.0000 7.0000 0.0000
v 0.0000 7.0000 1.0000
v 0.0000 7.0000 0.0000
v 0.0000 6.0000 0.0000
v 1.0000 8.0000 0.0000
v 1.0000 8.0000 1.0000
v 0.0000 8.0000 1.0000
v 0.0000 8.0000 0.0000
v 1.0000 9.0000 0.0000
v 1.0000 9.0000 1.0000
v 0.0000 9.0000 1.0000
v 0.0000 9.0000 0.0000
v 1.0000 10.0000 0.0000
v 1.0000 10.0000 1.0000
v 0.0000 10.0000 1.0000
v 0.0000 10.0000 0.0000
v 1.0000 11.0000 0.0000
v 1.0000 11.0000 1.0000
v 0.0000 11.0000 1.0000
v 0.0000 11.0000 0.0000
v 1.0000 12.0000 0.0000
v 0.0000 12.0000 1.0000
v 0.0000 12.0000 0.0000
v 1.0000 13.0000 0.0000
v 0.0000 13.0000 1.0000
v 0.0000 13.0000 0.0000
v 1.0000 13.0000 -1.0000
v 1.0000 14.0000 -1.0000
v 1.0000 14.0000 0.0000
v 0.0000 14.0000 0.0000
v 0.0000 14.0000 -1.0000
v 0.0000 13.0000 -1.0000
v -1.0000 3.0000 -1.0000
v -1.0000 3.0000 0.0000
v -2.0000 3.0000 0.0000
v -2.0000 3.0000 -1.0000
v -1.0000 4.0000 -1.0000
v -1.0000 4.0000 0.0000
v -2.0000 4.0000 0.0000
v -2.0000 4.0000 -1.0000
v -1.0000 5.0000 -1.0000
v -1.0000 5.0000 0.0000
v -2.0000 5.0000 0.0000
v -2.0000 5.0000 -1.0000
v -1.0000 6.0000 -1.0000
v -1.0000 6.0000 0.0000
v -2.0000 6.0000 0.0000
v -2.0000 6.0000 -1.0000
v -1.0000 7.0000 -1.0000
v -1.0000 7.0000 0.0000
v -2.0000 7.0000 0.0000
v -2.0000 7.0000 -1.0000
v -1.0000 8.0000 -1.0000
v -1.0000 8.0000 0.0000
v -2.0000 8.0000 -1.0000
v -2.0000 8.0000 0.0000
v -1.0000 9.0000 -1.0000
v -1.0000 9.0000 0.0000
v -2.0000 9.0000 -1.0000
v -2.0000 9.0000 0.0000
v -1.0000 10.0000 -1.0000
v -1.0000 10.0000 0.0000
v -2.0000 10.0000 -1.0000
v -2.0000 10.0000 0.0000
v -1.0000 10.0000 -2.0000
v -1.0000 11.0000 -2.0000
v -1.0000 11.0000 -1.0000
v -2.0000 11.0000 -1.0000
v -2.0000 11.0000 -2.0000
v -2.0000 10.0000 -2.0000
v 1.0000 3.0000 -1.0000
v 0.0000 3.0000 0.0000
v 0.0000 3.0000 -1.0000
v 1.0000 4.0000 -1.0000
v 0.0000 4.0000 0.0000
v 0.0000 4.0000 -1.0000
v 1.0000 5.0000 -1.0000
v 0.0000 5.0000 0.0000
v 0.0000 5.0000 -1.0000
v 1.0000 6.0000 -1.0000
v 0.0000 6.0000 -1.0000
v 2.0000 6.0000 -1.0000
v 2.0000 7.0000 -1.0000
v 2.0000 7.0000 0.0000
v 1.0000 7.0000 -1.0000
v 2.0000 8.0000 -1.0000
v 2.0000 8.0000 0.0000
v 1.0000 8.0000 -1.0000
v 2.0000 9.0000 -1.0000
v 2.0000 9.0000 0.0000
v 1.0000 9.0000 -1.0000
v 2.0000 10.0000 -1.0000
v 2.0000 10.0000 0.0000
v 1.0000 10.0000 -1.0000
v 2.0000 11.0000 -1.0000
v 2.0000 11.0000 0.0000
v 1.0000 11.0000 -1.0000
v 2.0000 11.0000 -2.0000
v 2.0000 12.0000 -2.0000
v 2.0000 12.0000 -1.0000
v 1.0000 12.0000 -1.0000
v 1.0000 12.0000 -2.0000
v 1.0000 11.0000 -2.0000
v -1.0000 7.0000 1.0000
v -1.0000 11.0000 0.0000
v -2.0000 11.0000 0.0000
v -1.0000 12.0000 -1.0000
v -1.0000 12.0000 0.0000
v -2.0000 12.0000 -1.0000
v -2.0000 12.0000 0.0000
v -1.0000 12.0000 1.0000
v -1.0000 13.0000 0.0000
v -1.0000 13.0000 1.0000
v -2.0000 12.0000 1.0000
v -2.0000 13.0000 1.0000
v -2.0000 13.0000 0.0000
v -3.0000 3.0000 1.0000
v -3.0000 3.0000 0.0000
v -3.0000 4.0000 1.0000
v -3.0000 4.0000 0.0000
v -3.0000 5.0000 1.0000
v -3.0000 5.0000 0.0000
v -3.0000 6.0000 0.0000
v -3.0000 7.0000 0.0000
v -3.0000 8.0000 0.0000
v -3.0000 8.0000 -1.0000
v -3.0000 7.0000 -1.0000
v -3.0000 9.0000 0.0000
v -3.0000 9.0000 -1.0000
v -3.0000 10.0000 0.0000
v -3.0000 10.0000 -1.0000
v -3.0000 11.0000 0.0000
v -3.0000 11.0000 -1.0000
v -3.0000 12.0000 0.0000
v -3.0000 12.0000 -1.0000
v -2.0000 13.0000 -1.0000
v -3.0000 13.0000 0.0000
v -3.0000 13.0000 -1.0000
v -2.0000 14.0000 0.0000
v -2.0000 14.0000 1.0000
v -3.0000 13.0000 1.0000
v -3.0000 14.0000 1.0000
v -3.0000 14.0000 0.0000
v 2.0000 3.0000 2.0000
v 2.0000 3.0000 3.0000
v 1.0000 3.0000 3.0000
v 2.0000 4.0000 2.0000
v 2.0000 4.0000 3.0000
v 1.0000 4.0000 3.0000
v 2.0000 5.0000 2.0000
v 2.0000 5.0000 3.0000
v 1.0000 5.0000 3.0000
v 2.0000 6.0000 3.0000
v 1.0000 6.0000 3.0000
v 3.0000 6.0000 3.0000
v 3.0000 6.0000 2.0000
v 3.0000 7.0000 2.0000
v 3.0000 7.0000 3.0000
v 3.0000 7.0000 1.0000
v 3.0000 8.0000 1.0000
v 3.0000 8.0000 2.0000
v 2.0000 8.0000 1.0000
v 3.0000 9.0000 1.0000
v 3.0000 9.0000 2.0000
v 2.0000 9.0000 1.0000
v 3.0000 10.0000 1.0000
v 3.0000 10.0000 2.0000
v 2.0000 10.0000 1.0000
v 3.0000 10.0000 3.0000
v 3.0000 11.0000 2.0000
v 3.0000 11.0000 3.0000
usemtl c1
f 74 77 195 196
f 54 197 198 56
f 56 198 195 77
f 54 74 196 197
f 196 195 199 200
f 197 201 202 198
f 198 202 199 195
f 197 196 200 201
f 200 199 203 204
f 201 205 206 202
f 202 206 203 199
f 201 200 204 205
f 204 203 207 208
f 205 209 210 206
f 206 210 207 203
f 205 204 208 209
f 209 208 207 210
f 209 210 211 212
f 213 214 215 216
f 213 209 212 214
f 214 212 211 215
f 213 216 210 209
f 217 212 218 219
f 220 221 222 214
f 214 222 218 212
f 220 217 219 221
f 220 214 212 217
f 92 95 237 238
f 72 239 196 74
f 74 196 237 95
f 72 92 238 239
f 238 237 240 241
f 239 242 200 196
f 196 200 240 237
f 239 238 241 242
f 241 240 243 244
f 242 245 204 200
f 200 204 243 240
f 242 241 244 245
f 244 243 246 247
f 245 248 208 204
f 204 208 246 243
f 245 244 247 248
f 247 246 249 250
f 248 251 252 208
f 208 252 249 246
f 248 247 250 251
f 251 250 249 252
f 253 250 254 255
f 256 257 258 251
f 251 258 254 250
f 256 253 255 257
f 256 251 250 253
f 255 254 259 260
f 257 261 262 258
f 258 262 259 254
f 257 255 260 261
f 114 117 277 278
f 95 237 279 96
f 96 279 277 117
f 95 114 278 237
f 278 277 280 281
f 237 240 282 279
f 279 282 280 277
f 237 278 281 240
f 281 280 283 284
f 240 243 285 282
f 282 285 283 280
f 240 281 284 243
f 284 283 286 287
f 243 246 288 285
f 285 288 286 283
f 243 284 287 246
f 246 287 286 288
f 289 290 291 292
f 287 293 294 286
f 286 294 291 290
f 287 289 292 293
f 293 292 291 294
f 287 286 290 289
f 295 292 296 297
f 298 299 300 293
f 293 300 296 292
f 298 295 297 299
f 298 293 292 295
f 297 296 301 302
f 299 303 304 300
f 300 304 301 296
f 299 297 302 303
f 302 301 305 306
f 303 307 308 304
f 304 308 305 301
f 303 302 306 307
f 136 139 323 324
f 117 277 325 118
f 118 325 323 139
f 117 136 324 277
f 324 323 326 327
f 277 280 328 325
f 325 328 326 323
f 277 324 327 280
f 327 326 329 330
f 280 283 331 328
f 328 331 329 326
f 280 327 330 283
f 330 329 332 290
f 283 286 333 331
f 331 333 332 329
f 283 330 290 286
f 286 290 332 333
f 286 333 334 294
f 288 335 336 337
f 337 336 334 333
f 288 286 294 335
f 288 337 333 286
f 294 334 338 339
f 335 340 341 336
f 336 341 338 334
f 335 294 339 340
f 339 338 342 343
f 340 344 345 341
f 341 345 342 338
f 340 339 343 344
f 343 342 346 347
f 344 348 349 345
f 345 349 346 342
f 344 343 347 348
f 347 346 350 351
f 348 352 353 349
f 349 353 350 346
f 348 347 351 352
f 78 81 366 367
f 59 368 369 60
f 60 369 366 81
f 59 78 367 368
f 367 366 370 371
f 368 372 373 369
f 369 373 370 366
f 368 367 371 372
f 371 370 374 375
f 372 376 377 373
f 373 377 374 370
f 372 371 375 376
f 375 374 378 379
f 376 380 381 377
f 377 381 378 374
f 376 375 379 380
f 379 378 382 383
f 380 384 385 381
f 381 385 382 378
f 383 382 386 387
f 385 388 386 382
f 384 383 387 389
f 387 386 390 391
f 388 392 390 386
f 389 387 391 393
f 391 390 394 395
f 392 396 394 390
f 393 391 395 397
f 118 121 404 325
f 99 405 406 100
f 100 406 404 121
f 99 118 325 405
f 325 404 407 328
f 405 408 409 406
f 406 409 407 404
f 405 325 328 408
f 328 407 410 331
f 408 411 412 409
f 409 412 410 407
f 408 328 331 411
f 331 410 413 333
f 411 337 414 412
f 412 414 413 410
f 411 331 333 337
f 337 333 413 414
f 332 415 416 417
f 333 334 418 413
f 413 418 416 415
f 333 332 417 334
f 333 413 415 332
f 417 416 419 420
f 334 338 421 418
f 418 421 419 416
f 334 417 420 338
f 420 419 422 423
f 338 342 424 421
f 421 424 422 419
f 338 420 423 342
f 96 99 405 279
f 77 195 367 78
f 78 367 405 99
f 77 96 279 195
f 279 405 408 282
f 195 199 371 367
f 367 371 408 405
f 195 279 282 199
f 282 408 411 285
f 199 203 375 371
f 371 375 411 408
f 199 282 285 203
f 285 411 337 288
f 203 207 379 375
f 375 379 337 411
f 203 285 288 207
f 207 288 337 379
f 207 379 383 437
f 210 207 437 211
f 211 437 383 384
f 210 380 379 207
f 56 59 368 198
f 21 450 451 26
f 26 451 368 59
f 21 56 198 450
f 198 368 372 202
f 450 452 453 451
f 451 453 372 368
f 450 198 202 452
f 202 372 376 206
f 452 454 455 453
f 453 455 376 372
f 452 202 206 454
f 206 376 380 210
f 454 216 456 455
f 455 456 380 376
f 454 206 210 216
f 216 215 457 456
f 456 457 384 380
f 215 211 384 457
f 457 458 459 460
f 460 459 388 385
f 457 384 389 458
f 457 460 385 384
f 458 461 462 459
f 459 462 392 388
f 458 389 393 461
f 461 463 464 462
f 462 464 396 392
f 461 393 397 463
f 463 465 466 464
f 464 466 401 396
f 463 397 439 465
f 132 135 477 478
f 112 479 278 114
f 114 278 477 135
f 112 132 478 479
f 478 477 480 481
f 479 482 281 278
f 278 281 480 477
f 479 478 481 482
f 481 480 483 484
f 482 485 284 281
f 281 284 483 480
f 482 481 484 485
f 484 483 289 486
f 485 487 287 284
f 284 287 289 483
f 485 484 486 487
f 487 486 289 287
f 488 489 490 491
f 486 295 292 289
f 289 292 490 489
f 486 488 491 295
f 295 491 490 292
f 486 289 489 488
f 490 492 493 494
f 292 296 495 291
f 291 495 493 492
f 292 490 494 296
f 292 291 492 490
usemtl c3
f 219 218 223 224
f 221 225 226 222
f 222 226 223 218
f 221 219 224 225
f 224 223 227 228
f 225 229 230 226
f 226 230 227 223
f 225 224 228 229
f 229 228 227 230
f 227 231 232 233
f 230 234 235 236
f 236 235 232 231
f 230 227 233 234
f 234 233 232 235
f 230 236 231 227
f 260 259 263 264
f 261 265 266 262
f 262 266 263 259
f 261 260 264 265
f 264 263 267 268
f 265 269 270 266
f 266 270 267 263
f 265 264 268 269
f 269 268 267 270
f 267 271 272 273
f 270 274 275 276
f 276 275 272 271
f 270 267 273 274
f 274 273 272 275
f 270 276 271 267
f 307 309 310 308
f 308 310 311 305
f 307 306 312 309
f 312 311 313 314
f 309 315 316 310
f 310 316 313 311
f 309 312 314 315
f 315 314 313 316
f 313 317 318 319
f 316 320 321 322
f 322 321 318 317
f 316 313 319 320
f 320 319 318 321
f 316 322 317 313
f 351 350 354 322
f 352 355 356 353
f 353 356 354 350
f 352 351 322 355
f 322 354 357 321
f 355 358 359 356
f 356 359 357 354
f 355 322 321 358
f 358 321 357 359
f 357 360 361 362
f 359 363 364 365
f 365 364 361 360
f 359 357 362 363
f 363 362 361 364
f 359 365 360 357
f 394 398 399 400
f 396 401 402 403
f 403 402 399 398
f 401 400 399 402
f 396 403 398 394
f 423 422 425 426
f 342 346 427 424
f 424 427 425 422
f 342 423 426 346
f 426 425 428 429
f 346 350 430 427
f 427 430 428 425
f 346 426 429 350
f 350 429 428 430
f 428 431 432 433
f 430 434 435 436
f 436 435 432 431
f 430 428 433 434
f 434 433 432 435
f 430 436 431 428
f 395 394 400 438
f 397 395 438 439
f 438 400 440 441
f 401 442 440 400
f 439 438 441 443
f 443 441 440 442
f 444 441 445 446
f 447 448 449 443
f 443 449 445 441
f 447 444 446 448
f 448 446 445 449
f 447 443 441 444
f 465 467 468 466
f 466 468 442 401
f 465 439 443 467
f 443 442 469 449
f 467 470 471 468
f 468 471 469 442
f 467 443 449 470
f 470 449 469 471
f 448 449 472 473
f 474 475 476 470
f 470 476 472 449
f 474 448 473 475
f 475 473 472 476
f 474 470 449 448
f 494 493 496 497
f 296 301 498 495
f 495 498 496 493
f 296 494 497 301
f 497 496 499 500
f 301 305 501 498
f 498 501 499 496
f 301 497 500 305
f 305 500 499 501
f 502 500 503 504
f 305 311 503 500
f 306 502 504 312
f 312 504 503 311
f 306 305 500 502
usemtl c4
f 1 2 3 4
f 1 5 6 2
f 1 4 7 5
f 2 8 9 3
f 2 6 10 8
f 8 10 11 9
f 4 3 12 13
f 4 13 14 7
f 3 9 15 12
f 9 11 16 15
f 13 12 17 18
f 13 18 19 14
f 12 15 20 17
f 15 16 21 20
f 18 17 22 23
f 18 23 24 19
f 17 20 25 22
f 20 21 26 25
f 23 22 27 28
f 23 28 29 24
f 22 25 30 27
f 25 26 31 30
f 28 27 32 33
f 28 33 34 29
f 27 30 35 32
f 30 31 36 35
f 33 32 37 38
f 33 38 39 34
f 32 35 40 37
f 35 36 41 40
f 38 37 42 43
f 43 42 44 45
f 38 43 45 39
f 37 40 46 42
f 42 46 47 44
f 40 41 47 46
f 5 48 49 6
f 5 7 50 48
f 6 49 51 10
f 10 51 52 11
f 7 14 53 50
f 11 52 54 16
f 14 19 55 53
f 16 54 56 21
f 19 24 57 55
f 24 29 58 57
f 26 59 60 31
f 29 34 61 58
f 31 60 62 36
f 34 39 63 61
f 36 62 64 41
f 45 44 65 66
f 39 45 66 63
f 44 47 67 65
f 41 64 67 47
f 48 68 69 49
f 48 50 70 68
f 49 69 71 51
f 51 71 72 52
f 50 53 73 70
f 52 72 74 54
f 53 55 75 73
f 55 57 76 75
f 56 77 78 59
f 57 58 79 76
f 58 61 80 79
f 60 81 82 62
f 61 63 83 80
f 62 82 84 64
f 66 65 85 86
f 63 66 86 83
f 65 67 87 85
f 64 84 87 67
f 68 88 89 69
f 68 70 90 88
f 69 89 91 71
f 71 91 92 72
f 70 73 93 90
f 73 75 94 93
f 74 95 96 77
f 75 76 97 94
f 76 79 98 97
f 78 99 100 81
f 79 80 101 98
f 81 100 102 82
f 80 83 103 101
f 82 102 104 84
f 86 85 105 106
f 83 86 106 103
f 85 87 107 105
f 84 104 107 87
f 88 108 109 89
f 88 90 110 108
f 89 109 111 91
f 91 111 112 92
f 90 93 113 110
f 92 112 114 95
f 93 94 115 113
f 94 97 116 115
f 96 117 118 99
f 97 98 119 116
f 98 101 120 119
f 100 121 122 102
f 101 103 123 120
f 102 122 124 104
f 106 105 125 126
f 103 106 126 123
f 105 107 127 125
f 104 124 127 107
f 108 128 129 109
f 108 110 130 128
f 109 129 131 111
f 111 131 132 112
f 110 113 133 130
f 113 115 134 133
f 114 135 136 117
f 115 116 137 134
f 116 119 138 137
f 118 139 140 121
f 119 120 141 138
f 121 140 142 122
f 120 123 143 141
f 122 142 144 124
f 126 125 145 146
f 123 126 146 143
f 125 127 147 145
f 124 144 147 127
f 128 148 149 129
f 128 130 150 148
f 129 149 151 131
f 131 151 152 132
f 130 133 153 150
f 132 152 154 135
f 133 134 155 153
f 135 154 156 136
f 134 137 157 155
f 136 156 158 139
f 137 138 159 157
f 139 158 160 140
f 138 141 161 159
f 140 160 162 142
f 141 143 163 161
f 142 162 164 144
f 146 145 165 166
f 143 146 166 163
f 145 147 167 165
f 144 164 167 147
f 168 169 170 171
f 148 168 171 149
f 148 150 169 168
f 171 170 172 173
f 149 171 173 151
f 151 173 172 152
f 169 174 175 170
f 150 153 174 169
f 170 175 176 172
f 152 172 176 154
f 174 177 178 175
f 153 155 177 174
f 175 178 179 176
f 154 176 179 156
f 177 180 181 178
f 155 157 180 177
f 178 181 182 179
f 156 179 182 158
f 180 183 184 181
f 157 159 183 180
f 181 184 185 182
f 158 182 185 160
f 183 186 187 184
f 159 161 186 183
f 184 187 188 185
f 160 185 188 162
f 186 189 190 187
f 161 163 189 186
f 187 190 191 188
f 162 188 191 164
f 189 192 193 190
f 166 165 193 192
f 163 166 192 189
f 190 193 194 191
f 165 167 194 193
f 164 191 194 167
