# generado por tools/vox_to_obj.py desde jugador_walk_f4.vox
mtllib jugador_walk_f4.mtl
v -3.0000 13.0000 2.0000
v -3.0000 14.0000 2.0000
v -3.0000 14.0000 1.0000
v -3.0000 13.0000 1.0000
v -2.0000 13.0000 2.0000
v -2.0000 14.0000 2.0000
v -3.0000 15.0000 2.0000
v -3.0000 15.0000 1.0000
v -2.0000 15.0000 2.0000
v -3.0000 16.0000 2.0000
v -3.0000 16.0000 1.0000
v -2.0000 16.0000 2.0000
v -3.0000 17.0000 2.0000
v -3.0000 17.0000 1.0000
v -2.0000 17.0000 2.0000
v -3.0000 18.0000 2.0000
v -3.0000 18.0000 1.0000
v -2.0000 18.0000 2.0000
v -3.0000 19.0000 2.0000
v -3.0000 19.0000 1.0000
v -2.0000 19.0000 2.0000
v -3.0000 20.0000 2.0000
v -3.0000 20.0000 1.0000
v -2.0000 20.0000 2.0000
v -3.0000 21.0000 2.0000
v -3.0000 21.0000 1.0000
v -2.0000 21.0000 2.0000
v -3.0000 22.0000 2.0000
v -3.0000 22.0000 1.0000
v -2.0000 22.0000 2.0000
v -3.0000 23.0000 2.0000
v -3.0000 23.0000 1.0000
v -2.0000 23.0000 2.0000
v -2.0000 23.0000 1.0000
v -3.0000 14.0000 0.0000
v -3.0000 13.0000 0.0000
v -2.0000 13.0000 0.0000
v -2.0000 13.0000 1.0000
v -3.0000 15.0000 0.0000
v -3.0000 16.0000 0.0000
v -3.0000 17.0000 0.0000
v -3.0000 18.0000 0.0000
v -3.0000 19.0000 0.0000
v -3.0000 20.0000 0.0000
v -3.0000 21.0000 0.0000
v -3.0000 22.0000 0.0000
v -3.0000 23.0000 0.0000
v -2.0000 23.0000 0.0000
v -3.0000 14.0000 -1.0000
v -3.0000 13.0000 -1.0000
v -2.0000 13.0000 -1.0000
v -3.0000 15.0000 -1.0000
v -3.0000 16.0000 -1.0000
v -3.0000 17.0000 -1.0000
v -3.0000 18.0000 -1.0000
v -3.0000 19.0000 -1.0000
v -3.0000 20.0000 -1.0000
v -3.0000 21.0000 -1.0000
v -3.0000 22.0000 -1.0000
v -3.0000 23.0000 -1.0000
v -2.0000 23.0000 -1.0000
v -3.0000 13.0000 -2.0000
v -3.0000 14.0000 -2.0000
v -2.0000 14.0000 -2.0000
v -2.0000 13.0000 -2.0000
v -3.0000 15.0000 -2.0000
v -2.0000 15.0000 -2.0000
v -3.0000 16.0000 -2.0000
v -2.0000 16.0000 -2.0000
v -3.0000 17.0000 -2.0000
v -2.0000 17.0000 -2.0000
v -3.0000 18.0000 -2.0000
v -2.0000 18.0000 -2.0000
v -3.0000 19.0000 -2.0000
v -2.0000 19.0000 -2.0000
v -3.0000 20.0000 -2.0000
v -2.0000 20.0000 -2.0000
v -3.0000 21.0000 -2.0000
v -2.0000 21.0000 -2.0000
v -3.0000 22.0000 -2.0000
v -2.0000 22.0000 -2.0000
v -3.0000 23.0000 -2.0000
v -2.0000 23.0000 -2.0000
v -1.0000 13.0000 2.0000
v -1.0000 14.0000 2.0000
v -1.0000 15.0000 2.0000
v -1.0000 16.0000 2.0000
v -1.0000 17.0000 2.0000
v -1.0000 18.0000 2.0000
v -1.0000 19.0000 2.0000
v -1.0000 20.0000 2.0000
v -1.0000 21.0000 2.0000
v -1.0000 22.0000 2.0000
v -1.0000 23.0000 2.0000
v -1.0000 13.0000 0.0000
v -1.0000 13.0000 1.0000
v -1.0000 13.0000 -1.0000
v -1.0000 14.0000 -2.0000
v -1.0000 13.0000 -2.0000
v -1.0000 15.0000 -2.0000
v -1.0000 16.0000 -2.0000
v -1.0000 17.0000 -2.0000
v -1.0000 18.0000 -2.0000
v -1.0000 19.0000 -2.0000
v -1.0000 20.0000 -2.0000
v -1.0000 21.0000 -2.0000
v -1.0000 22.0000 -2.0000
v -1.0000 23.0000 -2.0000
v 0.0000 13.0000 2.0000
v 0.0000 14.0000 2.0000
v 0.0000 13.0000 1.0000
v 0.0000 15.0000 2.0000
v 0.0000 16.0000 2.0000
v 0.0000 17.0000 2.0000
v 0.0000 18.0000 2.0000
v 0.0000 19.0000 2.0000
v 0.0000 20.0000 2.0000
v 0.0000 21.0000 2.0000
v 0.0000 22.0000 2.0000
v 0.0000 23.0000 2.0000
v 0.0000 13.0000 0.0000
v 0.0000 13.0000 -1.0000
v 0.0000 14.0000 -2.0000
v 0.0000 13.0000 -2.0000
v 0.0000 15.0000 -2.0000
v 0.0000 16.0000 -2.0000
v 0.0000 17.0000 -2.0000
v 0.0000 18.0000 -2.0000
v 0.0000 19.0000 -2.0000
v 0.0000 20.0000 -2.0000
v 0.0000 21.0000 -2.0000
v 0.0000 22.0000 -2.0000
v 0.0000 23.0000 -2.0000
v 1.0000 13.0000 2.0000
v 1.0000 14.0000 2.0000
v 1.0000 13.0000 1.0000
v 1.0000 15.0000 2.0000
v 1.0000 16.0000 2.0000
v 1.0000 17.0000 2.0000
v 1.0000 18.0000 2.0000
v 1.0000 19.0000 2.0000
v 1.0000 20.0000 2.0000
v 1.0000 21.0000 2.0000
v 1.0000 22.0000 2.0000
v 1.0000 23.0000 2.0000
v 1.0000 13.0000 0.0000
v 1.0000 13.0000 -1.0000
v 1.0000 14.0000 -2.0000
v 1.0000 13.0000 -2.0000
v 1.0000 15.0000 -2.0000
v 1.0000 16.0000 -2.0000
v 1.0000 17.0000 -2.0000
v 1.0000 18.0000 -2.0000
v 1.0000 19.0000 -2.0000
v 1.0000 20.0000 -2.0000
v 1.0000 21.0000 -2.0000
v 1.0000 22.0000 -2.0000
v 1.0000 23.0000 -2.0000
v 2.0000 13.0000 2.0000
v 2.0000 14.0000 2.0000
v 2.0000 15.0000 2.0000
v 2.0000 16.0000 2.0000
v 2.0000 17.0000 2.0000
v 2.0000 18.0000 2.0000
v 2.0000 19.0000 2.0000
v 2.0000 20.0000 2.0000
v 2.0000 21.0000 2.0000
v 2.0000 22.0000 2.0000
v 2.0000 23.0000 2.0000
v 2.0000 14.0000 -2.0000
v 2.0000 13.0000 -2.0000
v 2.0000 13.0000 -1.0000
v 2.0000 15.0000 -2.0000
v 2.0000 16.0000 -2.0000
v 2.0000 17.0000 -2.0000
v 2.0000 18.0000 -2.0000
v 2.0000 19.0000 -2.0000
v 2.0000 20.0000 -2.0000
v 2.0000 21.0000 -2.0000
v 2.0000 22.0000 -2.0000
v 2.0000 23.0000 -2.0000
v 3.0000 13.0000 2.0000
v 3.0000 14.0000 2.0000
v 3.0000 15.0000 2.0000
v 3.0000 16.0000 2.0000
v 3.0000 17.0000 2.0000
v 3.0000 18.0000 2.0000
v 3.0000 19.0000 2.0000
v 3.0000 20.0000 2.0000
v 3.0000 21.0000 2.0000
v 3.0000 22.0000 2.0000
v 3.0000 22.0000 1.0000
v 3.0000 23.0000 1.0000
v 3.0000 23.0000 2.0000
v 2.0000 23.0000 1.0000
v 3.0000 13.0000 1.0000
v 3.0000 13.0000 0.0000
v 3.0000 14.0000 0.0000
v 3.0000 14.0000 1.0000
v 3.0000 15.0000 0.0000
v 3.0000 15.0000 1.0000
v 3.0000 16.0000 0.0000
v 3.0000 16.0000 1.0000
v 3.0000 17.0000 0.0000
v 3.0000 17.0000 1.0000
v 3.0000 18.0000 0.0000
v 3.0000 18.0000 1.0000
v 3.0000 19.0000 0.0000
v 3.0000 19.0000 1.0000
v 3.0000 20.0000 0.0000
v 3.0000 20.0000 1.0000
v 3.0000 21.0000 0.0000
v 3.0000 21.0000 1.0000
v 3.0000 22.0000 0.0000
v 3.0000 23.0000 0.0000
v 2.0000 23.0000 0.0000
v 3.0000 13.0000 -1.0000
v 3.0000 14.0000 -1.0000
v 3.0000 15.0000 -1.0000
v 3.0000 16.0000 -1.0000
v 3.0000 17.0000 -1.0000
v 3.0000 18.0000 -1.0000
v 3.0000 19.0000 -1.0000
v 3.0000 20.0000 -1.0000
v 3.0000 21.0000 -1.0000
v 3.0000 22.0000 -1.0000
v 3.0000 23.0000 -1.0000
v 2.0000 23.0000 -1.0000
v 3.0000 13.0000 -2.0000
v 3.0000 14.0000 -2.0000
v 3.0000 15.0000 -2.0000
v 3.0000 16.0000 -2.0000
v 3.0000 17.0000 -2.0000
v 3.0000 18.0000 -2.0000
v 3.0000 19.0000 -2.0000
v 3.0000 20.0000 -2.0000
v 3.0000 21.0000 -2.0000
v 3.0000 22.0000 -2.0000
v 3.0000 23.0000 -2.0000
v -2.0000 24.0000 2.0000
v -2.0000 24.0000 1.0000
v -1.0000 24.0000 2.0000
v -2.0000 25.0000 2.0000
v -2.0000 25.0000 1.0000
v -1.0000 25.0000 2.0000
v -2.0000 26.0000 2.0000
v -2.0000 26.0000 1.0000
v -1.0000 26.0000 2.0000
v -2.0000 27.0000 2.0000
v -2.0000 27.0000 1.0000
v -1.0000 27.0000 2.0000
v -2.0000 28.0000 2.0000
v -2.0000 28.0000 1.0000
v -1.0000 28.0000 2.0000
v -2.0000 24.0000 0.0000
v -2.0000 25.0000 0.0000
v -2.0000 26.0000 0.0000
v -2.0000 27.0000 0.0000
v -2.0000 28.0000 0.0000
v -2.0000 24.0000 -1.0000
v -2.0000 25.0000 -1.0000
v -2.0000 26.0000 -1.0000
v -2.0000 27.0000 -1.0000
v -2.0000 28.0000 -1.0000
v -2.0000 24.0000 -2.0000
v -1.0000 24.0000 -2.0000
v -2.0000 25.0000 -2.0000
v -1.0000 25.0000 -2.0000
v -2.0000 26.0000 -2.0000
v -1.0000 26.0000 -2.0000
v -2.0000 27.0000 -2.0000
v -1.0000 27.0000 -2.0000
v -2.0000 28.0000 -2.0000
v -1.0000 28.0000 -2.0000
v 0.0000 24.0000 2.0000
v 0.0000 25.0000 2.0000
v 0.0000 26.0000 2.0000
v 0.0000 27.0000 2.0000
v 0.0000 28.0000 2.0000
v 0.0000 24.0000 -2.0000
v 0.0000 25.0000 -2.0000
v 0.0000 26.0000 -2.0000
v 0.0000 27.0000 -2.0000
v 0.0000 28.0000 -2.0000
v 1.0000 24.0000 2.0000
v 1.0000 25.0000 2.0000
v 1.0000 26.0000 2.0000
v 1.0000 27.0000 2.0000
v 1.0000 28.0000 2.0000
v 1.0000 24.0000 -2.0000
v 1.0000 25.0000 -2.0000
v 1.0000 26.0000 -2.0000
v 1.0000 27.0000 -2.0000
v 1.0000 28.0000 -2.0000
v 2.0000 24.0000 1.0000
v 2.0000 24.0000 2.0000
v 2.0000 25.0000 1.0000
v 2.0000 25.0000 2.0000
v 2.0000 26.0000 1.0000
v 2.0000 26.0000 2.0000
v 2.0000 27.0000 1.0000
v 2.0000 27.0000 2.0000
v 2.0000 28.0000 1.0000
v 2.0000 28.0000 2.0000
v 2.0000 24.0000 0.0000
v 2.0000 25.0000 0.0000
v 2.0000 26.0000 0.0000
v 2.0000 27.0000 0.0000
v 2.0000 28.0000 0.0000
v 2.0000 24.0000 -1.0000
v 2.0000 25.0000 -1.0000
v 2.0000 26.0000 -1.0000
v 2.0000 27.0000 -1.0000
v 2.0000 28.0000 -1.0000
v 2.0000 24.0000 -2.0000
v 2.0000 25.0000 -2.0000
v 2.0000 26.0000 -2.0000
v 2.0000 27.0000 -2.0000
v 2.0000 28.0000 -2.0000
v -4.0000 28.0000 4.0000
v -4.0000 29.0000 4.0000
v -4.0000 29.0000 3.0000
v -4.0000 28.0000 3.0000
v -3.0000 28.0000 4.0000
v -3.0000 29.0000 4.0000
v -3.0000 29.0000 3.0000
v -3.0000 28.0000 3.0000
v -4.0000 29.0000 2.0000
v -4.0000 28.0000 2.0000
v -3.0000 29.0000 2.0000
v -3.0000 28.0000 2.0000
v -4.0000 29.0000 1.0000
v -4.0000 28.0000 1.0000
v -3.0000 29.0000 1.0000
v -3.0000 28.0000 1.0000
v -4.0000 29.0000 0.0000
v -4.0000 28.0000 0.0000
v -3.0000 29.0000 0.0000
v -3.0000 28.0000 0.0000
v -4.0000 29.0000 -1.0000
v -4.0000 28.0000 -1.0000
v -3.0000 29.0000 -1.0000
v -3.0000 28.0000 -1.0000
v -4.0000 29.0000 -2.0000
v -4.0000 28.0000 -2.0000
v -3.0000 29.0000 -2.0000
v -3.0000 28.0000 -2.0000
v -4.0000 29.0000 -3.0000
v -4.0000 28.0000 -3.0000
v -3.0000 29.0000 -3.0000
v -3.0000 28.0000 -3.0000
v -4.0000 29.0000 -4.0000
v -4.0000 28.0000 -4.0000
v -3.0000 29.0000 -4.0000
v -3.0000 28.0000 -4.0000
v -2.0000 28.0000 4.0000
v -2.0000 29.0000 4.0000
v -2.0000 29.0000 3.0000
v -2.0000 28.0000 3.0000
v -2.0000 29.0000 2.0000
v -2.0000 29.0000 1.0000
v -2.0000 29.0000 0.0000
v -2.0000 29.0000 -1.0000
v -2.0000 29.0000 -2.0000
v -2.0000 29.0000 -3.0000
v -2.0000 28.0000 -3.0000
v -2.0000 29.0000 -4.0000
v -2.0000 28.0000 -4.0000
v -1.0000 28.0000 4.0000
v -1.0000 29.0000 4.0000
v -1.0000 29.0000 3.0000
v -1.0000 28.0000 3.0000
v -1.0000 29.0000 2.0000
v -1.0000 29.0000 -2.0000
v -1.0000 29.0000 -3.0000
v -1.0000 28.0000 -3.0000
v -1.0000 29.0000 -4.0000
v -1.0000 28.0000 -4.0000
v 0.0000 28.0000 4.0000
v 0.0000 29.0000 4.0000
v 0.0000 29.0000 3.0000
v 0.0000 28.0000 3.0000
v 0.0000 29.0000 2.0000
v 0.0000 29.0000 -2.0000
v 0.0000 29.0000 -3.0000
v 0.0000 28.0000 -3.0000
v 0.0000 29.0000 -4.0000
v 0.0000 28.0000 -4.0000
v 1.0000 28.0000 4.0000
v 1.0000 29.0000 4.0000
v 1.0000 29.0000 3.0000
v 1.0000 28.0000 3.0000
v 1.0000 29.0000 2.0000
v 1.0000 29.0000 -2.0000
v 1.0000 29.0000 -3.0000
v 1.0000 28.0000 -3.0000
v 1.0000 29.0000 -4.0000
v 1.0000 28.0000 -4.0000
v 2.0000 28.0000 4.0000
v 2.0000 29.0000 4.0000
v 2.0000 29.0000 3.0000
v 2.0000 28.0000 3.0000
v 2.0000 29.0000 2.0000
v 2.0000 29.0000 -2.0000
v 2.0000 29.0000 -3.0000
v 2.0000 28.0000 -3.0000
v 2.0000 29.0000 -4.0000
v 2.0000 28.0000 -4.0000
v 3.0000 28.0000 4.0000
v 3.0000 29.0000 4.0000
v 3.0000 29.0000 3.0000
v 3.0000 28.0000 3.0000
v 3.0000 29.0000 2.0000
v 3.0000 28.0000 2.0000
v 3.0000 29.0000 1.0000
v 2.0000 29.0000 1.0000
v 3.0000 28.0000 1.0000
v 3.0000 29.0000 0.0000
v 2.0000 29.0000 0.0000
v 3.0000 28.0000 0.0000
v 3.0000 29.0000 -1.0000
v 2.0000 29.0000 -1.0000
v 3.0000 28.0000 -1.0000
v 3.0000 29.0000 -2.0000
v 3.0000 28.0000 -2.0000
v 3.0000 29.0000 -3.0000
v 3.0000 28.0000 -3.0000
v 3.0000 29.0000 -4.0000
v 3.0000 28.0000 -4.0000
v 4.0000 28.0000 4.0000
v 4.0000 28.0000 3.0000
v 4.0000 29.0000 3.0000
v 4.0000 29.0000 4.0000
v 4.0000 28.0000 2.0000
v 4.0000 29.0000 2.0000
v 4.0000 28.0000 1.0000
v 4.0000 29.0000 1.0000
v 4.0000 28.0000 0.0000
v 4.0000 29.0000 0.0000
v 4.0000 28.0000 -1.0000
v 4.0000 29.0000 -1.0000
v 4.0000 28.0000 -2.0000
v 4.0000 29.0000 -2.0000
v 4.0000 28.0000 -3.0000
v 4.0000 29.0000 -3.0000
v 4.0000 28.0000 -4.0000
v 4.0000 29.0000 -4.0000
v -2.0000 30.0000 2.0000
v -2.0000 30.0000 1.0000
v -1.0000 30.0000 2.0000
v -2.0000 31.0000 2.0000
v -2.0000 31.0000 1.0000
v -1.0000 31.0000 2.0000
v -2.0000 32.0000 2.0000
v -2.0000 32.0000 1.0000
v -1.0000 32.0000 2.0000
v -1.0000 32.0000 1.0000
v -2.0000 30.0000 0.0000
v -2.0000 31.0000 0.0000
v -2.0000 32.0000 0.0000
v -1.0000 32.0000 0.0000
v -2.0000 30.0000 -1.0000
v -2.0000 31.0000 -1.0000
v -2.0000 32.0000 -1.0000
v -1.0000 32.0000 -1.0000
v -2.0000 30.0000 -2.0000
v -1.0000 30.0000 -2.0000
v -2.0000 31.0000 -2.0000
v -1.0000 31.0000 -2.0000
v -2.0000 32.0000 -2.0000
v -1.0000 32.0000 -2.0000
v 0.0000 30.0000 2.0000
v 0.0000 31.0000 2.0000
v 0.0000 32.0000 2.0000
v 0.0000 32.0000 1.0000
v 0.0000 32.0000 0.0000
v 0.0000 32.0000 -1.0000
v 0.0000 30.0000 -2.0000
v 0.0000 31.0000 -2.0000
v 0.0000 32.0000 -2.0000
v 1.0000 30.0000 2.0000
v 1.0000 31.0000 2.0000
v 1.0000 32.0000 2.0000
v 1.0000 32.0000 1.0000
v 1.0000 32.0000 0.0000
v 1.0000 32.0000 -1.0000
v 1.0000 30.0000 -2.0000
v 1.0000 31.0000 -2.0000
v 1.0000 32.0000 -2.0000
v 2.0000 30.0000 1.0000
v 2.0000 30.0000 2.0000
v 2.0000 31.0000 1.0000
v 2.0000 31.0000 2.0000
v 2.0000 32.0000 1.0000
v 2.0000 32.0000 2.0000
v 2.0000 30.0000 0.0000
v 2.0000 31.0000 0.0000
v 2.0000 32.0000 0.0000
v 2.0000 30.0000 -1.0000
v 2.0000 31.0000 -1.0000
v 2.0000 32.0000 -1.0000
v 2.0000 30.0000 -2.0000
v 2.0000 31.0000 -2.0000
v 2.0000 32.0000 -2.0000
v 1.0000 0.0000 2.0000
v 1.0000 1.0000 2.0000
v 1.0000 1.0000 1.0000
v 1.0000 0.0000 1.0000
v 2.0000 0.0000 2.0000
v 2.0000 1.0000 2.0000
v 2.0000 0.0000 1.0000
v 1.0000 2.0000 2.0000
v 1.0000 2.0000 1.0000
v 2.0000 2.0000 2.0000
v 1.0000 1.0000 0.0000
v 1.0000 0.0000 0.0000
v 2.0000 0.0000 0.0000
v 1.0000 2.0000 0.0000
v 1.0000 1.0000 -1.0000
v 1.0000 0.0000 -1.0000
v 2.0000 1.0000 -1.0000
v 2.0000 0.0000 -1.0000
v 1.0000 2.0000 -1.0000
v 2.0000 2.0000 -1.0000
v 3.0000 0.0000 2.0000
v 3.0000 0.0000 1.0000
v 3.0000 1.0000 1.0000
v 3.0000 1.0000 2.0000
v 3.0000 2.0000 1.0000
v 3.0000 2.0000 2.0000
v 3.0000 0.0000 0.0000
v 3.0000 1.0000 0.0000
v 3.0000 2.0000 0.0000
v 3.0000 0.0000 -1.0000
v 3.0000 1.0000 -1.0000
v 3.0000 2.0000 -1.0000
v 1.0000 3.0000 2.0000
v 1.0000 3.0000 1.0000
v 2.0000 3.0000 2.0000
v 1.0000 4.0000 2.0000
v 1.0000 4.0000 1.0000
v 2.0000 4.0000 2.0000
v 1.0000 5.0000 2.0000
v 1.0000 5.0000 1.0000
v 2.0000 5.0000 2.0000
v 1.0000 6.0000 2.0000
v 1.0000 6.0000 1.0000
v 2.0000 6.0000 2.0000
v 1.0000 7.0000 2.0000
v 1.0000 7.0000 1.0000
v 2.0000 7.0000 2.0000
v 1.0000 8.0000 2.0000
v 1.0000 8.0000 1.0000
v 2.0000 8.0000 2.0000
v 1.0000 9.0000 2.0000
v 1.0000 9.0000 1.0000
v 2.0000 9.0000 2.0000
v 1.0000 10.0000 2.0000
v 1.0000 10.0000 1.0000
v 2.0000 10.0000 2.0000
v 1.0000 11.0000 2.0000
v 1.0000 11.0000 1.0000
v 2.0000 11.0000 2.0000
v 1.0000 12.0000 2.0000
v 1.0000 12.0000 1.0000
v 2.0000 12.0000 2.0000
v 1.0000 3.0000 0.0000
v 1.0000 4.0000 0.0000
v 1.0000 5.0000 0.0000
v 1.0000 6.0000 0.0000
v 1.0000 7.0000 0.0000
v 1.0000 8.0000 0.0000
v 1.0000 9.0000 0.0000
v 1.0000 10.0000 0.0000
v 1.0000 11.0000 0.0000
v 1.0000 12.0000 0.0000
v 1.0000 3.0000 -1.0000
v 2.0000 3.0000 -1.0000
v 1.0000 4.0000 -1.0000
v 2.0000 4.0000 -1.0000
v 1.0000 5.0000 -1.0000
v 2.0000 5.0000 -1.0000
v 1.0000 6.0000 -1.0000
v 2.0000 6.0000 -1.0000
v 1.0000 7.0000 -1.0000
v 2.0000 7.0000 -1.0000
v 1.0000 8.0000 -1.0000
v 2.0000 8.0000 -1.0000
v 1.0000 9.0000 -1.0000
v 2.0000 9.0000 -1.0000
v 1.0000 10.0000 -1.0000
v 2.0000 10.0000 -1.0000
v 1.0000 11.0000 -1.0000
v 2.0000 11.0000 -1.0000
v 1.0000 12.0000 -1.0000
v 2.0000 12.0000 -1.0000
v 3.0000 3.0000 1.0000
v 3.0000 3.0000 2.0000
v 3.0000 4.0000 1.0000
v 3.0000 4.0000 2.0000
v 3.0000 5.0000 1.0000
v 3.0000 5.0000 2.0000
v 3.0000 6.0000 1.0000
v 3.0000 6.0000 2.0000
v 3.0000 7.0000 1.0000
v 3.0000 7.0000 2.0000
v 3.0000 8.0000 1.0000
v 3.0000 8.0000 2.0000
v 3.0000 9.0000 1.0000
v 3.0000 9.0000 2.0000
v 3.0000 10.0000 1.0000
v 3.0000 10.0000 2.0000
v 3.0000 11.0000 1.0000
v 3.0000 11.0000 2.0000
v 3.0000 12.0000 1.0000
v 3.0000 12.0000 2.0000
v 3.0000 3.0000 0.0000
v 3.0000 4.0000 0.0000
v 3.0000 5.0000 0.0000
v 3.0000 6.0000 0.0000
v 3.0000 7.0000 0.0000
v 3.0000 8.0000 0.0000
v 3.0000 9.0000 0.0000
v 3.0000 10.0000 0.0000
v 3.0000 11.0000 0.0000
v 3.0000 12.0000 0.0000
v 3.0000 3.0000 -1.0000
v 3.0000 4.0000 -1.0000
v 3.0000 5.0000 -1.0000
v 3.0000 6.0000 -1.0000
v 3.0000 7.0000 -1.0000
v 3.0000 8.0000 -1.0000
v 3.0000 9.0000 -1.0000
v 3.0000 10.0000 -1.0000
v 3.0000 11.0000 -1.0000
v 3.0000 12.0000 -1.0000
v -3.0000 0.0000 4.0000
v -3.0000 1.0000 4.0000
v -3.0000 1.0000 3.0000
v -3.0000 0.0000 3.0000
v -2.0000 0.0000 4.0000
v -2.0000 1.0000 4.0000
v -2.0000 0.0000 3.0000
v -3.0000 2.0000 4.0000
v -3.0000 2.0000 3.0000
v -2.0000 2.0000 4.0000
v -3.0000 1.0000 2.0000
v -3.0000 0.0000 2.0000
v -2.0000 0.0000 2.0000
v -3.0000 2.0000 2.0000
v -3.0000 1.0000 1.0000
v -3.0000 0.0000 1.0000
v -2.0000 1.0000 1.0000
v -2.0000 0.0000 1.0000
v -3.0000 2.0000 1.0000
v -2.0000 2.0000 1.0000
v -1.0000 0.0000 4.0000
v -1.0000 0.0000 3.0000
v -1.0000 1.0000 3.0000
v -1.0000 1.0000 4.0000
v -1.0000 2.0000 3.0000
v -1.0000 2.0000 4.0000
v -1.0000 0.0000 2.0000
v -1.0000 1.0000 2.0000
v -1.0000 2.0000 2.0000
v -1.0000 0.0000 1.0000
v -1.0000 1.0000 1.0000
v -1.0000 2.0000 1.0000
v -3.0000 3.0000 4.0000
v -3.0000 3.0000 3.0000
v -2.0000 3.0000 4.0000
v -3.0000 4.0000 4.0000
v -3.0000 4.0000 3.0000
v -2.0000 4.0000 4.0000
v -3.0000 5.0000 4.0000
v -3.0000 5.0000 3.0000
v -2.0000 5.0000 4.0000
v -3.0000 6.0000 4.0000
v -3.0000 6.0000 3.0000
v -2.0000 6.0000 4.0000
v -3.0000 7.0000 4.0000
v -3.0000 7.0000 3.0000
v -2.0000 7.0000 4.0000
v -3.0000 8.0000 4.0000
v -3.0000 8.0000 3.0000
v -2.0000 8.0000 4.0000
v -3.0000 9.0000 4.0000
v -3.0000 9.0000 3.0000
v -2.0000 9.0000 4.0000
v -3.0000 10.0000 4.0000
v -3.0000 10.0000 3.0000
v -2.0000 10.0000 4.0000
v -3.0000 11.0000 4.0000
v -3.0000 11.0000 3.0000
v -2.0000 11.0000 4.0000
v -3.0000 12.0000 4.0000
v -3.0000 12.0000 3.0000
v -2.0000 12.0000 4.0000
v -3.0000 13.0000 4.0000
v -3.0000 13.0000 3.0000
v -2.0000 13.0000 4.0000
v -2.0000 13.0000 3.0000
v -3.0000 3.0000 2.0000
v -3.0000 4.0000 2.0000
v -3.0000 5.0000 2.0000
v -3.0000 6.0000 2.0000
v -3.0000 7.0000 2.0000
v -3.0000 8.0000 2.0000
v -3.0000 9.0000 2.0000
v -3.0000 10.0000 2.0000
v -3.0000 11.0000 2.0000
v -3.0000 12.0000 2.0000
v -3.0000 3.0000 1.0000
v -2.0000 3.0000 1.0000
v -3.0000 4.0000 1.0000
v -2.0000 4.0000 1.0000
v -3.0000 5.0000 1.0000
v -2.0000 5.0000 1.0000
v -3.0000 6.0000 1.0000
v -2.0000 6.0000 1.0000
v -3.0000 7.0000 1.0000
v -2.0000 7.0000 1.0000
v -3.0000 8.0000 1.0000
v -2.0000 8.0000 1.0000
v -3.0000 9.0000 1.0000
v -2.0000 9.0000 1.0000
v -3.0000 10.0000 1.0000
v -2.0000 10.0000 1.0000
v -3.0000 11.0000 1.0000
v -2.0000 11.0000 1.0000
v -3.0000 12.0000 1.0000
v -2.0000 12.0000 1.0000
v -1.0000 3.0000 3.0000
v -1.0000 3.0000 4.0000
v -1.0000 4.0000 3.0000
v -1.0000 4.0000 4.0000
v -1.0000 5.0000 3.0000
v -1.0000 5.0000 4.0000
v -1.0000 6.0000 3.0000
v -1.0000 6.0000 4.0000
v -1.0000 7.0000 3.0000
v -1.0000 7.0000 4.0000
v -1.0000 8.0000 3.0000
v -1.0000 8.0000 4.0000
v -1.0000 9.0000 3.0000
v -1.0000 9.0000 4.0000
v -1.0000 10.0000 3.0000
v -1.0000 10.0000 4.0000
v -1.0000 11.0000 3.0000
v -1.0000 11.0000 4.0000
v -1.0000 12.0000 3.0000
v -1.0000 12.0000 4.0000
v -1.0000 13.0000 3.0000
v -1.0000 13.0000 4.0000
v -1.0000 3.0000 2.0000
v -1.0000 4.0000 2.0000
v -1.0000 5.0000 2.0000
v -1.0000 6.0000 2.0000
v -1.0000 7.0000 2.0000
v -1.0000 8.0000 2.0000
v -1.0000 9.0000 2.0000
v -1.0000 10.0000 2.0000
v -1.0000 11.0000 2.0000
v -1.0000 12.0000 2.0000
v -1.0000 3.0000 1.0000
v -1.0000 4.0000 1.0000
v -1.0000 5.0000 1.0000
v -1.0000 6.0000 1.0000
v -1.0000 7.0000 1.0000
v -1.0000 8.0000 1.0000
v -1.0000 9.0000 1.0000
v -1.0000 10.0000 1.0000
v -1.0000 11.0000 1.0000
v -1.0000 12.0000 1.0000
v 3.0000 14.0000 4.0000
v 3.0000 15.0000 4.0000
v 3.0000 15.0000 3.0000
v 3.0000 14.0000 3.0000
v 4.0000 14.0000 4.0000
v 4.0000 15.0000 4.0000
v 3.0000 16.0000 4.0000
v 3.0000 16.0000 3.0000
v 4.0000 16.0000 4.0000
v 3.0000 17.0000 4.0000
v 3.0000 17.0000 3.0000
v 4.0000 17.0000 4.0000
v 3.0000 18.0000 4.0000
v 3.0000 18.0000 3.0000
v 4.0000 18.0000 4.0000
v 3.0000 19.0000 4.0000
v 3.0000 19.0000 3.0000
v 4.0000 19.0000 4.0000
v 3.0000 20.0000 4.0000
v 3.0000 20.0000 3.0000
v 4.0000 20.0000 4.0000
v 3.0000 21.0000 4.0000
v 3.0000 21.0000 3.0000
v 4.0000 21.0000 4.0000
v 3.0000 22.0000 4.0000
v 3.0000 22.0000 3.0000
v 4.0000 22.0000 4.0000
v 4.0000 22.0000 3.0000
v 4.0000 22.0000 2.0000
v 4.0000 15.0000 1.0000
v 4.0000 14.0000 1.0000
v 4.0000 16.0000 1.0000
v 4.0000 17.0000 1.0000
v 4.0000 18.0000 1.0000
v 4.0000 19.0000 1.0000
v 4.0000 20.0000 1.0000
v 4.0000 21.0000 1.0000
v 4.0000 22.0000 1.0000
v 5.0000 14.0000 4.0000
v 5.0000 14.0000 3.0000
v 5.0000 15.0000 3.0000
v 5.0000 15.0000 4.0000
v 5.0000 16.0000 3.0000
v 5.0000 16.0000 4.0000
v 5.0000 17.0000 3.0000
v 5.0000 17.0000 4.0000
v 5.0000 18.0000 3.0000
v 5.0000 18.0000 4.0000
v 5.0000 19.0000 3.0000
v 5.0000 19.0000 4.0000
v 5.0000 20.0000 3.0000
v 5.0000 20.0000 4.0000
v 5.0000 21.0000 3.0000
v 5.0000 21.0000 4.0000
v 5.0000 22.0000 3.0000
v 5.0000 22.0000 4.0000
v 5.0000 14.0000 2.0000
v 5.0000 15.0000 2.0000
v 5.0000 16.0000 2.0000
v 5.0000 17.0000 2.0000
v 5.0000 18.0000 2.0000
v 5.0000 19.0000 2.0000
v 5.0000 20.0000 2.0000
v 5.0000 21.0000 2.0000
v 5.0000 22.0000 2.0000
v 5.0000 14.0000 1.0000
v 5.0000 15.0000 1.0000
v 5.0000 16.0000 1.0000
v 5.0000 17.0000 1.0000
v 5.0000 18.0000 1.0000
v 5.0000 19.0000 1.0000
v 5.0000 20.0000 1.0000
v 5.0000 21.0000 1.0000
v 5.0000 22.0000 1.0000
v 3.0000 13.0000 4.0000
v 3.0000 13.0000 3.0000
v 4.0000 13.0000 4.0000
v 4.0000 13.0000 3.0000
v 4.0000 13.0000 2.0000
v 4.0000 13.0000 1.0000
v 5.0000 13.0000 4.0000
v 5.0000 13.0000 3.0000
v 5.0000 13.0000 2.0000
v 5.0000 13.0000 1.0000
v -5.0000 14.0000 -1.0000
v -5.0000 15.0000 -1.0000
v -5.0000 15.0000 -2.0000
v -5.0000 14.0000 -2.0000
v -4.0000 14.0000 -1.0000
v -4.0000 15.0000 -1.0000
v -5.0000 16.0000 -1.0000
v -5.0000 16.0000 -2.0000
v -4.0000 16.0000 -1.0000
v -5.0000 17.0000 -1.0000
v -5.0000 17.0000 -2.0000
v -4.0000 17.0000 -1.0000
v -5.0000 18.0000 -1.0000
v -5.0000 18.0000 -2.0000
v -4.0000 18.0000 -1.0000
v -5.0000 19.0000 -1.0000
v -5.0000 19.0000 -2.0000
v -4.0000 19.0000 -1.0000
v -5.0000 20.0000 -1.0000
v -5.0000 20.0000 -2.0000
v -4.0000 20.0000 -1.0000
v -5.0000 21.0000 -1.0000
v -5.0000 21.0000 -2.0000
v -4.0000 21.0000 -1.0000
v -5.0000 22.0000 -1.0000
v -5.0000 22.0000 -2.0000
v -4.0000 22.0000 -1.0000
v -4.0000 22.0000 -2.0000
v -5.0000 15.0000 -3.0000
v -5.0000 14.0000 -3.0000
v -5.0000 16.0000 -3.0000
v -5.0000 17.0000 -3.0000
v -5.0000 18.0000 -3.0000
v -5.0000 19.0000 -3.0000
v -5.0000 20.0000 -3.0000
v -5.0000 21.0000 -3.0000
v -5.0000 22.0000 -3.0000
v -4.0000 22.0000 -3.0000
v -5.0000 15.0000 -4.0000
v -5.0000 14.0000 -4.0000
v -4.0000 15.0000 -4.0000
v -4.0000 14.0000 -4.0000
v -5.0000 16.0000 -4.0000
v -4.0000 16.0000 -4.0000
v -5.0000 17.0000 -4.0000
v -4.0000 17.0000 -4.0000
v -5.0000 18.0000 -4.0000
v -4.0000 18.0000 -4.0000
v -5.0000 19.0000 -4.0000
v -4.0000 19.0000 -4.0000
v -5.0000 20.0000 -4.0000
v -4.0000 20.0000 -4.0000
v -5.0000 21.0000 -4.0000
v -4.0000 21.0000 -4.0000
v -5.0000 22.0000 -4.0000
v -4.0000 22.0000 -4.0000
v -3.0000 14.0000 -3.0000
v -3.0000 15.0000 -3.0000
v -3.0000 16.0000 -3.0000
v -3.0000 17.0000 -3.0000
v -3.0000 18.0000 -3.0000
v -3.0000 19.0000 -3.0000
v -3.0000 20.0000 -3.0000
v -3.0000 21.0000 -3.0000
v -3.0000 22.0000 -3.0000
v -3.0000 14.0000 -4.0000
v -3.0000 15.0000 -4.0000
v -3.0000 16.0000 -4.0000
v -3.0000 17.0000 -4.0000
v -3.0000 18.0000 -4.0000
v -3.0000 19.0000 -4.0000
v -3.0000 20.0000 -4.0000
v -3.0000 21.0000 -4.0000
v -3.0000 22.0000 -4.0000
v -5.0000 13.0000 -1.0000
v -5.0000 13.0000 -2.0000
v -4.0000 13.0000 -1.0000
v -4.0000 13.0000 -2.0000
v -5.0000 13.0000 -3.0000
v -4.0000 13.0000 -3.0000
v -5.0000 13.0000 -4.0000
v -4.0000 13.0000 -4.0000
v -3.0000 13.0000 -3.0000
v -3.0000 13.0000 -4.0000
usemtl c1
f 320 321 322 323
f 320 324 325 321
f 321 325 326 322
f 320 323 327 324
f 323 322 328 329
f 322 326 330 328
f 323 329 331 327
f 329 328 332 333
f 328 330 334 332
f 329 333 335 331
f 333 332 336 337
f 332 334 338 336
f 333 337 339 335
f 337 336 340 341
f 336 338 342 340
f 337 341 343 339
f 341 340 344 345
f 340 342 346 344
f 341 345 347 343
f 345 344 348 349
f 344 346 350 348
f 345 349 351 347
f 349 348 352 353
f 353 352 354 355
f 348 350 354 352
f 349 353 355 351
f 324 356 357 325
f 325 357 358 326
f 324 327 359 356
f 326 358 360 330
f 327 331 252 359
f 330 360 361 334
f 331 335 253 252
f 334 361 362 338
f 335 339 259 253
f 338 362 363 342
f 339 343 264 259
f 342 363 364 346
f 343 347 273 264
f 346 364 365 350
f 347 351 366 273
f 355 354 367 368
f 350 365 367 354
f 351 355 368 366
f 356 369 370 357
f 357 370 371 358
f 356 359 372 369
f 358 371 373 360
f 359 252 254 372
f 364 374 375 365
f 273 366 376 274
f 368 367 377 378
f 365 375 377 367
f 366 368 378 376
f 369 379 380 370
f 370 380 381 371
f 369 372 382 379
f 371 381 383 373
f 372 254 279 382
f 374 384 385 375
f 274 376 386 284
f 378 377 387 388
f 375 385 387 377
f 376 378 388 386
f 379 389 390 380
f 380 390 391 381
f 379 382 392 389
f 381 391 393 383
f 382 279 289 392
f 384 394 395 385
f 284 386 396 294
f 388 387 397 398
f 385 395 397 387
f 386 388 398 396
f 389 399 400 390
f 390 400 401 391
f 389 392 402 399
f 391 401 403 393
f 392 289 304 402
f 394 404 405 395
f 294 396 406 319
f 398 397 407 408
f 395 405 407 397
f 396 398 408 406
f 399 409 410 400
f 400 410 411 401
f 399 402 412 409
f 401 411 413 403
f 402 304 414 412
f 403 413 415 416
f 304 303 417 414
f 416 415 418 419
f 303 309 420 417
f 419 418 421 422
f 309 314 423 420
f 422 421 424 404
f 314 319 425 423
f 404 424 426 405
f 319 406 427 425
f 408 407 428 429
f 405 426 428 407
f 406 408 429 427
f 430 431 432 433
f 409 430 433 410
f 410 433 432 411
f 409 412 431 430
f 431 434 435 432
f 411 432 435 413
f 412 414 434 431
f 434 436 437 435
f 413 435 437 415
f 414 417 436 434
f 436 438 439 437
f 415 437 439 418
f 417 420 438 436
f 438 440 441 439
f 418 439 441 421
f 420 423 440 438
f 440 442 443 441
f 421 441 443 424
f 423 425 442 440
f 442 444 445 443
f 424 443 445 426
f 425 427 444 442
f 444 446 447 445
f 429 428 447 446
f 426 445 447 428
f 427 429 446 444
f 360 448 449 361
f 360 373 450 448
f 448 451 452 449
f 448 450 453 451
f 451 454 455 452
f 451 453 456 454
f 454 456 457 455
f 361 449 458 362
f 449 452 459 458
f 452 455 460 459
f 455 457 461 460
f 362 458 462 363
f 458 459 463 462
f 459 460 464 463
f 460 461 465 464
f 363 462 466 364
f 364 466 467 374
f 462 463 468 466
f 466 468 469 467
f 463 464 470 468
f 468 470 471 469
f 464 465 471 470
f 373 383 472 450
f 450 472 473 453
f 453 473 474 456
f 456 474 475 457
f 457 475 476 461
f 461 476 477 465
f 374 467 478 384
f 467 469 479 478
f 469 471 480 479
f 465 477 480 471
f 383 393 481 472
f 472 481 482 473
f 473 482 483 474
f 474 483 484 475
f 475 484 485 476
f 476 485 486 477
f 384 478 487 394
f 478 479 488 487
f 479 480 489 488
f 477 486 489 480
f 403 416 490 491
f 393 403 491 481
f 491 490 492 493
f 481 491 493 482
f 493 492 494 495
f 482 493 495 483
f 483 495 494 484
f 416 419 496 490
f 490 496 497 492
f 492 497 498 494
f 484 494 498 485
f 419 422 499 496
f 496 499 500 497
f 497 500 501 498
f 485 498 501 486
f 422 404 502 499
f 394 487 502 404
f 499 502 503 500
f 487 488 503 502
f 500 503 504 501
f 488 489 504 503
f 486 501 504 489
usemtl c2
f 1 2 3 4
f 1 5 6 2
f 2 7 8 3
f 2 6 9 7
f 7 10 11 8
f 7 9 12 10
f 10 13 14 11
f 10 12 15 13
f 13 16 17 14
f 13 15 18 16
f 16 19 20 17
f 16 18 21 19
f 19 22 23 20
f 19 21 24 22
f 22 25 26 23
f 22 24 27 25
f 25 28 29 26
f 25 27 30 28
f 28 31 32 29
f 28 30 33 31
f 31 33 34 32
f 4 3 35 36
f 4 36 37 38
f 3 8 39 35
f 8 11 40 39
f 11 14 41 40
f 14 17 42 41
f 17 20 43 42
f 20 23 44 43
f 23 26 45 44
f 26 29 46 45
f 29 32 47 46
f 32 34 48 47
f 36 35 49 50
f 36 50 51 37
f 35 39 52 49
f 39 40 53 52
f 40 41 54 53
f 41 42 55 54
f 42 43 56 55
f 43 44 57 56
f 44 45 58 57
f 45 46 59 58
f 46 47 60 59
f 47 48 61 60
f 62 63 64 65
f 50 62 65 51
f 63 66 67 64
f 66 68 69 67
f 68 70 71 69
f 70 72 73 71
f 72 74 75 73
f 74 76 77 75
f 76 78 79 77
f 78 80 81 79
f 59 60 82 80
f 80 82 83 81
f 60 61 83 82
f 5 84 85 6
f 6 85 86 9
f 9 86 87 12
f 12 87 88 15
f 15 88 89 18
f 18 89 90 21
f 21 90 91 24
f 24 91 92 27
f 27 92 93 30
f 30 93 94 33
f 38 37 95 96
f 37 51 97 95
f 65 64 98 99
f 51 65 99 97
f 64 67 100 98
f 67 69 101 100
f 69 71 102 101
f 71 73 103 102
f 73 75 104 103
f 75 77 105 104
f 77 79 106 105
f 79 81 107 106
f 81 83 108 107
f 84 109 110 85
f 84 96 111 109
f 85 110 112 86
f 86 112 113 87
f 87 113 114 88
f 88 114 115 89
f 89 115 116 90
f 90 116 117 91
f 91 117 118 92
f 92 118 119 93
f 93 119 120 94
f 96 95 121 111
f 95 97 122 121
f 99 98 123 124
f 97 99 124 122
f 98 100 125 123
f 100 101 126 125
f 101 102 127 126
f 102 103 128 127
f 103 104 129 128
f 104 105 130 129
f 105 106 131 130
f 106 107 132 131
f 107 108 133 132
f 109 134 135 110
f 109 111 136 134
f 110 135 137 112
f 112 137 138 113
f 113 138 139 114
f 114 139 140 115
f 115 140 141 116
f 116 141 142 117
f 117 142 143 118
f 118 143 144 119
f 119 144 145 120
f 111 121 146 136
f 121 122 147 146
f 124 123 148 149
f 122 124 149 147
f 123 125 150 148
f 125 126 151 150
f 126 127 152 151
f 127 128 153 152
f 128 129 154 153
f 129 130 155 154
f 130 131 156 155
f 131 132 157 156
f 132 133 158 157
f 134 159 160 135
f 135 160 161 137
f 137 161 162 138
f 138 162 163 139
f 139 163 164 140
f 140 164 165 141
f 141 165 166 142
f 142 166 167 143
f 143 167 168 144
f 144 168 169 145
f 149 148 170 171
f 147 149 171 172
f 148 150 173 170
f 150 151 174 173
f 151 152 175 174
f 152 153 176 175
f 153 154 177 176
f 154 155 178 177
f 155 156 179 178
f 156 157 180 179
f 157 158 181 180
f 159 182 183 160
f 160 183 184 161
f 161 184 185 162
f 162 185 186 163
f 163 186 187 164
f 164 187 188 165
f 165 188 189 166
f 166 189 190 167
f 167 190 191 168
f 191 192 193 194
f 168 191 194 169
f 169 194 193 195
f 196 197 198 199
f 199 198 200 201
f 201 200 202 203
f 203 202 204 205
f 205 204 206 207
f 207 206 208 209
f 209 208 210 211
f 211 210 212 213
f 213 212 214 192
f 192 214 215 193
f 195 193 215 216
f 197 217 218 198
f 198 218 219 200
f 200 219 220 202
f 202 220 221 204
f 204 221 222 206
f 206 222 223 208
f 208 223 224 210
f 210 224 225 212
f 212 225 226 214
f 214 226 227 215
f 216 215 227 228
f 217 229 230 218
f 171 170 230 229
f 172 171 229 217
f 218 230 231 219
f 170 173 231 230
f 219 231 232 220
f 173 174 232 231
f 220 232 233 221
f 174 175 233 232
f 221 233 234 222
f 175 176 234 233
f 222 234 235 223
f 176 177 235 234
f 223 235 236 224
f 177 178 236 235
f 224 236 237 225
f 178 179 237 236
f 225 237 238 226
f 179 180 238 237
f 226 238 239 227
f 180 181 239 238
f 228 227 239 181
f 775 776 777 778
f 775 779 780 776
f 776 781 782 777
f 776 780 783 781
f 781 784 785 782
f 781 783 786 784
f 784 787 788 785
f 784 786 789 787
f 787 790 791 788
f 787 789 792 790
f 790 793 794 791
f 790 792 795 793
f 793 796 797 794
f 793 795 798 796
f 796 799 800 797
f 796 798 801 799
f 799 801 802 800
f 778 777 184 183
f 777 782 185 184
f 782 785 186 185
f 785 788 187 186
f 788 791 188 187
f 791 794 189 188
f 794 797 190 189
f 797 800 191 190
f 800 802 803 191
f 199 201 804 805
f 201 203 806 804
f 203 205 807 806
f 205 207 808 807
f 207 209 809 808
f 209 211 810 809
f 211 213 811 810
f 213 192 812 811
f 191 803 812 192
f 813 814 815 816
f 779 813 816 780
f 816 815 817 818
f 780 816 818 783
f 818 817 819 820
f 783 818 820 786
f 820 819 821 822
f 786 820 822 789
f 822 821 823 824
f 789 822 824 792
f 824 823 825 826
f 792 824 826 795
f 826 825 827 828
f 795 826 828 798
f 828 827 829 830
f 798 828 830 801
f 801 830 829 802
f 814 831 832 815
f 815 832 833 817
f 817 833 834 819
f 819 834 835 821
f 821 835 836 823
f 823 836 837 825
f 825 837 838 827
f 827 838 839 829
f 802 829 839 803
f 831 840 841 832
f 805 804 841 840
f 832 841 842 833
f 804 806 842 841
f 833 842 843 834
f 806 807 843 842
f 834 843 844 835
f 807 808 844 843
f 835 844 845 836
f 808 809 845 844
f 836 845 846 837
f 809 810 846 845
f 837 846 847 838
f 810 811 847 846
f 838 847 848 839
f 811 812 848 847
f 803 839 848 812
f 859 860 861 862
f 859 863 864 860
f 860 865 866 861
f 860 864 867 865
f 865 868 869 866
f 865 867 870 868
f 868 871 872 869
f 868 870 873 871
f 871 874 875 872
f 871 873 876 874
f 874 877 878 875
f 874 876 879 877
f 877 880 881 878
f 877 879 882 880
f 880 883 884 881
f 880 882 885 883
f 883 885 886 884
f 862 861 887 888
f 861 866 889 887
f 866 869 890 889
f 869 872 891 890
f 872 875 892 891
f 875 878 893 892
f 878 881 894 893
f 881 884 895 894
f 884 886 896 895
f 888 887 897 898
f 898 897 899 900
f 887 889 901 897
f 897 901 902 899
f 889 890 903 901
f 901 903 904 902
f 890 891 905 903
f 903 905 906 904
f 891 892 907 905
f 905 907 908 906
f 892 893 909 907
f 907 909 910 908
f 893 894 911 909
f 909 911 912 910
f 894 895 913 911
f 911 913 914 912
f 895 896 914 913
f 863 49 52 864
f 864 52 53 867
f 867 53 54 870
f 870 54 55 873
f 873 55 56 876
f 876 56 57 879
f 879 57 58 882
f 882 58 59 885
f 885 59 80 886
f 63 915 916 66
f 66 916 917 68
f 68 917 918 70
f 70 918 919 72
f 72 919 920 74
f 74 920 921 76
f 76 921 922 78
f 78 922 923 80
f 886 80 923 896
f 915 924 925 916
f 900 899 925 924
f 916 925 926 917
f 899 902 926 925
f 917 926 927 918
f 902 904 927 926
f 918 927 928 919
f 904 906 928 927
f 919 928 929 920
f 906 908 929 928
f 920 929 930 921
f 908 910 930 929
f 921 930 931 922
f 910 912 931 930
f 922 931 932 923
f 912 914 932 931
f 896 923 932 914
usemtl c3
f 512 537 538 513
f 512 514 539 537
f 537 540 541 538
f 537 539 542 540
f 540 543 544 541
f 540 542 545 543
f 543 546 547 544
f 543 545 548 546
f 546 549 550 547
f 546 548 551 549
f 549 552 553 550
f 549 551 554 552
f 552 555 556 553
f 552 554 557 555
f 555 558 559 556
f 555 557 560 558
f 558 561 562 559
f 558 560 563 561
f 561 564 565 562
f 561 563 566 564
f 564 134 136 565
f 564 566 159 134
f 513 538 567 518
f 538 541 568 567
f 541 544 569 568
f 544 547 570 569
f 547 550 571 570
f 550 553 572 571
f 553 556 573 572
f 556 559 574 573
f 559 562 575 574
f 562 565 576 575
f 565 136 146 576
f 518 567 577 523
f 523 577 578 524
f 567 568 579 577
f 577 579 580 578
f 568 569 581 579
f 579 581 582 580
f 569 570 583 581
f 581 583 584 582
f 570 571 585 583
f 583 585 586 584
f 571 572 587 585
f 585 587 588 586
f 572 573 589 587
f 587 589 590 588
f 573 574 591 589
f 589 591 592 590
f 574 575 593 591
f 591 593 594 592
f 575 576 595 593
f 593 595 596 594
f 576 146 147 595
f 595 147 172 596
f 530 529 597 598
f 514 530 598 539
f 598 597 599 600
f 539 598 600 542
f 600 599 601 602
f 542 600 602 545
f 602 601 603 604
f 545 602 604 548
f 604 603 605 606
f 548 604 606 551
f 606 605 607 608
f 551 606 608 554
f 608 607 609 610
f 554 608 610 557
f 610 609 611 612
f 557 610 612 560
f 612 611 613 614
f 560 612 614 563
f 614 613 615 616
f 563 614 616 566
f 616 615 196 182
f 566 616 182 159
f 529 533 617 597
f 597 617 618 599
f 599 618 619 601
f 601 619 620 603
f 603 620 621 605
f 605 621 622 607
f 607 622 623 609
f 609 623 624 611
f 611 624 625 613
f 613 625 626 615
f 615 626 197 196
f 533 536 627 617
f 524 578 627 536
f 617 627 628 618
f 578 580 628 627
f 618 628 629 619
f 580 582 629 628
f 619 629 630 620
f 582 584 630 629
f 620 630 631 621
f 584 586 631 630
f 621 631 632 622
f 586 588 632 631
f 622 632 633 623
f 588 590 633 632
f 623 633 634 624
f 590 592 634 633
f 624 634 635 625
f 592 594 635 634
f 625 635 636 626
f 594 596 636 635
f 626 636 217 197
f 596 172 217 636
f 644 669 670 645
f 644 646 671 669
f 669 672 673 670
f 669 671 674 672
f 672 675 676 673
f 672 674 677 675
f 675 678 679 676
f 675 677 680 678
f 678 681 682 679
f 678 680 683 681
f 681 684 685 682
f 681 683 686 684
f 684 687 688 685
f 684 686 689 687
f 687 690 691 688
f 687 689 692 690
f 690 693 694 691
f 690 692 695 693
f 693 696 697 694
f 693 695 698 696
f 696 699 700 697
f 696 698 701 699
f 699 701 702 700
f 645 670 703 650
f 670 673 704 703
f 673 676 705 704
f 676 679 706 705
f 679 682 707 706
f 682 685 708 707
f 685 688 709 708
f 688 691 710 709
f 691 694 711 710
f 694 697 712 711
f 697 700 1 712
f 700 702 5 1
f 650 703 713 655
f 655 713 714 656
f 703 704 715 713
f 713 715 716 714
f 704 705 717 715
f 715 717 718 716
f 705 706 719 717
f 717 719 720 718
f 706 707 721 719
f 719 721 722 720
f 707 708 723 721
f 721 723 724 722
f 708 709 725 723
f 723 725 726 724
f 709 710 727 725
f 725 727 728 726
f 710 711 729 727
f 727 729 730 728
f 711 712 731 729
f 729 731 732 730
f 712 1 4 731
f 731 4 38 732
f 662 661 733 734
f 646 662 734 671
f 734 733 735 736
f 671 734 736 674
f 736 735 737 738
f 674 736 738 677
f 738 737 739 740
f 677 738 740 680
f 740 739 741 742
f 680 740 742 683
f 742 741 743 744
f 683 742 744 686
f 744 743 745 746
f 686 744 746 689
f 746 745 747 748
f 689 746 748 692
f 748 747 749 750
f 692 748 750 695
f 750 749 751 752
f 695 750 752 698
f 752 751 753 754
f 698 752 754 701
f 701 754 753 702
f 661 665 755 733
f 733 755 756 735
f 735 756 757 737
f 737 757 758 739
f 739 758 759 741
f 741 759 760 743
f 743 760 761 745
f 745 761 762 747
f 747 762 763 749
f 749 763 764 751
f 751 764 84 753
f 702 753 84 5
f 665 668 765 755
f 656 714 765 668
f 755 765 766 756
f 714 716 766 765
f 756 766 767 757
f 716 718 767 766
f 757 767 768 758
f 718 720 768 767
f 758 768 769 759
f 720 722 769 768
f 759 769 770 760
f 722 724 770 769
f 760 770 771 761
f 724 726 771 770
f 761 771 772 762
f 726 728 772 771
f 762 772 773 763
f 728 730 773 772
f 763 773 774 764
f 730 732 774 773
f 764 774 96 84
f 732 38 96 774
usemtl c4
f 505 506 507 508
f 505 509 510 506
f 505 508 511 509
f 506 512 513 507
f 506 510 514 512
f 508 507 515 516
f 508 516 517 511
f 507 513 518 515
f 516 515 519 520
f 520 519 521 522
f 516 520 522 517
f 515 518 523 519
f 519 523 524 521
f 525 526 527 528
f 509 525 528 510
f 509 511 526 525
f 528 527 529 530
f 510 528 530 514
f 526 531 532 527
f 511 517 531 526
f 527 532 533 529
f 531 534 535 532
f 522 521 535 534
f 517 522 534 531
f 532 535 536 533
f 521 524 536 535
f 637 638 639 640
f 637 641 642 638
f 637 640 643 641
f 638 644 645 639
f 638 642 646 644
f 640 639 647 648
f 640 648 649 643
f 639 645 650 647
f 648 647 651 652
f 652 651 653 654
f 648 652 654 649
f 647 650 655 651
f 651 655 656 653
f 657 658 659 660
f 641 657 660 642
f 641 643 658 657
f 660 659 661 662
f 642 660 662 646
f 658 663 664 659
f 643 649 663 658
f 659 664 665 661
f 663 666 667 664
f 654 653 667 666
f 649 654 666 663
f 664 667 668 665
f 653 656 668 667
usemtl c5
f 33 240 241 34
f 33 94 242 240
f 240 243 244 241
f 240 242 245 243
f 246 249 250 247
f 246 248 251 249
f 249 252 253 250
f 249 251 254 252
f 34 241 255 48
f 241 244 256 255
f 244 247 257 256
f 247 250 258 257
f 250 253 259 258
f 48 255 260 61
f 255 256 261 260
f 256 257 262 261
f 257 258 263 262
f 258 259 264 263
f 61 260 265 83
f 83 265 266 108
f 260 261 267 265
f 265 267 268 266
f 261 262 269 267
f 267 269 270 268
f 262 263 271 269
f 269 271 272 270
f 263 264 273 271
f 271 273 274 272
f 94 120 275 242
f 242 275 276 245
f 245 276 277 248
f 248 277 278 251
f 251 278 279 254
f 108 266 280 133
f 266 268 281 280
f 268 270 282 281
f 270 272 283 282
f 272 274 284 283
f 120 145 285 275
f 275 285 286 276
f 276 286 287 277
f 277 287 288 278
f 278 288 289 279
f 133 280 290 158
f 280 281 291 290
f 281 282 292 291
f 282 283 293 292
f 283 284 294 293
f 169 195 295 296
f 145 169 296 285
f 296 295 297 298
f 285 296 298 286
f 300 299 301 302
f 287 300 302 288
f 302 301 303 304
f 288 302 304 289
f 195 216 305 295
f 295 305 306 297
f 297 306 307 299
f 299 307 308 301
f 301 308 309 303
f 216 228 310 305
f 305 310 311 306
f 306 311 312 307
f 307 312 313 308
f 308 313 314 309
f 228 181 315 310
f 158 290 315 181
f 310 315 316 311
f 290 291 316 315
f 311 316 317 312
f 291 292 317 316
f 312 317 318 313
f 292 293 318 317
f 313 318 319 314
f 293 294 319 318
f 849 775 778 850
f 849 851 779 775
f 849 850 852 851
f 850 778 183 182
f 850 182 853 852
f 196 199 805 854
f 182 196 854 853
f 855 856 814 813
f 851 855 813 779
f 851 852 856 855
f 856 857 831 814
f 852 853 857 856
f 857 858 840 831
f 854 805 840 858
f 853 854 858 857
f 933 859 862 934
f 933 935 863 859
f 933 934 936 935
f 934 862 888 937
f 934 937 938 936
f 937 888 898 939
f 939 898 900 940
f 937 939 940 938
f 935 50 49 863
f 935 936 62 50
f 62 941 915 63
f 936 938 941 62
f 941 942 924 915
f 940 900 924 942
f 938 940 942 941
usemtl c6
f 243 246 247 244
f 243 245 248 246
f 298 297 299 300
f 286 298 300 287
