# generado por tools/vox_to_obj.py desde jugador_walk_f2.vox
mtllib jugador_walk_f2.mtl
v -3.0000 13.0000 2.0000
v -2.0000 13.0000 2.0000
v -2.0000 14.0000 2.0000
v -3.0000 14.0000 2.0000
v -3.0000 13.0000 1.0000
v -2.0000 13.0000 1.0000
v -2.0000 15.0000 2.0000
v -3.0000 15.0000 2.0000
v -2.0000 16.0000 2.0000
v -3.0000 16.0000 2.0000
v -2.0000 17.0000 2.0000
v -3.0000 17.0000 2.0000
v -2.0000 18.0000 2.0000
v -3.0000 18.0000 2.0000
v -2.0000 19.0000 2.0000
v -3.0000 19.0000 2.0000
v -2.0000 20.0000 2.0000
v -3.0000 20.0000 2.0000
v -2.0000 21.0000 2.0000
v -3.0000 21.0000 2.0000
v -2.0000 22.0000 2.0000
v -3.0000 22.0000 2.0000
v -3.0000 23.0000 2.0000
v -3.0000 23.0000 1.0000
v -3.0000 22.0000 1.0000
v -2.0000 23.0000 2.0000
v -2.0000 23.0000 1.0000
v -3.0000 23.0000 0.0000
v -3.0000 22.0000 0.0000
v -2.0000 23.0000 0.0000
v -3.0000 13.0000 0.0000
v -3.0000 14.0000 0.0000
v -3.0000 14.0000 -1.0000
v -3.0000 13.0000 -1.0000
v -3.0000 15.0000 0.0000
v -3.0000 15.0000 -1.0000
v -3.0000 16.0000 0.0000
v -3.0000 16.0000 -1.0000
v -3.0000 17.0000 0.0000
v -3.0000 17.0000 -1.0000
v -3.0000 18.0000 0.0000
v -3.0000 18.0000 -1.0000
v -3.0000 19.0000 0.0000
v -3.0000 19.0000 -1.0000
v -3.0000 20.0000 0.0000
v -3.0000 20.0000 -1.0000
v -3.0000 21.0000 0.0000
v -3.0000 21.0000 -1.0000
v -3.0000 22.0000 -1.0000
v -3.0000 23.0000 -1.0000
v -2.0000 23.0000 -1.0000
v -3.0000 14.0000 -2.0000
v -3.0000 13.0000 -2.0000
v -2.0000 14.0000 -2.0000
v -2.0000 13.0000 -2.0000
v -3.0000 15.0000 -2.0000
v -2.0000 15.0000 -2.0000
v -3.0000 16.0000 -2.0000
v -2.0000 16.0000 -2.0000
v -3.0000 17.0000 -2.0000
v -2.0000 17.0000 -2.0000
v -3.0000 18.0000 -2.0000
v -2.0000 18.0000 -2.0000
v -3.0000 19.0000 -2.0000
v -2.0000 19.0000 -2.0000
v -3.0000 20.0000 -2.0000
v -2.0000 20.0000 -2.0000
v -3.0000 21.0000 -2.0000
v -2.0000 21.0000 -2.0000
v -3.0000 22.0000 -2.0000
v -2.0000 22.0000 -2.0000
v -3.0000 23.0000 -2.0000
v -2.0000 23.0000 -2.0000
v -1.0000 13.0000 2.0000
v -1.0000 14.0000 2.0000
v -1.0000 13.0000 1.0000
v -1.0000 15.0000 2.0000
v -1.0000 16.0000 2.0000
v -1.0000 17.0000 2.0000
v -1.0000 18.0000 2.0000
v -1.0000 19.0000 2.0000
v -1.0000 20.0000 2.0000
v -1.0000 21.0000 2.0000
v -1.0000 22.0000 2.0000
v -1.0000 23.0000 2.0000
v -1.0000 14.0000 -2.0000
v -1.0000 13.0000 -2.0000
v -1.0000 15.0000 -2.0000
v -1.0000 16.0000 -2.0000
v -1.0000 17.0000 -2.0000
v -1.0000 18.0000 -2.0000
v -1.0000 19.0000 -2.0000
v -1.0000 20.0000 -2.0000
v -1.0000 21.0000 -2.0000
v -1.0000 22.0000 -2.0000
v -1.0000 23.0000 -2.0000
v 0.0000 13.0000 2.0000
v 0.0000 14.0000 2.0000
v 0.0000 13.0000 1.0000
v 0.0000 15.0000 2.0000
v 0.0000 16.0000 2.0000
v 0.0000 17.0000 2.0000
v 0.0000 18.0000 2.0000
v 0.0000 19.0000 2.0000
v 0.0000 20.0000 2.0000
v 0.0000 21.0000 2.0000
v 0.0000 22.0000 2.0000
v 0.0000 23.0000 2.0000
v -1.0000 13.0000 0.0000
v 0.0000 13.0000 0.0000
v -1.0000 13.0000 -1.0000
v 0.0000 13.0000 -1.0000
v 0.0000 14.0000 -2.0000
v 0.0000 13.0000 -2.0000
v 0.0000 15.0000 -2.0000
v 0.0000 16.0000 -2.0000
v 0.0000 17.0000 -2.0000
v 0.0000 18.0000 -2.0000
v 0.0000 19.0000 -2.0000
v 0.0000 20.0000 -2.0000
v 0.0000 21.0000 -2.0000
v 0.0000 22.0000 -2.0000
v 0.0000 23.0000 -2.0000
v 1.0000 13.0000 2.0000
v 1.0000 14.0000 2.0000
v 1.0000 13.0000 1.0000
v 1.0000 15.0000 2.0000
v 1.0000 16.0000 2.0000
v 1.0000 17.0000 2.0000
v 1.0000 18.0000 2.0000
v 1.0000 19.0000 2.0000
v 1.0000 20.0000 2.0000
v 1.0000 21.0000 2.0000
v 1.0000 22.0000 2.0000
v 1.0000 23.0000 2.0000
v 1.0000 13.0000 0.0000
v 1.0000 13.0000 -1.0000
v 1.0000 14.0000 -2.0000
v 1.0000 13.0000 -2.0000
v 1.0000 15.0000 -2.0000
v 1.0000 16.0000 -2.0000
v 1.0000 17.0000 -2.0000
v 1.0000 18.0000 -2.0000
v 1.0000 19.0000 -2.0000
v 1.0000 20.0000 -2.0000
v 1.0000 21.0000 -2.0000
v 1.0000 22.0000 -2.0000
v 1.0000 23.0000 -2.0000
v 2.0000 13.0000 2.0000
v 2.0000 14.0000 2.0000
v 2.0000 15.0000 2.0000
v 2.0000 16.0000 2.0000
v 2.0000 17.0000 2.0000
v 2.0000 18.0000 2.0000
v 2.0000 19.0000 2.0000
v 2.0000 20.0000 2.0000
v 2.0000 21.0000 2.0000
v 2.0000 22.0000 2.0000
v 2.0000 23.0000 2.0000
v 2.0000 13.0000 -1.0000
v 2.0000 13.0000 0.0000
v 2.0000 14.0000 -2.0000
v 2.0000 13.0000 -2.0000
v 2.0000 15.0000 -2.0000
v 2.0000 16.0000 -2.0000
v 2.0000 17.0000 -2.0000
v 2.0000 18.0000 -2.0000
v 2.0000 19.0000 -2.0000
v 2.0000 20.0000 -2.0000
v 2.0000 21.0000 -2.0000
v 2.0000 22.0000 -2.0000
v 2.0000 23.0000 -2.0000
v 3.0000 13.0000 2.0000
v 3.0000 13.0000 1.0000
v 3.0000 14.0000 1.0000
v 3.0000 14.0000 2.0000
v 3.0000 15.0000 1.0000
v 3.0000 15.0000 2.0000
v 3.0000 16.0000 1.0000
v 3.0000 16.0000 2.0000
v 3.0000 17.0000 1.0000
v 3.0000 17.0000 2.0000
v 3.0000 18.0000 1.0000
v 3.0000 18.0000 2.0000
v 3.0000 19.0000 1.0000
v 3.0000 19.0000 2.0000
v 3.0000 20.0000 1.0000
v 3.0000 20.0000 2.0000
v 3.0000 21.0000 1.0000
v 3.0000 21.0000 2.0000
v 3.0000 22.0000 1.0000
v 3.0000 22.0000 2.0000
v 3.0000 23.0000 1.0000
v 3.0000 23.0000 2.0000
v 2.0000 23.0000 1.0000
v 3.0000 13.0000 0.0000
v 3.0000 14.0000 0.0000
v 3.0000 15.0000 0.0000
v 3.0000 16.0000 0.0000
v 3.0000 17.0000 0.0000
v 3.0000 18.0000 0.0000
v 3.0000 19.0000 0.0000
v 3.0000 20.0000 0.0000
v 3.0000 21.0000 0.0000
v 3.0000 22.0000 0.0000
v 3.0000 23.0000 0.0000
v 2.0000 23.0000 0.0000
v 3.0000 13.0000 -1.0000
v 3.0000 22.0000 -1.0000
v 3.0000 23.0000 -1.0000
v 2.0000 23.0000 -1.0000
v 3.0000 14.0000 -2.0000
v 3.0000 13.0000 -2.0000
v 3.0000 15.0000 -2.0000
v 3.0000 16.0000 -2.0000
v 3.0000 17.0000 -2.0000
v 3.0000 18.0000 -2.0000
v 3.0000 19.0000 -2.0000
v 3.0000 20.0000 -2.0000
v 3.0000 21.0000 -2.0000
v 3.0000 22.0000 -2.0000
v 3.0000 23.0000 -2.0000
v -2.0000 24.0000 2.0000
v -2.0000 24.0000 1.0000
v -1.0000 24.0000 2.0000
v -2.0000 25.0000 2.0000
v -2.0000 25.0000 1.0000
v -1.0000 25.0000 2.0000
v -2.0000 26.0000 2.0000
v -2.0000 26.0000 1.0000
v -1.0000 26.0000 2.0000
v -2.0000 27.0000 2.0000
v -2.0000 27.0000 1.0000
v -1.0000 27.0000 2.0000
v -2.0000 28.0000 2.0000
v -2.0000 28.0000 1.0000
v -1.0000 28.0000 2.0000
v -2.0000 24.0000 0.0000
v -2.0000 25.0000 0.0000
v -2.0000 26.0000 0.0000
v -2.0000 27.0000 0.0000
v -2.0000 28.0000 0.0000
v -2.0000 24.0000 -1.0000
v -2.0000 25.0000 -1.0000
v -2.0000 26.0000 -1.0000
v -2.0000 27.0000 -1.0000
v -2.0000 28.0000 -1.0000
v -2.0000 24.0000 -2.0000
v -1.0000 24.0000 -2.0000
v -2.0000 25.0000 -2.0000
v -1.0000 25.0000 -2.0000
v -2.0000 26.0000 -2.0000
v -1.0000 26.0000 -2.0000
v -2.0000 27.0000 -2.0000
v -1.0000 27.0000 -2.0000
v -2.0000 28.0000 -2.0000
v -1.0000 28.0000 -2.0000
v 0.0000 24.0000 2.0000
v 0.0000 25.0000 2.0000
v 0.0000 26.0000 2.0000
v 0.0000 27.0000 2.0000
v 0.0000 28.0000 2.0000
v 0.0000 24.0000 -2.0000
v 0.0000 25.0000 -2.0000
v 0.0000 26.0000 -2.0000
v 0.0000 27.0000 -2.0000
v 0.0000 28.0000 -2.0000
v 1.0000 24.0000 2.0000
v 1.0000 25.0000 2.0000
v 1.0000 26.0000 2.0000
v 1.0000 27.0000 2.0000
v 1.0000 28.0000 2.0000
v 1.0000 24.0000 -2.0000
v 1.0000 25.0000 -2.0000
v 1.0000 26.0000 -2.0000
v 1.0000 27.0000 -2.0000
v 1.0000 28.0000 -2.0000
v 2.0000 24.0000 1.0000
v 2.0000 24.0000 2.0000
v 2.0000 25.0000 1.0000
v 2.0000 25.0000 2.0000
v 2.0000 26.0000 1.0000
v 2.0000 26.0000 2.0000
v 2.0000 27.0000 1.0000
v 2.0000 27.0000 2.0000
v 2.0000 28.0000 1.0000
v 2.0000 28.0000 2.0000
v 2.0000 24.0000 0.0000
v 2.0000 25.0000 0.0000
v 2.0000 26.0000 0.0000
v 2.0000 27.0000 0.0000
v 2.0000 28.0000 0.0000
v 2.0000 24.0000 -1.0000
v 2.0000 25.0000 -1.0000
v 2.0000 26.0000 -1.0000
v 2.0000 27.0000 -1.0000
v 2.0000 28.0000 -1.0000
v 2.0000 24.0000 -2.0000
v 2.0000 25.0000 -2.0000
v 2.0000 26.0000 -2.0000
v 2.0000 27.0000 -2.0000
v 2.0000 28.0000 -2.0000
v -4.0000 28.0000 4.0000
v -4.0000 29.0000 4.0000
v -4.0000 29.0000 3.0000
v -4.0000 28.0000 3.0000
v -3.0000 28.0000 4.0000
v -3.0000 29.0000 4.0000
v -3.0000 29.0000 3.0000
v -3.0000 28.0000 3.0000
v -4.0000 29.0000 2.0000
v -4.0000 28.0000 2.0000
v -3.0000 29.0000 2.0000
v -3.0000 28.0000 2.0000
v -4.0000 29.0000 1.0000
v -4.0000 28.0000 1.0000
v -3.0000 29.0000 1.0000
v -3.0000 28.0000 1.0000
v -4.0000 29.0000 0.0000
v -4.0000 28.0000 0.0000
v -3.0000 29.0000 0.0000
v -3.0000 28.0000 0.0000
v -4.0000 29.0000 -1.0000
v -4.0000 28.0000 -1.0000
v -3.0000 29.0000 -1.0000
v -3.0000 28.0000 -1.0000
v -4.0000 29.0000 -2.0000
v -4.0000 28.0000 -2.0000
v -3.0000 29.0000 -2.0000
v -3.0000 28.0000 -2.0000
v -4.0000 29.0000 -3.0000
v -4.0000 28.0000 -3.0000
v -3.0000 29.0000 -3.0000
v -3.0000 28.0000 -3.0000
v -4.0000 29.0000 -4.0000
v -4.0000 28.0000 -4.0000
v -3.0000 29.0000 -4.0000
v -3.0000 28.0000 -4.0000
v -2.0000 28.0000 4.0000
v -2.0000 29.0000 4.0000
v -2.0000 29.0000 3.0000
v -2.0000 28.0000 3.0000
v -2.0000 29.0000 2.0000
v -2.0000 29.0000 1.0000
v -2.0000 29.0000 0.0000
v -2.0000 29.0000 -1.0000
v -2.0000 29.0000 -2.0000
v -2.0000 29.0000 -3.0000
v -2.0000 28.0000 -3.0000
v -2.0000 29.0000 -4.0000
v -2.0000 28.0000 -4.0000
v -1.0000 28.0000 4.0000
v -1.0000 29.0000 4.0000
v -1.0000 29.0000 3.0000
v -1.0000 28.0000 3.0000
v -1.0000 29.0000 2.0000
v -1.0000 29.0000 -2.0000
v -1.0000 29.0000 -3.0000
v -1.0000 28.0000 -3.0000
v -1.0000 29.0000 -4.0000
v -1.0000 28.0000 -4.0000
v 0.0000 28.0000 4.0000
v 0.0000 29.0000 4.0000
v 0.0000 29.0000 3.0000
v 0.0000 28.0000 3.0000
v 0.0000 29.0000 2.0000
v 0.0000 29.0000 -2.0000
v 0.0000 29.0000 -3.0000
v 0.0000 28.0000 -3.0000
v 0.0000 29.0000 -4.0000
v 0.0000 28.0000 -4.0000
v 1.0000 28.0000 4.0000
v 1.0000 29.0000 4.0000
v 1.0000 29.0000 3.0000
v 1.0000 28.0000 3.0000
v 1.0000 29.0000 2.0000
v 1.0000 29.0000 -2.0000
v 1.0000 29.0000 -3.0000
v 1.0000 28.0000 -3.0000
v 1.0000 29.0000 -4.0000
v 1.0000 28.0000 -4.0000
v 2.0000 28.0000 4.0000
v 2.0000 29.0000 4.0000
v 2.0000 29.0000 3.0000
v 2.0000 28.0000 3.0000
v 2.0000 29.0000 2.0000
v 2.0000 29.0000 -2.0000
v 2.0000 29.0000 -3.0000
v 2.0000 28.0000 -3.0000
v 2.0000 29.0000 -4.0000
v 2.0000 28.0000 -4.0000
v 3.0000 28.0000 4.0000
v 3.0000 29.0000 4.0000
v 3.0000 29.0000 3.0000
v 3.0000 28.0000 3.0000
v 3.0000 29.0000 2.0000
v 3.0000 28.0000 2.0000
v 3.0000 29.0000 1.0000
v 2.0000 29.0000 1.0000
v 3.0000 28.0000 1.0000
v 3.0000 29.0000 0.0000
v 2.0000 29.0000 0.0000
v 3.0000 28.0000 0.0000
v 3.0000 29.0000 -1.0000
v 2.0000 29.0000 -1.0000
v 3.0000 28.0000 -1.0000
v 3.0000 29.0000 -2.0000
v 3.0000 28.0000 -2.0000
v 3.0000 29.0000 -3.0000
v 3.0000 28.0000 -3.0000
v 3.0000 29.0000 -4.0000
v 3.0000 28.0000 -4.0000
v 4.0000 28.0000 4.0000
v 4.0000 28.0000 3.0000
v 4.0000 29.0000 3.0000
v 4.0000 29.0000 4.0000
v 4.0000 28.0000 2.0000
v 4.0000 29.0000 2.0000
v 4.0000 28.0000 1.0000
v 4.0000 29.0000 1.0000
v 4.0000 28.0000 0.0000
v 4.0000 29.0000 0.0000
v 4.0000 28.0000 -1.0000
v 4.0000 29.0000 -1.0000
v 4.0000 28.0000 -2.0000
v 4.0000 29.0000 -2.0000
v 4.0000 28.0000 -3.0000
v 4.0000 29.0000 -3.0000
v 4.0000 28.0000 -4.0000
v 4.0000 29.0000 -4.0000
v -2.0000 30.0000 2.0000
v -2.0000 30.0000 1.0000
v -1.0000 30.0000 2.0000
v -2.0000 31.0000 2.0000
v -2.0000 31.0000 1.0000
v -1.0000 31.0000 2.0000
v -2.0000 32.0000 2.0000
v -2.0000 32.0000 1.0000
v -1.0000 32.0000 2.0000
v -1.0000 32.0000 1.0000
v -2.0000 30.0000 0.0000
v -2.0000 31.0000 0.0000
v -2.0000 32.0000 0.0000
v -1.0000 32.0000 0.0000
v -2.0000 30.0000 -1.0000
v -2.0000 31.0000 -1.0000
v -2.0000 32.0000 -1.0000
v -1.0000 32.0000 -1.0000
v -2.0000 30.0000 -2.0000
v -1.0000 30.0000 -2.0000
v -2.0000 31.0000 -2.0000
v -1.0000 31.0000 -2.0000
v -2.0000 32.0000 -2.0000
v -1.0000 32.0000 -2.0000
v 0.0000 30.0000 2.0000
v 0.0000 31.0000 2.0000
v 0.0000 32.0000 2.0000
v 0.0000 32.0000 1.0000
v 0.0000 32.0000 0.0000
v 0.0000 32.0000 -1.0000
v 0.0000 30.0000 -2.0000
v 0.0000 31.0000 -2.0000
v 0.0000 32.0000 -2.0000
v 1.0000 30.0000 2.0000
v 1.0000 31.0000 2.0000
v 1.0000 32.0000 2.0000
v 1.0000 32.0000 1.0000
v 1.0000 32.0000 0.0000
v 1.0000 32.0000 -1.0000
v 1.0000 30.0000 -2.0000
v 1.0000 31.0000 -2.0000
v 1.0000 32.0000 -2.0000
v 2.0000 30.0000 1.0000
v 2.0000 30.0000 2.0000
v 2.0000 31.0000 1.0000
v 2.0000 31.0000 2.0000
v 2.0000 32.0000 1.0000
v 2.0000 32.0000 2.0000
v 2.0000 30.0000 0.0000
v 2.0000 31.0000 0.0000
v 2.0000 32.0000 0.0000
v 2.0000 30.0000 -1.0000
v 2.0000 31.0000 -1.0000
v 2.0000 32.0000 -1.0000
v 2.0000 30.0000 -2.0000
v 2.0000 31.0000 -2.0000
v 2.0000 32.0000 -2.0000
v 1.0000 0.0000 3.0000
v 1.0000 1.0000 3.0000
v 1.0000 1.0000 2.0000
v 1.0000 0.0000 2.0000
v 2.0000 0.0000 3.0000
v 2.0000 1.0000 3.0000
v 2.0000 0.0000 2.0000
v 1.0000 2.0000 3.0000
v 1.0000 2.0000 2.0000
v 2.0000 2.0000 3.0000
v 1.0000 1.0000 1.0000
v 1.0000 0.0000 1.0000
v 2.0000 0.0000 1.0000
v 1.0000 2.0000 1.0000
v 1.0000 1.0000 0.0000
v 1.0000 0.0000 0.0000
v 2.0000 1.0000 0.0000
v 2.0000 0.0000 0.0000
v 1.0000 2.0000 0.0000
v 2.0000 2.0000 0.0000
v 3.0000 0.0000 3.0000
v 3.0000 0.0000 2.0000
v 3.0000 1.0000 2.0000
v 3.0000 1.0000 3.0000
v 3.0000 2.0000 2.0000
v 3.0000 2.0000 3.0000
v 3.0000 0.0000 1.0000
v 3.0000 1.0000 1.0000
v 3.0000 2.0000 1.0000
v 3.0000 0.0000 0.0000
v 3.0000 1.0000 0.0000
v 3.0000 2.0000 0.0000
v 1.0000 3.0000 3.0000
v 1.0000 3.0000 2.0000
v 2.0000 3.0000 3.0000
v 1.0000 4.0000 3.0000
v 1.0000 4.0000 2.0000
v 2.0000 4.0000 3.0000
v 1.0000 5.0000 3.0000
v 1.0000 5.0000 2.0000
v 2.0000 5.0000 3.0000
v 1.0000 6.0000 3.0000
v 1.0000 6.0000 2.0000
v 2.0000 6.0000 3.0000
v 1.0000 7.0000 3.0000
v 1.0000 7.0000 2.0000
v 2.0000 7.0000 3.0000
v 1.0000 8.0000 3.0000
v 1.0000 8.0000 2.0000
v 2.0000 8.0000 3.0000
v 1.0000 9.0000 3.0000
v 1.0000 9.0000 2.0000
v 2.0000 9.0000 3.0000
v 1.0000 10.0000 3.0000
v 1.0000 10.0000 2.0000
v 2.0000 10.0000 3.0000
v 1.0000 11.0000 3.0000
v 1.0000 11.0000 2.0000
v 2.0000 11.0000 3.0000
v 1.0000 12.0000 3.0000
v 1.0000 12.0000 2.0000
v 2.0000 12.0000 3.0000
v 1.0000 13.0000 3.0000
v 2.0000 13.0000 3.0000
v 1.0000 3.0000 1.0000
v 1.0000 4.0000 1.0000
v 1.0000 5.0000 1.0000
v 1.0000 6.0000 1.0000
v 1.0000 7.0000 1.0000
v 1.0000 8.0000 1.0000
v 1.0000 9.0000 1.0000
v 1.0000 10.0000 1.0000
v 1.0000 11.0000 1.0000
v 1.0000 12.0000 1.0000
v 1.0000 3.0000 0.0000
v 2.0000 3.0000 0.0000
v 1.0000 4.0000 0.0000
v 2.0000 4.0000 0.0000
v 1.0000 5.0000 0.0000
v 2.0000 5.0000 0.0000
v 1.0000 6.0000 0.0000
v 2.0000 6.0000 0.0000
v 1.0000 7.0000 0.0000
v 2.0000 7.0000 0.0000
v 1.0000 8.0000 0.0000
v 2.0000 8.0000 0.0000
v 1.0000 9.0000 0.0000
v 2.0000 9.0000 0.0000
v 1.0000 10.0000 0.0000
v 2.0000 10.0000 0.0000
v 1.0000 11.0000 0.0000
v 2.0000 11.0000 0.0000
v 1.0000 12.0000 0.0000
v 2.0000 12.0000 0.0000
v 3.0000 3.0000 2.0000
v 3.0000 3.0000 3.0000
v 3.0000 4.0000 2.0000
v 3.0000 4.0000 3.0000
v 3.0000 5.0000 2.0000
v 3.0000 5.0000 3.0000
v 3.0000 6.0000 2.0000
v 3.0000 6.0000 3.0000
v 3.0000 7.0000 2.0000
v 3.0000 7.0000 3.0000
v 3.0000 8.0000 2.0000
v 3.0000 8.0000 3.0000
v 3.0000 9.0000 2.0000
v 3.0000 9.0000 3.0000
v 3.0000 10.0000 2.0000
v 3.0000 10.0000 3.0000
v 3.0000 11.0000 2.0000
v 3.0000 11.0000 3.0000
v 3.0000 12.0000 2.0000
v 3.0000 12.0000 3.0000
v 3.0000 13.0000 3.0000
v 3.0000 3.0000 1.0000
v 3.0000 4.0000 1.0000
v 3.0000 5.0000 1.0000
v 3.0000 6.0000 1.0000
v 3.0000 7.0000 1.0000
v 3.0000 8.0000 1.0000
v 3.0000 9.0000 1.0000
v 3.0000 10.0000 1.0000
v 3.0000 11.0000 1.0000
v 3.0000 12.0000 1.0000
v 3.0000 3.0000 0.0000
v 3.0000 4.0000 0.0000
v 3.0000 5.0000 0.0000
v 3.0000 6.0000 0.0000
v 3.0000 7.0000 0.0000
v 3.0000 8.0000 0.0000
v 3.0000 9.0000 0.0000
v 3.0000 10.0000 0.0000
v 3.0000 11.0000 0.0000
v 3.0000 12.0000 0.0000
v -3.0000 4.0000 1.0000
v -3.0000 5.0000 1.0000
v -3.0000 5.0000 0.0000
v -3.0000 4.0000 0.0000
v -2.0000 4.0000 1.0000
v -2.0000 5.0000 1.0000
v -2.0000 4.0000 0.0000
v -3.0000 6.0000 1.0000
v -3.0000 6.0000 0.0000
v -2.0000 6.0000 1.0000
v -3.0000 5.0000 -1.0000
v -3.0000 4.0000 -1.0000
v -2.0000 4.0000 -1.0000
v -3.0000 6.0000 -1.0000
v -3.0000 5.0000 -2.0000
v -3.0000 4.0000 -2.0000
v -2.0000 5.0000 -2.0000
v -2.0000 4.0000 -2.0000
v -3.0000 6.0000 -2.0000
v -2.0000 6.0000 -2.0000
v -1.0000 4.0000 1.0000
v -1.0000 4.0000 0.0000
v -1.0000 5.0000 0.0000
v -1.0000 5.0000 1.0000
v -1.0000 6.0000 0.0000
v -1.0000 6.0000 1.0000
v -1.0000 4.0000 -1.0000
v -1.0000 5.0000 -1.0000
v -1.0000 6.0000 -1.0000
v -1.0000 4.0000 -2.0000
v -1.0000 5.0000 -2.0000
v -1.0000 6.0000 -2.0000
v -3.0000 7.0000 1.0000
v -3.0000 7.0000 0.0000
v -2.0000 7.0000 1.0000
v -3.0000 8.0000 1.0000
v -3.0000 8.0000 0.0000
v -2.0000 8.0000 1.0000
v -3.0000 9.0000 1.0000
v -3.0000 9.0000 0.0000
v -2.0000 9.0000 1.0000
v -3.0000 10.0000 1.0000
v -3.0000 10.0000 0.0000
v -2.0000 10.0000 1.0000
v -3.0000 11.0000 1.0000
v -3.0000 11.0000 0.0000
v -2.0000 11.0000 1.0000
v -3.0000 12.0000 1.0000
v -3.0000 12.0000 0.0000
v -2.0000 12.0000 1.0000
v -3.0000 7.0000 -1.0000
v -3.0000 8.0000 -1.0000
v -3.0000 9.0000 -1.0000
v -3.0000 10.0000 -1.0000
v -3.0000 11.0000 -1.0000
v -3.0000 12.0000 -1.0000
v -3.0000 7.0000 -2.0000
v -2.0000 7.0000 -2.0000
v -3.0000 8.0000 -2.0000
v -2.0000 8.0000 -2.0000
v -3.0000 9.0000 -2.0000
v -2.0000 9.0000 -2.0000
v -3.0000 10.0000 -2.0000
v -2.0000 10.0000 -2.0000
v -3.0000 11.0000 -2.0000
v -2.0000 11.0000 -2.0000
v -3.0000 12.0000 -2.0000
v -2.0000 12.0000 -2.0000
v -1.0000 7.0000 0.0000
v -1.0000 7.0000 1.0000
v -1.0000 8.0000 0.0000
v -1.0000 8.0000 1.0000
v -1.0000 9.0000 0.0000
v -1.0000 9.0000 1.0000
v -1.0000 10.0000 0.0000
v -1.0000 10.0000 1.0000
v -1.0000 11.0000 0.0000
v -1.0000 11.0000 1.0000
v -1.0000 12.0000 0.0000
v -1.0000 12.0000 1.0000
v -1.0000 7.0000 -1.0000
v -1.0000 8.0000 -1.0000
v -1.0000 9.0000 -1.0000
v -1.0000 10.0000 -1.0000
v -1.0000 11.0000 -1.0000
v -1.0000 12.0000 -1.0000
v -1.0000 7.0000 -2.0000
v -1.0000 8.0000 -2.0000
v -1.0000 9.0000 -2.0000
v -1.0000 10.0000 -2.0000
v -1.0000 11.0000 -2.0000
v -1.0000 12.0000 -2.0000
v 4.0000 14.0000 0.0000
v 4.0000 15.0000 0.0000
v 4.0000 16.0000 0.0000
v 4.0000 17.0000 0.0000
v 4.0000 18.0000 0.0000
v 4.0000 19.0000 0.0000
v 4.0000 20.0000 0.0000
v 4.0000 21.0000 0.0000
v 4.0000 22.0000 0.0000
v 4.0000 22.0000 -1.0000
v 4.0000 22.0000 -2.0000
v 3.0000 15.0000 -3.0000
v 3.0000 14.0000 -3.0000
v 4.0000 15.0000 -3.0000
v 4.0000 14.0000 -3.0000
v 3.0000 16.0000 -3.0000
v 4.0000 16.0000 -3.0000
v 3.0000 17.0000 -3.0000
v 4.0000 17.0000 -3.0000
v 3.0000 18.0000 -3.0000
v 4.0000 18.0000 -3.0000
v 3.0000 19.0000 -3.0000
v 4.0000 19.0000 -3.0000
v 3.0000 20.0000 -3.0000
v 4.0000 20.0000 -3.0000
v 3.0000 21.0000 -3.0000
v 4.0000 21.0000 -3.0000
v 3.0000 22.0000 -3.0000
v 4.0000 22.0000 -3.0000
v 5.0000 14.0000 0.0000
v 5.0000 14.0000 -1.0000
v 5.0000 15.0000 -1.0000
v 5.0000 15.0000 0.0000
v 5.0000 16.0000 -1.0000
v 5.0000 16.0000 0.0000
v 5.0000 17.0000 -1.0000
v 5.0000 17.0000 0.0000
v 5.0000 18.0000 -1.0000
v 5.0000 18.0000 0.0000
v 5.0000 19.0000 -1.0000
v 5.0000 19.0000 0.0000
v 5.0000 20.0000 -1.0000
v 5.0000 20.0000 0.0000
v 5.0000 21.0000 -1.0000
v 5.0000 21.0000 0.0000
v 5.0000 22.0000 -1.0000
v 5.0000 22.0000 0.0000
v 5.0000 14.0000 -2.0000
v 5.0000 15.0000 -2.0000
v 5.0000 16.0000 -2.0000
v 5.0000 17.0000 -2.0000
v 5.0000 18.0000 -2.0000
v 5.0000 19.0000 -2.0000
v 5.0000 20.0000 -2.0000
v 5.0000 21.0000 -2.0000
v 5.0000 22.0000 -2.0000
v 5.0000 14.0000 -3.0000
v 5.0000 15.0000 -3.0000
v 5.0000 16.0000 -3.0000
v 5.0000 17.0000 -3.0000
v 5.0000 18.0000 -3.0000
v 5.0000 19.0000 -3.0000
v 5.0000 20.0000 -3.0000
v 5.0000 21.0000 -3.0000
v 5.0000 22.0000 -3.0000
v 4.0000 13.0000 0.0000
v 4.0000 13.0000 -1.0000
v 4.0000 13.0000 -2.0000
v 3.0000 13.0000 -3.0000
v 4.0000 13.0000 -3.0000
v 5.0000 13.0000 0.0000
v 5.0000 13.0000 -1.0000
v 5.0000 13.0000 -2.0000
v 5.0000 13.0000 -3.0000
v -5.0000 14.0000 3.0000
v -5.0000 15.0000 3.0000
v -5.0000 15.0000 2.0000
v -5.0000 14.0000 2.0000
v -4.0000 14.0000 3.0000
v -4.0000 15.0000 3.0000
v -5.0000 16.0000 3.0000
v -5.0000 16.0000 2.0000
v -4.0000 16.0000 3.0000
v -5.0000 17.0000 3.0000
v -5.0000 17.0000 2.0000
v -4.0000 17.0000 3.0000
v -5.0000 18.0000 3.0000
v -5.0000 18.0000 2.0000
v -4.0000 18.0000 3.0000
v -5.0000 19.0000 3.0000
v -5.0000 19.0000 2.0000
v -4.0000 19.0000 3.0000
v -5.0000 20.0000 3.0000
v -5.0000 20.0000 2.0000
v -4.0000 20.0000 3.0000
v -5.0000 21.0000 3.0000
v -5.0000 21.0000 2.0000
v -4.0000 21.0000 3.0000
v -5.0000 22.0000 3.0000
v -5.0000 22.0000 2.0000
v -4.0000 22.0000 3.0000
v -4.0000 22.0000 2.0000
v -5.0000 15.0000 1.0000
v -5.0000 14.0000 1.0000
v -5.0000 16.0000 1.0000
v -5.0000 17.0000 1.0000
v -5.0000 18.0000 1.0000
v -5.0000 19.0000 1.0000
v -5.0000 20.0000 1.0000
v -5.0000 21.0000 1.0000
v -5.0000 22.0000 1.0000
v -4.0000 22.0000 1.0000
v -5.0000 15.0000 0.0000
v -5.0000 14.0000 0.0000
v -4.0000 15.0000 0.0000
v -4.0000 14.0000 0.0000
v -5.0000 16.0000 0.0000
v -4.0000 16.0000 0.0000
v -5.0000 17.0000 0.0000
v -4.0000 17.0000 0.0000
v -5.0000 18.0000 0.0000
v -4.0000 18.0000 0.0000
v -5.0000 19.0000 0.0000
v -4.0000 19.0000 0.0000
v -5.0000 20.0000 0.0000
v -4.0000 20.0000 0.0000
v -5.0000 21.0000 0.0000
v -4.0000 21.0000 0.0000
v -5.0000 22.0000 0.0000
v -4.0000 22.0000 0.0000
v -3.0000 14.0000 3.0000
v -3.0000 15.0000 3.0000
v -3.0000 16.0000 3.0000
v -3.0000 17.0000 3.0000
v -3.0000 18.0000 3.0000
v -3.0000 19.0000 3.0000
v -3.0000 20.0000 3.0000
v -3.0000 21.0000 3.0000
v -3.0000 22.0000 3.0000
v -5.0000 13.0000 3.0000
v -5.0000 13.0000 2.0000
v -4.0000 13.0000 3.0000
v -4.0000 13.0000 2.0000
v -5.0000 13.0000 1.0000
v -4.0000 13.0000 1.0000
v -5.0000 13.0000 0.0000
v -4.0000 13.0000 0.0000
v -3.0000 13.0000 3.0000
usemtl c1
f 303 304 305 306
f 303 307 308 304
f 304 308 309 305
f 303 306 310 307
f 306 305 311 312
f 305 309 313 311
f 306 312 314 310
f 312 311 315 316
f 311 313 317 315
f 312 316 318 314
f 316 315 319 320
f 315 317 321 319
f 316 320 322 318
f 320 319 323 324
f 319 321 325 323
f 320 324 326 322
f 324 323 327 328
f 323 325 329 327
f 324 328 330 326
f 328 327 331 332
f 327 329 333 331
f 328 332 334 330
f 332 331 335 336
f 336 335 337 338
f 331 333 337 335
f 332 336 338 334
f 307 339 340 308
f 308 340 341 309
f 307 310 342 339
f 309 341 343 313
f 310 314 235 342
f 313 343 344 317
f 314 318 236 235
f 317 344 345 321
f 318 322 242 236
f 321 345 346 325
f 322 326 247 242
f 325 346 347 329
f 326 330 256 247
f 329 347 348 333
f 330 334 349 256
f 338 337 350 351
f 333 348 350 337
f 334 338 351 349
f 339 352 353 340
f 340 353 354 341
f 339 342 355 352
f 341 354 356 343
f 342 235 237 355
f 347 357 358 348
f 256 349 359 257
f 351 350 360 361
f 348 358 360 350
f 349 351 361 359
f 352 362 363 353
f 353 363 364 354
f 352 355 365 362
f 354 364 366 356
f 355 237 262 365
f 357 367 368 358
f 257 359 369 267
f 361 360 370 371
f 358 368 370 360
f 359 361 371 369
f 362 372 373 363
f 363 373 374 364
f 362 365 375 372
f 364 374 376 366
f 365 262 272 375
f 367 377 378 368
f 267 369 379 277
f 371 370 380 381
f 368 378 380 370
f 369 371 381 379
f 372 382 383 373
f 373 383 384 374
f 372 375 385 382
f 374 384 386 376
f 375 272 287 385
f 377 387 388 378
f 277 379 389 302
f 381 380 390 391
f 378 388 390 380
f 379 381 391 389
f 382 392 393 383
f 383 393 394 384
f 382 385 395 392
f 384 394 396 386
f 385 287 397 395
f 386 396 398 399
f 287 286 400 397
f 399 398 401 402
f 286 292 403 400
f 402 401 404 405
f 292 297 406 403
f 405 404 407 387
f 297 302 408 406
f 387 407 409 388
f 302 389 410 408
f 391 390 411 412
f 388 409 411 390
f 389 391 412 410
f 413 414 415 416
f 392 413 416 393
f 393 416 415 394
f 392 395 414 413
f 414 417 418 415
f 394 415 418 396
f 395 397 417 414
f 417 419 420 418
f 396 418 420 398
f 397 400 419 417
f 419 421 422 420
f 398 420 422 401
f 400 403 421 419
f 421 423 424 422
f 401 422 424 404
f 403 406 423 421
f 423 425 426 424
f 404 424 426 407
f 406 408 425 423
f 425 427 428 426
f 407 426 428 409
f 408 410 427 425
f 427 429 430 428
f 412 411 430 429
f 409 428 430 411
f 410 412 429 427
f 343 431 432 344
f 343 356 433 431
f 431 434 435 432
f 431 433 436 434
f 434 437 438 435
f 434 436 439 437
f 437 439 440 438
f 344 432 441 345
f 432 435 442 441
f 435 438 443 442
f 438 440 444 443
f 345 441 445 346
f 441 442 446 445
f 442 443 447 446
f 443 444 448 447
f 346 445 449 347
f 347 449 450 357
f 445 446 451 449
f 449 451 452 450
f 446 447 453 451
f 451 453 454 452
f 447 448 454 453
f 356 366 455 433
f 433 455 456 436
f 436 456 457 439
f 439 457 458 440
f 440 458 459 444
f 444 459 460 448
f 357 450 461 367
f 450 452 462 461
f 452 454 463 462
f 448 460 463 454
f 366 376 464 455
f 455 464 465 456
f 456 465 466 457
f 457 466 467 458
f 458 467 468 459
f 459 468 469 460
f 367 461 470 377
f 461 462 471 470
f 462 463 472 471
f 460 469 472 463
f 386 399 473 474
f 376 386 474 464
f 474 473 475 476
f 464 474 476 465
f 476 475 477 478
f 465 476 478 466
f 466 478 477 467
f 399 402 479 473
f 473 479 480 475
f 475 480 481 477
f 467 477 481 468
f 402 405 482 479
f 479 482 483 480
f 480 483 484 481
f 468 481 484 469
f 405 387 485 482
f 377 470 485 387
f 482 485 486 483
f 470 471 486 485
f 483 486 487 484
f 471 472 487 486
f 469 484 487 472
usemtl c2
f 1 2 3 4
f 1 5 6 2
f 4 3 7 8
f 8 7 9 10
f 10 9 11 12
f 12 11 13 14
f 14 13 15 16
f 16 15 17 18
f 18 17 19 20
f 20 19 21 22
f 22 23 24 25
f 22 21 26 23
f 23 26 27 24
f 25 24 28 29
f 24 27 30 28
f 31 32 33 34
f 32 35 36 33
f 35 37 38 36
f 37 39 40 38
f 39 41 42 40
f 41 43 44 42
f 43 45 46 44
f 45 47 48 46
f 47 29 49 48
f 29 28 50 49
f 28 30 51 50
f 34 33 52 53
f 53 52 54 55
f 33 36 56 52
f 52 56 57 54
f 36 38 58 56
f 56 58 59 57
f 38 40 60 58
f 58 60 61 59
f 40 42 62 60
f 60 62 63 61
f 42 44 64 62
f 62 64 65 63
f 44 46 66 64
f 64 66 67 65
f 46 48 68 66
f 66 68 69 67
f 48 49 70 68
f 68 70 71 69
f 49 50 72 70
f 70 72 73 71
f 50 51 73 72
f 2 74 75 3
f 2 6 76 74
f 3 75 77 7
f 7 77 78 9
f 9 78 79 11
f 11 79 80 13
f 13 80 81 15
f 15 81 82 17
f 17 82 83 19
f 19 83 84 21
f 21 84 85 26
f 55 54 86 87
f 54 57 88 86
f 57 59 89 88
f 59 61 90 89
f 61 63 91 90
f 63 65 92 91
f 65 67 93 92
f 67 69 94 93
f 69 71 95 94
f 71 73 96 95
f 74 97 98 75
f 74 76 99 97
f 75 98 100 77
f 77 100 101 78
f 78 101 102 79
f 79 102 103 80
f 80 103 104 81
f 81 104 105 82
f 82 105 106 83
f 83 106 107 84
f 84 107 108 85
f 76 109 110 99
f 109 111 112 110
f 87 86 113 114
f 111 87 114 112
f 86 88 115 113
f 88 89 116 115
f 89 90 117 116
f 90 91 118 117
f 91 92 119 118
f 92 93 120 119
f 93 94 121 120
f 94 95 122 121
f 95 96 123 122
f 97 124 125 98
f 97 99 126 124
f 98 125 127 100
f 100 127 128 101
f 101 128 129 102
f 102 129 130 103
f 103 130 131 104
f 104 131 132 105
f 105 132 133 106
f 106 133 134 107
f 107 134 135 108
f 99 110 136 126
f 110 112 137 136
f 114 113 138 139
f 112 114 139 137
f 113 115 140 138
f 115 116 141 140
f 116 117 142 141
f 117 118 143 142
f 118 119 144 143
f 119 120 145 144
f 120 121 146 145
f 121 122 147 146
f 122 123 148 147
f 124 149 150 125
f 125 150 151 127
f 127 151 152 128
f 128 152 153 129
f 129 153 154 130
f 130 154 155 131
f 131 155 156 132
f 132 156 157 133
f 133 157 158 134
f 134 158 159 135
f 136 137 160 161
f 139 138 162 163
f 137 139 163 160
f 138 140 164 162
f 140 141 165 164
f 141 142 166 165
f 142 143 167 166
f 143 144 168 167
f 144 145 169 168
f 145 146 170 169
f 146 147 171 170
f 147 148 172 171
f 173 174 175 176
f 149 173 176 150
f 176 175 177 178
f 150 176 178 151
f 178 177 179 180
f 151 178 180 152
f 180 179 181 182
f 152 180 182 153
f 182 181 183 184
f 153 182 184 154
f 184 183 185 186
f 154 184 186 155
f 186 185 187 188
f 155 186 188 156
f 188 187 189 190
f 156 188 190 157
f 190 189 191 192
f 157 190 192 158
f 192 191 193 194
f 158 192 194 159
f 159 194 193 195
f 174 196 197 175
f 175 197 198 177
f 177 198 199 179
f 179 199 200 181
f 181 200 201 183
f 183 201 202 185
f 185 202 203 187
f 187 203 204 189
f 189 204 205 191
f 191 205 206 193
f 195 193 206 207
f 161 160 208 196
f 205 209 210 206
f 207 206 210 211
f 163 162 212 213
f 160 163 213 208
f 162 164 214 212
f 164 165 215 214
f 165 166 216 215
f 166 167 217 216
f 167 168 218 217
f 168 169 219 218
f 169 170 220 219
f 170 171 221 220
f 209 221 222 210
f 171 172 222 221
f 211 210 222 172
f 197 715 716 198
f 198 716 717 199
f 199 717 718 200
f 200 718 719 201
f 201 719 720 202
f 202 720 721 203
f 203 721 722 204
f 204 722 723 205
f 205 723 724 209
f 209 724 725 221
f 212 214 726 727
f 727 726 728 729
f 214 215 730 726
f 726 730 731 728
f 215 216 732 730
f 730 732 733 731
f 216 217 734 732
f 732 734 735 733
f 217 218 736 734
f 734 736 737 735
f 218 219 738 736
f 736 738 739 737
f 219 220 740 738
f 738 740 741 739
f 220 221 742 740
f 740 742 743 741
f 221 725 743 742
f 744 745 746 747
f 715 744 747 716
f 747 746 748 749
f 716 747 749 717
f 749 748 750 751
f 717 749 751 718
f 751 750 752 753
f 718 751 753 719
f 753 752 754 755
f 719 753 755 720
f 755 754 756 757
f 720 755 757 721
f 757 756 758 759
f 721 757 759 722
f 759 758 760 761
f 722 759 761 723
f 723 761 760 724
f 745 762 763 746
f 746 763 764 748
f 748 764 765 750
f 750 765 766 752
f 752 766 767 754
f 754 767 768 756
f 756 768 769 758
f 758 769 770 760
f 724 760 770 725
f 762 771 772 763
f 729 728 772 771
f 763 772 773 764
f 728 731 773 772
f 764 773 774 765
f 731 733 774 773
f 765 774 775 766
f 733 735 775 774
f 766 775 776 767
f 735 737 776 775
f 767 776 777 768
f 737 739 777 776
f 768 777 778 769
f 739 741 778 777
f 769 778 779 770
f 741 743 779 778
f 725 770 779 743
f 789 790 791 792
f 789 793 794 790
f 790 795 796 791
f 790 794 797 795
f 795 798 799 796
f 795 797 800 798
f 798 801 802 799
f 798 800 803 801
f 801 804 805 802
f 801 803 806 804
f 804 807 808 805
f 804 806 809 807
f 807 810 811 808
f 807 809 812 810
f 810 813 814 811
f 810 812 815 813
f 813 815 816 814
f 792 791 817 818
f 791 796 819 817
f 796 799 820 819
f 799 802 821 820
f 802 805 822 821
f 805 808 823 822
f 808 811 824 823
f 811 814 825 824
f 814 816 826 825
f 818 817 827 828
f 828 827 829 830
f 817 819 831 827
f 827 831 832 829
f 819 820 833 831
f 831 833 834 832
f 820 821 835 833
f 833 835 836 834
f 821 822 837 835
f 835 837 838 836
f 822 823 839 837
f 837 839 840 838
f 823 824 841 839
f 839 841 842 840
f 824 825 843 841
f 841 843 844 842
f 825 826 844 843
f 845 4 8 846
f 793 845 846 794
f 846 8 10 847
f 794 846 847 797
f 847 10 12 848
f 797 847 848 800
f 848 12 14 849
f 800 848 849 803
f 849 14 16 850
f 803 849 850 806
f 850 16 18 851
f 806 850 851 809
f 851 18 20 852
f 809 851 852 812
f 852 20 22 853
f 812 852 853 815
f 815 853 22 816
f 816 22 25 826
f 830 829 35 32
f 829 832 37 35
f 832 834 39 37
f 834 836 41 39
f 836 838 43 41
f 838 840 45 43
f 840 842 47 45
f 842 844 29 47
f 826 25 29 844
usemtl c3
f 495 520 521 496
f 495 497 522 520
f 520 523 524 521
f 520 522 525 523
f 523 526 527 524
f 523 525 528 526
f 526 529 530 527
f 526 528 531 529
f 529 532 533 530
f 529 531 534 532
f 532 535 536 533
f 532 534 537 535
f 535 538 539 536
f 535 537 540 538
f 538 541 542 539
f 538 540 543 541
f 541 544 545 542
f 541 543 546 544
f 544 547 548 545
f 544 546 549 547
f 547 550 124 548
f 547 549 551 550
f 550 551 149 124
f 496 521 552 501
f 521 524 553 552
f 524 527 554 553
f 527 530 555 554
f 530 533 556 555
f 533 536 557 556
f 536 539 558 557
f 539 542 559 558
f 542 545 560 559
f 545 548 561 560
f 548 124 126 561
f 501 552 562 506
f 506 562 563 507
f 552 553 564 562
f 562 564 565 563
f 553 554 566 564
f 564 566 567 565
f 554 555 568 566
f 566 568 569 567
f 555 556 570 568
f 568 570 571 569
f 556 557 572 570
f 570 572 573 571
f 557 558 574 572
f 572 574 575 573
f 558 559 576 574
f 574 576 577 575
f 559 560 578 576
f 576 578 579 577
f 560 561 580 578
f 578 580 581 579
f 561 126 136 580
f 580 136 161 581
f 513 512 582 583
f 497 513 583 522
f 583 582 584 585
f 522 583 585 525
f 585 584 586 587
f 525 585 587 528
f 587 586 588 589
f 528 587 589 531
f 589 588 590 591
f 531 589 591 534
f 591 590 592 593
f 534 591 593 537
f 593 592 594 595
f 537 593 595 540
f 595 594 596 597
f 540 595 597 543
f 597 596 598 599
f 543 597 599 546
f 599 598 600 601
f 546 599 601 549
f 601 600 173 602
f 549 601 602 551
f 551 602 173 149
f 512 516 603 582
f 582 603 604 584
f 584 604 605 586
f 586 605 606 588
f 588 606 607 590
f 590 607 608 592
f 592 608 609 594
f 594 609 610 596
f 596 610 611 598
f 598 611 612 600
f 600 612 174 173
f 516 519 613 603
f 507 563 613 519
f 603 613 614 604
f 563 565 614 613
f 604 614 615 605
f 565 567 615 614
f 605 615 616 606
f 567 569 616 615
f 606 616 617 607
f 569 571 617 616
f 607 617 618 608
f 571 573 618 617
f 608 618 619 609
f 573 575 619 618
f 609 619 620 610
f 575 577 620 619
f 610 620 621 611
f 577 579 621 620
f 611 621 622 612
f 579 581 622 621
f 612 622 196 174
f 581 161 196 622
f 630 655 656 631
f 630 632 657 655
f 655 658 659 656
f 655 657 660 658
f 658 661 662 659
f 658 660 663 661
f 661 664 665 662
f 661 663 666 664
f 664 667 668 665
f 664 666 669 667
f 667 670 671 668
f 667 669 672 670
f 670 5 31 671
f 670 672 6 5
f 631 656 673 636
f 656 659 674 673
f 659 662 675 674
f 662 665 676 675
f 665 668 677 676
f 668 671 678 677
f 671 31 34 678
f 636 673 679 641
f 641 679 680 642
f 673 674 681 679
f 679 681 682 680
f 674 675 683 681
f 681 683 684 682
f 675 676 685 683
f 683 685 686 684
f 676 677 687 685
f 685 687 688 686
f 677 678 689 687
f 687 689 690 688
f 678 34 53 689
f 689 53 55 690
f 648 647 691 692
f 632 648 692 657
f 692 691 693 694
f 657 692 694 660
f 694 693 695 696
f 660 694 696 663
f 696 695 697 698
f 663 696 698 666
f 698 697 699 700
f 666 698 700 669
f 700 699 701 702
f 669 700 702 672
f 702 701 109 76
f 672 702 76 6
f 647 651 703 691
f 691 703 704 693
f 693 704 705 695
f 695 705 706 697
f 697 706 707 699
f 699 707 708 701
f 701 708 111 109
f 651 654 709 703
f 642 680 709 654
f 703 709 710 704
f 680 682 710 709
f 704 710 711 705
f 682 684 711 710
f 705 711 712 706
f 684 686 712 711
f 706 712 713 707
f 686 688 713 712
f 707 713 714 708
f 688 690 714 713
f 708 714 87 111
f 690 55 87 714
usemtl c4
f 488 489 490 491
f 488 492 493 489
f 488 491 494 492
f 489 495 496 490
f 489 493 497 495
f 491 490 498 499
f 491 499 500 494
f 490 496 501 498
f 499 498 502 503
f 503 502 504 505
f 499 503 505 500
f 498 501 506 502
f 502 506 507 504
f 508 509 510 511
f 492 508 511 493
f 492 494 509 508
f 511 510 512 513
f 493 511 513 497
f 509 514 515 510
f 494 500 514 509
f 510 515 516 512
f 514 517 518 515
f 505 504 518 517
f 500 505 517 514
f 515 518 519 516
f 504 507 519 518
f 623 624 625 626
f 623 627 628 624
f 623 626 629 627
f 624 630 631 625
f 624 628 632 630
f 626 625 633 634
f 626 634 635 629
f 625 631 636 633
f 634 633 637 638
f 638 637 639 640
f 634 638 640 635
f 633 636 641 637
f 637 641 642 639
f 643 644 645 646
f 627 643 646 628
f 627 629 644 643
f 646 645 647 648
f 628 646 648 632
f 644 649 650 645
f 629 635 649 644
f 645 650 651 647
f 649 652 653 650
f 640 639 653 652
f 635 640 652 649
f 650 653 654 651
f 639 642 654 653
usemtl c5
f 26 223 224 27
f 26 85 225 223
f 223 226 227 224
f 223 225 228 226
f 229 232 233 230
f 229 231 234 232
f 232 235 236 233
f 232 234 237 235
f 27 224 238 30
f 224 227 239 238
f 227 230 240 239
f 230 233 241 240
f 233 236 242 241
f 30 238 243 51
f 238 239 244 243
f 239 240 245 244
f 240 241 246 245
f 241 242 247 246
f 51 243 248 73
f 73 248 249 96
f 243 244 250 248
f 248 250 251 249
f 244 245 252 250
f 250 252 253 251
f 245 246 254 252
f 252 254 255 253
f 246 247 256 254
f 254 256 257 255
f 85 108 258 225
f 225 258 259 228
f 228 259 260 231
f 231 260 261 234
f 234 261 262 237
f 96 249 263 123
f 249 251 264 263
f 251 253 265 264
f 253 255 266 265
f 255 257 267 266
f 108 135 268 258
f 258 268 269 259
f 259 269 270 260
f 260 270 271 261
f 261 271 272 262
f 123 263 273 148
f 263 264 274 273
f 264 265 275 274
f 265 266 276 275
f 266 267 277 276
f 159 195 278 279
f 135 159 279 268
f 279 278 280 281
f 268 279 281 269
f 283 282 284 285
f 270 283 285 271
f 285 284 286 287
f 271 285 287 272
f 195 207 288 278
f 278 288 289 280
f 280 289 290 282
f 282 290 291 284
f 284 291 292 286
f 207 211 293 288
f 288 293 294 289
f 289 294 295 290
f 290 295 296 291
f 291 296 297 292
f 211 172 298 293
f 148 273 298 172
f 293 298 299 294
f 273 274 299 298
f 294 299 300 295
f 274 275 300 299
f 295 300 301 296
f 275 276 301 300
f 296 301 302 297
f 276 277 302 301
f 196 780 715 197
f 196 208 781 780
f 208 213 782 781
f 213 212 727 783
f 783 727 729 784
f 213 783 784 782
f 785 786 745 744
f 780 785 744 715
f 780 781 786 785
f 786 787 762 745
f 781 782 787 786
f 787 788 771 762
f 784 729 771 788
f 782 784 788 787
f 854 789 792 855
f 854 856 793 789
f 854 855 857 856
f 855 792 818 858
f 855 858 859 857
f 858 818 828 860
f 860 828 830 861
f 858 860 861 859
f 862 1 4 845
f 856 862 845 793
f 856 857 1 862
f 857 859 5 1
f 861 830 32 31
f 859 861 31 5
usemtl c6
f 226 229 230 227
f 226 228 231 229
f 281 280 282 283
f 269 281 283 270
