# generado por tools/vox_to_obj.py desde jugador_walk_f3.vox
mtllib jugador_walk_f3.mtl
v -3.0000 13.0000 2.0000
v -2.0000 13.0000 2.0000
v -2.0000 14.0000 2.0000
v -3.0000 14.0000 2.0000
v -2.0000 15.0000 2.0000
v -3.0000 15.0000 2.0000
v -2.0000 16.0000 2.0000
v -3.0000 16.0000 2.0000
v -2.0000 17.0000 2.0000
v -3.0000 17.0000 2.0000
v -2.0000 18.0000 2.0000
v -3.0000 18.0000 2.0000
v -2.0000 19.0000 2.0000
v -3.0000 19.0000 2.0000
v -2.0000 20.0000 2.0000
v -3.0000 20.0000 2.0000
v -2.0000 21.0000 2.0000
v -3.0000 21.0000 2.0000
v -2.0000 22.0000 2.0000
v -3.0000 22.0000 2.0000
v -3.0000 23.0000 2.0000
v -3.0000 23.0000 1.0000
v -3.0000 22.0000 1.0000
v -2.0000 23.0000 2.0000
v -2.0000 23.0000 1.0000
v -3.0000 23.0000 0.0000
v -3.0000 22.0000 0.0000
v -2.0000 23.0000 0.0000
v -3.0000 23.0000 -1.0000
v -3.0000 22.0000 -1.0000
v -2.0000 23.0000 -1.0000
v -3.0000 13.0000 -1.0000
v -3.0000 14.0000 -1.0000
v -3.0000 14.0000 -2.0000
v -3.0000 13.0000 -2.0000
v -2.0000 14.0000 -2.0000
v -2.0000 13.0000 -2.0000
v -2.0000 13.0000 -1.0000
v -3.0000 15.0000 -1.0000
v -3.0000 15.0000 -2.0000
v -2.0000 15.0000 -2.0000
v -3.0000 16.0000 -1.0000
v -3.0000 16.0000 -2.0000
v -2.0000 16.0000 -2.0000
v -3.0000 17.0000 -1.0000
v -3.0000 17.0000 -2.0000
v -2.0000 17.0000 -2.0000
v -3.0000 18.0000 -1.0000
v -3.0000 18.0000 -2.0000
v -2.0000 18.0000 -2.0000
v -3.0000 19.0000 -1.0000
v -3.0000 19.0000 -2.0000
v -2.0000 19.0000 -2.0000
v -3.0000 20.0000 -1.0000
v -3.0000 20.0000 -2.0000
v -2.0000 20.0000 -2.0000
v -3.0000 21.0000 -1.0000
v -3.0000 21.0000 -2.0000
v -2.0000 21.0000 -2.0000
v -3.0000 22.0000 -2.0000
v -2.0000 22.0000 -2.0000
v -3.0000 23.0000 -2.0000
v -2.0000 23.0000 -2.0000
v -1.0000 13.0000 2.0000
v -1.0000 14.0000 2.0000
v -1.0000 15.0000 2.0000
v -1.0000 16.0000 2.0000
v -1.0000 17.0000 2.0000
v -1.0000 18.0000 2.0000
v -1.0000 19.0000 2.0000
v -1.0000 20.0000 2.0000
v -1.0000 21.0000 2.0000
v -1.0000 22.0000 2.0000
v -1.0000 23.0000 2.0000
v -1.0000 14.0000 -2.0000
v -1.0000 13.0000 -2.0000
v -1.0000 13.0000 -1.0000
v -1.0000 15.0000 -2.0000
v -1.0000 16.0000 -2.0000
v -1.0000 17.0000 -2.0000
v -1.0000 18.0000 -2.0000
v -1.0000 19.0000 -2.0000
v -1.0000 20.0000 -2.0000
v -1.0000 21.0000 -2.0000
v -1.0000 22.0000 -2.0000
v -1.0000 23.0000 -2.0000
v 0.0000 13.0000 2.0000
v 0.0000 14.0000 2.0000
v -1.0000 13.0000 1.0000
v 0.0000 13.0000 1.0000
v 0.0000 15.0000 2.0000
v 0.0000 16.0000 2.0000
v 0.0000 17.0000 2.0000
v 0.0000 18.0000 2.0000
v 0.0000 19.0000 2.0000
v 0.0000 20.0000 2.0000
v 0.0000 21.0000 2.0000
v 0.0000 22.0000 2.0000
v 0.0000 23.0000 2.0000
v -1.0000 13.0000 0.0000
v 0.0000 13.0000 0.0000
v 0.0000 13.0000 -1.0000
v 0.0000 14.0000 -2.0000
v 0.0000 13.0000 -2.0000
v 0.0000 15.0000 -2.0000
v 0.0000 16.0000 -2.0000
v 0.0000 17.0000 -2.0000
v 0.0000 18.0000 -2.0000
v 0.0000 19.0000 -2.0000
v 0.0000 20.0000 -2.0000
v 0.0000 21.0000 -2.0000
v 0.0000 22.0000 -2.0000
v 0.0000 23.0000 -2.0000
v 1.0000 13.0000 2.0000
v 1.0000 14.0000 2.0000
v 1.0000 13.0000 1.0000
v 1.0000 15.0000 2.0000
v 1.0000 16.0000 2.0000
v 1.0000 17.0000 2.0000
v 1.0000 18.0000 2.0000
v 1.0000 19.0000 2.0000
v 1.0000 20.0000 2.0000
v 1.0000 21.0000 2.0000
v 1.0000 22.0000 2.0000
v 1.0000 23.0000 2.0000
v 1.0000 13.0000 0.0000
v 1.0000 13.0000 -1.0000
v 1.0000 14.0000 -2.0000
v 1.0000 13.0000 -2.0000
v 1.0000 15.0000 -2.0000
v 1.0000 16.0000 -2.0000
v 1.0000 17.0000 -2.0000
v 1.0000 18.0000 -2.0000
v 1.0000 19.0000 -2.0000
v 1.0000 20.0000 -2.0000
v 1.0000 21.0000 -2.0000
v 1.0000 22.0000 -2.0000
v 1.0000 23.0000 -2.0000
v 2.0000 13.0000 2.0000
v 2.0000 14.0000 2.0000
v 2.0000 15.0000 2.0000
v 2.0000 16.0000 2.0000
v 2.0000 17.0000 2.0000
v 2.0000 18.0000 2.0000
v 2.0000 19.0000 2.0000
v 2.0000 20.0000 2.0000
v 2.0000 21.0000 2.0000
v 2.0000 22.0000 2.0000
v 2.0000 23.0000 2.0000
v 2.0000 14.0000 -2.0000
v 2.0000 13.0000 -2.0000
v 2.0000 13.0000 -1.0000
v 2.0000 15.0000 -2.0000
v 2.0000 16.0000 -2.0000
v 2.0000 17.0000 -2.0000
v 2.0000 18.0000 -2.0000
v 2.0000 19.0000 -2.0000
v 2.0000 20.0000 -2.0000
v 2.0000 21.0000 -2.0000
v 2.0000 22.0000 -2.0000
v 2.0000 23.0000 -2.0000
v 3.0000 13.0000 2.0000
v 3.0000 14.0000 2.0000
v 3.0000 15.0000 2.0000
v 3.0000 16.0000 2.0000
v 3.0000 17.0000 2.0000
v 3.0000 18.0000 2.0000
v 3.0000 19.0000 2.0000
v 3.0000 20.0000 2.0000
v 3.0000 21.0000 2.0000
v 3.0000 22.0000 2.0000
v 3.0000 22.0000 1.0000
v 3.0000 23.0000 1.0000
v 3.0000 23.0000 2.0000
v 2.0000 23.0000 1.0000
v 3.0000 22.0000 0.0000
v 3.0000 23.0000 0.0000
v 2.0000 23.0000 0.0000
v 3.0000 22.0000 -1.0000
v 3.0000 23.0000 -1.0000
v 2.0000 23.0000 -1.0000
v 3.0000 13.0000 -1.0000
v 3.0000 13.0000 -2.0000
v 3.0000 14.0000 -2.0000
v 3.0000 14.0000 -1.0000
v 3.0000 15.0000 -2.0000
v 3.0000 15.0000 -1.0000
v 3.0000 16.0000 -2.0000
v 3.0000 16.0000 -1.0000
v 3.0000 17.0000 -2.0000
v 3.0000 17.0000 -1.0000
v 3.0000 18.0000 -2.0000
v 3.0000 18.0000 -1.0000
v 3.0000 19.0000 -2.0000
v 3.0000 19.0000 -1.0000
v 3.0000 20.0000 -2.0000
v 3.0000 20.0000 -1.0000
v 3.0000 21.0000 -2.0000
v 3.0000 21.0000 -1.0000
v 3.0000 22.0000 -2.0000
v 3.0000 23.0000 -2.0000
v -2.0000 24.0000 2.0000
v -2.0000 24.0000 1.0000
v -1.0000 24.0000 2.0000
v -2.0000 25.0000 2.0000
v -2.0000 25.0000 1.0000
v -1.0000 25.0000 2.0000
v -2.0000 26.0000 2.0000
v -2.0000 26.0000 1.0000
v -1.0000 26.0000 2.0000
v -2.0000 27.0000 2.0000
v -2.0000 27.0000 1.0000
v -1.0000 27.0000 2.0000
v -2.0000 28.0000 2.0000
v -2.0000 28.0000 1.0000
v -1.0000 28.0000 2.0000
v -2.0000 24.0000 0.0000
v -2.0000 25.0000 0.0000
v -2.0000 26.0000 0.0000
v -2.0000 27.0000 0.0000
v -2.0000 28.0000 0.0000
v -2.0000 24.0000 -1.0000
v -2.0000 25.0000 -1.0000
v -2.0000 26.0000 -1.0000
v -2.0000 27.0000 -1.0000
v -2.0000 28.0000 -1.0000
v -2.0000 24.0000 -2.0000
v -1.0000 24.0000 -2.0000
v -2.0000 25.0000 -2.0000
v -1.0000 25.0000 -2.0000
v -2.0000 26.0000 -2.0000
v -1.0000 26.0000 -2.0000
v -2.0000 27.0000 -2.0000
v -1.0000 27.0000 -2.0000
v -2.0000 28.0000 -2.0000
v -1.0000 28.0000 -2.0000
v 0.0000 24.0000 2.0000
v 0.0000 25.0000 2.0000
v 0.0000 26.0000 2.0000
v 0.0000 27.0000 2.0000
v 0.0000 28.0000 2.0000
v 0.0000 24.0000 -2.0000
v 0.0000 25.0000 -2.0000
v 0.0000 26.0000 -2.0000
v 0.0000 27.0000 -2.0000
v 0.0000 28.0000 -2.0000
v 1.0000 24.0000 2.0000
v 1.0000 25.0000 2.0000
v 1.0000 26.0000 2.0000
v 1.0000 27.0000 2.0000
v 1.0000 28.0000 2.0000
v 1.0000 24.0000 -2.0000
v 1.0000 25.0000 -2.0000
v 1.0000 26.0000 -2.0000
v 1.0000 27.0000 -2.0000
v 1.0000 28.0000 -2.0000
v 2.0000 24.0000 1.0000
v 2.0000 24.0000 2.0000
v 2.0000 25.0000 1.0000
v 2.0000 25.0000 2.0000
v 2.0000 26.0000 1.0000
v 2.0000 26.0000 2.0000
v 2.0000 27.0000 1.0000
v 2.0000 27.0000 2.0000
v 2.0000 28.0000 1.0000
v 2.0000 28.0000 2.0000
v 2.0000 24.0000 0.0000
v 2.0000 25.0000 0.0000
v 2.0000 26.0000 0.0000
v 2.0000 27.0000 0.0000
v 2.0000 28.0000 0.0000
v 2.0000 24.0000 -1.0000
v 2.0000 25.0000 -1.0000
v 2.0000 26.0000 -1.0000
v 2.0000 27.0000 -1.0000
v 2.0000 28.0000 -1.0000
v 2.0000 24.0000 -2.0000
v 2.0000 25.0000 -2.0000
v 2.0000 26.0000 -2.0000
v 2.0000 27.0000 -2.0000
v 2.0000 28.0000 -2.0000
v -4.0000 28.0000 4.0000
v -4.0000 29.0000 4.0000
v -4.0000 29.0000 3.0000
v -4.0000 28.0000 3.0000
v -3.0000 28.0000 4.0000
v -3.0000 29.0000 4.0000
v -3.0000 29.0000 3.0000
v -3.0000 28.0000 3.0000
v -4.0000 29.0000 2.0000
v -4.0000 28.0000 2.0000
v -3.0000 29.0000 2.0000
v -3.0000 28.0000 2.0000
v -4.0000 29.0000 1.0000
v -4.0000 28.0000 1.0000
v -3.0000 29.0000 1.0000
v -3.0000 28.0000 1.0000
v -4.0000 29.0000 0.0000
v -4.0000 28.0000 0.0000
v -3.0000 29.0000 0.0000
v -3.0000 28.0000 0.0000
v -4.0000 29.0000 -1.0000
v -4.0000 28.0000 -1.0000
v -3.0000 29.0000 -1.0000
v -3.0000 28.0000 -1.0000
v -4.0000 29.0000 -2.0000
v -4.0000 28.0000 -2.0000
v -3.0000 29.0000 -2.0000
v -3.0000 28.0000 -2.0000
v -4.0000 29.0000 -3.0000
v -4.0000 28.0000 -3.0000
v -3.0000 29.0000 -3.0000
v -3.0000 28.0000 -3.0000
v -4.0000 29.0000 -4.0000
v -4.0000 28.0000 -4.0000
v -3.0000 29.0000 -4.0000
v -3.0000 28.0000 -4.0000
v -2.0000 28.0000 4.0000
v -2.0000 29.0000 4.0000
v -2.0000 29.0000 3.0000
v -2.0000 28.0000 3.0000
v -2.0000 29.0000 2.0000
v -2.0000 29.0000 1.0000
v -2.0000 29.0000 0.0000
v -2.0000 29.0000 -1.0000
v -2.0000 29.0000 -2.0000
v -2.0000 29.0000 -3.0000
v -2.0000 28.0000 -3.0000
v -2.0000 29.0000 -4.0000
v -2.0000 28.0000 -4.0000
v -1.0000 28.0000 4.0000
v -1.0000 29.0000 4.0000
v -1.0000 29.0000 3.0000
v -1.0000 28.0000 3.0000
v -1.0000 29.0000 2.0000
v -1.0000 29.0000 -2.0000
v -1.0000 29.0000 -3.0000
v -1.0000 28.0000 -3.0000
v -1.0000 29.0000 -4.0000
v -1.0000 28.0000 -4.0000
v 0.0000 28.0000 4.0000
v 0.0000 29.0000 4.0000
v 0.0000 29.0000 3.0000
v 0.0000 28.0000 3.0000
v 0.0000 29.0000 2.0000
v 0.0000 29.0000 -2.0000
v 0.0000 29.0000 -3.0000
v 0.0000 28.0000 -3.0000
v 0.0000 29.0000 -4.0000
v 0.0000 28.0000 -4.0000
v 1.0000 28.0000 4.0000
v 1.0000 29.0000 4.0000
v 1.0000 29.0000 3.0000
v 1.0000 28.0000 3.0000
v 1.0000 29.0000 2.0000
v 1.0000 29.0000 -2.0000
v 1.0000 29.0000 -3.0000
v 1.0000 28.0000 -3.0000
v 1.0000 29.0000 -4.0000
v 1.0000 28.0000 -4.0000
v 2.0000 28.0000 4.0000
v 2.0000 29.0000 4.0000
v 2.0000 29.0000 3.0000
v 2.0000 28.0000 3.0000
v 2.0000 29.0000 2.0000
v 2.0000 29.0000 -2.0000
v 2.0000 29.0000 -3.0000
v 2.0000 28.0000 -3.0000
v 2.0000 29.0000 -4.0000
v 2.0000 28.0000 -4.0000
v 3.0000 28.0000 4.0000
v 3.0000 29.0000 4.0000
v 3.0000 29.0000 3.0000
v 3.0000 28.0000 3.0000
v 3.0000 29.0000 2.0000
v 3.0000 28.0000 2.0000
v 3.0000 29.0000 1.0000
v 2.0000 29.0000 1.0000
v 3.0000 28.0000 1.0000
v 3.0000 29.0000 0.0000
v 2.0000 29.0000 0.0000
v 3.0000 28.0000 0.0000
v 3.0000 29.0000 -1.0000
v 2.0000 29.0000 -1.0000
v 3.0000 28.0000 -1.0000
v 3.0000 29.0000 -2.0000
v 3.0000 28.0000 -2.0000
v 3.0000 29.0000 -3.0000
v 3.0000 28.0000 -3.0000
v 3.0000 29.0000 -4.0000
v 3.0000 28.0000 -4.0000
v 4.0000 28.0000 4.0000
v 4.0000 28.0000 3.0000
v 4.0000 29.0000 3.0000
v 4.0000 29.0000 4.0000
v 4.0000 28.0000 2.0000
v 4.0000 29.0000 2.0000
v 4.0000 28.0000 1.0000
v 4.0000 29.0000 1.0000
v 4.0000 28.0000 0.0000
v 4.0000 29.0000 0.0000
v 4.0000 28.0000 -1.0000
v 4.0000 29.0000 -1.0000
v 4.0000 28.0000 -2.0000
v 4.0000 29.0000 -2.0000
v 4.0000 28.0000 -3.0000
v 4.0000 29.0000 -3.0000
v 4.0000 28.0000 -4.0000
v 4.0000 29.0000 -4.0000
v -2.0000 30.0000 2.0000
v -2.0000 30.0000 1.0000
v -1.0000 30.0000 2.0000
v -2.0000 31.0000 2.0000
v -2.0000 31.0000 1.0000
v -1.0000 31.0000 2.0000
v -2.0000 32.0000 2.0000
v -2.0000 32.0000 1.0000
v -1.0000 32.0000 2.0000
v -1.0000 32.0000 1.0000
v -2.0000 30.0000 0.0000
v -2.0000 31.0000 0.0000
v -2.0000 32.0000 0.0000
v -1.0000 32.0000 0.0000
v -2.0000 30.0000 -1.0000
v -2.0000 31.0000 -1.0000
v -2.0000 32.0000 -1.0000
v -1.0000 32.0000 -1.0000
v -2.0000 30.0000 -2.0000
v -1.0000 30.0000 -2.0000
v -2.0000 31.0000 -2.0000
v -1.0000 31.0000 -2.0000
v -2.0000 32.0000 -2.0000
v -1.0000 32.0000 -2.0000
v 0.0000 30.0000 2.0000
v 0.0000 31.0000 2.0000
v 0.0000 32.0000 2.0000
v 0.0000 32.0000 1.0000
v 0.0000 32.0000 0.0000
v 0.0000 32.0000 -1.0000
v 0.0000 30.0000 -2.0000
v 0.0000 31.0000 -2.0000
v 0.0000 32.0000 -2.0000
v 1.0000 30.0000 2.0000
v 1.0000 31.0000 2.0000
v 1.0000 32.0000 2.0000
v 1.0000 32.0000 1.0000
v 1.0000 32.0000 0.0000
v 1.0000 32.0000 -1.0000
v 1.0000 30.0000 -2.0000
v 1.0000 31.0000 -2.0000
v 1.0000 32.0000 -2.0000
v 2.0000 30.0000 1.0000
v 2.0000 30.0000 2.0000
v 2.0000 31.0000 1.0000
v 2.0000 31.0000 2.0000
v 2.0000 32.0000 1.0000
v 2.0000 32.0000 2.0000
v 2.0000 30.0000 0.0000
v 2.0000 31.0000 0.0000
v 2.0000 32.0000 0.0000
v 2.0000 30.0000 -1.0000
v 2.0000 31.0000 -1.0000
v 2.0000 32.0000 -1.0000
v 2.0000 30.0000 -2.0000
v 2.0000 31.0000 -2.0000
v 2.0000 32.0000 -2.0000
v 1.0000 0.0000 2.0000
v 1.0000 1.0000 2.0000
v 1.0000 1.0000 1.0000
v 1.0000 0.0000 1.0000
v 2.0000 0.0000 2.0000
v 2.0000 1.0000 2.0000
v 2.0000 0.0000 1.0000
v 1.0000 2.0000 2.0000
v 1.0000 2.0000 1.0000
v 2.0000 2.0000 2.0000
v 1.0000 1.0000 0.0000
v 1.0000 0.0000 0.0000
v 2.0000 0.0000 0.0000
v 1.0000 2.0000 0.0000
v 1.0000 1.0000 -1.0000
v 1.0000 0.0000 -1.0000
v 2.0000 1.0000 -1.0000
v 2.0000 0.0000 -1.0000
v 1.0000 2.0000 -1.0000
v 2.0000 2.0000 -1.0000
v 3.0000 0.0000 2.0000
v 3.0000 0.0000 1.0000
v 3.0000 1.0000 1.0000
v 3.0000 1.0000 2.0000
v 3.0000 2.0000 1.0000
v 3.0000 2.0000 2.0000
v 3.0000 0.0000 0.0000
v 3.0000 1.0000 0.0000
v 3.0000 2.0000 0.0000
v 3.0000 0.0000 -1.0000
v 3.0000 1.0000 -1.0000
v 3.0000 2.0000 -1.0000
v 1.0000 3.0000 2.0000
v 1.0000 3.0000 1.0000
v 2.0000 3.0000 2.0000
v 1.0000 4.0000 2.0000
v 1.0000 4.0000 1.0000
v 2.0000 4.0000 2.0000
v 1.0000 5.0000 2.0000
v 1.0000 5.0000 1.0000
v 2.0000 5.0000 2.0000
v 1.0000 6.0000 2.0000
v 1.0000 6.0000 1.0000
v 2.0000 6.0000 2.0000
v 1.0000 7.0000 2.0000
v 1.0000 7.0000 1.0000
v 2.0000 7.0000 2.0000
v 1.0000 8.0000 2.0000
v 1.0000 8.0000 1.0000
v 2.0000 8.0000 2.0000
v 1.0000 9.0000 2.0000
v 1.0000 9.0000 1.0000
v 2.0000 9.0000 2.0000
v 1.0000 10.0000 2.0000
v 1.0000 10.0000 1.0000
v 2.0000 10.0000 2.0000
v 1.0000 11.0000 2.0000
v 1.0000 11.0000 1.0000
v 2.0000 11.0000 2.0000
v 1.0000 12.0000 2.0000
v 1.0000 12.0000 1.0000
v 2.0000 12.0000 2.0000
v 1.0000 3.0000 0.0000
v 1.0000 4.0000 0.0000
v 1.0000 5.0000 0.0000
v 1.0000 6.0000 0.0000
v 1.0000 7.0000 0.0000
v 1.0000 8.0000 0.0000
v 1.0000 9.0000 0.0000
v 1.0000 10.0000 0.0000
v 1.0000 11.0000 0.0000
v 1.0000 12.0000 0.0000
v 1.0000 3.0000 -1.0000
v 2.0000 3.0000 -1.0000
v 1.0000 4.0000 -1.0000
v 2.0000 4.0000 -1.0000
v 1.0000 5.0000 -1.0000
v 2.0000 5.0000 -1.0000
v 1.0000 6.0000 -1.0000
v 2.0000 6.0000 -1.0000
v 1.0000 7.0000 -1.0000
v 2.0000 7.0000 -1.0000
v 1.0000 8.0000 -1.0000
v 2.0000 8.0000 -1.0000
v 1.0000 9.0000 -1.0000
v 2.0000 9.0000 -1.0000
v 1.0000 10.0000 -1.0000
v 2.0000 10.0000 -1.0000
v 1.0000 11.0000 -1.0000
v 2.0000 11.0000 -1.0000
v 1.0000 12.0000 -1.0000
v 2.0000 12.0000 -1.0000
v 3.0000 3.0000 1.0000
v 3.0000 3.0000 2.0000
v 3.0000 4.0000 1.0000
v 3.0000 4.0000 2.0000
v 3.0000 5.0000 1.0000
v 3.0000 5.0000 2.0000
v 3.0000 6.0000 1.0000
v 3.0000 6.0000 2.0000
v 3.0000 7.0000 1.0000
v 3.0000 7.0000 2.0000
v 3.0000 8.0000 1.0000
v 3.0000 8.0000 2.0000
v 3.0000 9.0000 1.0000
v 3.0000 9.0000 2.0000
v 3.0000 10.0000 1.0000
v 3.0000 10.0000 2.0000
v 3.0000 11.0000 1.0000
v 3.0000 11.0000 2.0000
v 3.0000 12.0000 1.0000
v 3.0000 12.0000 2.0000
v 3.0000 13.0000 1.0000
v 3.0000 3.0000 0.0000
v 3.0000 4.0000 0.0000
v 3.0000 5.0000 0.0000
v 3.0000 6.0000 0.0000
v 3.0000 7.0000 0.0000
v 3.0000 8.0000 0.0000
v 3.0000 9.0000 0.0000
v 3.0000 10.0000 0.0000
v 3.0000 11.0000 0.0000
v 3.0000 12.0000 0.0000
v 3.0000 13.0000 0.0000
v 3.0000 3.0000 -1.0000
v 3.0000 4.0000 -1.0000
v 3.0000 5.0000 -1.0000
v 3.0000 6.0000 -1.0000
v 3.0000 7.0000 -1.0000
v 3.0000 8.0000 -1.0000
v 3.0000 9.0000 -1.0000
v 3.0000 10.0000 -1.0000
v 3.0000 11.0000 -1.0000
v 3.0000 12.0000 -1.0000
v -3.0000 4.0000 2.0000
v -3.0000 5.0000 2.0000
v -3.0000 5.0000 1.0000
v -3.0000 4.0000 1.0000
v -2.0000 4.0000 2.0000
v -2.0000 5.0000 2.0000
v -2.0000 4.0000 1.0000
v -3.0000 6.0000 2.0000
v -3.0000 6.0000 1.0000
v -2.0000 6.0000 2.0000
v -3.0000 5.0000 0.0000
v -3.0000 4.0000 0.0000
v -2.0000 4.0000 0.0000
v -3.0000 6.0000 0.0000
v -3.0000 5.0000 -1.0000
v -3.0000 4.0000 -1.0000
v -2.0000 5.0000 -1.0000
v -2.0000 4.0000 -1.0000
v -3.0000 6.0000 -1.0000
v -2.0000 6.0000 -1.0000
v -1.0000 4.0000 2.0000
v -1.0000 4.0000 1.0000
v -1.0000 5.0000 1.0000
v -1.0000 5.0000 2.0000
v -1.0000 6.0000 1.0000
v -1.0000 6.0000 2.0000
v -1.0000 4.0000 0.0000
v -1.0000 5.0000 0.0000
v -1.0000 6.0000 0.0000
v -1.0000 4.0000 -1.0000
v -1.0000 5.0000 -1.0000
v -1.0000 6.0000 -1.0000
v -3.0000 7.0000 2.0000
v -3.0000 7.0000 1.0000
v -2.0000 7.0000 2.0000
v -3.0000 8.0000 2.0000
v -3.0000 8.0000 1.0000
v -2.0000 8.0000 2.0000
v -3.0000 9.0000 2.0000
v -3.0000 9.0000 1.0000
v -2.0000 9.0000 2.0000
v -3.0000 10.0000 2.0000
v -3.0000 10.0000 1.0000
v -2.0000 10.0000 2.0000
v -3.0000 11.0000 2.0000
v -3.0000 11.0000 1.0000
v -2.0000 11.0000 2.0000
v -3.0000 12.0000 2.0000
v -3.0000 12.0000 1.0000
v -2.0000 12.0000 2.0000
v -3.0000 13.0000 1.0000
v -3.0000 7.0000 0.0000
v -3.0000 8.0000 0.0000
v -3.0000 9.0000 0.0000
v -3.0000 10.0000 0.0000
v -3.0000 11.0000 0.0000
v -3.0000 12.0000 0.0000
v -3.0000 13.0000 0.0000
v -3.0000 7.0000 -1.0000
v -2.0000 7.0000 -1.0000
v -3.0000 8.0000 -1.0000
v -2.0000 8.0000 -1.0000
v -3.0000 9.0000 -1.0000
v -2.0000 9.0000 -1.0000
v -3.0000 10.0000 -1.0000
v -2.0000 10.0000 -1.0000
v -3.0000 11.0000 -1.0000
v -2.0000 11.0000 -1.0000
v -3.0000 12.0000 -1.0000
v -2.0000 12.0000 -1.0000
v -1.0000 7.0000 1.0000
v -1.0000 7.0000 2.0000
v -1.0000 8.0000 1.0000
v -1.0000 8.0000 2.0000
v -1.0000 9.0000 1.0000
v -1.0000 9.0000 2.0000
v -1.0000 10.0000 1.0000
v -1.0000 10.0000 2.0000
v -1.0000 11.0000 1.0000
v -1.0000 11.0000 2.0000
v -1.0000 12.0000 1.0000
v -1.0000 12.0000 2.0000
v -1.0000 7.0000 0.0000
v -1.0000 8.0000 0.0000
v -1.0000 9.0000 0.0000
v -1.0000 10.0000 0.0000
v -1.0000 11.0000 0.0000
v -1.0000 12.0000 0.0000
v -1.0000 7.0000 -1.0000
v -1.0000 8.0000 -1.0000
v -1.0000 9.0000 -1.0000
v -1.0000 10.0000 -1.0000
v -1.0000 11.0000 -1.0000
v -1.0000 12.0000 -1.0000
v 4.0000 14.0000 2.0000
v 4.0000 15.0000 2.0000
v 4.0000 16.0000 2.0000
v 4.0000 17.0000 2.0000
v 4.0000 18.0000 2.0000
v 4.0000 19.0000 2.0000
v 4.0000 20.0000 2.0000
v 4.0000 21.0000 2.0000
v 4.0000 22.0000 2.0000
v 4.0000 22.0000 1.0000
v 4.0000 22.0000 0.0000
v 4.0000 15.0000 -1.0000
v 4.0000 14.0000 -1.0000
v 4.0000 16.0000 -1.0000
v 4.0000 17.0000 -1.0000
v 4.0000 18.0000 -1.0000
v 4.0000 19.0000 -1.0000
v 4.0000 20.0000 -1.0000
v 4.0000 21.0000 -1.0000
v 4.0000 22.0000 -1.0000
v 5.0000 14.0000 2.0000
v 5.0000 14.0000 1.0000
v 5.0000 15.0000 1.0000
v 5.0000 15.0000 2.0000
v 5.0000 16.0000 1.0000
v 5.0000 16.0000 2.0000
v 5.0000 17.0000 1.0000
v 5.0000 17.0000 2.0000
v 5.0000 18.0000 1.0000
v 5.0000 18.0000 2.0000
v 5.0000 19.0000 1.0000
v 5.0000 19.0000 2.0000
v 5.0000 20.0000 1.0000
v 5.0000 20.0000 2.0000
v 5.0000 21.0000 1.0000
v 5.0000 21.0000 2.0000
v 5.0000 22.0000 1.0000
v 5.0000 22.0000 2.0000
v 5.0000 14.0000 0.0000
v 5.0000 15.0000 0.0000
v 5.0000 16.0000 0.0000
v 5.0000 17.0000 0.0000
v 5.0000 18.0000 0.0000
v 5.0000 19.0000 0.0000
v 5.0000 20.0000 0.0000
v 5.0000 21.0000 0.0000
v 5.0000 22.0000 0.0000
v 5.0000 14.0000 -1.0000
v 5.0000 15.0000 -1.0000
v 5.0000 16.0000 -1.0000
v 5.0000 17.0000 -1.0000
v 5.0000 18.0000 -1.0000
v 5.0000 19.0000 -1.0000
v 5.0000 20.0000 -1.0000
v 5.0000 21.0000 -1.0000
v 5.0000 22.0000 -1.0000
v 4.0000 13.0000 2.0000
v 4.0000 13.0000 1.0000
v 4.0000 13.0000 0.0000
v 4.0000 13.0000 -1.0000
v 5.0000 13.0000 2.0000
v 5.0000 13.0000 1.0000
v 5.0000 13.0000 0.0000
v 5.0000 13.0000 -1.0000
v -5.0000 14.0000 2.0000
v -5.0000 15.0000 2.0000
v -5.0000 15.0000 1.0000
v -5.0000 14.0000 1.0000
v -4.0000 14.0000 2.0000
v -4.0000 15.0000 2.0000
v -5.0000 16.0000 2.0000
v -5.0000 16.0000 1.0000
v -4.0000 16.0000 2.0000
v -5.0000 17.0000 2.0000
v -5.0000 17.0000 1.0000
v -4.0000 17.0000 2.0000
v -5.0000 18.0000 2.0000
v -5.0000 18.0000 1.0000
v -4.0000 18.0000 2.0000
v -5.0000 19.0000 2.0000
v -5.0000 19.0000 1.0000
v -4.0000 19.0000 2.0000
v -5.0000 20.0000 2.0000
v -5.0000 20.0000 1.0000
v -4.0000 20.0000 2.0000
v -5.0000 21.0000 2.0000
v -5.0000 21.0000 1.0000
v -4.0000 21.0000 2.0000
v -5.0000 22.0000 2.0000
v -5.0000 22.0000 1.0000
v -4.0000 22.0000 2.0000
v -4.0000 22.0000 1.0000
v -5.0000 15.0000 0.0000
v -5.0000 14.0000 0.0000
v -5.0000 16.0000 0.0000
v -5.0000 17.0000 0.0000
v -5.0000 18.0000 0.0000
v -5.0000 19.0000 0.0000
v -5.0000 20.0000 0.0000
v -5.0000 21.0000 0.0000
v -5.0000 22.0000 0.0000
v -4.0000 22.0000 0.0000
v -5.0000 15.0000 -1.0000
v -5.0000 14.0000 -1.0000
v -4.0000 15.0000 -1.0000
v -4.0000 14.0000 -1.0000
v -5.0000 16.0000 -1.0000
v -4.0000 16.0000 -1.0000
v -5.0000 17.0000 -1.0000
v -4.0000 17.0000 -1.0000
v -5.0000 18.0000 -1.0000
v -4.0000 18.0000 -1.0000
v -5.0000 19.0000 -1.0000
v -4.0000 19.0000 -1.0000
v -5.0000 20.0000 -1.0000
v -4.0000 20.0000 -1.0000
v -5.0000 21.0000 -1.0000
v -4.0000 21.0000 -1.0000
v -5.0000 22.0000 -1.0000
v -4.0000 22.0000 -1.0000
v -5.0000 13.0000 2.0000
v -5.0000 13.0000 1.0000
v -4.0000 13.0000 2.0000
v -4.0000 13.0000 1.0000
v -5.0000 13.0000 0.0000
v -4.0000 13.0000 0.0000
v -5.0000 13.0000 -1.0000
v -4.0000 13.0000 -1.0000
usemtl c1
f 282 283 284 285
f 282 286 287 283
f 283 287 288 284
f 282 285 289 286
f 285 284 290 291
f 284 288 292 290
f 285 291 293 289
f 291 290 294 295
f 290 292 296 294
f 291 295 297 293
f 295 294 298 299
f 294 296 300 298
f 295 299 301 297
f 299 298 302 303
f 298 300 304 302
f 299 303 305 301
f 303 302 306 307
f 302 304 308 306
f 303 307 309 305
f 307 306 310 311
f 306 308 312 310
f 307 311 313 309
f 311 310 314 315
f 315 314 316 317
f 310 312 316 314
f 311 315 317 313
f 286 318 319 287
f 287 319 320 288
f 286 289 321 318
f 288 320 322 292
f 289 293 214 321
f 292 322 323 296
f 293 297 215 214
f 296 323 324 300
f 297 301 221 215
f 300 324 325 304
f 301 305 226 221
f 304 325 326 308
f 305 309 235 226
f 308 326 327 312
f 309 313 328 235
f 317 316 329 330
f 312 327 329 316
f 313 317 330 328
f 318 331 332 319
f 319 332 333 320
f 318 321 334 331
f 320 333 335 322
f 321 214 216 334
f 326 336 337 327
f 235 328 338 236
f 330 329 339 340
f 327 337 339 329
f 328 330 340 338
f 331 341 342 332
f 332 342 343 333
f 331 334 344 341
f 333 343 345 335
f 334 216 241 344
f 336 346 347 337
f 236 338 348 246
f 340 339 349 350
f 337 347 349 339
f 338 340 350 348
f 341 351 352 342
f 342 352 353 343
f 341 344 354 351
f 343 353 355 345
f 344 241 251 354
f 346 356 357 347
f 246 348 358 256
f 350 349 359 360
f 347 357 359 349
f 348 350 360 358
f 351 361 362 352
f 352 362 363 353
f 351 354 364 361
f 353 363 365 355
f 354 251 266 364
f 356 366 367 357
f 256 358 368 281
f 360 359 369 370
f 357 367 369 359
f 358 360 370 368
f 361 371 372 362
f 362 372 373 363
f 361 364 374 371
f 363 373 375 365
f 364 266 376 374
f 365 375 377 378
f 266 265 379 376
f 378 377 380 381
f 265 271 382 379
f 381 380 383 384
f 271 276 385 382
f 384 383 386 366
f 276 281 387 385
f 366 386 388 367
f 281 368 389 387
f 370 369 390 391
f 367 388 390 369
f 368 370 391 389
f 392 393 394 395
f 371 392 395 372
f 372 395 394 373
f 371 374 393 392
f 393 396 397 394
f 373 394 397 375
f 374 376 396 393
f 396 398 399 397
f 375 397 399 377
f 376 379 398 396
f 398 400 401 399
f 377 399 401 380
f 379 382 400 398
f 400 402 403 401
f 380 401 403 383
f 382 385 402 400
f 402 404 405 403
f 383 403 405 386
f 385 387 404 402
f 404 406 407 405
f 386 405 407 388
f 387 389 406 404
f 406 408 409 407
f 391 390 409 408
f 388 407 409 390
f 389 391 408 406
f 322 410 411 323
f 322 335 412 410
f 410 413 414 411
f 410 412 415 413
f 413 416 417 414
f 413 415 418 416
f 416 418 419 417
f 323 411 420 324
f 411 414 421 420
f 414 417 422 421
f 417 419 423 422
f 324 420 424 325
f 420 421 425 424
f 421 422 426 425
f 422 423 427 426
f 325 424 428 326
f 326 428 429 336
f 424 425 430 428
f 428 430 431 429
f 425 426 432 430
f 430 432 433 431
f 426 427 433 432
f 335 345 434 412
f 412 434 435 415
f 415 435 436 418
f 418 436 437 419
f 419 437 438 423
f 423 438 439 427
f 336 429 440 346
f 429 431 441 440
f 431 433 442 441
f 427 439 442 433
f 345 355 443 434
f 434 443 444 435
f 435 444 445 436
f 436 445 446 437
f 437 446 447 438
f 438 447 448 439
f 346 440 449 356
f 440 441 450 449
f 441 442 451 450
f 439 448 451 442
f 365 378 452 453
f 355 365 453 443
f 453 452 454 455
f 443 453 455 444
f 455 454 456 457
f 444 455 457 445
f 445 457 456 446
f 378 381 458 452
f 452 458 459 454
f 454 459 460 456
f 446 456 460 447
f 381 384 461 458
f 458 461 462 459
f 459 462 463 460
f 447 460 463 448
f 384 366 464 461
f 356 449 464 366
f 461 464 465 462
f 449 450 465 464
f 462 465 466 463
f 450 451 466 465
f 448 463 466 451
usemtl c2
f 1 2 3 4
f 4 3 5 6
f 6 5 7 8
f 8 7 9 10
f 10 9 11 12
f 12 11 13 14
f 14 13 15 16
f 16 15 17 18
f 18 17 19 20
f 20 21 22 23
f 20 19 24 21
f 21 24 25 22
f 23 22 26 27
f 22 25 28 26
f 27 26 29 30
f 26 28 31 29
f 32 33 34 35
f 35 34 36 37
f 32 35 37 38
f 33 39 40 34
f 34 40 41 36
f 39 42 43 40
f 40 43 44 41
f 42 45 46 43
f 43 46 47 44
f 45 48 49 46
f 46 49 50 47
f 48 51 52 49
f 49 52 53 50
f 51 54 55 52
f 52 55 56 53
f 54 57 58 55
f 55 58 59 56
f 57 30 60 58
f 58 60 61 59
f 30 29 62 60
f 60 62 63 61
f 29 31 63 62
f 2 64 65 3
f 3 65 66 5
f 5 66 67 7
f 7 67 68 9
f 9 68 69 11
f 11 69 70 13
f 13 70 71 15
f 15 71 72 17
f 17 72 73 19
f 19 73 74 24
f 37 36 75 76
f 38 37 76 77
f 36 41 78 75
f 41 44 79 78
f 44 47 80 79
f 47 50 81 80
f 50 53 82 81
f 53 56 83 82
f 56 59 84 83
f 59 61 85 84
f 61 63 86 85
f 64 87 88 65
f 64 89 90 87
f 65 88 91 66
f 66 91 92 67
f 67 92 93 68
f 68 93 94 69
f 69 94 95 70
f 70 95 96 71
f 71 96 97 72
f 72 97 98 73
f 73 98 99 74
f 89 100 101 90
f 100 77 102 101
f 76 75 103 104
f 77 76 104 102
f 75 78 105 103
f 78 79 106 105
f 79 80 107 106
f 80 81 108 107
f 81 82 109 108
f 82 83 110 109
f 83 84 111 110
f 84 85 112 111
f 85 86 113 112
f 87 114 115 88
f 87 90 116 114
f 88 115 117 91
f 91 117 118 92
f 92 118 119 93
f 93 119 120 94
f 94 120 121 95
f 95 121 122 96
f 96 122 123 97
f 97 123 124 98
f 98 124 125 99
f 90 101 126 116
f 101 102 127 126
f 104 103 128 129
f 102 104 129 127
f 103 105 130 128
f 105 106 131 130
f 106 107 132 131
f 107 108 133 132
f 108 109 134 133
f 109 110 135 134
f 110 111 136 135
f 111 112 137 136
f 112 113 138 137
f 114 139 140 115
f 115 140 141 117
f 117 141 142 118
f 118 142 143 119
f 119 143 144 120
f 120 144 145 121
f 121 145 146 122
f 122 146 147 123
f 123 147 148 124
f 124 148 149 125
f 129 128 150 151
f 127 129 151 152
f 128 130 153 150
f 130 131 154 153
f 131 132 155 154
f 132 133 156 155
f 133 134 157 156
f 134 135 158 157
f 135 136 159 158
f 136 137 160 159
f 137 138 161 160
f 139 162 163 140
f 140 163 164 141
f 141 164 165 142
f 142 165 166 143
f 143 166 167 144
f 144 167 168 145
f 145 168 169 146
f 146 169 170 147
f 147 170 171 148
f 171 172 173 174
f 148 171 174 149
f 149 174 173 175
f 172 176 177 173
f 175 173 177 178
f 176 179 180 177
f 178 177 180 181
f 182 183 184 185
f 151 150 184 183
f 152 151 183 182
f 185 184 186 187
f 150 153 186 184
f 187 186 188 189
f 153 154 188 186
f 189 188 190 191
f 154 155 190 188
f 191 190 192 193
f 155 156 192 190
f 193 192 194 195
f 156 157 194 192
f 195 194 196 197
f 157 158 196 194
f 197 196 198 199
f 158 159 198 196
f 199 198 200 179
f 159 160 200 198
f 179 200 201 180
f 160 161 201 200
f 181 180 201 161
f 163 695 696 164
f 164 696 697 165
f 165 697 698 166
f 166 698 699 167
f 167 699 700 168
f 168 700 701 169
f 169 701 702 170
f 170 702 703 171
f 171 703 704 172
f 172 704 705 176
f 185 187 706 707
f 187 189 708 706
f 189 191 709 708
f 191 193 710 709
f 193 195 711 710
f 195 197 712 711
f 197 199 713 712
f 199 179 714 713
f 176 705 714 179
f 715 716 717 718
f 695 715 718 696
f 718 717 719 720
f 696 718 720 697
f 720 719 721 722
f 697 720 722 698
f 722 721 723 724
f 698 722 724 699
f 724 723 725 726
f 699 724 726 700
f 726 725 727 728
f 700 726 728 701
f 728 727 729 730
f 701 728 730 702
f 730 729 731 732
f 702 730 732 703
f 703 732 731 704
f 716 733 734 717
f 717 734 735 719
f 719 735 736 721
f 721 736 737 723
f 723 737 738 725
f 725 738 739 727
f 727 739 740 729
f 729 740 741 731
f 704 731 741 705
f 733 742 743 734
f 707 706 743 742
f 734 743 744 735
f 706 708 744 743
f 735 744 745 736
f 708 709 745 744
f 736 745 746 737
f 709 710 746 745
f 737 746 747 738
f 710 711 747 746
f 738 747 748 739
f 711 712 748 747
f 739 748 749 740
f 712 713 749 748
f 740 749 750 741
f 713 714 750 749
f 705 741 750 714
f 759 760 761 762
f 759 763 764 760
f 760 765 766 761
f 760 764 767 765
f 765 768 769 766
f 765 767 770 768
f 768 771 772 769
f 768 770 773 771
f 771 774 775 772
f 771 773 776 774
f 774 777 778 775
f 774 776 779 777
f 777 780 781 778
f 777 779 782 780
f 780 783 784 781
f 780 782 785 783
f 783 785 786 784
f 762 761 787 788
f 761 766 789 787
f 766 769 790 789
f 769 772 791 790
f 772 775 792 791
f 775 778 793 792
f 778 781 794 793
f 781 784 795 794
f 784 786 796 795
f 788 787 797 798
f 798 797 799 800
f 787 789 801 797
f 797 801 802 799
f 789 790 803 801
f 801 803 804 802
f 790 791 805 803
f 803 805 806 804
f 791 792 807 805
f 805 807 808 806
f 792 793 809 807
f 807 809 810 808
f 793 794 811 809
f 809 811 812 810
f 794 795 813 811
f 811 813 814 812
f 795 796 814 813
f 763 4 6 764
f 764 6 8 767
f 767 8 10 770
f 770 10 12 773
f 773 12 14 776
f 776 14 16 779
f 779 16 18 782
f 782 18 20 785
f 785 20 23 786
f 786 23 27 796
f 800 799 39 33
f 799 802 42 39
f 802 804 45 42
f 804 806 48 45
f 806 808 51 48
f 808 810 54 51
f 810 812 57 54
f 812 814 30 57
f 796 27 30 814
usemtl c3
f 474 499 500 475
f 474 476 501 499
f 499 502 503 500
f 499 501 504 502
f 502 505 506 503
f 502 504 507 505
f 505 508 509 506
f 505 507 510 508
f 508 511 512 509
f 508 510 513 511
f 511 514 515 512
f 511 513 516 514
f 514 517 518 515
f 514 516 519 517
f 517 520 521 518
f 517 519 522 520
f 520 523 524 521
f 520 522 525 523
f 523 526 527 524
f 523 525 528 526
f 526 114 116 527
f 526 528 139 114
f 475 500 529 480
f 500 503 530 529
f 503 506 531 530
f 506 509 532 531
f 509 512 533 532
f 512 515 534 533
f 515 518 535 534
f 518 521 536 535
f 521 524 537 536
f 524 527 538 537
f 527 116 126 538
f 480 529 539 485
f 485 539 540 486
f 529 530 541 539
f 539 541 542 540
f 530 531 543 541
f 541 543 544 542
f 531 532 545 543
f 543 545 546 544
f 532 533 547 545
f 545 547 548 546
f 533 534 549 547
f 547 549 550 548
f 534 535 551 549
f 549 551 552 550
f 535 536 553 551
f 551 553 554 552
f 536 537 555 553
f 553 555 556 554
f 537 538 557 555
f 555 557 558 556
f 538 126 127 557
f 557 127 152 558
f 492 491 559 560
f 476 492 560 501
f 560 559 561 562
f 501 560 562 504
f 562 561 563 564
f 504 562 564 507
f 564 563 565 566
f 507 564 566 510
f 566 565 567 568
f 510 566 568 513
f 568 567 569 570
f 513 568 570 516
f 570 569 571 572
f 516 570 572 519
f 572 571 573 574
f 519 572 574 522
f 574 573 575 576
f 522 574 576 525
f 576 575 577 578
f 525 576 578 528
f 578 577 579 162
f 528 578 162 139
f 491 495 580 559
f 559 580 581 561
f 561 581 582 563
f 563 582 583 565
f 565 583 584 567
f 567 584 585 569
f 569 585 586 571
f 571 586 587 573
f 573 587 588 575
f 575 588 589 577
f 577 589 590 579
f 495 498 591 580
f 486 540 591 498
f 580 591 592 581
f 540 542 592 591
f 581 592 593 582
f 542 544 593 592
f 582 593 594 583
f 544 546 594 593
f 583 594 595 584
f 546 548 595 594
f 584 595 596 585
f 548 550 596 595
f 585 596 597 586
f 550 552 597 596
f 586 597 598 587
f 552 554 598 597
f 587 598 599 588
f 554 556 599 598
f 588 599 600 589
f 556 558 600 599
f 589 600 182 590
f 558 152 182 600
f 608 633 634 609
f 608 610 635 633
f 633 636 637 634
f 633 635 638 636
f 636 639 640 637
f 636 638 641 639
f 639 642 643 640
f 639 641 644 642
f 642 645 646 643
f 642 644 647 645
f 645 648 649 646
f 645 647 650 648
f 648 1 651 649
f 648 650 2 1
f 609 634 652 614
f 634 637 653 652
f 637 640 654 653
f 640 643 655 654
f 643 646 656 655
f 646 649 657 656
f 649 651 658 657
f 614 652 659 619
f 619 659 660 620
f 652 653 661 659
f 659 661 662 660
f 653 654 663 661
f 661 663 664 662
f 654 655 665 663
f 663 665 666 664
f 655 656 667 665
f 665 667 668 666
f 656 657 669 667
f 667 669 670 668
f 657 658 32 669
f 669 32 38 670
f 626 625 671 672
f 610 626 672 635
f 672 671 673 674
f 635 672 674 638
f 674 673 675 676
f 638 674 676 641
f 676 675 677 678
f 641 676 678 644
f 678 677 679 680
f 644 678 680 647
f 680 679 681 682
f 647 680 682 650
f 682 681 89 64
f 650 682 64 2
f 625 629 683 671
f 671 683 684 673
f 673 684 685 675
f 675 685 686 677
f 677 686 687 679
f 679 687 688 681
f 681 688 100 89
f 629 632 689 683
f 620 660 689 632
f 683 689 690 684
f 660 662 690 689
f 684 690 691 685
f 662 664 691 690
f 685 691 692 686
f 664 666 692 691
f 686 692 693 687
f 666 668 693 692
f 687 693 694 688
f 668 670 694 693
f 688 694 77 100
f 670 38 77 694
usemtl c4
f 467 468 469 470
f 467 471 472 468
f 467 470 473 471
f 468 474 475 469
f 468 472 476 474
f 470 469 477 478
f 470 478 479 473
f 469 475 480 477
f 478 477 481 482
f 482 481 483 484
f 478 482 484 479
f 477 480 485 481
f 481 485 486 483
f 487 488 489 490
f 471 487 490 472
f 471 473 488 487
f 490 489 491 492
f 472 490 492 476
f 488 493 494 489
f 473 479 493 488
f 489 494 495 491
f 493 496 497 494
f 484 483 497 496
f 479 484 496 493
f 494 497 498 495
f 483 486 498 497
f 601 602 603 604
f 601 605 606 602
f 601 604 607 605
f 602 608 609 603
f 602 606 610 608
f 604 603 611 612
f 604 612 613 607
f 603 609 614 611
f 612 611 615 616
f 616 615 617 618
f 612 616 618 613
f 611 614 619 615
f 615 619 620 617
f 621 622 623 624
f 605 621 624 606
f 605 607 622 621
f 624 623 625 626
f 606 624 626 610
f 622 627 628 623
f 607 613 627 622
f 623 628 629 625
f 627 630 631 628
f 618 617 631 630
f 613 618 630 627
f 628 631 632 629
f 617 620 632 631
usemtl c5
f 24 202 203 25
f 24 74 204 202
f 202 205 206 203
f 202 204 207 205
f 208 211 212 209
f 208 210 213 211
f 211 214 215 212
f 211 213 216 214
f 25 203 217 28
f 203 206 218 217
f 206 209 219 218
f 209 212 220 219
f 212 215 221 220
f 28 217 222 31
f 217 218 223 222
f 218 219 224 223
f 219 220 225 224
f 220 221 226 225
f 31 222 227 63
f 63 227 228 86
f 222 223 229 227
f 227 229 230 228
f 223 224 231 229
f 229 231 232 230
f 224 225 233 231
f 231 233 234 232
f 225 226 235 233
f 233 235 236 234
f 74 99 237 204
f 204 237 238 207
f 207 238 239 210
f 210 239 240 213
f 213 240 241 216
f 86 228 242 113
f 228 230 243 242
f 230 232 244 243
f 232 234 245 244
f 234 236 246 245
f 99 125 247 237
f 237 247 248 238
f 238 248 249 239
f 239 249 250 240
f 240 250 251 241
f 113 242 252 138
f 242 243 253 252
f 243 244 254 253
f 244 245 255 254
f 245 246 256 255
f 149 175 257 258
f 125 149 258 247
f 258 257 259 260
f 247 258 260 248
f 262 261 263 264
f 249 262 264 250
f 264 263 265 266
f 250 264 266 251
f 175 178 267 257
f 257 267 268 259
f 259 268 269 261
f 261 269 270 263
f 263 270 271 265
f 178 181 272 267
f 267 272 273 268
f 268 273 274 269
f 269 274 275 270
f 270 275 276 271
f 181 161 277 272
f 138 252 277 161
f 272 277 278 273
f 252 253 278 277
f 273 278 279 274
f 253 254 279 278
f 274 279 280 275
f 254 255 280 279
f 275 280 281 276
f 255 256 281 280
f 162 751 695 163
f 162 579 752 751
f 579 590 753 752
f 182 185 707 754
f 590 182 754 753
f 755 756 716 715
f 751 755 715 695
f 751 752 756 755
f 756 757 733 716
f 752 753 757 756
f 757 758 742 733
f 754 707 742 758
f 753 754 758 757
f 815 759 762 816
f 815 817 763 759
f 815 816 818 817
f 816 762 788 819
f 816 819 820 818
f 819 788 798 821
f 821 798 800 822
f 819 821 822 820
f 817 1 4 763
f 817 818 651 1
f 818 820 658 651
f 822 800 33 32
f 820 822 32 658
usemtl c6
f 205 208 209 206
f 205 207 210 208
f 260 259 261 262
f 248 260 262 249
