# generado por tools/vox_to_obj.py desde jugador_base.vox
mtllib jugador_base.mtl
v -3.0000 0.0000 2.0000
v -3.0000 1.0000 2.0000
v -3.0000 1.0000 1.0000
v -3.0000 0.0000 1.0000
v -2.0000 0.0000 2.0000
v -2.0000 1.0000 2.0000
v -2.0000 0.0000 1.0000
v -3.0000 2.0000 2.0000
v -3.0000 2.0000 1.0000
v -2.0000 2.0000 2.0000
v -3.0000 1.0000 0.0000
v -3.0000 0.0000 0.0000
v -2.0000 0.0000 0.0000
v -3.0000 2.0000 0.0000
v -3.0000 1.0000 -1.0000
v -3.0000 0.0000 -1.0000
v -2.0000 1.0000 -1.0000
v -2.0000 0.0000 -1.0000
v -3.0000 2.0000 -1.0000
v -2.0000 2.0000 -1.0000
v -1.0000 0.0000 2.0000
v -1.0000 0.0000 1.0000
v -1.0000 1.0000 1.0000
v -1.0000 1.0000 2.0000
v -1.0000 2.0000 1.0000
v -1.0000 2.0000 2.0000
v -1.0000 0.0000 0.0000
v -1.0000 1.0000 0.0000
v -1.0000 2.0000 0.0000
v -1.0000 0.0000 -1.0000
v -1.0000 1.0000 -1.0000
v -1.0000 2.0000 -1.0000
v 1.0000 0.0000 2.0000
v 1.0000 1.0000 2.0000
v 1.0000 1.0000 1.0000
v 1.0000 0.0000 1.0000
v 2.0000 0.0000 2.0000
v 2.0000 1.0000 2.0000
v 2.0000 0.0000 1.0000
v 1.0000 2.0000 2.0000
v 1.0000 2.0000 1.0000
v 2.0000 2.0000 2.0000
v 1.0000 1.0000 0.0000
v 1.0000 0.0000 0.0000
v 2.0000 0.0000 0.0000
v 1.0000 2.0000 0.0000
v 1.0000 1.0000 -1.0000
v 1.0000 0.0000 -1.0000
v 2.0000 1.0000 -1.0000
v 2.0000 0.0000 -1.0000
v 1.0000 2.0000 -1.0000
v 2.0000 2.0000 -1.0000
v 3.0000 0.0000 2.0000
v 3.0000 0.0000 1.0000
v 3.0000 1.0000 1.0000
v 3.0000 1.0000 2.0000
v 3.0000 2.0000 1.0000
v 3.0000 2.0000 2.0000
v 3.0000 0.0000 0.0000
v 3.0000 1.0000 0.0000
v 3.0000 2.0000 0.0000
v 3.0000 0.0000 -1.0000
v 3.0000 1.0000 -1.0000
v 3.0000 2.0000 -1.0000
v -3.0000 3.0000 2.0000
v -3.0000 3.0000 1.0000
v -2.0000 3.0000 2.0000
v -3.0000 4.0000 2.0000
v -3.0000 4.0000 1.0000
v -2.0000 4.0000 2.0000
v -3.0000 5.0000 2.0000
v -3.0000 5.0000 1.0000
v -2.0000 5.0000 2.0000
v -3.0000 6.0000 2.0000
v -3.0000 6.0000 1.0000
v -2.0000 6.0000 2.0000
v -3.0000 7.0000 2.0000
v -3.0000 7.0000 1.0000
v -2.0000 7.0000 2.0000
v -3.0000 8.0000 2.0000
v -3.0000 8.0000 1.0000
v -2.0000 8.0000 2.0000
v -3.0000 9.0000 2.0000
v -3.0000 9.0000 1.0000
v -2.0000 9.0000 2.0000
v -3.0000 10.0000 2.0000
v -3.0000 10.0000 1.0000
v -2.0000 10.0000 2.0000
v -3.0000 11.0000 2.0000
v -3.0000 11.0000 1.0000
v -2.0000 11.0000 2.0000
v -3.0000 12.0000 2.0000
v -3.0000 12.0000 1.0000
v -2.0000 12.0000 2.0000
v -3.0000 13.0000 2.0000
v -3.0000 13.0000 1.0000
v -2.0000 13.0000 2.0000
v -3.0000 3.0000 0.0000
v -3.0000 4.0000 0.0000
v -3.0000 5.0000 0.0000
v -3.0000 6.0000 0.0000
v -3.0000 7.0000 0.0000
v -3.0000 8.0000 0.0000
v -3.0000 9.0000 0.0000
v -3.0000 10.0000 0.0000
v -3.0000 11.0000 0.0000
v -3.0000 12.0000 0.0000
v -3.0000 13.0000 0.0000
v -3.0000 3.0000 -1.0000
v -2.0000 3.0000 -1.0000
v -3.0000 4.0000 -1.0000
v -2.0000 4.0000 -1.0000
v -3.0000 5.0000 -1.0000
v -2.0000 5.0000 -1.0000
v -3.0000 6.0000 -1.0000
v -2.0000 6.0000 -1.0000
v -3.0000 7.0000 -1.0000
v -2.0000 7.0000 -1.0000
v -3.0000 8.0000 -1.0000
v -2.0000 8.0000 -1.0000
v -3.0000 9.0000 -1.0000
v -2.0000 9.0000 -1.0000
v -3.0000 10.0000 -1.0000
v -2.0000 10.0000 -1.0000
v -3.0000 11.0000 -1.0000
v -2.0000 11.0000 -1.0000
v -3.0000 12.0000 -1.0000
v -2.0000 12.0000 -1.0000
v -3.0000 13.0000 -1.0000
v -2.0000 13.0000 -1.0000
v -1.0000 3.0000 1.0000
v -1.0000 3.0000 2.0000
v -1.0000 4.0000 1.0000
v -1.0000 4.0000 2.0000
v -1.0000 5.0000 1.0000
v -1.0000 5.0000 2.0000
v -1.0000 6.0000 1.0000
v -1.0000 6.0000 2.0000
v -1.0000 7.0000 1.0000
v -1.0000 7.0000 2.0000
v -1.0000 8.0000 1.0000
v -1.0000 8.0000 2.0000
v -1.0000 9.0000 1.0000
v -1.0000 9.0000 2.0000
v -1.0000 10.0000 1.0000
v -1.0000 10.0000 2.0000
v -1.0000 11.0000 1.0000
v -1.0000 11.0000 2.0000
v -1.0000 12.0000 1.0000
v -1.0000 12.0000 2.0000
v -1.0000 13.0000 1.0000
v -1.0000 13.0000 2.0000
v -1.0000 3.0000 0.0000
v -1.0000 4.0000 0.0000
v -1.0000 5.0000 0.0000
v -1.0000 6.0000 0.0000
v -1.0000 7.0000 0.0000
v -1.0000 8.0000 0.0000
v -1.0000 9.0000 0.0000
v -1.0000 10.0000 0.0000
v -1.0000 11.0000 0.0000
v -1.0000 12.0000 0.0000
v -1.0000 13.0000 0.0000
v -1.0000 3.0000 -1.0000
v -1.0000 4.0000 -1.0000
v -1.0000 5.0000 -1.0000
v -1.0000 6.0000 -1.0000
v -1.0000 7.0000 -1.0000
v -1.0000 8.0000 -1.0000
v -1.0000 9.0000 -1.0000
v -1.0000 10.0000 -1.0000
v -1.0000 11.0000 -1.0000
v -1.0000 12.0000 -1.0000
v -1.0000 13.0000 -1.0000
v 1.0000 3.0000 2.0000
v 1.0000 3.0000 1.0000
v 2.0000 3.0000 2.0000
v 1.0000 4.0000 2.0000
v 1.0000 4.0000 1.0000
v 2.0000 4.0000 2.0000
v 1.0000 5.0000 2.0000
v 1.0000 5.0000 1.0000
v 2.0000 5.0000 2.0000
v 1.0000 6.0000 2.0000
v 1.0000 6.0000 1.0000
v 2.0000 6.0000 2.0000
v 1.0000 7.0000 2.0000
v 1.0000 7.0000 1.0000
v 2.0000 7.0000 2.0000
v 1.0000 8.0000 2.0000
v 1.0000 8.0000 1.0000
v 2.0000 8.0000 2.0000
v 1.0000 9.0000 2.0000
v 1.0000 9.0000 1.0000
v 2.0000 9.0000 2.0000
v 1.0000 10.0000 2.0000
v 1.0000 10.0000 1.0000
v 2.0000 10.0000 2.0000
v 1.0000 11.0000 2.0000
v 1.0000 11.0000 1.0000
v 2.0000 11.0000 2.0000
v 1.0000 12.0000 2.0000
v 1.0000 12.0000 1.0000
v 2.0000 12.0000 2.0000
v 1.0000 13.0000 2.0000
v 1.0000 13.0000 1.0000
v 2.0000 13.0000 2.0000
v 1.0000 3.0000 0.0000
v 1.0000 4.0000 0.0000
v 1.0000 5.0000 0.0000
v 1.0000 6.0000 0.0000
v 1.0000 7.0000 0.0000
v 1.0000 8.0000 0.0000
v 1.0000 9.0000 0.0000
v 1.0000 10.0000 0.0000
v 1.0000 11.0000 0.0000
v 1.0000 12.0000 0.0000
v 1.0000 13.0000 0.0000
v 1.0000 3.0000 -1.0000
v 2.0000 3.0000 -1.0000
v 1.0000 4.0000 -1.0000
v 2.0000 4.0000 -1.0000
v 1.0000 5.0000 -1.0000
v 2.0000 5.0000 -1.0000
v 1.0000 6.0000 -1.0000
v 2.0000 6.0000 -1.0000
v 1.0000 7.0000 -1.0000
v 2.0000 7.0000 -1.0000
v 1.0000 8.0000 -1.0000
v 2.0000 8.0000 -1.0000
v 1.0000 9.0000 -1.0000
v 2.0000 9.0000 -1.0000
v 1.0000 10.0000 -1.0000
v 2.0000 10.0000 -1.0000
v 1.0000 11.0000 -1.0000
v 2.0000 11.0000 -1.0000
v 1.0000 12.0000 -1.0000
v 2.0000 12.0000 -1.0000
v 1.0000 13.0000 -1.0000
v 2.0000 13.0000 -1.0000
v 3.0000 3.0000 1.0000
v 3.0000 3.0000 2.0000
v 3.0000 4.0000 1.0000
v 3.0000 4.0000 2.0000
v 3.0000 5.0000 1.0000
v 3.0000 5.0000 2.0000
v 3.0000 6.0000 1.0000
v 3.0000 6.0000 2.0000
v 3.0000 7.0000 1.0000
v 3.0000 7.0000 2.0000
v 3.0000 8.0000 1.0000
v 3.0000 8.0000 2.0000
v 3.0000 9.0000 1.0000
v 3.0000 9.0000 2.0000
v 3.0000 10.0000 1.0000
v 3.0000 10.0000 2.0000
v 3.0000 11.0000 1.0000
v 3.0000 11.0000 2.0000
v 3.0000 12.0000 1.0000
v 3.0000 12.0000 2.0000
v 3.0000 13.0000 1.0000
v 3.0000 13.0000 2.0000
v 3.0000 3.0000 0.0000
v 3.0000 4.0000 0.0000
v 3.0000 5.0000 0.0000
v 3.0000 6.0000 0.0000
v 3.0000 7.0000 0.0000
v 3.0000 8.0000 0.0000
v 3.0000 9.0000 0.0000
v 3.0000 10.0000 0.0000
v 3.0000 11.0000 0.0000
v 3.0000 12.0000 0.0000
v 3.0000 13.0000 0.0000
v 3.0000 3.0000 -1.0000
v 3.0000 4.0000 -1.0000
v 3.0000 5.0000 -1.0000
v 3.0000 6.0000 -1.0000
v 3.0000 7.0000 -1.0000
v 3.0000 8.0000 -1.0000
v 3.0000 9.0000 -1.0000
v 3.0000 10.0000 -1.0000
v 3.0000 11.0000 -1.0000
v 3.0000 12.0000 -1.0000
v 3.0000 13.0000 -1.0000
v -2.0000 14.0000 2.0000
v -3.0000 14.0000 2.0000
v -2.0000 15.0000 2.0000
v -3.0000 15.0000 2.0000
v -2.0000 16.0000 2.0000
v -3.0000 16.0000 2.0000
v -2.0000 17.0000 2.0000
v -3.0000 17.0000 2.0000
v -2.0000 18.0000 2.0000
v -3.0000 18.0000 2.0000
v -2.0000 19.0000 2.0000
v -3.0000 19.0000 2.0000
v -2.0000 20.0000 2.0000
v -3.0000 20.0000 2.0000
v -2.0000 21.0000 2.0000
v -3.0000 21.0000 2.0000
v -2.0000 22.0000 2.0000
v -3.0000 22.0000 2.0000
v -3.0000 23.0000 2.0000
v -3.0000 23.0000 1.0000
v -3.0000 22.0000 1.0000
v -2.0000 23.0000 2.0000
v -2.0000 23.0000 1.0000
v -3.0000 23.0000 0.0000
v -3.0000 22.0000 0.0000
v -2.0000 23.0000 0.0000
v -3.0000 23.0000 -1.0000
v -3.0000 22.0000 -1.0000
v -2.0000 23.0000 -1.0000
v -3.0000 14.0000 -1.0000
v -3.0000 14.0000 -2.0000
v -3.0000 13.0000 -2.0000
v -2.0000 14.0000 -2.0000
v -2.0000 13.0000 -2.0000
v -3.0000 15.0000 -1.0000
v -3.0000 15.0000 -2.0000
v -2.0000 15.0000 -2.0000
v -3.0000 16.0000 -1.0000
v -3.0000 16.0000 -2.0000
v -2.0000 16.0000 -2.0000
v -3.0000 17.0000 -1.0000
v -3.0000 17.0000 -2.0000
v -2.0000 17.0000 -2.0000
v -3.0000 18.0000 -1.0000
v -3.0000 18.0000 -2.0000
v -2.0000 18.0000 -2.0000
v -3.0000 19.0000 -1.0000
v -3.0000 19.0000 -2.0000
v -2.0000 19.0000 -2.0000
v -3.0000 20.0000 -1.0000
v -3.0000 20.0000 -2.0000
v -2.0000 20.0000 -2.0000
v -3.0000 21.0000 -1.0000
v -3.0000 21.0000 -2.0000
v -2.0000 21.0000 -2.0000
v -3.0000 22.0000 -2.0000
v -2.0000 22.0000 -2.0000
v -3.0000 23.0000 -2.0000
v -2.0000 23.0000 -2.0000
v -1.0000 14.0000 2.0000
v -1.0000 15.0000 2.0000
v -1.0000 16.0000 2.0000
v -1.0000 17.0000 2.0000
v -1.0000 18.0000 2.0000
v -1.0000 19.0000 2.0000
v -1.0000 20.0000 2.0000
v -1.0000 21.0000 2.0000
v -1.0000 22.0000 2.0000
v -1.0000 23.0000 2.0000
v -1.0000 14.0000 -2.0000
v -1.0000 13.0000 -2.0000
v -1.0000 15.0000 -2.0000
v -1.0000 16.0000 -2.0000
v -1.0000 17.0000 -2.0000
v -1.0000 18.0000 -2.0000
v -1.0000 19.0000 -2.0000
v -1.0000 20.0000 -2.0000
v -1.0000 21.0000 -2.0000
v -1.0000 22.0000 -2.0000
v -1.0000 23.0000 -2.0000
v 0.0000 13.0000 2.0000
v 0.0000 14.0000 2.0000
v 0.0000 13.0000 1.0000
v 0.0000 15.0000 2.0000
v 0.0000 16.0000 2.0000
v 0.0000 17.0000 2.0000
v 0.0000 18.0000 2.0000
v 0.0000 19.0000 2.0000
v 0.0000 20.0000 2.0000
v 0.0000 21.0000 2.0000
v 0.0000 22.0000 2.0000
v 0.0000 23.0000 2.0000
v 0.0000 13.0000 0.0000
v 0.0000 13.0000 -1.0000
v 0.0000 14.0000 -2.0000
v 0.0000 13.0000 -2.0000
v 0.0000 15.0000 -2.0000
v 0.0000 16.0000 -2.0000
v 0.0000 17.0000 -2.0000
v 0.0000 18.0000 -2.0000
v 0.0000 19.0000 -2.0000
v 0.0000 20.0000 -2.0000
v 0.0000 21.0000 -2.0000
v 0.0000 22.0000 -2.0000
v 0.0000 23.0000 -2.0000
v 1.0000 14.0000 2.0000
v 1.0000 15.0000 2.0000
v 1.0000 16.0000 2.0000
v 1.0000 17.0000 2.0000
v 1.0000 18.0000 2.0000
v 1.0000 19.0000 2.0000
v 1.0000 20.0000 2.0000
v 1.0000 21.0000 2.0000
v 1.0000 22.0000 2.0000
v 1.0000 23.0000 2.0000
v 1.0000 14.0000 -2.0000
v 1.0000 13.0000 -2.0000
v 1.0000 15.0000 -2.0000
v 1.0000 16.0000 -2.0000
v 1.0000 17.0000 -2.0000
v 1.0000 18.0000 -2.0000
v 1.0000 19.0000 -2.0000
v 1.0000 20.0000 -2.0000
v 1.0000 21.0000 -2.0000
v 1.0000 22.0000 -2.0000
v 1.0000 23.0000 -2.0000
v 2.0000 14.0000 2.0000
v 2.0000 15.0000 2.0000
v 2.0000 16.0000 2.0000
v 2.0000 17.0000 2.0000
v 2.0000 18.0000 2.0000
v 2.0000 19.0000 2.0000
v 2.0000 20.0000 2.0000
v 2.0000 21.0000 2.0000
v 2.0000 22.0000 2.0000
v 2.0000 23.0000 2.0000
v 2.0000 14.0000 -2.0000
v 2.0000 13.0000 -2.0000
v 2.0000 15.0000 -2.0000
v 2.0000 16.0000 -2.0000
v 2.0000 17.0000 -2.0000
v 2.0000 18.0000 -2.0000
v 2.0000 19.0000 -2.0000
v 2.0000 20.0000 -2.0000
v 2.0000 21.0000 -2.0000
v 2.0000 22.0000 -2.0000
v 2.0000 23.0000 -2.0000
v 3.0000 14.0000 2.0000
v 3.0000 15.0000 2.0000
v 3.0000 16.0000 2.0000
v 3.0000 17.0000 2.0000
v 3.0000 18.0000 2.0000
v 3.0000 19.0000 2.0000
v 3.0000 20.0000 2.0000
v 3.0000 21.0000 2.0000
v 3.0000 22.0000 2.0000
v 3.0000 22.0000 1.0000
v 3.0000 23.0000 1.0000
v 3.0000 23.0000 2.0000
v 2.0000 23.0000 1.0000
v 3.0000 22.0000 0.0000
v 3.0000 23.0000 0.0000
v 2.0000 23.0000 0.0000
v 3.0000 22.0000 -1.0000
v 3.0000 23.0000 -1.0000
v 2.0000 23.0000 -1.0000
v 3.0000 13.0000 -2.0000
v 3.0000 14.0000 -2.0000
v 3.0000 14.0000 -1.0000
v 3.0000 15.0000 -2.0000
v 3.0000 15.0000 -1.0000
v 3.0000 16.0000 -2.0000
v 3.0000 16.0000 -1.0000
v 3.0000 17.0000 -2.0000
v 3.0000 17.0000 -1.0000
v 3.0000 18.0000 -2.0000
v 3.0000 18.0000 -1.0000
v 3.0000 19.0000 -2.0000
v 3.0000 19.0000 -1.0000
v 3.0000 20.0000 -2.0000
v 3.0000 20.0000 -1.0000
v 3.0000 21.0000 -2.0000
v 3.0000 21.0000 -1.0000
v 3.0000 22.0000 -2.0000
v 3.0000 23.0000 -2.0000
v -5.0000 14.0000 2.0000
v -5.0000 15.0000 2.0000
v -5.0000 15.0000 1.0000
v -5.0000 14.0000 1.0000
v -4.0000 14.0000 2.0000
v -4.0000 15.0000 2.0000
v -5.0000 16.0000 2.0000
v -5.0000 16.0000 1.0000
v -4.0000 16.0000 2.0000
v -5.0000 17.0000 2.0000
v -5.0000 17.0000 1.0000
v -4.0000 17.0000 2.0000
v -5.0000 18.0000 2.0000
v -5.0000 18.0000 1.0000
v -4.0000 18.0000 2.0000
v -5.0000 19.0000 2.0000
v -5.0000 19.0000 1.0000
v -4.0000 19.0000 2.0000
v -5.0000 20.0000 2.0000
v -5.0000 20.0000 1.0000
v -4.0000 20.0000 2.0000
v -5.0000 21.0000 2.0000
v -5.0000 21.0000 1.0000
v -4.0000 21.0000 2.0000
v -5.0000 22.0000 2.0000
v -5.0000 22.0000 1.0000
v -4.0000 22.0000 2.0000
v -4.0000 22.0000 1.0000
v -5.0000 15.0000 0.0000
v -5.0000 14.0000 0.0000
v -5.0000 16.0000 0.0000
v -5.0000 17.0000 0.0000
v -5.0000 18.0000 0.0000
v -5.0000 19.0000 0.0000
v -5.0000 20.0000 0.0000
v -5.0000 21.0000 0.0000
v -5.0000 22.0000 0.0000
v -4.0000 22.0000 0.0000
v -5.0000 15.0000 -1.0000
v -5.0000 14.0000 -1.0000
v -4.0000 15.0000 -1.0000
v -4.0000 14.0000 -1.0000
v -5.0000 16.0000 -1.0000
v -4.0000 16.0000 -1.0000
v -5.0000 17.0000 -1.0000
v -4.0000 17.0000 -1.0000
v -5.0000 18.0000 -1.0000
v -4.0000 18.0000 -1.0000
v -5.0000 19.0000 -1.0000
v -4.0000 19.0000 -1.0000
v -5.0000 20.0000 -1.0000
v -4.0000 20.0000 -1.0000
v -5.0000 21.0000 -1.0000
v -4.0000 21.0000 -1.0000
v -5.0000 22.0000 -1.0000
v -4.0000 22.0000 -1.0000
v 4.0000 14.0000 2.0000
v 4.0000 15.0000 2.0000
v 4.0000 16.0000 2.0000
v 4.0000 17.0000 2.0000
v 4.0000 18.0000 2.0000
v 4.0000 19.0000 2.0000
v 4.0000 20.0000 2.0000
v 4.0000 21.0000 2.0000
v 4.0000 22.0000 2.0000
v 4.0000 22.0000 1.0000
v 4.0000 22.0000 0.0000
v 4.0000 15.0000 -1.0000
v 4.0000 14.0000 -1.0000
v 4.0000 16.0000 -1.0000
v 4.0000 17.0000 -1.0000
v 4.0000 18.0000 -1.0000
v 4.0000 19.0000 -1.0000
v 4.0000 20.0000 -1.0000
v 4.0000 21.0000 -1.0000
v 4.0000 22.0000 -1.0000
v 5.0000 14.0000 2.0000
v 5.0000 14.0000 1.0000
v 5.0000 15.0000 1.0000
v 5.0000 15.0000 2.0000
v 5.0000 16.0000 1.0000
v 5.0000 16.0000 2.0000
v 5.0000 17.0000 1.0000
v 5.0000 17.0000 2.0000
v 5.0000 18.0000 1.0000
v 5.0000 18.0000 2.0000
v 5.0000 19.0000 1.0000
v 5.0000 19.0000 2.0000
v 5.0000 20.0000 1.0000
v 5.0000 20.0000 2.0000
v 5.0000 21.0000 1.0000
v 5.0000 21.0000 2.0000
v 5.0000 22.0000 1.0000
v 5.0000 22.0000 2.0000
v 5.0000 14.0000 0.0000
v 5.0000 15.0000 0.0000
v 5.0000 16.0000 0.0000
v 5.0000 17.0000 0.0000
v 5.0000 18.0000 0.0000
v 5.0000 19.0000 0.0000
v 5.0000 20.0000 0.0000
v 5.0000 21.0000 0.0000
v 5.0000 22.0000 0.0000
v 5.0000 14.0000 -1.0000
v 5.0000 15.0000 -1.0000
v 5.0000 16.0000 -1.0000
v 5.0000 17.0000 -1.0000
v 5.0000 18.0000 -1.0000
v 5.0000 19.0000 -1.0000
v 5.0000 20.0000 -1.0000
v 5.0000 21.0000 -1.0000
v 5.0000 22.0000 -1.0000
v -5.0000 13.0000 2.0000
v -5.0000 13.0000 1.0000
v -4.0000 13.0000 2.0000
v -4.0000 13.0000 1.0000
v -5.0000 13.0000 0.0000
v -4.0000 13.0000 0.0000
v -5.0000 13.0000 -1.0000
v -4.0000 13.0000 -1.0000
v 4.0000 13.0000 2.0000
v 4.0000 13.0000 1.0000
v 4.0000 13.0000 0.0000
v 4.0000 13.0000 -1.0000
v 5.0000 13.0000 2.0000
v 5.0000 13.0000 1.0000
v 5.0000 13.0000 0.0000
v 5.0000 13.0000 -1.0000
v -2.0000 24.0000 2.0000
v -2.0000 24.0000 1.0000
v -1.0000 24.0000 2.0000
v -2.0000 25.0000 2.0000
v -2.0000 25.0000 1.0000
v -1.0000 25.0000 2.0000
v -2.0000 26.0000 2.0000
v -2.0000 26.0000 1.0000
v -1.0000 26.0000 2.0000
v -2.0000 27.0000 2.0000
v -2.0000 27.0000 1.0000
v -1.0000 27.0000 2.0000
v -2.0000 28.0000 2.0000
v -2.0000 28.0000 1.0000
v -1.0000 28.0000 2.0000
v -2.0000 24.0000 0.0000
v -2.0000 25.0000 0.0000
v -2.0000 26.0000 0.0000
v -2.0000 27.0000 0.0000
v -2.0000 28.0000 0.0000
v -2.0000 24.0000 -1.0000
v -2.0000 25.0000 -1.0000
v -2.0000 26.0000 -1.0000
v -2.0000 27.0000 -1.0000
v -2.0000 28.0000 -1.0000
v -2.0000 24.0000 -2.0000
v -1.0000 24.0000 -2.0000
v -2.0000 25.0000 -2.0000
v -1.0000 25.0000 -2.0000
v -2.0000 26.0000 -2.0000
v -1.0000 26.0000 -2.0000
v -2.0000 27.0000 -2.0000
v -1.0000 27.0000 -2.0000
v -2.0000 28.0000 -2.0000
v -1.0000 28.0000 -2.0000
v 0.0000 24.0000 2.0000
v 0.0000 25.0000 2.0000
v 0.0000 26.0000 2.0000
v 0.0000 27.0000 2.0000
v 0.0000 28.0000 2.0000
v 0.0000 24.0000 -2.0000
v 0.0000 25.0000 -2.0000
v 0.0000 26.0000 -2.0000
v 0.0000 27.0000 -2.0000
v 0.0000 28.0000 -2.0000
v 1.0000 24.0000 2.0000
v 1.0000 25.0000 2.0000
v 1.0000 26.0000 2.0000
v 1.0000 27.0000 2.0000
v 1.0000 28.0000 2.0000
v 1.0000 24.0000 -2.0000
v 1.0000 25.0000 -2.0000
v 1.0000 26.0000 -2.0000
v 1.0000 27.0000 -2.0000
v 1.0000 28.0000 -2.0000
v 2.0000 24.0000 1.0000
v 2.0000 24.0000 2.0000
v 2.0000 25.0000 1.0000
v 2.0000 25.0000 2.0000
v 2.0000 26.0000 1.0000
v 2.0000 26.0000 2.0000
v 2.0000 27.0000 1.0000
v 2.0000 27.0000 2.0000
v 2.0000 28.0000 1.0000
v 2.0000 28.0000 2.0000
v 2.0000 24.0000 0.0000
v 2.0000 25.0000 0.0000
v 2.0000 26.0000 0.0000
v 2.0000 27.0000 0.0000
v 2.0000 28.0000 0.0000
v 2.0000 24.0000 -1.0000
v 2.0000 25.0000 -1.0000
v 2.0000 26.0000 -1.0000
v 2.0000 27.0000 -1.0000
v 2.0000 28.0000 -1.0000
v 2.0000 24.0000 -2.0000
v 2.0000 25.0000 -2.0000
v 2.0000 26.0000 -2.0000
v 2.0000 27.0000 -2.0000
v 2.0000 28.0000 -2.0000
v -4.0000 28.0000 4.0000
v -4.0000 29.0000 4.0000
v -4.0000 29.0000 3.0000
v -4.0000 28.0000 3.0000
v -3.0000 28.0000 4.0000
v -3.0000 29.0000 4.0000
v -3.0000 29.0000 3.0000
v -3.0000 28.0000 3.0000
v -4.0000 29.0000 2.0000
v -4.0000 28.0000 2.0000
v -3.0000 29.0000 2.0000
v -3.0000 28.0000 2.0000
v -4.0000 29.0000 1.0000
v -4.0000 28.0000 1.0000
v -3.0000 29.0000 1.0000
v -3.0000 28.0000 1.0000
v -4.0000 29.0000 0.0000
v -4.0000 28.0000 0.0000
v -3.0000 29.0000 0.0000
v -3.0000 28.0000 0.0000
v -4.0000 29.0000 -1.0000
v -4.0000 28.0000 -1.0000
v -3.0000 29.0000 -1.0000
v -3.0000 28.0000 -1.0000
v -4.0000 29.0000 -2.0000
v -4.0000 28.0000 -2.0000
v -3.0000 29.0000 -2.0000
v -3.0000 28.0000 -2.0000
v -4.0000 29.0000 -3.0000
v -4.0000 28.0000 -3.0000
v -3.0000 29.0000 -3.0000
v -3.0000 28.0000 -3.0000
v -4.0000 29.0000 -4.0000
v -4.0000 28.0000 -4.0000
v -3.0000 29.0000 -4.0000
v -3.0000 28.0000 -4.0000
v -2.0000 28.0000 4.0000
v -2.0000 29.0000 4.0000
v -2.0000 29.0000 3.0000
v -2.0000 28.0000 3.0000
v -2.0000 29.0000 2.0000
v -2.0000 29.0000 1.0000
v -2.0000 29.0000 0.0000
v -2.0000 29.0000 -1.0000
v -2.0000 29.0000 -2.0000
v -2.0000 29.0000 -3.0000
v -2.0000 28.0000 -3.0000
v -2.0000 29.0000 -4.0000
v -2.0000 28.0000 -4.0000
v -1.0000 28.0000 4.0000
v -1.0000 29.0000 4.0000
v -1.0000 29.0000 3.0000
v -1.0000 28.0000 3.0000
v -1.0000 29.0000 2.0000
v -1.0000 29.0000 -2.0000
v -1.0000 29.0000 -3.0000
v -1.0000 28.0000 -3.0000
v -1.0000 29.0000 -4.0000
v -1.0000 28.0000 -4.0000
v 0.0000 28.0000 4.0000
v 0.0000 29.0000 4.0000
v 0.0000 29.0000 3.0000
v 0.0000 28.0000 3.0000
v 0.0000 29.0000 2.0000
v 0.0000 29.0000 -2.0000
v 0.0000 29.0000 -3.0000
v 0.0000 28.0000 -3.0000
v 0.0000 29.0000 -4.0000
v 0.0000 28.0000 -4.0000
v 1.0000 28.0000 4.0000
v 1.0000 29.0000 4.0000
v 1.0000 29.0000 3.0000
v 1.0000 28.0000 3.0000
v 1.0000 29.0000 2.0000
v 1.0000 29.0000 -2.0000
v 1.0000 29.0000 -3.0000
v 1.0000 28.0000 -3.0000
v 1.0000 29.0000 -4.0000
v 1.0000 28.0000 -4.0000
v 2.0000 28.0000 4.0000
v 2.0000 29.0000 4.0000
v 2.0000 29.0000 3.0000
v 2.0000 28.0000 3.0000
v 2.0000 29.0000 2.0000
v 2.0000 29.0000 -2.0000
v 2.0000 29.0000 -3.0000
v 2.0000 28.0000 -3.0000
v 2.0000 29.0000 -4.0000
v 2.0000 28.0000 -4.0000
v 3.0000 28.0000 4.0000
v 3.0000 29.0000 4.0000
v 3.0000 29.0000 3.0000
v 3.0000 28.0000 3.0000
v 3.0000 29.0000 2.0000
v 3.0000 28.0000 2.0000
v 3.0000 29.0000 1.0000
v 2.0000 29.0000 1.0000
v 3.0000 28.0000 1.0000
v 3.0000 29.0000 0.0000
v 2.0000 29.0000 0.0000
v 3.0000 28.0000 0.0000
v 3.0000 29.0000 -1.0000
v 2.0000 29.0000 -1.0000
v 3.0000 28.0000 -1.0000
v 3.0000 29.0000 -2.0000
v 3.0000 28.0000 -2.0000
v 3.0000 29.0000 -3.0000
v 3.0000 28.0000 -3.0000
v 3.0000 29.0000 -4.0000
v 3.0000 28.0000 -4.0000
v 4.0000 28.0000 4.0000
v 4.0000 28.0000 3.0000
v 4.0000 29.0000 3.0000
v 4.0000 29.0000 4.0000
v 4.0000 28.0000 2.0000
v 4.0000 29.0000 2.0000
v 4.0000 28.0000 1.0000
v 4.0000 29.0000 1.0000
v 4.0000 28.0000 0.0000
v 4.0000 29.0000 0.0000
v 4.0000 28.0000 -1.0000
v 4.0000 29.0000 -1.0000
v 4.0000 28.0000 -2.0000
v 4.0000 29.0000 -2.0000
v 4.0000 28.0000 -3.0000
v 4.0000 29.0000 -3.0000
v 4.0000 28.0000 -4.0000
v 4.0000 29.0000 -4.0000
v -2.0000 30.0000 2.0000
v -2.0000 30.0000 1.0000
v -1.0000 30.0000 2.0000
v -2.0000 31.0000 2.0000
v -2.0000 31.0000 1.0000
v -1.0000 31.0000 2.0000
v -2.0000 32.0000 2.0000
v -2.0000 32.0000 1.0000
v -1.0000 32.0000 2.0000
v -1.0000 32.0000 1.0000
v -2.0000 30.0000 0.0000
v -2.0000 31.0000 0.0000
v -2.0000 32.0000 0.0000
v -1.0000 32.0000 0.0000
v -2.0000 30.0000 -1.0000
v -2.0000 31.0000 -1.0000
v -2.0000 32.0000 -1.0000
v -1.0000 32.0000 -1.0000
v -2.0000 30.0000 -2.0000
v -1.0000 30.0000 -2.0000
v -2.0000 31.0000 -2.0000
v -1.0000 31.0000 -2.0000
v -2.0000 32.0000 -2.0000
v -1.0000 32.0000 -2.0000
v 0.0000 30.0000 2.0000
v 0.0000 31.0000 2.0000
v 0.0000 32.0000 2.0000
v 0.0000 32.0000 1.0000
v 0.0000 32.0000 0.0000
v 0.0000 32.0000 -1.0000
v 0.0000 30.0000 -2.0000
v 0.0000 31.0000 -2.0000
v 0.0000 32.0000 -2.0000
v 1.0000 30.0000 2.0000
v 1.0000 31.0000 2.0000
v 1.0000 32.0000 2.0000
v 1.0000 32.0000 1.0000
v 1.0000 32.0000 0.0000
v 1.0000 32.0000 -1.0000
v 1.0000 30.0000 -2.0000
v 1.0000 31.0000 -2.0000
v 1.0000 32.0000 -2.0000
v 2.0000 30.0000 1.0000
v 2.0000 30.0000 2.0000
v 2.0000 31.0000 1.0000
v 2.0000 31.0000 2.0000
v 2.0000 32.0000 1.0000
v 2.0000 32.0000 2.0000
v 2.0000 30.0000 0.0000
v 2.0000 31.0000 0.0000
v 2.0000 32.0000 0.0000
v 2.0000 30.0000 -1.0000
v 2.0000 31.0000 -1.0000
v 2.0000 32.0000 -1.0000
v 2.0000 30.0000 -2.0000
v 2.0000 31.0000 -2.0000
v 2.0000 32.0000 -2.0000
usemtl c1
f 678 679 680 681
f 678 682 683 679
f 679 683 684 680
f 678 681 685 682
f 681 680 686 687
f 680 684 688 686
f 681 687 689 685
f 687 686 690 691
f 686 688 692 690
f 687 691 693 689
f 691 690 694 695
f 690 692 696 694
f 691 695 697 693
f 695 694 698 699
f 694 696 700 698
f 695 699 701 697
f 699 698 702 703
f 698 700 704 702
f 699 703 705 701
f 703 702 706 707
f 702 704 708 706
f 703 707 709 705
f 707 706 710 711
f 711 710 712 713
f 706 708 712 710
f 707 711 713 709
f 682 714 715 683
f 683 715 716 684
f 682 685 717 714
f 684 716 718 688
f 685 689 610 717
f 688 718 719 692
f 689 693 611 610
f 692 719 720 696
f 693 697 617 611
f 696 720 721 700
f 697 701 622 617
f 700 721 722 704
f 701 705 631 622
f 704 722 723 708
f 705 709 724 631
f 713 712 725 726
f 708 723 725 712
f 709 713 726 724
f 714 727 728 715
f 715 728 729 716
f 714 717 730 727
f 716 729 731 718
f 717 610 612 730
f 722 732 733 723
f 631 724 734 632
f 726 725 735 736
f 723 733 735 725
f 724 726 736 734
f 727 737 738 728
f 728 738 739 729
f 727 730 740 737
f 729 739 741 731
f 730 612 637 740
f 732 742 743 733
f 632 734 744 642
f 736 735 745 746
f 733 743 745 735
f 734 736 746 744
f 737 747 748 738
f 738 748 749 739
f 737 740 750 747
f 739 749 751 741
f 740 637 647 750
f 742 752 753 743
f 642 744 754 652
f 746 745 755 756
f 743 753 755 745
f 744 746 756 754
f 747 757 758 748
f 748 758 759 749
f 747 750 760 757
f 749 759 761 751
f 750 647 662 760
f 752 762 763 753
f 652 754 764 677
f 756 755 765 766
f 753 763 765 755
f 754 756 766 764
f 757 767 768 758
f 758 768 769 759
f 757 760 770 767
f 759 769 771 761
f 760 662 772 770
f 761 771 773 774
f 662 661 775 772
f 774 773 776 777
f 661 667 778 775
f 777 776 779 780
f 667 672 781 778
f 780 779 782 762
f 672 677 783 781
f 762 782 784 763
f 677 764 785 783
f 766 765 786 787
f 763 784 786 765
f 764 766 787 785
f 788 789 790 791
f 767 788 791 768
f 768 791 790 769
f 767 770 789 788
f 789 792 793 790
f 769 790 793 771
f 770 772 792 789
f 792 794 795 793
f 771 793 795 773
f 772 775 794 792
f 794 796 797 795
f 773 795 797 776
f 775 778 796 794
f 796 798 799 797
f 776 797 799 779
f 778 781 798 796
f 798 800 801 799
f 779 799 801 782
f 781 783 800 798
f 800 802 803 801
f 782 801 803 784
f 783 785 802 800
f 802 804 805 803
f 787 786 805 804
f 784 803 805 786
f 785 787 804 802
f 718 806 807 719
f 718 731 808 806
f 806 809 810 807
f 806 808 811 809
f 809 812 813 810
f 809 811 814 812
f 812 814 815 813
f 719 807 816 720
f 807 810 817 816
f 810 813 818 817
f 813 815 819 818
f 720 816 820 721
f 816 817 821 820
f 817 818 822 821
f 818 819 823 822
f 721 820 824 722
f 722 824 825 732
f 820 821 826 824
f 824 826 827 825
f 821 822 828 826
f 826 828 829 827
f 822 823 829 828
f 731 741 830 808
f 808 830 831 811
f 811 831 832 814
f 814 832 833 815
f 815 833 834 819
f 819 834 835 823
f 732 825 836 742
f 825 827 837 836
f 827 829 838 837
f 823 835 838 829
f 741 751 839 830
f 830 839 840 831
f 831 840 841 832
f 832 841 842 833
f 833 842 843 834
f 834 843 844 835
f 742 836 845 752
f 836 837 846 845
f 837 838 847 846
f 835 844 847 838
f 761 774 848 849
f 751 761 849 839
f 849 848 850 851
f 839 849 851 840
f 851 850 852 853
f 840 851 853 841
f 841 853 852 842
f 774 777 854 848
f 848 854 855 850
f 850 855 856 852
f 842 852 856 843
f 777 780 857 854
f 854 857 858 855
f 855 858 859 856
f 843 856 859 844
f 780 762 860 857
f 752 845 860 762
f 857 860 861 858
f 845 846 861 860
f 858 861 862 859
f 846 847 862 861
f 844 859 862 847
usemtl c2
f 95 97 285 286
f 286 285 287 288
f 288 287 289 290
f 290 289 291 292
f 292 291 293 294
f 294 293 295 296
f 296 295 297 298
f 298 297 299 300
f 300 299 301 302
f 302 303 304 305
f 302 301 306 303
f 303 306 307 304
f 305 304 308 309
f 304 307 310 308
f 309 308 311 312
f 308 310 313 311
f 129 314 315 316
f 316 315 317 318
f 129 316 318 130
f 314 319 320 315
f 315 320 321 317
f 319 322 323 320
f 320 323 324 321
f 322 325 326 323
f 323 326 327 324
f 325 328 329 326
f 326 329 330 327
f 328 331 332 329
f 329 332 333 330
f 331 334 335 332
f 332 335 336 333
f 334 337 338 335
f 335 338 339 336
f 337 312 340 338
f 338 340 341 339
f 312 311 342 340
f 340 342 343 341
f 311 313 343 342
f 97 152 344 285
f 285 344 345 287
f 287 345 346 289
f 289 346 347 291
f 291 347 348 293
f 293 348 349 295
f 295 349 350 297
f 297 350 351 299
f 299 351 352 301
f 301 352 353 306
f 318 317 354 355
f 130 318 355 174
f 317 321 356 354
f 321 324 357 356
f 324 327 358 357
f 327 330 359 358
f 330 333 360 359
f 333 336 361 360
f 336 339 362 361
f 339 341 363 362
f 341 343 364 363
f 152 365 366 344
f 152 151 367 365
f 344 366 368 345
f 345 368 369 346
f 346 369 370 347
f 347 370 371 348
f 348 371 372 349
f 349 372 373 350
f 350 373 374 351
f 351 374 375 352
f 352 375 376 353
f 151 163 377 367
f 163 174 378 377
f 355 354 379 380
f 174 355 380 378
f 354 356 381 379
f 356 357 382 381
f 357 358 383 382
f 358 359 384 383
f 359 360 385 384
f 360 361 386 385
f 361 362 387 386
f 362 363 388 387
f 363 364 389 388
f 365 205 390 366
f 365 367 206 205
f 366 390 391 368
f 368 391 392 369
f 369 392 393 370
f 370 393 394 371
f 371 394 395 372
f 372 395 396 373
f 373 396 397 374
f 374 397 398 375
f 375 398 399 376
f 367 377 218 206
f 377 378 239 218
f 380 379 400 401
f 378 380 401 239
f 379 381 402 400
f 381 382 403 402
f 382 383 404 403
f 383 384 405 404
f 384 385 406 405
f 385 386 407 406
f 386 387 408 407
f 387 388 409 408
f 388 389 410 409
f 205 207 411 390
f 390 411 412 391
f 391 412 413 392
f 392 413 414 393
f 393 414 415 394
f 394 415 416 395
f 395 416 417 396
f 396 417 418 397
f 397 418 419 398
f 398 419 420 399
f 401 400 421 422
f 239 401 422 240
f 400 402 423 421
f 402 403 424 423
f 403 404 425 424
f 404 405 426 425
f 405 406 427 426
f 406 407 428 427
f 407 408 429 428
f 408 409 430 429
f 409 410 431 430
f 207 262 432 411
f 411 432 433 412
f 412 433 434 413
f 413 434 435 414
f 414 435 436 415
f 415 436 437 416
f 416 437 438 417
f 417 438 439 418
f 418 439 440 419
f 440 441 442 443
f 419 440 443 420
f 420 443 442 444
f 441 445 446 442
f 444 442 446 447
f 445 448 449 446
f 447 446 449 450
f 284 451 452 453
f 422 421 452 451
f 240 422 451 284
f 453 452 454 455
f 421 423 454 452
f 455 454 456 457
f 423 424 456 454
f 457 456 458 459
f 424 425 458 456
f 459 458 460 461
f 425 426 460 458
f 461 460 462 463
f 426 427 462 460
f 463 462 464 465
f 427 428 464 462
f 465 464 466 467
f 428 429 466 464
f 467 466 468 448
f 429 430 468 466
f 448 468 469 449
f 430 431 469 468
f 450 449 469 431
f 470 471 472 473
f 470 474 475 471
f 471 476 477 472
f 471 475 478 476
f 476 479 480 477
f 476 478 481 479
f 479 482 483 480
f 479 481 484 482
f 482 485 486 483
f 482 484 487 485
f 485 488 489 486
f 485 487 490 488
f 488 491 492 489
f 488 490 493 491
f 491 494 495 492
f 491 493 496 494
f 494 496 497 495
f 473 472 498 499
f 472 477 500 498
f 477 480 501 500
f 480 483 502 501
f 483 486 503 502
f 486 489 504 503
f 489 492 505 504
f 492 495 506 505
f 495 497 507 506
f 499 498 508 509
f 509 508 510 511
f 498 500 512 508
f 508 512 513 510
f 500 501 514 512
f 512 514 515 513
f 501 502 516 514
f 514 516 517 515
f 502 503 518 516
f 516 518 519 517
f 503 504 520 518
f 518 520 521 519
f 504 505 522 520
f 520 522 523 521
f 505 506 524 522
f 522 524 525 523
f 506 507 525 524
f 474 286 288 475
f 475 288 290 478
f 478 290 292 481
f 481 292 294 484
f 484 294 296 487
f 487 296 298 490
f 490 298 300 493
f 493 300 302 496
f 496 302 305 497
f 497 305 309 507
f 511 510 319 314
f 510 513 322 319
f 513 515 325 322
f 515 517 328 325
f 517 519 331 328
f 519 521 334 331
f 521 523 337 334
f 523 525 312 337
f 507 309 312 525
f 432 526 527 433
f 433 527 528 434
f 434 528 529 435
f 435 529 530 436
f 436 530 531 437
f 437 531 532 438
f 438 532 533 439
f 439 533 534 440
f 440 534 535 441
f 441 535 536 445
f 453 455 537 538
f 455 457 539 537
f 457 459 540 539
f 459 461 541 540
f 461 463 542 541
f 463 465 543 542
f 465 467 544 543
f 467 448 545 544
f 445 536 545 448
f 546 547 548 549
f 526 546 549 527
f 549 548 550 551
f 527 549 551 528
f 551 550 552 553
f 528 551 553 529
f 553 552 554 555
f 529 553 555 530
f 555 554 556 557
f 530 555 557 531
f 557 556 558 559
f 531 557 559 532
f 559 558 560 561
f 532 559 561 533
f 561 560 562 563
f 533 561 563 534
f 534 563 562 535
f 547 564 565 548
f 548 565 566 550
f 550 566 567 552
f 552 567 568 554
f 554 568 569 556
f 556 569 570 558
f 558 570 571 560
f 560 571 572 562
f 535 562 572 536
f 564 573 574 565
f 538 537 574 573
f 565 574 575 566
f 537 539 575 574
f 566 575 576 567
f 539 540 576 575
f 567 576 577 568
f 540 541 577 576
f 568 577 578 569
f 541 542 578 577
f 569 578 579 570
f 542 543 579 578
f 570 579 580 571
f 543 544 580 579
f 571 580 581 572
f 544 545 581 580
f 536 572 581 545
usemtl c3
f 8 65 66 9
f 8 10 67 65
f 65 68 69 66
f 65 67 70 68
f 68 71 72 69
f 68 70 73 71
f 71 74 75 72
f 71 73 76 74
f 74 77 78 75
f 74 76 79 77
f 77 80 81 78
f 77 79 82 80
f 80 83 84 81
f 80 82 85 83
f 83 86 87 84
f 83 85 88 86
f 86 89 90 87
f 86 88 91 89
f 89 92 93 90
f 89 91 94 92
f 92 95 96 93
f 92 94 97 95
f 9 66 98 14
f 66 69 99 98
f 69 72 100 99
f 72 75 101 100
f 75 78 102 101
f 78 81 103 102
f 81 84 104 103
f 84 87 105 104
f 87 90 106 105
f 90 93 107 106
f 93 96 108 107
f 14 98 109 19
f 19 109 110 20
f 98 99 111 109
f 109 111 112 110
f 99 100 113 111
f 111 113 114 112
f 100 101 115 113
f 113 115 116 114
f 101 102 117 115
f 115 117 118 116
f 102 103 119 117
f 117 119 120 118
f 103 104 121 119
f 119 121 122 120
f 104 105 123 121
f 121 123 124 122
f 105 106 125 123
f 123 125 126 124
f 106 107 127 125
f 125 127 128 126
f 107 108 129 127
f 127 129 130 128
f 26 25 131 132
f 10 26 132 67
f 132 131 133 134
f 67 132 134 70
f 134 133 135 136
f 70 134 136 73
f 136 135 137 138
f 73 136 138 76
f 138 137 139 140
f 76 138 140 79
f 140 139 141 142
f 79 140 142 82
f 142 141 143 144
f 82 142 144 85
f 144 143 145 146
f 85 144 146 88
f 146 145 147 148
f 88 146 148 91
f 148 147 149 150
f 91 148 150 94
f 150 149 151 152
f 94 150 152 97
f 25 29 153 131
f 131 153 154 133
f 133 154 155 135
f 135 155 156 137
f 137 156 157 139
f 139 157 158 141
f 141 158 159 143
f 143 159 160 145
f 145 160 161 147
f 147 161 162 149
f 149 162 163 151
f 29 32 164 153
f 20 110 164 32
f 153 164 165 154
f 110 112 165 164
f 154 165 166 155
f 112 114 166 165
f 155 166 167 156
f 114 116 167 166
f 156 167 168 157
f 116 118 168 167
f 157 168 169 158
f 118 120 169 168
f 158 169 170 159
f 120 122 170 169
f 159 170 171 160
f 122 124 171 170
f 160 171 172 161
f 124 126 172 171
f 161 172 173 162
f 126 128 173 172
f 162 173 174 163
f 128 130 174 173
f 40 175 176 41
f 40 42 177 175
f 175 178 179 176
f 175 177 180 178
f 178 181 182 179
f 178 180 183 181
f 181 184 185 182
f 181 183 186 184
f 184 187 188 185
f 184 186 189 187
f 187 190 191 188
f 187 189 192 190
f 190 193 194 191
f 190 192 195 193
f 193 196 197 194
f 193 195 198 196
f 196 199 200 197
f 196 198 201 199
f 199 202 203 200
f 199 201 204 202
f 202 205 206 203
f 202 204 207 205
f 41 176 208 46
f 176 179 209 208
f 179 182 210 209
f 182 185 211 210
f 185 188 212 211
f 188 191 213 212
f 191 194 214 213
f 194 197 215 214
f 197 200 216 215
f 200 203 217 216
f 203 206 218 217
f 46 208 219 51
f 51 219 220 52
f 208 209 221 219
f 219 221 222 220
f 209 210 223 221
f 221 223 224 222
f 210 211 225 223
f 223 225 226 224
f 211 212 227 225
f 225 227 228 226
f 212 213 229 227
f 227 229 230 228
f 213 214 231 229
f 229 231 232 230
f 214 215 233 231
f 231 233 234 232
f 215 216 235 233
f 233 235 236 234
f 216 217 237 235
f 235 237 238 236
f 217 218 239 237
f 237 239 240 238
f 58 57 241 242
f 42 58 242 177
f 242 241 243 244
f 177 242 244 180
f 244 243 245 246
f 180 244 246 183
f 246 245 247 248
f 183 246 248 186
f 248 247 249 250
f 186 248 250 189
f 250 249 251 252
f 189 250 252 192
f 252 251 253 254
f 192 252 254 195
f 254 253 255 256
f 195 254 256 198
f 256 255 257 258
f 198 256 258 201
f 258 257 259 260
f 201 258 260 204
f 260 259 261 262
f 204 260 262 207
f 57 61 263 241
f 241 263 264 243
f 243 264 265 245
f 245 265 266 247
f 247 266 267 249
f 249 267 268 251
f 251 268 269 253
f 253 269 270 255
f 255 270 271 257
f 257 271 272 259
f 259 272 273 261
f 61 64 274 263
f 52 220 274 64
f 263 274 275 264
f 220 222 275 274
f 264 275 276 265
f 222 224 276 275
f 265 276 277 266
f 224 226 277 276
f 266 277 278 267
f 226 228 278 277
f 267 278 279 268
f 228 230 279 278
f 268 279 280 269
f 230 232 280 279
f 269 280 281 270
f 232 234 281 280
f 270 281 282 271
f 234 236 282 281
f 271 282 283 272
f 236 238 283 282
f 272 283 284 273
f 238 240 284 283
usemtl c4
f 1 2 3 4
f 1 5 6 2
f 1 4 7 5
f 2 8 9 3
f 2 6 10 8
f 4 3 11 12
f 4 12 13 7
f 3 9 14 11
f 12 11 15 16
f 16 15 17 18
f 12 16 18 13
f 11 14 19 15
f 15 19 20 17
f 21 22 23 24
f 5 21 24 6
f 5 7 22 21
f 24 23 25 26
f 6 24 26 10
f 22 27 28 23
f 7 13 27 22
f 23 28 29 25
f 27 30 31 28
f 18 17 31 30
f 13 18 30 27
f 28 31 32 29
f 17 20 32 31
f 33 34 35 36
f 33 37 38 34
f 33 36 39 37
f 34 40 41 35
f 34 38 42 40
f 36 35 43 44
f 36 44 45 39
f 35 41 46 43
f 44 43 47 48
f 48 47 49 50
f 44 48 50 45
f 43 46 51 47
f 47 51 52 49
f 53 54 55 56
f 37 53 56 38
f 37 39 54 53
f 56 55 57 58
f 38 56 58 42
f 54 59 60 55
f 39 45 59 54
f 55 60 61 57
f 59 62 63 60
f 50 49 63 62
f 45 50 62 59
f 60 63 64 61
f 49 52 64 63
usemtl c5
f 582 470 473 583
f 582 584 474 470
f 582 583 585 584
f 583 473 499 586
f 583 586 587 585
f 586 499 509 588
f 588 509 511 589
f 586 588 589 587
f 584 95 286 474
f 584 585 96 95
f 585 587 108 96
f 589 511 314 129
f 587 589 129 108
f 262 590 526 432
f 262 261 591 590
f 261 273 592 591
f 284 453 538 593
f 273 284 593 592
f 594 595 547 546
f 590 594 546 526
f 590 591 595 594
f 595 596 564 547
f 591 592 596 595
f 596 597 573 564
f 593 538 573 597
f 592 593 597 596
f 306 598 599 307
f 306 353 600 598
f 598 601 602 599
f 598 600 603 601
f 604 607 608 605
f 604 606 609 607
f 607 610 611 608
f 607 609 612 610
f 307 599 613 310
f 599 602 614 613
f 602 605 615 614
f 605 608 616 615
f 608 611 617 616
f 310 613 618 313
f 613 614 619 618
f 614 615 620 619
f 615 616 621 620
f 616 617 622 621
f 313 618 623 343
f 343 623 624 364
f 618 619 625 623
f 623 625 626 624
f 619 620 627 625
f 625 627 628 626
f 620 621 629 627
f 627 629 630 628
f 621 622 631 629
f 629 631 632 630
f 353 376 633 600
f 600 633 634 603
f 603 634 635 606
f 606 635 636 609
f 609 636 637 612
f 364 624 638 389
f 624 626 639 638
f 626 628 640 639
f 628 630 641 640
f 630 632 642 641
f 376 399 643 633
f 633 643 644 634
f 634 644 645 635
f 635 645 646 636
f 636 646 647 637
f 389 638 648 410
f 638 639 649 648
f 639 640 650 649
f 640 641 651 650
f 641 642 652 651
f 420 444 653 654
f 399 420 654 643
f 654 653 655 656
f 643 654 656 644
f 658 657 659 660
f 645 658 660 646
f 660 659 661 662
f 646 660 662 647
f 444 447 663 653
f 653 663 664 655
f 655 664 665 657
f 657 665 666 659
f 659 666 667 661
f 447 450 668 663
f 663 668 669 664
f 664 669 670 665
f 665 670 671 666
f 666 671 672 667
f 450 431 673 668
f 410 648 673 431
f 668 673 674 669
f 648 649 674 673
f 669 674 675 670
f 649 650 675 674
f 670 675 676 671
f 650 651 676 675
f 671 676 677 672
f 651 652 677 676
usemtl c6
f 601 604 605 602
f 601 603 606 604
f 656 655 657 658
f 644 656 658 645
