# generado por tools/vox_to_obj.py desde jugador_walk_f1.vox
mtllib jugador_walk_f1.mtl
v -3.0000 13.0000 2.0000
v -2.0000 13.0000 2.0000
v -2.0000 14.0000 2.0000
v -3.0000 14.0000 2.0000
v -3.0000 13.0000 1.0000
v -2.0000 13.0000 1.0000
v -2.0000 15.0000 2.0000
v -3.0000 15.0000 2.0000
v -2.0000 16.0000 2.0000
v -3.0000 16.0000 2.0000
v -2.0000 17.0000 2.0000
v -3.0000 17.0000 2.0000
v -2.0000 18.0000 2.0000
v -3.0000 18.0000 2.0000
v -2.0000 19.0000 2.0000
v -3.0000 19.0000 2.0000
v -2.0000 20.0000 2.0000
v -3.0000 20.0000 2.0000
v -2.0000 21.0000 2.0000
v -3.0000 21.0000 2.0000
v -2.0000 22.0000 2.0000
v -3.0000 22.0000 2.0000
v -3.0000 23.0000 2.0000
v -3.0000 23.0000 1.0000
v -3.0000 22.0000 1.0000
v -2.0000 23.0000 2.0000
v -2.0000 23.0000 1.0000
v -3.0000 14.0000 1.0000
v -3.0000 14.0000 0.0000
v -3.0000 13.0000 0.0000
v -2.0000 13.0000 0.0000
v -3.0000 15.0000 1.0000
v -3.0000 15.0000 0.0000
v -3.0000 16.0000 1.0000
v -3.0000 16.0000 0.0000
v -3.0000 17.0000 1.0000
v -3.0000 17.0000 0.0000
v -3.0000 18.0000 1.0000
v -3.0000 18.0000 0.0000
v -3.0000 19.0000 1.0000
v -3.0000 19.0000 0.0000
v -3.0000 20.0000 1.0000
v -3.0000 20.0000 0.0000
v -3.0000 21.0000 1.0000
v -3.0000 21.0000 0.0000
v -3.0000 22.0000 0.0000
v -3.0000 23.0000 0.0000
v -2.0000 23.0000 0.0000
v -3.0000 14.0000 -1.0000
v -3.0000 13.0000 -1.0000
v -2.0000 13.0000 -1.0000
v -3.0000 15.0000 -1.0000
v -3.0000 16.0000 -1.0000
v -3.0000 17.0000 -1.0000
v -3.0000 18.0000 -1.0000
v -3.0000 19.0000 -1.0000
v -3.0000 20.0000 -1.0000
v -3.0000 21.0000 -1.0000
v -3.0000 22.0000 -1.0000
v -3.0000 23.0000 -1.0000
v -2.0000 23.0000 -1.0000
v -3.0000 14.0000 -2.0000
v -3.0000 13.0000 -2.0000
v -2.0000 14.0000 -2.0000
v -2.0000 13.0000 -2.0000
v -3.0000 15.0000 -2.0000
v -2.0000 15.0000 -2.0000
v -3.0000 16.0000 -2.0000
v -2.0000 16.0000 -2.0000
v -3.0000 17.0000 -2.0000
v -2.0000 17.0000 -2.0000
v -3.0000 18.0000 -2.0000
v -2.0000 18.0000 -2.0000
v -3.0000 19.0000 -2.0000
v -2.0000 19.0000 -2.0000
v -3.0000 20.0000 -2.0000
v -2.0000 20.0000 -2.0000
v -3.0000 21.0000 -2.0000
v -2.0000 21.0000 -2.0000
v -3.0000 22.0000 -2.0000
v -2.0000 22.0000 -2.0000
v -3.0000 23.0000 -2.0000
v -2.0000 23.0000 -2.0000
v -1.0000 13.0000 2.0000
v -1.0000 14.0000 2.0000
v -1.0000 13.0000 1.0000
v -1.0000 15.0000 2.0000
v -1.0000 16.0000 2.0000
v -1.0000 17.0000 2.0000
v -1.0000 18.0000 2.0000
v -1.0000 19.0000 2.0000
v -1.0000 20.0000 2.0000
v -1.0000 21.0000 2.0000
v -1.0000 22.0000 2.0000
v -1.0000 23.0000 2.0000
v -1.0000 13.0000 0.0000
v -1.0000 13.0000 -1.0000
v -1.0000 14.0000 -2.0000
v -1.0000 13.0000 -2.0000
v -1.0000 15.0000 -2.0000
v -1.0000 16.0000 -2.0000
v -1.0000 17.0000 -2.0000
v -1.0000 18.0000 -2.0000
v -1.0000 19.0000 -2.0000
v -1.0000 20.0000 -2.0000
v -1.0000 21.0000 -2.0000
v -1.0000 22.0000 -2.0000
v -1.0000 23.0000 -2.0000
v 0.0000 13.0000 2.0000
v 0.0000 14.0000 2.0000
v 0.0000 13.0000 1.0000
v 0.0000 15.0000 2.0000
v 0.0000 16.0000 2.0000
v 0.0000 17.0000 2.0000
v 0.0000 18.0000 2.0000
v 0.0000 19.0000 2.0000
v 0.0000 20.0000 2.0000
v 0.0000 21.0000 2.0000
v 0.0000 22.0000 2.0000
v 0.0000 23.0000 2.0000
v 0.0000 13.0000 0.0000
v 0.0000 13.0000 -1.0000
v 0.0000 14.0000 -2.0000
v 0.0000 13.0000 -2.0000
v 0.0000 15.0000 -2.0000
v 0.0000 16.0000 -2.0000
v 0.0000 17.0000 -2.0000
v 0.0000 18.0000 -2.0000
v 0.0000 19.0000 -2.0000
v 0.0000 20.0000 -2.0000
v 0.0000 21.0000 -2.0000
v 0.0000 22.0000 -2.0000
v 0.0000 23.0000 -2.0000
v 1.0000 13.0000 2.0000
v 1.0000 14.0000 2.0000
v 1.0000 13.0000 1.0000
v 1.0000 15.0000 2.0000
v 1.0000 16.0000 2.0000
v 1.0000 17.0000 2.0000
v 1.0000 18.0000 2.0000
v 1.0000 19.0000 2.0000
v 1.0000 20.0000 2.0000
v 1.0000 21.0000 2.0000
v 1.0000 22.0000 2.0000
v 1.0000 23.0000 2.0000
v 1.0000 13.0000 0.0000
v 1.0000 13.0000 -1.0000
v 1.0000 14.0000 -2.0000
v 1.0000 13.0000 -2.0000
v 1.0000 15.0000 -2.0000
v 1.0000 16.0000 -2.0000
v 1.0000 17.0000 -2.0000
v 1.0000 18.0000 -2.0000
v 1.0000 19.0000 -2.0000
v 1.0000 20.0000 -2.0000
v 1.0000 21.0000 -2.0000
v 1.0000 22.0000 -2.0000
v 1.0000 23.0000 -2.0000
v 2.0000 13.0000 2.0000
v 2.0000 14.0000 2.0000
v 2.0000 15.0000 2.0000
v 2.0000 16.0000 2.0000
v 2.0000 17.0000 2.0000
v 2.0000 18.0000 2.0000
v 2.0000 19.0000 2.0000
v 2.0000 20.0000 2.0000
v 2.0000 21.0000 2.0000
v 2.0000 22.0000 2.0000
v 2.0000 23.0000 2.0000
v 2.0000 13.0000 0.0000
v 2.0000 13.0000 1.0000
v 2.0000 13.0000 -1.0000
v 2.0000 14.0000 -2.0000
v 2.0000 13.0000 -2.0000
v 2.0000 15.0000 -2.0000
v 2.0000 16.0000 -2.0000
v 2.0000 17.0000 -2.0000
v 2.0000 18.0000 -2.0000
v 2.0000 19.0000 -2.0000
v 2.0000 20.0000 -2.0000
v 2.0000 21.0000 -2.0000
v 2.0000 22.0000 -2.0000
v 2.0000 23.0000 -2.0000
v 3.0000 13.0000 2.0000
v 3.0000 13.0000 1.0000
v 3.0000 14.0000 1.0000
v 3.0000 14.0000 2.0000
v 3.0000 15.0000 1.0000
v 3.0000 15.0000 2.0000
v 3.0000 16.0000 1.0000
v 3.0000 16.0000 2.0000
v 3.0000 17.0000 1.0000
v 3.0000 17.0000 2.0000
v 3.0000 18.0000 1.0000
v 3.0000 18.0000 2.0000
v 3.0000 19.0000 1.0000
v 3.0000 19.0000 2.0000
v 3.0000 20.0000 1.0000
v 3.0000 20.0000 2.0000
v 3.0000 21.0000 1.0000
v 3.0000 21.0000 2.0000
v 3.0000 22.0000 1.0000
v 3.0000 22.0000 2.0000
v 3.0000 23.0000 1.0000
v 3.0000 23.0000 2.0000
v 2.0000 23.0000 1.0000
v 3.0000 13.0000 0.0000
v 3.0000 14.0000 0.0000
v 3.0000 15.0000 0.0000
v 3.0000 16.0000 0.0000
v 3.0000 17.0000 0.0000
v 3.0000 18.0000 0.0000
v 3.0000 19.0000 0.0000
v 3.0000 20.0000 0.0000
v 3.0000 21.0000 0.0000
v 3.0000 22.0000 0.0000
v 3.0000 23.0000 0.0000
v 2.0000 23.0000 0.0000
v 3.0000 13.0000 -1.0000
v 3.0000 14.0000 -1.0000
v 3.0000 15.0000 -1.0000
v 3.0000 16.0000 -1.0000
v 3.0000 17.0000 -1.0000
v 3.0000 18.0000 -1.0000
v 3.0000 19.0000 -1.0000
v 3.0000 20.0000 -1.0000
v 3.0000 21.0000 -1.0000
v 3.0000 22.0000 -1.0000
v 3.0000 23.0000 -1.0000
v 2.0000 23.0000 -1.0000
v 3.0000 14.0000 -2.0000
v 3.0000 13.0000 -2.0000
v 3.0000 15.0000 -2.0000
v 3.0000 16.0000 -2.0000
v 3.0000 17.0000 -2.0000
v 3.0000 18.0000 -2.0000
v 3.0000 19.0000 -2.0000
v 3.0000 20.0000 -2.0000
v 3.0000 21.0000 -2.0000
v 3.0000 22.0000 -2.0000
v 3.0000 23.0000 -2.0000
v -2.0000 24.0000 2.0000
v -2.0000 24.0000 1.0000
v -1.0000 24.0000 2.0000
v -2.0000 25.0000 2.0000
v -2.0000 25.0000 1.0000
v -1.0000 25.0000 2.0000
v -2.0000 26.0000 2.0000
v -2.0000 26.0000 1.0000
v -1.0000 26.0000 2.0000
v -2.0000 27.0000 2.0000
v -2.0000 27.0000 1.0000
v -1.0000 27.0000 2.0000
v -2.0000 28.0000 2.0000
v -2.0000 28.0000 1.0000
v -1.0000 28.0000 2.0000
v -2.0000 24.0000 0.0000
v -2.0000 25.0000 0.0000
v -2.0000 26.0000 0.0000
v -2.0000 27.0000 0.0000
v -2.0000 28.0000 0.0000
v -2.0000 24.0000 -1.0000
v -2.0000 25.0000 -1.0000
v -2.0000 26.0000 -1.0000
v -2.0000 27.0000 -1.0000
v -2.0000 28.0000 -1.0000
v -2.0000 24.0000 -2.0000
v -1.0000 24.0000 -2.0000
v -2.0000 25.0000 -2.0000
v -1.0000 25.0000 -2.0000
v -2.0000 26.0000 -2.0000
v -1.0000 26.0000 -2.0000
v -2.0000 27.0000 -2.0000
v -1.0000 27.0000 -2.0000
v -2.0000 28.0000 -2.0000
v -1.0000 28.0000 -2.0000
v 0.0000 24.0000 2.0000
v 0.0000 25.0000 2.0000
v 0.0000 26.0000 2.0000
v 0.0000 27.0000 2.0000
v 0.0000 28.0000 2.0000
v 0.0000 24.0000 -2.0000
v 0.0000 25.0000 -2.0000
v 0.0000 26.0000 -2.0000
v 0.0000 27.0000 -2.0000
v 0.0000 28.0000 -2.0000
v 1.0000 24.0000 2.0000
v 1.0000 25.0000 2.0000
v 1.0000 26.0000 2.0000
v 1.0000 27.0000 2.0000
v 1.0000 28.0000 2.0000
v 1.0000 24.0000 -2.0000
v 1.0000 25.0000 -2.0000
v 1.0000 26.0000 -2.0000
v 1.0000 27.0000 -2.0000
v 1.0000 28.0000 -2.0000
v 2.0000 24.0000 1.0000
v 2.0000 24.0000 2.0000
v 2.0000 25.0000 1.0000
v 2.0000 25.0000 2.0000
v 2.0000 26.0000 1.0000
v 2.0000 26.0000 2.0000
v 2.0000 27.0000 1.0000
v 2.0000 27.0000 2.0000
v 2.0000 28.0000 1.0000
v 2.0000 28.0000 2.0000
v 2.0000 24.0000 0.0000
v 2.0000 25.0000 0.0000
v 2.0000 26.0000 0.0000
v 2.0000 27.0000 0.0000
v 2.0000 28.0000 0.0000
v 2.0000 24.0000 -1.0000
v 2.0000 25.0000 -1.0000
v 2.0000 26.0000 -1.0000
v 2.0000 27.0000 -1.0000
v 2.0000 28.0000 -1.0000
v 2.0000 24.0000 -2.0000
v 2.0000 25.0000 -2.0000
v 2.0000 26.0000 -2.0000
v 2.0000 27.0000 -2.0000
v 2.0000 28.0000 -2.0000
v -4.0000 28.0000 4.0000
v -4.0000 29.0000 4.0000
v -4.0000 29.0000 3.0000
v -4.0000 28.0000 3.0000
v -3.0000 28.0000 4.0000
v -3.0000 29.0000 4.0000
v -3.0000 29.0000 3.0000
v -3.0000 28.0000 3.0000
v -4.0000 29.0000 2.0000
v -4.0000 28.0000 2.0000
v -3.0000 29.0000 2.0000
v -3.0000 28.0000 2.0000
v -4.0000 29.0000 1.0000
v -4.0000 28.0000 1.0000
v -3.0000 29.0000 1.0000
v -3.0000 28.0000 1.0000
v -4.0000 29.0000 0.0000
v -4.0000 28.0000 0.0000
v -3.0000 29.0000 0.0000
v -3.0000 28.0000 0.0000
v -4.0000 29.0000 -1.0000
v -4.0000 28.0000 -1.0000
v -3.0000 29.0000 -1.0000
v -3.0000 28.0000 -1.0000
v -4.0000 29.0000 -2.0000
v -4.0000 28.0000 -2.0000
v -3.0000 29.0000 -2.0000
v -3.0000 28.0000 -2.0000
v -4.0000 29.0000 -3.0000
v -4.0000 28.0000 -3.0000
v -3.0000 29.0000 -3.0000
v -3.0000 28.0000 -3.0000
v -4.0000 29.0000 -4.0000
v -4.0000 28.0000 -4.0000
v -3.0000 29.0000 -4.0000
v -3.0000 28.0000 -4.0000
v -2.0000 28.0000 4.0000
v -2.0000 29.0000 4.0000
v -2.0000 29.0000 3.0000
v -2.0000 28.0000 3.0000
v -2.0000 29.0000 2.0000
v -2.0000 29.0000 1.0000
v -2.0000 29.0000 0.0000
v -2.0000 29.0000 -1.0000
v -2.0000 29.0000 -2.0000
v -2.0000 29.0000 -3.0000
v -2.0000 28.0000 -3.0000
v -2.0000 29.0000 -4.0000
v -2.0000 28.0000 -4.0000
v -1.0000 28.0000 4.0000
v -1.0000 29.0000 4.0000
v -1.0000 29.0000 3.0000
v -1.0000 28.0000 3.0000
v -1.0000 29.0000 2.0000
v -1.0000 29.0000 -2.0000
v -1.0000 29.0000 -3.0000
v -1.0000 28.0000 -3.0000
v -1.0000 29.0000 -4.0000
v -1.0000 28.0000 -4.0000
v 0.0000 28.0000 4.0000
v 0.0000 29.0000 4.0000
v 0.0000 29.0000 3.0000
v 0.0000 28.0000 3.0000
v 0.0000 29.0000 2.0000
v 0.0000 29.0000 -2.0000
v 0.0000 29.0000 -3.0000
v 0.0000 28.0000 -3.0000
v 0.0000 29.0000 -4.0000
v 0.0000 28.0000 -4.0000
v 1.0000 28.0000 4.0000
v 1.0000 29.0000 4.0000
v 1.0000 29.0000 3.0000
v 1.0000 28.0000 3.0000
v 1.0000 29.0000 2.0000
v 1.0000 29.0000 -2.0000
v 1.0000 29.0000 -3.0000
v 1.0000 28.0000 -3.0000
v 1.0000 29.0000 -4.0000
v 1.0000 28.0000 -4.0000
v 2.0000 28.0000 4.0000
v 2.0000 29.0000 4.0000
v 2.0000 29.0000 3.0000
v 2.0000 28.0000 3.0000
v 2.0000 29.0000 2.0000
v 2.0000 29.0000 -2.0000
v 2.0000 29.0000 -3.0000
v 2.0000 28.0000 -3.0000
v 2.0000 29.0000 -4.0000
v 2.0000 28.0000 -4.0000
v 3.0000 28.0000 4.0000
v 3.0000 29.0000 4.0000
v 3.0000 29.0000 3.0000
v 3.0000 28.0000 3.0000
v 3.0000 29.0000 2.0000
v 3.0000 28.0000 2.0000
v 3.0000 29.0000 1.0000
v 2.0000 29.0000 1.0000
v 3.0000 28.0000 1.0000
v 3.0000 29.0000 0.0000
v 2.0000 29.0000 0.0000
v 3.0000 28.0000 0.0000
v 3.0000 29.0000 -1.0000
v 2.0000 29.0000 -1.0000
v 3.0000 28.0000 -1.0000
v 3.0000 29.0000 -2.0000
v 3.0000 28.0000 -2.0000
v 3.0000 29.0000 -3.0000
v 3.0000 28.0000 -3.0000
v 3.0000 29.0000 -4.0000
v 3.0000 28.0000 -4.0000
v 4.0000 28.0000 4.0000
v 4.0000 28.0000 3.0000
v 4.0000 29.0000 3.0000
v 4.0000 29.0000 4.0000
v 4.0000 28.0000 2.0000
v 4.0000 29.0000 2.0000
v 4.0000 28.0000 1.0000
v 4.0000 29.0000 1.0000
v 4.0000 28.0000 0.0000
v 4.0000 29.0000 0.0000
v 4.0000 28.0000 -1.0000
v 4.0000 29.0000 -1.0000
v 4.0000 28.0000 -2.0000
v 4.0000 29.0000 -2.0000
v 4.0000 28.0000 -3.0000
v 4.0000 29.0000 -3.0000
v 4.0000 28.0000 -4.0000
v 4.0000 29.0000 -4.0000
v -2.0000 30.0000 2.0000
v -2.0000 30.0000 1.0000
v -1.0000 30.0000 2.0000
v -2.0000 31.0000 2.0000
v -2.0000 31.0000 1.0000
v -1.0000 31.0000 2.0000
v -2.0000 32.0000 2.0000
v -2.0000 32.0000 1.0000
v -1.0000 32.0000 2.0000
v -1.0000 32.0000 1.0000
v -2.0000 30.0000 0.0000
v -2.0000 31.0000 0.0000
v -2.0000 32.0000 0.0000
v -1.0000 32.0000 0.0000
v -2.0000 30.0000 -1.0000
v -2.0000 31.0000 -1.0000
v -2.0000 32.0000 -1.0000
v -1.0000 32.0000 -1.0000
v -2.0000 30.0000 -2.0000
v -1.0000 30.0000 -2.0000
v -2.0000 31.0000 -2.0000
v -1.0000 31.0000 -2.0000
v -2.0000 32.0000 -2.0000
v -1.0000 32.0000 -2.0000
v 0.0000 30.0000 2.0000
v 0.0000 31.0000 2.0000
v 0.0000 32.0000 2.0000
v 0.0000 32.0000 1.0000
v 0.0000 32.0000 0.0000
v 0.0000 32.0000 -1.0000
v 0.0000 30.0000 -2.0000
v 0.0000 31.0000 -2.0000
v 0.0000 32.0000 -2.0000
v 1.0000 30.0000 2.0000
v 1.0000 31.0000 2.0000
v 1.0000 32.0000 2.0000
v 1.0000 32.0000 1.0000
v 1.0000 32.0000 0.0000
v 1.0000 32.0000 -1.0000
v 1.0000 30.0000 -2.0000
v 1.0000 31.0000 -2.0000
v 1.0000 32.0000 -2.0000
v 2.0000 30.0000 1.0000
v 2.0000 30.0000 2.0000
v 2.0000 31.0000 1.0000
v 2.0000 31.0000 2.0000
v 2.0000 32.0000 1.0000
v 2.0000 32.0000 2.0000
v 2.0000 30.0000 0.0000
v 2.0000 31.0000 0.0000
v 2.0000 32.0000 0.0000
v 2.0000 30.0000 -1.0000
v 2.0000 31.0000 -1.0000
v 2.0000 32.0000 -1.0000
v 2.0000 30.0000 -2.0000
v 2.0000 31.0000 -2.0000
v 2.0000 32.0000 -2.0000
v 1.0000 0.0000 4.0000
v 1.0000 1.0000 4.0000
v 1.0000 1.0000 3.0000
v 1.0000 0.0000 3.0000
v 2.0000 0.0000 4.0000
v 2.0000 1.0000 4.0000
v 2.0000 0.0000 3.0000
v 1.0000 2.0000 4.0000
v 1.0000 2.0000 3.0000
v 2.0000 2.0000 4.0000
v 1.0000 1.0000 2.0000
v 1.0000 0.0000 2.0000
v 2.0000 0.0000 2.0000
v 1.0000 2.0000 2.0000
v 1.0000 1.0000 1.0000
v 1.0000 0.0000 1.0000
v 2.0000 1.0000 1.0000
v 2.0000 0.0000 1.0000
v 1.0000 2.0000 1.0000
v 2.0000 2.0000 1.0000
v 3.0000 0.0000 4.0000
v 3.0000 0.0000 3.0000
v 3.0000 1.0000 3.0000
v 3.0000 1.0000 4.0000
v 3.0000 2.0000 3.0000
v 3.0000 2.0000 4.0000
v 3.0000 0.0000 2.0000
v 3.0000 1.0000 2.0000
v 3.0000 2.0000 2.0000
v 3.0000 0.0000 1.0000
v 3.0000 1.0000 1.0000
v 3.0000 2.0000 1.0000
v 1.0000 3.0000 4.0000
v 1.0000 3.0000 3.0000
v 2.0000 3.0000 4.0000
v 1.0000 4.0000 4.0000
v 1.0000 4.0000 3.0000
v 2.0000 4.0000 4.0000
v 1.0000 5.0000 4.0000
v 1.0000 5.0000 3.0000
v 2.0000 5.0000 4.0000
v 1.0000 6.0000 4.0000
v 1.0000 6.0000 3.0000
v 2.0000 6.0000 4.0000
v 1.0000 7.0000 4.0000
v 1.0000 7.0000 3.0000
v 2.0000 7.0000 4.0000
v 1.0000 8.0000 4.0000
v 1.0000 8.0000 3.0000
v 2.0000 8.0000 4.0000
v 1.0000 9.0000 4.0000
v 1.0000 9.0000 3.0000
v 2.0000 9.0000 4.0000
v 1.0000 10.0000 4.0000
v 1.0000 10.0000 3.0000
v 2.0000 10.0000 4.0000
v 1.0000 11.0000 4.0000
v 1.0000 11.0000 3.0000
v 2.0000 11.0000 4.0000
v 1.0000 12.0000 4.0000
v 1.0000 12.0000 3.0000
v 2.0000 12.0000 4.0000
v 1.0000 13.0000 4.0000
v 1.0000 13.0000 3.0000
v 2.0000 13.0000 4.0000
v 2.0000 13.0000 3.0000
v 1.0000 3.0000 2.0000
v 1.0000 4.0000 2.0000
v 1.0000 5.0000 2.0000
v 1.0000 6.0000 2.0000
v 1.0000 7.0000 2.0000
v 1.0000 8.0000 2.0000
v 1.0000 9.0000 2.0000
v 1.0000 10.0000 2.0000
v 1.0000 11.0000 2.0000
v 1.0000 12.0000 2.0000
v 1.0000 3.0000 1.0000
v 2.0000 3.0000 1.0000
v 1.0000 4.0000 1.0000
v 2.0000 4.0000 1.0000
v 1.0000 5.0000 1.0000
v 2.0000 5.0000 1.0000
v 1.0000 6.0000 1.0000
v 2.0000 6.0000 1.0000
v 1.0000 7.0000 1.0000
v 2.0000 7.0000 1.0000
v 1.0000 8.0000 1.0000
v 2.0000 8.0000 1.0000
v 1.0000 9.0000 1.0000
v 2.0000 9.0000 1.0000
v 1.0000 10.0000 1.0000
v 2.0000 10.0000 1.0000
v 1.0000 11.0000 1.0000
v 2.0000 11.0000 1.0000
v 1.0000 12.0000 1.0000
v 2.0000 12.0000 1.0000
v 3.0000 3.0000 3.0000
v 3.0000 3.0000 4.0000
v 3.0000 4.0000 3.0000
v 3.0000 4.0000 4.0000
v 3.0000 5.0000 3.0000
v 3.0000 5.0000 4.0000
v 3.0000 6.0000 3.0000
v 3.0000 6.0000 4.0000
v 3.0000 7.0000 3.0000
v 3.0000 7.0000 4.0000
v 3.0000 8.0000 3.0000
v 3.0000 8.0000 4.0000
v 3.0000 9.0000 3.0000
v 3.0000 9.0000 4.0000
v 3.0000 10.0000 3.0000
v 3.0000 10.0000 4.0000
v 3.0000 11.0000 3.0000
v 3.0000 11.0000 4.0000
v 3.0000 12.0000 3.0000
v 3.0000 12.0000 4.0000
v 3.0000 13.0000 3.0000
v 3.0000 13.0000 4.0000
v 3.0000 3.0000 2.0000
v 3.0000 4.0000 2.0000
v 3.0000 5.0000 2.0000
v 3.0000 6.0000 2.0000
v 3.0000 7.0000 2.0000
v 3.0000 8.0000 2.0000
v 3.0000 9.0000 2.0000
v 3.0000 10.0000 2.0000
v 3.0000 11.0000 2.0000
v 3.0000 12.0000 2.0000
v 3.0000 3.0000 1.0000
v 3.0000 4.0000 1.0000
v 3.0000 5.0000 1.0000
v 3.0000 6.0000 1.0000
v 3.0000 7.0000 1.0000
v 3.0000 8.0000 1.0000
v 3.0000 9.0000 1.0000
v 3.0000 10.0000 1.0000
v 3.0000 11.0000 1.0000
v 3.0000 12.0000 1.0000
v -3.0000 0.0000 -1.0000
v -3.0000 1.0000 -1.0000
v -3.0000 1.0000 -2.0000
v -3.0000 0.0000 -2.0000
v -2.0000 0.0000 -1.0000
v -2.0000 1.0000 -1.0000
v -2.0000 0.0000 -2.0000
v -3.0000 2.0000 -1.0000
v -3.0000 2.0000 -2.0000
v -2.0000 2.0000 -1.0000
v -3.0000 1.0000 -3.0000
v -3.0000 0.0000 -3.0000
v -2.0000 0.0000 -3.0000
v -3.0000 2.0000 -3.0000
v -3.0000 1.0000 -4.0000
v -3.0000 0.0000 -4.0000
v -2.0000 1.0000 -4.0000
v -2.0000 0.0000 -4.0000
v -3.0000 2.0000 -4.0000
v -2.0000 2.0000 -4.0000
v -1.0000 0.0000 -1.0000
v -1.0000 0.0000 -2.0000
v -1.0000 1.0000 -2.0000
v -1.0000 1.0000 -1.0000
v -1.0000 2.0000 -2.0000
v -1.0000 2.0000 -1.0000
v -1.0000 0.0000 -3.0000
v -1.0000 1.0000 -3.0000
v -1.0000 2.0000 -3.0000
v -1.0000 0.0000 -4.0000
v -1.0000 1.0000 -4.0000
v -1.0000 2.0000 -4.0000
v -3.0000 3.0000 -1.0000
v -3.0000 3.0000 -2.0000
v -2.0000 3.0000 -1.0000
v -3.0000 4.0000 -1.0000
v -3.0000 4.0000 -2.0000
v -2.0000 4.0000 -1.0000
v -3.0000 5.0000 -1.0000
v -3.0000 5.0000 -2.0000
v -2.0000 5.0000 -1.0000
v -3.0000 6.0000 -1.0000
v -3.0000 6.0000 -2.0000
v -2.0000 6.0000 -1.0000
v -3.0000 7.0000 -1.0000
v -3.0000 7.0000 -2.0000
v -2.0000 7.0000 -1.0000
v -3.0000 8.0000 -1.0000
v -3.0000 8.0000 -2.0000
v -2.0000 8.0000 -1.0000
v -3.0000 9.0000 -1.0000
v -3.0000 9.0000 -2.0000
v -2.0000 9.0000 -1.0000
v -3.0000 10.0000 -1.0000
v -3.0000 10.0000 -2.0000
v -2.0000 10.0000 -1.0000
v -3.0000 11.0000 -1.0000
v -3.0000 11.0000 -2.0000
v -2.0000 11.0000 -1.0000
v -3.0000 12.0000 -1.0000
v -3.0000 12.0000 -2.0000
v -2.0000 12.0000 -1.0000
v -3.0000 3.0000 -3.0000
v -3.0000 4.0000 -3.0000
v -3.0000 5.0000 -3.0000
v -3.0000 6.0000 -3.0000
v -3.0000 7.0000 -3.0000
v -3.0000 8.0000 -3.0000
v -3.0000 9.0000 -3.0000
v -3.0000 10.0000 -3.0000
v -3.0000 11.0000 -3.0000
v -3.0000 12.0000 -3.0000
v -3.0000 13.0000 -3.0000
v -2.0000 13.0000 -3.0000
v -3.0000 3.0000 -4.0000
v -2.0000 3.0000 -4.0000
v -3.0000 4.0000 -4.0000
v -2.0000 4.0000 -4.0000
v -3.0000 5.0000 -4.0000
v -2.0000 5.0000 -4.0000
v -3.0000 6.0000 -4.0000
v -2.0000 6.0000 -4.0000
v -3.0000 7.0000 -4.0000
v -2.0000 7.0000 -4.0000
v -3.0000 8.0000 -4.0000
v -2.0000 8.0000 -4.0000
v -3.0000 9.0000 -4.0000
v -2.0000 9.0000 -4.0000
v -3.0000 10.0000 -4.0000
v -2.0000 10.0000 -4.0000
v -3.0000 11.0000 -4.0000
v -2.0000 11.0000 -4.0000
v -3.0000 12.0000 -4.0000
v -2.0000 12.0000 -4.0000
v -3.0000 13.0000 -4.0000
v -2.0000 13.0000 -4.0000
v -1.0000 3.0000 -2.0000
v -1.0000 3.0000 -1.0000
v -1.0000 4.0000 -2.0000
v -1.0000 4.0000 -1.0000
v -1.0000 5.0000 -2.0000
v -1.0000 5.0000 -1.0000
v -1.0000 6.0000 -2.0000
v -1.0000 6.0000 -1.0000
v -1.0000 7.0000 -2.0000
v -1.0000 7.0000 -1.0000
v -1.0000 8.0000 -2.0000
v -1.0000 8.0000 -1.0000
v -1.0000 9.0000 -2.0000
v -1.0000 9.0000 -1.0000
v -1.0000 10.0000 -2.0000
v -1.0000 10.0000 -1.0000
v -1.0000 11.0000 -2.0000
v -1.0000 11.0000 -1.0000
v -1.0000 12.0000 -2.0000
v -1.0000 12.0000 -1.0000
v -1.0000 3.0000 -3.0000
v -1.0000 4.0000 -3.0000
v -1.0000 5.0000 -3.0000
v -1.0000 6.0000 -3.0000
v -1.0000 7.0000 -3.0000
v -1.0000 8.0000 -3.0000
v -1.0000 9.0000 -3.0000
v -1.0000 10.0000 -3.0000
v -1.0000 11.0000 -3.0000
v -1.0000 12.0000 -3.0000
v -1.0000 13.0000 -3.0000
v -1.0000 3.0000 -4.0000
v -1.0000 4.0000 -4.0000
v -1.0000 5.0000 -4.0000
v -1.0000 6.0000 -4.0000
v -1.0000 7.0000 -4.0000
v -1.0000 8.0000 -4.0000
v -1.0000 9.0000 -4.0000
v -1.0000 10.0000 -4.0000
v -1.0000 11.0000 -4.0000
v -1.0000 12.0000 -4.0000
v -1.0000 13.0000 -4.0000
v 4.0000 14.0000 -1.0000
v 4.0000 15.0000 -1.0000
v 4.0000 16.0000 -1.0000
v 4.0000 17.0000 -1.0000
v 4.0000 18.0000 -1.0000
v 4.0000 19.0000 -1.0000
v 4.0000 20.0000 -1.0000
v 4.0000 21.0000 -1.0000
v 4.0000 22.0000 -1.0000
v 4.0000 22.0000 -2.0000
v 3.0000 15.0000 -3.0000
v 3.0000 14.0000 -3.0000
v 3.0000 16.0000 -3.0000
v 3.0000 17.0000 -3.0000
v 3.0000 18.0000 -3.0000
v 3.0000 19.0000 -3.0000
v 3.0000 20.0000 -3.0000
v 3.0000 21.0000 -3.0000
v 3.0000 22.0000 -3.0000
v 4.0000 22.0000 -3.0000
v 3.0000 15.0000 -4.0000
v 3.0000 14.0000 -4.0000
v 4.0000 15.0000 -4.0000
v 4.0000 14.0000 -4.0000
v 3.0000 16.0000 -4.0000
v 4.0000 16.0000 -4.0000
v 3.0000 17.0000 -4.0000
v 4.0000 17.0000 -4.0000
v 3.0000 18.0000 -4.0000
v 4.0000 18.0000 -4.0000
v 3.0000 19.0000 -4.0000
v 4.0000 19.0000 -4.0000
v 3.0000 20.0000 -4.0000
v 4.0000 20.0000 -4.0000
v 3.0000 21.0000 -4.0000
v 4.0000 21.0000 -4.0000
v 3.0000 22.0000 -4.0000
v 4.0000 22.0000 -4.0000
v 5.0000 14.0000 -1.0000
v 5.0000 14.0000 -2.0000
v 5.0000 15.0000 -2.0000
v 5.0000 15.0000 -1.0000
v 5.0000 16.0000 -2.0000
v 5.0000 16.0000 -1.0000
v 5.0000 17.0000 -2.0000
v 5.0000 17.0000 -1.0000
v 5.0000 18.0000 -2.0000
v 5.0000 18.0000 -1.0000
v 5.0000 19.0000 -2.0000
v 5.0000 19.0000 -1.0000
v 5.0000 20.0000 -2.0000
v 5.0000 20.0000 -1.0000
v 5.0000 21.0000 -2.0000
v 5.0000 21.0000 -1.0000
v 5.0000 22.0000 -2.0000
v 5.0000 22.0000 -1.0000
v 5.0000 14.0000 -3.0000
v 5.0000 15.0000 -3.0000
v 5.0000 16.0000 -3.0000
v 5.0000 17.0000 -3.0000
v 5.0000 18.0000 -3.0000
v 5.0000 19.0000 -3.0000
v 5.0000 20.0000 -3.0000
v 5.0000 21.0000 -3.0000
v 5.0000 22.0000 -3.0000
v 5.0000 14.0000 -4.0000
v 5.0000 15.0000 -4.0000
v 5.0000 16.0000 -4.0000
v 5.0000 17.0000 -4.0000
v 5.0000 18.0000 -4.0000
v 5.0000 19.0000 -4.0000
v 5.0000 20.0000 -4.0000
v 5.0000 21.0000 -4.0000
v 5.0000 22.0000 -4.0000
v 4.0000 13.0000 -1.0000
v 4.0000 13.0000 -2.0000
v 3.0000 13.0000 -3.0000
v 4.0000 13.0000 -3.0000
v 3.0000 13.0000 -4.0000
v 4.0000 13.0000 -4.0000
v 5.0000 13.0000 -1.0000
v 5.0000 13.0000 -2.0000
v 5.0000 13.0000 -3.0000
v 5.0000 13.0000 -4.0000
v -5.0000 14.0000 4.0000
v -5.0000 15.0000 4.0000
v -5.0000 15.0000 3.0000
v -5.0000 14.0000 3.0000
v -4.0000 14.0000 4.0000
v -4.0000 15.0000 4.0000
v -5.0000 16.0000 4.0000
v -5.0000 16.0000 3.0000
v -4.0000 16.0000 4.0000
v -5.0000 17.0000 4.0000
v -5.0000 17.0000 3.0000
v -4.0000 17.0000 4.0000
v -5.0000 18.0000 4.0000
v -5.0000 18.0000 3.0000
v -4.0000 18.0000 4.0000
v -5.0000 19.0000 4.0000
v -5.0000 19.0000 3.0000
v -4.0000 19.0000 4.0000
v -5.0000 20.0000 4.0000
v -5.0000 20.0000 3.0000
v -4.0000 20.0000 4.0000
v -5.0000 21.0000 4.0000
v -5.0000 21.0000 3.0000
v -4.0000 21.0000 4.0000
v -5.0000 22.0000 4.0000
v -5.0000 22.0000 3.0000
v -4.0000 22.0000 4.0000
v -4.0000 22.0000 3.0000
v -5.0000 15.0000 2.0000
v -5.0000 14.0000 2.0000
v -5.0000 16.0000 2.0000
v -5.0000 17.0000 2.0000
v -5.0000 18.0000 2.0000
v -5.0000 19.0000 2.0000
v -5.0000 20.0000 2.0000
v -5.0000 21.0000 2.0000
v -5.0000 22.0000 2.0000
v -4.0000 22.0000 2.0000
v -5.0000 15.0000 1.0000
v -5.0000 14.0000 1.0000
v -4.0000 15.0000 1.0000
v -4.0000 14.0000 1.0000
v -5.0000 16.0000 1.0000
v -4.0000 16.0000 1.0000
v -5.0000 17.0000 1.0000
v -4.0000 17.0000 1.0000
v -5.0000 18.0000 1.0000
v -4.0000 18.0000 1.0000
v -5.0000 19.0000 1.0000
v -4.0000 19.0000 1.0000
v -5.0000 20.0000 1.0000
v -4.0000 20.0000 1.0000
v -5.0000 21.0000 1.0000
v -4.0000 21.0000 1.0000
v -5.0000 22.0000 1.0000
v -4.0000 22.0000 1.0000
v -3.0000 14.0000 4.0000
v -3.0000 14.0000 3.0000
v -3.0000 15.0000 3.0000
v -3.0000 15.0000 4.0000
v -3.0000 16.0000 3.0000
v -3.0000 16.0000 4.0000
v -3.0000 17.0000 3.0000
v -3.0000 17.0000 4.0000
v -3.0000 18.0000 3.0000
v -3.0000 18.0000 4.0000
v -3.0000 19.0000 3.0000
v -3.0000 19.0000 4.0000
v -3.0000 20.0000 3.0000
v -3.0000 20.0000 4.0000
v -3.0000 21.0000 3.0000
v -3.0000 21.0000 4.0000
v -3.0000 22.0000 3.0000
v -3.0000 22.0000 4.0000
v -5.0000 13.0000 4.0000
v -5.0000 13.0000 3.0000
v -4.0000 13.0000 4.0000
v -4.0000 13.0000 3.0000
v -5.0000 13.0000 2.0000
v -4.0000 13.0000 2.0000
v -5.0000 13.0000 1.0000
v -4.0000 13.0000 1.0000
v -3.0000 13.0000 4.0000
v -3.0000 13.0000 3.0000
usemtl c1
f 322 323 324 325
f 322 326 327 323
f 323 327 328 324
f 322 325 329 326
f 325 324 330 331
f 324 328 332 330
f 325 331 333 329
f 331 330 334 335
f 330 332 336 334
f 331 335 337 333
f 335 334 338 339
f 334 336 340 338
f 335 339 341 337
f 339 338 342 343
f 338 340 344 342
f 339 343 345 341
f 343 342 346 347
f 342 344 348 346
f 343 347 349 345
f 347 346 350 351
f 346 348 352 350
f 347 351 353 349
f 351 350 354 355
f 355 354 356 357
f 350 352 356 354
f 351 355 357 353
f 326 358 359 327
f 327 359 360 328
f 326 329 361 358
f 328 360 362 332
f 329 333 254 361
f 332 362 363 336
f 333 337 255 254
f 336 363 364 340
f 337 341 261 255
f 340 364 365 344
f 341 345 266 261
f 344 365 366 348
f 345 349 275 266
f 348 366 367 352
f 349 353 368 275
f 357 356 369 370
f 352 367 369 356
f 353 357 370 368
f 358 371 372 359
f 359 372 373 360
f 358 361 374 371
f 360 373 375 362
f 361 254 256 374
f 366 376 377 367
f 275 368 378 276
f 370 369 379 380
f 367 377 379 369
f 368 370 380 378
f 371 381 382 372
f 372 382 383 373
f 371 374 384 381
f 373 383 385 375
f 374 256 281 384
f 376 386 387 377
f 276 378 388 286
f 380 379 389 390
f 377 387 389 379
f 378 380 390 388
f 381 391 392 382
f 382 392 393 383
f 381 384 394 391
f 383 393 395 385
f 384 281 291 394
f 386 396 397 387
f 286 388 398 296
f 390 389 399 400
f 387 397 399 389
f 388 390 400 398
f 391 401 402 392
f 392 402 403 393
f 391 394 404 401
f 393 403 405 395
f 394 291 306 404
f 396 406 407 397
f 296 398 408 321
f 400 399 409 410
f 397 407 409 399
f 398 400 410 408
f 401 411 412 402
f 402 412 413 403
f 401 404 414 411
f 403 413 415 405
f 404 306 416 414
f 405 415 417 418
f 306 305 419 416
f 418 417 420 421
f 305 311 422 419
f 421 420 423 424
f 311 316 425 422
f 424 423 426 406
f 316 321 427 425
f 406 426 428 407
f 321 408 429 427
f 410 409 430 431
f 407 428 430 409
f 408 410 431 429
f 432 433 434 435
f 411 432 435 412
f 412 435 434 413
f 411 414 433 432
f 433 436 437 434
f 413 434 437 415
f 414 416 436 433
f 436 438 439 437
f 415 437 439 417
f 416 419 438 436
f 438 440 441 439
f 417 439 441 420
f 419 422 440 438
f 440 442 443 441
f 420 441 443 423
f 422 425 442 440
f 442 444 445 443
f 423 443 445 426
f 425 427 444 442
f 444 446 447 445
f 426 445 447 428
f 427 429 446 444
f 446 448 449 447
f 431 430 449 448
f 428 447 449 430
f 429 431 448 446
f 362 450 451 363
f 362 375 452 450
f 450 453 454 451
f 450 452 455 453
f 453 456 457 454
f 453 455 458 456
f 456 458 459 457
f 363 451 460 364
f 451 454 461 460
f 454 457 462 461
f 457 459 463 462
f 364 460 464 365
f 460 461 465 464
f 461 462 466 465
f 462 463 467 466
f 365 464 468 366
f 366 468 469 376
f 464 465 470 468
f 468 470 471 469
f 465 466 472 470
f 470 472 473 471
f 466 467 473 472
f 375 385 474 452
f 452 474 475 455
f 455 475 476 458
f 458 476 477 459
f 459 477 478 463
f 463 478 479 467
f 376 469 480 386
f 469 471 481 480
f 471 473 482 481
f 467 479 482 473
f 385 395 483 474
f 474 483 484 475
f 475 484 485 476
f 476 485 486 477
f 477 486 487 478
f 478 487 488 479
f 386 480 489 396
f 480 481 490 489
f 481 482 491 490
f 479 488 491 482
f 405 418 492 493
f 395 405 493 483
f 493 492 494 495
f 483 493 495 484
f 495 494 496 497
f 484 495 497 485
f 485 497 496 486
f 418 421 498 492
f 492 498 499 494
f 494 499 500 496
f 486 496 500 487
f 421 424 501 498
f 498 501 502 499
f 499 502 503 500
f 487 500 503 488
f 424 406 504 501
f 396 489 504 406
f 501 504 505 502
f 489 490 505 504
f 502 505 506 503
f 490 491 506 505
f 488 503 506 491
usemtl c2
f 1 2 3 4
f 1 5 6 2
f 4 3 7 8
f 8 7 9 10
f 10 9 11 12
f 12 11 13 14
f 14 13 15 16
f 16 15 17 18
f 18 17 19 20
f 20 19 21 22
f 22 23 24 25
f 22 21 26 23
f 23 26 27 24
f 5 28 29 30
f 5 30 31 6
f 28 32 33 29
f 32 34 35 33
f 34 36 37 35
f 36 38 39 37
f 38 40 41 39
f 40 42 43 41
f 42 44 45 43
f 44 25 46 45
f 25 24 47 46
f 24 27 48 47
f 30 29 49 50
f 30 50 51 31
f 29 33 52 49
f 33 35 53 52
f 35 37 54 53
f 37 39 55 54
f 39 41 56 55
f 41 43 57 56
f 43 45 58 57
f 45 46 59 58
f 46 47 60 59
f 47 48 61 60
f 50 49 62 63
f 63 62 64 65
f 49 52 66 62
f 62 66 67 64
f 52 53 68 66
f 66 68 69 67
f 53 54 70 68
f 68 70 71 69
f 54 55 72 70
f 70 72 73 71
f 55 56 74 72
f 72 74 75 73
f 56 57 76 74
f 74 76 77 75
f 57 58 78 76
f 76 78 79 77
f 58 59 80 78
f 78 80 81 79
f 59 60 82 80
f 80 82 83 81
f 60 61 83 82
f 2 84 85 3
f 2 6 86 84
f 3 85 87 7
f 7 87 88 9
f 9 88 89 11
f 11 89 90 13
f 13 90 91 15
f 15 91 92 17
f 17 92 93 19
f 19 93 94 21
f 21 94 95 26
f 6 31 96 86
f 31 51 97 96
f 65 64 98 99
f 64 67 100 98
f 67 69 101 100
f 69 71 102 101
f 71 73 103 102
f 73 75 104 103
f 75 77 105 104
f 77 79 106 105
f 79 81 107 106
f 81 83 108 107
f 84 109 110 85
f 84 86 111 109
f 85 110 112 87
f 87 112 113 88
f 88 113 114 89
f 89 114 115 90
f 90 115 116 91
f 91 116 117 92
f 92 117 118 93
f 93 118 119 94
f 94 119 120 95
f 86 96 121 111
f 96 97 122 121
f 99 98 123 124
f 97 99 124 122
f 98 100 125 123
f 100 101 126 125
f 101 102 127 126
f 102 103 128 127
f 103 104 129 128
f 104 105 130 129
f 105 106 131 130
f 106 107 132 131
f 107 108 133 132
f 109 134 135 110
f 109 111 136 134
f 110 135 137 112
f 112 137 138 113
f 113 138 139 114
f 114 139 140 115
f 115 140 141 116
f 116 141 142 117
f 117 142 143 118
f 118 143 144 119
f 119 144 145 120
f 111 121 146 136
f 121 122 147 146
f 124 123 148 149
f 122 124 149 147
f 123 125 150 148
f 125 126 151 150
f 126 127 152 151
f 127 128 153 152
f 128 129 154 153
f 129 130 155 154
f 130 131 156 155
f 131 132 157 156
f 132 133 158 157
f 134 159 160 135
f 135 160 161 137
f 137 161 162 138
f 138 162 163 139
f 139 163 164 140
f 140 164 165 141
f 141 165 166 142
f 142 166 167 143
f 143 167 168 144
f 144 168 169 145
f 136 146 170 171
f 146 147 172 170
f 149 148 173 174
f 147 149 174 172
f 148 150 175 173
f 150 151 176 175
f 151 152 177 176
f 152 153 178 177
f 153 154 179 178
f 154 155 180 179
f 155 156 181 180
f 156 157 182 181
f 157 158 183 182
f 184 185 186 187
f 159 184 187 160
f 187 186 188 189
f 160 187 189 161
f 189 188 190 191
f 161 189 191 162
f 191 190 192 193
f 162 191 193 163
f 193 192 194 195
f 163 193 195 164
f 195 194 196 197
f 164 195 197 165
f 197 196 198 199
f 165 197 199 166
f 199 198 200 201
f 166 199 201 167
f 201 200 202 203
f 167 201 203 168
f 203 202 204 205
f 168 203 205 169
f 169 205 204 206
f 185 207 208 186
f 171 170 207 185
f 186 208 209 188
f 188 209 210 190
f 190 210 211 192
f 192 211 212 194
f 194 212 213 196
f 196 213 214 198
f 198 214 215 200
f 200 215 216 202
f 202 216 217 204
f 206 204 217 218
f 207 219 220 208
f 170 172 219 207
f 208 220 221 209
f 209 221 222 210
f 210 222 223 211
f 211 223 224 212
f 212 224 225 213
f 213 225 226 214
f 214 226 227 215
f 215 227 228 216
f 216 228 229 217
f 218 217 229 230
f 174 173 231 232
f 172 174 232 219
f 173 175 233 231
f 175 176 234 233
f 176 177 235 234
f 177 178 236 235
f 178 179 237 236
f 179 180 238 237
f 180 181 239 238
f 181 182 240 239
f 228 240 241 229
f 182 183 241 240
f 230 229 241 183
f 220 783 784 221
f 221 784 785 222
f 222 785 786 223
f 223 786 787 224
f 224 787 788 225
f 225 788 789 226
f 226 789 790 227
f 227 790 791 228
f 228 791 792 240
f 231 233 793 794
f 233 234 795 793
f 234 235 796 795
f 235 236 797 796
f 236 237 798 797
f 237 238 799 798
f 238 239 800 799
f 239 240 801 800
f 240 792 802 801
f 794 793 803 804
f 804 803 805 806
f 793 795 807 803
f 803 807 808 805
f 795 796 809 807
f 807 809 810 808
f 796 797 811 809
f 809 811 812 810
f 797 798 813 811
f 811 813 814 812
f 798 799 815 813
f 813 815 816 814
f 799 800 817 815
f 815 817 818 816
f 800 801 819 817
f 817 819 820 818
f 801 802 820 819
f 821 822 823 824
f 783 821 824 784
f 824 823 825 826
f 784 824 826 785
f 826 825 827 828
f 785 826 828 786
f 828 827 829 830
f 786 828 830 787
f 830 829 831 832
f 787 830 832 788
f 832 831 833 834
f 788 832 834 789
f 834 833 835 836
f 789 834 836 790
f 836 835 837 838
f 790 836 838 791
f 791 838 837 792
f 822 839 840 823
f 823 840 841 825
f 825 841 842 827
f 827 842 843 829
f 829 843 844 831
f 831 844 845 833
f 833 845 846 835
f 835 846 847 837
f 792 837 847 802
f 839 848 849 840
f 806 805 849 848
f 840 849 850 841
f 805 808 850 849
f 841 850 851 842
f 808 810 851 850
f 842 851 852 843
f 810 812 852 851
f 843 852 853 844
f 812 814 853 852
f 844 853 854 845
f 814 816 854 853
f 845 854 855 846
f 816 818 855 854
f 846 855 856 847
f 818 820 856 855
f 802 847 856 820
f 867 868 869 870
f 867 871 872 868
f 868 873 874 869
f 868 872 875 873
f 873 876 877 874
f 873 875 878 876
f 876 879 880 877
f 876 878 881 879
f 879 882 883 880
f 879 881 884 882
f 882 885 886 883
f 882 884 887 885
f 885 888 889 886
f 885 887 890 888
f 888 891 892 889
f 888 890 893 891
f 891 893 894 892
f 870 869 895 896
f 869 874 897 895
f 874 877 898 897
f 877 880 899 898
f 880 883 900 899
f 883 886 901 900
f 886 889 902 901
f 889 892 903 902
f 892 894 904 903
f 896 895 905 906
f 906 905 907 908
f 895 897 909 905
f 905 909 910 907
f 897 898 911 909
f 909 911 912 910
f 898 899 913 911
f 911 913 914 912
f 899 900 915 913
f 913 915 916 914
f 900 901 917 915
f 915 917 918 916
f 901 902 919 917
f 917 919 920 918
f 902 903 921 919
f 919 921 922 920
f 903 904 922 921
f 923 924 925 926
f 871 923 926 872
f 926 925 927 928
f 872 926 928 875
f 928 927 929 930
f 875 928 930 878
f 930 929 931 932
f 878 930 932 881
f 932 931 933 934
f 881 932 934 884
f 934 933 935 936
f 884 934 936 887
f 936 935 937 938
f 887 936 938 890
f 938 937 939 940
f 890 938 940 893
f 893 940 939 894
f 924 4 8 925
f 925 8 10 927
f 927 10 12 929
f 929 12 14 931
f 931 14 16 933
f 933 16 18 935
f 935 18 20 937
f 937 20 22 939
f 894 939 22 904
f 908 907 32 28
f 907 910 34 32
f 910 912 36 34
f 912 914 38 36
f 914 916 40 38
f 916 918 42 40
f 918 920 44 42
f 920 922 25 44
f 904 22 25 922
usemtl c3
f 514 539 540 515
f 514 516 541 539
f 539 542 543 540
f 539 541 544 542
f 542 545 546 543
f 542 544 547 545
f 545 548 549 546
f 545 547 550 548
f 548 551 552 549
f 548 550 553 551
f 551 554 555 552
f 551 553 556 554
f 554 557 558 555
f 554 556 559 557
f 557 560 561 558
f 557 559 562 560
f 560 563 564 561
f 560 562 565 563
f 563 566 567 564
f 563 565 568 566
f 566 569 570 567
f 566 568 571 569
f 569 571 572 570
f 515 540 573 520
f 540 543 574 573
f 543 546 575 574
f 546 549 576 575
f 549 552 577 576
f 552 555 578 577
f 555 558 579 578
f 558 561 580 579
f 561 564 581 580
f 564 567 582 581
f 567 570 134 582
f 570 572 159 134
f 520 573 583 525
f 525 583 584 526
f 573 574 585 583
f 583 585 586 584
f 574 575 587 585
f 585 587 588 586
f 575 576 589 587
f 587 589 590 588
f 576 577 591 589
f 589 591 592 590
f 577 578 593 591
f 591 593 594 592
f 578 579 595 593
f 593 595 596 594
f 579 580 597 595
f 595 597 598 596
f 580 581 599 597
f 597 599 600 598
f 581 582 601 599
f 599 601 602 600
f 582 134 136 601
f 601 136 171 602
f 532 531 603 604
f 516 532 604 541
f 604 603 605 606
f 541 604 606 544
f 606 605 607 608
f 544 606 608 547
f 608 607 609 610
f 547 608 610 550
f 610 609 611 612
f 550 610 612 553
f 612 611 613 614
f 553 612 614 556
f 614 613 615 616
f 556 614 616 559
f 616 615 617 618
f 559 616 618 562
f 618 617 619 620
f 562 618 620 565
f 620 619 621 622
f 565 620 622 568
f 622 621 623 624
f 568 622 624 571
f 571 624 623 572
f 531 535 625 603
f 603 625 626 605
f 605 626 627 607
f 607 627 628 609
f 609 628 629 611
f 611 629 630 613
f 613 630 631 615
f 615 631 632 617
f 617 632 633 619
f 619 633 634 621
f 621 634 184 623
f 572 623 184 159
f 535 538 635 625
f 526 584 635 538
f 625 635 636 626
f 584 586 636 635
f 626 636 637 627
f 586 588 637 636
f 627 637 638 628
f 588 590 638 637
f 628 638 639 629
f 590 592 639 638
f 629 639 640 630
f 592 594 640 639
f 630 640 641 631
f 594 596 641 640
f 631 641 642 632
f 596 598 642 641
f 632 642 643 633
f 598 600 643 642
f 633 643 644 634
f 600 602 644 643
f 634 644 185 184
f 602 171 185 644
f 652 677 678 653
f 652 654 679 677
f 677 680 681 678
f 677 679 682 680
f 680 683 684 681
f 680 682 685 683
f 683 686 687 684
f 683 685 688 686
f 686 689 690 687
f 686 688 691 689
f 689 692 693 690
f 689 691 694 692
f 692 695 696 693
f 692 694 697 695
f 695 698 699 696
f 695 697 700 698
f 698 701 702 699
f 698 700 703 701
f 701 704 705 702
f 701 703 706 704
f 704 50 63 705
f 704 706 51 50
f 653 678 707 658
f 678 681 708 707
f 681 684 709 708
f 684 687 710 709
f 687 690 711 710
f 690 693 712 711
f 693 696 713 712
f 696 699 714 713
f 699 702 715 714
f 702 705 716 715
f 705 63 717 716
f 63 65 718 717
f 658 707 719 663
f 663 719 720 664
f 707 708 721 719
f 719 721 722 720
f 708 709 723 721
f 721 723 724 722
f 709 710 725 723
f 723 725 726 724
f 710 711 727 725
f 725 727 728 726
f 711 712 729 727
f 727 729 730 728
f 712 713 731 729
f 729 731 732 730
f 713 714 733 731
f 731 733 734 732
f 714 715 735 733
f 733 735 736 734
f 715 716 737 735
f 735 737 738 736
f 716 717 739 737
f 737 739 740 738
f 717 718 740 739
f 670 669 741 742
f 654 670 742 679
f 742 741 743 744
f 679 742 744 682
f 744 743 745 746
f 682 744 746 685
f 746 745 747 748
f 685 746 748 688
f 748 747 749 750
f 688 748 750 691
f 750 749 751 752
f 691 750 752 694
f 752 751 753 754
f 694 752 754 697
f 754 753 755 756
f 697 754 756 700
f 756 755 757 758
f 700 756 758 703
f 758 757 759 760
f 703 758 760 706
f 760 759 99 97
f 706 760 97 51
f 669 673 761 741
f 741 761 762 743
f 743 762 763 745
f 745 763 764 747
f 747 764 765 749
f 749 765 766 751
f 751 766 767 753
f 753 767 768 755
f 755 768 769 757
f 757 769 770 759
f 759 770 771 99
f 65 99 771 718
f 673 676 772 761
f 664 720 772 676
f 761 772 773 762
f 720 722 773 772
f 762 773 774 763
f 722 724 774 773
f 763 774 775 764
f 724 726 775 774
f 764 775 776 765
f 726 728 776 775
f 765 776 777 766
f 728 730 777 776
f 766 777 778 767
f 730 732 778 777
f 767 778 779 768
f 732 734 779 778
f 768 779 780 769
f 734 736 780 779
f 769 780 781 770
f 736 738 781 780
f 770 781 782 771
f 738 740 782 781
f 718 771 782 740
usemtl c4
f 507 508 509 510
f 507 511 512 508
f 507 510 513 511
f 508 514 515 509
f 508 512 516 514
f 510 509 517 518
f 510 518 519 513
f 509 515 520 517
f 518 517 521 522
f 522 521 523 524
f 518 522 524 519
f 517 520 525 521
f 521 525 526 523
f 527 528 529 530
f 511 527 530 512
f 511 513 528 527
f 530 529 531 532
f 512 530 532 516
f 528 533 534 529
f 513 519 533 528
f 529 534 535 531
f 533 536 537 534
f 524 523 537 536
f 519 524 536 533
f 534 537 538 535
f 523 526 538 537
f 645 646 647 648
f 645 649 650 646
f 645 648 651 649
f 646 652 653 647
f 646 650 654 652
f 648 647 655 656
f 648 656 657 651
f 647 653 658 655
f 656 655 659 660
f 660 659 661 662
f 656 660 662 657
f 655 658 663 659
f 659 663 664 661
f 665 666 667 668
f 649 665 668 650
f 649 651 666 665
f 668 667 669 670
f 650 668 670 654
f 666 671 672 667
f 651 657 671 666
f 667 672 673 669
f 671 674 675 672
f 662 661 675 674
f 657 662 674 671
f 672 675 676 673
f 661 664 676 675
usemtl c5
f 26 242 243 27
f 26 95 244 242
f 242 245 246 243
f 242 244 247 245
f 248 251 252 249
f 248 250 253 251
f 251 254 255 252
f 251 253 256 254
f 27 243 257 48
f 243 246 258 257
f 246 249 259 258
f 249 252 260 259
f 252 255 261 260
f 48 257 262 61
f 257 258 263 262
f 258 259 264 263
f 259 260 265 264
f 260 261 266 265
f 61 262 267 83
f 83 267 268 108
f 262 263 269 267
f 267 269 270 268
f 263 264 271 269
f 269 271 272 270
f 264 265 273 271
f 271 273 274 272
f 265 266 275 273
f 273 275 276 274
f 95 120 277 244
f 244 277 278 247
f 247 278 279 250
f 250 279 280 253
f 253 280 281 256
f 108 268 282 133
f 268 270 283 282
f 270 272 284 283
f 272 274 285 284
f 274 276 286 285
f 120 145 287 277
f 277 287 288 278
f 278 288 289 279
f 279 289 290 280
f 280 290 291 281
f 133 282 292 158
f 282 283 293 292
f 283 284 294 293
f 284 285 295 294
f 285 286 296 295
f 169 206 297 298
f 145 169 298 287
f 298 297 299 300
f 287 298 300 288
f 302 301 303 304
f 289 302 304 290
f 304 303 305 306
f 290 304 306 291
f 206 218 307 297
f 297 307 308 299
f 299 308 309 301
f 301 309 310 303
f 303 310 311 305
f 218 230 312 307
f 307 312 313 308
f 308 313 314 309
f 309 314 315 310
f 310 315 316 311
f 230 183 317 312
f 158 292 317 183
f 312 317 318 313
f 292 293 318 317
f 313 318 319 314
f 293 294 319 318
f 314 319 320 315
f 294 295 320 319
f 315 320 321 316
f 295 296 321 320
f 219 857 783 220
f 219 232 858 857
f 232 231 794 859
f 232 859 860 858
f 859 794 804 861
f 861 804 806 862
f 859 861 862 860
f 863 864 822 821
f 857 863 821 783
f 857 858 864 863
f 864 865 839 822
f 858 860 865 864
f 865 866 848 839
f 862 806 848 866
f 860 862 866 865
f 941 867 870 942
f 941 943 871 867
f 941 942 944 943
f 942 870 896 945
f 942 945 946 944
f 945 896 906 947
f 947 906 908 948
f 945 947 948 946
f 949 950 924 923
f 943 949 923 871
f 943 944 950 949
f 950 1 4 924
f 944 946 1 950
f 948 908 28 5
f 946 948 5 1
usemtl c6
f 245 248 249 246
f 245 247 250 248
f 300 299 301 302
f 288 300 302 289
