# generado por tools/vox_to_obj.py desde letrero_cultivo.vox
mtllib letrero_cultivo.mtl
v -1.0000 0.0000 1.0000
v -1.0000 1.0000 1.0000
v -1.0000 1.0000 0.0000
v -1.0000 0.0000 0.0000
v 0.0000 0.0000 1.0000
v 0.0000 1.0000 1.0000
v 0.0000 0.0000 0.0000
v -1.0000 2.0000 1.0000
v -1.0000 2.0000 0.0000
v 0.0000 2.0000 1.0000
v -1.0000 3.0000 1.0000
v -1.0000 3.0000 0.0000
v 0.0000 3.0000 1.0000
v -1.0000 4.0000 1.0000
v -1.0000 4.0000 0.0000
v 0.0000 4.0000 1.0000
v -1.0000 5.0000 1.0000
v -1.0000 5.0000 0.0000
v 0.0000 5.0000 1.0000
v -1.0000 6.0000 1.0000
v -1.0000 6.0000 0.0000
v 0.0000 6.0000 1.0000
v -1.0000 7.0000 1.0000
v -1.0000 7.0000 0.0000
v 0.0000 7.0000 1.0000
v -1.0000 8.0000 1.0000
v -1.0000 8.0000 0.0000
v 0.0000 8.0000 1.0000
v -1.0000 1.0000 -1.0000
v -1.0000 0.0000 -1.0000
v 0.0000 1.0000 -1.0000
v 0.0000 0.0000 -1.0000
v -1.0000 2.0000 -1.0000
v 0.0000 2.0000 -1.0000
v -1.0000 3.0000 -1.0000
v 0.0000 3.0000 -1.0000
v -1.0000 4.0000 -1.0000
v 0.0000 4.0000 -1.0000
v -1.0000 5.0000 -1.0000
v 0.0000 5.0000 -1.0000
v -1.0000 6.0000 -1.0000
v 0.0000 6.0000 -1.0000
v -1.0000 7.0000 -1.0000
v 0.0000 7.0000 -1.0000
v -1.0000 8.0000 -1.0000
v 0.0000 8.0000 -1.0000
v 1.0000 0.0000 1.0000
v 1.0000 0.0000 0.0000
v 1.0000 1.0000 0.0000
v 1.0000 1.0000 1.0000
v 1.0000 2.0000 0.0000
v 1.0000 2.0000 1.0000
v 1.0000 3.0000 0.0000
v 1.0000 3.0000 1.0000
v 1.0000 4.0000 0.0000
v 1.0000 4.0000 1.0000
v 1.0000 5.0000 0.0000
v 1.0000 5.0000 1.0000
v 1.0000 6.0000 0.0000
v 1.0000 6.0000 1.0000
v 1.0000 7.0000 0.0000
v 1.0000 7.0000 1.0000
v 1.0000 8.0000 0.0000
v 1.0000 8.0000 1.0000
v 1.0000 0.0000 -1.0000
v 1.0000 1.0000 -1.0000
v 1.0000 2.0000 -1.0000
v 1.0000 3.0000 -1.0000
v 1.0000 4.0000 -1.0000
v 1.0000 5.0000 -1.0000
v 1.0000 6.0000 -1.0000
v 1.0000 7.0000 -1.0000
v 1.0000 8.0000 -1.0000
v -4.0000 8.0000 1.0000
v -4.0000 9.0000 1.0000
v -4.0000 9.0000 0.0000
v -4.0000 8.0000 0.0000
v -3.0000 8.0000 1.0000
v -3.0000 9.0000 1.0000
v -3.0000 8.0000 0.0000
v -4.0000 10.0000 1.0000
v -4.0000 10.0000 0.0000
v -3.0000 10.0000 1.0000
v -4.0000 11.0000 1.0000
v -4.0000 11.0000 0.0000
v -3.0000 11.0000 1.0000
v -4.0000 12.0000 1.0000
v -4.0000 12.0000 0.0000
v -3.0000 12.0000 1.0000
v -3.0000 12.0000 0.0000
v -4.0000 9.0000 -1.0000
v -4.0000 8.0000 -1.0000
v -3.0000 9.0000 -1.0000
v -3.0000 8.0000 -1.0000
v -4.0000 10.0000 -1.0000
v -3.0000 10.0000 -1.0000
v -4.0000 11.0000 -1.0000
v -3.0000 11.0000 -1.0000
v -4.0000 12.0000 -1.0000
v -3.0000 12.0000 -1.0000
v -2.0000 8.0000 1.0000
v -2.0000 9.0000 1.0000
v -2.0000 8.0000 0.0000
v -2.0000 10.0000 1.0000
v -2.0000 11.0000 1.0000
v -2.0000 12.0000 1.0000
v -2.0000 12.0000 0.0000
v -2.0000 9.0000 -1.0000
v -2.0000 8.0000 -1.0000
v -2.0000 10.0000 -1.0000
v -2.0000 11.0000 -1.0000
v -2.0000 12.0000 -1.0000
v -1.0000 9.0000 1.0000
v -1.0000 10.0000 1.0000
v -1.0000 11.0000 1.0000
v -1.0000 12.0000 1.0000
v -1.0000 12.0000 0.0000
v -1.0000 9.0000 -1.0000
v -1.0000 10.0000 -1.0000
v -1.0000 11.0000 -1.0000
v -1.0000 12.0000 -1.0000
v 0.0000 9.0000 1.0000
v 0.0000 10.0000 1.0000
v 0.0000 11.0000 1.0000
v 0.0000 12.0000 1.0000
v 0.0000 12.0000 0.0000
v 0.0000 9.0000 -1.0000
v 0.0000 10.0000 -1.0000
v 0.0000 11.0000 -1.0000
v 0.0000 12.0000 -1.0000
v 1.0000 9.0000 1.0000
v 1.0000 10.0000 1.0000
v 1.0000 11.0000 1.0000
v 1.0000 12.0000 1.0000
v 1.0000 12.0000 0.0000
v 1.0000 9.0000 -1.0000
v 1.0000 10.0000 -1.0000
v 1.0000 11.0000 -1.0000
v 1.0000 12.0000 -1.0000
v 2.0000 8.0000 1.0000
v 2.0000 9.0000 1.0000
v 2.0000 8.0000 0.0000
v 2.0000 10.0000 1.0000
v 2.0000 11.0000 1.0000
v 2.0000 12.0000 1.0000
v 2.0000 12.0000 0.0000
v 2.0000 9.0000 -1.0000
v 2.0000 8.0000 -1.0000
v 2.0000 10.0000 -1.0000
v 2.0000 11.0000 -1.0000
v 2.0000 12.0000 -1.0000
v 3.0000 8.0000 1.0000
v 3.0000 9.0000 1.0000
v 3.0000 8.0000 0.0000
v 3.0000 10.0000 1.0000
v 3.0000 11.0000 1.0000
v 3.0000 12.0000 1.0000
v 3.0000 12.0000 0.0000
v 3.0000 9.0000 -1.0000
v 3.0000 8.0000 -1.0000
v 3.0000 10.0000 -1.0000
v 3.0000 11.0000 -1.0000
v 3.0000 12.0000 -1.0000
v 4.0000 8.0000 1.0000
v 4.0000 8.0000 0.0000
v 4.0000 9.0000 0.0000
v 4.0000 9.0000 1.0000
v 4.0000 10.0000 0.0000
v 4.0000 10.0000 1.0000
v 4.0000 11.0000 0.0000
v 4.0000 11.0000 1.0000
v 4.0000 12.0000 0.0000
v 4.0000 12.0000 1.0000
v 4.0000 8.0000 -1.0000
v 4.0000 9.0000 -1.0000
v 4.0000 10.0000 -1.0000
v 4.0000 11.0000 -1.0000
v 4.0000 12.0000 -1.0000
usemtl c1
f 1 2 3 4
f 1 5 6 2
f 1 4 7 5
f 2 8 9 3
f 2 6 10 8
f 8 11 12 9
f 8 10 13 11
f 11 14 15 12
f 11 13 16 14
f 14 17 18 15
f 14 16 19 17
f 17 20 21 18
f 17 19 22 20
f 20 23 24 21
f 20 22 25 23
f 23 26 27 24
f 23 25 28 26
f 4 3 29 30
f 30 29 31 32
f 4 30 32 7
f 3 9 33 29
f 29 33 34 31
f 9 12 35 33
f 33 35 36 34
f 12 15 37 35
f 35 37 38 36
f 15 18 39 37
f 37 39 40 38
f 18 21 41 39
f 39 41 42 40
f 21 24 43 41
f 41 43 44 42
f 24 27 45 43
f 43 45 46 44
f 47 48 49 50
f 5 47 50 6
f 5 7 48 47
f 50 49 51 52
f 6 50 52 10
f 52 51 53 54
f 10 52 54 13
f 54 53 55 56
f 13 54 56 16
f 56 55 57 58
f 16 56 58 19
f 58 57 59 60
f 19 58 60 22
f 60 59 61 62
f 22 60 62 25
f 62 61 63 64
f 25 62 64 28
f 48 65 66 49
f 32 31 66 65
f 7 32 65 48
f 49 66 67 51
f 31 34 67 66
f 51 67 68 53
f 34 36 68 67
f 53 68 69 55
f 36 38 69 68
f 55 69 70 57
f 38 40 70 69
f 57 70 71 59
f 40 42 71 70
f 59 71 72 61
f 42 44 72 71
f 61 72 73 63
f 44 46 73 72
usemtl c2
f 74 75 76 77
f 74 78 79 75
f 74 77 80 78
f 75 81 82 76
f 75 79 83 81
f 81 84 85 82
f 81 83 86 84
f 84 87 88 85
f 84 86 89 87
f 87 89 90 88
f 77 76 91 92
f 92 91 93 94
f 77 92 94 80
f 76 82 95 91
f 91 95 96 93
f 82 85 97 95
f 95 97 98 96
f 85 88 99 97
f 97 99 100 98
f 88 90 100 99
f 78 101 102 79
f 78 80 103 101
f 79 102 104 83
f 83 104 105 86
f 86 105 106 89
f 89 106 107 90
f 94 93 108 109
f 80 94 109 103
f 93 96 110 108
f 96 98 111 110
f 98 100 112 111
f 90 107 112 100
f 101 26 113 102
f 101 103 27 26
f 102 113 114 104
f 104 114 115 105
f 105 115 116 106
f 106 116 117 107
f 109 108 118 45
f 103 109 45 27
f 108 110 119 118
f 110 111 120 119
f 111 112 121 120
f 107 117 121 112
f 26 28 122 113
f 113 122 123 114
f 114 123 124 115
f 115 124 125 116
f 116 125 126 117
f 45 118 127 46
f 118 119 128 127
f 119 120 129 128
f 120 121 130 129
f 117 126 130 121
f 28 64 131 122
f 122 131 132 123
f 123 132 133 124
f 124 133 134 125
f 125 134 135 126
f 46 127 136 73
f 127 128 137 136
f 128 129 138 137
f 129 130 139 138
f 126 135 139 130
f 64 140 141 131
f 64 63 142 140
f 131 141 143 132
f 132 143 144 133
f 133 144 145 134
f 134 145 146 135
f 73 136 147 148
f 63 73 148 142
f 136 137 149 147
f 137 138 150 149
f 138 139 151 150
f 135 146 151 139
f 140 152 153 141
f 140 142 154 152
f 141 153 155 143
f 143 155 156 144
f 144 156 157 145
f 145 157 158 146
f 148 147 159 160
f 142 148 160 154
f 147 149 161 159
f 149 150 162 161
f 150 151 163 162
f 146 158 163 151
f 164 165 166 167
f 152 164 167 153
f 152 154 165 164
f 167 166 168 169
f 153 167 169 155
f 169 168 170 171
f 155 169 171 156
f 171 170 172 173
f 156 171 173 157
f 157 173 172 158
f 165 174 175 166
f 160 159 175 174
f 154 160 174 165
f 166 175 176 168
f 159 161 176 175
f 168 176 177 170
f 161 162 177 176
f 170 177 178 172
f 162 163 178 177
f 158 172 178 163
