# generado por tools/vox_to_obj.py desde maiz_v2.vox
mtllib maiz_v2.mtl
v -2.0000 0.0000 2.0000
v -2.0000 1.0000 2.0000
v -2.0000 1.0000 1.0000
v -2.0000 0.0000 1.0000
v -1.0000 0.0000 2.0000
v -1.0000 1.0000 2.0000
v -1.0000 1.0000 1.0000
v -1.0000 0.0000 1.0000
v -2.0000 1.0000 0.0000
v -2.0000 0.0000 0.0000
v -1.0000 1.0000 0.0000
v -1.0000 0.0000 0.0000
v -2.0000 1.0000 -1.0000
v -2.0000 0.0000 -1.0000
v -1.0000 1.0000 -1.0000
v -1.0000 0.0000 -1.0000
v -2.0000 1.0000 -2.0000
v -2.0000 0.0000 -2.0000
v -1.0000 1.0000 -2.0000
v -1.0000 0.0000 -2.0000
v 0.0000 0.0000 2.0000
v 0.0000 1.0000 2.0000
v 0.0000 1.0000 1.0000
v 0.0000 0.0000 1.0000
v 0.0000 0.0000 0.0000
v 0.0000 0.0000 -1.0000
v 0.0000 1.0000 -2.0000
v 0.0000 0.0000 -2.0000
v 0.0000 1.0000 -1.0000
v 1.0000 0.0000 2.0000
v 1.0000 1.0000 2.0000
v 1.0000 1.0000 1.0000
v 1.0000 0.0000 1.0000
v 1.0000 0.0000 0.0000
v 1.0000 0.0000 -1.0000
v 1.0000 1.0000 -2.0000
v 1.0000 0.0000 -2.0000
v 1.0000 1.0000 -1.0000
v 2.0000 0.0000 2.0000
v 2.0000 0.0000 1.0000
v 2.0000 1.0000 1.0000
v 2.0000 1.0000 2.0000
v 2.0000 0.0000 0.0000
v 2.0000 1.0000 0.0000
v 1.0000 1.0000 0.0000
v 2.0000 0.0000 -1.0000
v 2.0000 1.0000 -1.0000
v 2.0000 0.0000 -2.0000
v 2.0000 1.0000 -2.0000
v -1.0000 2.0000 1.0000
v -1.0000 2.0000 0.0000
v 0.0000 2.0000 1.0000
v -1.0000 3.0000 1.0000
v -1.0000 3.0000 0.0000
v 0.0000 3.0000 1.0000
v -1.0000 4.0000 1.0000
v -1.0000 4.0000 0.0000
v 0.0000 4.0000 1.0000
v 0.0000 5.0000 1.0000
v -1.0000 5.0000 1.0000
v -1.0000 6.0000 1.0000
v -1.0000 6.0000 0.0000
v -1.0000 5.0000 0.0000
v 0.0000 6.0000 1.0000
v -1.0000 7.0000 1.0000
v -1.0000 7.0000 0.0000
v 0.0000 7.0000 1.0000
v -1.0000 8.0000 1.0000
v -1.0000 8.0000 0.0000
v 0.0000 8.0000 1.0000
v -1.0000 9.0000 1.0000
v -1.0000 9.0000 0.0000
v 0.0000 9.0000 1.0000
v -1.0000 10.0000 1.0000
v -1.0000 10.0000 0.0000
v 0.0000 10.0000 1.0000
v 0.0000 11.0000 1.0000
v -1.0000 11.0000 1.0000
v -1.0000 12.0000 1.0000
v -1.0000 12.0000 0.0000
v -1.0000 11.0000 0.0000
v 0.0000 12.0000 1.0000
v -1.0000 13.0000 1.0000
v -1.0000 13.0000 0.0000
v 0.0000 13.0000 1.0000
v -1.0000 14.0000 1.0000
v -1.0000 14.0000 0.0000
v 0.0000 14.0000 1.0000
v -1.0000 15.0000 1.0000
v -1.0000 15.0000 0.0000
v 0.0000 15.0000 1.0000
v -1.0000 2.0000 -1.0000
v 0.0000 2.0000 -1.0000
v -1.0000 3.0000 -1.0000
v 0.0000 3.0000 -1.0000
v -1.0000 4.0000 -1.0000
v 0.0000 4.0000 -1.0000
v -1.0000 5.0000 -1.0000
v 0.0000 5.0000 -1.0000
v -1.0000 6.0000 -1.0000
v 0.0000 6.0000 -1.0000
v -1.0000 7.0000 -1.0000
v 0.0000 7.0000 -1.0000
v -1.0000 8.0000 -1.0000
v 0.0000 8.0000 -1.0000
v -1.0000 9.0000 -1.0000
v 0.0000 9.0000 -1.0000
v -1.0000 10.0000 -1.0000
v 0.0000 10.0000 -1.0000
v -1.0000 11.0000 -1.0000
v 0.0000 11.0000 -1.0000
v -1.0000 12.0000 -1.0000
v 0.0000 12.0000 -1.0000
v -1.0000 13.0000 -1.0000
v 0.0000 13.0000 -1.0000
v -1.0000 14.0000 -1.0000
v 0.0000 14.0000 -1.0000
v -1.0000 15.0000 -1.0000
v 0.0000 15.0000 -1.0000
v 1.0000 2.0000 0.0000
v 1.0000 2.0000 1.0000
v 1.0000 3.0000 0.0000
v 1.0000 3.0000 1.0000
v 1.0000 4.0000 0.0000
v 1.0000 4.0000 1.0000
v 1.0000 5.0000 0.0000
v 1.0000 5.0000 1.0000
v 1.0000 6.0000 0.0000
v 1.0000 6.0000 1.0000
v 1.0000 7.0000 0.0000
v 1.0000 7.0000 1.0000
v 1.0000 8.0000 1.0000
v 1.0000 9.0000 1.0000
v 1.0000 10.0000 1.0000
v 1.0000 11.0000 1.0000
v 1.0000 12.0000 1.0000
v 1.0000 13.0000 1.0000
v 1.0000 14.0000 1.0000
v 1.0000 14.0000 0.0000
v 1.0000 15.0000 0.0000
v 1.0000 15.0000 1.0000
v 1.0000 2.0000 -1.0000
v 1.0000 3.0000 -1.0000
v 1.0000 4.0000 -1.0000
v 1.0000 5.0000 -1.0000
v 1.0000 6.0000 -1.0000
v 1.0000 7.0000 -1.0000
v 1.0000 8.0000 -1.0000
v 1.0000 9.0000 -1.0000
v 1.0000 10.0000 -1.0000
v 1.0000 11.0000 -1.0000
v 1.0000 12.0000 -1.0000
v 1.0000 13.0000 -1.0000
v 1.0000 14.0000 -1.0000
v 1.0000 15.0000 -1.0000
v -5.0000 4.0000 1.0000
v -5.0000 5.0000 1.0000
v -5.0000 5.0000 0.0000
v -5.0000 4.0000 0.0000
v -4.0000 4.0000 1.0000
v -4.0000 5.0000 1.0000
v -4.0000 5.0000 0.0000
v -5.0000 5.0000 -1.0000
v -5.0000 4.0000 -1.0000
v -4.0000 5.0000 -1.0000
v -4.0000 4.0000 -1.0000
v -3.0000 4.0000 1.0000
v -3.0000 5.0000 1.0000
v -3.0000 5.0000 0.0000
v -4.0000 4.0000 0.0000
v -3.0000 4.0000 0.0000
v -3.0000 5.0000 -1.0000
v -3.0000 4.0000 -1.0000
v -2.0000 4.0000 1.0000
v -2.0000 5.0000 1.0000
v -2.0000 5.0000 0.0000
v -2.0000 4.0000 0.0000
v -2.0000 5.0000 -1.0000
v -2.0000 4.0000 -1.0000
v -4.0000 3.0000 1.0000
v -4.0000 3.0000 0.0000
v -5.0000 3.0000 1.0000
v -5.0000 3.0000 0.0000
v -4.0000 3.0000 -1.0000
v -5.0000 3.0000 -1.0000
v 2.0000 7.0000 1.0000
v 2.0000 8.0000 1.0000
v 2.0000 7.0000 0.0000
v 2.0000 8.0000 -1.0000
v 2.0000 7.0000 -1.0000
v 3.0000 7.0000 1.0000
v 3.0000 8.0000 1.0000
v 3.0000 7.0000 0.0000
v 3.0000 8.0000 -1.0000
v 3.0000 7.0000 -1.0000
v 4.0000 7.0000 1.0000
v 4.0000 8.0000 1.0000
v 4.0000 8.0000 0.0000
v 3.0000 8.0000 0.0000
v 4.0000 7.0000 0.0000
v 4.0000 8.0000 -1.0000
v 4.0000 7.0000 -1.0000
v 5.0000 7.0000 1.0000
v 5.0000 7.0000 0.0000
v 5.0000 8.0000 0.0000
v 5.0000 8.0000 1.0000
v 5.0000 7.0000 -1.0000
v 5.0000 8.0000 -1.0000
v 5.0000 6.0000 1.0000
v 5.0000 6.0000 0.0000
v 4.0000 6.0000 1.0000
v 4.0000 6.0000 0.0000
v 5.0000 6.0000 -1.0000
v 4.0000 6.0000 -1.0000
v -5.0000 10.0000 1.0000
v -5.0000 11.0000 1.0000
v -5.0000 11.0000 0.0000
v -5.0000 10.0000 0.0000
v -4.0000 10.0000 1.0000
v -4.0000 11.0000 1.0000
v -4.0000 11.0000 0.0000
v -5.0000 11.0000 -1.0000
v -5.0000 10.0000 -1.0000
v -4.0000 11.0000 -1.0000
v -4.0000 10.0000 -1.0000
v -3.0000 10.0000 1.0000
v -3.0000 11.0000 1.0000
v -3.0000 11.0000 0.0000
v -4.0000 10.0000 0.0000
v -3.0000 10.0000 0.0000
v -3.0000 11.0000 -1.0000
v -3.0000 10.0000 -1.0000
v -2.0000 10.0000 1.0000
v -2.0000 11.0000 1.0000
v -2.0000 11.0000 0.0000
v -2.0000 10.0000 0.0000
v -2.0000 11.0000 -1.0000
v -2.0000 10.0000 -1.0000
v -4.0000 9.0000 1.0000
v -4.0000 9.0000 0.0000
v -5.0000 9.0000 1.0000
v -5.0000 9.0000 0.0000
v -4.0000 9.0000 -1.0000
v -5.0000 9.0000 -1.0000
v 2.0000 13.0000 1.0000
v 2.0000 14.0000 1.0000
v 2.0000 14.0000 0.0000
v 2.0000 14.0000 -1.0000
v 2.0000 13.0000 -1.0000
v 3.0000 13.0000 1.0000
v 3.0000 14.0000 1.0000
v 3.0000 14.0000 0.0000
v 3.0000 14.0000 -1.0000
v 3.0000 13.0000 -1.0000
v 4.0000 13.0000 1.0000
v 4.0000 14.0000 1.0000
v 4.0000 14.0000 0.0000
v 3.0000 13.0000 0.0000
v 4.0000 13.0000 0.0000
v 4.0000 14.0000 -1.0000
v 4.0000 13.0000 -1.0000
v 5.0000 13.0000 1.0000
v 5.0000 13.0000 0.0000
v 5.0000 14.0000 0.0000
v 5.0000 14.0000 1.0000
v 5.0000 13.0000 -1.0000
v 5.0000 14.0000 -1.0000
v 5.0000 12.0000 1.0000
v 5.0000 12.0000 0.0000
v 4.0000 12.0000 1.0000
v 4.0000 12.0000 0.0000
v 5.0000 12.0000 -1.0000
v 4.0000 12.0000 -1.0000
v 2.0000 9.0000 1.0000
v 2.0000 10.0000 1.0000
v 2.0000 11.0000 1.0000
v 2.0000 12.0000 1.0000
v 2.0000 10.0000 -1.0000
v 2.0000 9.0000 -1.0000
v 2.0000 11.0000 -1.0000
v 2.0000 12.0000 -1.0000
v 3.0000 9.0000 1.0000
v 3.0000 9.0000 0.0000
v 3.0000 10.0000 0.0000
v 3.0000 10.0000 1.0000
v 3.0000 11.0000 1.0000
v 3.0000 12.0000 1.0000
v 3.0000 12.0000 0.0000
v 3.0000 9.0000 -1.0000
v 3.0000 10.0000 -1.0000
v 3.0000 11.0000 -1.0000
v 3.0000 12.0000 -1.0000
v 4.0000 10.0000 1.0000
v 4.0000 10.0000 0.0000
v 4.0000 11.0000 0.0000
v 4.0000 11.0000 1.0000
v 4.0000 10.0000 -1.0000
v 4.0000 11.0000 -1.0000
v -2.0000 15.0000 2.0000
v -2.0000 16.0000 2.0000
v -2.0000 16.0000 1.0000
v -2.0000 15.0000 1.0000
v -1.0000 15.0000 2.0000
v -1.0000 16.0000 2.0000
v -1.0000 16.0000 1.0000
v -2.0000 16.0000 0.0000
v -2.0000 15.0000 0.0000
v -1.0000 16.0000 0.0000
v -2.0000 16.0000 -1.0000
v -2.0000 15.0000 -1.0000
v -1.0000 16.0000 -1.0000
v 0.0000 15.0000 2.0000
v 0.0000 16.0000 2.0000
v 0.0000 16.0000 1.0000
v 0.0000 16.0000 -1.0000
v 0.0000 16.0000 0.0000
v 1.0000 15.0000 2.0000
v 1.0000 16.0000 1.0000
v 1.0000 16.0000 2.0000
v 1.0000 16.0000 0.0000
v 1.0000 16.0000 -1.0000
v 0.0000 17.0000 0.0000
v 0.0000 17.0000 1.0000
v -1.0000 17.0000 1.0000
v -1.0000 17.0000 0.0000
v 0.0000 18.0000 0.0000
v 0.0000 18.0000 1.0000
v -1.0000 18.0000 1.0000
v -1.0000 18.0000 0.0000
usemtl c3
f 1 2 3 4
f 1 5 6 2
f 2 6 7 3
f 1 4 8 5
f 4 3 9 10
f 3 7 11 9
f 4 10 12 8
f 10 9 13 14
f 9 11 15 13
f 10 14 16 12
f 14 13 17 18
f 18 17 19 20
f 13 15 19 17
f 14 18 20 16
f 5 21 22 6
f 6 22 23 7
f 5 8 24 21
f 8 12 25 24
f 12 16 26 25
f 20 19 27 28
f 15 29 27 19
f 16 20 28 26
f 21 30 31 22
f 22 31 32 23
f 21 24 33 30
f 24 25 34 33
f 25 26 35 34
f 28 27 36 37
f 29 38 36 27
f 26 28 37 35
f 39 40 41 42
f 30 39 42 31
f 31 42 41 32
f 30 33 40 39
f 40 43 44 41
f 32 41 44 45
f 33 34 43 40
f 43 46 47 44
f 45 44 47 38
f 34 35 46 43
f 46 48 49 47
f 37 36 49 48
f 38 47 49 36
f 35 37 48 46
usemtl c4
f 7 50 51 11
f 7 23 52 50
f 50 53 54 51
f 50 52 55 53
f 53 56 57 54
f 53 55 58 56
f 56 58 59 60
f 60 61 62 63
f 60 59 64 61
f 61 65 66 62
f 61 64 67 65
f 65 68 69 66
f 65 67 70 68
f 68 71 72 69
f 68 70 73 71
f 71 74 75 72
f 71 73 76 74
f 74 76 77 78
f 78 79 80 81
f 78 77 82 79
f 79 83 84 80
f 79 82 85 83
f 83 86 87 84
f 83 85 88 86
f 86 89 90 87
f 86 88 91 89
f 11 51 92 15
f 15 92 93 29
f 51 54 94 92
f 92 94 95 93
f 54 57 96 94
f 94 96 97 95
f 96 98 99 97
f 63 62 100 98
f 98 100 101 99
f 62 66 102 100
f 100 102 103 101
f 66 69 104 102
f 102 104 105 103
f 69 72 106 104
f 104 106 107 105
f 72 75 108 106
f 106 108 109 107
f 108 110 111 109
f 81 80 112 110
f 110 112 113 111
f 80 84 114 112
f 112 114 115 113
f 84 87 116 114
f 114 116 117 115
f 87 90 118 116
f 116 118 119 117
f 32 45 120 121
f 23 32 121 52
f 121 120 122 123
f 52 121 123 55
f 123 122 124 125
f 55 123 125 58
f 125 124 126 127
f 58 125 127 59
f 127 126 128 129
f 59 127 129 64
f 129 128 130 131
f 64 129 131 67
f 67 131 132 70
f 70 132 133 73
f 73 133 134 76
f 76 134 135 77
f 77 135 136 82
f 82 136 137 85
f 85 137 138 88
f 138 139 140 141
f 88 138 141 91
f 45 38 142 120
f 29 93 142 38
f 120 142 143 122
f 93 95 143 142
f 122 143 144 124
f 95 97 144 143
f 124 144 145 126
f 97 99 145 144
f 126 145 146 128
f 99 101 146 145
f 128 146 147 130
f 101 103 147 146
f 103 105 148 147
f 105 107 149 148
f 107 109 150 149
f 109 111 151 150
f 111 113 152 151
f 113 115 153 152
f 115 117 154 153
f 139 154 155 140
f 117 119 155 154
usemtl c5
f 156 157 158 159
f 156 160 161 157
f 157 161 162 158
f 159 158 163 164
f 164 163 165 166
f 158 162 165 163
f 160 167 168 161
f 161 168 169 162
f 160 170 171 167
f 166 165 172 173
f 162 169 172 165
f 170 166 173 171
f 167 174 175 168
f 168 175 176 169
f 167 171 177 174
f 173 172 178 179
f 169 176 178 172
f 171 173 179 177
f 174 56 60 175
f 175 60 63 176
f 174 177 57 56
f 179 178 98 96
f 176 63 98 178
f 177 179 96 57
f 180 181 170 160
f 182 156 159 183
f 182 180 160 156
f 182 183 181 180
f 181 184 166 170
f 183 159 164 185
f 185 164 166 184
f 183 185 184 181
f 131 186 187 132
f 131 130 188 186
f 147 148 189 190
f 130 147 190 188
f 186 191 192 187
f 186 188 193 191
f 190 189 194 195
f 188 190 195 193
f 191 196 197 192
f 192 197 198 199
f 191 193 200 196
f 195 194 201 202
f 199 198 201 194
f 193 195 202 200
f 203 204 205 206
f 196 203 206 197
f 197 206 205 198
f 204 207 208 205
f 202 201 208 207
f 198 205 208 201
f 209 210 204 203
f 211 196 200 212
f 211 209 203 196
f 211 212 210 209
f 210 213 207 204
f 212 200 202 214
f 214 202 207 213
f 212 214 213 210
f 215 216 217 218
f 215 219 220 216
f 216 220 221 217
f 218 217 222 223
f 223 222 224 225
f 217 221 224 222
f 219 226 227 220
f 220 227 228 221
f 219 229 230 226
f 225 224 231 232
f 221 228 231 224
f 229 225 232 230
f 226 233 234 227
f 227 234 235 228
f 226 230 236 233
f 232 231 237 238
f 228 235 237 231
f 230 232 238 236
f 233 74 78 234
f 234 78 81 235
f 233 236 75 74
f 238 237 110 108
f 235 81 110 237
f 236 238 108 75
f 239 240 229 219
f 241 215 218 242
f 241 239 219 215
f 241 242 240 239
f 240 243 225 229
f 242 218 223 244
f 244 223 225 243
f 242 244 243 240
f 137 245 246 138
f 138 246 247 139
f 153 154 248 249
f 139 247 248 154
f 245 250 251 246
f 246 251 252 247
f 249 248 253 254
f 247 252 253 248
f 250 255 256 251
f 251 256 257 252
f 250 258 259 255
f 254 253 260 261
f 252 257 260 253
f 258 254 261 259
f 262 263 264 265
f 255 262 265 256
f 256 265 264 257
f 263 266 267 264
f 261 260 267 266
f 257 264 267 260
f 268 269 263 262
f 270 255 259 271
f 270 268 262 255
f 270 271 269 268
f 269 272 266 263
f 271 259 261 273
f 273 261 266 272
f 271 273 272 269
usemtl c6
f 133 274 275 134
f 134 275 276 135
f 135 276 277 136
f 136 277 245 137
f 149 150 278 279
f 150 151 280 278
f 151 152 281 280
f 152 153 249 281
f 282 283 284 285
f 274 282 285 275
f 275 285 286 276
f 276 286 287 277
f 287 288 258 250
f 277 287 250 245
f 283 289 290 284
f 279 278 290 289
f 278 280 291 290
f 280 281 292 291
f 288 292 254 258
f 281 249 254 292
usemtl c7
f 132 187 274 133
f 148 149 279 189
f 192 199 283 282
f 187 192 282 274
f 199 194 289 283
f 189 279 289 194
f 293 294 295 296
f 285 293 296 286
f 285 284 294 293
f 296 295 271 270
f 286 296 270 287
f 287 270 271 288
f 294 297 298 295
f 290 291 298 297
f 284 290 297 294
f 295 298 273 271
f 291 292 273 298
f 288 271 273 292
usemtl c8
f 299 300 301 302
f 299 303 304 300
f 300 304 305 301
f 299 302 89 303
f 302 301 306 307
f 301 305 308 306
f 302 307 90 89
f 307 306 309 310
f 310 309 311 118
f 306 308 311 309
f 307 310 118 90
f 303 312 313 304
f 304 313 314 305
f 303 89 91 312
f 118 311 315 119
f 308 316 315 311
f 317 141 318 319
f 312 317 319 313
f 313 319 318 314
f 312 91 141 317
f 141 140 320 318
f 314 318 320 316
f 140 155 321 320
f 119 315 321 155
f 316 320 321 315
f 314 316 322 323
f 305 324 325 308
f 308 325 322 316
f 305 314 323 324
f 323 322 326 327
f 324 328 329 325
f 325 329 326 322
f 324 323 327 328
f 328 327 326 329
