# generado por tools/vox_to_obj.py desde maiz_v1.vox
mtllib maiz_v1.mtl
v -1.5000 0.0000 1.5000
v -1.5000 1.0000 1.5000
v -1.5000 1.0000 0.5000
v -1.5000 0.0000 0.5000
v -0.5000 0.0000 1.5000
v -0.5000 1.0000 1.5000
v -0.5000 1.0000 0.5000
v -0.5000 0.0000 0.5000
v -1.5000 1.0000 -0.5000
v -1.5000 0.0000 -0.5000
v -0.5000 1.0000 -0.5000
v -0.5000 0.0000 -0.5000
v -1.5000 1.0000 -1.5000
v -1.5000 0.0000 -1.5000
v -0.5000 1.0000 -1.5000
v -0.5000 0.0000 -1.5000
v 0.5000 0.0000 1.5000
v 0.5000 1.0000 1.5000
v 0.5000 1.0000 0.5000
v 0.5000 0.0000 0.5000
v 0.5000 0.0000 -0.5000
v 0.5000 1.0000 -1.5000
v 0.5000 0.0000 -1.5000
v 0.5000 1.0000 -0.5000
v 1.5000 0.0000 1.5000
v 1.5000 0.0000 0.5000
v 1.5000 1.0000 0.5000
v 1.5000 1.0000 1.5000
v 1.5000 0.0000 -0.5000
v 1.5000 1.0000 -0.5000
v 1.5000 0.0000 -1.5000
v 1.5000 1.0000 -1.5000
v 0.5000 2.0000 -0.5000
v 0.5000 2.0000 0.5000
v -0.5000 2.0000 0.5000
v -0.5000 2.0000 -0.5000
v 0.5000 3.0000 -0.5000
v 0.5000 3.0000 0.5000
v -0.5000 3.0000 0.5000
v -0.5000 3.0000 -0.5000
v -0.5000 4.0000 -0.5000
v 0.5000 4.0000 -0.5000
v 0.5000 4.0000 0.5000
v -0.5000 4.0000 0.5000
v 0.5000 5.0000 -0.5000
v 0.5000 5.0000 0.5000
v -0.5000 5.0000 0.5000
v -0.5000 5.0000 -0.5000
v -2.5000 3.0000 0.5000
v -2.5000 4.0000 0.5000
v -2.5000 4.0000 -0.5000
v -2.5000 3.0000 -0.5000
v -1.5000 4.0000 -0.5000
v -1.5000 3.0000 -0.5000
v -1.5000 3.0000 0.5000
v -1.5000 4.0000 0.5000
v 1.5000 4.0000 -0.5000
v 1.5000 3.0000 -0.5000
v 1.5000 3.0000 0.5000
v 1.5000 4.0000 0.5000
v 2.5000 3.0000 0.5000
v 2.5000 3.0000 -0.5000
v 2.5000 4.0000 -0.5000
v 2.5000 4.0000 0.5000
v -1.5000 5.0000 -0.5000
v -1.5000 5.0000 0.5000
v -2.5000 5.0000 0.5000
v -2.5000 5.0000 -0.5000
v 2.5000 5.0000 -0.5000
v 2.5000 5.0000 0.5000
v 1.5000 5.0000 0.5000
v 1.5000 5.0000 -0.5000
usemtl c1
f 19 24 33 34
f 7 35 36 11
f 11 36 33 24
f 7 19 34 35
f 34 33 37 38
f 35 39 40 36
f 36 40 37 33
f 35 34 38 39
f 40 41 42 37
f 39 38 43 44
f 43 42 45 46
f 44 47 48 41
f 41 48 45 42
f 44 43 46 47
f 47 46 45 48
usemtl c2
f 49 50 51 52
f 52 51 53 54
f 49 55 56 50
f 49 52 54 55
f 54 53 41 40
f 55 39 44 56
f 56 44 41 53
f 55 54 40 39
f 37 42 57 58
f 38 59 60 43
f 43 60 57 42
f 38 37 58 59
f 61 62 63 64
f 58 57 63 62
f 59 61 64 60
f 59 58 62 61
f 56 53 65 66
f 50 67 68 51
f 51 68 65 53
f 50 56 66 67
f 67 66 65 68
f 64 63 69 70
f 60 71 72 57
f 57 72 69 63
f 60 64 70 71
f 71 70 69 72
usemtl c3
f 1 2 3 4
f 1 5 6 2
f 2 6 7 3
f 1 4 8 5
f 4 3 9 10
f 3 7 11 9
f 4 10 12 8
f 10 9 13 14
f 14 13 15 16
f 9 11 15 13
f 10 14 16 12
f 5 17 18 6
f 6 18 19 7
f 5 8 20 17
f 8 12 21 20
f 16 15 22 23
f 11 24 22 15
f 12 16 23 21
f 25 26 27 28
f 17 25 28 18
f 18 28 27 19
f 17 20 26 25
f 26 29 30 27
f 19 27 30 24
f 20 21 29 26
f 29 31 32 30
f 23 22 32 31
f 24 30 32 22
f 21 23 31 29
