# generado por tools/vox_to_obj.py desde maiz_v3.vox
mtllib maiz_v3.mtl
v -3.0000 0.0000 3.0000
v -3.0000 1.0000 3.0000
v -3.0000 1.0000 2.0000
v -3.0000 0.0000 2.0000
v -2.0000 0.0000 3.0000
v -2.0000 1.0000 3.0000
v -2.0000 1.0000 2.0000
v -2.0000 0.0000 2.0000
v -3.0000 1.0000 1.0000
v -3.0000 0.0000 1.0000
v -2.0000 1.0000 1.0000
v -2.0000 0.0000 1.0000
v -3.0000 1.0000 0.0000
v -3.0000 0.0000 0.0000
v -2.0000 1.0000 0.0000
v -2.0000 0.0000 0.0000
v -3.0000 1.0000 -1.0000
v -3.0000 0.0000 -1.0000
v -2.0000 1.0000 -1.0000
v -2.0000 0.0000 -1.0000
v -3.0000 1.0000 -2.0000
v -3.0000 0.0000 -2.0000
v -2.0000 1.0000 -2.0000
v -2.0000 0.0000 -2.0000
v -3.0000 1.0000 -3.0000
v -3.0000 0.0000 -3.0000
v -2.0000 1.0000 -3.0000
v -2.0000 0.0000 -3.0000
v -1.0000 0.0000 3.0000
v -1.0000 1.0000 3.0000
v -1.0000 1.0000 2.0000
v -1.0000 0.0000 2.0000
v -1.0000 1.0000 1.0000
v -1.0000 0.0000 1.0000
v -1.0000 1.0000 0.0000
v -1.0000 0.0000 0.0000
v -1.0000 1.0000 -1.0000
v -1.0000 0.0000 -1.0000
v -1.0000 1.0000 -2.0000
v -1.0000 0.0000 -2.0000
v -1.0000 1.0000 -3.0000
v -1.0000 0.0000 -3.0000
v 0.0000 0.0000 3.0000
v 0.0000 1.0000 3.0000
v 0.0000 1.0000 2.0000
v 0.0000 0.0000 2.0000
v 0.0000 1.0000 1.0000
v 0.0000 0.0000 1.0000
v 0.0000 0.0000 0.0000
v 0.0000 0.0000 -1.0000
v 0.0000 1.0000 -1.0000
v 0.0000 1.0000 -2.0000
v 0.0000 0.0000 -2.0000
v 0.0000 1.0000 -3.0000
v 0.0000 0.0000 -3.0000
v 1.0000 0.0000 3.0000
v 1.0000 1.0000 3.0000
v 1.0000 1.0000 2.0000
v 1.0000 0.0000 2.0000
v 1.0000 1.0000 1.0000
v 1.0000 0.0000 1.0000
v 1.0000 0.0000 0.0000
v 1.0000 0.0000 -1.0000
v 1.0000 1.0000 -1.0000
v 1.0000 1.0000 -2.0000
v 1.0000 0.0000 -2.0000
v 1.0000 1.0000 -3.0000
v 1.0000 0.0000 -3.0000
v 2.0000 0.0000 3.0000
v 2.0000 1.0000 3.0000
v 2.0000 1.0000 2.0000
v 2.0000 0.0000 2.0000
v 2.0000 1.0000 1.0000
v 2.0000 0.0000 1.0000
v 2.0000 1.0000 0.0000
v 1.0000 1.0000 0.0000
v 2.0000 0.0000 0.0000
v 2.0000 1.0000 -1.0000
v 2.0000 0.0000 -1.0000
v 2.0000 1.0000 -2.0000
v 2.0000 0.0000 -2.0000
v 2.0000 1.0000 -3.0000
v 2.0000 0.0000 -3.0000
v 3.0000 0.0000 3.0000
v 3.0000 0.0000 2.0000
v 3.0000 1.0000 2.0000
v 3.0000 1.0000 3.0000
v 3.0000 0.0000 1.0000
v 3.0000 1.0000 1.0000
v 3.0000 0.0000 0.0000
v 3.0000 1.0000 0.0000
v 3.0000 0.0000 -1.0000
v 3.0000 1.0000 -1.0000
v 3.0000 0.0000 -2.0000
v 3.0000 1.0000 -2.0000
v 3.0000 0.0000 -3.0000
v 3.0000 1.0000 -3.0000
v -1.0000 2.0000 1.0000
v -1.0000 2.0000 0.0000
v 0.0000 2.0000 1.0000
v -1.0000 3.0000 1.0000
v -1.0000 3.0000 0.0000
v 0.0000 3.0000 1.0000
v -1.0000 4.0000 1.0000
v -1.0000 4.0000 0.0000
v 0.0000 4.0000 1.0000
v -1.0000 5.0000 1.0000
v -1.0000 5.0000 0.0000
v 0.0000 5.0000 1.0000
v -1.0000 6.0000 1.0000
v -1.0000 6.0000 0.0000
v 0.0000 6.0000 1.0000
v 0.0000 7.0000 1.0000
v -1.0000 7.0000 1.0000
v -1.0000 8.0000 1.0000
v -1.0000 8.0000 0.0000
v -1.0000 7.0000 0.0000
v 0.0000 8.0000 1.0000
v -1.0000 9.0000 1.0000
v -1.0000 9.0000 0.0000
v 0.0000 9.0000 1.0000
v -1.0000 10.0000 1.0000
v -1.0000 10.0000 0.0000
v 0.0000 10.0000 1.0000
v -1.0000 11.0000 1.0000
v -1.0000 11.0000 0.0000
v 0.0000 11.0000 1.0000
v -1.0000 12.0000 1.0000
v -1.0000 12.0000 0.0000
v 0.0000 12.0000 1.0000
v 0.0000 13.0000 1.0000
v -1.0000 13.0000 1.0000
v -1.0000 14.0000 1.0000
v -1.0000 14.0000 0.0000
v -1.0000 13.0000 0.0000
v -1.0000 15.0000 1.0000
v -1.0000 15.0000 0.0000
v -1.0000 16.0000 1.0000
v -1.0000 16.0000 0.0000
v -1.0000 17.0000 1.0000
v -1.0000 17.0000 0.0000
v -1.0000 18.0000 1.0000
v -1.0000 18.0000 0.0000
v -1.0000 19.0000 1.0000
v -1.0000 20.0000 1.0000
v -1.0000 20.0000 0.0000
v -1.0000 19.0000 0.0000
v -1.0000 21.0000 1.0000
v -1.0000 21.0000 0.0000
v -1.0000 2.0000 -1.0000
v 0.0000 2.0000 -1.0000
v -1.0000 3.0000 -1.0000
v 0.0000 3.0000 -1.0000
v -1.0000 4.0000 -1.0000
v 0.0000 4.0000 -1.0000
v -1.0000 5.0000 -1.0000
v 0.0000 5.0000 -1.0000
v -1.0000 6.0000 -1.0000
v 0.0000 6.0000 -1.0000
v -1.0000 7.0000 -1.0000
v 0.0000 7.0000 -1.0000
v -1.0000 8.0000 -1.0000
v 0.0000 8.0000 -1.0000
v -1.0000 9.0000 -1.0000
v 0.0000 9.0000 -1.0000
v -1.0000 10.0000 -1.0000
v -1.0000 11.0000 -1.0000
v -1.0000 12.0000 -1.0000
v -1.0000 14.0000 -1.0000
v -1.0000 13.0000 -1.0000
v -1.0000 15.0000 -1.0000
v -1.0000 16.0000 -1.0000
v -1.0000 17.0000 -1.0000
v -1.0000 18.0000 -1.0000
v 0.0000 18.0000 -1.0000
v 0.0000 17.0000 -1.0000
v -1.0000 19.0000 -1.0000
v 0.0000 19.0000 -1.0000
v -1.0000 20.0000 -1.0000
v 0.0000 20.0000 -1.0000
v -1.0000 21.0000 -1.0000
v 0.0000 21.0000 -1.0000
v 1.0000 2.0000 0.0000
v 1.0000 2.0000 1.0000
v 1.0000 3.0000 0.0000
v 1.0000 3.0000 1.0000
v 1.0000 4.0000 0.0000
v 1.0000 4.0000 1.0000
v 1.0000 5.0000 0.0000
v 1.0000 5.0000 1.0000
v 1.0000 6.0000 0.0000
v 1.0000 6.0000 1.0000
v 1.0000 7.0000 0.0000
v 1.0000 7.0000 1.0000
v 1.0000 8.0000 0.0000
v 1.0000 8.0000 1.0000
v 1.0000 9.0000 0.0000
v 1.0000 9.0000 1.0000
v 1.0000 10.0000 1.0000
v 1.0000 10.0000 0.0000
v 1.0000 11.0000 0.0000
v 1.0000 11.0000 1.0000
v 1.0000 12.0000 0.0000
v 1.0000 12.0000 1.0000
v 1.0000 13.0000 0.0000
v 1.0000 13.0000 1.0000
v 1.0000 14.0000 0.0000
v 1.0000 14.0000 1.0000
v 1.0000 15.0000 0.0000
v 1.0000 15.0000 1.0000
v 1.0000 16.0000 1.0000
v 1.0000 16.0000 0.0000
v 1.0000 17.0000 0.0000
v 1.0000 17.0000 1.0000
v 1.0000 18.0000 0.0000
v 1.0000 18.0000 1.0000
v 1.0000 19.0000 0.0000
v 1.0000 19.0000 1.0000
v 1.0000 20.0000 0.0000
v 1.0000 20.0000 1.0000
v 1.0000 2.0000 -1.0000
v 1.0000 3.0000 -1.0000
v 1.0000 4.0000 -1.0000
v 1.0000 5.0000 -1.0000
v 1.0000 6.0000 -1.0000
v 1.0000 7.0000 -1.0000
v 1.0000 8.0000 -1.0000
v 1.0000 9.0000 -1.0000
v 1.0000 10.0000 -1.0000
v 1.0000 11.0000 -1.0000
v 1.0000 12.0000 -1.0000
v 1.0000 13.0000 -1.0000
v 1.0000 14.0000 -1.0000
v 1.0000 15.0000 -1.0000
v 1.0000 16.0000 -1.0000
v 1.0000 17.0000 -1.0000
v 1.0000 18.0000 -1.0000
v 1.0000 19.0000 -1.0000
v 1.0000 20.0000 -1.0000
v 1.0000 21.0000 -1.0000
v -7.0000 6.0000 2.0000
v -7.0000 7.0000 2.0000
v -7.0000 7.0000 1.0000
v -7.0000 6.0000 1.0000
v -6.0000 6.0000 2.0000
v -6.0000 7.0000 2.0000
v -6.0000 7.0000 1.0000
v -7.0000 7.0000 0.0000
v -7.0000 6.0000 0.0000
v -6.0000 7.0000 0.0000
v -7.0000 7.0000 -1.0000
v -7.0000 6.0000 -1.0000
v -6.0000 7.0000 -1.0000
v -6.0000 6.0000 -1.0000
v -5.0000 6.0000 2.0000
v -5.0000 7.0000 2.0000
v -5.0000 7.0000 1.0000
v -6.0000 6.0000 1.0000
v -5.0000 6.0000 1.0000
v -5.0000 7.0000 0.0000
v -6.0000 6.0000 0.0000
v -5.0000 6.0000 0.0000
v -5.0000 7.0000 -1.0000
v -5.0000 6.0000 -1.0000
v -4.0000 6.0000 2.0000
v -4.0000 7.0000 2.0000
v -4.0000 7.0000 1.0000
v -4.0000 6.0000 1.0000
v -4.0000 7.0000 0.0000
v -4.0000 6.0000 0.0000
v -4.0000 7.0000 -1.0000
v -4.0000 6.0000 -1.0000
v -3.0000 6.0000 2.0000
v -3.0000 7.0000 2.0000
v -3.0000 7.0000 1.0000
v -3.0000 6.0000 1.0000
v -3.0000 7.0000 0.0000
v -3.0000 6.0000 0.0000
v -3.0000 7.0000 -1.0000
v -3.0000 6.0000 -1.0000
v -2.0000 6.0000 2.0000
v -2.0000 7.0000 2.0000
v -2.0000 7.0000 1.0000
v -2.0000 6.0000 1.0000
v -2.0000 7.0000 0.0000
v -2.0000 6.0000 0.0000
v -2.0000 7.0000 -1.0000
v -2.0000 6.0000 -1.0000
v -1.0000 6.0000 2.0000
v -1.0000 7.0000 2.0000
v -6.0000 5.0000 2.0000
v -6.0000 5.0000 1.0000
v -7.0000 5.0000 2.0000
v -7.0000 5.0000 1.0000
v -6.0000 5.0000 0.0000
v -7.0000 5.0000 0.0000
v -6.0000 5.0000 -1.0000
v -7.0000 5.0000 -1.0000
v 1.0000 9.0000 2.0000
v 1.0000 10.0000 2.0000
v 2.0000 9.0000 2.0000
v 2.0000 10.0000 2.0000
v 2.0000 10.0000 1.0000
v 2.0000 9.0000 1.0000
v 2.0000 10.0000 0.0000
v 2.0000 9.0000 0.0000
v 2.0000 10.0000 -1.0000
v 2.0000 9.0000 -1.0000
v 3.0000 9.0000 2.0000
v 3.0000 10.0000 2.0000
v 3.0000 10.0000 1.0000
v 3.0000 9.0000 1.0000
v 3.0000 10.0000 0.0000
v 3.0000 9.0000 0.0000
v 3.0000 10.0000 -1.0000
v 3.0000 9.0000 -1.0000
v 4.0000 9.0000 2.0000
v 4.0000 10.0000 2.0000
v 4.0000 10.0000 1.0000
v 4.0000 9.0000 1.0000
v 4.0000 10.0000 0.0000
v 4.0000 9.0000 0.0000
v 4.0000 10.0000 -1.0000
v 4.0000 9.0000 -1.0000
v 5.0000 9.0000 2.0000
v 5.0000 10.0000 2.0000
v 5.0000 10.0000 1.0000
v 5.0000 9.0000 1.0000
v 5.0000 10.0000 0.0000
v 5.0000 9.0000 0.0000
v 5.0000 10.0000 -1.0000
v 5.0000 9.0000 -1.0000
v 6.0000 9.0000 2.0000
v 6.0000 10.0000 2.0000
v 6.0000 10.0000 1.0000
v 6.0000 9.0000 1.0000
v 6.0000 10.0000 0.0000
v 6.0000 9.0000 0.0000
v 6.0000 10.0000 -1.0000
v 6.0000 9.0000 -1.0000
v 7.0000 9.0000 2.0000
v 7.0000 9.0000 1.0000
v 7.0000 10.0000 1.0000
v 7.0000 10.0000 2.0000
v 7.0000 9.0000 0.0000
v 7.0000 10.0000 0.0000
v 7.0000 9.0000 -1.0000
v 7.0000 10.0000 -1.0000
v 7.0000 8.0000 2.0000
v 7.0000 8.0000 1.0000
v 6.0000 8.0000 2.0000
v 6.0000 8.0000 1.0000
v 7.0000 8.0000 0.0000
v 6.0000 8.0000 0.0000
v 7.0000 8.0000 -1.0000
v 6.0000 8.0000 -1.0000
v -7.0000 12.0000 2.0000
v -7.0000 13.0000 2.0000
v -7.0000 13.0000 1.0000
v -7.0000 12.0000 1.0000
v -6.0000 12.0000 2.0000
v -6.0000 13.0000 2.0000
v -6.0000 13.0000 1.0000
v -7.0000 13.0000 0.0000
v -7.0000 12.0000 0.0000
v -6.0000 13.0000 0.0000
v -7.0000 13.0000 -1.0000
v -7.0000 12.0000 -1.0000
v -6.0000 13.0000 -1.0000
v -6.0000 12.0000 -1.0000
v -5.0000 12.0000 2.0000
v -5.0000 13.0000 2.0000
v -5.0000 13.0000 1.0000
v -6.0000 12.0000 1.0000
v -5.0000 12.0000 1.0000
v -5.0000 13.0000 0.0000
v -6.0000 12.0000 0.0000
v -5.0000 12.0000 0.0000
v -5.0000 13.0000 -1.0000
v -5.0000 12.0000 -1.0000
v -4.0000 12.0000 2.0000
v -4.0000 13.0000 2.0000
v -4.0000 13.0000 1.0000
v -4.0000 12.0000 1.0000
v -4.0000 13.0000 0.0000
v -4.0000 12.0000 0.0000
v -4.0000 13.0000 -1.0000
v -4.0000 12.0000 -1.0000
v -3.0000 12.0000 2.0000
v -3.0000 13.0000 2.0000
v -3.0000 13.0000 1.0000
v -3.0000 12.0000 1.0000
v -3.0000 13.0000 0.0000
v -3.0000 12.0000 0.0000
v -3.0000 13.0000 -1.0000
v -3.0000 12.0000 -1.0000
v -2.0000 12.0000 2.0000
v -2.0000 13.0000 2.0000
v -2.0000 13.0000 1.0000
v -2.0000 12.0000 1.0000
v -2.0000 13.0000 0.0000
v -2.0000 12.0000 0.0000
v -2.0000 13.0000 -1.0000
v -2.0000 12.0000 -1.0000
v -1.0000 12.0000 2.0000
v -1.0000 13.0000 2.0000
v -6.0000 11.0000 2.0000
v -6.0000 11.0000 1.0000
v -7.0000 11.0000 2.0000
v -7.0000 11.0000 1.0000
v -6.0000 11.0000 0.0000
v -7.0000 11.0000 0.0000
v -6.0000 11.0000 -1.0000
v -7.0000 11.0000 -1.0000
v 2.0000 16.0000 1.0000
v 2.0000 16.0000 0.0000
v 2.0000 15.0000 0.0000
v 2.0000 15.0000 1.0000
v 2.0000 16.0000 -1.0000
v 2.0000 15.0000 -1.0000
v 2.0000 15.0000 2.0000
v 3.0000 15.0000 2.0000
v 3.0000 16.0000 2.0000
v 2.0000 16.0000 2.0000
v 3.0000 16.0000 1.0000
v 3.0000 15.0000 1.0000
v 3.0000 16.0000 0.0000
v 3.0000 15.0000 0.0000
v 3.0000 16.0000 -1.0000
v 3.0000 15.0000 -1.0000
v 4.0000 15.0000 2.0000
v 4.0000 16.0000 2.0000
v 4.0000 16.0000 1.0000
v 4.0000 15.0000 1.0000
v 4.0000 16.0000 0.0000
v 4.0000 15.0000 0.0000
v 4.0000 16.0000 -1.0000
v 4.0000 15.0000 -1.0000
v 5.0000 15.0000 2.0000
v 5.0000 16.0000 2.0000
v 5.0000 16.0000 1.0000
v 5.0000 15.0000 1.0000
v 5.0000 16.0000 0.0000
v 5.0000 15.0000 0.0000
v 5.0000 16.0000 -1.0000
v 5.0000 15.0000 -1.0000
v 6.0000 15.0000 2.0000
v 6.0000 16.0000 2.0000
v 6.0000 16.0000 1.0000
v 6.0000 15.0000 1.0000
v 6.0000 16.0000 0.0000
v 6.0000 15.0000 0.0000
v 6.0000 16.0000 -1.0000
v 6.0000 15.0000 -1.0000
v 7.0000 15.0000 2.0000
v 7.0000 15.0000 1.0000
v 7.0000 16.0000 1.0000
v 7.0000 16.0000 2.0000
v 7.0000 15.0000 0.0000
v 7.0000 16.0000 0.0000
v 7.0000 15.0000 -1.0000
v 7.0000 16.0000 -1.0000
v 7.0000 14.0000 2.0000
v 7.0000 14.0000 1.0000
v 6.0000 14.0000 2.0000
v 6.0000 14.0000 1.0000
v 7.0000 14.0000 0.0000
v 6.0000 14.0000 0.0000
v 7.0000 14.0000 -1.0000
v 6.0000 14.0000 -1.0000
v -7.0000 18.0000 2.0000
v -7.0000 19.0000 2.0000
v -7.0000 19.0000 1.0000
v -7.0000 18.0000 1.0000
v -6.0000 18.0000 2.0000
v -6.0000 19.0000 2.0000
v -6.0000 19.0000 1.0000
v -7.0000 19.0000 0.0000
v -7.0000 18.0000 0.0000
v -6.0000 19.0000 0.0000
v -7.0000 19.0000 -1.0000
v -7.0000 18.0000 -1.0000
v -6.0000 19.0000 -1.0000
v -6.0000 18.0000 -1.0000
v -5.0000 18.0000 2.0000
v -5.0000 19.0000 2.0000
v -5.0000 19.0000 1.0000
v -6.0000 18.0000 1.0000
v -5.0000 18.0000 1.0000
v -5.0000 19.0000 0.0000
v -6.0000 18.0000 0.0000
v -5.0000 18.0000 0.0000
v -5.0000 19.0000 -1.0000
v -5.0000 18.0000 -1.0000
v -4.0000 18.0000 2.0000
v -4.0000 19.0000 2.0000
v -4.0000 19.0000 1.0000
v -4.0000 18.0000 1.0000
v -4.0000 19.0000 0.0000
v -4.0000 18.0000 0.0000
v -4.0000 19.0000 -1.0000
v -4.0000 18.0000 -1.0000
v -3.0000 18.0000 2.0000
v -3.0000 19.0000 2.0000
v -3.0000 19.0000 1.0000
v -3.0000 18.0000 1.0000
v -3.0000 19.0000 0.0000
v -3.0000 18.0000 0.0000
v -3.0000 19.0000 -1.0000
v -3.0000 18.0000 -1.0000
v -2.0000 18.0000 2.0000
v -2.0000 19.0000 2.0000
v -2.0000 19.0000 1.0000
v -2.0000 18.0000 1.0000
v -2.0000 19.0000 0.0000
v -2.0000 18.0000 0.0000
v -2.0000 19.0000 -1.0000
v -2.0000 18.0000 -1.0000
v -1.0000 18.0000 2.0000
v -1.0000 19.0000 2.0000
v -6.0000 17.0000 2.0000
v -6.0000 17.0000 1.0000
v -7.0000 17.0000 2.0000
v -7.0000 17.0000 1.0000
v -6.0000 17.0000 0.0000
v -7.0000 17.0000 0.0000
v -6.0000 17.0000 -1.0000
v -7.0000 17.0000 -1.0000
v 2.0000 20.0000 0.0000
v 2.0000 20.0000 1.0000
v 2.0000 21.0000 -1.0000
v 2.0000 20.0000 -1.0000
v 2.0000 20.0000 2.0000
v 3.0000 20.0000 2.0000
v 3.0000 21.0000 2.0000
v 2.0000 21.0000 2.0000
v 3.0000 21.0000 1.0000
v 2.0000 21.0000 1.0000
v 3.0000 20.0000 1.0000
v 3.0000 21.0000 0.0000
v 2.0000 21.0000 0.0000
v 3.0000 20.0000 0.0000
v 3.0000 21.0000 -1.0000
v 3.0000 20.0000 -1.0000
v 4.0000 20.0000 2.0000
v 4.0000 21.0000 2.0000
v 4.0000 21.0000 1.0000
v 4.0000 20.0000 1.0000
v 4.0000 21.0000 0.0000
v 4.0000 20.0000 0.0000
v 4.0000 21.0000 -1.0000
v 4.0000 20.0000 -1.0000
v 5.0000 20.0000 2.0000
v 5.0000 21.0000 2.0000
v 5.0000 21.0000 1.0000
v 5.0000 20.0000 1.0000
v 5.0000 21.0000 0.0000
v 5.0000 20.0000 0.0000
v 5.0000 21.0000 -1.0000
v 5.0000 20.0000 -1.0000
v 6.0000 20.0000 2.0000
v 6.0000 21.0000 2.0000
v 6.0000 21.0000 1.0000
v 6.0000 20.0000 1.0000
v 6.0000 21.0000 0.0000
v 6.0000 20.0000 0.0000
v 6.0000 21.0000 -1.0000
v 6.0000 20.0000 -1.0000
v 7.0000 20.0000 2.0000
v 7.0000 20.0000 1.0000
v 7.0000 21.0000 1.0000
v 7.0000 21.0000 2.0000
v 7.0000 20.0000 0.0000
v 7.0000 21.0000 0.0000
v 7.0000 20.0000 -1.0000
v 7.0000 21.0000 -1.0000
v 7.0000 19.0000 2.0000
v 7.0000 19.0000 1.0000
v 6.0000 19.0000 2.0000
v 6.0000 19.0000 1.0000
v 7.0000 19.0000 0.0000
v 6.0000 19.0000 0.0000
v 7.0000 19.0000 -1.0000
v 6.0000 19.0000 -1.0000
v -1.0000 10.0000 -2.0000
v -1.0000 9.0000 -2.0000
v 0.0000 9.0000 -2.0000
v -1.0000 11.0000 -2.0000
v -1.0000 12.0000 -2.0000
v -1.0000 13.0000 -2.0000
v -1.0000 14.0000 -2.0000
v -1.0000 15.0000 -2.0000
v -1.0000 16.0000 -2.0000
v -1.0000 17.0000 -2.0000
v 0.0000 17.0000 -2.0000
v -1.0000 10.0000 -3.0000
v -1.0000 9.0000 -3.0000
v 0.0000 9.0000 -3.0000
v -1.0000 11.0000 -3.0000
v -1.0000 12.0000 -3.0000
v -1.0000 13.0000 -3.0000
v -1.0000 14.0000 -3.0000
v -1.0000 15.0000 -3.0000
v -1.0000 16.0000 -3.0000
v -1.0000 17.0000 -3.0000
v 0.0000 17.0000 -3.0000
v -1.0000 10.0000 -4.0000
v -1.0000 9.0000 -4.0000
v 0.0000 9.0000 -4.0000
v -1.0000 11.0000 -4.0000
v -1.0000 12.0000 -4.0000
v -1.0000 13.0000 -4.0000
v -1.0000 14.0000 -4.0000
v 0.0000 14.0000 -4.0000
v 0.0000 13.0000 -4.0000
v -1.0000 15.0000 -4.0000
v 0.0000 15.0000 -4.0000
v -1.0000 16.0000 -4.0000
v 0.0000 16.0000 -4.0000
v -1.0000 17.0000 -4.0000
v 0.0000 17.0000 -4.0000
v 1.0000 9.0000 -2.0000
v 1.0000 17.0000 -2.0000
v 1.0000 9.0000 -3.0000
v 1.0000 17.0000 -3.0000
v 1.0000 9.0000 -4.0000
v 1.0000 14.0000 -4.0000
v 1.0000 13.0000 -4.0000
v 1.0000 15.0000 -4.0000
v 1.0000 16.0000 -4.0000
v 1.0000 17.0000 -4.0000
v 2.0000 9.0000 -2.0000
v 2.0000 10.0000 -2.0000
v 2.0000 11.0000 -2.0000
v 2.0000 11.0000 -1.0000
v 2.0000 12.0000 -2.0000
v 2.0000 12.0000 -1.0000
v 2.0000 13.0000 -2.0000
v 2.0000 13.0000 -1.0000
v 2.0000 14.0000 -2.0000
v 2.0000 14.0000 -1.0000
v 2.0000 15.0000 -2.0000
v 2.0000 16.0000 -2.0000
v 2.0000 17.0000 -2.0000
v 2.0000 17.0000 -1.0000
v 2.0000 9.0000 -3.0000
v 2.0000 10.0000 -3.0000
v 2.0000 11.0000 -3.0000
v 2.0000 12.0000 -3.0000
v 2.0000 13.0000 -3.0000
v 2.0000 14.0000 -3.0000
v 2.0000 15.0000 -3.0000
v 2.0000 16.0000 -3.0000
v 2.0000 17.0000 -3.0000
v 2.0000 9.0000 -4.0000
v 2.0000 10.0000 -4.0000
v 2.0000 11.0000 -4.0000
v 2.0000 12.0000 -4.0000
v 2.0000 13.0000 -4.0000
v 2.0000 14.0000 -4.0000
v 2.0000 15.0000 -4.0000
v 2.0000 16.0000 -4.0000
v 2.0000 17.0000 -4.0000
v -1.0000 10.0000 -5.0000
v -1.0000 9.0000 -5.0000
v 0.0000 10.0000 -5.0000
v 0.0000 9.0000 -5.0000
v -1.0000 11.0000 -5.0000
v 0.0000 11.0000 -5.0000
v -1.0000 12.0000 -5.0000
v 0.0000 12.0000 -5.0000
v -1.0000 13.0000 -5.0000
v 0.0000 13.0000 -5.0000
v 1.0000 10.0000 -5.0000
v 1.0000 9.0000 -5.0000
v 1.0000 11.0000 -5.0000
v 1.0000 12.0000 -5.0000
v 1.0000 13.0000 -5.0000
v 2.0000 9.0000 -5.0000
v 2.0000 10.0000 -5.0000
v 2.0000 11.0000 -5.0000
v 2.0000 12.0000 -5.0000
v 2.0000 13.0000 -5.0000
v -1.0000 13.0000 4.0000
v -1.0000 14.0000 4.0000
v -1.0000 14.0000 3.0000
v -1.0000 13.0000 3.0000
v 0.0000 13.0000 4.0000
v 0.0000 14.0000 4.0000
v 0.0000 13.0000 3.0000
v -1.0000 15.0000 4.0000
v -1.0000 15.0000 3.0000
v 0.0000 15.0000 4.0000
v -1.0000 16.0000 4.0000
v -1.0000 16.0000 3.0000
v 0.0000 16.0000 4.0000
v -1.0000 17.0000 4.0000
v -1.0000 17.0000 3.0000
v -1.0000 18.0000 4.0000
v -1.0000 18.0000 3.0000
v -1.0000 19.0000 4.0000
v -1.0000 19.0000 3.0000
v -1.0000 20.0000 4.0000
v -1.0000 20.0000 3.0000
v -1.0000 21.0000 4.0000
v -1.0000 21.0000 3.0000
v 0.0000 21.0000 4.0000
v 0.0000 21.0000 3.0000
v -1.0000 14.0000 2.0000
v 0.0000 13.0000 2.0000
v -1.0000 15.0000 2.0000
v -1.0000 16.0000 2.0000
v -1.0000 17.0000 2.0000
v -1.0000 20.0000 2.0000
v -1.0000 21.0000 2.0000
v 1.0000 13.0000 4.0000
v 1.0000 14.0000 4.0000
v 1.0000 13.0000 3.0000
v 1.0000 15.0000 4.0000
v 1.0000 16.0000 4.0000
v 1.0000 21.0000 4.0000
v 1.0000 21.0000 3.0000
v 1.0000 13.0000 2.0000
v 2.0000 13.0000 4.0000
v 2.0000 13.0000 3.0000
v 2.0000 14.0000 3.0000
v 2.0000 14.0000 4.0000
v 2.0000 15.0000 3.0000
v 2.0000 15.0000 4.0000
v 2.0000 16.0000 3.0000
v 2.0000 16.0000 4.0000
v 2.0000 17.0000 3.0000
v 2.0000 17.0000 4.0000
v 2.0000 18.0000 3.0000
v 2.0000 18.0000 4.0000
v 2.0000 19.0000 3.0000
v 2.0000 19.0000 4.0000
v 2.0000 20.0000 3.0000
v 2.0000 20.0000 4.0000
v 2.0000 21.0000 3.0000
v 2.0000 21.0000 4.0000
v 2.0000 13.0000 2.0000
v 2.0000 14.0000 2.0000
v 2.0000 17.0000 2.0000
v 2.0000 18.0000 2.0000
v 2.0000 19.0000 2.0000
v 2.0000 13.0000 1.0000
v 2.0000 14.0000 1.0000
v 2.0000 17.0000 1.0000
v 2.0000 18.0000 1.0000
v 2.0000 19.0000 1.0000
v -1.0000 16.0000 5.0000
v -1.0000 17.0000 5.0000
v 0.0000 16.0000 5.0000
v 0.0000 17.0000 5.0000
v -1.0000 18.0000 5.0000
v 0.0000 18.0000 5.0000
v -1.0000 19.0000 5.0000
v 0.0000 19.0000 5.0000
v -1.0000 20.0000 5.0000
v 0.0000 20.0000 5.0000
v -1.0000 21.0000 5.0000
v 0.0000 21.0000 5.0000
v 1.0000 16.0000 5.0000
v 1.0000 17.0000 5.0000
v 1.0000 18.0000 5.0000
v 1.0000 19.0000 5.0000
v 1.0000 20.0000 5.0000
v 1.0000 21.0000 5.0000
v 2.0000 16.0000 5.0000
v 2.0000 17.0000 5.0000
v 2.0000 18.0000 5.0000
v 2.0000 19.0000 5.0000
v 2.0000 20.0000 5.0000
v 2.0000 21.0000 5.0000
v -3.0000 21.0000 3.0000
v -3.0000 22.0000 3.0000
v -3.0000 22.0000 2.0000
v -3.0000 21.0000 2.0000
v -2.0000 21.0000 3.0000
v -2.0000 22.0000 3.0000
v -2.0000 22.0000 2.0000
v -2.0000 21.0000 2.0000
v -3.0000 22.0000 1.0000
v -3.0000 21.0000 1.0000
v -2.0000 22.0000 1.0000
v -2.0000 21.0000 1.0000
v -3.0000 22.0000 0.0000
v -3.0000 21.0000 0.0000
v -2.0000 22.0000 0.0000
v -2.0000 21.0000 0.0000
v -3.0000 22.0000 -1.0000
v -3.0000 21.0000 -1.0000
v -2.0000 22.0000 -1.0000
v -2.0000 21.0000 -1.0000
v -3.0000 22.0000 -2.0000
v -3.0000 21.0000 -2.0000
v -2.0000 22.0000 -2.0000
v -2.0000 21.0000 -2.0000
v -1.0000 22.0000 3.0000
v -1.0000 22.0000 2.0000
v -1.0000 22.0000 1.0000
v -1.0000 22.0000 0.0000
v -1.0000 22.0000 -1.0000
v -1.0000 22.0000 -2.0000
v -1.0000 21.0000 -2.0000
v 0.0000 22.0000 3.0000
v 0.0000 22.0000 2.0000
v 0.0000 22.0000 1.0000
v 0.0000 22.0000 0.0000
v 0.0000 22.0000 -1.0000
v 0.0000 22.0000 -2.0000
v 0.0000 21.0000 -2.0000
v 1.0000 22.0000 3.0000
v 1.0000 22.0000 2.0000
v 1.0000 22.0000 1.0000
v 1.0000 22.0000 0.0000
v 1.0000 22.0000 -1.0000
v 1.0000 22.0000 -2.0000
v 1.0000 21.0000 -2.0000
v 2.0000 22.0000 2.0000
v 2.0000 22.0000 3.0000
v 2.0000 22.0000 1.0000
v 2.0000 22.0000 0.0000
v 2.0000 22.0000 -1.0000
v 2.0000 21.0000 -2.0000
v 2.0000 22.0000 -2.0000
v 0.0000 23.0000 0.0000
v 0.0000 23.0000 1.0000
v -1.0000 23.0000 1.0000
v -1.0000 23.0000 0.0000
v 0.0000 24.0000 0.0000
v 0.0000 24.0000 1.0000
v -1.0000 24.0000 1.0000
v -1.0000 24.0000 0.0000
v 0.0000 25.0000 0.0000
v 0.0000 25.0000 1.0000
v -1.0000 25.0000 1.0000
v -1.0000 25.0000 0.0000
usemtl c9
f 33 98 99 35
f 33 47 100 98
f 98 101 102 99
f 98 100 103 101
f 101 104 105 102
f 101 103 106 104
f 104 107 108 105
f 104 106 109 107
f 107 110 111 108
f 107 109 112 110
f 110 112 113 114
f 114 115 116 117
f 114 113 118 115
f 115 119 120 116
f 115 118 121 119
f 119 122 123 120
f 119 121 124 122
f 122 125 126 123
f 122 124 127 125
f 125 128 129 126
f 125 127 130 128
f 128 130 131 132
f 132 133 134 135
f 133 136 137 134
f 136 138 139 137
f 138 140 141 139
f 140 142 143 141
f 144 145 146 147
f 145 148 149 146
f 35 99 150 37
f 37 150 151 51
f 99 102 152 150
f 150 152 153 151
f 102 105 154 152
f 152 154 155 153
f 105 108 156 154
f 154 156 157 155
f 108 111 158 156
f 156 158 159 157
f 158 160 161 159
f 117 116 162 160
f 160 162 163 161
f 116 120 164 162
f 162 164 165 163
f 120 123 166 164
f 123 126 167 166
f 126 129 168 167
f 135 134 169 170
f 134 137 171 169
f 137 139 172 171
f 139 141 173 172
f 141 143 174 173
f 173 174 175 176
f 174 177 178 175
f 147 146 179 177
f 177 179 180 178
f 146 149 181 179
f 179 181 182 180
f 60 76 183 184
f 47 60 184 100
f 184 183 185 186
f 100 184 186 103
f 186 185 187 188
f 103 186 188 106
f 188 187 189 190
f 106 188 190 109
f 190 189 191 192
f 109 190 192 112
f 192 191 193 194
f 112 192 194 113
f 194 193 195 196
f 113 194 196 118
f 196 195 197 198
f 118 196 198 121
f 121 198 199 124
f 199 200 201 202
f 124 199 202 127
f 202 201 203 204
f 127 202 204 130
f 204 203 205 206
f 130 204 206 131
f 206 205 207 208
f 208 207 209 210
f 211 212 213 214
f 214 213 215 216
f 216 215 217 218
f 218 217 219 220
f 76 64 221 183
f 51 151 221 64
f 183 221 222 185
f 151 153 222 221
f 185 222 223 187
f 153 155 223 222
f 187 223 224 189
f 155 157 224 223
f 189 224 225 191
f 157 159 225 224
f 191 225 226 193
f 159 161 226 225
f 193 226 227 195
f 161 163 227 226
f 195 227 228 197
f 163 165 228 227
f 200 229 230 201
f 201 230 231 203
f 203 231 232 205
f 205 232 233 207
f 207 233 234 209
f 212 235 236 213
f 213 236 237 215
f 176 175 237 236
f 215 237 238 217
f 175 178 238 237
f 217 238 239 219
f 178 180 239 238
f 180 182 240 239
usemtl c10
f 241 242 243 244
f 241 245 246 242
f 242 246 247 243
f 244 243 248 249
f 243 247 250 248
f 249 248 251 252
f 252 251 253 254
f 248 250 253 251
f 245 255 256 246
f 246 256 257 247
f 245 258 259 255
f 247 257 260 250
f 258 261 262 259
f 254 253 263 264
f 250 260 263 253
f 261 254 264 262
f 255 265 266 256
f 256 266 267 257
f 255 259 268 265
f 257 267 269 260
f 259 262 270 268
f 264 263 271 272
f 260 269 271 263
f 262 264 272 270
f 265 273 274 266
f 266 274 275 267
f 265 268 276 273
f 267 275 277 269
f 268 270 278 276
f 272 271 279 280
f 269 277 279 271
f 270 272 280 278
f 273 281 282 274
f 274 282 283 275
f 273 276 284 281
f 275 283 285 277
f 276 278 286 284
f 280 279 287 288
f 277 285 287 279
f 278 280 288 286
f 289 110 114 290
f 281 289 290 282
f 282 290 114 283
f 281 284 110 289
f 283 114 117 285
f 284 286 111 110
f 288 287 160 158
f 285 117 160 287
f 286 288 158 111
f 291 292 258 245
f 293 241 244 294
f 293 291 245 241
f 293 294 292 291
f 292 295 261 258
f 294 244 249 296
f 294 296 295 292
f 295 297 254 261
f 296 249 252 298
f 298 252 254 297
f 296 298 297 295
f 299 300 199 198
f 299 301 302 300
f 300 302 303 199
f 299 198 304 301
f 199 303 305 200
f 198 197 306 304
f 200 305 307 229
f 197 228 308 306
f 301 309 310 302
f 302 310 311 303
f 301 304 312 309
f 303 311 313 305
f 304 306 314 312
f 308 307 315 316
f 305 313 315 307
f 306 308 316 314
f 309 317 318 310
f 310 318 319 311
f 309 312 320 317
f 311 319 321 313
f 312 314 322 320
f 316 315 323 324
f 313 321 323 315
f 314 316 324 322
f 317 325 326 318
f 318 326 327 319
f 317 320 328 325
f 319 327 329 321
f 320 322 330 328
f 324 323 331 332
f 321 329 331 323
f 322 324 332 330
f 325 333 334 326
f 326 334 335 327
f 325 328 336 333
f 327 335 337 329
f 328 330 338 336
f 332 331 339 340
f 329 337 339 331
f 330 332 340 338
f 341 342 343 344
f 333 341 344 334
f 334 344 343 335
f 342 345 346 343
f 335 343 346 337
f 345 347 348 346
f 340 339 348 347
f 337 346 348 339
f 349 350 342 341
f 351 333 336 352
f 351 349 341 333
f 351 352 350 349
f 350 353 345 342
f 352 336 338 354
f 352 354 353 350
f 353 355 347 345
f 354 338 340 356
f 356 340 347 355
f 354 356 355 353
f 357 358 359 360
f 357 361 362 358
f 358 362 363 359
f 360 359 364 365
f 359 363 366 364
f 365 364 367 368
f 368 367 369 370
f 364 366 369 367
f 361 371 372 362
f 362 372 373 363
f 361 374 375 371
f 363 373 376 366
f 374 377 378 375
f 370 369 379 380
f 366 376 379 369
f 377 370 380 378
f 371 381 382 372
f 372 382 383 373
f 371 375 384 381
f 373 383 385 376
f 375 378 386 384
f 380 379 387 388
f 376 385 387 379
f 378 380 388 386
f 381 389 390 382
f 382 390 391 383
f 381 384 392 389
f 383 391 393 385
f 384 386 394 392
f 388 387 395 396
f 385 393 395 387
f 386 388 396 394
f 389 397 398 390
f 390 398 399 391
f 389 392 400 397
f 391 399 401 393
f 392 394 402 400
f 396 395 403 404
f 393 401 403 395
f 394 396 404 402
f 405 128 132 406
f 397 405 406 398
f 398 406 132 399
f 397 400 128 405
f 399 132 135 401
f 400 402 129 128
f 404 403 170 168
f 401 135 170 403
f 402 404 168 129
f 407 408 374 361
f 409 357 360 410
f 409 407 361 357
f 409 410 408 407
f 408 411 377 374
f 410 360 365 412
f 410 412 411 408
f 411 413 370 377
f 412 365 368 414
f 414 368 370 413
f 412 414 413 411
f 211 415 416 212
f 210 209 417 418
f 212 416 419 235
f 209 234 420 417
f 421 422 423 424
f 424 423 425 415
f 421 418 426 422
f 415 425 427 416
f 418 417 428 426
f 420 419 429 430
f 416 427 429 419
f 417 420 430 428
f 422 431 432 423
f 423 432 433 425
f 422 426 434 431
f 425 433 435 427
f 426 428 436 434
f 430 429 437 438
f 427 435 437 429
f 428 430 438 436
f 431 439 440 432
f 432 440 441 433
f 431 434 442 439
f 433 441 443 435
f 434 436 444 442
f 438 437 445 446
f 435 443 445 437
f 436 438 446 444
f 439 447 448 440
f 440 448 449 441
f 439 442 450 447
f 441 449 451 443
f 442 444 452 450
f 446 445 453 454
f 443 451 453 445
f 444 446 454 452
f 455 456 457 458
f 447 455 458 448
f 448 458 457 449
f 456 459 460 457
f 449 457 460 451
f 459 461 462 460
f 454 453 462 461
f 451 460 462 453
f 463 464 456 455
f 465 447 450 466
f 465 463 455 447
f 465 466 464 463
f 464 467 459 456
f 466 450 452 468
f 466 468 467 464
f 467 469 461 459
f 468 452 454 470
f 470 454 461 469
f 468 470 469 467
f 471 472 473 474
f 471 475 476 472
f 472 476 477 473
f 474 473 478 479
f 473 477 480 478
f 479 478 481 482
f 482 481 483 484
f 478 480 483 481
f 475 485 486 476
f 476 486 487 477
f 475 488 489 485
f 477 487 490 480
f 488 491 492 489
f 484 483 493 494
f 480 490 493 483
f 491 484 494 492
f 485 495 496 486
f 486 496 497 487
f 485 489 498 495
f 487 497 499 490
f 489 492 500 498
f 494 493 501 502
f 490 499 501 493
f 492 494 502 500
f 495 503 504 496
f 496 504 505 497
f 495 498 506 503
f 497 505 507 499
f 498 500 508 506
f 502 501 509 510
f 499 507 509 501
f 500 502 510 508
f 503 511 512 504
f 504 512 513 505
f 503 506 514 511
f 505 513 515 507
f 506 508 516 514
f 510 509 517 518
f 507 515 517 509
f 508 510 518 516
f 511 519 520 512
f 512 520 144 513
f 511 514 142 519
f 513 144 147 515
f 514 516 143 142
f 518 517 177 174
f 515 147 177 517
f 516 518 174 143
f 521 522 488 475
f 523 471 474 524
f 523 521 475 471
f 523 524 522 521
f 522 525 491 488
f 524 474 479 526
f 524 526 525 522
f 525 527 484 491
f 526 479 482 528
f 528 482 484 527
f 526 528 527 525
f 220 219 529 530
f 239 240 531 532
f 219 239 532 529
f 533 534 535 536
f 536 535 537 538
f 533 530 539 534
f 538 537 540 541
f 530 529 542 539
f 532 531 543 544
f 541 540 543 531
f 529 532 544 542
f 534 545 546 535
f 535 546 547 537
f 534 539 548 545
f 537 547 549 540
f 539 542 550 548
f 544 543 551 552
f 540 549 551 543
f 542 544 552 550
f 545 553 554 546
f 546 554 555 547
f 545 548 556 553
f 547 555 557 549
f 548 550 558 556
f 552 551 559 560
f 549 557 559 551
f 550 552 560 558
f 553 561 562 554
f 554 562 563 555
f 553 556 564 561
f 555 563 565 557
f 556 558 566 564
f 560 559 567 568
f 557 565 567 559
f 558 560 568 566
f 569 570 571 572
f 561 569 572 562
f 562 572 571 563
f 570 573 574 571
f 563 571 574 565
f 573 575 576 574
f 568 567 576 575
f 565 574 576 567
f 577 578 570 569
f 579 561 564 580
f 579 577 569 561
f 579 580 578 577
f 578 581 573 570
f 580 564 566 582
f 580 582 581 578
f 581 583 575 573
f 582 566 568 584
f 584 568 575 583
f 582 584 583 581
usemtl c11
f 164 166 585 586
f 164 586 587 165
f 166 167 588 585
f 167 168 589 588
f 168 170 590 589
f 170 169 591 590
f 169 171 592 591
f 171 172 593 592
f 172 173 594 593
f 173 176 595 594
f 586 585 596 597
f 586 597 598 587
f 585 588 599 596
f 588 589 600 599
f 589 590 601 600
f 590 591 602 601
f 591 592 603 602
f 592 593 604 603
f 593 594 605 604
f 594 595 606 605
f 597 596 607 608
f 597 608 609 598
f 599 600 611 610
f 600 601 612 611
f 601 602 613 612
f 612 613 614 615
f 602 603 616 613
f 613 616 617 614
f 603 604 618 616
f 616 618 619 617
f 604 605 620 618
f 618 620 621 619
f 605 606 621 620
f 165 587 622 228
f 176 236 623 595
f 587 598 624 622
f 595 623 625 606
f 598 609 626 624
f 615 614 627 628
f 617 619 630 629
f 619 621 631 630
f 606 625 631 621
f 308 632 633 307
f 228 622 632 308
f 307 633 634 635
f 229 307 635 230
f 635 634 636 637
f 230 635 637 231
f 637 636 638 639
f 231 637 639 232
f 639 638 640 641
f 232 639 641 233
f 641 640 642 420
f 233 641 420 234
f 420 642 643 419
f 419 643 644 645
f 235 419 645 236
f 236 645 644 623
f 632 646 647 633
f 622 624 646 632
f 633 647 648 634
f 634 648 649 636
f 636 649 650 638
f 638 650 651 640
f 640 651 652 642
f 642 652 653 643
f 643 653 654 644
f 623 644 654 625
f 646 655 656 647
f 624 626 655 646
f 647 656 657 648
f 648 657 658 649
f 650 659 660 651
f 628 627 660 659
f 651 660 661 652
f 627 629 661 660
f 652 661 662 653
f 629 630 662 661
f 653 662 663 654
f 630 631 663 662
f 625 654 663 631
f 684 685 686 687
f 684 688 689 685
f 684 687 690 688
f 691 694 695 692
f 691 693 696 694
f 694 697 698 695
f 697 699 700 698
f 699 701 702 700
f 701 703 704 702
f 703 705 706 704
f 705 707 708 706
f 687 686 709 406
f 687 406 710 690
f 686 692 711 709
f 692 695 712 711
f 695 698 713 712
f 698 700 519 713
f 700 702 520 519
f 702 704 714 520
f 704 706 715 714
f 406 709 133 132
f 406 132 131 710
f 709 711 136 133
f 711 712 138 136
f 712 713 140 138
f 713 519 142 140
f 520 714 145 144
f 714 715 148 145
f 688 716 717 689
f 688 690 718 716
f 689 717 719 693
f 693 719 720 696
f 707 721 722 708
f 690 710 723 718
f 710 131 206 723
f 724 725 726 727
f 716 724 727 717
f 716 718 725 724
f 727 726 728 729
f 717 727 729 719
f 729 728 730 731
f 719 729 731 720
f 733 732 734 735
f 735 734 736 737
f 737 736 738 739
f 739 738 740 741
f 721 741 740 722
f 725 742 743 726
f 718 723 742 725
f 726 743 421 728
f 728 421 424 730
f 730 424 744 732
f 732 744 745 734
f 734 745 746 736
f 736 746 533 738
f 738 533 536 740
f 742 747 748 743
f 206 208 748 747
f 723 206 747 742
f 743 748 418 421
f 208 210 418 748
f 424 415 749 744
f 211 214 749 415
f 744 749 750 745
f 214 216 750 749
f 745 750 751 746
f 216 218 751 750
f 746 751 530 533
f 218 220 530 751
usemtl c12
f 596 599 610 607
f 614 617 629 627
f 649 658 659 650
f 685 691 692 686
f 685 689 693 691
f 731 730 732 733
usemtl c13
f 608 607 664 665
f 665 664 666 667
f 608 665 667 609
f 607 610 668 664
f 664 668 669 666
f 610 611 670 668
f 668 670 671 669
f 611 612 672 670
f 670 672 673 671
f 612 615 673 672
f 667 666 674 675
f 609 667 675 626
f 666 669 676 674
f 669 671 677 676
f 671 673 678 677
f 615 628 678 673
f 655 679 680 656
f 675 674 680 679
f 626 675 679 655
f 656 680 681 657
f 674 676 681 680
f 657 681 682 658
f 676 677 682 681
f 658 682 683 659
f 677 678 683 682
f 628 659 683 678
f 752 753 697 694
f 752 754 755 753
f 752 694 696 754
f 753 756 699 697
f 753 755 757 756
f 756 758 701 699
f 756 757 759 758
f 758 760 703 701
f 758 759 761 760
f 760 762 705 703
f 760 761 763 762
f 762 763 707 705
f 754 764 765 755
f 754 696 720 764
f 755 765 766 757
f 757 766 767 759
f 759 767 768 761
f 761 768 769 763
f 763 769 721 707
f 770 731 733 771
f 764 770 771 765
f 764 720 731 770
f 771 733 735 772
f 765 771 772 766
f 772 735 737 773
f 766 772 773 767
f 773 737 739 774
f 767 773 774 768
f 774 739 741 775
f 768 774 775 769
f 769 775 741 721
usemtl c14
f 776 777 778 779
f 776 780 781 777
f 777 781 782 778
f 776 779 783 780
f 779 778 784 785
f 778 782 786 784
f 779 785 787 783
f 785 784 788 789
f 784 786 790 788
f 785 789 791 787
f 789 788 792 793
f 788 790 794 792
f 789 793 795 791
f 793 792 796 797
f 797 796 798 799
f 792 794 798 796
f 793 797 799 795
f 780 706 800 781
f 781 800 801 782
f 780 783 715 706
f 782 801 802 786
f 783 787 148 715
f 786 802 803 790
f 787 791 149 148
f 790 803 804 794
f 791 795 181 149
f 799 798 805 806
f 794 804 805 798
f 795 799 806 181
f 706 708 807 800
f 800 807 808 801
f 801 808 809 802
f 803 810 811 804
f 806 805 812 813
f 804 811 812 805
f 181 806 813 182
f 708 722 814 807
f 807 814 815 808
f 808 815 816 809
f 809 816 817 810
f 810 817 818 811
f 813 812 819 820
f 811 818 819 812
f 182 813 820 240
f 740 536 821 822
f 722 740 822 814
f 814 822 821 815
f 536 538 823 821
f 815 821 823 816
f 538 541 824 823
f 816 823 824 817
f 541 531 825 824
f 817 824 825 818
f 531 826 827 825
f 820 819 827 826
f 818 825 827 819
f 240 820 826 531
f 809 810 828 829
f 802 830 831 803
f 803 831 828 810
f 802 809 829 830
f 829 828 832 833
f 830 834 835 831
f 831 835 832 828
f 830 829 833 834
f 833 832 836 837
f 834 838 839 835
f 835 839 836 832
f 834 833 837 838
f 838 837 836 839
usemtl c15
f 1 2 3 4
f 1 5 6 2
f 2 6 7 3
f 1 4 8 5
f 4 3 9 10
f 3 7 11 9
f 4 10 12 8
f 10 9 13 14
f 9 11 15 13
f 10 14 16 12
f 14 13 17 18
f 13 15 19 17
f 14 18 20 16
f 18 17 21 22
f 17 19 23 21
f 18 22 24 20
f 22 21 25 26
f 26 25 27 28
f 21 23 27 25
f 22 26 28 24
f 5 29 30 6
f 6 30 31 7
f 5 8 32 29
f 7 31 33 11
f 8 12 34 32
f 11 33 35 15
f 12 16 36 34
f 15 35 37 19
f 16 20 38 36
f 19 37 39 23
f 20 24 40 38
f 28 27 41 42
f 23 39 41 27
f 24 28 42 40
f 29 43 44 30
f 30 44 45 31
f 29 32 46 43
f 31 45 47 33
f 32 34 48 46
f 34 36 49 48
f 36 38 50 49
f 37 51 52 39
f 38 40 53 50
f 42 41 54 55
f 39 52 54 41
f 40 42 55 53
f 43 56 57 44
f 44 57 58 45
f 43 46 59 56
f 45 58 60 47
f 46 48 61 59
f 48 49 62 61
f 49 50 63 62
f 51 64 65 52
f 50 53 66 63
f 55 54 67 68
f 52 65 67 54
f 53 55 68 66
f 56 69 70 57
f 57 70 71 58
f 56 59 72 69
f 58 71 73 60
f 59 61 74 72
f 60 73 75 76
f 61 62 77 74
f 76 75 78 64
f 62 63 79 77
f 64 78 80 65
f 63 66 81 79
f 68 67 82 83
f 65 80 82 67
f 66 68 83 81
f 84 85 86 87
f 69 84 87 70
f 70 87 86 71
f 69 72 85 84
f 85 88 89 86
f 71 86 89 73
f 72 74 88 85
f 88 90 91 89
f 73 89 91 75
f 74 77 90 88
f 90 92 93 91
f 75 91 93 78
f 77 79 92 90
f 92 94 95 93
f 78 93 95 80
f 79 81 94 92
f 94 96 97 95
f 83 82 97 96
f 80 95 97 82
f 81 83 96 94
