# generado por tools/vox_to_obj.py desde mata_grama.vox
mtllib mata_grama.mtl
v -0.2500 0.0000 0.2500
v -0.2500 0.0000 0.1500
v -0.2500 0.1000 0.1500
v -0.2500 0.1000 0.2500
v -0.3500 0.0000 0.2500
v -0.3500 0.1000 0.2500
v -0.3500 0.1000 0.1500
v -0.3500 0.0000 0.1500
v -0.2500 0.2000 0.1500
v -0.2500 0.2000 0.2500
v -0.3500 0.2000 0.2500
v -0.3500 0.2000 0.1500
v -0.2500 0.3000 0.1500
v -0.2500 0.3000 0.2500
v -0.3500 0.3000 0.2500
v -0.3500 0.3000 0.1500
v -0.2500 0.4000 0.1500
v -0.2500 0.4000 0.2500
v -0.3500 0.4000 0.2500
v -0.3500 0.4000 0.1500
v -0.2500 0.5000 0.1500
v -0.2500 0.5000 0.2500
v -0.3500 0.5000 0.2500
v -0.3500 0.5000 0.1500
v -0.2500 0.6000 0.1500
v -0.2500 0.6000 0.2500
v -0.3500 0.6000 0.2500
v -0.3500 0.6000 0.1500
v -0.2500 0.7000 0.1500
v -0.2500 0.7000 0.2500
v -0.3500 0.7000 0.2500
v -0.3500 0.7000 0.1500
v -0.2500 0.8000 0.1500
v -0.2500 0.8000 0.2500
v -0.3500 0.8000 0.2500
v -0.3500 0.8000 0.1500
v -0.2500 0.9000 0.1500
v -0.2500 0.9000 0.2500
v -0.3500 0.9000 0.2500
v -0.3500 0.9000 0.1500
v -0.2500 1.0000 0.1500
v -0.2500 1.0000 0.2500
v -0.3500 1.0000 0.2500
v -0.3500 1.0000 0.1500
v -0.0500 0.0000 0.3500
v -0.0500 0.0000 0.2500
v -0.0500 0.1000 0.2500
v -0.0500 0.1000 0.3500
v -0.1500 0.0000 0.3500
v -0.1500 0.1000 0.3500
v -0.1500 0.1000 0.2500
v -0.1500 0.0000 0.2500
v -0.0500 0.2000 0.2500
v -0.0500 0.2000 0.3500
v -0.1500 0.2000 0.3500
v -0.1500 0.2000 0.2500
v -0.0500 0.3000 0.2500
v -0.0500 0.3000 0.3500
v -0.1500 0.3000 0.3500
v -0.1500 0.3000 0.2500
v -0.0500 0.4000 0.2500
v -0.0500 0.4000 0.3500
v -0.1500 0.4000 0.3500
v -0.1500 0.4000 0.2500
v -0.0500 0.5000 0.2500
v -0.0500 0.5000 0.3500
v -0.1500 0.5000 0.3500
v -0.1500 0.5000 0.2500
v -0.0500 0.6000 0.2500
v -0.0500 0.6000 0.3500
v -0.1500 0.6000 0.3500
v -0.1500 0.6000 0.2500
v -0.0500 0.7000 0.2500
v -0.0500 0.7000 0.3500
v -0.1500 0.7000 0.3500
v -0.1500 0.7000 0.2500
v -0.0500 0.8000 0.2500
v -0.0500 0.8000 0.3500
v -0.1500 0.8000 0.3500
v -0.1500 0.8000 0.2500
v -0.0500 0.9000 0.2500
v -0.0500 0.9000 0.3500
v -0.1500 0.9000 0.3500
v -0.1500 0.9000 0.2500
v -0.0500 1.0000 0.2500
v -0.0500 1.0000 0.3500
v -0.1500 1.0000 0.3500
v -0.1500 1.0000 0.2500
v -0.0500 1.1000 0.2500
v -0.0500 1.1000 0.3500
v -0.1500 1.1000 0.3500
v -0.1500 1.1000 0.2500
v -0.0500 1.2000 0.2500
v -0.0500 1.2000 0.3500
v -0.1500 1.2000 0.3500
v -0.1500 1.2000 0.2500
v 0.1500 0.0000 0.1500
v 0.1500 0.0000 0.0500
v 0.1500 0.1000 0.0500
v 0.1500 0.1000 0.1500
v 0.0500 0.0000 0.1500
v 0.0500 0.1000 0.1500
v 0.0500 0.1000 0.0500
v 0.0500 0.0000 0.0500
v 0.1500 0.2000 0.0500
v 0.1500 0.2000 0.1500
v 0.0500 0.2000 0.1500
v 0.0500 0.2000 0.0500
v 0.1500 0.3000 0.0500
v 0.1500 0.3000 0.1500
v 0.0500 0.3000 0.1500
v 0.0500 0.3000 0.0500
v 0.1500 0.4000 0.0500
v 0.1500 0.4000 0.1500
v 0.0500 0.4000 0.1500
v 0.0500 0.4000 0.0500
v 0.1500 0.5000 0.0500
v 0.1500 0.5000 0.1500
v 0.0500 0.5000 0.1500
v 0.0500 0.5000 0.0500
v 0.1500 0.6000 0.0500
v 0.1500 0.6000 0.1500
v 0.0500 0.6000 0.1500
v 0.0500 0.6000 0.0500
v 0.1500 0.7000 0.0500
v 0.1500 0.7000 0.1500
v 0.0500 0.7000 0.1500
v 0.0500 0.7000 0.0500
v 0.1500 0.8000 0.0500
v 0.1500 0.8000 0.1500
v 0.0500 0.8000 0.1500
v 0.0500 0.8000 0.0500
v 0.1500 0.9000 0.0500
v 0.1500 0.9000 0.1500
v 0.0500 0.9000 0.1500
v 0.0500 0.9000 0.0500
v -0.1500 0.0000 -0.0500
v -0.1500 0.0000 -0.1500
v -0.1500 0.1000 -0.1500
v -0.1500 0.1000 -0.0500
v -0.2500 0.0000 -0.0500
v -0.2500 0.1000 -0.0500
v -0.2500 0.1000 -0.1500
v -0.2500 0.0000 -0.1500
v -0.1500 0.2000 -0.1500
v -0.1500 0.2000 -0.0500
v -0.2500 0.2000 -0.0500
v -0.2500 0.2000 -0.1500
v -0.1500 0.3000 -0.1500
v -0.1500 0.3000 -0.0500
v -0.2500 0.3000 -0.0500
v -0.2500 0.3000 -0.1500
v -0.1500 0.4000 -0.1500
v -0.1500 0.4000 -0.0500
v -0.2500 0.4000 -0.0500
v -0.2500 0.4000 -0.1500
v -0.1500 0.5000 -0.1500
v -0.1500 0.5000 -0.0500
v -0.2500 0.5000 -0.0500
v -0.2500 0.5000 -0.1500
v -0.1500 0.6000 -0.1500
v -0.1500 0.6000 -0.0500
v -0.2500 0.6000 -0.0500
v -0.2500 0.6000 -0.1500
v -0.1500 0.7000 -0.1500
v -0.1500 0.7000 -0.0500
v -0.2500 0.7000 -0.0500
v -0.2500 0.7000 -0.1500
v -0.1500 0.8000 -0.1500
v -0.1500 0.8000 -0.0500
v -0.2500 0.8000 -0.0500
v -0.2500 0.8000 -0.1500
v -0.1500 0.9000 -0.1500
v -0.1500 0.9000 -0.0500
v -0.2500 0.9000 -0.0500
v -0.2500 0.9000 -0.1500
v -0.1500 1.0000 -0.1500
v -0.1500 1.0000 -0.0500
v -0.2500 1.0000 -0.0500
v -0.2500 1.0000 -0.1500
v -0.1500 1.1000 -0.1500
v -0.1500 1.1000 -0.0500
v -0.2500 1.1000 -0.0500
v -0.2500 1.1000 -0.1500
v 0.2500 0.0000 -0.1500
v 0.2500 0.0000 -0.2500
v 0.2500 0.1000 -0.2500
v 0.2500 0.1000 -0.1500
v 0.1500 0.0000 -0.1500
v 0.1500 0.1000 -0.1500
v 0.1500 0.1000 -0.2500
v 0.1500 0.0000 -0.2500
v 0.2500 0.2000 -0.2500
v 0.2500 0.2000 -0.1500
v 0.1500 0.2000 -0.1500
v 0.1500 0.2000 -0.2500
v 0.2500 0.3000 -0.2500
v 0.2500 0.3000 -0.1500
v 0.1500 0.3000 -0.1500
v 0.1500 0.3000 -0.2500
v 0.2500 0.4000 -0.2500
v 0.2500 0.4000 -0.1500
v 0.1500 0.4000 -0.1500
v 0.1500 0.4000 -0.2500
v 0.2500 0.5000 -0.2500
v 0.2500 0.5000 -0.1500
v 0.1500 0.5000 -0.1500
v 0.1500 0.5000 -0.2500
v 0.2500 0.6000 -0.2500
v 0.2500 0.6000 -0.1500
v 0.1500 0.6000 -0.1500
v 0.1500 0.6000 -0.2500
v 0.2500 0.7000 -0.2500
v 0.2500 0.7000 -0.1500
v 0.1500 0.7000 -0.1500
v 0.1500 0.7000 -0.2500
v 0.2500 0.8000 -0.2500
v 0.2500 0.8000 -0.1500
v 0.1500 0.8000 -0.1500
v 0.1500 0.8000 -0.2500
v 0.0500 0.0000 -0.2500
v 0.0500 0.0000 -0.3500
v 0.0500 0.1000 -0.3500
v 0.0500 0.1000 -0.2500
v -0.0500 0.0000 -0.2500
v -0.0500 0.1000 -0.2500
v -0.0500 0.1000 -0.3500
v -0.0500 0.0000 -0.3500
v 0.0500 0.2000 -0.3500
v 0.0500 0.2000 -0.2500
v -0.0500 0.2000 -0.2500
v -0.0500 0.2000 -0.3500
v 0.0500 0.3000 -0.3500
v 0.0500 0.3000 -0.2500
v -0.0500 0.3000 -0.2500
v -0.0500 0.3000 -0.3500
v 0.0500 0.4000 -0.3500
v 0.0500 0.4000 -0.2500
v -0.0500 0.4000 -0.2500
v -0.0500 0.4000 -0.3500
v 0.0500 0.5000 -0.3500
v 0.0500 0.5000 -0.2500
v -0.0500 0.5000 -0.2500
v -0.0500 0.5000 -0.3500
v 0.0500 0.6000 -0.3500
v 0.0500 0.6000 -0.2500
v -0.0500 0.6000 -0.2500
v -0.0500 0.6000 -0.3500
v 0.0500 0.7000 -0.3500
v 0.0500 0.7000 -0.2500
v -0.0500 0.7000 -0.2500
v -0.0500 0.7000 -0.3500
v 0.0500 0.8000 -0.3500
v 0.0500 0.8000 -0.2500
v -0.0500 0.8000 -0.2500
v -0.0500 0.8000 -0.3500
v 0.0500 0.9000 -0.3500
v 0.0500 0.9000 -0.2500
v -0.0500 0.9000 -0.2500
v -0.0500 0.9000 -0.3500
v 0.0500 1.0000 -0.3500
v 0.0500 1.0000 -0.2500
v -0.0500 1.0000 -0.2500
v -0.0500 1.0000 -0.3500
v 0.4500 0.0000 0.0500
v 0.4500 0.0000 -0.0500
v 0.4500 0.1000 -0.0500
v 0.4500 0.1000 0.0500
v 0.3500 0.0000 0.0500
v 0.3500 0.1000 0.0500
v 0.3500 0.1000 -0.0500
v 0.3500 0.0000 -0.0500
v 0.4500 0.2000 -0.0500
v 0.4500 0.2000 0.0500
v 0.3500 0.2000 0.0500
v 0.3500 0.2000 -0.0500
v 0.4500 0.3000 -0.0500
v 0.4500 0.3000 0.0500
v 0.3500 0.3000 0.0500
v 0.3500 0.3000 -0.0500
v 0.4500 0.4000 -0.0500
v 0.4500 0.4000 0.0500
v 0.3500 0.4000 0.0500
v 0.3500 0.4000 -0.0500
v 0.4500 0.5000 -0.0500
v 0.4500 0.5000 0.0500
v 0.3500 0.5000 0.0500
v 0.3500 0.5000 -0.0500
v 0.4500 0.6000 -0.0500
v 0.4500 0.6000 0.0500
v 0.3500 0.6000 0.0500
v 0.3500 0.6000 -0.0500
v 0.4500 0.7000 -0.0500
v 0.4500 0.7000 0.0500
v 0.3500 0.7000 0.0500
v 0.3500 0.7000 -0.0500
v -0.3500 0.0000 -0.2500
v -0.3500 0.0000 -0.3500
v -0.3500 0.1000 -0.3500
v -0.3500 0.1000 -0.2500
v -0.4500 0.0000 -0.2500
v -0.4500 0.1000 -0.2500
v -0.4500 0.1000 -0.3500
v -0.4500 0.0000 -0.3500
v -0.3500 0.2000 -0.3500
v -0.3500 0.2000 -0.2500
v -0.4500 0.2000 -0.2500
v -0.4500 0.2000 -0.3500
v -0.3500 0.3000 -0.3500
v -0.3500 0.3000 -0.2500
v -0.4500 0.3000 -0.2500
v -0.4500 0.3000 -0.3500
v -0.3500 0.4000 -0.3500
v -0.3500 0.4000 -0.2500
v -0.4500 0.4000 -0.2500
v -0.4500 0.4000 -0.3500
v -0.3500 0.5000 -0.3500
v -0.3500 0.5000 -0.2500
v -0.4500 0.5000 -0.2500
v -0.4500 0.5000 -0.3500
v -0.3500 0.6000 -0.3500
v -0.3500 0.6000 -0.2500
v -0.4500 0.6000 -0.2500
v -0.4500 0.6000 -0.3500
v -0.3500 0.7000 -0.3500
v -0.3500 0.7000 -0.2500
v -0.4500 0.7000 -0.2500
v -0.4500 0.7000 -0.3500
v -0.3500 0.8000 -0.3500
v -0.3500 0.8000 -0.2500
v -0.4500 0.8000 -0.2500
v -0.4500 0.8000 -0.3500
usemtl c9
f 1 2 3 4
f 5 6 7 8
f 8 7 3 2
f 5 1 4 6
f 5 8 2 1
f 4 3 9 10
f 6 11 12 7
f 7 12 9 3
f 6 4 10 11
f 10 9 13 14
f 11 15 16 12
f 12 16 13 9
f 11 10 14 15
f 14 13 17 18
f 15 19 20 16
f 16 20 17 13
f 15 14 18 19
f 18 17 21 22
f 19 23 24 20
f 20 24 21 17
f 19 18 22 23
f 22 21 25 26
f 23 27 28 24
f 24 28 25 21
f 23 22 26 27
f 26 25 29 30
f 27 31 32 28
f 28 32 29 25
f 27 26 30 31
f 30 29 33 34
f 31 35 36 32
f 32 36 33 29
f 31 30 34 35
f 34 33 37 38
f 35 39 40 36
f 36 40 37 33
f 35 34 38 39
f 97 98 99 100
f 101 102 103 104
f 104 103 99 98
f 101 97 100 102
f 101 104 98 97
f 100 99 105 106
f 102 107 108 103
f 103 108 105 99
f 102 100 106 107
f 106 105 109 110
f 107 111 112 108
f 108 112 109 105
f 107 106 110 111
f 110 109 113 114
f 111 115 116 112
f 112 116 113 109
f 111 110 114 115
f 114 113 117 118
f 115 119 120 116
f 116 120 117 113
f 115 114 118 119
f 118 117 121 122
f 119 123 124 120
f 120 124 121 117
f 119 118 122 123
f 122 121 125 126
f 123 127 128 124
f 124 128 125 121
f 123 122 126 127
f 126 125 129 130
f 127 131 132 128
f 128 132 129 125
f 127 126 130 131
f 130 129 133 134
f 131 135 136 132
f 132 136 133 129
f 131 130 134 135
f 135 134 133 136
f 185 186 187 188
f 189 190 191 192
f 192 191 187 186
f 189 185 188 190
f 189 192 186 185
f 188 187 193 194
f 190 195 196 191
f 191 196 193 187
f 190 188 194 195
f 194 193 197 198
f 195 199 200 196
f 196 200 197 193
f 195 194 198 199
f 198 197 201 202
f 199 203 204 200
f 200 204 201 197
f 199 198 202 203
f 202 201 205 206
f 203 207 208 204
f 204 208 205 201
f 203 202 206 207
f 206 205 209 210
f 207 211 212 208
f 208 212 209 205
f 207 206 210 211
f 210 209 213 214
f 211 215 216 212
f 212 216 213 209
f 211 210 214 215
f 214 213 217 218
f 215 219 220 216
f 216 220 217 213
f 215 214 218 219
f 219 218 217 220
f 265 266 267 268
f 269 270 271 272
f 272 271 267 266
f 269 265 268 270
f 269 272 266 265
f 268 267 273 274
f 270 275 276 271
f 271 276 273 267
f 270 268 274 275
f 274 273 277 278
f 275 279 280 276
f 276 280 277 273
f 275 274 278 279
f 278 277 281 282
f 279 283 284 280
f 280 284 281 277
f 279 278 282 283
f 282 281 285 286
f 283 287 288 284
f 284 288 285 281
f 283 282 286 287
f 286 285 289 290
f 287 291 292 288
f 288 292 289 285
f 287 286 290 291
f 290 289 293 294
f 291 295 296 292
f 292 296 293 289
f 291 290 294 295
f 295 294 293 296
f 297 298 299 300
f 301 302 303 304
f 304 303 299 298
f 301 297 300 302
f 301 304 298 297
f 300 299 305 306
f 302 307 308 303
f 303 308 305 299
f 302 300 306 307
f 306 305 309 310
f 307 311 312 308
f 308 312 309 305
f 307 306 310 311
f 310 309 313 314
f 311 315 316 312
f 312 316 313 309
f 311 310 314 315
f 314 313 317 318
f 315 319 320 316
f 316 320 317 313
f 315 314 318 319
f 318 317 321 322
f 319 323 324 320
f 320 324 321 317
f 319 318 322 323
f 322 321 325 326
f 323 327 328 324
f 324 328 325 321
f 323 322 326 327
f 326 325 329 330
f 327 331 332 328
f 328 332 329 325
f 327 326 330 331
f 331 330 329 332
usemtl c10
f 38 37 41 42
f 39 43 44 40
f 40 44 41 37
f 39 38 42 43
f 43 42 41 44
f 90 89 93 94
f 91 95 96 92
f 92 96 93 89
f 91 90 94 95
f 95 94 93 96
f 178 177 181 182
f 179 183 184 180
f 180 184 181 177
f 179 178 182 183
f 183 182 181 184
f 258 257 261 262
f 259 263 264 260
f 260 264 261 257
f 259 258 262 263
f 263 262 261 264
usemtl c17
f 45 46 47 48
f 49 50 51 52
f 52 51 47 46
f 49 45 48 50
f 49 52 46 45
f 48 47 53 54
f 50 55 56 51
f 51 56 53 47
f 50 48 54 55
f 54 53 57 58
f 55 59 60 56
f 56 60 57 53
f 55 54 58 59
f 58 57 61 62
f 59 63 64 60
f 60 64 61 57
f 59 58 62 63
f 62 61 65 66
f 63 67 68 64
f 64 68 65 61
f 63 62 66 67
f 66 65 69 70
f 67 71 72 68
f 68 72 69 65
f 67 66 70 71
f 70 69 73 74
f 71 75 76 72
f 72 76 73 69
f 71 70 74 75
f 74 73 77 78
f 75 79 80 76
f 76 80 77 73
f 75 74 78 79
f 78 77 81 82
f 79 83 84 80
f 80 84 81 77
f 79 78 82 83
f 82 81 85 86
f 83 87 88 84
f 84 88 85 81
f 83 82 86 87
f 86 85 89 90
f 87 91 92 88
f 88 92 89 85
f 87 86 90 91
f 137 138 139 140
f 141 142 143 144
f 144 143 139 138
f 141 137 140 142
f 141 144 138 137
f 140 139 145 146
f 142 147 148 143
f 143 148 145 139
f 142 140 146 147
f 146 145 149 150
f 147 151 152 148
f 148 152 149 145
f 147 146 150 151
f 150 149 153 154
f 151 155 156 152
f 152 156 153 149
f 151 150 154 155
f 154 153 157 158
f 155 159 160 156
f 156 160 157 153
f 155 154 158 159
f 158 157 161 162
f 159 163 164 160
f 160 164 161 157
f 159 158 162 163
f 162 161 165 166
f 163 167 168 164
f 164 168 165 161
f 163 162 166 167
f 166 165 169 170
f 167 171 172 168
f 168 172 169 165
f 167 166 170 171
f 170 169 173 174
f 171 175 176 172
f 172 176 173 169
f 171 170 174 175
f 174 173 177 178
f 175 179 180 176
f 176 180 177 173
f 175 174 178 179
f 221 222 223 224
f 225 226 227 228
f 228 227 223 222
f 225 221 224 226
f 225 228 222 221
f 224 223 229 230
f 226 231 232 227
f 227 232 229 223
f 226 224 230 231
f 230 229 233 234
f 231 235 236 232
f 232 236 233 229
f 231 230 234 235
f 234 233 237 238
f 235 239 240 236
f 236 240 237 233
f 235 234 238 239
f 238 237 241 242
f 239 243 244 240
f 240 244 241 237
f 239 238 242 243
f 242 241 245 246
f 243 247 248 244
f 244 248 245 241
f 243 242 246 247
f 246 245 249 250
f 247 251 252 248
f 248 252 249 245
f 247 246 250 251
f 250 249 253 254
f 251 255 256 252
f 252 256 253 249
f 251 250 254 255
f 254 253 257 258
f 255 259 260 256
f 256 260 257 253
f 255 254 258 259
