# generado por tools/vox_to_obj.py desde nube.vox
mtllib nube.mtl
v -18.5000 2.0000 2.5000
v -18.5000 3.0000 2.5000
v -18.5000 3.0000 1.5000
v -18.5000 2.0000 1.5000
v -17.5000 2.0000 2.5000
v -17.5000 3.0000 2.5000
v -17.5000 2.0000 1.5000
v -18.5000 4.0000 2.5000
v -18.5000 4.0000 1.5000
v -17.5000 4.0000 2.5000
v -18.5000 5.0000 2.5000
v -18.5000 5.0000 1.5000
v -17.5000 5.0000 2.5000
v -17.5000 5.0000 1.5000
v -18.5000 3.0000 0.5000
v -18.5000 2.0000 0.5000
v -17.5000 2.0000 0.5000
v -18.5000 4.0000 0.5000
v -18.5000 5.0000 0.5000
v -17.5000 5.0000 0.5000
v -18.5000 3.0000 -0.5000
v -18.5000 2.0000 -0.5000
v -17.5000 2.0000 -0.5000
v -18.5000 4.0000 -0.5000
v -18.5000 5.0000 -0.5000
v -17.5000 5.0000 -0.5000
v -18.5000 3.0000 -1.5000
v -18.5000 2.0000 -1.5000
v -17.5000 2.0000 -1.5000
v -18.5000 4.0000 -1.5000
v -18.5000 5.0000 -1.5000
v -17.5000 5.0000 -1.5000
v -18.5000 3.0000 -2.5000
v -18.5000 2.0000 -2.5000
v -17.5000 3.0000 -2.5000
v -17.5000 2.0000 -2.5000
v -18.5000 4.0000 -2.5000
v -17.5000 4.0000 -2.5000
v -18.5000 5.0000 -2.5000
v -17.5000 5.0000 -2.5000
v -17.5000 2.0000 3.5000
v -17.5000 3.0000 3.5000
v -16.5000 2.0000 3.5000
v -16.5000 3.0000 3.5000
v -16.5000 2.0000 2.5000
v -17.5000 4.0000 3.5000
v -16.5000 4.0000 3.5000
v -17.5000 5.0000 3.5000
v -16.5000 5.0000 3.5000
v -16.5000 5.0000 2.5000
v -16.5000 2.0000 1.5000
v -16.5000 5.0000 1.5000
v -17.5000 1.0000 1.5000
v -17.5000 1.0000 0.5000
v -16.5000 1.0000 1.5000
v -16.5000 1.0000 0.5000
v -17.5000 6.0000 1.5000
v -17.5000 6.0000 0.5000
v -16.5000 6.0000 1.5000
v -16.5000 6.0000 0.5000
v -17.5000 1.0000 -0.5000
v -16.5000 1.0000 -0.5000
v -17.5000 6.0000 -0.5000
v -16.5000 6.0000 -0.5000
v -17.5000 1.0000 -1.5000
v -16.5000 2.0000 -1.5000
v -16.5000 1.0000 -1.5000
v -17.5000 6.0000 -1.5000
v -16.5000 6.0000 -1.5000
v -16.5000 5.0000 -1.5000
v -16.5000 2.0000 -2.5000
v -16.5000 5.0000 -2.5000
v -17.5000 3.0000 -3.5000
v -17.5000 2.0000 -3.5000
v -16.5000 3.0000 -3.5000
v -16.5000 2.0000 -3.5000
v -17.5000 4.0000 -3.5000
v -16.5000 4.0000 -3.5000
v -17.5000 5.0000 -3.5000
v -16.5000 5.0000 -3.5000
v -16.5000 2.0000 4.5000
v -16.5000 3.0000 4.5000
v -15.5000 2.0000 4.5000
v -15.5000 3.0000 4.5000
v -15.5000 2.0000 3.5000
v -16.5000 4.0000 4.5000
v -15.5000 4.0000 4.5000
v -16.5000 5.0000 4.5000
v -15.5000 5.0000 4.5000
v -15.5000 5.0000 3.5000
v -15.5000 2.0000 2.5000
v -15.5000 5.0000 2.5000
v -16.5000 1.0000 2.5000
v -15.5000 1.0000 2.5000
v -15.5000 1.0000 1.5000
v -16.5000 6.0000 2.5000
v -15.5000 6.0000 2.5000
v -15.5000 6.0000 1.5000
v -15.5000 1.0000 0.5000
v -15.5000 6.0000 0.5000
v -15.5000 1.0000 -0.5000
v -15.5000 6.0000 -0.5000
v -15.5000 1.0000 -1.5000
v -15.5000 6.0000 -1.5000
v -16.5000 1.0000 -2.5000
v -15.5000 2.0000 -2.5000
v -15.5000 1.0000 -2.5000
v -16.5000 6.0000 -2.5000
v -15.5000 6.0000 -2.5000
v -15.5000 5.0000 -2.5000
v -15.5000 2.0000 -3.5000
v -15.5000 5.0000 -3.5000
v -16.5000 3.0000 -4.5000
v -16.5000 2.0000 -4.5000
v -15.5000 3.0000 -4.5000
v -15.5000 2.0000 -4.5000
v -16.5000 4.0000 -4.5000
v -15.5000 4.0000 -4.5000
v -16.5000 5.0000 -4.5000
v -15.5000 5.0000 -4.5000
v -14.5000 2.0000 4.5000
v -14.5000 3.0000 4.5000
v -14.5000 2.0000 3.5000
v -14.5000 4.0000 4.5000
v -14.5000 5.0000 4.5000
v -14.5000 5.0000 3.5000
v -15.5000 1.0000 3.5000
v -14.5000 1.0000 3.5000
v -14.5000 1.0000 2.5000
v -15.5000 6.0000 3.5000
v -14.5000 6.0000 3.5000
v -14.5000 6.0000 2.5000
v -14.5000 1.0000 1.5000
v -14.5000 6.0000 1.5000
v -14.5000 1.0000 0.5000
v -14.5000 6.0000 0.5000
v -14.5000 1.0000 -0.5000
v -14.5000 6.0000 -0.5000
v -14.5000 1.0000 -1.5000
v -14.5000 6.0000 -1.5000
v -14.5000 1.0000 -2.5000
v -14.5000 6.0000 -2.5000
v -15.5000 1.0000 -3.5000
v -14.5000 2.0000 -3.5000
v -14.5000 1.0000 -3.5000
v -15.5000 6.0000 -3.5000
v -14.5000 6.0000 -3.5000
v -14.5000 5.0000 -3.5000
v -14.5000 3.0000 -4.5000
v -14.5000 2.0000 -4.5000
v -14.5000 4.0000 -4.5000
v -14.5000 5.0000 -4.5000
v -14.5000 2.0000 5.5000
v -14.5000 3.0000 5.5000
v -13.5000 2.0000 5.5000
v -13.5000 3.0000 5.5000
v -13.5000 2.0000 4.5000
v -14.5000 4.0000 5.5000
v -13.5000 4.0000 5.5000
v -14.5000 5.0000 5.5000
v -13.5000 5.0000 5.5000
v -13.5000 5.0000 4.5000
v -14.5000 1.0000 4.5000
v -13.5000 1.0000 4.5000
v -13.5000 1.0000 3.5000
v -14.5000 6.0000 4.5000
v -13.5000 6.0000 4.5000
v -13.5000 6.0000 3.5000
v -13.5000 1.0000 2.5000
v -13.5000 6.0000 2.5000
v -13.5000 1.0000 1.5000
v -13.5000 6.0000 1.5000
v -14.5000 0.0000 1.5000
v -14.5000 0.0000 0.5000
v -13.5000 0.0000 1.5000
v -13.5000 0.0000 0.5000
v -14.5000 7.0000 1.5000
v -14.5000 7.0000 0.5000
v -13.5000 7.0000 1.5000
v -13.5000 7.0000 0.5000
v -14.5000 0.0000 -0.5000
v -13.5000 0.0000 -0.5000
v -14.5000 7.0000 -0.5000
v -13.5000 7.0000 -0.5000
v -14.5000 0.0000 -1.5000
v -13.5000 1.0000 -1.5000
v -13.5000 0.0000 -1.5000
v -14.5000 7.0000 -1.5000
v -13.5000 7.0000 -1.5000
v -13.5000 6.0000 -1.5000
v -13.5000 1.0000 -2.5000
v -13.5000 6.0000 -2.5000
v -13.5000 1.0000 -3.5000
v -13.5000 6.0000 -3.5000
v -14.5000 1.0000 -4.5000
v -13.5000 2.0000 -4.5000
v -13.5000 1.0000 -4.5000
v -14.5000 6.0000 -4.5000
v -13.5000 6.0000 -4.5000
v -13.5000 5.0000 -4.5000
v -14.5000 3.0000 -5.5000
v -14.5000 2.0000 -5.5000
v -13.5000 3.0000 -5.5000
v -13.5000 2.0000 -5.5000
v -14.5000 4.0000 -5.5000
v -13.5000 4.0000 -5.5000
v -14.5000 5.0000 -5.5000
v -13.5000 5.0000 -5.5000
v -12.5000 2.0000 5.5000
v -12.5000 3.0000 5.5000
v -12.5000 2.0000 4.5000
v -12.5000 4.0000 5.5000
v -12.5000 5.0000 5.5000
v -12.5000 5.0000 4.5000
v -12.5000 1.0000 4.5000
v -12.5000 1.0000 3.5000
v -12.5000 6.0000 4.5000
v -12.5000 6.0000 3.5000
v -12.5000 1.0000 2.5000
v -12.5000 6.0000 2.5000
v -13.5000 0.0000 2.5000
v -12.5000 0.0000 2.5000
v -12.5000 0.0000 1.5000
v -13.5000 7.0000 2.5000
v -12.5000 7.0000 2.5000
v -12.5000 7.0000 1.5000
v -12.5000 0.0000 0.5000
v -12.5000 7.0000 0.5000
v -12.5000 0.0000 -0.5000
v -12.5000 7.0000 -0.5000
v -12.5000 0.0000 -1.5000
v -12.5000 7.0000 -1.5000
v -13.5000 0.0000 -2.5000
v -12.5000 1.0000 -2.5000
v -12.5000 0.0000 -2.5000
v -13.5000 7.0000 -2.5000
v -12.5000 7.0000 -2.5000
v -12.5000 6.0000 -2.5000
v -12.5000 1.0000 -3.5000
v -12.5000 6.0000 -3.5000
v -12.5000 2.0000 -4.5000
v -12.5000 1.0000 -4.5000
v -12.5000 6.0000 -4.5000
v -12.5000 5.0000 -4.5000
v -12.5000 3.0000 -5.5000
v -12.5000 2.0000 -5.5000
v -12.5000 4.0000 -5.5000
v -12.5000 5.0000 -5.5000
v -11.5000 2.0000 5.5000
v -11.5000 3.0000 5.5000
v -11.5000 2.0000 4.5000
v -11.5000 4.0000 5.5000
v -11.5000 5.0000 5.5000
v -11.5000 5.0000 4.5000
v -11.5000 1.0000 4.5000
v -11.5000 1.0000 3.5000
v -11.5000 6.0000 4.5000
v -11.5000 6.0000 3.5000
v -11.5000 1.0000 2.5000
v -11.5000 6.0000 2.5000
v -11.5000 0.0000 2.5000
v -11.5000 0.0000 1.5000
v -11.5000 7.0000 2.5000
v -11.5000 7.0000 1.5000
v -11.5000 0.0000 0.5000
v -11.5000 7.0000 0.5000
v -11.5000 0.0000 -0.5000
v -11.5000 7.0000 -0.5000
v -11.5000 0.0000 -1.5000
v -11.5000 7.0000 -1.5000
v -11.5000 1.0000 -2.5000
v -11.5000 0.0000 -2.5000
v -11.5000 7.0000 -2.5000
v -11.5000 6.0000 -2.5000
v -11.5000 1.0000 -3.5000
v -11.5000 6.0000 -3.5000
v -11.5000 2.0000 -4.5000
v -11.5000 1.0000 -4.5000
v -11.5000 6.0000 -4.5000
v -11.5000 5.0000 -4.5000
v -11.5000 3.0000 -5.5000
v -11.5000 2.0000 -5.5000
v -11.5000 4.0000 -5.5000
v -11.5000 5.0000 -5.5000
v -10.5000 2.0000 5.5000
v -10.5000 3.0000 5.5000
v -10.5000 2.0000 4.5000
v -10.5000 4.0000 5.5000
v -10.5000 5.0000 5.5000
v -10.5000 5.0000 4.5000
v -10.5000 1.0000 4.5000
v -10.5000 1.0000 3.5000
v -10.5000 6.0000 4.5000
v -10.5000 6.0000 3.5000
v -11.5000 0.0000 3.5000
v -10.5000 0.0000 3.5000
v -10.5000 0.0000 2.5000
v -11.5000 7.0000 3.5000
v -10.5000 7.0000 3.5000
v -10.5000 7.0000 2.5000
v -10.5000 0.0000 1.5000
v -10.5000 7.0000 1.5000
v -10.5000 0.0000 0.5000
v -10.5000 7.0000 0.5000
v -10.5000 0.0000 -0.5000
v -10.5000 7.0000 -0.5000
v -10.5000 0.0000 -1.5000
v -10.5000 7.0000 -1.5000
v -10.5000 0.0000 -2.5000
v -10.5000 7.0000 -2.5000
v -11.5000 0.0000 -3.5000
v -10.5000 1.0000 -3.5000
v -10.5000 0.0000 -3.5000
v -11.5000 7.0000 -3.5000
v -10.5000 7.0000 -3.5000
v -10.5000 6.0000 -3.5000
v -10.5000 2.0000 -4.5000
v -10.5000 1.0000 -4.5000
v -10.5000 6.0000 -4.5000
v -10.5000 5.0000 -4.5000
v -10.5000 3.0000 -5.5000
v -10.5000 2.0000 -5.5000
v -10.5000 4.0000 -5.5000
v -10.5000 5.0000 -5.5000
v -9.5000 2.0000 5.5000
v -9.5000 3.0000 5.5000
v -9.5000 2.0000 4.5000
v -9.5000 4.0000 5.5000
v -9.5000 5.0000 5.5000
v -10.5000 6.0000 5.5000
v -9.5000 6.0000 5.5000
v -9.5000 6.0000 4.5000
v -9.5000 1.0000 4.5000
v -9.5000 1.0000 3.5000
v -10.5000 7.0000 4.5000
v -9.5000 7.0000 4.5000
v -9.5000 7.0000 3.5000
v -9.5000 0.0000 3.5000
v -9.5000 0.0000 2.5000
v -9.5000 7.0000 2.5000
v -9.5000 0.0000 1.5000
v -9.5000 7.0000 1.5000
v -9.5000 0.0000 0.5000
v -10.5000 8.0000 1.5000
v -10.5000 8.0000 0.5000
v -9.5000 8.0000 1.5000
v -9.5000 8.0000 0.5000
v -9.5000 0.0000 -0.5000
v -10.5000 8.0000 -0.5000
v -9.5000 8.0000 -0.5000
v -9.5000 0.0000 -1.5000
v -10.5000 8.0000 -1.5000
v -9.5000 8.0000 -1.5000
v -9.5000 7.0000 -1.5000
v -9.5000 0.0000 -2.5000
v -9.5000 7.0000 -2.5000
v -9.5000 1.0000 -3.5000
v -9.5000 0.0000 -3.5000
v -9.5000 7.0000 -3.5000
v -9.5000 2.0000 -4.5000
v -9.5000 1.0000 -4.5000
v -10.5000 7.0000 -4.5000
v -9.5000 7.0000 -4.5000
v -9.5000 6.0000 -4.5000
v -9.5000 3.0000 -5.5000
v -9.5000 2.0000 -5.5000
v -9.5000 4.0000 -5.5000
v -9.5000 5.0000 -5.5000
v -10.5000 6.0000 -5.5000
v -9.5000 6.0000 -5.5000
v -9.5000 4.0000 6.5000
v -9.5000 5.0000 6.5000
v -8.5000 4.0000 6.5000
v -8.5000 5.0000 6.5000
v -8.5000 5.0000 5.5000
v -8.5000 4.0000 5.5000
v -8.5000 2.0000 5.5000
v -8.5000 3.0000 5.5000
v -8.5000 2.0000 4.5000
v -8.5000 6.0000 5.5000
v -8.5000 6.0000 4.5000
v -8.5000 1.0000 4.5000
v -8.5000 1.0000 3.5000
v -8.5000 7.0000 4.5000
v -8.5000 7.0000 3.5000
v -8.5000 0.0000 3.5000
v -8.5000 0.0000 2.5000
v -8.5000 1.0000 2.5000
v -9.5000 8.0000 3.5000
v -9.5000 8.0000 2.5000
v -8.5000 8.0000 3.5000
v -8.5000 8.0000 2.5000
v -8.5000 0.0000 1.5000
v -8.5000 8.0000 1.5000
v -8.5000 0.0000 0.5000
v -8.5000 8.0000 0.5000
v -8.5000 0.0000 -0.5000
v -8.5000 8.0000 -0.5000
v -8.5000 0.0000 -1.5000
v -8.5000 8.0000 -1.5000
v -8.5000 0.0000 -2.5000
v -9.5000 8.0000 -2.5000
v -8.5000 8.0000 -2.5000
v -8.5000 0.0000 -3.5000
v -8.5000 1.0000 -3.5000
v -8.5000 1.0000 -2.5000
v -9.5000 8.0000 -3.5000
v -8.5000 8.0000 -3.5000
v -8.5000 7.0000 -3.5000
v -8.5000 2.0000 -4.5000
v -8.5000 1.0000 -4.5000
v -8.5000 7.0000 -4.5000
v -8.5000 6.0000 -4.5000
v -8.5000 3.0000 -5.5000
v -8.5000 2.0000 -5.5000
v -8.5000 4.0000 -5.5000
v -8.5000 6.0000 -5.5000
v -8.5000 5.0000 -5.5000
v -9.5000 5.0000 -6.5000
v -9.5000 4.0000 -6.5000
v -8.5000 5.0000 -6.5000
v -8.5000 4.0000 -6.5000
v -8.5000 3.0000 6.5000
v -7.5000 3.0000 6.5000
v -7.5000 4.0000 6.5000
v -7.5000 3.0000 5.5000
v -7.5000 5.0000 6.5000
v -8.5000 6.0000 6.5000
v -7.5000 6.0000 6.5000
v -7.5000 6.0000 5.5000
v -7.5000 2.0000 5.5000
v -7.5000 2.0000 4.5000
v -8.5000 7.0000 5.5000
v -7.5000 7.0000 5.5000
v -7.5000 7.0000 4.5000
v -7.5000 1.0000 4.5000
v -7.5000 1.0000 3.5000
v -7.5000 7.0000 3.5000
v -7.5000 1.0000 2.5000
v -7.5000 8.0000 3.5000
v -7.5000 8.0000 2.5000
v -7.5000 0.0000 2.5000
v -7.5000 0.0000 1.5000
v -7.5000 8.0000 1.5000
v -7.5000 0.0000 0.5000
v -7.5000 8.0000 0.5000
v -7.5000 0.0000 -0.5000
v -7.5000 8.0000 -0.5000
v -7.5000 0.0000 -1.5000
v -7.5000 8.0000 -1.5000
v -7.5000 1.0000 -2.5000
v -7.5000 0.0000 -2.5000
v -7.5000 8.0000 -2.5000
v -7.5000 1.0000 -3.5000
v -7.5000 8.0000 -3.5000
v -7.5000 7.0000 -3.5000
v -7.5000 2.0000 -4.5000
v -7.5000 1.0000 -4.5000
v -7.5000 7.0000 -4.5000
v -7.5000 3.0000 -5.5000
v -7.5000 2.0000 -5.5000
v -8.5000 7.0000 -5.5000
v -7.5000 7.0000 -5.5000
v -7.5000 6.0000 -5.5000
v -8.5000 3.0000 -6.5000
v -7.5000 4.0000 -6.5000
v -7.5000 3.0000 -6.5000
v -7.5000 5.0000 -6.5000
v -8.5000 6.0000 -6.5000
v -7.5000 6.0000 -6.5000
v -6.5000 3.0000 6.5000
v -6.5000 4.0000 6.5000
v -6.5000 3.0000 5.5000
v -6.5000 5.0000 6.5000
v -6.5000 6.0000 6.5000
v -6.5000 6.0000 5.5000
v -6.5000 2.0000 5.5000
v -6.5000 2.0000 4.5000
v -6.5000 7.0000 5.5000
v -6.5000 7.0000 4.5000
v -6.5000 1.0000 4.5000
v -6.5000 1.0000 3.5000
v -7.5000 8.0000 4.5000
v -6.5000 8.0000 4.5000
v -6.5000 8.0000 3.5000
v -6.5000 1.0000 2.5000
v -6.5000 8.0000 2.5000
v -6.5000 0.0000 2.5000
v -6.5000 0.0000 1.5000
v -6.5000 1.0000 1.5000
v -6.5000 8.0000 1.5000
v -6.5000 0.0000 0.5000
v -6.5000 8.0000 0.5000
v -6.5000 0.0000 -0.5000
v -6.5000 8.0000 -0.5000
v -6.5000 0.0000 -1.5000
v -6.5000 8.0000 -1.5000
v -6.5000 0.0000 -2.5000
v -6.5000 1.0000 -2.5000
v -6.5000 1.0000 -1.5000
v -6.5000 8.0000 -2.5000
v -6.5000 1.0000 -3.5000
v -6.5000 8.0000 -3.5000
v -6.5000 2.0000 -4.5000
v -6.5000 1.0000 -4.5000
v -7.5000 8.0000 -4.5000
v -6.5000 8.0000 -4.5000
v -6.5000 7.0000 -4.5000
v -6.5000 3.0000 -5.5000
v -6.5000 2.0000 -5.5000
v -6.5000 7.0000 -5.5000
v -6.5000 6.0000 -5.5000
v -6.5000 4.0000 -6.5000
v -6.5000 3.0000 -6.5000
v -6.5000 5.0000 -6.5000
v -6.5000 6.0000 -6.5000
v -6.5000 3.0000 7.5000
v -6.5000 4.0000 7.5000
v -5.5000 3.0000 7.5000
v -5.5000 4.0000 7.5000
v -5.5000 3.0000 6.5000
v -6.5000 5.0000 7.5000
v -5.5000 5.0000 7.5000
v -6.5000 6.0000 7.5000
v -5.5000 6.0000 7.5000
v -5.5000 6.0000 6.5000
v -6.5000 2.0000 6.5000
v -5.5000 2.0000 6.5000
v -5.5000 2.0000 5.5000
v -6.5000 7.0000 6.5000
v -5.5000 7.0000 6.5000
v -5.5000 7.0000 5.5000
v -5.5000 2.0000 4.5000
v -5.5000 7.0000 4.5000
v -5.5000 1.0000 4.5000
v -5.5000 1.0000 3.5000
v -5.5000 8.0000 4.5000
v -5.5000 8.0000 3.5000
v -5.5000 1.0000 2.5000
v -5.5000 8.0000 2.5000
v -5.5000 1.0000 1.5000
v -5.5000 8.0000 1.5000
v -5.5000 0.0000 1.5000
v -5.5000 0.0000 0.5000
v -6.5000 9.0000 1.5000
v -6.5000 9.0000 0.5000
v -5.5000 9.0000 1.5000
v -5.5000 9.0000 0.5000
v -5.5000 0.0000 -0.5000
v -6.5000 9.0000 -0.5000
v -5.5000 9.0000 -0.5000
v -5.5000 1.0000 -1.5000
v -5.5000 0.0000 -1.5000
v -6.5000 9.0000 -1.5000
v -5.5000 9.0000 -1.5000
v -5.5000 8.0000 -1.5000
v -5.5000 1.0000 -2.5000
v -5.5000 8.0000 -2.5000
v -5.5000 1.0000 -3.5000
v -5.5000 8.0000 -3.5000
v -5.5000 2.0000 -4.5000
v -5.5000 1.0000 -4.5000
v -5.5000 8.0000 -4.5000
v -5.5000 7.0000 -4.5000
v -5.5000 2.0000 -5.5000
v -5.5000 7.0000 -5.5000
v -6.5000 2.0000 -6.5000
v -5.5000 3.0000 -6.5000
v -5.5000 2.0000 -6.5000
v -6.5000 7.0000 -6.5000
v -5.5000 7.0000 -6.5000
v -5.5000 6.0000 -6.5000
v -6.5000 4.0000 -7.5000
v -6.5000 3.0000 -7.5000
v -5.5000 4.0000 -7.5000
v -5.5000 3.0000 -7.5000
v -6.5000 5.0000 -7.5000
v -5.5000 5.0000 -7.5000
v -6.5000 6.0000 -7.5000
v -5.5000 6.0000 -7.5000
v -4.5000 3.0000 7.5000
v -4.5000 4.0000 7.5000
v -4.5000 3.0000 6.5000
v -4.5000 5.0000 7.5000
v -4.5000 6.0000 7.5000
v -4.5000 6.0000 6.5000
v -4.5000 2.0000 6.5000
v -4.5000 2.0000 5.5000
v -4.5000 7.0000 6.5000
v -4.5000 7.0000 5.5000
v -5.5000 1.0000 5.5000
v -4.5000 1.0000 5.5000
v -4.5000 1.0000 4.5000
v -5.5000 8.0000 5.5000
v -4.5000 8.0000 5.5000
v -4.5000 8.0000 4.5000
v -4.5000 1.0000 3.5000
v -4.5000 8.0000 3.5000
v -4.5000 1.0000 2.5000
v -4.5000 8.0000 2.5000
v -5.5000 0.0000 2.5000
v -4.5000 0.0000 2.5000
v -4.5000 0.0000 1.5000
v -5.5000 9.0000 2.5000
v -4.5000 9.0000 2.5000
v -4.5000 9.0000 1.5000
v -4.5000 0.0000 0.5000
v -4.5000 9.0000 0.5000
v -4.5000 0.0000 -0.5000
v -4.5000 9.0000 -0.5000
v -4.5000 0.0000 -1.5000
v -4.5000 9.0000 -1.5000
v -5.5000 0.0000 -2.5000
v -4.5000 1.0000 -2.5000
v -4.5000 0.0000 -2.5000
v -5.5000 9.0000 -2.5000
v -4.5000 9.0000 -2.5000
v -4.5000 8.0000 -2.5000
v -4.5000 1.0000 -3.5000
v -4.5000 8.0000 -3.5000
v -4.5000 1.0000 -4.5000
v -4.5000 8.0000 -4.5000
v -5.5000 1.0000 -5.5000
v -4.5000 2.0000 -5.5000
v -4.5000 1.0000 -5.5000
v -5.5000 8.0000 -5.5000
v -4.5000 8.0000 -5.5000
v -4.5000 7.0000 -5.5000
v -4.5000 3.0000 -6.5000
v -4.5000 2.0000 -6.5000
v -4.5000 7.0000 -6.5000
v -4.5000 6.0000 -6.5000
v -4.5000 4.0000 -7.5000
v -4.5000 3.0000 -7.5000
v -4.5000 5.0000 -7.5000
v -4.5000 6.0000 -7.5000
v -3.5000 3.0000 7.5000
v -3.5000 4.0000 7.5000
v -3.5000 3.0000 6.5000
v -3.5000 5.0000 7.5000
v -3.5000 6.0000 7.5000
v -3.5000 6.0000 6.5000
v -3.5000 2.0000 6.5000
v -3.5000 2.0000 5.5000
v -3.5000 7.0000 6.5000
v -3.5000 7.0000 5.5000
v -3.5000 1.0000 5.5000
v -3.5000 1.0000 4.5000
v -3.5000 8.0000 5.5000
v -3.5000 8.0000 4.5000
v -3.5000 1.0000 3.5000
v -3.5000 8.0000 3.5000
v -3.5000 1.0000 2.5000
v -3.5000 8.0000 2.5000
v -3.5000 0.0000 2.5000
v -3.5000 0.0000 1.5000
v -3.5000 9.0000 2.5000
v -3.5000 9.0000 1.5000
v -3.5000 0.0000 0.5000
v -3.5000 9.0000 0.5000
v -3.5000 0.0000 -0.5000
v -3.5000 9.0000 -0.5000
v -3.5000 0.0000 -1.5000
v -3.5000 9.0000 -1.5000
v -3.5000 1.0000 -2.5000
v -3.5000 0.0000 -2.5000
v -3.5000 9.0000 -2.5000
v -3.5000 8.0000 -2.5000
v -3.5000 1.0000 -3.5000
v -3.5000 8.0000 -3.5000
v -3.5000 1.0000 -4.5000
v -3.5000 8.0000 -4.5000
v -3.5000 2.0000 -5.5000
v -3.5000 1.0000 -5.5000
v -3.5000 8.0000 -5.5000
v -3.5000 7.0000 -5.5000
v -3.5000 3.0000 -6.5000
v -3.5000 2.0000 -6.5000
v -3.5000 7.0000 -6.5000
v -3.5000 6.0000 -6.5000
v -3.5000 4.0000 -7.5000
v -3.5000 3.0000 -7.5000
v -3.5000 5.0000 -7.5000
v -3.5000 6.0000 -7.5000
v -2.5000 3.0000 7.5000
v -2.5000 4.0000 7.5000
v -2.5000 3.0000 6.5000
v -2.5000 5.0000 7.5000
v -2.5000 6.0000 7.5000
v -2.5000 6.0000 6.5000
v -2.5000 2.0000 6.5000
v -2.5000 2.0000 5.5000
v -2.5000 7.0000 6.5000
v -2.5000 7.0000 5.5000
v -2.5000 1.0000 5.5000
v -2.5000 1.0000 4.5000
v -2.5000 8.0000 5.5000
v -2.5000 8.0000 4.5000
v -2.5000 1.0000 3.5000
v -2.5000 8.0000 3.5000
v -3.5000 0.0000 3.5000
v -2.5000 0.0000 3.5000
v -2.5000 0.0000 2.5000
v -3.5000 9.0000 3.5000
v -2.5000 9.0000 3.5000
v -2.5000 9.0000 2.5000
v -2.5000 0.0000 1.5000
v -2.5000 9.0000 1.5000
v -2.5000 0.0000 0.5000
v -2.5000 9.0000 0.5000
v -2.5000 0.0000 -0.5000
v -2.5000 9.0000 -0.5000
v -2.5000 0.0000 -1.5000
v -2.5000 9.0000 -1.5000
v -2.5000 0.0000 -2.5000
v -2.5000 9.0000 -2.5000
v -3.5000 0.0000 -3.5000
v -2.5000 1.0000 -3.5000
v -2.5000 0.0000 -3.5000
v -3.5000 9.0000 -3.5000
v -2.5000 9.0000 -3.5000
v -2.5000 8.0000 -3.5000
v -2.5000 1.0000 -4.5000
v -2.5000 8.0000 -4.5000
v -2.5000 2.0000 -5.5000
v -2.5000 1.0000 -5.5000
v -2.5000 8.0000 -5.5000
v -2.5000 7.0000 -5.5000
v -2.5000 3.0000 -6.5000
v -2.5000 2.0000 -6.5000
v -2.5000 7.0000 -6.5000
v -2.5000 6.0000 -6.5000
v -2.5000 4.0000 -7.5000
v -2.5000 3.0000 -7.5000
v -2.5000 5.0000 -7.5000
v -2.5000 6.0000 -7.5000
v -2.5000 2.0000 7.5000
v -1.5000 2.0000 7.5000
v -1.5000 3.0000 7.5000
v -1.5000 2.0000 6.5000
v -1.5000 4.0000 7.5000
v -1.5000 5.0000 7.5000
v -1.5000 6.0000 7.5000
v -2.5000 7.0000 7.5000
v -1.5000 7.0000 7.5000
v -1.5000 7.0000 6.5000
v -1.5000 2.0000 5.5000
v -1.5000 7.0000 5.5000
v -1.5000 1.0000 5.5000
v -1.5000 1.0000 4.5000
v -1.5000 8.0000 5.5000
v -1.5000 8.0000 4.5000
v -1.5000 1.0000 3.5000
v -1.5000 8.0000 3.5000
v -1.5000 0.0000 3.5000
v -1.5000 0.0000 2.5000
v -1.5000 9.0000 3.5000
v -1.5000 9.0000 2.5000
v -1.5000 0.0000 1.5000
v -1.5000 9.0000 1.5000
v -1.5000 0.0000 0.5000
v -1.5000 9.0000 0.5000
v -1.5000 0.0000 -0.5000
v -1.5000 9.0000 -0.5000
v -1.5000 0.0000 -1.5000
v -1.5000 9.0000 -1.5000
v -1.5000 0.0000 -2.5000
v -1.5000 9.0000 -2.5000
v -1.5000 1.0000 -3.5000
v -1.5000 0.0000 -3.5000
v -1.5000 9.0000 -3.5000
v -1.5000 8.0000 -3.5000
v -1.5000 1.0000 -4.5000
v -1.5000 8.0000 -4.5000
v -1.5000 2.0000 -5.5000
v -1.5000 1.0000 -5.5000
v -1.5000 8.0000 -5.5000
v -1.5000 7.0000 -5.5000
v -1.5000 2.0000 -6.5000
v -1.5000 7.0000 -6.5000
v -2.5000 2.0000 -7.5000
v -1.5000 3.0000 -7.5000
v -1.5000 2.0000 -7.5000
v -1.5000 4.0000 -7.5000
v -1.5000 5.0000 -7.5000
v -1.5000 6.0000 -7.5000
v -2.5000 7.0000 -7.5000
v -1.5000 7.0000 -7.5000
v -0.5000 2.0000 7.5000
v -0.5000 3.0000 7.5000
v -0.5000 2.0000 6.5000
v -0.5000 4.0000 7.5000
v -0.5000 5.0000 7.5000
v -0.5000 6.0000 7.5000
v -0.5000 7.0000 7.5000
v -0.5000 7.0000 6.5000
v -0.5000 2.0000 5.5000
v -0.5000 7.0000 5.5000
v -0.5000 1.0000 5.5000
v -0.5000 1.0000 4.5000
v -0.5000 8.0000 5.5000
v -0.5000 8.0000 4.5000
v -0.5000 1.0000 3.5000
v -0.5000 8.0000 3.5000
v -0.5000 0.0000 3.5000
v -0.5000 0.0000 2.5000
v -0.5000 9.0000 3.5000
v -0.5000 9.0000 2.5000
v -0.5000 0.0000 1.5000
v -0.5000 9.0000 1.5000
v -0.5000 0.0000 0.5000
v -0.5000 9.0000 0.5000
v -0.5000 0.0000 -0.5000
v -0.5000 9.0000 -0.5000
v -0.5000 0.0000 -1.5000
v -0.5000 9.0000 -1.5000
v -0.5000 0.0000 -2.5000
v -0.5000 9.0000 -2.5000
v -0.5000 1.0000 -3.5000
v -0.5000 0.0000 -3.5000
v -0.5000 9.0000 -3.5000
v -0.5000 8.0000 -3.5000
v -0.5000 1.0000 -4.5000
v -0.5000 8.0000 -4.5000
v -0.5000 2.0000 -5.5000
v -0.5000 1.0000 -5.5000
v -0.5000 8.0000 -5.5000
v -0.5000 7.0000 -5.5000
v -0.5000 2.0000 -6.5000
v -0.5000 7.0000 -6.5000
v -0.5000 3.0000 -7.5000
v -0.5000 2.0000 -7.5000
v -0.5000 4.0000 -7.5000
v -0.5000 5.0000 -7.5000
v -0.5000 6.0000 -7.5000
v -0.5000 7.0000 -7.5000
v 0.5000 2.0000 7.5000
v 0.5000 3.0000 7.5000
v 0.5000 2.0000 6.5000
v 0.5000 4.0000 7.5000
v 0.5000 5.0000 7.5000
v 0.5000 6.0000 7.5000
v 0.5000 7.0000 7.5000
v 0.5000 7.0000 6.5000
v 0.5000 2.0000 5.5000
v 0.5000 7.0000 5.5000
v 0.5000 1.0000 5.5000
v 0.5000 1.0000 4.5000
v 0.5000 8.0000 5.5000
v 0.5000 8.0000 4.5000
v 0.5000 1.0000 3.5000
v 0.5000 8.0000 3.5000
v 0.5000 0.0000 3.5000
v 0.5000 0.0000 2.5000
v 0.5000 9.0000 3.5000
v 0.5000 9.0000 2.5000
v 0.5000 0.0000 1.5000
v 0.5000 9.0000 1.5000
v 0.5000 0.0000 0.5000
v 0.5000 9.0000 0.5000
v 0.5000 0.0000 -0.5000
v 0.5000 9.0000 -0.5000
v 0.5000 0.0000 -1.5000
v 0.5000 9.0000 -1.5000
v 0.5000 0.0000 -2.5000
v 0.5000 9.0000 -2.5000
v 0.5000 1.0000 -3.5000
v 0.5000 0.0000 -3.5000
v 0.5000 9.0000 -3.5000
v 0.5000 8.0000 -3.5000
v 0.5000 1.0000 -4.5000
v 0.5000 8.0000 -4.5000
v 0.5000 2.0000 -5.5000
v 0.5000 1.0000 -5.5000
v 0.5000 8.0000 -5.5000
v 0.5000 7.0000 -5.5000
v 0.5000 2.0000 -6.5000
v 0.5000 7.0000 -6.5000
v 0.5000 3.0000 -7.5000
v 0.5000 2.0000 -7.5000
v 0.5000 4.0000 -7.5000
v 0.5000 5.0000 -7.5000
v 0.5000 6.0000 -7.5000
v 0.5000 7.0000 -7.5000
v 1.5000 2.0000 7.5000
v 1.5000 3.0000 7.5000
v 1.5000 2.0000 6.5000
v 1.5000 4.0000 7.5000
v 1.5000 5.0000 7.5000
v 1.5000 6.0000 7.5000
v 1.5000 7.0000 7.5000
v 1.5000 7.0000 6.5000
v 1.5000 2.0000 5.5000
v 1.5000 7.0000 5.5000
v 1.5000 1.0000 5.5000
v 1.5000 1.0000 4.5000
v 1.5000 8.0000 5.5000
v 1.5000 8.0000 4.5000
v 1.5000 1.0000 3.5000
v 1.5000 8.0000 3.5000
v 1.5000 0.0000 3.5000
v 1.5000 0.0000 2.5000
v 1.5000 9.0000 3.5000
v 1.5000 9.0000 2.5000
v 1.5000 0.0000 1.5000
v 1.5000 9.0000 1.5000
v 1.5000 0.0000 0.5000
v 1.5000 9.0000 0.5000
v 1.5000 0.0000 -0.5000
v 1.5000 9.0000 -0.5000
v 1.5000 0.0000 -1.5000
v 1.5000 9.0000 -1.5000
v 1.5000 0.0000 -2.5000
v 1.5000 9.0000 -2.5000
v 1.5000 1.0000 -3.5000
v 1.5000 0.0000 -3.5000
v 1.5000 9.0000 -3.5000
v 1.5000 8.0000 -3.5000
v 1.5000 1.0000 -4.5000
v 1.5000 8.0000 -4.5000
v 1.5000 2.0000 -5.5000
v 1.5000 1.0000 -5.5000
v 1.5000 8.0000 -5.5000
v 1.5000 7.0000 -5.5000
v 1.5000 2.0000 -6.5000
v 1.5000 7.0000 -6.5000
v 1.5000 3.0000 -7.5000
v 1.5000 2.0000 -7.5000
v 1.5000 4.0000 -7.5000
v 1.5000 5.0000 -7.5000
v 1.5000 6.0000 -7.5000
v 1.5000 7.0000 -7.5000
v 2.5000 2.0000 7.5000
v 2.5000 2.0000 6.5000
v 2.5000 3.0000 6.5000
v 2.5000 3.0000 7.5000
v 2.5000 4.0000 7.5000
v 2.5000 5.0000 7.5000
v 2.5000 6.0000 7.5000
v 2.5000 6.0000 6.5000
v 2.5000 7.0000 6.5000
v 2.5000 7.0000 7.5000
v 2.5000 2.0000 5.5000
v 2.5000 7.0000 5.5000
v 2.5000 1.0000 5.5000
v 2.5000 1.0000 4.5000
v 2.5000 8.0000 5.5000
v 2.5000 8.0000 4.5000
v 2.5000 1.0000 3.5000
v 2.5000 8.0000 3.5000
v 2.5000 0.0000 3.5000
v 2.5000 0.0000 2.5000
v 2.5000 9.0000 3.5000
v 2.5000 9.0000 2.5000
v 2.5000 0.0000 1.5000
v 2.5000 9.0000 1.5000
v 2.5000 0.0000 0.5000
v 2.5000 9.0000 0.5000
v 2.5000 0.0000 -0.5000
v 2.5000 9.0000 -0.5000
v 2.5000 0.0000 -1.5000
v 2.5000 9.0000 -1.5000
v 2.5000 0.0000 -2.5000
v 2.5000 9.0000 -2.5000
v 2.5000 1.0000 -3.5000
v 2.5000 0.0000 -3.5000
v 2.5000 9.0000 -3.5000
v 2.5000 8.0000 -3.5000
v 2.5000 1.0000 -4.5000
v 2.5000 8.0000 -4.5000
v 2.5000 2.0000 -5.5000
v 2.5000 1.0000 -5.5000
v 2.5000 8.0000 -5.5000
v 2.5000 7.0000 -5.5000
v 2.5000 2.0000 -6.5000
v 2.5000 7.0000 -6.5000
v 2.5000 2.0000 -7.5000
v 2.5000 3.0000 -7.5000
v 2.5000 3.0000 -6.5000
v 2.5000 4.0000 -7.5000
v 2.5000 5.0000 -7.5000
v 2.5000 6.0000 -7.5000
v 2.5000 6.0000 -6.5000
v 2.5000 7.0000 -7.5000
v 3.5000 3.0000 7.5000
v 3.5000 4.0000 7.5000
v 3.5000 3.0000 6.5000
v 3.5000 5.0000 7.5000
v 3.5000 6.0000 7.5000
v 3.5000 6.0000 6.5000
v 3.5000 2.0000 6.5000
v 3.5000 2.0000 5.5000
v 3.5000 7.0000 6.5000
v 3.5000 7.0000 5.5000
v 3.5000 1.0000 5.5000
v 3.5000 1.0000 4.5000
v 3.5000 8.0000 5.5000
v 3.5000 8.0000 4.5000
v 3.5000 1.0000 3.5000
v 3.5000 8.0000 3.5000
v 3.5000 0.0000 3.5000
v 3.5000 0.0000 2.5000
v 3.5000 1.0000 2.5000
v 3.5000 8.0000 2.5000
v 3.5000 9.0000 2.5000
v 3.5000 9.0000 3.5000
v 3.5000 0.0000 1.5000
v 3.5000 9.0000 1.5000
v 3.5000 0.0000 0.5000
v 3.5000 9.0000 0.5000
v 3.5000 0.0000 -0.5000
v 3.5000 9.0000 -0.5000
v 3.5000 0.0000 -1.5000
v 3.5000 9.0000 -1.5000
v 3.5000 0.0000 -2.5000
v 3.5000 9.0000 -2.5000
v 3.5000 0.0000 -3.5000
v 3.5000 1.0000 -3.5000
v 3.5000 1.0000 -2.5000
v 3.5000 8.0000 -2.5000
v 3.5000 8.0000 -3.5000
v 3.5000 9.0000 -3.5000
v 3.5000 1.0000 -4.5000
v 3.5000 8.0000 -4.5000
v 3.5000 2.0000 -5.5000
v 3.5000 1.0000 -5.5000
v 3.5000 8.0000 -5.5000
v 3.5000 7.0000 -5.5000
v 3.5000 3.0000 -6.5000
v 3.5000 2.0000 -6.5000
v 3.5000 7.0000 -6.5000
v 3.5000 6.0000 -6.5000
v 3.5000 4.0000 -7.5000
v 3.5000 3.0000 -7.5000
v 3.5000 5.0000 -7.5000
v 3.5000 6.0000 -7.5000
v 4.5000 3.0000 7.5000
v 4.5000 4.0000 7.5000
v 4.5000 3.0000 6.5000
v 4.5000 5.0000 7.5000
v 4.5000 6.0000 7.5000
v 4.5000 6.0000 6.5000
v 4.5000 2.0000 6.5000
v 4.5000 2.0000 5.5000
v 4.5000 7.0000 6.5000
v 4.5000 7.0000 5.5000
v 4.5000 1.0000 5.5000
v 4.5000 1.0000 4.5000
v 4.5000 8.0000 5.5000
v 4.5000 8.0000 4.5000
v 4.5000 1.0000 3.5000
v 4.5000 8.0000 3.5000
v 4.5000 1.0000 2.5000
v 4.5000 8.0000 2.5000
v 4.5000 0.0000 2.5000
v 4.5000 0.0000 1.5000
v 4.5000 9.0000 2.5000
v 4.5000 9.0000 1.5000
v 4.5000 0.0000 0.5000
v 4.5000 9.0000 0.5000
v 4.5000 0.0000 -0.5000
v 4.5000 9.0000 -0.5000
v 4.5000 0.0000 -1.5000
v 4.5000 9.0000 -1.5000
v 4.5000 1.0000 -2.5000
v 4.5000 0.0000 -2.5000
v 4.5000 9.0000 -2.5000
v 4.5000 8.0000 -2.5000
v 4.5000 1.0000 -3.5000
v 4.5000 8.0000 -3.5000
v 4.5000 1.0000 -4.5000
v 4.5000 8.0000 -4.5000
v 4.5000 2.0000 -5.5000
v 4.5000 1.0000 -5.5000
v 4.5000 8.0000 -5.5000
v 4.5000 7.0000 -5.5000
v 4.5000 3.0000 -6.5000
v 4.5000 2.0000 -6.5000
v 4.5000 7.0000 -6.5000
v 4.5000 6.0000 -6.5000
v 4.5000 4.0000 -7.5000
v 4.5000 3.0000 -7.5000
v 4.5000 5.0000 -7.5000
v 4.5000 6.0000 -7.5000
v 5.5000 3.0000 7.5000
v 5.5000 4.0000 7.5000
v 5.5000 3.0000 6.5000
v 5.5000 5.0000 7.5000
v 5.5000 6.0000 7.5000
v 5.5000 6.0000 6.5000
v 5.5000 2.0000 6.5000
v 5.5000 2.0000 5.5000
v 5.5000 7.0000 6.5000
v 5.5000 7.0000 5.5000
v 5.5000 1.0000 5.5000
v 5.5000 1.0000 4.5000
v 5.5000 2.0000 4.5000
v 5.5000 7.0000 4.5000
v 5.5000 8.0000 4.5000
v 5.5000 8.0000 5.5000
v 5.5000 1.0000 3.5000
v 5.5000 8.0000 3.5000
v 5.5000 1.0000 2.5000
v 5.5000 8.0000 2.5000
v 5.5000 0.0000 2.5000
v 5.5000 0.0000 1.5000
v 5.5000 1.0000 1.5000
v 5.5000 8.0000 1.5000
v 5.5000 9.0000 1.5000
v 5.5000 9.0000 2.5000
v 5.5000 0.0000 0.5000
v 5.5000 9.0000 0.5000
v 5.5000 0.0000 -0.5000
v 5.5000 9.0000 -0.5000
v 5.5000 0.0000 -1.5000
v 5.5000 9.0000 -1.5000
v 5.5000 0.0000 -2.5000
v 5.5000 1.0000 -2.5000
v 5.5000 1.0000 -1.5000
v 5.5000 8.0000 -1.5000
v 5.5000 8.0000 -2.5000
v 5.5000 9.0000 -2.5000
v 5.5000 1.0000 -3.5000
v 5.5000 8.0000 -3.5000
v 5.5000 1.0000 -4.5000
v 5.5000 8.0000 -4.5000
v 5.5000 1.0000 -5.5000
v 5.5000 2.0000 -5.5000
v 5.5000 2.0000 -4.5000
v 5.5000 7.0000 -4.5000
v 5.5000 7.0000 -5.5000
v 5.5000 8.0000 -5.5000
v 5.5000 3.0000 -6.5000
v 5.5000 2.0000 -6.5000
v 5.5000 7.0000 -6.5000
v 5.5000 6.0000 -6.5000
v 5.5000 4.0000 -7.5000
v 5.5000 3.0000 -7.5000
v 5.5000 5.0000 -7.5000
v 5.5000 6.0000 -7.5000
v 6.5000 3.0000 7.5000
v 6.5000 3.0000 6.5000
v 6.5000 4.0000 6.5000
v 6.5000 4.0000 7.5000
v 6.5000 5.0000 6.5000
v 6.5000 5.0000 7.5000
v 6.5000 6.0000 6.5000
v 6.5000 6.0000 7.5000
v 6.5000 2.0000 6.5000
v 6.5000 2.0000 5.5000
v 6.5000 3.0000 5.5000
v 6.5000 6.0000 5.5000
v 6.5000 7.0000 5.5000
v 6.5000 7.0000 6.5000
v 6.5000 2.0000 4.5000
v 6.5000 7.0000 4.5000
v 6.5000 1.0000 4.5000
v 6.5000 1.0000 3.5000
v 6.5000 8.0000 4.5000
v 6.5000 8.0000 3.5000
v 6.5000 1.0000 2.5000
v 6.5000 8.0000 2.5000
v 6.5000 1.0000 1.5000
v 6.5000 8.0000 1.5000
v 6.5000 0.0000 1.5000
v 6.5000 0.0000 0.5000
v 6.5000 8.0000 0.5000
v 6.5000 9.0000 0.5000
v 6.5000 9.0000 1.5000
v 6.5000 0.0000 -0.5000
v 6.5000 8.0000 -0.5000
v 6.5000 9.0000 -0.5000
v 6.5000 1.0000 -1.5000
v 6.5000 0.0000 -1.5000
v 6.5000 8.0000 -1.5000
v 6.5000 9.0000 -1.5000
v 6.5000 1.0000 -2.5000
v 6.5000 8.0000 -2.5000
v 6.5000 1.0000 -3.5000
v 6.5000 8.0000 -3.5000
v 6.5000 2.0000 -4.5000
v 6.5000 1.0000 -4.5000
v 6.5000 8.0000 -4.5000
v 6.5000 7.0000 -4.5000
v 6.5000 2.0000 -5.5000
v 6.5000 7.0000 -5.5000
v 6.5000 2.0000 -6.5000
v 6.5000 3.0000 -6.5000
v 6.5000 3.0000 -5.5000
v 6.5000 6.0000 -5.5000
v 6.5000 6.0000 -6.5000
v 6.5000 7.0000 -6.5000
v 6.5000 3.0000 -7.5000
v 6.5000 4.0000 -7.5000
v 6.5000 4.0000 -6.5000
v 6.5000 5.0000 -7.5000
v 6.5000 5.0000 -6.5000
v 6.5000 6.0000 -7.5000
v 7.5000 3.0000 6.5000
v 7.5000 4.0000 6.5000
v 7.5000 3.0000 5.5000
v 7.5000 5.0000 6.5000
v 7.5000 6.0000 6.5000
v 7.5000 6.0000 5.5000
v 7.5000 2.0000 5.5000
v 7.5000 2.0000 4.5000
v 7.5000 7.0000 5.5000
v 7.5000 7.0000 4.5000
v 7.5000 1.0000 4.5000
v 7.5000 1.0000 3.5000
v 7.5000 7.0000 3.5000
v 7.5000 8.0000 3.5000
v 7.5000 8.0000 4.5000
v 7.5000 1.0000 2.5000
v 7.5000 8.0000 2.5000
v 6.5000 0.0000 2.5000
v 7.5000 0.0000 2.5000
v 7.5000 0.0000 1.5000
v 7.5000 8.0000 1.5000
v 7.5000 0.0000 0.5000
v 7.5000 8.0000 0.5000
v 7.5000 0.0000 -0.5000
v 7.5000 8.0000 -0.5000
v 7.5000 0.0000 -1.5000
v 7.5000 8.0000 -1.5000
v 6.5000 0.0000 -2.5000
v 7.5000 1.0000 -2.5000
v 7.5000 0.0000 -2.5000
v 7.5000 8.0000 -2.5000
v 7.5000 1.0000 -3.5000
v 7.5000 8.0000 -3.5000
v 7.5000 2.0000 -4.5000
v 7.5000 1.0000 -4.5000
v 7.5000 7.0000 -3.5000
v 7.5000 7.0000 -4.5000
v 7.5000 8.0000 -4.5000
v 7.5000 3.0000 -5.5000
v 7.5000 2.0000 -5.5000
v 7.5000 7.0000 -5.5000
v 7.5000 6.0000 -5.5000
v 7.5000 4.0000 -6.5000
v 7.5000 3.0000 -6.5000
v 7.5000 5.0000 -6.5000
v 7.5000 6.0000 -6.5000
v 8.5000 3.0000 6.5000
v 8.5000 3.0000 5.5000
v 8.5000 4.0000 5.5000
v 8.5000 4.0000 6.5000
v 8.5000 5.0000 6.5000
v 8.5000 5.0000 5.5000
v 8.5000 6.0000 5.5000
v 8.5000 6.0000 6.5000
v 8.5000 2.0000 5.5000
v 8.5000 2.0000 4.5000
v 8.5000 6.0000 4.5000
v 8.5000 7.0000 4.5000
v 8.5000 7.0000 5.5000
v 8.5000 1.0000 4.5000
v 8.5000 1.0000 3.5000
v 8.5000 7.0000 3.5000
v 8.5000 1.0000 2.5000
v 8.5000 8.0000 3.5000
v 8.5000 8.0000 2.5000
v 8.5000 0.0000 2.5000
v 8.5000 0.0000 1.5000
v 8.5000 8.0000 1.5000
v 8.5000 0.0000 0.5000
v 8.5000 8.0000 0.5000
v 8.5000 0.0000 -0.5000
v 8.5000 8.0000 -0.5000
v 8.5000 0.0000 -1.5000
v 8.5000 8.0000 -1.5000
v 8.5000 1.0000 -2.5000
v 8.5000 0.0000 -2.5000
v 8.5000 8.0000 -2.5000
v 8.5000 1.0000 -3.5000
v 8.5000 8.0000 -3.5000
v 8.5000 7.0000 -3.5000
v 8.5000 2.0000 -4.5000
v 8.5000 1.0000 -4.5000
v 8.5000 7.0000 -4.5000
v 8.5000 3.0000 -5.5000
v 8.5000 2.0000 -5.5000
v 8.5000 6.0000 -4.5000
v 8.5000 6.0000 -5.5000
v 8.5000 7.0000 -5.5000
v 8.5000 3.0000 -6.5000
v 8.5000 4.0000 -6.5000
v 8.5000 4.0000 -5.5000
v 8.5000 5.0000 -6.5000
v 8.5000 5.0000 -5.5000
v 8.5000 6.0000 -6.5000
v 9.5000 4.0000 6.5000
v 9.5000 4.0000 5.5000
v 9.5000 5.0000 5.5000
v 9.5000 5.0000 6.5000
v 9.5000 2.0000 5.5000
v 9.5000 3.0000 5.5000
v 9.5000 2.0000 4.5000
v 9.5000 6.0000 5.5000
v 9.5000 6.0000 4.5000
v 9.5000 1.0000 4.5000
v 9.5000 1.0000 3.5000
v 9.5000 7.0000 4.5000
v 9.5000 7.0000 3.5000
v 8.5000 0.0000 3.5000
v 9.5000 0.0000 3.5000
v 9.5000 0.0000 2.5000
v 9.5000 7.0000 2.5000
v 9.5000 8.0000 2.5000
v 9.5000 8.0000 3.5000
v 9.5000 0.0000 1.5000
v 9.5000 7.0000 1.5000
v 9.5000 8.0000 1.5000
v 9.5000 0.0000 0.5000
v 9.5000 8.0000 0.5000
v 9.5000 0.0000 -0.5000
v 9.5000 8.0000 -0.5000
v 9.5000 0.0000 -1.5000
v 9.5000 8.0000 -1.5000
v 9.5000 0.0000 -2.5000
v 9.5000 7.0000 -1.5000
v 9.5000 7.0000 -2.5000
v 9.5000 8.0000 -2.5000
v 8.5000 0.0000 -3.5000
v 9.5000 1.0000 -3.5000
v 9.5000 0.0000 -3.5000
v 9.5000 7.0000 -3.5000
v 9.5000 8.0000 -3.5000
v 9.5000 2.0000 -4.5000
v 9.5000 1.0000 -4.5000
v 9.5000 7.0000 -4.5000
v 9.5000 6.0000 -4.5000
v 9.5000 3.0000 -5.5000
v 9.5000 2.0000 -5.5000
v 9.5000 4.0000 -5.5000
v 9.5000 6.0000 -5.5000
v 9.5000 5.0000 -5.5000
v 9.5000 4.0000 -6.5000
v 9.5000 5.0000 -6.5000
v 10.5000 2.0000 5.5000
v 10.5000 3.0000 5.5000
v 10.5000 2.0000 4.5000
v 10.5000 4.0000 5.5000
v 10.5000 5.0000 5.5000
v 10.5000 5.0000 4.5000
v 10.5000 6.0000 4.5000
v 10.5000 6.0000 5.5000
v 10.5000 1.0000 4.5000
v 10.5000 1.0000 3.5000
v 10.5000 6.0000 3.5000
v 10.5000 7.0000 3.5000
v 10.5000 7.0000 4.5000
v 10.5000 0.0000 3.5000
v 10.5000 0.0000 2.5000
v 10.5000 7.0000 2.5000
v 10.5000 0.0000 1.5000
v 10.5000 7.0000 1.5000
v 10.5000 0.0000 0.5000
v 10.5000 7.0000 0.5000
v 10.5000 8.0000 0.5000
v 10.5000 8.0000 1.5000
v 10.5000 0.0000 -0.5000
v 10.5000 7.0000 -0.5000
v 10.5000 8.0000 -0.5000
v 10.5000 0.0000 -1.5000
v 10.5000 7.0000 -1.5000
v 10.5000 8.0000 -1.5000
v 10.5000 0.0000 -2.5000
v 10.5000 7.0000 -2.5000
v 10.5000 1.0000 -3.5000
v 10.5000 0.0000 -3.5000
v 10.5000 7.0000 -3.5000
v 10.5000 2.0000 -4.5000
v 10.5000 1.0000 -4.5000
v 10.5000 6.0000 -3.5000
v 10.5000 6.0000 -4.5000
v 10.5000 7.0000 -4.5000
v 10.5000 3.0000 -5.5000
v 10.5000 2.0000 -5.5000
v 10.5000 4.0000 -5.5000
v 10.5000 5.0000 -5.5000
v 10.5000 5.0000 -4.5000
v 10.5000 6.0000 -5.5000
v 11.5000 2.0000 5.5000
v 11.5000 3.0000 5.5000
v 11.5000 2.0000 4.5000
v 11.5000 4.0000 5.5000
v 11.5000 5.0000 5.5000
v 11.5000 5.0000 4.5000
v 11.5000 1.0000 4.5000
v 11.5000 1.0000 3.5000
v 11.5000 6.0000 4.5000
v 11.5000 6.0000 3.5000
v 11.5000 0.0000 3.5000
v 11.5000 0.0000 2.5000
v 11.5000 1.0000 2.5000
v 11.5000 6.0000 2.5000
v 11.5000 7.0000 2.5000
v 11.5000 7.0000 3.5000
v 11.5000 0.0000 1.5000
v 11.5000 7.0000 1.5000
v 11.5000 0.0000 0.5000
v 11.5000 7.0000 0.5000
v 11.5000 0.0000 -0.5000
v 11.5000 7.0000 -0.5000
v 11.5000 0.0000 -1.5000
v 11.5000 7.0000 -1.5000
v 11.5000 0.0000 -2.5000
v 11.5000 7.0000 -2.5000
v 11.5000 0.0000 -3.5000
v 11.5000 1.0000 -3.5000
v 11.5000 1.0000 -2.5000
v 11.5000 6.0000 -2.5000
v 11.5000 6.0000 -3.5000
v 11.5000 7.0000 -3.5000
v 11.5000 2.0000 -4.5000
v 11.5000 1.0000 -4.5000
v 11.5000 6.0000 -4.5000
v 11.5000 5.0000 -4.5000
v 11.5000 3.0000 -5.5000
v 11.5000 2.0000 -5.5000
v 11.5000 4.0000 -5.5000
v 11.5000 5.0000 -5.5000
v 12.5000 2.0000 5.5000
v 12.5000 3.0000 5.5000
v 12.5000 2.0000 4.5000
v 12.5000 4.0000 5.5000
v 12.5000 5.0000 5.5000
v 12.5000 5.0000 4.5000
v 12.5000 1.0000 4.5000
v 12.5000 1.0000 3.5000
v 12.5000 6.0000 4.5000
v 12.5000 6.0000 3.5000
v 12.5000 1.0000 2.5000
v 12.5000 6.0000 2.5000
v 12.5000 0.0000 2.5000
v 12.5000 0.0000 1.5000
v 12.5000 7.0000 2.5000
v 12.5000 7.0000 1.5000
v 12.5000 0.0000 0.5000
v 12.5000 7.0000 0.5000
v 12.5000 0.0000 -0.5000
v 12.5000 7.0000 -0.5000
v 12.5000 0.0000 -1.5000
v 12.5000 7.0000 -1.5000
v 12.5000 1.0000 -2.5000
v 12.5000 0.0000 -2.5000
v 12.5000 7.0000 -2.5000
v 12.5000 6.0000 -2.5000
v 12.5000 1.0000 -3.5000
v 12.5000 6.0000 -3.5000
v 12.5000 2.0000 -4.5000
v 12.5000 1.0000 -4.5000
v 12.5000 6.0000 -4.5000
v 12.5000 5.0000 -4.5000
v 12.5000 3.0000 -5.5000
v 12.5000 2.0000 -5.5000
v 12.5000 4.0000 -5.5000
v 12.5000 5.0000 -5.5000
v 13.5000 2.0000 5.5000
v 13.5000 3.0000 5.5000
v 13.5000 2.0000 4.5000
v 13.5000 4.0000 5.5000
v 13.5000 5.0000 5.5000
v 13.5000 5.0000 4.5000
v 13.5000 1.0000 4.5000
v 13.5000 1.0000 3.5000
v 13.5000 6.0000 4.5000
v 13.5000 6.0000 3.5000
v 13.5000 1.0000 2.5000
v 13.5000 6.0000 2.5000
v 13.5000 0.0000 2.5000
v 13.5000 0.0000 1.5000
v 13.5000 1.0000 1.5000
v 13.5000 6.0000 1.5000
v 13.5000 7.0000 1.5000
v 13.5000 7.0000 2.5000
v 13.5000 0.0000 0.5000
v 13.5000 7.0000 0.5000
v 13.5000 0.0000 -0.5000
v 13.5000 7.0000 -0.5000
v 13.5000 0.0000 -1.5000
v 13.5000 7.0000 -1.5000
v 13.5000 0.0000 -2.5000
v 13.5000 1.0000 -2.5000
v 13.5000 1.0000 -1.5000
v 13.5000 6.0000 -1.5000
v 13.5000 6.0000 -2.5000
v 13.5000 7.0000 -2.5000
v 13.5000 1.0000 -3.5000
v 13.5000 6.0000 -3.5000
v 13.5000 2.0000 -4.5000
v 13.5000 1.0000 -4.5000
v 13.5000 6.0000 -4.5000
v 13.5000 5.0000 -4.5000
v 13.5000 3.0000 -5.5000
v 13.5000 2.0000 -5.5000
v 13.5000 4.0000 -5.5000
v 13.5000 5.0000 -5.5000
v 14.5000 2.0000 5.5000
v 14.5000 2.0000 4.5000
v 14.5000 3.0000 4.5000
v 14.5000 3.0000 5.5000
v 14.5000 4.0000 4.5000
v 14.5000 4.0000 5.5000
v 14.5000 5.0000 4.5000
v 14.5000 5.0000 5.5000
v 14.5000 1.0000 4.5000
v 14.5000 1.0000 3.5000
v 14.5000 2.0000 3.5000
v 14.5000 5.0000 3.5000
v 14.5000 6.0000 3.5000
v 14.5000 6.0000 4.5000
v 14.5000 1.0000 2.5000
v 14.5000 6.0000 2.5000
v 14.5000 1.0000 1.5000
v 14.5000 6.0000 1.5000
v 14.5000 0.0000 1.5000
v 14.5000 0.0000 0.5000
v 14.5000 1.0000 0.5000
v 14.5000 6.0000 0.5000
v 14.5000 7.0000 0.5000
v 14.5000 7.0000 1.5000
v 14.5000 0.0000 -0.5000
v 14.5000 1.0000 -0.5000
v 14.5000 6.0000 -0.5000
v 14.5000 7.0000 -0.5000
v 14.5000 0.0000 -1.5000
v 14.5000 1.0000 -1.5000
v 14.5000 6.0000 -1.5000
v 14.5000 7.0000 -1.5000
v 14.5000 1.0000 -2.5000
v 14.5000 6.0000 -2.5000
v 14.5000 1.0000 -3.5000
v 14.5000 6.0000 -3.5000
v 14.5000 1.0000 -4.5000
v 14.5000 2.0000 -4.5000
v 14.5000 2.0000 -3.5000
v 14.5000 5.0000 -3.5000
v 14.5000 5.0000 -4.5000
v 14.5000 6.0000 -4.5000
v 14.5000 2.0000 -5.5000
v 14.5000 3.0000 -5.5000
v 14.5000 3.0000 -4.5000
v 14.5000 4.0000 -5.5000
v 14.5000 4.0000 -4.5000
v 14.5000 5.0000 -5.5000
v 15.5000 2.0000 4.5000
v 15.5000 3.0000 4.5000
v 15.5000 2.0000 3.5000
v 15.5000 4.0000 4.5000
v 15.5000 5.0000 4.5000
v 15.5000 5.0000 3.5000
v 15.5000 1.0000 3.5000
v 15.5000 1.0000 2.5000
v 15.5000 2.0000 2.5000
v 15.5000 5.0000 2.5000
v 15.5000 6.0000 2.5000
v 15.5000 6.0000 3.5000
v 15.5000 1.0000 1.5000
v 15.5000 6.0000 1.5000
v 15.5000 1.0000 0.5000
v 15.5000 6.0000 0.5000
v 15.5000 1.0000 -0.5000
v 15.5000 6.0000 -0.5000
v 15.5000 1.0000 -1.5000
v 15.5000 6.0000 -1.5000
v 15.5000 1.0000 -2.5000
v 15.5000 6.0000 -2.5000
v 15.5000 1.0000 -3.5000
v 15.5000 2.0000 -3.5000
v 15.5000 2.0000 -2.5000
v 15.5000 5.0000 -2.5000
v 15.5000 5.0000 -3.5000
v 15.5000 6.0000 -3.5000
v 15.5000 3.0000 -4.5000
v 15.5000 2.0000 -4.5000
v 15.5000 4.0000 -4.5000
v 15.5000 5.0000 -4.5000
v 16.5000 2.0000 4.5000
v 16.5000 2.0000 3.5000
v 16.5000 3.0000 3.5000
v 16.5000 3.0000 4.5000
v 16.5000 4.0000 3.5000
v 16.5000 4.0000 4.5000
v 16.5000 5.0000 3.5000
v 16.5000 5.0000 4.5000
v 16.5000 2.0000 2.5000
v 16.5000 5.0000 2.5000
v 16.5000 1.0000 2.5000
v 16.5000 1.0000 1.5000
v 16.5000 2.0000 1.5000
v 16.5000 5.0000 1.5000
v 16.5000 6.0000 1.5000
v 16.5000 6.0000 2.5000
v 16.5000 1.0000 0.5000
v 16.5000 6.0000 0.5000
v 16.5000 1.0000 -0.5000
v 16.5000 6.0000 -0.5000
v 16.5000 1.0000 -1.5000
v 16.5000 6.0000 -1.5000
v 16.5000 1.0000 -2.5000
v 16.5000 2.0000 -2.5000
v 16.5000 2.0000 -1.5000
v 16.5000 5.0000 -1.5000
v 16.5000 5.0000 -2.5000
v 16.5000 6.0000 -2.5000
v 16.5000 2.0000 -3.5000
v 16.5000 5.0000 -3.5000
v 16.5000 2.0000 -4.5000
v 16.5000 3.0000 -4.5000
v 16.5000 3.0000 -3.5000
v 16.5000 4.0000 -4.5000
v 16.5000 4.0000 -3.5000
v 16.5000 5.0000 -4.5000
v 17.5000 2.0000 3.5000
v 17.5000 2.0000 2.5000
v 17.5000 3.0000 2.5000
v 17.5000 3.0000 3.5000
v 17.5000 4.0000 2.5000
v 17.5000 4.0000 3.5000
v 17.5000 5.0000 2.5000
v 17.5000 5.0000 3.5000
v 17.5000 2.0000 1.5000
v 17.5000 5.0000 1.5000
v 17.5000 1.0000 1.5000
v 17.5000 1.0000 0.5000
v 17.5000 2.0000 0.5000
v 17.5000 5.0000 0.5000
v 17.5000 6.0000 0.5000
v 17.5000 6.0000 1.5000
v 17.5000 1.0000 -0.5000
v 17.5000 2.0000 -0.5000
v 17.5000 5.0000 -0.5000
v 17.5000 6.0000 -0.5000
v 17.5000 1.0000 -1.5000
v 17.5000 2.0000 -1.5000
v 17.5000 5.0000 -1.5000
v 17.5000 6.0000 -1.5000
v 17.5000 2.0000 -2.5000
v 17.5000 5.0000 -2.5000
v 17.5000 2.0000 -3.5000
v 17.5000 3.0000 -3.5000
v 17.5000 3.0000 -2.5000
v 17.5000 4.0000 -3.5000
v 17.5000 4.0000 -2.5000
v 17.5000 5.0000 -3.5000
v 18.5000 2.0000 2.5000
v 18.5000 2.0000 1.5000
v 18.5000 3.0000 1.5000
v 18.5000 3.0000 2.5000
v 18.5000 4.0000 1.5000
v 18.5000 4.0000 2.5000
v 18.5000 5.0000 1.5000
v 18.5000 5.0000 2.5000
v 18.5000 2.0000 0.5000
v 18.5000 3.0000 0.5000
v 18.5000 4.0000 0.5000
v 18.5000 5.0000 0.5000
v 18.5000 2.0000 -0.5000
v 18.5000 3.0000 -0.5000
v 18.5000 4.0000 -0.5000
v 18.5000 5.0000 -0.5000
v 18.5000 2.0000 -1.5000
v 18.5000 3.0000 -1.5000
v 18.5000 4.0000 -1.5000
v 18.5000 5.0000 -1.5000
v 18.5000 2.0000 -2.5000
v 18.5000 3.0000 -2.5000
v 18.5000 4.0000 -2.5000
v 18.5000 5.0000 -2.5000
usemtl c60
f 2 8 9 3
f 2 6 10 8
f 8 11 12 9
f 8 10 13 11
f 11 13 14 12
f 3 9 18 15
f 9 12 19 18
f 12 14 20 19
f 15 18 24 21
f 18 19 25 24
f 19 20 26 25
f 21 24 30 27
f 24 25 31 30
f 25 26 32 31
f 27 30 37 33
f 33 37 38 35
f 30 31 39 37
f 37 39 40 38
f 31 32 40 39
f 42 46 10 6
f 42 44 47 46
f 46 48 13 10
f 46 47 49 48
f 48 49 50 13
f 13 50 52 14
f 14 57 58 20
f 14 52 59 57
f 57 59 60 58
f 20 58 63 26
f 58 60 64 63
f 26 63 68 32
f 32 68 69 70
f 63 64 69 68
f 32 70 72 40
f 35 38 77 73
f 73 77 78 75
f 38 40 79 77
f 77 79 80 78
f 40 72 80 79
f 82 86 47 44
f 82 84 87 86
f 86 88 49 47
f 86 87 89 88
f 88 89 90 49
f 49 90 92 50
f 50 96 59 52
f 50 92 97 96
f 96 97 98 59
f 59 98 100 60
f 60 100 102 64
f 64 102 104 69
f 70 69 108 72
f 72 108 109 110
f 69 104 109 108
f 72 110 112 80
f 75 78 117 113
f 113 117 118 115
f 78 80 119 117
f 117 119 120 118
f 80 112 120 119
f 84 122 124 87
f 87 124 125 89
f 89 125 126 90
f 90 130 97 92
f 90 126 131 130
f 130 131 132 97
f 97 132 134 98
f 98 134 136 100
f 100 136 138 102
f 102 138 140 104
f 104 140 142 109
f 110 109 146 112
f 112 146 147 148
f 109 142 147 146
f 115 118 151 149
f 118 120 152 151
f 112 148 152 120
f 154 158 124 122
f 154 156 159 158
f 158 160 125 124
f 158 159 161 160
f 160 161 162 125
f 125 166 131 126
f 125 162 167 166
f 166 167 168 131
f 131 168 170 132
f 132 170 172 134
f 134 177 178 136
f 134 172 179 177
f 177 179 180 178
f 136 178 183 138
f 178 180 184 183
f 138 183 188 140
f 140 188 189 190
f 183 184 189 188
f 140 190 192 142
f 142 192 194 147
f 148 147 198 152
f 152 198 199 200
f 147 194 199 198
f 149 151 205 201
f 201 205 206 203
f 151 152 207 205
f 205 207 208 206
f 152 200 208 207
f 156 210 212 159
f 159 212 213 161
f 161 213 214 162
f 162 214 217 167
f 167 217 218 168
f 168 218 220 170
f 170 224 179 172
f 170 220 225 224
f 224 225 226 179
f 179 226 228 180
f 180 228 230 184
f 184 230 232 189
f 190 189 236 192
f 192 236 237 238
f 189 232 237 236
f 192 238 240 194
f 200 199 243 244
f 194 240 243 199
f 203 206 247 245
f 206 208 248 247
f 200 244 248 208
f 210 250 252 212
f 212 252 253 213
f 213 253 254 214
f 214 254 257 217
f 217 257 258 218
f 218 258 260 220
f 220 260 263 225
f 225 263 264 226
f 226 264 266 228
f 228 266 268 230
f 230 268 270 232
f 238 237 273 274
f 232 270 273 237
f 238 274 276 240
f 244 243 279 280
f 240 276 279 243
f 245 247 283 281
f 247 248 284 283
f 244 280 284 248
f 250 286 288 252
f 252 288 289 253
f 253 289 290 254
f 254 290 293 257
f 257 293 294 258
f 258 298 263 260
f 258 294 299 298
f 298 299 300 263
f 263 300 302 264
f 264 302 304 266
f 266 304 306 268
f 268 306 308 270
f 270 308 310 273
f 274 273 314 276
f 276 314 315 316
f 273 310 315 314
f 280 279 319 320
f 276 316 319 279
f 281 283 323 321
f 283 284 324 323
f 280 320 324 284
f 286 326 328 288
f 288 328 329 289
f 289 330 293 290
f 289 329 331 330
f 330 331 332 293
f 293 335 299 294
f 293 332 336 335
f 335 336 337 299
f 299 337 340 300
f 300 340 342 302
f 308 354 356 310
f 310 356 359 315
f 316 315 362 319
f 319 362 363 364
f 315 359 363 362
f 321 323 367 365
f 323 324 368 367
f 320 319 369 324
f 324 369 370 368
f 319 364 370 369
f 371 372 329 328
f 371 373 374 372
f 372 374 375 329
f 371 328 376 373
f 326 378 376 328
f 329 375 380 331
f 331 380 381 332
f 332 381 384 336
f 336 384 385 337
f 364 363 412 413
f 359 409 412 363
f 365 367 416 414
f 368 370 417 418
f 364 413 417 370
f 367 368 419 420
f 420 419 421 422
f 368 418 421 419
f 367 420 422 416
f 423 373 376 378
f 423 424 425 373
f 423 378 426 424
f 373 425 427 374
f 374 428 380 375
f 374 427 429 428
f 428 429 430 380
f 380 433 384 381
f 380 430 434 433
f 433 434 435 384
f 384 435 438 385
f 409 456 459 412
f 413 412 462 417
f 417 462 463 464
f 412 459 463 462
f 414 416 422 465
f 465 422 466 467
f 414 465 467 460
f 422 421 468 466
f 418 417 469 421
f 421 469 470 468
f 417 464 470 469
f 424 471 472 425
f 424 426 473 471
f 425 472 474 427
f 427 474 475 429
f 429 475 476 430
f 430 476 479 434
f 434 479 480 435
f 464 463 511 512
f 459 508 511 463
f 467 466 513 514
f 460 467 514 509
f 466 468 515 513
f 468 470 516 515
f 464 512 516 470
f 517 518 472 471
f 517 519 520 518
f 517 471 521 519
f 518 522 474 472
f 518 520 523 522
f 522 524 475 474
f 522 523 525 524
f 524 525 526 475
f 475 530 479 476
f 475 526 531 530
f 530 531 532 479
f 479 532 534 480
f 508 564 566 511
f 512 511 570 516
f 516 570 571 572
f 511 566 571 570
f 514 513 573 574
f 574 573 575 576
f 514 574 576 568
f 513 515 577 573
f 573 577 578 575
f 515 516 579 577
f 577 579 580 578
f 516 572 580 579
f 519 581 582 520
f 519 521 583 581
f 520 582 584 523
f 523 584 585 525
f 525 585 586 526
f 526 586 589 531
f 531 589 590 532
f 572 571 631 632
f 566 628 631 571
f 576 575 633 634
f 568 576 634 629
f 575 578 635 633
f 578 580 636 635
f 572 632 636 580
f 581 637 638 582
f 581 583 639 637
f 582 638 640 584
f 584 640 641 585
f 585 641 642 586
f 586 642 645 589
f 589 645 646 590
f 632 631 679 680
f 628 676 679 631
f 634 633 681 682
f 629 634 682 677
f 633 635 683 681
f 635 636 684 683
f 632 680 684 636
f 637 685 686 638
f 637 639 687 685
f 638 686 688 640
f 640 688 689 641
f 641 689 690 642
f 642 690 693 645
f 645 693 694 646
f 680 679 731 732
f 676 728 731 679
f 682 681 733 734
f 677 682 734 729
f 681 683 735 733
f 683 684 736 735
f 680 732 736 684
f 685 739 741 686
f 686 741 742 688
f 688 742 743 689
f 689 744 693 690
f 689 743 745 744
f 744 745 746 693
f 693 746 748 694
f 728 778 780 731
f 734 733 784 782
f 733 735 785 784
f 735 736 786 785
f 732 731 787 736
f 736 787 788 786
f 731 780 788 787
f 739 790 792 741
f 741 792 793 742
f 742 793 794 743
f 743 794 795 745
f 745 795 796 746
f 746 796 798 748
f 778 828 830 780
f 782 784 833 831
f 784 785 834 833
f 785 786 835 834
f 786 788 836 835
f 780 830 836 788
f 790 838 840 792
f 792 840 841 793
f 793 841 842 794
f 794 842 843 795
f 795 843 844 796
f 796 844 846 798
f 828 876 878 830
f 831 833 881 879
f 833 834 882 881
f 834 835 883 882
f 835 836 884 883
f 830 878 884 836
f 838 886 888 840
f 840 888 889 841
f 841 889 890 842
f 842 890 891 843
f 843 891 892 844
f 844 892 894 846
f 876 924 926 878
f 879 881 929 927
f 881 882 930 929
f 882 883 931 930
f 883 884 932 931
f 878 926 932 884
f 886 936 937 888
f 888 937 938 889
f 889 938 939 890
f 939 940 941 942
f 890 939 942 891
f 891 942 941 892
f 892 941 944 894
f 924 974 976 926
f 927 929 980 978
f 929 930 981 980
f 930 931 982 981
f 983 982 984 976
f 931 932 984 982
f 926 976 984 932
f 936 985 986 937
f 936 935 987 985
f 937 986 988 938
f 938 988 989 939
f 939 989 990 940
f 940 990 993 941
f 941 993 994 944
f 983 976 1031 1032
f 974 1028 1031 976
f 978 980 1033 1034
f 979 978 1034 1029
f 980 981 1035 1033
f 981 982 1036 1035
f 983 1032 1036 982
f 985 1037 1038 986
f 985 987 1039 1037
f 986 1038 1040 988
f 988 1040 1041 989
f 989 1041 1042 990
f 990 1042 1045 993
f 993 1045 1046 994
f 1032 1031 1079 1080
f 1028 1076 1079 1031
f 1034 1033 1081 1082
f 1029 1034 1082 1077
f 1033 1035 1083 1081
f 1035 1036 1084 1083
f 1032 1080 1084 1036
f 1037 1085 1086 1038
f 1037 1039 1087 1085
f 1038 1086 1088 1040
f 1040 1088 1089 1041
f 1041 1089 1090 1042
f 1042 1090 1093 1045
f 1045 1093 1094 1046
f 1080 1079 1135 1136
f 1076 1131 1135 1079
f 1082 1081 1137 1138
f 1077 1082 1138 1133
f 1081 1083 1139 1137
f 1083 1084 1140 1139
f 1080 1136 1140 1084
f 1141 1142 1143 1144
f 1085 1141 1144 1086
f 1085 1087 1142 1141
f 1144 1143 1145 1146
f 1086 1144 1146 1088
f 1146 1145 1147 1148
f 1088 1146 1148 1089
f 1089 1148 1147 1090
f 1147 1152 1153 1154
f 1090 1147 1154 1093
f 1093 1154 1153 1094
f 1094 1153 1156 1098
f 1130 1184 1186 1131
f 1190 1191 1192 1186
f 1136 1135 1192 1191
f 1131 1186 1192 1135
f 1188 1193 1194 1195
f 1138 1137 1194 1193
f 1133 1138 1193 1188
f 1195 1194 1196 1197
f 1137 1139 1196 1194
f 1197 1196 1198 1191
f 1139 1140 1198 1196
f 1136 1191 1198 1140
f 1142 1199 1200 1143
f 1142 1151 1201 1199
f 1143 1200 1202 1145
f 1145 1202 1203 1147
f 1147 1203 1204 1152
f 1152 1204 1207 1153
f 1153 1207 1208 1156
f 1190 1186 1239 1240
f 1184 1235 1239 1186
f 1188 1195 1241 1242
f 1189 1188 1242 1237
f 1195 1197 1243 1241
f 1197 1191 1244 1243
f 1190 1240 1244 1191
f 1245 1246 1247 1248
f 1199 1245 1248 1200
f 1199 1201 1246 1245
f 1200 1248 1249 1202
f 1249 1250 1251 1252
f 1202 1249 1252 1203
f 1203 1252 1251 1204
f 1251 1255 1256 1257
f 1204 1251 1257 1207
f 1207 1257 1256 1208
f 1208 1256 1260 1211
f 1234 1278 1281 1235
f 1284 1285 1286 1281
f 1240 1239 1286 1285
f 1235 1281 1286 1239
f 1282 1287 1288 1289
f 1242 1241 1288 1287
f 1237 1242 1287 1282
f 1241 1243 1290 1288
f 1291 1290 1292 1285
f 1243 1244 1292 1290
f 1240 1285 1292 1244
f 1293 1294 1295 1296
f 1248 1293 1296 1249
f 1249 1296 1295 1250
f 1248 1247 1294 1293
f 1246 1298 1294 1247
f 1250 1295 1300 1251
f 1251 1300 1301 1255
f 1255 1301 1304 1256
f 1256 1304 1305 1260
f 1284 1281 1332 1333
f 1278 1328 1332 1281
f 1282 1289 1336 1334
f 1291 1285 1337 1338
f 1284 1333 1337 1285
f 1336 1339 1340 1338
f 1288 1290 1340 1339
f 1291 1338 1340 1290
f 1289 1288 1339 1336
f 1298 1342 1344 1294
f 1294 1344 1345 1295
f 1345 1346 1347 1348
f 1295 1345 1348 1300
f 1300 1348 1347 1301
f 1347 1351 1352 1353
f 1301 1347 1353 1304
f 1304 1353 1352 1305
f 1305 1352 1356 1309
f 1309 1356 1358 1313
f 1322 1367 1370 1323
f 1323 1370 1373 1328
f 1376 1377 1378 1373
f 1333 1332 1378 1377
f 1328 1373 1378 1332
f 1334 1336 1381 1379
f 1336 1338 1382 1381
f 1383 1382 1384 1377
f 1338 1337 1384 1382
f 1333 1377 1384 1337
f 1342 1386 1388 1344
f 1344 1388 1389 1345
f 1345 1389 1390 1346
f 1346 1390 1393 1347
f 1347 1393 1394 1351
f 1394 1398 1399 1400
f 1351 1394 1400 1352
f 1352 1400 1399 1356
f 1356 1399 1402 1358
f 1358 1402 1404 1360
f 1360 1404 1406 1364
f 1364 1406 1408 1367
f 1367 1408 1410 1370
f 1414 1415 1416 1410
f 1376 1373 1416 1415
f 1370 1410 1416 1373
f 1383 1377 1419 1420
f 1376 1415 1419 1377
f 1379 1381 1423 1421
f 1381 1382 1424 1423
f 1383 1420 1424 1382
f 1386 1426 1428 1388
f 1388 1428 1429 1389
f 1389 1429 1430 1390
f 1390 1430 1433 1393
f 1393 1433 1434 1394
f 1394 1434 1436 1398
f 1398 1436 1439 1399
f 1399 1439 1440 1402
f 1402 1440 1442 1404
f 1404 1442 1444 1406
f 1406 1444 1446 1408
f 1414 1410 1449 1450
f 1408 1446 1449 1410
f 1414 1450 1452 1415
f 1420 1419 1455 1456
f 1415 1452 1455 1419
f 1421 1423 1459 1457
f 1423 1424 1460 1459
f 1420 1456 1460 1424
f 1426 1462 1464 1428
f 1428 1464 1465 1429
f 1429 1465 1466 1430
f 1430 1466 1469 1433
f 1433 1469 1470 1434
f 1434 1470 1472 1436
f 1472 1476 1477 1478
f 1436 1472 1478 1439
f 1439 1478 1477 1440
f 1440 1477 1480 1442
f 1442 1480 1482 1444
f 1444 1482 1484 1446
f 1488 1489 1490 1484
f 1450 1449 1490 1489
f 1446 1484 1490 1449
f 1450 1489 1492 1452
f 1456 1455 1495 1496
f 1452 1492 1495 1455
f 1457 1459 1499 1497
f 1459 1460 1500 1499
f 1456 1496 1500 1460
f 1504 1503 1505 1506
f 1462 1504 1506 1464
f 1506 1505 1507 1508
f 1464 1506 1508 1465
f 1465 1508 1507 1466
f 1507 1512 1513 1514
f 1466 1507 1514 1469
f 1469 1514 1513 1470
f 1470 1513 1516 1472
f 1472 1516 1518 1476
f 1518 1522 1523 1524
f 1476 1518 1524 1477
f 1477 1524 1523 1480
f 1522 1527 1528 1523
f 1480 1523 1528 1482
f 1527 1531 1532 1528
f 1488 1484 1532 1531
f 1482 1528 1532 1484
f 1488 1531 1534 1489
f 1489 1534 1536 1492
f 1540 1541 1542 1536
f 1496 1495 1542 1541
f 1492 1536 1542 1495
f 1545 1544 1546 1547
f 1497 1499 1546 1544
f 1547 1546 1548 1541
f 1499 1500 1548 1546
f 1496 1541 1548 1500
f 1503 1550 1552 1505
f 1505 1552 1553 1507
f 1507 1553 1554 1512
f 1554 1558 1559 1560
f 1512 1554 1560 1513
f 1513 1560 1559 1516
f 1516 1559 1562 1518
f 1518 1562 1564 1522
f 1522 1564 1566 1527
f 1527 1566 1568 1531
f 1531 1568 1570 1534
f 1574 1575 1576 1570
f 1540 1536 1576 1575
f 1534 1570 1576 1536
f 1545 1547 1579 1577
f 1547 1541 1580 1579
f 1540 1575 1580 1541
f 1584 1583 1585 1586
f 1550 1584 1586 1552
f 1586 1585 1587 1588
f 1552 1586 1588 1553
f 1553 1588 1587 1554
f 1554 1587 1590 1558
f 1590 1594 1595 1596
f 1558 1590 1596 1559
f 1559 1596 1595 1562
f 1562 1595 1598 1564
f 1564 1598 1600 1566
f 1566 1600 1602 1568
f 1606 1607 1608 1602
f 1574 1570 1608 1607
f 1568 1602 1608 1570
f 1574 1607 1610 1575
f 1613 1612 1614 1615
f 1577 1579 1614 1612
f 1615 1614 1616 1610
f 1579 1580 1616 1614
f 1575 1610 1616 1580
f 1620 1619 1621 1622
f 1583 1620 1622 1585
f 1622 1621 1623 1624
f 1585 1622 1624 1587
f 1587 1624 1623 1590
f 1590 1623 1626 1594
f 1626 1630 1631 1632
f 1594 1626 1632 1595
f 1595 1632 1631 1598
f 1630 1635 1636 1631
f 1598 1631 1636 1600
f 1635 1639 1640 1636
f 1606 1602 1640 1639
f 1600 1636 1640 1602
f 1606 1639 1642 1607
f 1645 1644 1646 1647
f 1613 1615 1646 1644
f 1647 1646 1648 1642
f 1615 1610 1648 1646
f 1607 1642 1648 1610
f 1652 1651 1653 1654
f 1619 1652 1654 1621
f 1654 1653 1655 1656
f 1621 1654 1656 1623
f 1623 1656 1655 1626
f 1651 1658 1659 1653
f 1653 1659 1660 1655
f 1626 1655 1660 1630
f 1658 1662 1663 1659
f 1659 1663 1664 1660
f 1630 1660 1664 1635
f 1662 1666 1667 1663
f 1663 1667 1668 1664
f 1635 1664 1668 1639
f 1666 1670 1671 1667
f 1645 1647 1671 1670
f 1667 1671 1672 1668
f 1647 1642 1672 1671
f 1639 1668 1672 1642
usemtl c61
f 1 2 3 4
f 1 5 6 2
f 1 4 7 5
f 4 3 15 16
f 4 16 17 7
f 16 15 21 22
f 16 22 23 17
f 22 21 27 28
f 22 28 29 23
f 28 27 33 34
f 34 33 35 36
f 28 34 36 29
f 41 42 6 5
f 41 43 44 42
f 41 5 45 43
f 5 7 51 45
f 53 7 17 54
f 53 55 51 7
f 53 54 56 55
f 54 17 23 61
f 54 61 62 56
f 61 23 29 65
f 65 29 66 67
f 61 65 67 62
f 29 36 71 66
f 36 35 73 74
f 74 73 75 76
f 36 74 76 71
f 81 82 44 43
f 81 83 84 82
f 81 43 85 83
f 43 45 91 85
f 93 45 51 55
f 93 94 91 45
f 93 55 95 94
f 55 56 99 95
f 56 62 101 99
f 62 67 103 101
f 67 66 71 105
f 105 71 106 107
f 67 105 107 103
f 71 76 111 106
f 76 75 113 114
f 114 113 115 116
f 76 114 116 111
f 83 121 122 84
f 83 85 123 121
f 127 85 91 94
f 127 128 123 85
f 127 94 129 128
f 94 95 133 129
f 95 99 135 133
f 99 101 137 135
f 101 103 139 137
f 103 107 141 139
f 107 106 111 143
f 143 111 144 145
f 107 143 145 141
f 116 115 149 150
f 111 116 150 144
f 153 154 122 121
f 153 155 156 154
f 153 121 157 155
f 163 121 123 128
f 163 164 157 121
f 163 128 165 164
f 128 129 169 165
f 129 133 171 169
f 173 133 135 174
f 173 175 171 133
f 173 174 176 175
f 174 135 137 181
f 174 181 182 176
f 181 137 139 185
f 185 139 186 187
f 181 185 187 182
f 139 141 191 186
f 141 145 193 191
f 145 144 150 195
f 195 150 196 197
f 145 195 197 193
f 150 149 201 202
f 202 201 203 204
f 150 202 204 196
f 155 209 210 156
f 155 157 211 209
f 164 215 211 157
f 164 165 216 215
f 165 169 219 216
f 221 169 171 175
f 221 222 219 169
f 221 175 223 222
f 175 176 227 223
f 176 182 229 227
f 182 187 231 229
f 187 186 191 233
f 233 191 234 235
f 187 233 235 231
f 191 193 239 234
f 197 196 241 242
f 193 197 242 239
f 204 203 245 246
f 196 204 246 241
f 209 249 250 210
f 209 211 251 249
f 215 255 251 211
f 215 216 256 255
f 216 219 259 256
f 222 261 259 219
f 222 223 262 261
f 223 227 265 262
f 227 229 267 265
f 229 231 269 267
f 235 234 271 272
f 231 235 272 269
f 234 239 275 271
f 242 241 277 278
f 239 242 278 275
f 246 245 281 282
f 241 246 282 277
f 249 285 286 250
f 249 251 287 285
f 255 291 287 251
f 255 256 292 291
f 295 256 259 261
f 295 296 292 256
f 295 261 297 296
f 261 262 301 297
f 262 265 303 301
f 265 267 305 303
f 267 269 307 305
f 269 272 309 307
f 272 271 275 311
f 311 275 312 313
f 272 311 313 309
f 278 277 317 318
f 275 278 318 312
f 282 281 321 322
f 277 282 322 317
f 285 325 326 286
f 285 287 327 325
f 291 333 327 287
f 291 292 334 333
f 296 338 334 292
f 296 297 339 338
f 297 301 341 339
f 301 303 343 341
f 303 305 348 343
f 305 307 351 348
f 307 309 355 351
f 313 312 357 358
f 309 313 358 355
f 318 317 360 361
f 312 318 361 357
f 322 321 365 366
f 317 322 366 360
f 325 377 378 326
f 325 327 379 377
f 333 382 379 327
f 333 334 383 382
f 386 387 388 383
f 338 386 383 334
f 338 339 387 386
f 339 341 393 387
f 341 343 395 393
f 343 348 397 395
f 348 351 399 397
f 351 355 401 399
f 401 404 405 406
f 358 357 405 404
f 355 358 404 401
f 361 360 410 411
f 357 361 411 405
f 366 365 414 415
f 360 366 415 410
f 377 431 426 378
f 377 379 432 431
f 382 436 432 379
f 382 383 437 436
f 383 388 439 437
f 387 442 439 388
f 387 393 443 442
f 393 395 445 443
f 395 397 447 445
f 397 399 449 447
f 401 406 451 452
f 399 401 452 449
f 406 405 454 451
f 411 410 457 458
f 405 411 458 454
f 415 414 460 461
f 410 415 461 457
f 431 477 473 426
f 431 432 478 477
f 436 481 478 432
f 436 437 482 481
f 437 439 486 482
f 488 489 490 486
f 442 488 486 439
f 442 443 489 488
f 443 445 492 489
f 445 447 494 492
f 447 449 496 494
f 496 498 499 500
f 452 451 499 498
f 449 452 498 496
f 451 454 502 499
f 458 457 504 505
f 454 458 505 502
f 461 460 509 510
f 457 461 510 504
f 527 471 473 477
f 527 528 521 471
f 527 477 529 528
f 477 478 533 529
f 481 535 533 478
f 481 482 536 535
f 482 486 539 536
f 486 490 541 539
f 489 543 541 490
f 489 492 544 543
f 492 494 549 544
f 496 500 552 553
f 494 496 553 549
f 500 499 557 552
f 499 502 559 557
f 505 504 561 562
f 502 505 562 559
f 504 510 565 561
f 510 509 514 567
f 567 514 568 569
f 510 567 569 565
f 528 587 583 521
f 528 529 588 587
f 591 529 533 535
f 591 592 588 529
f 591 535 593 592
f 535 536 597 593
f 536 539 599 597
f 601 539 541 543
f 601 602 599 539
f 601 543 603 602
f 543 544 607 603
f 544 549 609 607
f 549 553 611 609
f 553 552 557 613
f 613 557 614 615
f 553 613 615 611
f 557 559 619 614
f 559 562 621 619
f 562 561 565 623
f 623 565 624 625
f 562 623 625 621
f 569 568 629 630
f 565 569 630 624
f 587 643 639 583
f 587 588 644 643
f 592 647 644 588
f 592 593 648 647
f 593 597 651 648
f 597 599 653 651
f 602 655 653 599
f 602 603 656 655
f 603 607 659 656
f 607 609 661 659
f 609 611 663 661
f 615 614 665 666
f 611 615 666 663
f 614 619 669 665
f 619 621 671 669
f 625 624 673 674
f 621 625 674 671
f 630 629 677 678
f 624 630 678 673
f 643 691 687 639
f 643 644 692 691
f 647 695 692 644
f 647 648 696 695
f 648 651 699 696
f 701 651 653 655
f 701 702 699 651
f 701 655 703 702
f 655 656 707 703
f 656 659 709 707
f 659 661 711 709
f 661 663 713 711
f 663 666 715 713
f 666 665 669 717
f 717 669 718 719
f 666 717 719 715
f 669 671 723 718
f 674 673 725 726
f 671 674 726 723
f 678 677 729 730
f 673 678 730 725
f 737 685 687 691
f 737 738 739 685
f 737 691 740 738
f 691 692 747 740
f 695 749 747 692
f 695 696 750 749
f 696 699 753 750
f 702 755 753 699
f 702 703 756 755
f 703 707 759 756
f 707 709 761 759
f 709 711 763 761
f 711 713 765 763
f 713 715 767 765
f 719 718 769 770
f 715 719 770 767
f 718 723 773 769
f 726 725 775 776
f 723 726 776 773
f 725 730 779 775
f 730 729 734 781
f 781 734 782 783
f 730 781 783 779
f 738 789 790 739
f 738 740 791 789
f 740 747 797 791
f 749 799 797 747
f 749 750 800 799
f 750 753 803 800
f 755 805 803 753
f 755 756 806 805
f 756 759 809 806
f 759 761 811 809
f 761 763 813 811
f 763 765 815 813
f 765 767 817 815
f 770 769 819 820
f 767 770 820 817
f 769 773 823 819
f 776 775 825 826
f 773 776 826 823
f 775 779 829 825
f 783 782 831 832
f 779 783 832 829
f 789 837 838 790
f 789 791 839 837
f 791 797 845 839
f 799 847 845 797
f 799 800 848 847
f 800 803 851 848
f 805 853 851 803
f 805 806 854 853
f 806 809 857 854
f 809 811 859 857
f 811 813 861 859
f 813 815 863 861
f 815 817 865 863
f 820 819 867 868
f 817 820 868 865
f 819 823 871 867
f 826 825 873 874
f 823 826 874 871
f 825 829 877 873
f 832 831 879 880
f 829 832 880 877
f 837 885 886 838
f 837 839 887 885
f 839 845 893 887
f 847 895 893 845
f 847 848 896 895
f 848 851 899 896
f 853 901 899 851
f 853 854 902 901
f 854 857 905 902
f 857 859 907 905
f 859 861 909 907
f 861 863 911 909
f 863 865 913 911
f 868 867 915 916
f 865 868 916 913
f 867 871 919 915
f 874 873 921 922
f 871 874 922 919
f 873 877 925 921
f 880 879 927 928
f 877 880 928 925
f 933 934 935 936
f 885 933 936 886
f 885 887 934 933
f 887 893 943 934
f 895 945 943 893
f 895 896 946 945
f 896 899 949 946
f 901 951 949 899
f 901 902 952 951
f 902 905 955 952
f 905 907 957 955
f 907 909 959 957
f 909 911 961 959
f 911 913 963 961
f 916 915 965 966
f 913 916 966 963
f 915 919 969 965
f 922 921 971 972
f 919 922 972 969
f 921 925 975 971
f 975 977 978 979
f 928 927 978 977
f 925 928 977 975
f 934 991 987 935
f 934 943 992 991
f 945 995 992 943
f 945 946 996 995
f 946 949 999 996
f 1001 1002 1003 999
f 951 1001 999 949
f 951 952 1002 1001
f 952 955 1007 1002
f 955 957 1009 1007
f 957 959 1011 1009
f 959 961 1013 1011
f 961 963 1015 1013
f 1015 1017 1018 1019
f 966 965 1018 1017
f 963 966 1017 1015
f 965 969 1023 1018
f 972 971 1025 1026
f 969 972 1026 1023
f 975 979 1029 1030
f 971 975 1030 1025
f 991 1043 1039 987
f 991 992 1044 1043
f 995 1047 1044 992
f 995 996 1048 1047
f 996 999 1051 1048
f 999 1003 1053 1051
f 1002 1055 1053 1003
f 1002 1007 1056 1055
f 1007 1009 1059 1056
f 1009 1011 1061 1059
f 1011 1013 1063 1061
f 1015 1019 1065 1066
f 1013 1015 1066 1063
f 1019 1018 1069 1065
f 1018 1023 1071 1069
f 1026 1025 1073 1074
f 1023 1026 1074 1071
f 1030 1029 1077 1078
f 1025 1030 1078 1073
f 1043 1091 1087 1039
f 1043 1044 1092 1091
f 1095 1096 1097 1092
f 1047 1095 1092 1044
f 1047 1048 1096 1095
f 1048 1051 1101 1096
f 1051 1053 1103 1101
f 1105 1106 1107 1103
f 1055 1105 1103 1053
f 1055 1056 1106 1105
f 1056 1059 1111 1106
f 1059 1061 1113 1111
f 1061 1063 1115 1113
f 1115 1117 1118 1119
f 1066 1065 1118 1117
f 1063 1066 1117 1115
f 1065 1069 1123 1118
f 1069 1071 1125 1123
f 1125 1127 1128 1129
f 1074 1073 1128 1127
f 1071 1074 1127 1125
f 1078 1077 1133 1134
f 1073 1078 1134 1128
f 1149 1150 1151 1142
f 1091 1149 1142 1087
f 1091 1092 1150 1149
f 1092 1097 1155 1150
f 1096 1157 1155 1097
f 1096 1101 1158 1157
f 1101 1103 1161 1158
f 1103 1107 1163 1161
f 1106 1165 1163 1107
f 1106 1111 1166 1165
f 1111 1113 1170 1166
f 1115 1119 1173 1174
f 1113 1115 1174 1170
f 1119 1118 1177 1173
f 1118 1123 1179 1177
f 1125 1129 1181 1182
f 1123 1125 1182 1179
f 1129 1128 1185 1181
f 1185 1187 1188 1189
f 1134 1133 1188 1187
f 1128 1134 1187 1185
f 1150 1205 1201 1151
f 1150 1155 1206 1205
f 1157 1209 1206 1155
f 1157 1158 1210 1209
f 1158 1161 1214 1210
f 1216 1161 1163 1165
f 1216 1217 1214 1161
f 1216 1165 1218 1217
f 1165 1166 1220 1218
f 1166 1170 1222 1220
f 1170 1174 1224 1222
f 1174 1173 1177 1226
f 1226 1177 1227 1228
f 1174 1226 1228 1224
f 1177 1179 1230 1227
f 1182 1181 1232 1233
f 1179 1182 1233 1230
f 1185 1189 1237 1238
f 1181 1185 1238 1232
f 1205 1253 1246 1201
f 1205 1206 1254 1253
f 1209 1258 1254 1206
f 1209 1210 1259 1258
f 1210 1214 1261 1259
f 1217 1264 1261 1214
f 1217 1218 1265 1264
f 1218 1220 1267 1265
f 1220 1222 1269 1267
f 1222 1224 1271 1269
f 1228 1227 1273 1274
f 1224 1228 1274 1271
f 1227 1230 1276 1273
f 1233 1232 1279 1280
f 1230 1233 1280 1276
f 1238 1237 1282 1283
f 1232 1238 1283 1279
f 1253 1297 1298 1246
f 1253 1254 1299 1297
f 1258 1302 1299 1254
f 1258 1259 1303 1302
f 1306 1259 1261 1264
f 1306 1307 1303 1259
f 1306 1264 1308 1307
f 1264 1265 1312 1308
f 1265 1267 1315 1312
f 1267 1269 1317 1315
f 1269 1271 1319 1317
f 1271 1274 1321 1319
f 1274 1273 1276 1325
f 1325 1276 1326 1327
f 1274 1325 1327 1321
f 1280 1279 1330 1331
f 1276 1280 1331 1326
f 1283 1282 1334 1335
f 1279 1283 1335 1330
f 1297 1341 1342 1298
f 1297 1299 1343 1341
f 1302 1349 1343 1299
f 1302 1303 1350 1349
f 1307 1354 1350 1303
f 1307 1308 1355 1354
f 1308 1312 1357 1355
f 1312 1315 1359 1357
f 1315 1317 1363 1359
f 1317 1319 1366 1363
f 1319 1321 1369 1366
f 1327 1326 1371 1372
f 1321 1327 1372 1369
f 1331 1330 1374 1375
f 1326 1331 1375 1371
f 1335 1334 1379 1380
f 1330 1335 1380 1374
f 1341 1385 1386 1342
f 1341 1343 1387 1385
f 1349 1391 1387 1343
f 1349 1350 1392 1391
f 1395 1396 1397 1392
f 1354 1395 1392 1350
f 1354 1355 1396 1395
f 1355 1357 1401 1396
f 1357 1359 1403 1401
f 1359 1363 1405 1403
f 1363 1366 1407 1405
f 1366 1369 1409 1407
f 1409 1411 1412 1413
f 1372 1371 1412 1411
f 1369 1372 1411 1409
f 1375 1374 1417 1418
f 1371 1375 1418 1412
f 1380 1379 1421 1422
f 1374 1380 1422 1417
f 1385 1425 1426 1386
f 1385 1387 1427 1425
f 1391 1431 1427 1387
f 1391 1392 1432 1431
f 1392 1397 1435 1432
f 1396 1437 1435 1397
f 1396 1401 1438 1437
f 1401 1403 1441 1438
f 1403 1405 1443 1441
f 1405 1407 1445 1443
f 1409 1413 1447 1448
f 1407 1409 1448 1445
f 1413 1412 1451 1447
f 1418 1417 1453 1454
f 1412 1418 1454 1451
f 1422 1421 1457 1458
f 1417 1422 1458 1453
f 1425 1461 1462 1426
f 1425 1427 1463 1461
f 1431 1467 1463 1427
f 1431 1432 1468 1467
f 1432 1435 1471 1468
f 1473 1474 1475 1471
f 1437 1473 1471 1435
f 1437 1438 1474 1473
f 1438 1441 1479 1474
f 1441 1443 1481 1479
f 1443 1445 1483 1481
f 1483 1485 1486 1487
f 1448 1447 1486 1485
f 1445 1448 1485 1483
f 1447 1451 1491 1486
f 1454 1453 1493 1494
f 1451 1454 1494 1491
f 1458 1457 1497 1498
f 1453 1458 1498 1493
f 1501 1502 1503 1504
f 1461 1501 1504 1462
f 1461 1463 1502 1501
f 1509 1510 1511 1502
f 1467 1509 1502 1463
f 1467 1468 1510 1509
f 1468 1471 1515 1510
f 1471 1475 1517 1515
f 1519 1520 1521 1517
f 1474 1519 1517 1475
f 1474 1479 1520 1519
f 1520 1525 1526 1521
f 1479 1481 1525 1520
f 1525 1529 1530 1526
f 1483 1487 1530 1529
f 1481 1483 1529 1525
f 1487 1486 1533 1530
f 1486 1491 1535 1533
f 1535 1537 1538 1539
f 1494 1493 1538 1537
f 1491 1494 1537 1535
f 1538 1543 1544 1545
f 1498 1497 1544 1543
f 1493 1498 1543 1538
f 1502 1549 1550 1503
f 1502 1511 1551 1549
f 1555 1556 1557 1551
f 1510 1555 1551 1511
f 1510 1515 1556 1555
f 1515 1517 1561 1556
f 1517 1521 1563 1561
f 1521 1526 1565 1563
f 1526 1530 1567 1565
f 1530 1533 1569 1567
f 1569 1571 1572 1573
f 1535 1539 1572 1571
f 1533 1535 1571 1569
f 1538 1545 1577 1578
f 1539 1538 1578 1572
f 1581 1582 1583 1584
f 1549 1581 1584 1550
f 1549 1551 1582 1581
f 1551 1557 1589 1582
f 1591 1592 1593 1589
f 1556 1591 1589 1557
f 1556 1561 1592 1591
f 1561 1563 1597 1592
f 1563 1565 1599 1597
f 1565 1567 1601 1599
f 1601 1603 1604 1605
f 1569 1573 1604 1603
f 1567 1569 1603 1601
f 1573 1572 1609 1604
f 1609 1611 1612 1613
f 1578 1577 1612 1611
f 1572 1578 1611 1609
f 1617 1618 1619 1620
f 1582 1617 1620 1583
f 1582 1589 1618 1617
f 1589 1593 1625 1618
f 1627 1628 1629 1625
f 1592 1627 1625 1593
f 1592 1597 1628 1627
f 1628 1633 1634 1629
f 1597 1599 1633 1628
f 1633 1637 1638 1634
f 1601 1605 1638 1637
f 1599 1601 1637 1633
f 1605 1604 1641 1638
f 1641 1643 1644 1645
f 1609 1613 1644 1643
f 1604 1609 1643 1641
f 1649 1650 1651 1652
f 1618 1649 1652 1619
f 1618 1625 1650 1649
f 1650 1657 1658 1651
f 1625 1629 1657 1650
f 1657 1661 1662 1658
f 1629 1634 1661 1657
f 1661 1665 1666 1662
f 1634 1638 1665 1661
f 1665 1669 1670 1666
f 1641 1645 1670 1669
f 1638 1641 1669 1665
usemtl c62
f 302 344 345 304
f 302 342 346 344
f 344 346 347 345
f 304 345 349 306
f 345 347 350 349
f 306 349 352 308
f 308 352 353 354
f 349 350 353 352
f 337 389 390 340
f 337 385 391 389
f 389 391 392 390
f 340 390 346 342
f 390 392 394 346
f 346 394 396 347
f 347 396 398 350
f 350 398 400 353
f 354 353 402 356
f 353 400 403 402
f 356 402 407 359
f 359 407 408 409
f 402 403 408 407
f 385 438 440 391
f 391 440 441 392
f 392 441 444 394
f 394 444 446 396
f 396 446 448 398
f 398 448 450 400
f 400 450 453 403
f 409 408 455 456
f 403 453 455 408
f 435 483 440 438
f 435 480 484 483
f 483 484 485 440
f 440 485 487 441
f 441 487 491 444
f 444 491 493 446
f 446 493 495 448
f 448 495 497 450
f 450 497 501 453
f 453 501 503 455
f 456 455 506 459
f 459 506 507 508
f 455 503 507 506
f 480 534 537 484
f 484 537 538 485
f 485 538 540 487
f 487 540 542 491
f 491 545 546 493
f 491 542 547 545
f 545 547 548 546
f 493 546 550 495
f 546 548 551 550
f 495 550 554 497
f 497 554 555 556
f 550 551 555 554
f 497 556 558 501
f 501 558 560 503
f 508 507 563 564
f 503 560 563 507
f 532 594 537 534
f 532 590 595 594
f 594 595 596 537
f 537 596 598 538
f 538 598 600 540
f 540 604 547 542
f 540 600 605 604
f 604 605 606 547
f 547 606 608 548
f 548 608 610 551
f 551 610 612 555
f 556 555 616 558
f 558 616 617 618
f 555 612 617 616
f 558 618 620 560
f 560 620 622 563
f 564 563 626 566
f 566 626 627 628
f 563 622 627 626
f 590 646 649 595
f 595 649 650 596
f 596 650 652 598
f 598 652 654 600
f 600 654 657 605
f 605 657 658 606
f 606 658 660 608
f 608 660 662 610
f 610 662 664 612
f 618 617 667 668
f 612 664 667 617
f 618 668 670 620
f 620 670 672 622
f 628 627 675 676
f 622 672 675 627
f 646 694 697 649
f 649 697 698 650
f 650 698 700 652
f 652 704 657 654
f 652 700 705 704
f 704 705 706 657
f 657 706 708 658
f 658 708 710 660
f 660 710 712 662
f 662 712 714 664
f 664 714 716 667
f 668 667 720 670
f 670 720 721 722
f 667 716 721 720
f 670 722 724 672
f 676 675 727 728
f 672 724 727 675
f 694 748 751 697
f 697 751 752 698
f 698 752 754 700
f 700 754 757 705
f 705 757 758 706
f 706 758 760 708
f 708 760 762 710
f 710 762 764 712
f 712 764 766 714
f 714 766 768 716
f 722 721 771 772
f 716 768 771 721
f 722 772 774 724
f 728 727 777 778
f 724 774 777 727
f 748 798 801 751
f 751 801 802 752
f 752 802 804 754
f 754 804 807 757
f 757 807 808 758
f 758 808 810 760
f 760 810 812 762
f 762 812 814 764
f 764 814 816 766
f 766 816 818 768
f 772 771 821 822
f 768 818 821 771
f 772 822 824 774
f 778 777 827 828
f 774 824 827 777
f 798 846 849 801
f 801 849 850 802
f 802 850 852 804
f 804 852 855 807
f 807 855 856 808
f 808 856 858 810
f 810 858 860 812
f 812 860 862 814
f 814 862 864 816
f 816 864 866 818
f 822 821 869 870
f 818 866 869 821
f 822 870 872 824
f 828 827 875 876
f 824 872 875 827
f 846 894 897 849
f 849 897 898 850
f 850 898 900 852
f 852 900 903 855
f 855 903 904 856
f 856 904 906 858
f 858 906 908 860
f 860 908 910 862
f 862 910 912 864
f 864 912 914 866
f 870 869 917 918
f 866 914 917 869
f 870 918 920 872
f 876 875 923 924
f 872 920 923 875
f 894 944 947 897
f 897 947 948 898
f 898 948 950 900
f 900 950 953 903
f 903 953 954 904
f 904 954 956 906
f 906 956 958 908
f 908 958 960 910
f 910 960 962 912
f 912 962 964 914
f 918 917 967 968
f 914 964 967 917
f 918 968 970 920
f 924 923 973 974
f 920 970 973 923
f 944 994 997 947
f 947 997 998 948
f 948 998 1000 950
f 1000 1004 1005 1006
f 950 1000 1006 953
f 953 1006 1005 954
f 954 1005 1008 956
f 956 1008 1010 958
f 958 1010 1012 960
f 960 1012 1014 962
f 962 1014 1016 964
f 1020 1021 1022 1016
f 968 967 1022 1021
f 964 1016 1022 967
f 968 1021 1024 970
f 974 973 1027 1028
f 970 1024 1027 973
f 994 1046 1049 997
f 997 1049 1050 998
f 998 1050 1052 1000
f 1000 1052 1054 1004
f 1004 1054 1057 1005
f 1005 1057 1058 1008
f 1008 1058 1060 1010
f 1010 1060 1062 1012
f 1012 1062 1064 1014
f 1020 1016 1067 1068
f 1014 1064 1067 1016
f 1020 1068 1070 1021
f 1021 1070 1072 1024
f 1028 1027 1075 1076
f 1024 1072 1075 1027
f 1094 1098 1099 1100
f 1046 1094 1100 1049
f 1049 1100 1099 1050
f 1050 1099 1102 1052
f 1052 1102 1104 1054
f 1104 1108 1109 1110
f 1054 1104 1110 1057
f 1057 1110 1109 1058
f 1058 1109 1112 1060
f 1060 1112 1114 1062
f 1062 1114 1116 1064
f 1120 1121 1122 1116
f 1068 1067 1122 1121
f 1064 1116 1122 1067
f 1068 1121 1124 1070
f 1070 1124 1126 1072
f 1130 1131 1132 1126
f 1076 1075 1132 1131
f 1072 1126 1132 1075
f 1098 1156 1159 1099
f 1099 1159 1160 1102
f 1102 1160 1162 1104
f 1104 1162 1164 1108
f 1164 1167 1168 1169
f 1108 1164 1169 1109
f 1109 1169 1168 1112
f 1167 1171 1172 1168
f 1112 1168 1172 1114
f 1171 1175 1176 1172
f 1120 1116 1176 1175
f 1114 1172 1176 1116
f 1120 1175 1178 1121
f 1121 1178 1180 1124
f 1130 1126 1183 1184
f 1124 1180 1183 1126
f 1208 1211 1212 1213
f 1156 1208 1213 1159
f 1159 1213 1212 1160
f 1160 1212 1215 1162
f 1162 1215 1219 1164
f 1164 1219 1221 1167
f 1167 1221 1223 1171
f 1171 1223 1225 1175
f 1175 1225 1229 1178
f 1178 1229 1231 1180
f 1234 1235 1236 1231
f 1184 1183 1236 1235
f 1180 1231 1236 1183
f 1211 1260 1262 1212
f 1212 1262 1263 1215
f 1215 1263 1266 1219
f 1219 1266 1268 1221
f 1221 1268 1270 1223
f 1223 1270 1272 1225
f 1225 1272 1275 1229
f 1234 1231 1277 1278
f 1229 1275 1277 1231
f 1305 1309 1310 1311
f 1260 1305 1311 1262
f 1262 1311 1310 1263
f 1309 1313 1314 1310
f 1263 1310 1314 1266
f 1266 1314 1316 1268
f 1268 1316 1318 1270
f 1270 1318 1320 1272
f 1322 1323 1324 1320
f 1272 1320 1324 1275
f 1323 1328 1329 1324
f 1278 1277 1329 1328
f 1275 1324 1329 1277
f 1358 1360 1361 1362
f 1313 1358 1362 1314
f 1314 1362 1361 1316
f 1360 1364 1365 1361
f 1316 1361 1365 1318
f 1364 1367 1368 1365
f 1322 1320 1368 1367
f 1318 1365 1368 1320
