# generado por tools/vox_to_obj.py desde piedra_losa.vox
mtllib piedra_losa.mtl
v -5.0000 0.0000 5.5000
v -5.0000 1.0000 5.5000
v -5.0000 1.0000 4.5000
v -5.0000 0.0000 4.5000
v -4.0000 0.0000 5.5000
v -4.0000 1.0000 5.5000
v -4.0000 0.0000 4.5000
v -5.0000 2.0000 5.5000
v -5.0000 2.0000 4.5000
v -4.0000 2.0000 5.5000
v -5.0000 3.0000 5.5000
v -5.0000 3.0000 4.5000
v -4.0000 3.0000 5.5000
v -4.0000 3.0000 4.5000
v -3.0000 0.0000 5.5000
v -3.0000 1.0000 5.5000
v -3.0000 0.0000 4.5000
v -3.0000 2.0000 5.5000
v -3.0000 3.0000 5.5000
v -3.0000 3.0000 4.5000
v -2.0000 0.0000 5.5000
v -2.0000 1.0000 5.5000
v -2.0000 0.0000 4.5000
v -2.0000 2.0000 5.5000
v -2.0000 3.0000 5.5000
v -2.0000 3.0000 4.5000
v -1.0000 0.0000 5.5000
v -1.0000 1.0000 5.5000
v -1.0000 0.0000 4.5000
v -1.0000 2.0000 5.5000
v -1.0000 3.0000 5.5000
v -1.0000 3.0000 4.5000
v 0.0000 0.0000 5.5000
v 0.0000 1.0000 5.5000
v 0.0000 0.0000 4.5000
v 0.0000 2.0000 5.5000
v 0.0000 3.0000 5.5000
v 0.0000 3.0000 4.5000
v 1.0000 0.0000 5.5000
v 1.0000 1.0000 5.5000
v 1.0000 0.0000 4.5000
v 1.0000 2.0000 5.5000
v 1.0000 3.0000 5.5000
v 1.0000 3.0000 4.5000
v 2.0000 0.0000 5.5000
v 2.0000 1.0000 5.5000
v 2.0000 0.0000 4.5000
v 2.0000 2.0000 5.5000
v 2.0000 3.0000 5.5000
v 2.0000 3.0000 4.5000
v 3.0000 0.0000 5.5000
v 3.0000 1.0000 5.5000
v 3.0000 0.0000 4.5000
v 3.0000 2.0000 5.5000
v 3.0000 3.0000 5.5000
v 3.0000 3.0000 4.5000
v 4.0000 0.0000 5.5000
v 4.0000 1.0000 5.5000
v 4.0000 0.0000 4.5000
v 4.0000 2.0000 5.5000
v 4.0000 3.0000 5.5000
v 4.0000 3.0000 4.5000
v 5.0000 0.0000 5.5000
v 5.0000 0.0000 4.5000
v 5.0000 1.0000 4.5000
v 5.0000 1.0000 5.5000
v 5.0000 2.0000 4.5000
v 5.0000 2.0000 5.5000
v 5.0000 3.0000 4.5000
v 5.0000 3.0000 5.5000
v -6.0000 0.0000 4.5000
v -6.0000 1.0000 4.5000
v -6.0000 1.0000 3.5000
v -6.0000 0.0000 3.5000
v -5.0000 0.0000 3.5000
v -6.0000 2.0000 4.5000
v -6.0000 2.0000 3.5000
v -6.0000 3.0000 4.5000
v -6.0000 3.0000 3.5000
v -5.0000 3.0000 3.5000
v -4.0000 0.0000 3.5000
v -4.0000 3.0000 3.5000
v -3.0000 0.0000 3.5000
v -3.0000 3.0000 3.5000
v -2.0000 0.0000 3.5000
v -2.0000 3.0000 3.5000
v -1.0000 0.0000 3.5000
v -1.0000 3.0000 3.5000
v 0.0000 0.0000 3.5000
v 0.0000 3.0000 3.5000
v 1.0000 0.0000 3.5000
v 1.0000 3.0000 3.5000
v 2.0000 0.0000 3.5000
v 2.0000 3.0000 3.5000
v 3.0000 0.0000 3.5000
v 3.0000 3.0000 3.5000
v 4.0000 0.0000 3.5000
v 4.0000 3.0000 3.5000
v 5.0000 0.0000 3.5000
v 5.0000 3.0000 3.5000
v 6.0000 0.0000 4.5000
v 6.0000 0.0000 3.5000
v 6.0000 1.0000 3.5000
v 6.0000 1.0000 4.5000
v 6.0000 2.0000 3.5000
v 6.0000 2.0000 4.5000
v 6.0000 3.0000 3.5000
v 6.0000 3.0000 4.5000
v -7.0000 0.0000 3.5000
v -7.0000 1.0000 3.5000
v -7.0000 1.0000 2.5000
v -7.0000 0.0000 2.5000
v -6.0000 0.0000 2.5000
v -7.0000 2.0000 3.5000
v -7.0000 2.0000 2.5000
v -7.0000 3.0000 3.5000
v -7.0000 3.0000 2.5000
v -6.0000 3.0000 2.5000
v -5.0000 0.0000 2.5000
v -5.0000 3.0000 2.5000
v -4.0000 0.0000 2.5000
v -4.0000 3.0000 2.5000
v -3.0000 0.0000 2.5000
v -3.0000 3.0000 2.5000
v -2.0000 0.0000 2.5000
v -2.0000 3.0000 2.5000
v -1.0000 0.0000 2.5000
v -1.0000 3.0000 2.5000
v 0.0000 0.0000 2.5000
v 0.0000 3.0000 2.5000
v 1.0000 0.0000 2.5000
v 1.0000 3.0000 2.5000
v 2.0000 0.0000 2.5000
v 2.0000 3.0000 2.5000
v 3.0000 0.0000 2.5000
v 3.0000 3.0000 2.5000
v 4.0000 0.0000 2.5000
v 4.0000 3.0000 2.5000
v 5.0000 0.0000 2.5000
v 5.0000 3.0000 2.5000
v 6.0000 0.0000 2.5000
v 6.0000 3.0000 2.5000
v 7.0000 0.0000 3.5000
v 7.0000 0.0000 2.5000
v 7.0000 1.0000 2.5000
v 7.0000 1.0000 3.5000
v 7.0000 2.0000 2.5000
v 7.0000 2.0000 3.5000
v 7.0000 3.0000 2.5000
v 7.0000 3.0000 3.5000
v -7.0000 1.0000 1.5000
v -7.0000 0.0000 1.5000
v -6.0000 0.0000 1.5000
v -7.0000 2.0000 1.5000
v -7.0000 3.0000 1.5000
v -6.0000 3.0000 1.5000
v -5.0000 0.0000 1.5000
v -5.0000 3.0000 1.5000
v -4.0000 0.0000 1.5000
v -4.0000 3.0000 1.5000
v -3.0000 0.0000 1.5000
v -3.0000 3.0000 1.5000
v -2.0000 0.0000 1.5000
v -2.0000 3.0000 1.5000
v -1.0000 0.0000 1.5000
v -1.0000 3.0000 1.5000
v 0.0000 0.0000 1.5000
v 0.0000 3.0000 1.5000
v 1.0000 0.0000 1.5000
v 1.0000 3.0000 1.5000
v 2.0000 0.0000 1.5000
v 2.0000 3.0000 1.5000
v 3.0000 0.0000 1.5000
v 3.0000 3.0000 1.5000
v 4.0000 0.0000 1.5000
v 4.0000 3.0000 1.5000
v 5.0000 0.0000 1.5000
v 5.0000 3.0000 1.5000
v 6.0000 0.0000 1.5000
v 6.0000 3.0000 1.5000
v 7.0000 0.0000 1.5000
v 7.0000 1.0000 1.5000
v 7.0000 2.0000 1.5000
v 7.0000 3.0000 1.5000
v -7.0000 1.0000 0.5000
v -7.0000 0.0000 0.5000
v -6.0000 1.0000 0.5000
v -6.0000 0.0000 0.5000
v -7.0000 2.0000 0.5000
v -6.0000 2.0000 0.5000
v -7.0000 3.0000 0.5000
v -6.0000 3.0000 0.5000
v -5.0000 0.0000 0.5000
v -5.0000 3.0000 0.5000
v -4.0000 0.0000 0.5000
v -4.0000 3.0000 0.5000
v -3.0000 0.0000 0.5000
v -3.0000 3.0000 0.5000
v -2.0000 0.0000 0.5000
v -2.0000 3.0000 0.5000
v -1.0000 0.0000 0.5000
v -1.0000 3.0000 0.5000
v 0.0000 0.0000 0.5000
v 0.0000 3.0000 0.5000
v 1.0000 0.0000 0.5000
v 1.0000 3.0000 0.5000
v 2.0000 0.0000 0.5000
v 2.0000 3.0000 0.5000
v 3.0000 0.0000 0.5000
v 3.0000 3.0000 0.5000
v 4.0000 0.0000 0.5000
v 4.0000 3.0000 0.5000
v 5.0000 0.0000 0.5000
v 5.0000 3.0000 0.5000
v 6.0000 0.0000 0.5000
v 6.0000 3.0000 0.5000
v 7.0000 0.0000 0.5000
v 7.0000 1.0000 0.5000
v 6.0000 1.0000 0.5000
v 7.0000 2.0000 0.5000
v 6.0000 2.0000 0.5000
v 7.0000 3.0000 0.5000
v -6.0000 1.0000 -0.5000
v -6.0000 0.0000 -0.5000
v -5.0000 1.0000 -0.5000
v -5.0000 0.0000 -0.5000
v -6.0000 2.0000 -0.5000
v -5.0000 2.0000 -0.5000
v -6.0000 3.0000 -0.5000
v -5.0000 3.0000 -0.5000
v -4.0000 0.0000 -0.5000
v -4.0000 3.0000 -0.5000
v -3.0000 0.0000 -0.5000
v -3.0000 3.0000 -0.5000
v -2.0000 0.0000 -0.5000
v -2.0000 3.0000 -0.5000
v -1.0000 0.0000 -0.5000
v -1.0000 3.0000 -0.5000
v 0.0000 0.0000 -0.5000
v 0.0000 3.0000 -0.5000
v 1.0000 0.0000 -0.5000
v 1.0000 3.0000 -0.5000
v 2.0000 0.0000 -0.5000
v 2.0000 3.0000 -0.5000
v 3.0000 0.0000 -0.5000
v 3.0000 3.0000 -0.5000
v 4.0000 0.0000 -0.5000
v 4.0000 3.0000 -0.5000
v 4.0000 1.0000 -0.5000
v 5.0000 1.0000 -0.5000
v 5.0000 0.0000 -0.5000
v 4.0000 2.0000 -0.5000
v 5.0000 2.0000 -0.5000
v 5.0000 3.0000 -0.5000
v 6.0000 0.0000 -0.5000
v 6.0000 1.0000 -0.5000
v 6.0000 2.0000 -0.5000
v 6.0000 3.0000 -0.5000
v -5.0000 1.0000 -1.5000
v -5.0000 0.0000 -1.5000
v -4.0000 1.0000 -1.5000
v -4.0000 0.0000 -1.5000
v -5.0000 2.0000 -1.5000
v -4.0000 2.0000 -1.5000
v -5.0000 3.0000 -1.5000
v -4.0000 3.0000 -1.5000
v -3.0000 0.0000 -1.5000
v -3.0000 3.0000 -1.5000
v -2.0000 0.0000 -1.5000
v -2.0000 3.0000 -1.5000
v -1.0000 0.0000 -1.5000
v -1.0000 3.0000 -1.5000
v 0.0000 0.0000 -1.5000
v 0.0000 3.0000 -1.5000
v 1.0000 0.0000 -1.5000
v 1.0000 3.0000 -1.5000
v 2.0000 0.0000 -1.5000
v 2.0000 3.0000 -1.5000
v 3.0000 0.0000 -1.5000
v 3.0000 3.0000 -1.5000
v 4.0000 0.0000 -1.5000
v 4.0000 1.0000 -1.5000
v 3.0000 1.0000 -1.5000
v 4.0000 2.0000 -1.5000
v 3.0000 2.0000 -1.5000
v 4.0000 3.0000 -1.5000
v -4.0000 1.0000 -2.5000
v -4.0000 0.0000 -2.5000
v -3.0000 1.0000 -2.5000
v -3.0000 0.0000 -2.5000
v -4.0000 2.0000 -2.5000
v -3.0000 2.0000 -2.5000
v -4.0000 3.0000 -2.5000
v -3.0000 3.0000 -2.5000
v -2.0000 0.0000 -2.5000
v -2.0000 3.0000 -2.5000
v -1.0000 0.0000 -2.5000
v -1.0000 3.0000 -2.5000
v 0.0000 0.0000 -2.5000
v 0.0000 3.0000 -2.5000
v 1.0000 0.0000 -2.5000
v 1.0000 3.0000 -2.5000
v 2.0000 0.0000 -2.5000
v 2.0000 3.0000 -2.5000
v 3.0000 0.0000 -2.5000
v 3.0000 1.0000 -2.5000
v 2.0000 1.0000 -2.5000
v 3.0000 2.0000 -2.5000
v 2.0000 2.0000 -2.5000
v 3.0000 3.0000 -2.5000
v -3.0000 1.0000 -3.5000
v -3.0000 0.0000 -3.5000
v -2.0000 1.0000 -3.5000
v -2.0000 0.0000 -3.5000
v -3.0000 2.0000 -3.5000
v -2.0000 2.0000 -3.5000
v -3.0000 3.0000 -3.5000
v -2.0000 3.0000 -3.5000
v -1.0000 0.0000 -3.5000
v -1.0000 3.0000 -3.5000
v 0.0000 0.0000 -3.5000
v 0.0000 3.0000 -3.5000
v 1.0000 0.0000 -3.5000
v 1.0000 3.0000 -3.5000
v 2.0000 0.0000 -3.5000
v 2.0000 1.0000 -3.5000
v 1.0000 1.0000 -3.5000
v 2.0000 2.0000 -3.5000
v 1.0000 2.0000 -3.5000
v 2.0000 3.0000 -3.5000
v -2.0000 1.0000 -4.5000
v -2.0000 0.0000 -4.5000
v -1.0000 1.0000 -4.5000
v -1.0000 0.0000 -4.5000
v -2.0000 2.0000 -4.5000
v -1.0000 2.0000 -4.5000
v -2.0000 3.0000 -4.5000
v -1.0000 3.0000 -4.5000
v 0.0000 0.0000 -4.5000
v 0.0000 3.0000 -4.5000
v 1.0000 0.0000 -4.5000
v 1.0000 1.0000 -4.5000
v 0.0000 1.0000 -4.5000
v 1.0000 2.0000 -4.5000
v 0.0000 2.0000 -4.5000
v 1.0000 3.0000 -4.5000
v 0.0000 0.0000 -5.5000
v 0.0000 1.0000 -5.5000
v -1.0000 1.0000 -5.5000
v -1.0000 0.0000 -5.5000
v 0.0000 2.0000 -5.5000
v -1.0000 2.0000 -5.5000
v 0.0000 3.0000 -5.5000
v -1.0000 3.0000 -5.5000
usemtl c40
f 2 8 9 3
f 2 6 10 8
f 6 16 18 10
f 16 22 24 18
f 22 28 30 24
f 28 34 36 30
f 34 40 42 36
f 40 46 48 42
f 46 52 54 48
f 52 58 60 54
f 66 65 67 68
f 58 66 68 60
f 72 76 77 73
f 72 3 9 76
f 104 103 105 106
f 65 104 106 67
f 110 114 115 111
f 110 73 77 114
f 146 145 147 148
f 103 146 148 105
f 111 115 154 151
f 145 182 183 147
f 151 154 189 185
f 185 189 190 187
f 182 218 220 183
f 219 221 220 218
f 187 190 227 223
f 223 227 228 225
f 249 252 253 250
f 219 256 257 221
f 250 253 257 256
f 225 228 263 259
f 259 263 264 261
f 249 282 284 252
f 283 285 284 282
f 261 264 291 287
f 287 291 292 289
f 283 306 308 285
f 307 309 308 306
f 289 292 315 311
f 311 315 316 313
f 307 326 328 309
f 327 329 328 326
f 313 316 335 331
f 331 335 336 333
f 327 342 344 329
f 343 345 344 342
f 343 348 351 345
f 333 336 352 349
f 349 352 351 348
usemtl c41
f 1 2 3 4
f 1 5 6 2
f 1 4 7 5
f 5 15 16 6
f 5 7 17 15
f 15 21 22 16
f 15 17 23 21
f 21 27 28 22
f 21 23 29 27
f 27 33 34 28
f 27 29 35 33
f 33 39 40 34
f 33 35 41 39
f 39 45 46 40
f 39 41 47 45
f 45 51 52 46
f 45 47 53 51
f 51 57 58 52
f 51 53 59 57
f 63 64 65 66
f 57 63 66 58
f 57 59 64 63
f 71 72 73 74
f 71 4 3 72
f 71 74 75 4
f 4 75 81 7
f 7 81 83 17
f 17 83 85 23
f 23 85 87 29
f 29 87 89 35
f 35 89 91 41
f 41 91 93 47
f 47 93 95 53
f 53 95 97 59
f 59 97 99 64
f 101 102 103 104
f 64 101 104 65
f 64 99 102 101
f 109 110 111 112
f 109 74 73 110
f 109 112 113 74
f 74 113 119 75
f 75 119 121 81
f 81 121 123 83
f 83 123 125 85
f 85 125 127 87
f 87 127 129 89
f 89 129 131 91
f 91 131 133 93
f 93 133 135 95
f 95 135 137 97
f 97 137 139 99
f 99 139 141 102
f 143 144 145 146
f 102 143 146 103
f 102 141 144 143
f 112 111 151 152
f 112 152 153 113
f 113 153 157 119
f 119 157 159 121
f 121 159 161 123
f 123 161 163 125
f 125 163 165 127
f 127 165 167 129
f 129 167 169 131
f 131 169 171 133
f 133 171 173 135
f 135 173 175 137
f 137 175 177 139
f 139 177 179 141
f 144 181 182 145
f 141 179 181 144
f 152 151 185 186
f 186 185 187 188
f 152 186 188 153
f 153 188 193 157
f 157 193 195 159
f 159 195 197 161
f 161 197 199 163
f 163 199 201 165
f 165 201 203 167
f 167 203 205 169
f 169 205 207 171
f 171 207 209 173
f 173 209 211 175
f 175 211 213 177
f 177 213 215 179
f 181 217 218 182
f 215 219 218 217
f 179 215 217 181
f 188 187 223 224
f 224 223 225 226
f 188 224 226 193
f 193 226 231 195
f 195 231 233 197
f 197 233 235 199
f 199 235 237 201
f 201 237 239 203
f 203 239 241 205
f 205 241 243 207
f 207 243 245 209
f 209 245 247 211
f 247 249 250 251
f 211 247 251 213
f 215 255 256 219
f 251 250 256 255
f 213 251 255 215
f 226 225 259 260
f 260 259 261 262
f 226 260 262 231
f 231 262 267 233
f 233 267 269 235
f 235 269 271 237
f 237 271 273 239
f 239 273 275 241
f 241 275 277 243
f 243 277 279 245
f 247 281 282 249
f 279 283 282 281
f 245 279 281 247
f 262 261 287 288
f 288 287 289 290
f 262 288 290 267
f 267 290 295 269
f 269 295 297 271
f 271 297 299 273
f 273 299 301 275
f 275 301 303 277
f 279 305 306 283
f 303 307 306 305
f 277 303 305 279
f 290 289 311 312
f 312 311 313 314
f 290 312 314 295
f 295 314 319 297
f 297 319 321 299
f 299 321 323 301
f 303 325 326 307
f 323 327 326 325
f 301 323 325 303
f 314 313 331 332
f 332 331 333 334
f 314 332 334 319
f 319 334 339 321
f 323 341 342 327
f 339 343 342 341
f 321 339 341 323
f 339 347 348 343
f 334 333 349 350
f 350 349 348 347
f 334 350 347 339
usemtl c42
f 8 11 12 9
f 8 10 13 11
f 11 13 14 12
f 10 18 19 13
f 13 19 20 14
f 18 24 25 19
f 19 25 26 20
f 24 30 31 25
f 25 31 32 26
f 30 36 37 31
f 31 37 38 32
f 36 42 43 37
f 37 43 44 38
f 42 48 49 43
f 43 49 50 44
f 48 54 55 49
f 49 55 56 50
f 54 60 61 55
f 55 61 62 56
f 68 67 69 70
f 60 68 70 61
f 61 70 69 62
f 76 78 79 77
f 76 9 12 78
f 78 12 80 79
f 12 14 82 80
f 14 20 84 82
f 20 26 86 84
f 26 32 88 86
f 32 38 90 88
f 38 44 92 90
f 44 50 94 92
f 50 56 96 94
f 56 62 98 96
f 62 69 100 98
f 106 105 107 108
f 67 106 108 69
f 69 108 107 100
f 114 116 117 115
f 114 77 79 116
f 116 79 118 117
f 79 80 120 118
f 80 82 122 120
f 82 84 124 122
f 84 86 126 124
f 86 88 128 126
f 88 90 130 128
f 90 92 132 130
f 92 94 134 132
f 94 96 136 134
f 96 98 138 136
f 98 100 140 138
f 100 107 142 140
f 148 147 149 150
f 105 148 150 107
f 107 150 149 142
f 115 117 155 154
f 117 118 156 155
f 118 120 158 156
f 120 122 160 158
f 122 124 162 160
f 124 126 164 162
f 126 128 166 164
f 128 130 168 166
f 130 132 170 168
f 132 134 172 170
f 134 136 174 172
f 136 138 176 174
f 138 140 178 176
f 140 142 180 178
f 147 183 184 149
f 142 149 184 180
f 154 155 191 189
f 189 191 192 190
f 155 156 192 191
f 156 158 194 192
f 158 160 196 194
f 160 162 198 196
f 162 164 200 198
f 164 166 202 200
f 166 168 204 202
f 168 170 206 204
f 170 172 208 206
f 172 174 210 208
f 174 176 212 210
f 176 178 214 212
f 178 180 216 214
f 183 220 222 184
f 221 216 222 220
f 180 184 222 216
f 190 192 229 227
f 227 229 230 228
f 192 194 230 229
f 194 196 232 230
f 196 198 234 232
f 198 200 236 234
f 200 202 238 236
f 202 204 240 238
f 204 206 242 240
f 206 208 244 242
f 208 210 246 244
f 210 212 248 246
f 252 248 254 253
f 212 214 254 248
f 221 257 258 216
f 253 254 258 257
f 214 216 258 254
f 228 230 265 263
f 263 265 266 264
f 230 232 266 265
f 232 234 268 266
f 234 236 270 268
f 236 238 272 270
f 238 240 274 272
f 240 242 276 274
f 242 244 278 276
f 244 246 280 278
f 252 284 286 248
f 285 280 286 284
f 246 248 286 280
f 264 266 293 291
f 291 293 294 292
f 266 268 294 293
f 268 270 296 294
f 270 272 298 296
f 272 274 300 298
f 274 276 302 300
f 276 278 304 302
f 285 308 310 280
f 309 304 310 308
f 278 280 310 304
f 292 294 317 315
f 315 317 318 316
f 294 296 318 317
f 296 298 320 318
f 298 300 322 320
f 300 302 324 322
f 309 328 330 304
f 329 324 330 328
f 302 304 330 324
f 316 318 337 335
f 335 337 338 336
f 318 320 338 337
f 320 322 340 338
f 329 344 346 324
f 345 340 346 344
f 322 324 346 340
f 345 351 353 340
f 336 338 354 352
f 352 354 353 351
f 338 340 353 354
