# generado por tools/vox_to_obj.py desde pimenton_v3.vox
mtllib pimenton_v3.mtl
v -2.0000 0.0000 1.0000
v -2.0000 1.0000 1.0000
v -2.0000 1.0000 0.0000
v -2.0000 0.0000 0.0000
v -1.0000 0.0000 1.0000
v -1.0000 1.0000 1.0000
v -1.0000 0.0000 0.0000
v -2.0000 2.0000 1.0000
v -2.0000 2.0000 0.0000
v -1.0000 2.0000 1.0000
v -2.0000 3.0000 1.0000
v -2.0000 3.0000 0.0000
v -1.0000 3.0000 1.0000
v -2.0000 4.0000 1.0000
v -2.0000 4.0000 0.0000
v -1.0000 4.0000 1.0000
v -2.0000 5.0000 1.0000
v -2.0000 5.0000 0.0000
v -1.0000 5.0000 1.0000
v -1.0000 6.0000 1.0000
v -2.0000 6.0000 1.0000
v -1.0000 7.0000 1.0000
v -2.0000 7.0000 1.0000
v -2.0000 8.0000 1.0000
v -1.0000 8.0000 1.0000
v -1.0000 9.0000 1.0000
v -2.0000 9.0000 1.0000
v -1.0000 10.0000 1.0000
v -2.0000 10.0000 1.0000
v -1.0000 10.0000 0.0000
v -2.0000 10.0000 0.0000
v -2.0000 1.0000 -1.0000
v -2.0000 0.0000 -1.0000
v -1.0000 1.0000 -1.0000
v -1.0000 0.0000 -1.0000
v -2.0000 2.0000 -1.0000
v -1.0000 2.0000 -1.0000
v -2.0000 3.0000 -1.0000
v -1.0000 3.0000 -1.0000
v -2.0000 4.0000 -1.0000
v -1.0000 4.0000 -1.0000
v -2.0000 5.0000 -1.0000
v -1.0000 5.0000 -1.0000
v -2.0000 6.0000 -1.0000
v -1.0000 6.0000 -1.0000
v -2.0000 7.0000 -1.0000
v -1.0000 7.0000 -1.0000
v -2.0000 8.0000 -1.0000
v -1.0000 8.0000 -1.0000
v -2.0000 9.0000 -1.0000
v -1.0000 9.0000 -1.0000
v -2.0000 10.0000 -1.0000
v -1.0000 10.0000 -1.0000
v 0.0000 0.0000 1.0000
v 0.0000 1.0000 1.0000
v 0.0000 0.0000 0.0000
v 0.0000 2.0000 1.0000
v 0.0000 3.0000 1.0000
v 0.0000 4.0000 1.0000
v 0.0000 5.0000 1.0000
v 0.0000 6.0000 1.0000
v 0.0000 7.0000 1.0000
v 0.0000 8.0000 1.0000
v 0.0000 9.0000 1.0000
v 0.0000 10.0000 1.0000
v 0.0000 10.0000 0.0000
v 0.0000 1.0000 -1.0000
v 0.0000 0.0000 -1.0000
v 0.0000 2.0000 -1.0000
v 0.0000 3.0000 -1.0000
v 0.0000 4.0000 -1.0000
v 0.0000 5.0000 -1.0000
v 0.0000 6.0000 -1.0000
v 0.0000 7.0000 -1.0000
v 0.0000 8.0000 -1.0000
v 0.0000 9.0000 -1.0000
v 0.0000 10.0000 -1.0000
v 1.0000 0.0000 1.0000
v 1.0000 1.0000 1.0000
v 1.0000 0.0000 0.0000
v 1.0000 2.0000 1.0000
v 1.0000 3.0000 1.0000
v 1.0000 4.0000 1.0000
v 1.0000 5.0000 1.0000
v 1.0000 6.0000 1.0000
v 1.0000 7.0000 1.0000
v 1.0000 8.0000 1.0000
v 1.0000 9.0000 1.0000
v 1.0000 10.0000 1.0000
v 1.0000 10.0000 0.0000
v 1.0000 1.0000 -1.0000
v 1.0000 0.0000 -1.0000
v 1.0000 2.0000 -1.0000
v 1.0000 3.0000 -1.0000
v 1.0000 4.0000 -1.0000
v 1.0000 5.0000 -1.0000
v 1.0000 6.0000 -1.0000
v 1.0000 7.0000 -1.0000
v 1.0000 8.0000 -1.0000
v 1.0000 9.0000 -1.0000
v 1.0000 10.0000 -1.0000
v 2.0000 0.0000 1.0000
v 2.0000 0.0000 0.0000
v 2.0000 1.0000 0.0000
v 2.0000 1.0000 1.0000
v 2.0000 2.0000 0.0000
v 2.0000 2.0000 1.0000
v 2.0000 3.0000 0.0000
v 2.0000 3.0000 1.0000
v 2.0000 4.0000 0.0000
v 2.0000 4.0000 1.0000
v 2.0000 5.0000 0.0000
v 2.0000 5.0000 1.0000
v 2.0000 6.0000 1.0000
v 2.0000 7.0000 1.0000
v 2.0000 0.0000 -1.0000
v 2.0000 1.0000 -1.0000
v 2.0000 2.0000 -1.0000
v 2.0000 3.0000 -1.0000
v 2.0000 4.0000 -1.0000
v 2.0000 5.0000 -1.0000
v 2.0000 6.0000 -1.0000
v 2.0000 7.0000 -1.0000
v 2.0000 8.0000 -1.0000
v 2.0000 10.0000 -1.0000
v 2.0000 9.0000 -1.0000
v -4.0000 5.0000 1.0000
v -4.0000 6.0000 1.0000
v -4.0000 6.0000 0.0000
v -4.0000 5.0000 0.0000
v -3.0000 5.0000 1.0000
v -3.0000 6.0000 1.0000
v -3.0000 5.0000 0.0000
v -4.0000 7.0000 1.0000
v -4.0000 7.0000 0.0000
v -3.0000 7.0000 1.0000
v -4.0000 11.0000 1.0000
v -4.0000 12.0000 1.0000
v -4.0000 12.0000 0.0000
v -4.0000 11.0000 0.0000
v -3.0000 11.0000 1.0000
v -3.0000 12.0000 1.0000
v -4.0000 13.0000 1.0000
v -4.0000 13.0000 0.0000
v -3.0000 13.0000 1.0000
v -4.0000 14.0000 1.0000
v -4.0000 14.0000 0.0000
v -3.0000 14.0000 1.0000
v -4.0000 15.0000 1.0000
v -4.0000 15.0000 0.0000
v -3.0000 15.0000 1.0000
v -3.0000 15.0000 0.0000
v -4.0000 6.0000 -1.0000
v -4.0000 5.0000 -1.0000
v -3.0000 6.0000 -1.0000
v -3.0000 5.0000 -1.0000
v -4.0000 7.0000 -1.0000
v -3.0000 7.0000 -1.0000
v -4.0000 8.0000 -1.0000
v -3.0000 8.0000 -1.0000
v -4.0000 9.0000 -1.0000
v -3.0000 9.0000 -1.0000
v -4.0000 10.0000 -1.0000
v -3.0000 10.0000 -1.0000
v -4.0000 11.0000 -1.0000
v -3.0000 11.0000 -1.0000
v -4.0000 12.0000 -1.0000
v -3.0000 12.0000 -1.0000
v -4.0000 13.0000 -1.0000
v -3.0000 13.0000 -1.0000
v -4.0000 14.0000 -1.0000
v -4.0000 15.0000 -1.0000
v -3.0000 15.0000 -1.0000
v -3.0000 14.0000 -1.0000
v -3.0000 8.0000 1.0000
v -3.0000 9.0000 1.0000
v -3.0000 10.0000 1.0000
v -2.0000 11.0000 0.0000
v -2.0000 11.0000 1.0000
v -2.0000 12.0000 0.0000
v -2.0000 12.0000 1.0000
v -2.0000 13.0000 0.0000
v -2.0000 13.0000 1.0000
v -2.0000 14.0000 1.0000
v -2.0000 14.0000 0.0000
v -2.0000 15.0000 0.0000
v -2.0000 15.0000 1.0000
v -2.0000 11.0000 -1.0000
v -2.0000 12.0000 -1.0000
v -2.0000 13.0000 -1.0000
v -2.0000 14.0000 -1.0000
v -2.0000 15.0000 -1.0000
v 3.0000 5.0000 1.0000
v 3.0000 6.0000 1.0000
v 3.0000 5.0000 0.0000
v 3.0000 7.0000 1.0000
v 2.0000 13.0000 1.0000
v 2.0000 14.0000 1.0000
v 2.0000 14.0000 0.0000
v 2.0000 13.0000 0.0000
v 3.0000 13.0000 1.0000
v 3.0000 14.0000 1.0000
v 2.0000 15.0000 1.0000
v 2.0000 15.0000 0.0000
v 3.0000 15.0000 1.0000
v 3.0000 15.0000 0.0000
v 3.0000 6.0000 -1.0000
v 3.0000 5.0000 -1.0000
v 3.0000 7.0000 -1.0000
v 3.0000 8.0000 -1.0000
v 3.0000 10.0000 -1.0000
v 3.0000 9.0000 -1.0000
v 2.0000 11.0000 -1.0000
v 3.0000 11.0000 -1.0000
v 2.0000 11.0000 0.0000
v 2.0000 12.0000 0.0000
v 2.0000 12.0000 -1.0000
v 3.0000 12.0000 -1.0000
v 2.0000 13.0000 -1.0000
v 3.0000 13.0000 -1.0000
v 2.0000 14.0000 -1.0000
v 3.0000 14.0000 -1.0000
v 2.0000 15.0000 -1.0000
v 3.0000 15.0000 -1.0000
v 4.0000 5.0000 1.0000
v 4.0000 5.0000 0.0000
v 4.0000 6.0000 0.0000
v 4.0000 6.0000 1.0000
v 4.0000 7.0000 0.0000
v 4.0000 7.0000 1.0000
v 4.0000 8.0000 0.0000
v 4.0000 8.0000 1.0000
v 4.0000 9.0000 0.0000
v 4.0000 9.0000 1.0000
v 4.0000 10.0000 0.0000
v 4.0000 10.0000 1.0000
v 4.0000 11.0000 0.0000
v 4.0000 11.0000 1.0000
v 4.0000 12.0000 0.0000
v 4.0000 12.0000 1.0000
v 3.0000 11.0000 1.0000
v 3.0000 12.0000 1.0000
v 4.0000 13.0000 0.0000
v 4.0000 13.0000 1.0000
v 4.0000 14.0000 0.0000
v 4.0000 14.0000 1.0000
v 4.0000 15.0000 0.0000
v 4.0000 15.0000 1.0000
v 4.0000 5.0000 -1.0000
v 4.0000 6.0000 -1.0000
v 4.0000 7.0000 -1.0000
v 4.0000 8.0000 -1.0000
v 4.0000 9.0000 -1.0000
v 4.0000 10.0000 -1.0000
v 4.0000 11.0000 -1.0000
v 4.0000 12.0000 -1.0000
v 4.0000 13.0000 -1.0000
v 4.0000 14.0000 -1.0000
v 4.0000 15.0000 -1.0000
v -4.0000 7.0000 2.0000
v -3.0000 7.0000 2.0000
v -3.0000 8.0000 2.0000
v -4.0000 8.0000 2.0000
v -2.0000 7.0000 2.0000
v -2.0000 8.0000 2.0000
v -1.0000 7.0000 2.0000
v -1.0000 8.0000 2.0000
v 1.0000 9.0000 -2.0000
v 1.0000 8.0000 -2.0000
v 2.0000 9.0000 -2.0000
v 2.0000 8.0000 -2.0000
v 3.0000 9.0000 -2.0000
v 3.0000 8.0000 -2.0000
v 4.0000 8.0000 -2.0000
v 4.0000 9.0000 -2.0000
v -3.0000 11.0000 -2.0000
v -3.0000 10.0000 -2.0000
v -2.0000 11.0000 -2.0000
v -2.0000 10.0000 -2.0000
v -2.0000 11.0000 -3.0000
v -3.0000 11.0000 -3.0000
v -3.0000 10.0000 -3.0000
v -2.0000 10.0000 -3.0000
v -3.0000 10.0000 -4.0000
v -3.0000 11.0000 -4.0000
v -2.0000 11.0000 -4.0000
v -2.0000 10.0000 -4.0000
v -1.0000 11.0000 -1.0000
v -1.0000 11.0000 -2.0000
v -1.0000 10.0000 -2.0000
v -1.0000 11.0000 -3.0000
v -1.0000 10.0000 -3.0000
v -1.0000 11.0000 -4.0000
v -1.0000 10.0000 -4.0000
v 0.0000 10.0000 -2.0000
v 0.0000 11.0000 -2.0000
v 0.0000 11.0000 -1.0000
v 0.0000 10.0000 -3.0000
v 0.0000 11.0000 -3.0000
v 0.0000 10.0000 -4.0000
v 0.0000 11.0000 -4.0000
v 0.0000 11.0000 3.0000
v 0.0000 12.0000 3.0000
v 0.0000 12.0000 2.0000
v 0.0000 11.0000 2.0000
v 1.0000 11.0000 3.0000
v 1.0000 12.0000 3.0000
v 1.0000 12.0000 2.0000
v 1.0000 11.0000 2.0000
v 0.0000 12.0000 1.0000
v 0.0000 11.0000 1.0000
v 1.0000 12.0000 1.0000
v 1.0000 11.0000 1.0000
v 0.0000 12.0000 0.0000
v 0.0000 11.0000 0.0000
v 1.0000 12.0000 0.0000
v 1.0000 11.0000 0.0000
v 2.0000 11.0000 3.0000
v 2.0000 12.0000 3.0000
v 2.0000 12.0000 2.0000
v 2.0000 11.0000 2.0000
v 3.0000 11.0000 3.0000
v 3.0000 11.0000 2.0000
v 3.0000 12.0000 2.0000
v 3.0000 12.0000 3.0000
v -4.0000 14.0000 -2.0000
v -4.0000 13.0000 -2.0000
v -3.0000 14.0000 -2.0000
v -3.0000 13.0000 -2.0000
v -2.0000 14.0000 -2.0000
v -2.0000 13.0000 -2.0000
v -1.0000 13.0000 1.0000
v -1.0000 13.0000 0.0000
v -1.0000 14.0000 0.0000
v -1.0000 14.0000 1.0000
v -1.0000 13.0000 -1.0000
v -1.0000 14.0000 -1.0000
v -1.0000 13.0000 -2.0000
v -1.0000 14.0000 -2.0000
v 1.0000 13.0000 2.0000
v 1.0000 13.0000 1.0000
v 2.0000 13.0000 2.0000
v 1.0000 13.0000 0.0000
v 1.0000 13.0000 -1.0000
v 1.0000 12.0000 -1.0000
v 3.0000 13.0000 2.0000
v 4.0000 12.0000 2.0000
v 4.0000 13.0000 2.0000
v -6.0000 7.0000 2.0000
v -6.0000 8.0000 2.0000
v -6.0000 8.0000 1.0000
v -6.0000 7.0000 1.0000
v -5.0000 7.0000 2.0000
v -5.0000 8.0000 2.0000
v -5.0000 7.0000 1.0000
v -6.0000 9.0000 2.0000
v -6.0000 9.0000 1.0000
v -5.0000 9.0000 2.0000
v -6.0000 10.0000 2.0000
v -6.0000 10.0000 1.0000
v -5.0000 10.0000 2.0000
v -6.0000 11.0000 2.0000
v -6.0000 11.0000 1.0000
v -5.0000 11.0000 2.0000
v -5.0000 11.0000 1.0000
v -6.0000 8.0000 0.0000
v -6.0000 7.0000 0.0000
v -5.0000 7.0000 0.0000
v -6.0000 9.0000 0.0000
v -6.0000 10.0000 0.0000
v -6.0000 11.0000 0.0000
v -5.0000 11.0000 0.0000
v -6.0000 8.0000 -1.0000
v -6.0000 7.0000 -1.0000
v -5.0000 8.0000 -1.0000
v -5.0000 7.0000 -1.0000
v -6.0000 9.0000 -1.0000
v -5.0000 9.0000 -1.0000
v -6.0000 10.0000 -1.0000
v -5.0000 10.0000 -1.0000
v -6.0000 11.0000 -1.0000
v -5.0000 11.0000 -1.0000
v -4.0000 9.0000 2.0000
v -4.0000 10.0000 2.0000
v -4.0000 11.0000 2.0000
v -3.0000 9.0000 2.0000
v -3.0000 10.0000 2.0000
v -3.0000 11.0000 2.0000
v -3.0000 8.0000 6.0000
v -3.0000 9.0000 6.0000
v -3.0000 9.0000 5.0000
v -3.0000 8.0000 5.0000
v -2.0000 8.0000 6.0000
v -2.0000 9.0000 6.0000
v -2.0000 8.0000 5.0000
v -3.0000 10.0000 6.0000
v -3.0000 10.0000 5.0000
v -2.0000 10.0000 6.0000
v -3.0000 11.0000 6.0000
v -3.0000 11.0000 5.0000
v -2.0000 11.0000 6.0000
v -3.0000 12.0000 6.0000
v -3.0000 12.0000 5.0000
v -2.0000 12.0000 6.0000
v -2.0000 12.0000 5.0000
v -3.0000 9.0000 4.0000
v -3.0000 8.0000 4.0000
v -2.0000 8.0000 4.0000
v -3.0000 10.0000 4.0000
v -3.0000 11.0000 4.0000
v -3.0000 12.0000 4.0000
v -3.0000 9.0000 3.0000
v -3.0000 8.0000 3.0000
v -2.0000 9.0000 3.0000
v -2.0000 8.0000 3.0000
v -3.0000 10.0000 3.0000
v -2.0000 10.0000 3.0000
v -3.0000 11.0000 3.0000
v -2.0000 11.0000 3.0000
v -3.0000 12.0000 3.0000
v -2.0000 12.0000 3.0000
v -1.0000 8.0000 6.0000
v -1.0000 9.0000 6.0000
v -1.0000 8.0000 5.0000
v -1.0000 10.0000 6.0000
v -1.0000 11.0000 6.0000
v -1.0000 12.0000 6.0000
v -1.0000 12.0000 5.0000
v -1.0000 8.0000 4.0000
v -1.0000 12.0000 4.0000
v -2.0000 12.0000 4.0000
v -1.0000 9.0000 3.0000
v -1.0000 8.0000 3.0000
v -1.0000 10.0000 3.0000
v -1.0000 11.0000 3.0000
v -1.0000 12.0000 3.0000
v 0.0000 8.0000 6.0000
v 0.0000 8.0000 5.0000
v 0.0000 9.0000 5.0000
v 0.0000 9.0000 6.0000
v 0.0000 10.0000 5.0000
v 0.0000 10.0000 6.0000
v 0.0000 11.0000 5.0000
v 0.0000 11.0000 6.0000
v 0.0000 12.0000 5.0000
v 0.0000 12.0000 6.0000
v 0.0000 8.0000 4.0000
v 0.0000 9.0000 4.0000
v 0.0000 10.0000 4.0000
v 0.0000 11.0000 4.0000
v 0.0000 12.0000 4.0000
v 0.0000 8.0000 3.0000
v 0.0000 9.0000 3.0000
v 0.0000 10.0000 3.0000
v 1.0000 7.0000 2.0000
v 1.0000 8.0000 2.0000
v 2.0000 7.0000 2.0000
v 2.0000 8.0000 2.0000
v 1.0000 9.0000 2.0000
v 2.0000 9.0000 2.0000
v 1.0000 10.0000 2.0000
v 2.0000 10.0000 2.0000
v 1.0000 11.0000 -1.0000
v 3.0000 7.0000 2.0000
v 3.0000 8.0000 2.0000
v 3.0000 9.0000 2.0000
v 3.0000 10.0000 2.0000
v 4.0000 7.0000 2.0000
v 4.0000 8.0000 2.0000
v 4.0000 9.0000 2.0000
v 4.0000 10.0000 2.0000
v 4.0000 11.0000 2.0000
v 3.0000 10.0000 -2.0000
v 3.0000 11.0000 -2.0000
v 3.0000 12.0000 -2.0000
v 3.0000 13.0000 -2.0000
v 4.0000 13.0000 -2.0000
v 3.0000 13.0000 -3.0000
v 3.0000 12.0000 -3.0000
v 4.0000 13.0000 -3.0000
v 3.0000 13.0000 -4.0000
v 3.0000 12.0000 -4.0000
v 4.0000 13.0000 -4.0000
v 4.0000 12.0000 -4.0000
v 5.0000 9.0000 -1.0000
v 5.0000 10.0000 -1.0000
v 5.0000 9.0000 -2.0000
v 5.0000 11.0000 -1.0000
v 5.0000 12.0000 -1.0000
v 5.0000 13.0000 -1.0000
v 5.0000 13.0000 -2.0000
v 5.0000 13.0000 -3.0000
v 5.0000 13.0000 -4.0000
v 5.0000 12.0000 -4.0000
v 6.0000 9.0000 -1.0000
v 6.0000 9.0000 -2.0000
v 6.0000 10.0000 -2.0000
v 6.0000 10.0000 -1.0000
v 6.0000 11.0000 -2.0000
v 6.0000 11.0000 -1.0000
v 6.0000 12.0000 -2.0000
v 6.0000 12.0000 -1.0000
v 6.0000 13.0000 -2.0000
v 6.0000 13.0000 -1.0000
v 6.0000 9.0000 -3.0000
v 6.0000 10.0000 -3.0000
v 5.0000 9.0000 -3.0000
v 6.0000 11.0000 -3.0000
v 6.0000 12.0000 -3.0000
v 6.0000 13.0000 -3.0000
v 6.0000 9.0000 -4.0000
v 6.0000 10.0000 -4.0000
v 5.0000 9.0000 -4.0000
v 5.0000 10.0000 -4.0000
v 6.0000 11.0000 -4.0000
v 5.0000 11.0000 -4.0000
v 6.0000 12.0000 -4.0000
v 6.0000 13.0000 -4.0000
v -6.0000 10.0000 -2.0000
v -6.0000 11.0000 -2.0000
v -6.0000 11.0000 -3.0000
v -6.0000 10.0000 -3.0000
v -5.0000 10.0000 -2.0000
v -5.0000 11.0000 -2.0000
v -5.0000 10.0000 -3.0000
v -6.0000 12.0000 -2.0000
v -6.0000 12.0000 -3.0000
v -5.0000 12.0000 -2.0000
v -6.0000 13.0000 -2.0000
v -6.0000 13.0000 -3.0000
v -5.0000 13.0000 -2.0000
v -6.0000 14.0000 -2.0000
v -6.0000 14.0000 -3.0000
v -5.0000 14.0000 -2.0000
v -5.0000 14.0000 -3.0000
v -6.0000 11.0000 -4.0000
v -6.0000 10.0000 -4.0000
v -5.0000 10.0000 -4.0000
v -6.0000 12.0000 -4.0000
v -6.0000 13.0000 -4.0000
v -6.0000 14.0000 -4.0000
v -5.0000 14.0000 -4.0000
v -6.0000 11.0000 -5.0000
v -6.0000 10.0000 -5.0000
v -5.0000 11.0000 -5.0000
v -5.0000 10.0000 -5.0000
v -6.0000 12.0000 -5.0000
v -5.0000 12.0000 -5.0000
v -6.0000 13.0000 -5.0000
v -5.0000 13.0000 -5.0000
v -6.0000 14.0000 -5.0000
v -5.0000 14.0000 -5.0000
v -4.0000 10.0000 -2.0000
v -4.0000 11.0000 -2.0000
v -4.0000 10.0000 -3.0000
v -4.0000 12.0000 -2.0000
v -4.0000 14.0000 -3.0000
v -4.0000 10.0000 -4.0000
v -4.0000 14.0000 -4.0000
v -4.0000 11.0000 -5.0000
v -4.0000 10.0000 -5.0000
v -4.0000 12.0000 -5.0000
v -4.0000 13.0000 -5.0000
v -4.0000 14.0000 -5.0000
v -3.0000 12.0000 -3.0000
v -3.0000 12.0000 -2.0000
v -3.0000 13.0000 -3.0000
v -3.0000 14.0000 -3.0000
v -3.0000 12.0000 -4.0000
v -3.0000 13.0000 -4.0000
v -3.0000 14.0000 -4.0000
v -3.0000 10.0000 -5.0000
v -3.0000 11.0000 -5.0000
v -3.0000 12.0000 -5.0000
v -3.0000 13.0000 -5.0000
v -3.0000 14.0000 -5.0000
v 2.0000 9.0000 -3.0000
v 2.0000 8.0000 -3.0000
v 3.0000 8.0000 -3.0000
v 2.0000 10.0000 -2.0000
v 2.0000 10.0000 -3.0000
v 2.0000 11.0000 -2.0000
v 2.0000 11.0000 -3.0000
v 2.0000 12.0000 -2.0000
v 2.0000 12.0000 -3.0000
v 2.0000 9.0000 -4.0000
v 2.0000 8.0000 -4.0000
v 3.0000 8.0000 -4.0000
v 2.0000 10.0000 -4.0000
v 2.0000 11.0000 -4.0000
v 2.0000 12.0000 -4.0000
v 2.0000 9.0000 -5.0000
v 2.0000 8.0000 -5.0000
v 3.0000 9.0000 -5.0000
v 3.0000 8.0000 -5.0000
v 2.0000 10.0000 -5.0000
v 3.0000 10.0000 -5.0000
v 2.0000 11.0000 -5.0000
v 3.0000 11.0000 -5.0000
v 2.0000 12.0000 -5.0000
v 3.0000 12.0000 -5.0000
v 4.0000 8.0000 -3.0000
v 4.0000 8.0000 -4.0000
v 4.0000 9.0000 -5.0000
v 4.0000 8.0000 -5.0000
v 4.0000 10.0000 -5.0000
v 4.0000 11.0000 -5.0000
v 4.0000 12.0000 -5.0000
v 5.0000 8.0000 -2.0000
v 5.0000 8.0000 -3.0000
v 5.0000 8.0000 -4.0000
v 5.0000 8.0000 -5.0000
v 5.0000 9.0000 -5.0000
v 5.0000 10.0000 -5.0000
v 5.0000 11.0000 -5.0000
v 5.0000 12.0000 -5.0000
v -2.0000 12.0000 -3.0000
v -2.0000 12.0000 -4.0000
v -1.0000 12.0000 -3.0000
v -2.0000 13.0000 -3.0000
v -2.0000 13.0000 -4.0000
v -1.0000 13.0000 -3.0000
v -2.0000 14.0000 -3.0000
v -2.0000 14.0000 -4.0000
v -1.0000 14.0000 -3.0000
v -2.0000 15.0000 -3.0000
v -2.0000 15.0000 -4.0000
v -1.0000 15.0000 -3.0000
v -1.0000 15.0000 -4.0000
v -2.0000 12.0000 -5.0000
v -2.0000 11.0000 -5.0000
v -1.0000 11.0000 -5.0000
v -2.0000 13.0000 -5.0000
v -2.0000 14.0000 -5.0000
v -2.0000 15.0000 -5.0000
v -1.0000 15.0000 -5.0000
v -2.0000 12.0000 -6.0000
v -2.0000 11.0000 -6.0000
v -1.0000 12.0000 -6.0000
v -1.0000 11.0000 -6.0000
v -2.0000 13.0000 -6.0000
v -1.0000 13.0000 -6.0000
v -2.0000 14.0000 -6.0000
v -1.0000 14.0000 -6.0000
v -2.0000 15.0000 -6.0000
v -1.0000 15.0000 -6.0000
v 0.0000 12.0000 -3.0000
v 0.0000 13.0000 -3.0000
v 0.0000 14.0000 -3.0000
v 0.0000 15.0000 -3.0000
v 0.0000 15.0000 -4.0000
v 0.0000 11.0000 -5.0000
v 0.0000 15.0000 -5.0000
v 0.0000 12.0000 -6.0000
v 0.0000 11.0000 -6.0000
v 0.0000 13.0000 -6.0000
v 0.0000 14.0000 -6.0000
v 0.0000 15.0000 -6.0000
v 1.0000 11.0000 -3.0000
v 1.0000 11.0000 -4.0000
v 1.0000 12.0000 -4.0000
v 1.0000 12.0000 -3.0000
v 1.0000 13.0000 -4.0000
v 1.0000 13.0000 -3.0000
v 1.0000 14.0000 -4.0000
v 1.0000 14.0000 -3.0000
v 1.0000 15.0000 -4.0000
v 1.0000 15.0000 -3.0000
v 1.0000 11.0000 -5.0000
v 1.0000 12.0000 -5.0000
v 1.0000 13.0000 -5.0000
v 1.0000 14.0000 -5.0000
v 1.0000 15.0000 -5.0000
v 1.0000 11.0000 -6.0000
v 1.0000 12.0000 -6.0000
v 1.0000 13.0000 -6.0000
v 1.0000 14.0000 -6.0000
v 1.0000 15.0000 -6.0000
v -5.0000 12.0000 5.0000
v -5.0000 13.0000 5.0000
v -5.0000 13.0000 4.0000
v -5.0000 12.0000 4.0000
v -4.0000 12.0000 5.0000
v -4.0000 13.0000 5.0000
v -4.0000 12.0000 4.0000
v -5.0000 14.0000 5.0000
v -5.0000 14.0000 4.0000
v -4.0000 14.0000 5.0000
v -5.0000 15.0000 5.0000
v -5.0000 15.0000 4.0000
v -4.0000 15.0000 5.0000
v -5.0000 16.0000 5.0000
v -5.0000 16.0000 4.0000
v -4.0000 16.0000 5.0000
v -4.0000 16.0000 4.0000
v -5.0000 13.0000 3.0000
v -5.0000 12.0000 3.0000
v -4.0000 12.0000 3.0000
v -5.0000 14.0000 3.0000
v -5.0000 15.0000 3.0000
v -5.0000 16.0000 3.0000
v -4.0000 16.0000 3.0000
v -5.0000 13.0000 2.0000
v -5.0000 12.0000 2.0000
v -4.0000 13.0000 2.0000
v -4.0000 12.0000 2.0000
v -5.0000 14.0000 2.0000
v -4.0000 14.0000 2.0000
v -5.0000 15.0000 2.0000
v -4.0000 15.0000 2.0000
v -5.0000 16.0000 2.0000
v -4.0000 16.0000 2.0000
v -3.0000 13.0000 5.0000
v -3.0000 14.0000 5.0000
v -3.0000 15.0000 5.0000
v -3.0000 16.0000 5.0000
v -3.0000 16.0000 4.0000
v -3.0000 16.0000 3.0000
v -3.0000 13.0000 2.0000
v -3.0000 12.0000 2.0000
v -3.0000 14.0000 2.0000
v -3.0000 15.0000 2.0000
v -3.0000 16.0000 2.0000
v -2.0000 13.0000 4.0000
v -2.0000 13.0000 5.0000
v -2.0000 14.0000 4.0000
v -2.0000 14.0000 5.0000
v -2.0000 15.0000 4.0000
v -2.0000 15.0000 5.0000
v -2.0000 16.0000 4.0000
v -2.0000 16.0000 5.0000
v -2.0000 13.0000 3.0000
v -2.0000 14.0000 3.0000
v -2.0000 15.0000 3.0000
v -2.0000 16.0000 3.0000
v -2.0000 12.0000 2.0000
v -2.0000 13.0000 2.0000
v -2.0000 14.0000 2.0000
v -2.0000 15.0000 2.0000
v -2.0000 16.0000 2.0000
usemtl c1
f 1 2 3 4
f 1 5 6 2
f 1 4 7 5
f 2 8 9 3
f 2 6 10 8
f 8 11 12 9
f 8 10 13 11
f 11 14 15 12
f 11 13 16 14
f 14 17 18 15
f 14 16 19 17
f 17 19 20 21
f 21 20 22 23
f 24 25 26 27
f 27 26 28 29
f 29 28 30 31
f 4 3 32 33
f 33 32 34 35
f 4 33 35 7
f 3 9 36 32
f 32 36 37 34
f 9 12 38 36
f 36 38 39 37
f 12 15 40 38
f 38 40 41 39
f 15 18 42 40
f 40 42 43 41
f 42 44 45 43
f 44 46 47 45
f 48 50 51 49
f 50 52 53 51
f 31 30 53 52
f 5 54 55 6
f 5 7 56 54
f 6 55 57 10
f 10 57 58 13
f 13 58 59 16
f 16 59 60 19
f 19 60 61 20
f 20 61 62 22
f 22 62 63 25
f 25 63 64 26
f 26 64 65 28
f 28 65 66 30
f 35 34 67 68
f 7 35 68 56
f 34 37 69 67
f 37 39 70 69
f 39 41 71 70
f 41 43 72 71
f 43 45 73 72
f 45 47 74 73
f 47 49 75 74
f 49 51 76 75
f 51 53 77 76
f 30 66 77 53
f 54 78 79 55
f 54 56 80 78
f 55 79 81 57
f 57 81 82 58
f 58 82 83 59
f 59 83 84 60
f 60 84 85 61
f 61 85 86 62
f 62 86 87 63
f 63 87 88 64
f 64 88 89 65
f 65 89 90 66
f 68 67 91 92
f 56 68 92 80
f 67 69 93 91
f 69 70 94 93
f 70 71 95 94
f 71 72 96 95
f 72 73 97 96
f 73 74 98 97
f 74 75 99 98
f 75 76 100 99
f 76 77 101 100
f 66 90 101 77
f 102 103 104 105
f 78 102 105 79
f 78 80 103 102
f 105 104 106 107
f 79 105 107 81
f 107 106 108 109
f 81 107 109 82
f 109 108 110 111
f 82 109 111 83
f 111 110 112 113
f 83 111 113 84
f 84 113 114 85
f 85 114 115 86
f 103 116 117 104
f 92 91 117 116
f 80 92 116 103
f 104 117 118 106
f 91 93 118 117
f 106 118 119 108
f 93 94 119 118
f 108 119 120 110
f 94 95 120 119
f 110 120 121 112
f 95 96 121 120
f 96 97 122 121
f 97 98 123 122
f 127 128 129 130
f 127 131 132 128
f 127 130 133 131
f 128 134 135 129
f 128 132 136 134
f 137 138 139 140
f 137 141 142 138
f 138 143 144 139
f 138 142 145 143
f 146 149 150 147
f 146 148 151 149
f 149 151 152 150
f 130 129 153 154
f 154 153 155 156
f 130 154 156 133
f 129 135 157 153
f 153 157 158 155
f 140 139 167 165
f 165 167 168 166
f 139 144 169 167
f 167 169 170 168
f 147 150 172 171
f 171 172 173 174
f 150 152 173 172
f 131 17 21 132
f 131 133 18 17
f 132 21 23 136
f 175 24 27 176
f 176 27 29 177
f 29 31 178 179
f 177 29 179 141
f 179 178 180 181
f 141 179 181 142
f 181 180 182 183
f 142 181 183 145
f 184 185 186 187
f 148 184 187 151
f 151 187 186 152
f 156 155 44 42
f 133 156 42 18
f 155 158 46 44
f 160 162 50 48
f 162 164 52 50
f 31 52 188 178
f 178 188 189 180
f 166 168 189 188
f 180 189 190 182
f 168 170 190 189
f 185 191 192 186
f 174 173 192 191
f 152 186 192 173
f 113 193 194 114
f 113 112 195 193
f 114 194 196 115
f 197 198 199 200
f 197 201 202 198
f 198 203 204 199
f 198 202 205 203
f 203 205 206 204
f 121 122 207 208
f 112 121 208 195
f 122 123 209 207
f 215 216 217 213
f 213 217 218 214
f 200 199 221 219
f 219 221 222 220
f 199 204 223 221
f 221 223 224 222
f 204 206 224 223
f 225 226 227 228
f 193 225 228 194
f 193 195 226 225
f 228 227 229 230
f 194 228 230 196
f 238 237 239 240
f 241 238 240 242
f 244 243 245 246
f 201 244 246 202
f 246 245 247 248
f 202 246 248 205
f 205 248 247 206
f 226 249 250 227
f 208 207 250 249
f 195 208 249 226
f 227 250 251 229
f 207 209 251 250
f 237 255 256 239
f 243 257 258 245
f 220 222 258 257
f 245 258 259 247
f 222 224 259 258
f 206 247 259 224
usemtl c2
f 46 48 49 47
f 143 146 147 144
f 143 145 148 146
f 144 147 171 169
f 145 183 184 148
f 158 160 48 46
f 217 219 220 218
f 240 239 243 244
f 239 256 257 243
f 261 264 265 262
f 262 265 24 175
f 261 136 23 264
f 266 22 25 267
f 264 266 267 265
f 265 267 25 24
f 264 23 22 266
f 99 100 268 269
f 269 268 270 271
f 100 126 270 268
f 99 269 271 124
f 126 212 272 270
f 124 271 273 210
f 252 274 275 253
f 210 273 274 252
f 164 166 276 277
f 166 188 278 276
f 164 277 279 52
f 276 278 280 281
f 277 282 283 279
f 284 285 286 287
f 281 280 286 285
f 282 284 287 283
f 52 53 288 188
f 188 288 289 278
f 52 279 290 53
f 278 289 291 280
f 279 283 292 290
f 287 286 293 294
f 283 287 294 292
f 77 295 296 297
f 53 77 297 288
f 288 297 296 289
f 53 290 295 77
f 295 298 299 296
f 289 296 299 291
f 290 292 298 295
f 298 300 301 299
f 294 293 301 300
f 292 294 300 298
f 302 303 304 305
f 302 306 307 303
f 303 307 308 304
f 302 305 309 306
f 305 304 310 311
f 304 308 312 310
f 305 311 313 309
f 311 310 314 315
f 315 314 316 317
f 310 312 316 314
f 311 315 317 313
f 306 318 319 307
f 307 319 320 308
f 306 309 321 318
f 317 316 216 215
f 322 323 324 325
f 318 322 325 319
f 319 325 324 320
f 318 321 323 322
f 323 241 242 324
f 169 171 326 327
f 171 174 328 326
f 169 327 329 170
f 329 328 330 331
f 174 191 330 328
f 170 329 331 190
f 332 333 334 335
f 183 332 335 184
f 184 335 334 185
f 183 182 333 332
f 333 336 337 334
f 185 334 337 191
f 182 190 336 333
f 336 338 339 337
f 331 330 339 338
f 191 337 339 330
f 190 331 338 336
f 308 340 341 312
f 308 320 342 340
f 340 342 197 341
f 312 341 343 316
f 341 197 200 343
f 316 343 344 345
f 345 344 219 217
f 343 200 219 344
f 316 345 217 216
f 320 324 346 342
f 342 346 201 197
f 347 240 244 348
f 324 347 348 346
f 346 348 244 201
f 324 242 240 347
usemtl c3
f 98 99 124 123
f 100 101 125 126
f 157 159 160 158
f 159 161 162 160
f 161 163 164 162
f 163 165 166 164
f 123 124 210 209
f 126 125 211 212
f 125 213 214 211
f 230 229 231 232
f 232 231 233 234
f 234 233 235 236
f 236 235 237 238
f 229 251 252 231
f 209 210 252 251
f 231 252 253 233
f 233 253 254 235
f 235 254 255 237
f 260 261 262 263
f 260 134 136 261
f 349 350 351 352
f 349 353 354 350
f 349 352 355 353
f 350 356 357 351
f 350 354 358 356
f 356 359 360 357
f 356 358 361 359
f 359 362 363 360
f 359 361 364 362
f 362 364 365 363
f 352 351 366 367
f 352 367 368 355
f 351 357 369 366
f 357 360 370 369
f 360 363 371 370
f 363 365 372 371
f 367 366 373 374
f 374 373 375 376
f 367 374 376 368
f 366 369 377 373
f 373 377 378 375
f 369 370 379 377
f 377 379 380 378
f 370 371 381 379
f 379 381 382 380
f 371 372 382 381
f 353 260 263 354
f 353 355 134 260
f 354 263 383 358
f 358 383 384 361
f 361 384 385 364
f 364 385 137 365
f 355 368 135 134
f 365 137 140 372
f 376 375 159 157
f 368 376 157 135
f 375 378 161 159
f 378 380 163 161
f 380 382 165 163
f 372 140 165 382
f 262 175 176 386
f 263 262 386 383
f 386 176 177 387
f 383 386 387 384
f 387 177 141 388
f 384 387 388 385
f 385 388 141 137
f 389 390 391 392
f 389 393 394 390
f 389 392 395 393
f 390 396 397 391
f 390 394 398 396
f 396 399 400 397
f 396 398 401 399
f 399 402 403 400
f 399 401 404 402
f 402 404 405 403
f 392 391 406 407
f 392 407 408 395
f 391 397 409 406
f 397 400 410 409
f 400 403 411 410
f 407 406 412 413
f 413 412 414 415
f 407 413 415 408
f 406 409 416 412
f 412 416 417 414
f 409 410 418 416
f 416 418 419 417
f 410 411 420 418
f 418 420 421 419
f 393 422 423 394
f 393 395 424 422
f 394 423 425 398
f 398 425 426 401
f 401 426 427 404
f 404 427 428 405
f 395 408 429 424
f 405 428 430 431
f 415 414 432 433
f 408 415 433 429
f 414 417 434 432
f 417 419 435 434
f 419 421 436 435
f 431 430 436 421
f 437 438 439 440
f 422 437 440 423
f 422 424 438 437
f 440 439 441 442
f 423 440 442 425
f 442 441 443 444
f 425 442 444 426
f 444 443 445 446
f 426 444 446 427
f 427 446 445 428
f 438 447 448 439
f 424 429 447 438
f 439 448 449 441
f 441 449 450 443
f 443 450 451 445
f 428 445 451 430
f 447 452 453 448
f 433 432 453 452
f 429 433 452 447
f 448 453 454 449
f 432 434 454 453
f 449 454 302 450
f 434 435 302 454
f 450 302 303 451
f 435 436 303 302
f 430 451 303 436
f 455 456 87 86
f 455 457 458 456
f 455 86 115 457
f 456 459 88 87
f 456 458 460 459
f 459 461 89 88
f 459 460 462 461
f 461 309 313 89
f 461 462 321 309
f 89 313 317 90
f 90 317 463 101
f 101 463 213 125
f 317 215 213 463
f 457 464 465 458
f 457 115 196 464
f 458 465 466 460
f 460 466 467 462
f 462 467 323 321
f 468 230 232 469
f 464 468 469 465
f 464 196 230 468
f 469 232 234 470
f 465 469 470 466
f 470 234 236 471
f 466 470 471 467
f 471 236 238 472
f 467 471 472 323
f 323 472 238 241
f 212 211 473 272
f 211 214 474 473
f 214 218 475 474
f 218 220 476 475
f 220 257 477 476
f 475 476 478 479
f 476 477 480 478
f 479 478 481 482
f 482 481 483 484
f 478 480 483 481
f 253 485 486 254
f 253 275 487 485
f 254 486 488 255
f 255 488 489 256
f 256 489 490 257
f 257 490 491 477
f 477 491 492 480
f 484 483 493 494
f 480 492 493 483
f 495 496 497 498
f 485 495 498 486
f 485 487 496 495
f 498 497 499 500
f 486 498 500 488
f 500 499 501 502
f 488 500 502 489
f 502 501 503 504
f 489 502 504 490
f 490 504 503 491
f 496 505 506 497
f 487 507 505 496
f 497 506 508 499
f 499 508 509 501
f 501 509 510 503
f 491 503 510 492
f 505 511 512 506
f 513 514 512 511
f 507 513 511 505
f 506 512 515 508
f 514 516 515 512
f 508 515 517 509
f 516 494 517 515
f 509 517 518 510
f 494 493 518 517
f 492 510 518 493
f 519 520 521 522
f 519 523 524 520
f 519 522 525 523
f 520 526 527 521
f 520 524 528 526
f 526 529 530 527
f 526 528 531 529
f 529 532 533 530
f 529 531 534 532
f 532 534 535 533
f 522 521 536 537
f 522 537 538 525
f 521 527 539 536
f 527 530 540 539
f 530 533 541 540
f 533 535 542 541
f 537 536 543 544
f 544 543 545 546
f 537 544 546 538
f 536 539 547 543
f 543 547 548 545
f 539 540 549 547
f 547 549 550 548
f 540 541 551 549
f 549 551 552 550
f 541 542 552 551
f 523 553 554 524
f 523 525 555 553
f 524 554 556 528
f 528 556 327 531
f 531 327 326 534
f 534 326 557 535
f 525 538 558 555
f 535 557 559 542
f 546 545 560 561
f 538 546 561 558
f 545 548 562 560
f 548 550 563 562
f 550 552 564 563
f 542 559 564 552
f 553 277 276 554
f 553 555 282 277
f 276 281 565 566
f 554 276 566 556
f 566 565 567 329
f 556 566 329 327
f 329 567 568 328
f 326 328 568 557
f 555 558 284 282
f 281 285 569 565
f 565 569 570 567
f 567 570 571 568
f 557 568 571 559
f 284 572 573 285
f 561 560 573 572
f 558 561 572 284
f 285 573 574 569
f 560 562 574 573
f 569 574 575 570
f 562 563 575 574
f 570 575 576 571
f 563 564 576 575
f 559 571 576 564
f 271 270 577 578
f 271 578 579 273
f 270 580 581 577
f 270 272 473 580
f 580 582 583 581
f 580 473 474 582
f 582 584 585 583
f 582 474 475 584
f 584 475 479 585
f 578 577 586 587
f 578 587 588 579
f 577 581 589 586
f 581 583 590 589
f 583 585 591 590
f 585 479 482 591
f 587 586 592 593
f 593 592 594 595
f 587 593 595 588
f 586 589 596 592
f 592 596 597 594
f 589 590 598 596
f 596 598 599 597
f 590 591 600 598
f 598 600 601 599
f 591 482 601 600
f 273 579 602 274
f 579 588 603 602
f 595 594 604 605
f 588 595 605 603
f 594 597 606 604
f 597 599 607 606
f 599 601 608 607
f 482 484 608 601
f 609 610 507 487
f 274 609 487 275
f 274 602 610 609
f 610 611 513 507
f 602 603 611 610
f 611 612 613 513
f 605 604 613 612
f 603 605 612 611
f 513 613 614 514
f 604 606 614 613
f 514 614 615 516
f 606 607 615 614
f 516 615 616 494
f 607 608 616 615
f 484 494 616 608
usemtl c4
f 280 617 618 286
f 280 291 619 617
f 617 620 621 618
f 617 619 622 620
f 620 623 624 621
f 620 622 625 623
f 623 626 627 624
f 623 625 628 626
f 626 628 629 627
f 286 618 630 631
f 286 631 632 293
f 618 621 633 630
f 621 624 634 633
f 624 627 635 634
f 627 629 636 635
f 631 630 637 638
f 638 637 639 640
f 631 638 640 632
f 630 633 641 637
f 637 641 642 639
f 633 634 643 641
f 641 643 644 642
f 634 635 645 643
f 643 645 646 644
f 635 636 646 645
f 291 299 647 619
f 619 647 648 622
f 622 648 649 625
f 625 649 650 628
f 628 650 651 629
f 293 632 652 301
f 629 651 653 636
f 640 639 654 655
f 632 640 655 652
f 639 642 656 654
f 642 644 657 656
f 644 646 658 657
f 636 653 658 646
f 659 660 661 662
f 299 659 662 647
f 299 301 660 659
f 662 661 663 664
f 647 662 664 648
f 664 663 665 666
f 648 664 666 649
f 666 665 667 668
f 649 666 668 650
f 650 668 667 651
f 660 669 670 661
f 301 652 669 660
f 661 670 671 663
f 663 671 672 665
f 665 672 673 667
f 651 667 673 653
f 669 674 675 670
f 655 654 675 674
f 652 655 674 669
f 670 675 676 671
f 654 656 676 675
f 671 676 677 672
f 656 657 677 676
f 672 677 678 673
f 657 658 678 677
f 653 673 678 658
f 679 680 681 682
f 679 683 684 680
f 679 682 685 683
f 680 686 687 681
f 680 684 688 686
f 686 689 690 687
f 686 688 691 689
f 689 692 693 690
f 689 691 694 692
f 692 694 695 693
f 682 681 696 697
f 682 697 698 685
f 681 687 699 696
f 687 690 700 699
f 690 693 701 700
f 693 695 702 701
f 697 696 703 704
f 704 703 705 706
f 697 704 706 698
f 696 699 707 703
f 703 707 708 705
f 699 700 709 707
f 707 709 710 708
f 700 701 711 709
f 709 711 712 710
f 701 702 712 711
f 683 403 713 684
f 683 685 411 403
f 684 713 714 688
f 688 714 715 691
f 691 715 716 694
f 694 716 717 695
f 685 698 420 411
f 695 717 718 702
f 706 705 719 720
f 698 706 720 420
f 705 708 721 719
f 708 710 722 721
f 710 712 723 722
f 702 718 723 712
f 405 431 724 725
f 403 405 725 713
f 725 724 726 727
f 713 725 727 714
f 727 726 728 729
f 714 727 729 715
f 729 728 730 731
f 715 729 731 716
f 716 731 730 717
f 431 421 732 724
f 724 732 733 726
f 726 733 734 728
f 728 734 735 730
f 717 730 735 718
f 421 736 737 732
f 720 719 737 736
f 420 720 736 421
f 732 737 738 733
f 719 721 738 737
f 733 738 739 734
f 721 722 739 738
f 734 739 740 735
f 722 723 740 739
f 718 735 740 723
