# generado por tools/vox_to_obj.py desde pollito_v1.vox
mtllib pollito_v1.mtl
v -2.0000 2.0000 2.0000
v -2.0000 3.0000 2.0000
v -2.0000 3.0000 1.0000
v -2.0000 2.0000 1.0000
v -1.0000 2.0000 2.0000
v -1.0000 3.0000 2.0000
v -1.0000 2.0000 1.0000
v -2.0000 4.0000 2.0000
v -2.0000 4.0000 1.0000
v -1.0000 4.0000 2.0000
v -1.0000 4.0000 1.0000
v -2.0000 3.0000 0.0000
v -2.0000 2.0000 0.0000
v -1.0000 2.0000 0.0000
v -2.0000 5.0000 1.0000
v -2.0000 5.0000 0.0000
v -2.0000 4.0000 0.0000
v -1.0000 5.0000 1.0000
v -1.0000 5.0000 0.0000
v -2.0000 3.0000 -1.0000
v -2.0000 2.0000 -1.0000
v -1.0000 2.0000 -1.0000
v -2.0000 5.0000 -1.0000
v -2.0000 4.0000 -1.0000
v -1.0000 5.0000 -1.0000
v -1.0000 4.0000 -1.0000
v -2.0000 3.0000 -2.0000
v -2.0000 2.0000 -2.0000
v -1.0000 3.0000 -2.0000
v -1.0000 2.0000 -2.0000
v -2.0000 4.0000 -2.0000
v -1.0000 4.0000 -2.0000
v 0.0000 2.0000 2.0000
v 0.0000 3.0000 2.0000
v 0.0000 2.0000 1.0000
v 0.0000 4.0000 2.0000
v -1.0000 5.0000 2.0000
v 0.0000 5.0000 2.0000
v 0.0000 5.0000 1.0000
v 0.0000 2.0000 -1.0000
v 0.0000 2.0000 0.0000
v 0.0000 3.0000 -2.0000
v 0.0000 2.0000 -2.0000
v 0.0000 4.0000 -2.0000
v -1.0000 5.0000 -2.0000
v 0.0000 5.0000 -2.0000
v 1.0000 2.0000 2.0000
v 1.0000 3.0000 2.0000
v 1.0000 2.0000 1.0000
v 1.0000 4.0000 2.0000
v 1.0000 4.0000 1.0000
v 1.0000 5.0000 1.0000
v 1.0000 5.0000 2.0000
v 1.0000 2.0000 0.0000
v 1.0000 2.0000 -1.0000
v 1.0000 3.0000 -2.0000
v 1.0000 2.0000 -2.0000
v 1.0000 4.0000 -2.0000
v 1.0000 4.0000 -1.0000
v 1.0000 5.0000 -2.0000
v 1.0000 5.0000 -1.0000
v 2.0000 2.0000 2.0000
v 2.0000 2.0000 1.0000
v 2.0000 3.0000 1.0000
v 2.0000 3.0000 2.0000
v 2.0000 4.0000 1.0000
v 2.0000 4.0000 2.0000
v 2.0000 2.0000 0.0000
v 2.0000 3.0000 0.0000
v 2.0000 4.0000 0.0000
v 2.0000 5.0000 0.0000
v 2.0000 5.0000 1.0000
v 2.0000 2.0000 -1.0000
v 2.0000 3.0000 -1.0000
v 2.0000 4.0000 -1.0000
v 2.0000 5.0000 -1.0000
v 2.0000 2.0000 -2.0000
v 2.0000 3.0000 -2.0000
v 2.0000 4.0000 -2.0000
v -1.0000 6.0000 1.0000
v -1.0000 6.0000 0.0000
v 0.0000 6.0000 1.0000
v -1.0000 7.0000 1.0000
v -1.0000 7.0000 0.0000
v 0.0000 7.0000 1.0000
v -1.0000 8.0000 1.0000
v -1.0000 8.0000 0.0000
v 0.0000 8.0000 1.0000
v 0.0000 8.0000 0.0000
v -1.0000 6.0000 -1.0000
v -1.0000 7.0000 -1.0000
v -1.0000 8.0000 -1.0000
v 0.0000 8.0000 -1.0000
v -1.0000 6.0000 -2.0000
v 0.0000 6.0000 -2.0000
v -1.0000 7.0000 -2.0000
v 0.0000 7.0000 -2.0000
v -1.0000 8.0000 -2.0000
v 0.0000 8.0000 -2.0000
v 1.0000 6.0000 1.0000
v 1.0000 7.0000 1.0000
v 1.0000 8.0000 1.0000
v 1.0000 8.0000 0.0000
v 1.0000 8.0000 -1.0000
v 1.0000 6.0000 -2.0000
v 1.0000 7.0000 -2.0000
v 1.0000 8.0000 -2.0000
v 2.0000 6.0000 0.0000
v 2.0000 6.0000 1.0000
v 2.0000 7.0000 0.0000
v 2.0000 7.0000 1.0000
v 2.0000 8.0000 0.0000
v 2.0000 8.0000 1.0000
v 2.0000 6.0000 -1.0000
v 2.0000 7.0000 -1.0000
v 2.0000 8.0000 -1.0000
v 2.0000 5.0000 -2.0000
v 2.0000 6.0000 -2.0000
v 2.0000 7.0000 -2.0000
v 2.0000 8.0000 -2.0000
v -3.0000 3.0000 1.0000
v -3.0000 4.0000 1.0000
v -3.0000 4.0000 0.0000
v -3.0000 3.0000 0.0000
v -3.0000 4.0000 -1.0000
v -3.0000 3.0000 -1.0000
v -3.0000 4.0000 -2.0000
v -3.0000 3.0000 -2.0000
v 3.0000 3.0000 1.0000
v 3.0000 3.0000 0.0000
v 3.0000 4.0000 0.0000
v 3.0000 4.0000 1.0000
v 3.0000 3.0000 -1.0000
v 3.0000 4.0000 -1.0000
v 3.0000 3.0000 -2.0000
v 3.0000 4.0000 -2.0000
v 1.0000 6.0000 2.0000
v 1.0000 7.0000 2.0000
v 0.0000 6.0000 2.0000
v 0.0000 7.0000 2.0000
v 0.0000 0.0000 1.0000
v 0.0000 0.0000 0.0000
v 0.0000 1.0000 0.0000
v 0.0000 1.0000 1.0000
v -1.0000 0.0000 0.0000
v -1.0000 1.0000 0.0000
v -1.0000 0.0000 1.0000
v -1.0000 1.0000 1.0000
v 1.0000 0.0000 1.0000
v 1.0000 1.0000 1.0000
v 1.0000 1.0000 0.0000
v 1.0000 0.0000 0.0000
v 2.0000 1.0000 0.0000
v 2.0000 0.0000 0.0000
v 2.0000 0.0000 1.0000
v 2.0000 1.0000 1.0000
v -2.0000 0.0000 1.0000
v -2.0000 1.0000 1.0000
v -2.0000 1.0000 0.0000
v -2.0000 0.0000 0.0000
v 3.0000 0.0000 1.0000
v 3.0000 0.0000 0.0000
v 3.0000 1.0000 0.0000
v 3.0000 1.0000 1.0000
usemtl c2
f 137 100 101 138
f 139 140 85 82
f 139 137 138 140
f 140 138 101 85
f 139 82 100 137
usemtl c4
f 141 142 143 144
f 145 146 143 142
f 147 141 144 148
f 147 145 142 141
f 144 143 41 35
f 148 7 14 146
f 146 14 41 143
f 148 144 35 7
f 149 150 151 152
f 152 151 153 154
f 149 155 156 150
f 149 152 154 155
f 156 153 68 63
f 150 49 54 151
f 151 54 68 153
f 150 156 63 49
f 157 158 159 160
f 160 159 146 145
f 157 147 148 158
f 158 148 146 159
f 157 160 145 147
f 161 162 163 164
f 154 153 163 162
f 155 161 164 156
f 156 164 163 153
f 155 154 162 161
usemtl c5
f 80 83 84 81
f 80 82 85 83
f 109 108 110 111
f 100 109 111 101
usemtl c8
f 1 2 3 4
f 1 5 6 2
f 1 4 7 5
f 2 8 9 3
f 2 6 10 8
f 8 10 11 9
f 4 3 12 13
f 4 13 14 7
f 9 15 16 17
f 9 11 18 15
f 15 18 19 16
f 13 12 20 21
f 13 21 22 14
f 17 16 23 24
f 24 23 25 26
f 16 19 25 23
f 21 20 27 28
f 28 27 29 30
f 21 28 30 22
f 27 31 32 29
f 24 26 32 31
f 5 33 34 6
f 5 7 35 33
f 6 34 36 10
f 10 37 18 11
f 10 36 38 37
f 37 38 39 18
f 14 22 40 41
f 30 29 42 43
f 22 30 43 40
f 29 32 44 42
f 26 25 45 32
f 32 45 46 44
f 33 47 48 34
f 33 35 49 47
f 34 48 50 36
f 50 51 52 53
f 36 50 53 38
f 38 53 52 39
f 35 41 54 49
f 41 40 55 54
f 43 42 56 57
f 40 43 57 55
f 42 44 58 56
f 59 58 60 61
f 44 46 60 58
f 62 63 64 65
f 47 62 65 48
f 47 49 63 62
f 65 64 66 67
f 48 65 67 50
f 50 67 66 51
f 63 68 69 64
f 66 70 71 72
f 51 66 72 52
f 68 73 74 69
f 54 55 73 68
f 70 75 76 71
f 59 61 76 75
f 73 77 78 74
f 57 56 78 77
f 55 57 77 73
f 56 58 79 78
f 59 75 79 58
f 18 80 81 19
f 18 39 82 80
f 83 86 87 84
f 83 85 88 86
f 86 88 89 87
f 19 81 90 25
f 81 84 91 90
f 84 87 92 91
f 87 89 93 92
f 25 90 94 45
f 45 94 95 46
f 90 91 96 94
f 94 96 97 95
f 91 92 98 96
f 96 98 99 97
f 92 93 99 98
f 39 52 100 82
f 85 101 102 88
f 88 102 103 89
f 89 103 104 93
f 46 95 105 60
f 95 97 106 105
f 97 99 107 106
f 93 104 107 99
f 72 71 108 109
f 52 72 109 100
f 111 110 112 113
f 101 111 113 102
f 102 113 112 103
f 71 76 114 108
f 108 114 115 110
f 110 115 116 112
f 103 112 116 104
f 76 117 118 114
f 60 105 118 117
f 61 60 117 76
f 114 118 119 115
f 105 106 119 118
f 115 119 120 116
f 106 107 120 119
f 104 116 120 107
f 121 122 123 124
f 121 3 9 122
f 122 9 17 123
f 121 124 12 3
f 124 123 125 126
f 123 17 24 125
f 124 126 20 12
f 126 125 127 128
f 128 127 31 27
f 125 24 31 127
f 126 128 27 20
f 129 130 131 132
f 64 129 132 66
f 66 132 131 70
f 64 69 130 129
f 130 133 134 131
f 70 131 134 75
f 69 74 133 130
f 133 135 136 134
f 78 79 136 135
f 75 134 136 79
f 74 78 135 133
