# generado por tools/vox_to_obj.py desde pollito_v2.vox
mtllib pollito_v2.mtl
v -3.0000 3.0000 2.5000
v -3.0000 4.0000 2.5000
v -3.0000 4.0000 1.5000
v -3.0000 3.0000 1.5000
v -2.0000 3.0000 2.5000
v -2.0000 4.0000 2.5000
v -2.0000 3.0000 1.5000
v -3.0000 5.0000 2.5000
v -3.0000 5.0000 1.5000
v -3.0000 6.0000 2.5000
v -3.0000 6.0000 1.5000
v -3.0000 7.0000 2.5000
v -3.0000 7.0000 1.5000
v -2.0000 6.0000 2.5000
v -2.0000 7.0000 2.5000
v -2.0000 7.0000 1.5000
v -3.0000 4.0000 0.5000
v -3.0000 3.0000 0.5000
v -2.0000 3.0000 0.5000
v -3.0000 5.0000 0.5000
v -3.0000 6.0000 0.5000
v -3.0000 7.0000 0.5000
v -2.0000 7.0000 0.5000
v -3.0000 4.0000 -0.5000
v -3.0000 3.0000 -0.5000
v -2.0000 3.0000 -0.5000
v -3.0000 5.0000 -0.5000
v -3.0000 6.0000 -0.5000
v -3.0000 7.0000 -0.5000
v -2.0000 7.0000 -0.5000
v -3.0000 4.0000 -1.5000
v -3.0000 3.0000 -1.5000
v -2.0000 3.0000 -1.5000
v -3.0000 5.0000 -1.5000
v -3.0000 6.0000 -1.5000
v -3.0000 7.0000 -1.5000
v -2.0000 7.0000 -1.5000
v -3.0000 4.0000 -2.5000
v -3.0000 3.0000 -2.5000
v -2.0000 4.0000 -2.5000
v -2.0000 3.0000 -2.5000
v -3.0000 5.0000 -2.5000
v -3.0000 6.0000 -2.5000
v -3.0000 7.0000 -2.5000
v -2.0000 7.0000 -2.5000
v -2.0000 6.0000 -2.5000
v -1.0000 3.0000 2.5000
v -1.0000 4.0000 2.5000
v -1.0000 3.0000 1.5000
v -1.0000 6.0000 2.5000
v -1.0000 7.0000 2.5000
v -1.0000 3.0000 0.5000
v -1.0000 3.0000 -0.5000
v -1.0000 3.0000 -1.5000
v -1.0000 4.0000 -2.5000
v -1.0000 3.0000 -2.5000
v -1.0000 7.0000 -2.5000
v -1.0000 6.0000 -2.5000
v -1.0000 7.0000 -1.5000
v 0.0000 3.0000 2.5000
v 0.0000 4.0000 2.5000
v 0.0000 3.0000 1.5000
v 0.0000 6.0000 2.5000
v 0.0000 7.0000 2.5000
v 0.0000 3.0000 0.5000
v 0.0000 3.0000 -1.5000
v 0.0000 3.0000 -0.5000
v 0.0000 4.0000 -2.5000
v 0.0000 3.0000 -2.5000
v 0.0000 7.0000 -2.5000
v 0.0000 6.0000 -2.5000
v 0.0000 7.0000 -1.5000
v 1.0000 3.0000 2.5000
v 1.0000 4.0000 2.5000
v 1.0000 3.0000 1.5000
v 1.0000 6.0000 2.5000
v 1.0000 7.0000 2.5000
v 1.0000 3.0000 0.5000
v 1.0000 3.0000 -0.5000
v 1.0000 3.0000 -1.5000
v 1.0000 4.0000 -2.5000
v 1.0000 3.0000 -2.5000
v 1.0000 7.0000 -2.5000
v 1.0000 6.0000 -2.5000
v 1.0000 7.0000 -1.5000
v 2.0000 3.0000 2.5000
v 2.0000 4.0000 2.5000
v 2.0000 3.0000 1.5000
v 2.0000 6.0000 2.5000
v 2.0000 7.0000 2.5000
v 2.0000 3.0000 0.5000
v 2.0000 3.0000 -1.5000
v 2.0000 3.0000 -0.5000
v 2.0000 4.0000 -2.5000
v 2.0000 3.0000 -2.5000
v 2.0000 7.0000 -2.5000
v 2.0000 6.0000 -2.5000
v 2.0000 7.0000 -1.5000
v 3.0000 3.0000 2.5000
v 3.0000 3.0000 1.5000
v 3.0000 4.0000 1.5000
v 3.0000 4.0000 2.5000
v 3.0000 5.0000 1.5000
v 3.0000 5.0000 2.5000
v 3.0000 6.0000 1.5000
v 3.0000 6.0000 2.5000
v 3.0000 7.0000 1.5000
v 3.0000 7.0000 2.5000
v 2.0000 7.0000 1.5000
v 3.0000 3.0000 0.5000
v 3.0000 4.0000 0.5000
v 3.0000 5.0000 0.5000
v 3.0000 6.0000 0.5000
v 3.0000 7.0000 0.5000
v 2.0000 7.0000 0.5000
v 3.0000 3.0000 -0.5000
v 3.0000 4.0000 -0.5000
v 3.0000 5.0000 -0.5000
v 3.0000 6.0000 -0.5000
v 3.0000 7.0000 -0.5000
v 2.0000 7.0000 -0.5000
v 3.0000 3.0000 -1.5000
v 3.0000 4.0000 -1.5000
v 3.0000 5.0000 -1.5000
v 3.0000 6.0000 -1.5000
v 3.0000 7.0000 -1.5000
v 3.0000 3.0000 -2.5000
v 3.0000 4.0000 -2.5000
v 3.0000 5.0000 -2.5000
v 3.0000 6.0000 -2.5000
v 3.0000 7.0000 -2.5000
v -2.0000 8.0000 2.5000
v -2.0000 8.0000 1.5000
v -1.0000 8.0000 2.5000
v -2.0000 9.0000 2.5000
v -2.0000 9.0000 1.5000
v -1.0000 9.0000 2.5000
v -2.0000 10.0000 2.5000
v -2.0000 10.0000 1.5000
v -2.0000 11.0000 2.5000
v -2.0000 11.0000 1.5000
v -1.0000 10.0000 2.5000
v -1.0000 11.0000 2.5000
v -1.0000 11.0000 1.5000
v -2.0000 8.0000 0.5000
v -2.0000 9.0000 0.5000
v -2.0000 10.0000 0.5000
v -2.0000 11.0000 0.5000
v -1.0000 11.0000 0.5000
v -2.0000 8.0000 -0.5000
v -2.0000 9.0000 -0.5000
v -2.0000 10.0000 -0.5000
v -2.0000 11.0000 -0.5000
v -1.0000 11.0000 -0.5000
v -2.0000 8.0000 -1.5000
v -1.0000 8.0000 -1.5000
v -2.0000 9.0000 -1.5000
v -1.0000 9.0000 -1.5000
v -2.0000 10.0000 -1.5000
v -1.0000 10.0000 -1.5000
v -2.0000 11.0000 -1.5000
v -1.0000 11.0000 -1.5000
v 0.0000 8.0000 2.5000
v 0.0000 9.0000 2.5000
v 0.0000 10.0000 2.5000
v 0.0000 11.0000 2.5000
v 0.0000 11.0000 1.5000
v 0.0000 11.0000 0.5000
v 0.0000 11.0000 -0.5000
v 0.0000 8.0000 -1.5000
v 0.0000 9.0000 -1.5000
v 0.0000 10.0000 -1.5000
v 0.0000 11.0000 -1.5000
v 1.0000 8.0000 2.5000
v 1.0000 9.0000 2.5000
v 1.0000 10.0000 2.5000
v 1.0000 11.0000 2.5000
v 1.0000 11.0000 1.5000
v 1.0000 11.0000 0.5000
v 1.0000 11.0000 -0.5000
v 1.0000 8.0000 -1.5000
v 1.0000 9.0000 -1.5000
v 1.0000 10.0000 -1.5000
v 1.0000 11.0000 -1.5000
v 2.0000 8.0000 1.5000
v 2.0000 8.0000 2.5000
v 2.0000 9.0000 1.5000
v 2.0000 9.0000 2.5000
v 2.0000 10.0000 1.5000
v 2.0000 10.0000 2.5000
v 2.0000 11.0000 1.5000
v 2.0000 11.0000 2.5000
v 2.0000 8.0000 0.5000
v 2.0000 9.0000 0.5000
v 2.0000 10.0000 0.5000
v 2.0000 11.0000 0.5000
v 2.0000 8.0000 -0.5000
v 2.0000 9.0000 -0.5000
v 2.0000 10.0000 -0.5000
v 2.0000 11.0000 -0.5000
v 2.0000 8.0000 -1.5000
v 2.0000 9.0000 -1.5000
v 2.0000 10.0000 -1.5000
v 2.0000 11.0000 -1.5000
v -1.0000 9.0000 3.5000
v -1.0000 10.0000 3.5000
v -2.0000 9.0000 3.5000
v -2.0000 10.0000 3.5000
v 2.0000 9.0000 3.5000
v 2.0000 10.0000 3.5000
v 1.0000 9.0000 3.5000
v 1.0000 10.0000 3.5000
v -1.0000 8.0000 3.5000
v 0.0000 8.0000 3.5000
v 0.0000 9.0000 3.5000
v 1.0000 8.0000 3.5000
v -1.0000 12.0000 1.5000
v -1.0000 12.0000 0.5000
v 0.0000 12.0000 0.5000
v 0.0000 12.0000 1.5000
v -1.0000 13.0000 1.5000
v -1.0000 13.0000 0.5000
v 0.0000 13.0000 0.5000
v 0.0000 13.0000 1.5000
v 1.0000 12.0000 0.5000
v 1.0000 12.0000 1.5000
v 1.0000 13.0000 0.5000
v 1.0000 13.0000 1.5000
v -3.0000 4.0000 3.5000
v -3.0000 5.0000 3.5000
v -2.0000 4.0000 3.5000
v -2.0000 5.0000 3.5000
v -3.0000 6.0000 3.5000
v -2.0000 6.0000 3.5000
v -1.0000 4.0000 3.5000
v -1.0000 5.0000 3.5000
v -1.0000 6.0000 3.5000
v 0.0000 4.0000 3.5000
v 0.0000 5.0000 3.5000
v 0.0000 6.0000 3.5000
v 1.0000 4.0000 3.5000
v 1.0000 5.0000 3.5000
v 1.0000 6.0000 3.5000
v 2.0000 4.0000 3.5000
v 2.0000 5.0000 3.5000
v 2.0000 6.0000 3.5000
v 3.0000 4.0000 3.5000
v 3.0000 5.0000 3.5000
v 3.0000 6.0000 3.5000
v -3.0000 5.0000 -3.5000
v -3.0000 4.0000 -3.5000
v -2.0000 5.0000 -3.5000
v -2.0000 4.0000 -3.5000
v -3.0000 6.0000 -3.5000
v -2.0000 6.0000 -3.5000
v -1.0000 5.0000 -3.5000
v -1.0000 4.0000 -3.5000
v -1.0000 6.0000 -3.5000
v 0.0000 5.0000 -3.5000
v 0.0000 4.0000 -3.5000
v 0.0000 6.0000 -3.5000
v 1.0000 5.0000 -3.5000
v 1.0000 4.0000 -3.5000
v 1.0000 6.0000 -3.5000
v 2.0000 5.0000 -3.5000
v 2.0000 4.0000 -3.5000
v 2.0000 6.0000 -3.5000
v 3.0000 4.0000 -3.5000
v 3.0000 5.0000 -3.5000
v 3.0000 6.0000 -3.5000
v 0.0000 0.0000 0.5000
v 0.0000 0.0000 -0.5000
v 0.0000 1.0000 -0.5000
v 0.0000 1.0000 0.5000
v -1.0000 0.0000 -0.5000
v -1.0000 1.0000 -0.5000
v -1.0000 0.0000 0.5000
v -1.0000 1.0000 0.5000
v 0.0000 2.0000 -0.5000
v 0.0000 2.0000 0.5000
v -1.0000 2.0000 0.5000
v -1.0000 2.0000 -0.5000
v 1.0000 0.0000 0.5000
v 1.0000 1.0000 0.5000
v 1.0000 1.0000 -0.5000
v 1.0000 0.0000 -0.5000
v 2.0000 1.0000 -0.5000
v 2.0000 0.0000 -0.5000
v 2.0000 0.0000 0.5000
v 2.0000 1.0000 0.5000
v 2.0000 2.0000 -0.5000
v 2.0000 2.0000 0.5000
v 1.0000 2.0000 0.5000
v 1.0000 2.0000 -0.5000
v -2.0000 0.0000 0.5000
v -2.0000 1.0000 0.5000
v -2.0000 1.0000 -0.5000
v -2.0000 0.0000 -0.5000
v 3.0000 0.0000 0.5000
v 3.0000 0.0000 -0.5000
v 3.0000 1.0000 -0.5000
v 3.0000 1.0000 0.5000
usemtl c1
f 1 2 3 4
f 1 5 6 2
f 1 4 7 5
f 2 8 9 3
f 8 10 11 9
f 10 12 13 11
f 10 14 15 12
f 12 15 16 13
f 4 3 17 18
f 4 18 19 7
f 3 9 20 17
f 9 11 21 20
f 11 13 22 21
f 13 16 23 22
f 18 17 24 25
f 18 25 26 19
f 17 20 27 24
f 20 21 28 27
f 21 22 29 28
f 22 23 30 29
f 25 24 31 32
f 25 32 33 26
f 24 27 34 31
f 27 28 35 34
f 28 29 36 35
f 29 30 37 36
f 32 31 38 39
f 39 38 40 41
f 32 39 41 33
f 31 34 42 38
f 34 35 43 42
f 35 36 44 43
f 43 44 45 46
f 36 37 45 44
f 5 47 48 6
f 5 7 49 47
f 14 50 51 15
f 7 19 52 49
f 19 26 53 52
f 26 33 54 53
f 41 40 55 56
f 33 41 56 54
f 46 45 57 58
f 37 59 57 45
f 47 60 61 48
f 47 49 62 60
f 50 63 64 51
f 49 52 65 62
f 53 54 66 67
f 56 55 68 69
f 54 56 69 66
f 58 57 70 71
f 59 72 70 57
f 60 73 74 61
f 60 62 75 73
f 63 76 77 64
f 62 65 78 75
f 65 67 79 78
f 67 66 80 79
f 69 68 81 82
f 66 69 82 80
f 71 70 83 84
f 72 85 83 70
f 73 86 87 74
f 73 75 88 86
f 76 89 90 77
f 75 78 91 88
f 79 80 92 93
f 82 81 94 95
f 80 82 95 92
f 84 83 96 97
f 85 98 96 83
f 99 100 101 102
f 86 99 102 87
f 86 88 100 99
f 102 101 103 104
f 104 103 105 106
f 106 105 107 108
f 89 106 108 90
f 90 108 107 109
f 100 110 111 101
f 88 91 110 100
f 101 111 112 103
f 105 113 114 107
f 109 107 114 115
f 110 116 117 111
f 91 93 116 110
f 111 117 118 112
f 112 118 119 113
f 113 119 120 114
f 115 114 120 121
f 116 122 123 117
f 93 92 122 116
f 117 123 124 118
f 118 124 125 119
f 119 125 126 120
f 121 120 126 98
f 122 127 128 123
f 95 94 128 127
f 92 95 127 122
f 123 128 129 124
f 124 129 130 125
f 125 130 131 126
f 97 96 131 130
f 98 126 131 96
f 15 132 133 16
f 15 51 134 132
f 132 135 136 133
f 132 134 137 135
f 135 138 139 136
f 138 140 141 139
f 138 142 143 140
f 140 143 144 141
f 16 133 145 23
f 133 136 146 145
f 136 139 147 146
f 139 141 148 147
f 141 144 149 148
f 23 145 150 30
f 145 146 151 150
f 146 147 152 151
f 147 148 153 152
f 148 149 154 153
f 30 150 155 37
f 37 155 156 59
f 150 151 157 155
f 155 157 158 156
f 151 152 159 157
f 157 159 160 158
f 152 153 161 159
f 159 161 162 160
f 153 154 162 161
f 137 164 165 142
f 142 165 166 143
f 143 166 167 144
f 149 168 169 154
f 59 156 170 72
f 156 158 171 170
f 158 160 172 171
f 160 162 173 172
f 154 169 173 162
f 64 77 174 163
f 164 175 176 165
f 165 176 177 166
f 166 177 178 167
f 168 179 180 169
f 72 170 181 85
f 170 171 182 181
f 171 172 183 182
f 172 173 184 183
f 169 180 184 173
f 90 109 185 186
f 77 90 186 174
f 186 185 187 188
f 174 186 188 175
f 188 187 189 190
f 190 189 191 192
f 176 190 192 177
f 177 192 191 178
f 109 115 193 185
f 185 193 194 187
f 187 194 195 189
f 189 195 196 191
f 178 191 196 179
f 115 121 197 193
f 193 197 198 194
f 194 198 199 195
f 195 199 200 196
f 179 196 200 180
f 121 98 201 197
f 85 181 201 98
f 197 201 202 198
f 181 182 202 201
f 198 202 203 199
f 182 183 203 202
f 199 203 204 200
f 183 184 204 203
f 180 200 204 184
f 229 230 8 2
f 229 231 232 230
f 229 2 6 231
f 230 233 10 8
f 230 232 234 233
f 233 234 14 10
f 231 235 236 232
f 231 6 48 235
f 232 236 237 234
f 234 237 50 14
f 235 238 239 236
f 235 48 61 238
f 236 239 240 237
f 237 240 63 50
f 238 241 242 239
f 238 61 74 241
f 239 242 243 240
f 240 243 76 63
f 241 244 245 242
f 241 74 87 244
f 242 245 246 243
f 243 246 89 76
f 248 104 106 249
f 245 248 249 246
f 246 249 106 89
f 38 42 250 251
f 251 250 252 253
f 38 251 253 40
f 42 43 254 250
f 250 254 255 252
f 43 46 255 254
f 253 252 256 257
f 40 253 257 55
f 252 255 258 256
f 46 58 258 255
f 257 256 259 260
f 55 257 260 68
f 256 258 261 259
f 58 71 261 258
f 260 259 262 263
f 68 260 263 81
f 259 261 264 262
f 71 84 264 261
f 263 262 265 266
f 81 263 266 94
f 262 264 267 265
f 84 97 267 264
f 129 269 270 130
f 265 267 270 269
f 97 130 270 267
usemtl c2
f 213 205 137 134
f 213 214 215 205
f 205 215 164 137
f 213 134 163 214
f 216 174 175 211
f 214 216 211 215
f 215 211 175 164
f 214 163 174 216
usemtl c3
f 51 64 163 134
f 144 217 218 149
f 149 218 219 168
f 144 167 220 217
f 217 221 222 218
f 218 222 223 219
f 217 220 224 221
f 221 224 223 222
f 178 179 225 226
f 168 219 225 179
f 167 178 226 220
f 226 225 227 228
f 219 223 227 225
f 220 226 228 224
f 224 228 227 223
usemtl c4
f 271 272 273 274
f 275 276 273 272
f 277 271 274 278
f 277 275 272 271
f 274 273 279 280
f 278 281 282 276
f 276 282 279 273
f 278 274 280 281
f 280 279 67 65
f 281 52 53 282
f 282 53 67 279
f 281 280 65 52
f 283 284 285 286
f 286 285 287 288
f 283 289 290 284
f 283 286 288 289
f 290 287 291 292
f 284 293 294 285
f 285 294 291 287
f 284 290 292 293
f 292 291 93 91
f 293 78 79 294
f 294 79 93 291
f 293 292 91 78
f 295 296 297 298
f 298 297 276 275
f 295 277 278 296
f 296 278 276 297
f 295 298 275 277
f 299 300 301 302
f 288 287 301 300
f 289 299 302 290
f 290 302 301 287
f 289 288 300 299
usemtl c5
f 205 137 142 206
f 207 208 138 135
f 207 205 206 208
f 208 206 142 138
f 207 135 137 205
f 209 188 190 210
f 211 212 176 175
f 211 209 210 212
f 212 210 190 176
f 211 175 188 209
usemtl c8
f 103 112 113 105
usemtl c10
f 247 102 104 248
f 244 247 248 245
f 244 87 102 247
f 128 268 269 129
f 266 265 269 268
f 94 266 268 128
