# generado por tools/vox_to_obj.py desde pollito_v3.vox
mtllib pollito_v3.mtl
v -4.5000 5.0000 3.0000
v -4.5000 6.0000 3.0000
v -4.5000 6.0000 2.0000
v -4.5000 5.0000 2.0000
v -3.5000 5.0000 3.0000
v -3.5000 6.0000 3.0000
v -3.5000 5.0000 2.0000
v -4.5000 7.0000 3.0000
v -4.5000 7.0000 2.0000
v -3.5000 7.0000 3.0000
v -4.5000 8.0000 3.0000
v -4.5000 8.0000 2.0000
v -3.5000 8.0000 3.0000
v -4.5000 9.0000 3.0000
v -4.5000 9.0000 2.0000
v -3.5000 9.0000 3.0000
v -3.5000 9.0000 2.0000
v -4.5000 4.0000 2.0000
v -4.5000 5.0000 1.0000
v -4.5000 4.0000 1.0000
v -3.5000 4.0000 2.0000
v -3.5000 4.0000 1.0000
v -4.5000 6.0000 1.0000
v -4.5000 7.0000 1.0000
v -4.5000 8.0000 1.0000
v -3.5000 10.0000 2.0000
v -4.5000 10.0000 2.0000
v -3.5000 10.0000 1.0000
v -4.5000 10.0000 1.0000
v -4.5000 5.0000 0.0000
v -4.5000 4.0000 0.0000
v -3.5000 4.0000 0.0000
v -4.5000 6.0000 0.0000
v -4.5000 7.0000 0.0000
v -4.5000 8.0000 0.0000
v -3.5000 10.0000 0.0000
v -4.5000 10.0000 0.0000
v -4.5000 5.0000 -1.0000
v -4.5000 4.0000 -1.0000
v -3.5000 4.0000 -1.0000
v -4.5000 6.0000 -1.0000
v -4.5000 7.0000 -1.0000
v -4.5000 8.0000 -1.0000
v -3.5000 10.0000 -1.0000
v -4.5000 10.0000 -1.0000
v -4.5000 5.0000 -2.0000
v -4.5000 4.0000 -2.0000
v -3.5000 4.0000 -2.0000
v -4.5000 6.0000 -2.0000
v -4.5000 7.0000 -2.0000
v -4.5000 8.0000 -2.0000
v -3.5000 10.0000 -2.0000
v -4.5000 10.0000 -2.0000
v -4.5000 5.0000 -3.0000
v -4.5000 4.0000 -3.0000
v -3.5000 4.0000 -3.0000
v -4.5000 6.0000 -3.0000
v -4.5000 7.0000 -3.0000
v -4.5000 8.0000 -3.0000
v -4.5000 9.0000 -3.0000
v -4.5000 10.0000 -3.0000
v -3.5000 10.0000 -3.0000
v -3.5000 9.0000 -3.0000
v -4.5000 5.0000 -4.0000
v -4.5000 4.0000 -4.0000
v -3.5000 5.0000 -4.0000
v -3.5000 4.0000 -4.0000
v -4.5000 6.0000 -4.0000
v -3.5000 6.0000 -4.0000
v -4.5000 7.0000 -4.0000
v -3.5000 7.0000 -4.0000
v -4.5000 8.0000 -4.0000
v -3.5000 8.0000 -4.0000
v -4.5000 9.0000 -4.0000
v -3.5000 9.0000 -4.0000
v -3.5000 4.0000 3.0000
v -2.5000 4.0000 3.0000
v -2.5000 5.0000 3.0000
v -2.5000 4.0000 2.0000
v -2.5000 6.0000 3.0000
v -2.5000 7.0000 3.0000
v -2.5000 8.0000 3.0000
v -2.5000 9.0000 3.0000
v -3.5000 10.0000 3.0000
v -2.5000 10.0000 3.0000
v -2.5000 10.0000 2.0000
v -2.5000 4.0000 1.0000
v -2.5000 10.0000 1.0000
v -2.5000 4.0000 0.0000
v -2.5000 10.0000 0.0000
v -2.5000 4.0000 -1.0000
v -2.5000 10.0000 -1.0000
v -2.5000 4.0000 -2.0000
v -2.5000 10.0000 -2.0000
v -2.5000 4.0000 -3.0000
v -2.5000 10.0000 -3.0000
v -2.5000 5.0000 -4.0000
v -2.5000 4.0000 -4.0000
v -2.5000 6.0000 -4.0000
v -2.5000 7.0000 -4.0000
v -2.5000 8.0000 -4.0000
v -2.5000 9.0000 -4.0000
v -3.5000 10.0000 -4.0000
v -2.5000 10.0000 -4.0000
v -1.5000 4.0000 3.0000
v -1.5000 5.0000 3.0000
v -1.5000 4.0000 2.0000
v -1.5000 9.0000 3.0000
v -1.5000 10.0000 3.0000
v -1.5000 10.0000 2.0000
v -1.5000 4.0000 1.0000
v -1.5000 10.0000 1.0000
v -1.5000 4.0000 0.0000
v -1.5000 10.0000 0.0000
v -1.5000 4.0000 -1.0000
v -1.5000 10.0000 -1.0000
v -1.5000 4.0000 -2.0000
v -1.5000 10.0000 -2.0000
v -1.5000 4.0000 -3.0000
v -1.5000 10.0000 -3.0000
v -1.5000 5.0000 -4.0000
v -1.5000 4.0000 -4.0000
v -1.5000 6.0000 -4.0000
v -1.5000 7.0000 -4.0000
v -1.5000 8.0000 -4.0000
v -1.5000 9.0000 -4.0000
v -1.5000 10.0000 -4.0000
v -0.5000 4.0000 3.0000
v -0.5000 5.0000 3.0000
v -0.5000 4.0000 2.0000
v -0.5000 9.0000 3.0000
v -0.5000 10.0000 3.0000
v -0.5000 4.0000 1.0000
v -0.5000 10.0000 2.0000
v -0.5000 10.0000 1.0000
v -0.5000 4.0000 0.0000
v -0.5000 4.0000 -2.0000
v -0.5000 4.0000 -1.0000
v -0.5000 10.0000 -1.0000
v -0.5000 10.0000 -2.0000
v -0.5000 4.0000 -3.0000
v -0.5000 10.0000 -3.0000
v -0.5000 5.0000 -4.0000
v -0.5000 4.0000 -4.0000
v -0.5000 6.0000 -4.0000
v -0.5000 7.0000 -4.0000
v -0.5000 8.0000 -4.0000
v -0.5000 9.0000 -4.0000
v -0.5000 10.0000 -4.0000
v 0.5000 4.0000 3.0000
v 0.5000 5.0000 3.0000
v 0.5000 4.0000 2.0000
v 0.5000 9.0000 3.0000
v 0.5000 10.0000 3.0000
v 0.5000 10.0000 2.0000
v 0.5000 4.0000 1.0000
v 0.5000 10.0000 1.0000
v 0.5000 4.0000 0.0000
v 0.5000 4.0000 -1.0000
v 0.5000 4.0000 -2.0000
v 0.5000 10.0000 -1.0000
v 0.5000 10.0000 -2.0000
v 0.5000 4.0000 -3.0000
v 0.5000 10.0000 -3.0000
v 0.5000 5.0000 -4.0000
v 0.5000 4.0000 -4.0000
v 0.5000 6.0000 -4.0000
v 0.5000 7.0000 -4.0000
v 0.5000 8.0000 -4.0000
v 0.5000 9.0000 -4.0000
v 0.5000 10.0000 -4.0000
v 1.5000 4.0000 3.0000
v 1.5000 5.0000 3.0000
v 1.5000 4.0000 2.0000
v 1.5000 9.0000 3.0000
v 1.5000 10.0000 3.0000
v 1.5000 10.0000 2.0000
v 1.5000 4.0000 1.0000
v 1.5000 10.0000 1.0000
v 1.5000 4.0000 0.0000
v 1.5000 10.0000 0.0000
v 0.5000 10.0000 0.0000
v 1.5000 4.0000 -1.0000
v 1.5000 10.0000 -1.0000
v 1.5000 4.0000 -2.0000
v 1.5000 10.0000 -2.0000
v 1.5000 4.0000 -3.0000
v 1.5000 10.0000 -3.0000
v 1.5000 5.0000 -4.0000
v 1.5000 4.0000 -4.0000
v 1.5000 6.0000 -4.0000
v 1.5000 7.0000 -4.0000
v 1.5000 8.0000 -4.0000
v 1.5000 9.0000 -4.0000
v 1.5000 10.0000 -4.0000
v 2.5000 4.0000 3.0000
v 2.5000 5.0000 3.0000
v 2.5000 4.0000 2.0000
v 2.5000 9.0000 3.0000
v 2.5000 10.0000 3.0000
v 2.5000 10.0000 2.0000
v 2.5000 4.0000 1.0000
v 2.5000 10.0000 1.0000
v 2.5000 4.0000 0.0000
v 2.5000 10.0000 0.0000
v 2.5000 10.0000 -1.0000
v 2.5000 4.0000 -2.0000
v 2.5000 4.0000 -1.0000
v 2.5000 10.0000 -2.0000
v 2.5000 4.0000 -3.0000
v 2.5000 10.0000 -3.0000
v 2.5000 5.0000 -4.0000
v 2.5000 4.0000 -4.0000
v 2.5000 6.0000 -4.0000
v 2.5000 7.0000 -4.0000
v 2.5000 8.0000 -4.0000
v 2.5000 9.0000 -4.0000
v 2.5000 10.0000 -4.0000
v 3.5000 4.0000 3.0000
v 3.5000 5.0000 3.0000
v 3.5000 4.0000 2.0000
v 3.5000 9.0000 3.0000
v 3.5000 10.0000 3.0000
v 3.5000 10.0000 2.0000
v 3.5000 4.0000 1.0000
v 3.5000 10.0000 1.0000
v 3.5000 4.0000 0.0000
v 3.5000 10.0000 0.0000
v 3.5000 4.0000 -1.0000
v 3.5000 10.0000 -1.0000
v 3.5000 4.0000 -2.0000
v 3.5000 10.0000 -2.0000
v 3.5000 4.0000 -3.0000
v 3.5000 10.0000 -3.0000
v 3.5000 5.0000 -4.0000
v 3.5000 4.0000 -4.0000
v 3.5000 6.0000 -4.0000
v 3.5000 7.0000 -4.0000
v 3.5000 8.0000 -4.0000
v 3.5000 9.0000 -4.0000
v 3.5000 10.0000 -4.0000
v 4.5000 4.0000 3.0000
v 4.5000 4.0000 2.0000
v 4.5000 5.0000 2.0000
v 4.5000 5.0000 3.0000
v 4.5000 6.0000 3.0000
v 3.5000 6.0000 3.0000
v 4.5000 7.0000 3.0000
v 3.5000 7.0000 3.0000
v 4.5000 8.0000 3.0000
v 3.5000 8.0000 3.0000
v 4.5000 9.0000 3.0000
v 4.5000 9.0000 2.0000
v 4.5000 10.0000 2.0000
v 4.5000 10.0000 3.0000
v 4.5000 4.0000 1.0000
v 4.5000 10.0000 1.0000
v 4.5000 4.0000 0.0000
v 4.5000 10.0000 0.0000
v 4.5000 4.0000 -1.0000
v 4.5000 10.0000 -1.0000
v 4.5000 4.0000 -2.0000
v 4.5000 10.0000 -2.0000
v 4.5000 4.0000 -3.0000
v 4.5000 10.0000 -3.0000
v 4.5000 5.0000 -4.0000
v 4.5000 4.0000 -4.0000
v 4.5000 6.0000 -4.0000
v 4.5000 7.0000 -4.0000
v 4.5000 8.0000 -4.0000
v 4.5000 9.0000 -4.0000
v 4.5000 9.0000 -3.0000
v 4.5000 10.0000 -4.0000
v 5.5000 5.0000 3.0000
v 5.5000 5.0000 2.0000
v 5.5000 6.0000 2.0000
v 5.5000 6.0000 3.0000
v 5.5000 7.0000 2.0000
v 5.5000 7.0000 3.0000
v 5.5000 8.0000 2.0000
v 5.5000 8.0000 3.0000
v 5.5000 9.0000 2.0000
v 5.5000 9.0000 3.0000
v 5.5000 4.0000 2.0000
v 5.5000 4.0000 1.0000
v 5.5000 5.0000 1.0000
v 5.5000 6.0000 1.0000
v 5.5000 7.0000 1.0000
v 5.5000 8.0000 1.0000
v 5.5000 9.0000 1.0000
v 5.5000 10.0000 1.0000
v 5.5000 10.0000 2.0000
v 5.5000 4.0000 0.0000
v 5.5000 5.0000 0.0000
v 5.5000 6.0000 0.0000
v 5.5000 7.0000 0.0000
v 5.5000 8.0000 0.0000
v 5.5000 9.0000 0.0000
v 5.5000 10.0000 0.0000
v 5.5000 4.0000 -1.0000
v 5.5000 5.0000 -1.0000
v 5.5000 6.0000 -1.0000
v 5.5000 7.0000 -1.0000
v 5.5000 8.0000 -1.0000
v 5.5000 9.0000 -1.0000
v 5.5000 10.0000 -1.0000
v 5.5000 4.0000 -2.0000
v 5.5000 5.0000 -2.0000
v 5.5000 6.0000 -2.0000
v 5.5000 7.0000 -2.0000
v 5.5000 8.0000 -2.0000
v 5.5000 9.0000 -2.0000
v 5.5000 10.0000 -2.0000
v 5.5000 4.0000 -3.0000
v 5.5000 5.0000 -3.0000
v 5.5000 6.0000 -3.0000
v 5.5000 7.0000 -3.0000
v 5.5000 8.0000 -3.0000
v 5.5000 9.0000 -3.0000
v 5.5000 10.0000 -3.0000
v 5.5000 4.0000 -4.0000
v 5.5000 5.0000 -4.0000
v 5.5000 6.0000 -4.0000
v 5.5000 7.0000 -4.0000
v 5.5000 8.0000 -4.0000
v 5.5000 9.0000 -4.0000
v -2.5000 5.0000 4.0000
v -2.5000 6.0000 4.0000
v -1.5000 5.0000 4.0000
v -1.5000 6.0000 4.0000
v -2.5000 7.0000 4.0000
v -1.5000 7.0000 4.0000
v -2.5000 8.0000 4.0000
v -1.5000 8.0000 4.0000
v -2.5000 9.0000 4.0000
v -1.5000 9.0000 4.0000
v -0.5000 5.0000 4.0000
v -0.5000 6.0000 4.0000
v -0.5000 7.0000 4.0000
v -0.5000 8.0000 4.0000
v -0.5000 9.0000 4.0000
v 0.5000 5.0000 4.0000
v 0.5000 6.0000 4.0000
v 0.5000 7.0000 4.0000
v 0.5000 8.0000 4.0000
v 0.5000 9.0000 4.0000
v 1.5000 5.0000 4.0000
v 1.5000 6.0000 4.0000
v 1.5000 7.0000 4.0000
v 1.5000 8.0000 4.0000
v 1.5000 9.0000 4.0000
v 2.5000 5.0000 4.0000
v 2.5000 6.0000 4.0000
v 2.5000 7.0000 4.0000
v 2.5000 8.0000 4.0000
v 2.5000 9.0000 4.0000
v 3.5000 5.0000 4.0000
v 3.5000 6.0000 4.0000
v 3.5000 7.0000 4.0000
v 3.5000 8.0000 4.0000
v 3.5000 9.0000 4.0000
v -1.5000 11.0000 1.0000
v -1.5000 11.0000 0.0000
v -0.5000 11.0000 1.0000
v -1.5000 11.0000 -1.0000
v -0.5000 11.0000 -1.0000
v 0.5000 11.0000 0.0000
v 0.5000 11.0000 1.0000
v 0.5000 11.0000 -1.0000
v -3.5000 11.0000 2.0000
v -3.5000 12.0000 2.0000
v -3.5000 12.0000 1.0000
v -3.5000 11.0000 1.0000
v -2.5000 11.0000 2.0000
v -2.5000 12.0000 2.0000
v -2.5000 11.0000 1.0000
v -3.5000 13.0000 2.0000
v -3.5000 13.0000 1.0000
v -2.5000 13.0000 2.0000
v -3.5000 14.0000 2.0000
v -3.5000 14.0000 1.0000
v -2.5000 14.0000 2.0000
v -3.5000 15.0000 2.0000
v -3.5000 15.0000 1.0000
v -2.5000 15.0000 2.0000
v -3.5000 16.0000 2.0000
v -3.5000 16.0000 1.0000
v -2.5000 16.0000 2.0000
v -2.5000 16.0000 1.0000
v -3.5000 12.0000 0.0000
v -3.5000 11.0000 0.0000
v -2.5000 11.0000 0.0000
v -3.5000 13.0000 0.0000
v -3.5000 14.0000 0.0000
v -3.5000 15.0000 0.0000
v -3.5000 16.0000 0.0000
v -2.5000 16.0000 0.0000
v -3.5000 12.0000 -1.0000
v -3.5000 11.0000 -1.0000
v -2.5000 11.0000 -1.0000
v -3.5000 13.0000 -1.0000
v -3.5000 14.0000 -1.0000
v -3.5000 15.0000 -1.0000
v -3.5000 16.0000 -1.0000
v -2.5000 16.0000 -1.0000
v -3.5000 12.0000 -2.0000
v -3.5000 11.0000 -2.0000
v -2.5000 12.0000 -2.0000
v -2.5000 11.0000 -2.0000
v -3.5000 13.0000 -2.0000
v -2.5000 13.0000 -2.0000
v -3.5000 14.0000 -2.0000
v -2.5000 14.0000 -2.0000
v -3.5000 15.0000 -2.0000
v -2.5000 15.0000 -2.0000
v -3.5000 16.0000 -2.0000
v -2.5000 16.0000 -2.0000
v -1.5000 11.0000 2.0000
v -1.5000 12.0000 2.0000
v -1.5000 13.0000 2.0000
v -1.5000 15.0000 2.0000
v -1.5000 16.0000 2.0000
v -1.5000 16.0000 1.0000
v -1.5000 16.0000 0.0000
v -1.5000 16.0000 -1.0000
v -1.5000 12.0000 -2.0000
v -1.5000 11.0000 -2.0000
v -1.5000 13.0000 -2.0000
v -1.5000 14.0000 -2.0000
v -1.5000 15.0000 -2.0000
v -1.5000 16.0000 -2.0000
v -0.5000 11.0000 2.0000
v -0.5000 12.0000 2.0000
v -0.5000 13.0000 2.0000
v -0.5000 14.0000 2.0000
v -1.5000 14.0000 2.0000
v -0.5000 15.0000 2.0000
v -0.5000 16.0000 2.0000
v -0.5000 16.0000 1.0000
v -0.5000 16.0000 0.0000
v -0.5000 16.0000 -1.0000
v -0.5000 12.0000 -2.0000
v -0.5000 11.0000 -2.0000
v -0.5000 13.0000 -2.0000
v -0.5000 14.0000 -2.0000
v -0.5000 15.0000 -2.0000
v -0.5000 16.0000 -2.0000
v 0.5000 11.0000 2.0000
v 0.5000 12.0000 2.0000
v 0.5000 13.0000 2.0000
v 0.5000 15.0000 2.0000
v 0.5000 16.0000 2.0000
v 0.5000 16.0000 1.0000
v 0.5000 16.0000 0.0000
v 0.5000 16.0000 -1.0000
v 0.5000 12.0000 -2.0000
v 0.5000 11.0000 -2.0000
v 0.5000 13.0000 -2.0000
v 0.5000 14.0000 -2.0000
v 0.5000 15.0000 -2.0000
v 0.5000 16.0000 -2.0000
v 1.5000 11.0000 2.0000
v 1.5000 11.0000 1.0000
v 1.5000 12.0000 1.0000
v 1.5000 12.0000 2.0000
v 1.5000 13.0000 1.0000
v 1.5000 13.0000 2.0000
v 1.5000 14.0000 1.0000
v 1.5000 14.0000 2.0000
v 0.5000 14.0000 2.0000
v 1.5000 15.0000 1.0000
v 1.5000 15.0000 2.0000
v 1.5000 16.0000 1.0000
v 1.5000 16.0000 2.0000
v 1.5000 11.0000 0.0000
v 1.5000 12.0000 0.0000
v 1.5000 13.0000 0.0000
v 1.5000 14.0000 0.0000
v 1.5000 15.0000 0.0000
v 1.5000 16.0000 0.0000
v 1.5000 11.0000 -1.0000
v 1.5000 12.0000 -1.0000
v 1.5000 13.0000 -1.0000
v 1.5000 14.0000 -1.0000
v 1.5000 15.0000 -1.0000
v 1.5000 16.0000 -1.0000
v 1.5000 11.0000 -2.0000
v 1.5000 12.0000 -2.0000
v 1.5000 13.0000 -2.0000
v 1.5000 14.0000 -2.0000
v 1.5000 15.0000 -2.0000
v 1.5000 16.0000 -2.0000
v -2.5000 17.0000 1.0000
v -2.5000 17.0000 0.0000
v -1.5000 17.0000 0.0000
v -1.5000 17.0000 1.0000
v -0.5000 17.0000 0.0000
v -0.5000 17.0000 1.0000
v 0.5000 17.0000 0.0000
v 0.5000 17.0000 1.0000
v 1.5000 17.0000 0.0000
v 1.5000 17.0000 1.0000
v -1.5000 18.0000 0.0000
v -1.5000 18.0000 1.0000
v -2.5000 18.0000 1.0000
v -2.5000 18.0000 0.0000
v 0.5000 18.0000 0.0000
v 0.5000 18.0000 1.0000
v -0.5000 18.0000 1.0000
v -0.5000 18.0000 0.0000
v -2.5000 12.0000 4.0000
v -2.5000 13.0000 4.0000
v -2.5000 13.0000 3.0000
v -2.5000 12.0000 3.0000
v -1.5000 13.0000 3.0000
v -1.5000 12.0000 3.0000
v -1.5000 12.0000 4.0000
v -1.5000 13.0000 4.0000
v -2.5000 14.0000 4.0000
v -2.5000 14.0000 3.0000
v -1.5000 14.0000 4.0000
v -1.5000 14.0000 3.0000
v -0.5000 12.0000 4.0000
v -0.5000 12.0000 3.0000
v -0.5000 13.0000 3.0000
v -0.5000 13.0000 4.0000
v -0.5000 14.0000 3.0000
v -0.5000 14.0000 4.0000
v -0.5000 11.0000 3.0000
v -1.5000 11.0000 3.0000
v 0.5000 13.0000 3.0000
v 0.5000 14.0000 3.0000
v -1.5000 15.0000 3.0000
v -2.5000 15.0000 3.0000
v 0.5000 15.0000 3.0000
v -0.5000 15.0000 3.0000
v -6.5000 8.0000 2.0000
v -6.5000 9.0000 2.0000
v -6.5000 9.0000 1.0000
v -6.5000 8.0000 1.0000
v -5.5000 8.0000 2.0000
v -5.5000 9.0000 2.0000
v -5.5000 8.0000 1.0000
v -6.5000 10.0000 2.0000
v -6.5000 10.0000 1.0000
v -5.5000 10.0000 2.0000
v -6.5000 11.0000 2.0000
v -6.5000 11.0000 1.0000
v -5.5000 11.0000 2.0000
v -6.5000 12.0000 2.0000
v -6.5000 12.0000 1.0000
v -5.5000 12.0000 2.0000
v -5.5000 12.0000 1.0000
v -6.5000 9.0000 0.0000
v -6.5000 8.0000 0.0000
v -5.5000 8.0000 0.0000
v -6.5000 10.0000 0.0000
v -6.5000 11.0000 0.0000
v -6.5000 12.0000 0.0000
v -5.5000 12.0000 0.0000
v -6.5000 9.0000 -1.0000
v -6.5000 8.0000 -1.0000
v -5.5000 8.0000 -1.0000
v -6.5000 10.0000 -1.0000
v -6.5000 11.0000 -1.0000
v -6.5000 12.0000 -1.0000
v -5.5000 12.0000 -1.0000
v -6.5000 9.0000 -2.0000
v -6.5000 8.0000 -2.0000
v -5.5000 8.0000 -2.0000
v -6.5000 10.0000 -2.0000
v -6.5000 11.0000 -2.0000
v -6.5000 12.0000 -2.0000
v -5.5000 12.0000 -2.0000
v -6.5000 9.0000 -3.0000
v -6.5000 8.0000 -3.0000
v -5.5000 9.0000 -3.0000
v -5.5000 8.0000 -3.0000
v -6.5000 10.0000 -3.0000
v -5.5000 10.0000 -3.0000
v -6.5000 11.0000 -3.0000
v -5.5000 11.0000 -3.0000
v -6.5000 12.0000 -3.0000
v -5.5000 12.0000 -3.0000
v -4.5000 11.0000 1.0000
v -4.5000 11.0000 2.0000
v -4.5000 12.0000 1.0000
v -4.5000 12.0000 2.0000
v -4.5000 11.0000 0.0000
v -4.5000 12.0000 0.0000
v -4.5000 11.0000 -1.0000
v -4.5000 12.0000 -1.0000
v -4.5000 11.0000 -2.0000
v -4.5000 12.0000 -2.0000
v -4.5000 11.0000 -3.0000
v -4.5000 12.0000 -3.0000
v -4.5000 13.0000 -1.0000
v -4.5000 13.0000 0.0000
v -5.5000 13.0000 0.0000
v -5.5000 13.0000 -1.0000
v -1.5000 0.0000 0.0000
v -1.5000 0.0000 -1.0000
v -0.5000 0.0000 -1.0000
v -0.5000 0.0000 0.0000
v -0.5000 1.0000 0.0000
v -0.5000 1.0000 -1.0000
v -0.5000 2.0000 -1.0000
v -0.5000 2.0000 0.0000
v -1.5000 1.0000 0.0000
v -1.5000 2.0000 0.0000
v -1.5000 2.0000 -1.0000
v -1.5000 1.0000 -1.0000
v -0.5000 3.0000 -1.0000
v -0.5000 3.0000 0.0000
v -1.5000 3.0000 0.0000
v -1.5000 3.0000 -1.0000
v 1.5000 0.0000 0.0000
v 1.5000 0.0000 -1.0000
v 2.5000 0.0000 -1.0000
v 2.5000 0.0000 0.0000
v 2.5000 1.0000 0.0000
v 2.5000 1.0000 -1.0000
v 2.5000 2.0000 -1.0000
v 2.5000 2.0000 0.0000
v 1.5000 1.0000 0.0000
v 1.5000 2.0000 0.0000
v 1.5000 2.0000 -1.0000
v 1.5000 1.0000 -1.0000
v 2.5000 3.0000 -1.0000
v 2.5000 3.0000 0.0000
v 1.5000 3.0000 0.0000
v 1.5000 3.0000 -1.0000
v -2.5000 0.0000 1.0000
v -2.5000 1.0000 1.0000
v -2.5000 1.0000 0.0000
v -2.5000 0.0000 0.0000
v -1.5000 0.0000 1.0000
v -1.5000 1.0000 1.0000
v -2.5000 1.0000 -1.0000
v -2.5000 0.0000 -1.0000
v -2.5000 1.0000 -2.0000
v -2.5000 0.0000 -2.0000
v -1.5000 1.0000 -2.0000
v -1.5000 0.0000 -2.0000
v -0.5000 0.0000 1.0000
v -0.5000 1.0000 1.0000
v -0.5000 1.0000 -2.0000
v -0.5000 0.0000 -2.0000
v 0.5000 0.0000 1.0000
v 0.5000 1.0000 1.0000
v 0.5000 1.0000 0.0000
v 0.5000 0.0000 0.0000
v 0.5000 1.0000 -1.0000
v 0.5000 0.0000 -1.0000
v 0.5000 1.0000 -2.0000
v 0.5000 0.0000 -2.0000
v 1.5000 0.0000 1.0000
v 1.5000 1.0000 1.0000
v 1.5000 1.0000 -2.0000
v 1.5000 0.0000 -2.0000
v 2.5000 0.0000 1.0000
v 2.5000 1.0000 1.0000
v 2.5000 1.0000 -2.0000
v 2.5000 0.0000 -2.0000
v 3.5000 0.0000 1.0000
v 3.5000 0.0000 0.0000
v 3.5000 1.0000 0.0000
v 3.5000 1.0000 1.0000
v 3.5000 0.0000 -1.0000
v 3.5000 1.0000 -1.0000
v 3.5000 0.0000 -2.0000
v 3.5000 1.0000 -2.0000
v 4.5000 0.0000 -1.0000
v 4.5000 1.0000 -1.0000
v 4.5000 1.0000 -2.0000
v 4.5000 0.0000 -2.0000
v 5.5000 0.0000 -1.0000
v 5.5000 1.0000 -1.0000
v 5.5000 0.0000 -2.0000
v 4.5000 2.0000 -1.0000
v 4.5000 2.0000 -2.0000
v 5.5000 2.0000 -1.0000
v 4.5000 3.0000 -1.0000
v 4.5000 3.0000 -2.0000
v 5.5000 3.0000 -1.0000
v 5.5000 3.0000 -2.0000
v 4.5000 1.0000 -3.0000
v 4.5000 0.0000 -3.0000
v 5.5000 1.0000 -3.0000
v 5.5000 0.0000 -3.0000
v 4.5000 2.0000 -3.0000
v 5.5000 2.0000 -3.0000
v 4.5000 3.0000 -3.0000
v 5.5000 3.0000 -3.0000
v 6.5000 0.0000 -1.0000
v 6.5000 0.0000 -2.0000
v 6.5000 1.0000 -2.0000
v 6.5000 1.0000 -1.0000
v 6.5000 2.0000 -2.0000
v 6.5000 2.0000 -1.0000
v 6.5000 3.0000 -2.0000
v 6.5000 3.0000 -1.0000
v 6.5000 0.0000 -3.0000
v 6.5000 1.0000 -3.0000
v 6.5000 2.0000 -3.0000
v 6.5000 3.0000 -3.0000
usemtl c1
f 1 2 3 4
f 1 5 6 2
f 1 4 7 5
f 2 8 9 3
f 2 6 10 8
f 8 11 12 9
f 8 10 13 11
f 11 14 15 12
f 11 13 16 14
f 14 16 17 15
f 18 4 19 20
f 18 21 7 4
f 18 20 22 21
f 4 3 23 19
f 3 9 24 23
f 9 12 25 24
f 15 17 26 27
f 27 26 28 29
f 20 19 30 31
f 20 31 32 22
f 19 23 33 30
f 23 24 34 33
f 24 25 35 34
f 29 28 36 37
f 31 30 38 39
f 31 39 40 32
f 30 33 41 38
f 33 34 42 41
f 34 35 43 42
f 37 36 44 45
f 39 38 46 47
f 39 47 48 40
f 38 41 49 46
f 41 42 50 49
f 42 43 51 50
f 45 44 52 53
f 47 46 54 55
f 47 55 56 48
f 46 49 57 54
f 49 50 58 57
f 50 51 59 58
f 60 61 62 63
f 53 52 62 61
f 55 54 64 65
f 65 64 66 67
f 55 65 67 56
f 54 57 68 64
f 64 68 69 66
f 57 58 70 68
f 68 70 71 69
f 58 59 72 70
f 70 72 73 71
f 59 60 74 72
f 72 74 75 73
f 60 63 75 74
f 76 5 7 21
f 76 77 78 5
f 76 21 79 77
f 6 80 81 10
f 16 84 26 17
f 16 83 85 84
f 84 85 86 26
f 21 22 87 79
f 26 86 88 28
f 22 32 89 87
f 28 88 90 36
f 32 40 91 89
f 36 90 92 44
f 40 48 93 91
f 44 92 94 52
f 48 56 95 93
f 52 94 96 62
f 67 66 97 98
f 56 67 98 95
f 69 71 100 99
f 63 62 103 75
f 75 103 104 102
f 62 96 104 103
f 77 105 106 78
f 77 79 107 105
f 83 108 109 85
f 85 109 110 86
f 79 87 111 107
f 86 110 112 88
f 87 89 113 111
f 88 112 114 90
f 89 91 115 113
f 90 114 116 92
f 91 93 117 115
f 92 116 118 94
f 93 95 119 117
f 94 118 120 96
f 98 97 121 122
f 95 98 122 119
f 99 100 124 123
f 102 104 127 126
f 96 120 127 104
f 105 128 129 106
f 105 107 130 128
f 107 111 133 130
f 110 134 135 112
f 111 113 136 133
f 115 117 137 138
f 116 139 140 118
f 117 119 141 137
f 118 140 142 120
f 122 121 143 144
f 119 122 144 141
f 123 124 146 145
f 126 127 149 148
f 120 142 149 127
f 128 150 151 129
f 128 130 152 150
f 131 153 154 132
f 132 154 155 134
f 130 133 156 152
f 134 155 157 135
f 133 136 158 156
f 136 138 159 158
f 138 137 160 159
f 139 161 162 140
f 137 141 163 160
f 140 162 164 142
f 144 143 165 166
f 141 144 166 163
f 145 146 168 167
f 148 149 171 170
f 142 164 171 149
f 150 172 173 151
f 150 152 174 172
f 153 175 176 154
f 154 176 177 155
f 152 156 178 174
f 155 177 179 157
f 156 158 180 178
f 157 179 181 182
f 158 159 183 180
f 182 181 184 161
f 159 160 185 183
f 161 184 186 162
f 160 163 187 185
f 162 186 188 164
f 166 165 189 190
f 163 166 190 187
f 167 168 192 191
f 170 171 195 194
f 164 188 195 171
f 172 196 197 173
f 172 174 198 196
f 175 199 200 176
f 176 200 201 177
f 174 178 202 198
f 177 201 203 179
f 178 180 204 202
f 179 203 205 181
f 181 205 206 184
f 183 185 207 208
f 184 206 209 186
f 185 187 210 207
f 186 209 211 188
f 190 189 212 213
f 187 190 213 210
f 191 192 215 214
f 194 195 218 217
f 188 211 218 195
f 196 219 220 197
f 196 198 221 219
f 199 222 223 200
f 200 223 224 201
f 198 202 225 221
f 201 224 226 203
f 202 204 227 225
f 203 226 228 205
f 204 208 229 227
f 205 228 230 206
f 208 207 231 229
f 206 230 232 209
f 207 210 233 231
f 209 232 234 211
f 213 212 235 236
f 210 213 236 233
f 214 215 238 237
f 217 218 241 240
f 211 234 241 218
f 242 243 244 245
f 219 242 245 220
f 219 221 243 242
f 247 246 248 249
f 252 253 254 255
f 222 252 255 223
f 223 255 254 224
f 221 225 256 243
f 224 254 257 226
f 225 227 258 256
f 226 257 259 228
f 227 229 260 258
f 228 259 261 230
f 229 231 262 260
f 230 261 263 232
f 231 233 264 262
f 232 263 265 234
f 236 235 266 267
f 233 236 267 264
f 237 238 269 268
f 272 271 273 265
f 240 241 273 271
f 234 265 273 241
f 274 275 276 277
f 245 274 277 246
f 245 244 275 274
f 277 276 278 279
f 246 277 279 248
f 279 278 280 281
f 248 279 281 250
f 281 280 282 283
f 250 281 283 252
f 252 283 282 253
f 284 285 286 275
f 243 284 275 244
f 243 256 285 284
f 275 286 287 276
f 276 287 288 278
f 278 288 289 280
f 280 289 290 282
f 282 290 291 292
f 253 282 292 254
f 254 292 291 257
f 285 293 294 286
f 256 258 293 285
f 286 294 295 287
f 287 295 296 288
f 288 296 297 289
f 289 297 298 290
f 290 298 299 291
f 257 291 299 259
f 293 300 301 294
f 258 260 300 293
f 294 301 302 295
f 295 302 303 296
f 296 303 304 297
f 297 304 305 298
f 298 305 306 299
f 259 299 306 261
f 300 307 308 301
f 260 262 307 300
f 301 308 309 302
f 302 309 310 303
f 303 310 311 304
f 304 311 312 305
f 305 312 313 306
f 261 306 313 263
f 307 314 315 308
f 262 264 314 307
f 308 315 316 309
f 309 316 317 310
f 310 317 318 311
f 311 318 319 312
f 312 319 320 313
f 272 265 320 319
f 263 313 320 265
f 314 321 322 315
f 267 266 322 321
f 264 267 321 314
f 315 322 323 316
f 266 268 323 322
f 316 323 324 317
f 268 269 324 323
f 317 324 325 318
f 269 270 325 324
f 318 325 326 319
f 270 271 326 325
f 272 319 326 271
f 112 362 363 114
f 112 135 364 362
f 114 363 365 116
f 116 365 366 139
f 157 182 367 368
f 135 157 368 364
f 182 161 369 367
f 139 366 369 161
f 370 371 372 373
f 370 374 375 371
f 370 373 376 374
f 371 377 378 372
f 371 375 379 377
f 377 380 381 378
f 377 379 382 380
f 380 383 384 381
f 380 382 385 383
f 383 386 387 384
f 383 385 388 386
f 386 388 389 387
f 373 372 390 391
f 373 391 392 376
f 372 378 393 390
f 378 381 394 393
f 381 384 395 394
f 384 387 396 395
f 387 389 397 396
f 391 390 398 399
f 391 399 400 392
f 390 393 401 398
f 393 394 402 401
f 394 395 403 402
f 395 396 404 403
f 396 397 405 404
f 399 398 406 407
f 407 406 408 409
f 399 407 409 400
f 398 401 410 406
f 406 410 411 408
f 401 402 412 410
f 410 412 413 411
f 402 403 414 412
f 412 414 415 413
f 403 404 416 414
f 414 416 417 415
f 404 405 417 416
f 374 418 419 375
f 374 376 362 418
f 375 419 420 379
f 385 421 422 388
f 388 422 423 389
f 376 392 363 362
f 392 400 365 363
f 397 424 425 405
f 409 408 426 427
f 400 409 427 365
f 408 411 428 426
f 411 413 429 428
f 413 415 430 429
f 415 417 431 430
f 405 425 431 417
f 418 362 364 432
f 419 433 434 420
f 420 434 435 436
f 436 435 437 421
f 421 437 438 422
f 422 438 439 423
f 424 440 441 425
f 427 426 442 443
f 365 427 443 366
f 426 428 444 442
f 428 429 445 444
f 429 430 446 445
f 430 431 447 446
f 425 441 447 431
f 432 448 449 433
f 432 364 368 448
f 433 449 450 434
f 437 451 452 438
f 438 452 453 439
f 440 454 455 441
f 443 442 456 457
f 366 443 457 369
f 442 444 458 456
f 444 445 459 458
f 445 446 460 459
f 446 447 461 460
f 441 455 461 447
f 462 463 464 465
f 448 462 465 449
f 448 368 463 462
f 465 464 466 467
f 449 465 467 450
f 467 466 468 469
f 450 467 469 470
f 469 468 471 472
f 470 469 472 451
f 472 471 473 474
f 451 472 474 452
f 452 474 473 453
f 463 475 476 464
f 368 367 475 463
f 464 476 477 466
f 466 477 478 468
f 468 478 479 471
f 471 479 480 473
f 475 481 482 476
f 367 369 481 475
f 476 482 483 477
f 477 483 484 478
f 478 484 485 479
f 479 485 486 480
f 454 480 486 455
f 481 487 488 482
f 457 456 488 487
f 369 457 487 481
f 482 488 489 483
f 456 458 489 488
f 483 489 490 484
f 458 459 490 489
f 484 490 491 485
f 459 460 491 490
f 485 491 492 486
f 460 461 492 491
f 455 486 492 461
f 537 538 539 540
f 537 541 542 538
f 537 540 543 541
f 538 544 545 539
f 538 542 546 544
f 544 547 548 545
f 544 546 549 547
f 547 550 551 548
f 547 549 552 550
f 550 552 553 551
f 540 539 554 555
f 540 555 556 543
f 539 545 557 554
f 545 548 558 557
f 548 551 559 558
f 551 553 560 559
f 555 554 561 562
f 555 562 563 556
f 554 557 564 561
f 557 558 565 564
f 558 559 566 565
f 559 560 567 566
f 562 561 568 569
f 562 569 570 563
f 561 564 571 568
f 564 565 572 571
f 565 566 573 572
f 566 567 574 573
f 569 568 575 576
f 576 575 577 578
f 569 576 578 570
f 568 571 579 575
f 575 579 580 577
f 571 572 581 579
f 579 581 582 580
f 572 573 583 581
f 581 583 584 582
f 573 574 584 583
f 541 12 15 542
f 541 543 25 12
f 542 15 27 546
f 27 29 585 586
f 546 27 586 549
f 586 585 587 588
f 549 586 588 552
f 552 588 587 553
f 543 556 35 25
f 29 37 589 585
f 585 589 590 587
f 553 587 590 560
f 556 563 43 35
f 37 45 591 589
f 589 591 592 590
f 563 570 51 43
f 45 53 593 591
f 591 593 594 592
f 567 592 594 574
f 578 577 60 59
f 570 578 59 51
f 577 580 61 60
f 53 61 595 593
f 580 582 595 61
f 593 595 596 594
f 582 584 596 595
f 574 594 596 584
f 590 592 597 598
f 560 599 600 567
f 567 600 597 592
f 560 590 598 599
f 599 598 597 600
usemtl c2
f 511 512 513 514
f 514 513 515 516
f 511 517 518 512
f 511 514 516 517
f 512 519 520 513
f 512 518 521 519
f 519 521 522 520
f 523 524 525 526
f 516 515 525 524
f 517 523 526 518
f 517 516 524 523
f 526 525 527 528
f 515 522 527 525
f 518 526 528 521
f 521 528 527 522
usemtl c3
f 108 131 132 109
f 389 493 494 397
f 397 494 495 424
f 389 423 496 493
f 424 495 497 440
f 423 439 498 496
f 496 498 497 495
f 440 497 499 454
f 439 453 500 498
f 473 480 501 502
f 454 499 501 480
f 453 473 502 500
f 500 502 501 499
f 496 495 503 504
f 493 505 506 494
f 494 506 503 495
f 493 496 504 505
f 505 504 503 506
f 500 499 507 508
f 498 509 510 497
f 497 510 507 499
f 498 500 508 509
f 509 508 507 510
f 132 134 432 529
f 109 530 418 110
f 110 418 432 134
f 109 132 529 530
f 529 432 433 524
f 530 516 419 418
f 530 529 524 516
f 516 524 433 419
usemtl c4
f 601 602 603 604
f 605 606 607 608
f 609 610 611 612
f 612 611 607 606
f 609 605 608 610
f 608 607 613 614
f 610 615 616 611
f 611 616 613 607
f 610 608 614 615
f 614 613 138 136
f 615 113 115 616
f 616 115 138 613
f 615 614 136 113
f 617 618 619 620
f 621 622 623 624
f 625 626 627 628
f 628 627 623 622
f 625 621 624 626
f 624 623 629 630
f 626 631 632 627
f 627 632 629 623
f 626 624 630 631
f 630 629 208 204
f 631 180 183 632
f 632 183 208 629
f 631 630 204 180
f 633 634 635 636
f 633 637 638 634
f 634 638 609 635
f 633 636 601 637
f 636 635 639 640
f 635 609 612 639
f 636 640 602 601
f 640 639 641 642
f 642 641 643 644
f 639 612 643 641
f 640 642 644 602
f 637 645 646 638
f 638 646 605 609
f 637 601 604 645
f 644 643 647 648
f 612 606 647 643
f 602 644 648 603
f 645 649 650 646
f 646 650 651 605
f 645 604 652 649
f 605 651 653 606
f 604 603 654 652
f 648 647 655 656
f 606 653 655 647
f 603 648 656 654
f 649 657 658 650
f 650 658 625 651
f 649 652 617 657
f 651 625 628 653
f 652 654 618 617
f 656 655 659 660
f 653 628 659 655
f 654 656 660 618
f 657 661 662 658
f 658 662 621 625
f 657 617 620 661
f 660 659 663 664
f 628 622 663 659
f 618 660 664 619
f 665 666 667 668
f 661 665 668 662
f 662 668 667 621
f 661 620 666 665
f 666 669 670 667
f 621 667 670 622
f 620 619 669 666
f 669 671 672 670
f 664 663 672 671
f 622 670 672 663
f 619 664 671 669
usemtl c5
f 515 420 436 522
f 513 520 382 379
f 513 379 420 515
f 531 450 470 532
f 525 527 435 434
f 525 531 532 527
f 525 434 450 531
usemtl c6
f 327 328 80 78
f 327 329 330 328
f 327 78 106 329
f 328 331 81 80
f 328 330 332 331
f 331 333 82 81
f 331 332 334 333
f 333 335 83 82
f 333 334 336 335
f 335 336 108 83
f 329 337 338 330
f 329 106 129 337
f 330 338 339 332
f 332 339 340 334
f 334 340 341 336
f 336 341 131 108
f 337 342 343 338
f 337 129 151 342
f 338 343 344 339
f 339 344 345 340
f 340 345 346 341
f 341 346 153 131
f 342 347 348 343
f 342 151 173 347
f 343 348 349 344
f 344 349 350 345
f 345 350 351 346
f 346 351 175 153
f 347 352 353 348
f 347 173 197 352
f 348 353 354 349
f 349 354 355 350
f 350 355 356 351
f 351 356 199 175
f 357 220 247 358
f 352 357 358 353
f 352 197 220 357
f 358 247 249 359
f 353 358 359 354
f 359 249 251 360
f 354 359 360 355
f 360 251 222 361
f 355 360 361 356
f 356 361 222 199
f 522 436 421 533
f 520 534 385 382
f 520 522 533 534
f 534 533 421 385
f 532 470 451 535
f 527 536 437 435
f 527 532 535 536
f 536 535 451 437
usemtl c7
f 5 78 80 6
f 10 81 82 13
f 13 82 83 16
f 66 69 99 97
f 71 73 101 100
f 73 75 102 101
f 97 99 123 121
f 100 101 125 124
f 101 102 126 125
f 121 123 145 143
f 124 125 147 146
f 125 126 148 147
f 143 145 167 165
f 146 147 169 168
f 147 148 170 169
f 165 167 191 189
f 168 169 193 192
f 169 170 194 193
f 189 191 214 212
f 192 193 216 215
f 193 194 217 216
f 212 214 237 235
f 215 216 239 238
f 216 217 240 239
f 220 245 246 247
f 249 248 250 251
f 251 250 252 222
f 235 237 268 266
f 238 239 270 269
f 239 240 271 270
usemtl c12
f 673 674 675 676
f 673 677 678 674
f 673 676 679 677
f 674 680 681 675
f 674 678 682 680
f 680 683 684 681
f 680 682 685 683
f 683 685 686 684
f 676 675 687 688
f 688 687 689 690
f 676 688 690 679
f 675 681 691 687
f 687 691 692 689
f 681 684 693 691
f 691 693 694 692
f 684 686 694 693
f 695 696 697 698
f 677 695 698 678
f 677 679 696 695
f 698 697 699 700
f 678 698 700 682
f 700 699 701 702
f 682 700 702 685
f 685 702 701 686
f 696 703 704 697
f 690 689 704 703
f 679 690 703 696
f 697 704 705 699
f 689 692 705 704
f 699 705 706 701
f 692 694 706 705
f 686 701 706 694
