# generado por tools/vox_to_obj.py desde pollito.vox
mtllib pollito.mtl
v -1.5000 1.0000 1.0000
v -1.5000 2.0000 1.0000
v -1.5000 2.0000 0.0000
v -1.5000 1.0000 0.0000
v -0.5000 1.0000 1.0000
v -0.5000 2.0000 1.0000
v -1.5000 3.0000 1.0000
v -1.5000 3.0000 0.0000
v -0.5000 3.0000 1.0000
v -1.5000 4.0000 1.0000
v -1.5000 4.0000 0.0000
v -0.5000 4.0000 1.0000
v -0.5000 4.0000 0.0000
v -1.5000 2.0000 -1.0000
v -1.5000 1.0000 -1.0000
v -0.5000 2.0000 -1.0000
v -0.5000 1.0000 -1.0000
v -0.5000 1.0000 0.0000
v -1.5000 3.0000 -1.0000
v -0.5000 3.0000 -1.0000
v -1.5000 4.0000 -1.0000
v -0.5000 4.0000 -1.0000
v 0.5000 1.0000 1.0000
v 0.5000 1.0000 0.0000
v 0.5000 2.0000 0.0000
v 0.5000 2.0000 1.0000
v 0.5000 3.0000 1.0000
v 0.5000 4.0000 1.0000
v 0.5000 4.0000 0.0000
v 0.5000 1.0000 -1.0000
v 0.5000 2.0000 -1.0000
v 0.5000 3.0000 -1.0000
v 0.5000 3.0000 0.0000
v 0.5000 4.0000 -1.0000
v 1.5000 2.0000 1.0000
v 1.5000 2.0000 0.0000
v 1.5000 3.0000 0.0000
v 1.5000 3.0000 1.0000
v -0.5000 0.0000 1.0000
v -0.5000 0.0000 0.0000
v -1.5000 0.0000 1.0000
v -1.5000 0.0000 0.0000
v 0.5000 0.0000 0.0000
v 0.5000 0.0000 -1.0000
v -0.5000 0.0000 -1.0000
v 1.5000 4.0000 0.0000
v 1.5000 4.0000 1.0000
v 1.5000 3.0000 -1.0000
v 1.5000 4.0000 -1.0000
usemtl c25
f 38 37 46 47
f 27 38 47 28
f 28 47 46 29
f 37 48 49 46
f 32 34 49 48
f 29 46 49 34
f 33 32 48 37
usemtl c37
f 35 36 37 38
f 25 33 37 36
f 26 35 38 27
f 26 25 36 35
f 39 40 18 5
f 41 1 4 42
f 42 4 18 40
f 41 39 5 1
f 41 42 40 39
f 43 44 30 24
f 40 18 17 45
f 45 17 30 44
f 40 43 24 18
f 40 45 44 43
usemtl c38
f 1 2 3 4
f 1 5 6 2
f 2 7 8 3
f 2 6 9 7
f 7 10 11 8
f 7 9 12 10
f 10 12 13 11
f 4 3 14 15
f 15 14 16 17
f 4 15 17 18
f 3 8 19 14
f 14 19 20 16
f 8 11 21 19
f 19 21 22 20
f 11 13 22 21
f 23 24 25 26
f 5 23 26 6
f 5 18 24 23
f 6 26 27 9
f 9 27 28 12
f 12 28 29 13
f 24 30 31 25
f 17 16 31 30
f 25 31 32 33
f 16 20 32 31
f 20 22 34 32
f 13 29 34 22
