# generado por tools/vox_to_obj.py desde radio.vox
mtllib radio.mtl
v -7.0000 0.0000 4.0000
v -7.0000 1.0000 4.0000
v -7.0000 1.0000 3.0000
v -7.0000 0.0000 3.0000
v -6.0000 0.0000 4.0000
v -6.0000 1.0000 4.0000
v -6.0000 0.0000 3.0000
v -7.0000 1.0000 2.0000
v -7.0000 0.0000 2.0000
v -6.0000 0.0000 2.0000
v -7.0000 1.0000 1.0000
v -7.0000 0.0000 1.0000
v -6.0000 0.0000 1.0000
v -7.0000 1.0000 0.0000
v -7.0000 0.0000 0.0000
v -6.0000 0.0000 0.0000
v -7.0000 1.0000 -1.0000
v -7.0000 0.0000 -1.0000
v -6.0000 0.0000 -1.0000
v -7.0000 1.0000 -2.0000
v -7.0000 0.0000 -2.0000
v -6.0000 0.0000 -2.0000
v -7.0000 1.0000 -3.0000
v -7.0000 0.0000 -3.0000
v -6.0000 0.0000 -3.0000
v -7.0000 1.0000 -4.0000
v -7.0000 0.0000 -4.0000
v -6.0000 1.0000 -4.0000
v -6.0000 0.0000 -4.0000
v -5.0000 0.0000 4.0000
v -5.0000 1.0000 4.0000
v -5.0000 0.0000 3.0000
v -5.0000 0.0000 2.0000
v -5.0000 0.0000 1.0000
v -5.0000 0.0000 0.0000
v -5.0000 0.0000 -1.0000
v -5.0000 0.0000 -2.0000
v -5.0000 0.0000 -3.0000
v -5.0000 1.0000 -4.0000
v -5.0000 0.0000 -4.0000
v -4.0000 0.0000 4.0000
v -4.0000 1.0000 4.0000
v -4.0000 0.0000 3.0000
v -4.0000 0.0000 2.0000
v -4.0000 0.0000 1.0000
v -4.0000 0.0000 0.0000
v -4.0000 0.0000 -1.0000
v -4.0000 0.0000 -2.0000
v -4.0000 0.0000 -3.0000
v -4.0000 1.0000 -4.0000
v -4.0000 0.0000 -4.0000
v -3.0000 0.0000 4.0000
v -3.0000 1.0000 4.0000
v -3.0000 0.0000 3.0000
v -3.0000 0.0000 2.0000
v -3.0000 0.0000 1.0000
v -3.0000 0.0000 0.0000
v -3.0000 0.0000 -1.0000
v -3.0000 0.0000 -2.0000
v -3.0000 0.0000 -3.0000
v -3.0000 1.0000 -4.0000
v -3.0000 0.0000 -4.0000
v -2.0000 0.0000 4.0000
v -2.0000 1.0000 4.0000
v -2.0000 0.0000 3.0000
v -2.0000 0.0000 2.0000
v -2.0000 0.0000 1.0000
v -2.0000 0.0000 0.0000
v -2.0000 0.0000 -1.0000
v -2.0000 0.0000 -2.0000
v -2.0000 0.0000 -3.0000
v -2.0000 1.0000 -4.0000
v -2.0000 0.0000 -4.0000
v -1.0000 0.0000 4.0000
v -1.0000 1.0000 4.0000
v -1.0000 0.0000 3.0000
v -1.0000 0.0000 2.0000
v -1.0000 0.0000 1.0000
v -1.0000 0.0000 0.0000
v -1.0000 0.0000 -1.0000
v -1.0000 0.0000 -2.0000
v -1.0000 0.0000 -3.0000
v -1.0000 1.0000 -4.0000
v -1.0000 0.0000 -4.0000
v 0.0000 0.0000 4.0000
v 0.0000 1.0000 4.0000
v 0.0000 0.0000 3.0000
v 0.0000 0.0000 2.0000
v 0.0000 0.0000 1.0000
v 0.0000 0.0000 0.0000
v 0.0000 0.0000 -1.0000
v 0.0000 0.0000 -2.0000
v 0.0000 0.0000 -3.0000
v 0.0000 1.0000 -4.0000
v 0.0000 0.0000 -4.0000
v 1.0000 0.0000 4.0000
v 1.0000 1.0000 4.0000
v 1.0000 0.0000 3.0000
v 1.0000 0.0000 2.0000
v 1.0000 0.0000 1.0000
v 1.0000 0.0000 0.0000
v 1.0000 0.0000 -1.0000
v 1.0000 0.0000 -2.0000
v 1.0000 0.0000 -3.0000
v 1.0000 1.0000 -4.0000
v 1.0000 0.0000 -4.0000
v 2.0000 0.0000 4.0000
v 2.0000 1.0000 4.0000
v 2.0000 0.0000 3.0000
v 2.0000 0.0000 2.0000
v 2.0000 0.0000 1.0000
v 2.0000 0.0000 0.0000
v 2.0000 0.0000 -1.0000
v 2.0000 0.0000 -2.0000
v 2.0000 0.0000 -3.0000
v 2.0000 1.0000 -4.0000
v 2.0000 0.0000 -4.0000
v 3.0000 0.0000 4.0000
v 3.0000 1.0000 4.0000
v 3.0000 0.0000 3.0000
v 3.0000 0.0000 2.0000
v 3.0000 0.0000 1.0000
v 3.0000 0.0000 0.0000
v 3.0000 0.0000 -1.0000
v 3.0000 0.0000 -2.0000
v 3.0000 0.0000 -3.0000
v 3.0000 1.0000 -4.0000
v 3.0000 0.0000 -4.0000
v 4.0000 0.0000 4.0000
v 4.0000 1.0000 4.0000
v 4.0000 0.0000 3.0000
v 4.0000 0.0000 2.0000
v 4.0000 0.0000 1.0000
v 4.0000 0.0000 0.0000
v 4.0000 0.0000 -1.0000
v 4.0000 0.0000 -2.0000
v 4.0000 0.0000 -3.0000
v 4.0000 1.0000 -4.0000
v 4.0000 0.0000 -4.0000
v 5.0000 0.0000 4.0000
v 5.0000 1.0000 4.0000
v 5.0000 0.0000 3.0000
v 5.0000 0.0000 2.0000
v 5.0000 0.0000 1.0000
v 5.0000 0.0000 0.0000
v 5.0000 0.0000 -1.0000
v 5.0000 0.0000 -2.0000
v 5.0000 0.0000 -3.0000
v 5.0000 1.0000 -4.0000
v 5.0000 0.0000 -4.0000
v 6.0000 0.0000 4.0000
v 6.0000 1.0000 4.0000
v 6.0000 0.0000 3.0000
v 6.0000 0.0000 2.0000
v 6.0000 0.0000 1.0000
v 6.0000 0.0000 0.0000
v 6.0000 0.0000 -1.0000
v 6.0000 0.0000 -2.0000
v 6.0000 0.0000 -3.0000
v 6.0000 1.0000 -4.0000
v 6.0000 0.0000 -4.0000
v 7.0000 0.0000 4.0000
v 7.0000 0.0000 3.0000
v 7.0000 1.0000 3.0000
v 7.0000 1.0000 4.0000
v 7.0000 0.0000 2.0000
v 7.0000 1.0000 2.0000
v 7.0000 0.0000 1.0000
v 7.0000 1.0000 1.0000
v 7.0000 0.0000 0.0000
v 7.0000 1.0000 0.0000
v 7.0000 0.0000 -1.0000
v 7.0000 1.0000 -1.0000
v 7.0000 0.0000 -2.0000
v 7.0000 1.0000 -2.0000
v 7.0000 0.0000 -3.0000
v 7.0000 1.0000 -3.0000
v 7.0000 0.0000 -4.0000
v 7.0000 1.0000 -4.0000
v -7.0000 2.0000 4.0000
v -7.0000 2.0000 3.0000
v -6.0000 2.0000 4.0000
v -7.0000 3.0000 4.0000
v -7.0000 3.0000 3.0000
v -6.0000 3.0000 4.0000
v -7.0000 4.0000 4.0000
v -7.0000 4.0000 3.0000
v -6.0000 4.0000 4.0000
v -7.0000 5.0000 4.0000
v -7.0000 5.0000 3.0000
v -6.0000 5.0000 4.0000
v -7.0000 6.0000 4.0000
v -7.0000 6.0000 3.0000
v -6.0000 6.0000 4.0000
v -7.0000 7.0000 4.0000
v -7.0000 7.0000 3.0000
v -6.0000 7.0000 4.0000
v -7.0000 8.0000 4.0000
v -7.0000 8.0000 3.0000
v -6.0000 8.0000 4.0000
v -7.0000 9.0000 4.0000
v -7.0000 9.0000 3.0000
v -6.0000 9.0000 4.0000
v -7.0000 10.0000 4.0000
v -7.0000 10.0000 3.0000
v -6.0000 10.0000 4.0000
v -6.0000 10.0000 3.0000
v -7.0000 2.0000 2.0000
v -7.0000 3.0000 2.0000
v -7.0000 4.0000 2.0000
v -7.0000 5.0000 2.0000
v -7.0000 6.0000 2.0000
v -7.0000 7.0000 2.0000
v -7.0000 8.0000 2.0000
v -7.0000 9.0000 2.0000
v -7.0000 10.0000 2.0000
v -6.0000 10.0000 2.0000
v -7.0000 2.0000 1.0000
v -7.0000 3.0000 1.0000
v -7.0000 4.0000 1.0000
v -7.0000 5.0000 1.0000
v -7.0000 6.0000 1.0000
v -7.0000 7.0000 1.0000
v -7.0000 8.0000 1.0000
v -7.0000 9.0000 1.0000
v -7.0000 10.0000 1.0000
v -6.0000 10.0000 1.0000
v -7.0000 2.0000 0.0000
v -7.0000 3.0000 0.0000
v -7.0000 4.0000 0.0000
v -7.0000 5.0000 0.0000
v -7.0000 6.0000 0.0000
v -7.0000 7.0000 0.0000
v -7.0000 8.0000 0.0000
v -7.0000 9.0000 0.0000
v -7.0000 10.0000 0.0000
v -6.0000 10.0000 0.0000
v -7.0000 2.0000 -1.0000
v -7.0000 3.0000 -1.0000
v -7.0000 4.0000 -1.0000
v -7.0000 5.0000 -1.0000
v -7.0000 6.0000 -1.0000
v -7.0000 7.0000 -1.0000
v -7.0000 8.0000 -1.0000
v -7.0000 9.0000 -1.0000
v -7.0000 10.0000 -1.0000
v -6.0000 10.0000 -1.0000
v -7.0000 2.0000 -2.0000
v -7.0000 3.0000 -2.0000
v -7.0000 4.0000 -2.0000
v -7.0000 5.0000 -2.0000
v -7.0000 6.0000 -2.0000
v -7.0000 7.0000 -2.0000
v -7.0000 8.0000 -2.0000
v -7.0000 9.0000 -2.0000
v -7.0000 10.0000 -2.0000
v -6.0000 10.0000 -2.0000
v -7.0000 2.0000 -3.0000
v -7.0000 3.0000 -3.0000
v -7.0000 4.0000 -3.0000
v -7.0000 5.0000 -3.0000
v -7.0000 6.0000 -3.0000
v -7.0000 7.0000 -3.0000
v -7.0000 8.0000 -3.0000
v -7.0000 9.0000 -3.0000
v -7.0000 10.0000 -3.0000
v -6.0000 10.0000 -3.0000
v -7.0000 2.0000 -4.0000
v -6.0000 2.0000 -4.0000
v -7.0000 3.0000 -4.0000
v -6.0000 3.0000 -4.0000
v -7.0000 4.0000 -4.0000
v -6.0000 4.0000 -4.0000
v -7.0000 5.0000 -4.0000
v -6.0000 5.0000 -4.0000
v -7.0000 6.0000 -4.0000
v -6.0000 6.0000 -4.0000
v -7.0000 7.0000 -4.0000
v -6.0000 7.0000 -4.0000
v -7.0000 8.0000 -4.0000
v -6.0000 8.0000 -4.0000
v -7.0000 9.0000 -4.0000
v -6.0000 9.0000 -4.0000
v -7.0000 10.0000 -4.0000
v -6.0000 10.0000 -4.0000
v -5.0000 2.0000 4.0000
v -5.0000 3.0000 4.0000
v -5.0000 4.0000 4.0000
v -5.0000 5.0000 4.0000
v -5.0000 6.0000 4.0000
v -5.0000 7.0000 4.0000
v -5.0000 8.0000 4.0000
v -5.0000 9.0000 4.0000
v -5.0000 10.0000 4.0000
v -5.0000 10.0000 3.0000
v -5.0000 10.0000 2.0000
v -5.0000 10.0000 1.0000
v -5.0000 10.0000 0.0000
v -5.0000 10.0000 -1.0000
v -5.0000 10.0000 -2.0000
v -5.0000 10.0000 -3.0000
v -5.0000 2.0000 -4.0000
v -5.0000 3.0000 -4.0000
v -5.0000 4.0000 -4.0000
v -5.0000 5.0000 -4.0000
v -5.0000 6.0000 -4.0000
v -5.0000 7.0000 -4.0000
v -5.0000 8.0000 -4.0000
v -5.0000 9.0000 -4.0000
v -5.0000 10.0000 -4.0000
v -4.0000 2.0000 4.0000
v -4.0000 3.0000 4.0000
v -4.0000 4.0000 4.0000
v -4.0000 5.0000 4.0000
v -4.0000 6.0000 4.0000
v -4.0000 7.0000 4.0000
v -4.0000 8.0000 4.0000
v -4.0000 9.0000 4.0000
v -4.0000 10.0000 4.0000
v -4.0000 10.0000 3.0000
v -4.0000 10.0000 2.0000
v -4.0000 10.0000 1.0000
v -4.0000 10.0000 0.0000
v -4.0000 10.0000 -1.0000
v -4.0000 10.0000 -2.0000
v -4.0000 10.0000 -3.0000
v -4.0000 2.0000 -4.0000
v -4.0000 3.0000 -4.0000
v -4.0000 4.0000 -4.0000
v -4.0000 5.0000 -4.0000
v -4.0000 6.0000 -4.0000
v -4.0000 7.0000 -4.0000
v -4.0000 8.0000 -4.0000
v -4.0000 9.0000 -4.0000
v -4.0000 10.0000 -4.0000
v -3.0000 2.0000 4.0000
v -3.0000 3.0000 4.0000
v -3.0000 4.0000 4.0000
v -3.0000 5.0000 4.0000
v -3.0000 6.0000 4.0000
v -3.0000 7.0000 4.0000
v -3.0000 8.0000 4.0000
v -3.0000 9.0000 4.0000
v -3.0000 10.0000 4.0000
v -3.0000 10.0000 3.0000
v -3.0000 10.0000 2.0000
v -3.0000 10.0000 1.0000
v -3.0000 10.0000 0.0000
v -3.0000 10.0000 -1.0000
v -3.0000 10.0000 -2.0000
v -3.0000 10.0000 -3.0000
v -3.0000 2.0000 -4.0000
v -3.0000 3.0000 -4.0000
v -3.0000 4.0000 -4.0000
v -3.0000 5.0000 -4.0000
v -3.0000 6.0000 -4.0000
v -3.0000 7.0000 -4.0000
v -3.0000 8.0000 -4.0000
v -3.0000 9.0000 -4.0000
v -3.0000 10.0000 -4.0000
v -2.0000 2.0000 4.0000
v -2.0000 3.0000 4.0000
v -2.0000 4.0000 4.0000
v -2.0000 5.0000 4.0000
v -2.0000 6.0000 4.0000
v -2.0000 7.0000 4.0000
v -2.0000 8.0000 4.0000
v -2.0000 9.0000 4.0000
v -2.0000 10.0000 4.0000
v -2.0000 10.0000 3.0000
v -2.0000 10.0000 2.0000
v -2.0000 10.0000 1.0000
v -2.0000 10.0000 0.0000
v -2.0000 10.0000 -1.0000
v -2.0000 10.0000 -2.0000
v -2.0000 10.0000 -3.0000
v -2.0000 2.0000 -4.0000
v -2.0000 3.0000 -4.0000
v -2.0000 4.0000 -4.0000
v -2.0000 5.0000 -4.0000
v -2.0000 6.0000 -4.0000
v -2.0000 7.0000 -4.0000
v -2.0000 8.0000 -4.0000
v -2.0000 9.0000 -4.0000
v -2.0000 10.0000 -4.0000
v -1.0000 2.0000 4.0000
v -1.0000 3.0000 4.0000
v -1.0000 4.0000 4.0000
v -1.0000 5.0000 4.0000
v -1.0000 6.0000 4.0000
v -1.0000 7.0000 4.0000
v -1.0000 8.0000 4.0000
v -1.0000 9.0000 4.0000
v -1.0000 10.0000 4.0000
v -1.0000 10.0000 3.0000
v -1.0000 10.0000 2.0000
v -1.0000 10.0000 1.0000
v -1.0000 10.0000 0.0000
v -1.0000 10.0000 -1.0000
v -1.0000 10.0000 -2.0000
v -1.0000 10.0000 -3.0000
v -1.0000 2.0000 -4.0000
v -1.0000 3.0000 -4.0000
v -1.0000 4.0000 -4.0000
v -1.0000 5.0000 -4.0000
v -1.0000 6.0000 -4.0000
v -1.0000 7.0000 -4.0000
v -1.0000 8.0000 -4.0000
v -1.0000 9.0000 -4.0000
v -1.0000 10.0000 -4.0000
v 0.0000 2.0000 4.0000
v 0.0000 3.0000 4.0000
v 0.0000 4.0000 4.0000
v 0.0000 5.0000 4.0000
v 0.0000 6.0000 4.0000
v 0.0000 7.0000 4.0000
v 0.0000 8.0000 4.0000
v 0.0000 9.0000 4.0000
v 0.0000 10.0000 4.0000
v 0.0000 10.0000 3.0000
v 0.0000 10.0000 2.0000
v 0.0000 10.0000 1.0000
v 0.0000 10.0000 0.0000
v 0.0000 10.0000 -1.0000
v 0.0000 10.0000 -2.0000
v 0.0000 10.0000 -3.0000
v 0.0000 2.0000 -4.0000
v 0.0000 3.0000 -4.0000
v 0.0000 4.0000 -4.0000
v 0.0000 5.0000 -4.0000
v 0.0000 6.0000 -4.0000
v 0.0000 7.0000 -4.0000
v 0.0000 8.0000 -4.0000
v 0.0000 9.0000 -4.0000
v 0.0000 10.0000 -4.0000
v 1.0000 2.0000 4.0000
v 1.0000 3.0000 4.0000
v 1.0000 4.0000 4.0000
v 1.0000 5.0000 4.0000
v 1.0000 6.0000 4.0000
v 1.0000 7.0000 4.0000
v 1.0000 8.0000 4.0000
v 1.0000 9.0000 4.0000
v 1.0000 10.0000 4.0000
v 1.0000 10.0000 3.0000
v 1.0000 10.0000 2.0000
v 1.0000 10.0000 1.0000
v 1.0000 10.0000 0.0000
v 1.0000 10.0000 -1.0000
v 1.0000 10.0000 -2.0000
v 1.0000 10.0000 -3.0000
v 1.0000 2.0000 -4.0000
v 1.0000 3.0000 -4.0000
v 1.0000 4.0000 -4.0000
v 1.0000 5.0000 -4.0000
v 1.0000 6.0000 -4.0000
v 1.0000 7.0000 -4.0000
v 1.0000 8.0000 -4.0000
v 1.0000 9.0000 -4.0000
v 1.0000 10.0000 -4.0000
v 2.0000 2.0000 4.0000
v 2.0000 3.0000 4.0000
v 2.0000 4.0000 4.0000
v 2.0000 5.0000 4.0000
v 2.0000 6.0000 4.0000
v 2.0000 7.0000 4.0000
v 2.0000 8.0000 4.0000
v 2.0000 9.0000 4.0000
v 2.0000 10.0000 4.0000
v 2.0000 10.0000 3.0000
v 2.0000 10.0000 2.0000
v 2.0000 10.0000 1.0000
v 2.0000 10.0000 0.0000
v 2.0000 10.0000 -1.0000
v 2.0000 10.0000 -2.0000
v 2.0000 10.0000 -3.0000
v 2.0000 2.0000 -4.0000
v 2.0000 3.0000 -4.0000
v 2.0000 4.0000 -4.0000
v 2.0000 5.0000 -4.0000
v 2.0000 6.0000 -4.0000
v 2.0000 7.0000 -4.0000
v 2.0000 8.0000 -4.0000
v 2.0000 9.0000 -4.0000
v 2.0000 10.0000 -4.0000
v 3.0000 2.0000 4.0000
v 3.0000 3.0000 4.0000
v 3.0000 4.0000 4.0000
v 3.0000 5.0000 4.0000
v 3.0000 6.0000 4.0000
v 3.0000 7.0000 4.0000
v 3.0000 8.0000 4.0000
v 3.0000 9.0000 4.0000
v 3.0000 10.0000 4.0000
v 3.0000 10.0000 3.0000
v 3.0000 10.0000 2.0000
v 3.0000 10.0000 1.0000
v 3.0000 10.0000 0.0000
v 3.0000 10.0000 -1.0000
v 3.0000 10.0000 -2.0000
v 3.0000 10.0000 -3.0000
v 3.0000 2.0000 -4.0000
v 3.0000 3.0000 -4.0000
v 3.0000 4.0000 -4.0000
v 3.0000 5.0000 -4.0000
v 3.0000 6.0000 -4.0000
v 3.0000 7.0000 -4.0000
v 3.0000 8.0000 -4.0000
v 3.0000 9.0000 -4.0000
v 3.0000 10.0000 -4.0000
v 4.0000 2.0000 4.0000
v 4.0000 3.0000 4.0000
v 4.0000 4.0000 4.0000
v 4.0000 5.0000 4.0000
v 4.0000 6.0000 4.0000
v 4.0000 7.0000 4.0000
v 4.0000 8.0000 4.0000
v 4.0000 9.0000 4.0000
v 4.0000 10.0000 4.0000
v 4.0000 10.0000 3.0000
v 4.0000 10.0000 2.0000
v 4.0000 10.0000 1.0000
v 4.0000 10.0000 0.0000
v 4.0000 10.0000 -1.0000
v 4.0000 10.0000 -2.0000
v 4.0000 10.0000 -3.0000
v 4.0000 2.0000 -4.0000
v 4.0000 3.0000 -4.0000
v 4.0000 4.0000 -4.0000
v 4.0000 5.0000 -4.0000
v 4.0000 6.0000 -4.0000
v 4.0000 7.0000 -4.0000
v 4.0000 8.0000 -4.0000
v 4.0000 9.0000 -4.0000
v 4.0000 10.0000 -4.0000
v 5.0000 2.0000 4.0000
v 5.0000 3.0000 4.0000
v 5.0000 4.0000 4.0000
v 5.0000 5.0000 4.0000
v 5.0000 6.0000 4.0000
v 5.0000 7.0000 4.0000
v 5.0000 8.0000 4.0000
v 5.0000 9.0000 4.0000
v 5.0000 10.0000 4.0000
v 5.0000 10.0000 3.0000
v 5.0000 10.0000 2.0000
v 5.0000 10.0000 1.0000
v 5.0000 10.0000 0.0000
v 5.0000 10.0000 -1.0000
v 5.0000 10.0000 -2.0000
v 5.0000 10.0000 -3.0000
v 5.0000 2.0000 -4.0000
v 5.0000 3.0000 -4.0000
v 5.0000 4.0000 -4.0000
v 5.0000 5.0000 -4.0000
v 5.0000 6.0000 -4.0000
v 5.0000 7.0000 -4.0000
v 5.0000 8.0000 -4.0000
v 5.0000 9.0000 -4.0000
v 5.0000 10.0000 -4.0000
v 6.0000 2.0000 4.0000
v 6.0000 3.0000 4.0000
v 6.0000 4.0000 4.0000
v 6.0000 5.0000 4.0000
v 6.0000 6.0000 4.0000
v 6.0000 7.0000 4.0000
v 6.0000 8.0000 4.0000
v 6.0000 9.0000 4.0000
v 6.0000 10.0000 4.0000
v 6.0000 10.0000 3.0000
v 6.0000 10.0000 2.0000
v 6.0000 10.0000 1.0000
v 6.0000 10.0000 0.0000
v 6.0000 10.0000 -1.0000
v 6.0000 10.0000 -2.0000
v 6.0000 10.0000 -3.0000
v 6.0000 2.0000 -4.0000
v 6.0000 3.0000 -4.0000
v 6.0000 4.0000 -4.0000
v 6.0000 5.0000 -4.0000
v 6.0000 6.0000 -4.0000
v 6.0000 7.0000 -4.0000
v 6.0000 8.0000 -4.0000
v 6.0000 9.0000 -4.0000
v 6.0000 10.0000 -4.0000
v 7.0000 2.0000 3.0000
v 7.0000 2.0000 4.0000
v 7.0000 3.0000 3.0000
v 7.0000 3.0000 4.0000
v 7.0000 4.0000 3.0000
v 7.0000 4.0000 4.0000
v 7.0000 5.0000 3.0000
v 7.0000 5.0000 4.0000
v 7.0000 6.0000 3.0000
v 7.0000 6.0000 4.0000
v 7.0000 7.0000 3.0000
v 7.0000 7.0000 4.0000
v 7.0000 8.0000 3.0000
v 7.0000 8.0000 4.0000
v 7.0000 9.0000 3.0000
v 7.0000 9.0000 4.0000
v 7.0000 10.0000 3.0000
v 7.0000 10.0000 4.0000
v 7.0000 2.0000 2.0000
v 7.0000 3.0000 2.0000
v 7.0000 4.0000 2.0000
v 7.0000 5.0000 2.0000
v 7.0000 6.0000 2.0000
v 7.0000 7.0000 2.0000
v 7.0000 8.0000 2.0000
v 7.0000 9.0000 2.0000
v 7.0000 10.0000 2.0000
v 7.0000 2.0000 1.0000
v 7.0000 3.0000 1.0000
v 7.0000 4.0000 1.0000
v 7.0000 5.0000 1.0000
v 7.0000 6.0000 1.0000
v 7.0000 7.0000 1.0000
v 7.0000 8.0000 1.0000
v 7.0000 9.0000 1.0000
v 7.0000 10.0000 1.0000
v 7.0000 2.0000 0.0000
v 7.0000 3.0000 0.0000
v 7.0000 4.0000 0.0000
v 7.0000 5.0000 0.0000
v 7.0000 6.0000 0.0000
v 7.0000 7.0000 0.0000
v 7.0000 8.0000 0.0000
v 7.0000 9.0000 0.0000
v 7.0000 10.0000 0.0000
v 7.0000 2.0000 -1.0000
v 7.0000 3.0000 -1.0000
v 7.0000 4.0000 -1.0000
v 7.0000 5.0000 -1.0000
v 7.0000 6.0000 -1.0000
v 7.0000 7.0000 -1.0000
v 7.0000 8.0000 -1.0000
v 7.0000 9.0000 -1.0000
v 7.0000 10.0000 -1.0000
v 7.0000 2.0000 -2.0000
v 7.0000 3.0000 -2.0000
v 7.0000 4.0000 -2.0000
v 7.0000 5.0000 -2.0000
v 7.0000 6.0000 -2.0000
v 7.0000 7.0000 -2.0000
v 7.0000 8.0000 -2.0000
v 7.0000 9.0000 -2.0000
v 7.0000 10.0000 -2.0000
v 7.0000 2.0000 -3.0000
v 7.0000 3.0000 -3.0000
v 7.0000 4.0000 -3.0000
v 7.0000 5.0000 -3.0000
v 7.0000 6.0000 -3.0000
v 7.0000 7.0000 -3.0000
v 7.0000 8.0000 -3.0000
v 7.0000 9.0000 -3.0000
v 7.0000 10.0000 -3.0000
v 7.0000 2.0000 -4.0000
v 7.0000 3.0000 -4.0000
v 7.0000 4.0000 -4.0000
v 7.0000 5.0000 -4.0000
v 7.0000 6.0000 -4.0000
v 7.0000 7.0000 -4.0000
v 7.0000 8.0000 -4.0000
v 7.0000 9.0000 -4.0000
v 7.0000 10.0000 -4.0000
usemtl c1
f 2 180 181 3
f 2 6 182 180
f 180 183 184 181
f 180 182 185 183
f 183 186 187 184
f 183 185 188 186
f 186 189 190 187
f 186 188 191 189
f 189 192 193 190
f 189 191 194 192
f 192 195 196 193
f 192 194 197 195
f 3 181 208 8
f 181 184 209 208
f 190 193 212 211
f 193 196 213 212
f 8 208 218 11
f 208 209 219 218
f 211 212 222 221
f 212 213 223 222
f 213 214 224 223
f 214 215 225 224
f 215 216 226 225
f 216 217 227 226
f 11 218 228 14
f 218 219 229 228
f 219 220 230 229
f 220 221 231 230
f 221 222 232 231
f 222 223 233 232
f 223 224 234 233
f 224 225 235 234
f 225 226 236 235
f 226 227 237 236
f 14 228 238 17
f 228 229 239 238
f 229 230 240 239
f 230 231 241 240
f 231 232 242 241
f 232 233 243 242
f 233 234 244 243
f 234 235 245 244
f 235 236 246 245
f 236 237 247 246
f 17 238 248 20
f 238 239 249 248
f 239 240 250 249
f 240 241 251 250
f 241 242 252 251
f 242 243 253 252
f 243 244 254 253
f 244 245 255 254
f 245 246 256 255
f 246 247 257 256
f 20 248 258 23
f 248 249 259 258
f 249 250 260 259
f 250 251 261 260
f 251 252 262 261
f 252 253 263 262
f 253 254 264 263
f 254 255 265 264
f 255 256 266 265
f 256 257 267 266
f 23 258 268 26
f 26 268 269 28
f 258 259 270 268
f 268 270 271 269
f 259 260 272 270
f 270 272 273 271
f 260 261 274 272
f 272 274 275 273
f 261 262 276 274
f 274 276 277 275
f 262 263 278 276
f 276 278 279 277
f 263 264 280 278
f 278 280 281 279
f 264 265 282 280
f 280 282 283 281
f 265 266 284 282
f 282 284 285 283
f 266 267 285 284
f 6 31 286 182
f 217 296 297 227
f 227 297 298 237
f 237 298 299 247
f 247 299 300 257
f 257 300 301 267
f 28 269 302 39
f 269 271 303 302
f 271 273 304 303
f 273 275 305 304
f 275 277 306 305
f 277 279 307 306
f 279 281 308 307
f 281 283 309 308
f 283 285 310 309
f 267 301 310 285
f 31 42 311 286
f 286 311 312 287
f 287 312 313 288
f 288 313 314 289
f 289 314 315 290
f 290 315 316 291
f 296 321 322 297
f 297 322 323 298
f 298 323 324 299
f 299 324 325 300
f 300 325 326 301
f 39 302 327 50
f 302 303 328 327
f 303 304 329 328
f 304 305 330 329
f 305 306 331 330
f 306 307 332 331
f 307 308 333 332
f 308 309 334 333
f 309 310 335 334
f 301 326 335 310
f 42 53 336 311
f 316 341 342 317
f 317 342 343 318
f 318 343 344 319
f 319 344 345 320
f 320 345 346 321
f 321 346 347 322
f 322 347 348 323
f 323 348 349 324
f 324 349 350 325
f 325 350 351 326
f 50 327 352 61
f 327 328 353 352
f 328 329 354 353
f 329 330 355 354
f 330 331 356 355
f 331 332 357 356
f 332 333 358 357
f 333 334 359 358
f 334 335 360 359
f 326 351 360 335
f 53 64 361 336
f 336 361 362 337
f 337 362 363 338
f 338 363 364 339
f 339 364 365 340
f 340 365 366 341
f 341 366 367 342
f 342 367 368 343
f 343 368 369 344
f 344 369 370 345
f 345 370 371 346
f 346 371 372 347
f 347 372 373 348
f 348 373 374 349
f 349 374 375 350
f 350 375 376 351
f 61 352 377 72
f 352 353 378 377
f 353 354 379 378
f 354 355 380 379
f 355 356 381 380
f 356 357 382 381
f 357 358 383 382
f 358 359 384 383
f 359 360 385 384
f 351 376 385 360
f 64 75 386 361
f 366 391 392 367
f 367 392 393 368
f 368 393 394 369
f 369 394 395 370
f 370 395 396 371
f 371 396 397 372
f 372 397 398 373
f 373 398 399 374
f 374 399 400 375
f 375 400 401 376
f 72 377 402 83
f 377 378 403 402
f 378 379 404 403
f 379 380 405 404
f 380 381 406 405
f 381 382 407 406
f 382 383 408 407
f 383 384 409 408
f 384 385 410 409
f 376 401 410 385
f 75 86 411 386
f 386 411 412 387
f 387 412 413 388
f 388 413 414 389
f 389 414 415 390
f 390 415 416 391
f 391 416 417 392
f 392 417 418 393
f 393 418 419 394
f 394 419 420 395
f 395 420 421 396
f 396 421 422 397
f 397 422 423 398
f 398 423 424 399
f 399 424 425 400
f 400 425 426 401
f 83 402 427 94
f 402 403 428 427
f 403 404 429 428
f 404 405 430 429
f 405 406 431 430
f 406 407 432 431
f 407 408 433 432
f 408 409 434 433
f 409 410 435 434
f 401 426 435 410
f 86 97 436 411
f 416 441 442 417
f 417 442 443 418
f 418 443 444 419
f 419 444 445 420
f 420 445 446 421
f 421 446 447 422
f 422 447 448 423
f 423 448 449 424
f 424 449 450 425
f 425 450 451 426
f 94 427 452 105
f 427 428 453 452
f 428 429 454 453
f 429 430 455 454
f 430 431 456 455
f 431 432 457 456
f 432 433 458 457
f 433 434 459 458
f 434 435 460 459
f 426 451 460 435
f 97 108 461 436
f 436 461 462 437
f 437 462 463 438
f 438 463 464 439
f 439 464 465 440
f 440 465 466 441
f 441 466 467 442
f 442 467 468 443
f 443 468 469 444
f 444 469 470 445
f 445 470 471 446
f 446 471 472 447
f 447 472 473 448
f 448 473 474 449
f 449 474 475 450
f 450 475 476 451
f 105 452 477 116
f 452 453 478 477
f 453 454 479 478
f 454 455 480 479
f 455 456 481 480
f 456 457 482 481
f 457 458 483 482
f 458 459 484 483
f 459 460 485 484
f 451 476 485 460
f 108 119 486 461
f 466 491 492 467
f 467 492 493 468
f 468 493 494 469
f 469 494 495 470
f 470 495 496 471
f 471 496 497 472
f 472 497 498 473
f 473 498 499 474
f 474 499 500 475
f 475 500 501 476
f 116 477 502 127
f 477 478 503 502
f 478 479 504 503
f 479 480 505 504
f 480 481 506 505
f 481 482 507 506
f 482 483 508 507
f 483 484 509 508
f 484 485 510 509
f 476 501 510 485
f 119 130 511 486
f 486 511 512 487
f 487 512 513 488
f 488 513 514 489
f 489 514 515 490
f 490 515 516 491
f 491 516 517 492
f 492 517 518 493
f 493 518 519 494
f 494 519 520 495
f 495 520 521 496
f 496 521 522 497
f 497 522 523 498
f 498 523 524 499
f 499 524 525 500
f 500 525 526 501
f 127 502 527 138
f 502 503 528 527
f 503 504 529 528
f 504 505 530 529
f 505 506 531 530
f 506 507 532 531
f 507 508 533 532
f 508 509 534 533
f 509 510 535 534
f 501 526 535 510
f 130 141 536 511
f 521 546 547 522
f 522 547 548 523
f 523 548 549 524
f 524 549 550 525
f 525 550 551 526
f 138 527 552 149
f 527 528 553 552
f 528 529 554 553
f 529 530 555 554
f 530 531 556 555
f 531 532 557 556
f 532 533 558 557
f 533 534 559 558
f 534 535 560 559
f 526 551 560 535
f 141 152 561 536
f 536 561 562 537
f 537 562 563 538
f 538 563 564 539
f 539 564 565 540
f 540 565 566 541
f 546 571 572 547
f 547 572 573 548
f 548 573 574 549
f 549 574 575 550
f 550 575 576 551
f 149 552 577 160
f 552 553 578 577
f 553 554 579 578
f 554 555 580 579
f 555 556 581 580
f 556 557 582 581
f 557 558 583 582
f 558 559 584 583
f 559 560 585 584
f 551 576 585 560
f 165 164 586 587
f 152 165 587 561
f 587 586 588 589
f 561 587 589 562
f 589 588 590 591
f 562 589 591 563
f 591 590 592 593
f 563 591 593 564
f 593 592 594 595
f 564 593 595 565
f 595 594 596 597
f 565 595 597 566
f 164 167 604 586
f 586 604 605 588
f 592 607 608 594
f 594 608 609 596
f 167 169 613 604
f 604 613 614 605
f 607 616 617 608
f 608 617 618 609
f 609 618 619 610
f 610 619 620 611
f 611 620 621 612
f 571 612 621 572
f 169 171 622 613
f 613 622 623 614
f 614 623 624 615
f 615 624 625 616
f 616 625 626 617
f 617 626 627 618
f 618 627 628 619
f 619 628 629 620
f 620 629 630 621
f 572 621 630 573
f 171 173 631 622
f 622 631 632 623
f 623 632 633 624
f 624 633 634 625
f 625 634 635 626
f 626 635 636 627
f 627 636 637 628
f 628 637 638 629
f 629 638 639 630
f 573 630 639 574
f 173 175 640 631
f 631 640 641 632
f 632 641 642 633
f 633 642 643 634
f 634 643 644 635
f 635 644 645 636
f 636 645 646 637
f 637 646 647 638
f 638 647 648 639
f 574 639 648 575
f 175 177 649 640
f 640 649 650 641
f 641 650 651 642
f 642 651 652 643
f 643 652 653 644
f 644 653 654 645
f 645 654 655 646
f 646 655 656 647
f 647 656 657 648
f 575 648 657 576
f 177 179 658 649
f 160 577 658 179
usemtl c2
f 195 198 199 196
f 195 197 200 198
f 198 201 202 199
f 198 200 203 201
f 201 204 205 202
f 201 203 206 204
f 204 206 207 205
f 196 199 214 213
f 199 202 215 214
f 202 205 216 215
f 205 207 217 216
f 197 291 292 200
f 200 292 293 203
f 203 293 294 206
f 206 294 295 207
f 207 295 296 217
f 291 316 317 292
f 292 317 318 293
f 293 318 319 294
f 294 319 320 295
f 295 320 321 296
f 516 541 542 517
f 517 542 543 518
f 518 543 544 519
f 519 544 545 520
f 520 545 546 521
f 541 566 567 542
f 542 567 568 543
f 543 568 569 544
f 544 569 570 545
f 545 570 571 546
f 597 596 598 599
f 566 597 599 567
f 599 598 600 601
f 567 599 601 568
f 601 600 602 603
f 568 601 603 569
f 569 603 602 570
f 596 609 610 598
f 598 610 611 600
f 600 611 612 602
f 570 602 612 571
usemtl c3
f 182 286 287 185
f 185 287 288 188
f 188 288 289 191
f 191 289 290 194
f 194 290 291 197
f 311 336 337 312
f 312 337 338 313
f 313 338 339 314
f 314 339 340 315
f 315 340 341 316
f 361 386 387 362
f 362 387 388 363
f 363 388 389 364
f 364 389 390 365
f 365 390 391 366
f 411 436 437 412
f 412 437 438 413
f 413 438 439 414
f 414 439 440 415
f 415 440 441 416
f 461 486 487 462
f 462 487 488 463
f 463 488 489 464
f 464 489 490 465
f 465 490 491 466
f 511 536 537 512
f 512 537 538 513
f 513 538 539 514
f 514 539 540 515
f 515 540 541 516
usemtl c4
f 184 187 210 209
f 187 190 211 210
f 209 210 220 219
f 210 211 221 220
f 588 605 606 590
f 590 606 607 592
f 605 614 615 606
f 606 615 616 607
usemtl c5
f 649 658 659 650
f 577 578 659 658
f 650 659 660 651
f 578 579 660 659
f 651 660 661 652
f 579 580 661 660
f 652 661 662 653
f 580 581 662 661
f 653 662 663 654
f 581 582 663 662
f 654 663 664 655
f 582 583 664 663
f 655 664 665 656
f 583 584 665 664
f 656 665 666 657
f 584 585 666 665
f 576 657 666 585
usemtl c6
f 1 2 3 4
f 1 5 6 2
f 1 4 7 5
f 4 3 8 9
f 4 9 10 7
f 9 8 11 12
f 9 12 13 10
f 12 11 14 15
f 12 15 16 13
f 15 14 17 18
f 15 18 19 16
f 18 17 20 21
f 18 21 22 19
f 21 20 23 24
f 21 24 25 22
f 24 23 26 27
f 27 26 28 29
f 24 27 29 25
f 5 30 31 6
f 5 7 32 30
f 7 10 33 32
f 10 13 34 33
f 13 16 35 34
f 16 19 36 35
f 19 22 37 36
f 22 25 38 37
f 29 28 39 40
f 25 29 40 38
f 30 41 42 31
f 30 32 43 41
f 32 33 44 43
f 33 34 45 44
f 34 35 46 45
f 35 36 47 46
f 36 37 48 47
f 37 38 49 48
f 40 39 50 51
f 38 40 51 49
f 41 52 53 42
f 41 43 54 52
f 43 44 55 54
f 44 45 56 55
f 45 46 57 56
f 46 47 58 57
f 47 48 59 58
f 48 49 60 59
f 51 50 61 62
f 49 51 62 60
f 52 63 64 53
f 52 54 65 63
f 54 55 66 65
f 55 56 67 66
f 56 57 68 67
f 57 58 69 68
f 58 59 70 69
f 59 60 71 70
f 62 61 72 73
f 60 62 73 71
f 63 74 75 64
f 63 65 76 74
f 65 66 77 76
f 66 67 78 77
f 67 68 79 78
f 68 69 80 79
f 69 70 81 80
f 70 71 82 81
f 73 72 83 84
f 71 73 84 82
f 74 85 86 75
f 74 76 87 85
f 76 77 88 87
f 77 78 89 88
f 78 79 90 89
f 79 80 91 90
f 80 81 92 91
f 81 82 93 92
f 84 83 94 95
f 82 84 95 93
f 85 96 97 86
f 85 87 98 96
f 87 88 99 98
f 88 89 100 99
f 89 90 101 100
f 90 91 102 101
f 91 92 103 102
f 92 93 104 103
f 95 94 105 106
f 93 95 106 104
f 96 107 108 97
f 96 98 109 107
f 98 99 110 109
f 99 100 111 110
f 100 101 112 111
f 101 102 113 112
f 102 103 114 113
f 103 104 115 114
f 106 105 116 117
f 104 106 117 115
f 107 118 119 108
f 107 109 120 118
f 109 110 121 120
f 110 111 122 121
f 111 112 123 122
f 112 113 124 123
f 113 114 125 124
f 114 115 126 125
f 117 116 127 128
f 115 117 128 126
f 118 129 130 119
f 118 120 131 129
f 120 121 132 131
f 121 122 133 132
f 122 123 134 133
f 123 124 135 134
f 124 125 136 135
f 125 126 137 136
f 128 127 138 139
f 126 128 139 137
f 129 140 141 130
f 129 131 142 140
f 131 132 143 142
f 132 133 144 143
f 133 134 145 144
f 134 135 146 145
f 135 136 147 146
f 136 137 148 147
f 139 138 149 150
f 137 139 150 148
f 140 151 152 141
f 140 142 153 151
f 142 143 154 153
f 143 144 155 154
f 144 145 156 155
f 145 146 157 156
f 146 147 158 157
f 147 148 159 158
f 150 149 160 161
f 148 150 161 159
f 162 163 164 165
f 151 162 165 152
f 151 153 163 162
f 163 166 167 164
f 153 154 166 163
f 166 168 169 167
f 154 155 168 166
f 168 170 171 169
f 155 156 170 168
f 170 172 173 171
f 156 157 172 170
f 172 174 175 173
f 157 158 174 172
f 174 176 177 175
f 158 159 176 174
f 176 178 179 177
f 161 160 179 178
f 159 161 178 176
