# generado por tools/vox_to_obj.py desde sorgo_v3.vox
mtllib sorgo_v3.mtl
v -2.0000 0.0000 2.0000
v -2.0000 1.0000 2.0000
v -2.0000 1.0000 1.0000
v -2.0000 0.0000 1.0000
v -1.0000 0.0000 2.0000
v -1.0000 1.0000 2.0000
v -1.0000 1.0000 1.0000
v -1.0000 0.0000 1.0000
v -2.0000 1.0000 0.0000
v -2.0000 0.0000 0.0000
v -1.0000 1.0000 0.0000
v -1.0000 0.0000 0.0000
v -2.0000 1.0000 -1.0000
v -2.0000 0.0000 -1.0000
v -1.0000 1.0000 -1.0000
v -1.0000 0.0000 -1.0000
v -2.0000 1.0000 -2.0000
v -2.0000 0.0000 -2.0000
v -1.0000 1.0000 -2.0000
v -1.0000 0.0000 -2.0000
v 0.0000 0.0000 2.0000
v 0.0000 1.0000 2.0000
v 0.0000 1.0000 1.0000
v 0.0000 0.0000 1.0000
v 0.0000 0.0000 0.0000
v 0.0000 0.0000 -1.0000
v 0.0000 1.0000 -2.0000
v 0.0000 0.0000 -2.0000
v 0.0000 1.0000 -1.0000
v 1.0000 0.0000 2.0000
v 1.0000 1.0000 2.0000
v 1.0000 1.0000 1.0000
v 1.0000 0.0000 1.0000
v 1.0000 0.0000 0.0000
v 1.0000 0.0000 -1.0000
v 1.0000 1.0000 -2.0000
v 1.0000 0.0000 -2.0000
v 1.0000 1.0000 -1.0000
v 2.0000 0.0000 2.0000
v 2.0000 0.0000 1.0000
v 2.0000 1.0000 1.0000
v 2.0000 1.0000 2.0000
v 2.0000 0.0000 0.0000
v 2.0000 1.0000 0.0000
v 1.0000 1.0000 0.0000
v 2.0000 0.0000 -1.0000
v 2.0000 1.0000 -1.0000
v 2.0000 0.0000 -2.0000
v 2.0000 1.0000 -2.0000
v -1.0000 2.0000 1.0000
v -1.0000 2.0000 0.0000
v 0.0000 2.0000 1.0000
v -1.0000 3.0000 1.0000
v -1.0000 3.0000 0.0000
v 0.0000 3.0000 1.0000
v -1.0000 4.0000 1.0000
v -1.0000 4.0000 0.0000
v 0.0000 4.0000 1.0000
v 0.0000 5.0000 1.0000
v -1.0000 5.0000 1.0000
v -1.0000 6.0000 1.0000
v -1.0000 6.0000 0.0000
v -1.0000 5.0000 0.0000
v 0.0000 6.0000 1.0000
v -1.0000 7.0000 1.0000
v -1.0000 7.0000 0.0000
v 0.0000 7.0000 1.0000
v -1.0000 8.0000 1.0000
v -1.0000 8.0000 0.0000
v 0.0000 8.0000 1.0000
v -1.0000 9.0000 1.0000
v -1.0000 9.0000 0.0000
v 0.0000 9.0000 1.0000
v -1.0000 10.0000 1.0000
v -1.0000 10.0000 0.0000
v 0.0000 10.0000 1.0000
v -1.0000 11.0000 1.0000
v -1.0000 11.0000 0.0000
v 0.0000 11.0000 1.0000
v -1.0000 12.0000 1.0000
v -1.0000 12.0000 0.0000
v 0.0000 12.0000 1.0000
v -1.0000 13.0000 1.0000
v -1.0000 13.0000 0.0000
v -1.0000 14.0000 1.0000
v -1.0000 14.0000 0.0000
v 0.0000 13.0000 1.0000
v 0.0000 14.0000 1.0000
v -1.0000 15.0000 1.0000
v -1.0000 15.0000 0.0000
v 0.0000 15.0000 1.0000
v -1.0000 16.0000 1.0000
v -1.0000 16.0000 0.0000
v 0.0000 16.0000 1.0000
v -1.0000 17.0000 1.0000
v -1.0000 17.0000 0.0000
v 0.0000 17.0000 1.0000
v -1.0000 18.0000 1.0000
v -1.0000 18.0000 0.0000
v 0.0000 18.0000 1.0000
v -1.0000 19.0000 1.0000
v -1.0000 19.0000 0.0000
v 0.0000 19.0000 1.0000
v -1.0000 20.0000 1.0000
v -1.0000 20.0000 0.0000
v 0.0000 20.0000 1.0000
v 0.0000 21.0000 1.0000
v -1.0000 21.0000 1.0000
v -1.0000 22.0000 1.0000
v -1.0000 22.0000 0.0000
v -1.0000 21.0000 0.0000
v 0.0000 22.0000 1.0000
v -1.0000 23.0000 1.0000
v -1.0000 23.0000 0.0000
v 0.0000 23.0000 1.0000
v -1.0000 24.0000 1.0000
v -1.0000 24.0000 0.0000
v 0.0000 24.0000 1.0000
v -1.0000 25.0000 1.0000
v -1.0000 25.0000 0.0000
v 0.0000 25.0000 1.0000
v -1.0000 2.0000 -1.0000
v 0.0000 2.0000 -1.0000
v -1.0000 3.0000 -1.0000
v 0.0000 3.0000 -1.0000
v -1.0000 4.0000 -1.0000
v 0.0000 4.0000 -1.0000
v -1.0000 5.0000 -1.0000
v 0.0000 5.0000 -1.0000
v -1.0000 6.0000 -1.0000
v 0.0000 6.0000 -1.0000
v -1.0000 7.0000 -1.0000
v 0.0000 7.0000 -1.0000
v -1.0000 8.0000 -1.0000
v 0.0000 8.0000 -1.0000
v -1.0000 9.0000 -1.0000
v 0.0000 9.0000 -1.0000
v -1.0000 10.0000 -1.0000
v 0.0000 10.0000 -1.0000
v -1.0000 11.0000 -1.0000
v 0.0000 11.0000 -1.0000
v -1.0000 12.0000 -1.0000
v 0.0000 12.0000 -1.0000
v -1.0000 13.0000 -1.0000
v 0.0000 13.0000 -1.0000
v -1.0000 14.0000 -1.0000
v 0.0000 14.0000 -1.0000
v -1.0000 15.0000 -1.0000
v 0.0000 15.0000 -1.0000
v -1.0000 16.0000 -1.0000
v 0.0000 16.0000 -1.0000
v -1.0000 17.0000 -1.0000
v -1.0000 18.0000 -1.0000
v 0.0000 18.0000 -1.0000
v 0.0000 17.0000 -1.0000
v -1.0000 19.0000 -1.0000
v 0.0000 19.0000 -1.0000
v -1.0000 20.0000 -1.0000
v 0.0000 20.0000 -1.0000
v -1.0000 21.0000 -1.0000
v 0.0000 21.0000 -1.0000
v -1.0000 22.0000 -1.0000
v 0.0000 22.0000 -1.0000
v -1.0000 23.0000 -1.0000
v 0.0000 23.0000 -1.0000
v -1.0000 24.0000 -1.0000
v 0.0000 24.0000 -1.0000
v -1.0000 25.0000 -1.0000
v 0.0000 25.0000 -1.0000
v 1.0000 2.0000 0.0000
v 1.0000 2.0000 1.0000
v 1.0000 3.0000 0.0000
v 1.0000 3.0000 1.0000
v 1.0000 4.0000 0.0000
v 1.0000 4.0000 1.0000
v 1.0000 5.0000 0.0000
v 1.0000 5.0000 1.0000
v 1.0000 6.0000 0.0000
v 1.0000 6.0000 1.0000
v 1.0000 7.0000 0.0000
v 1.0000 7.0000 1.0000
v 1.0000 8.0000 0.0000
v 1.0000 8.0000 1.0000
v 1.0000 9.0000 1.0000
v 1.0000 9.0000 0.0000
v 1.0000 10.0000 0.0000
v 1.0000 10.0000 1.0000
v 1.0000 11.0000 0.0000
v 1.0000 11.0000 1.0000
v 1.0000 12.0000 0.0000
v 1.0000 12.0000 1.0000
v 1.0000 13.0000 0.0000
v 1.0000 13.0000 1.0000
v 1.0000 14.0000 0.0000
v 1.0000 14.0000 1.0000
v 1.0000 15.0000 0.0000
v 1.0000 15.0000 1.0000
v 1.0000 16.0000 0.0000
v 1.0000 16.0000 1.0000
v 1.0000 17.0000 0.0000
v 1.0000 17.0000 1.0000
v 1.0000 18.0000 0.0000
v 1.0000 18.0000 1.0000
v 1.0000 19.0000 0.0000
v 1.0000 19.0000 1.0000
v 1.0000 20.0000 0.0000
v 1.0000 20.0000 1.0000
v 1.0000 21.0000 0.0000
v 1.0000 21.0000 1.0000
v 1.0000 22.0000 0.0000
v 1.0000 22.0000 1.0000
v 1.0000 23.0000 0.0000
v 1.0000 23.0000 1.0000
v 1.0000 24.0000 0.0000
v 1.0000 24.0000 1.0000
v 1.0000 25.0000 1.0000
v 1.0000 2.0000 -1.0000
v 1.0000 3.0000 -1.0000
v 1.0000 4.0000 -1.0000
v 1.0000 5.0000 -1.0000
v 1.0000 6.0000 -1.0000
v 1.0000 7.0000 -1.0000
v 1.0000 8.0000 -1.0000
v 1.0000 9.0000 -1.0000
v 1.0000 10.0000 -1.0000
v 1.0000 11.0000 -1.0000
v 1.0000 12.0000 -1.0000
v 1.0000 13.0000 -1.0000
v 1.0000 14.0000 -1.0000
v 1.0000 15.0000 -1.0000
v 1.0000 16.0000 -1.0000
v 1.0000 17.0000 -1.0000
v 1.0000 18.0000 -1.0000
v 1.0000 19.0000 -1.0000
v 1.0000 20.0000 -1.0000
v 1.0000 21.0000 -1.0000
v 1.0000 22.0000 -1.0000
v 1.0000 23.0000 -1.0000
v 1.0000 24.0000 -1.0000
v 1.0000 25.0000 -1.0000
v -8.0000 4.0000 1.0000
v -8.0000 5.0000 1.0000
v -8.0000 5.0000 0.0000
v -8.0000 4.0000 0.0000
v -7.0000 4.0000 1.0000
v -7.0000 5.0000 1.0000
v -7.0000 5.0000 0.0000
v -8.0000 5.0000 -1.0000
v -8.0000 4.0000 -1.0000
v -7.0000 5.0000 -1.0000
v -7.0000 4.0000 -1.0000
v -6.0000 4.0000 1.0000
v -6.0000 5.0000 1.0000
v -6.0000 5.0000 0.0000
v -6.0000 5.0000 -1.0000
v -6.0000 4.0000 -1.0000
v -5.0000 4.0000 1.0000
v -5.0000 5.0000 1.0000
v -5.0000 5.0000 0.0000
v -6.0000 4.0000 0.0000
v -5.0000 4.0000 0.0000
v -5.0000 5.0000 -1.0000
v -5.0000 4.0000 -1.0000
v -4.0000 4.0000 1.0000
v -4.0000 5.0000 1.0000
v -4.0000 5.0000 0.0000
v -4.0000 4.0000 0.0000
v -4.0000 5.0000 -1.0000
v -4.0000 4.0000 -1.0000
v -3.0000 4.0000 1.0000
v -3.0000 5.0000 1.0000
v -3.0000 5.0000 0.0000
v -3.0000 4.0000 0.0000
v -3.0000 5.0000 -1.0000
v -3.0000 4.0000 -1.0000
v -2.0000 4.0000 1.0000
v -2.0000 5.0000 1.0000
v -2.0000 5.0000 0.0000
v -2.0000 4.0000 0.0000
v -2.0000 5.0000 -1.0000
v -2.0000 4.0000 -1.0000
v -8.0000 3.0000 1.0000
v -8.0000 3.0000 0.0000
v -7.0000 3.0000 1.0000
v -7.0000 3.0000 0.0000
v -8.0000 3.0000 -1.0000
v -7.0000 3.0000 -1.0000
v -6.0000 3.0000 1.0000
v -6.0000 3.0000 0.0000
v -6.0000 3.0000 -1.0000
v 2.0000 8.0000 1.0000
v 2.0000 9.0000 1.0000
v 2.0000 9.0000 0.0000
v 2.0000 8.0000 0.0000
v 2.0000 9.0000 -1.0000
v 2.0000 8.0000 -1.0000
v 3.0000 8.0000 1.0000
v 3.0000 9.0000 1.0000
v 3.0000 9.0000 0.0000
v 3.0000 8.0000 0.0000
v 3.0000 9.0000 -1.0000
v 3.0000 8.0000 -1.0000
v 4.0000 8.0000 1.0000
v 4.0000 9.0000 1.0000
v 4.0000 9.0000 0.0000
v 4.0000 8.0000 0.0000
v 4.0000 9.0000 -1.0000
v 4.0000 8.0000 -1.0000
v 5.0000 8.0000 1.0000
v 5.0000 9.0000 1.0000
v 5.0000 9.0000 0.0000
v 5.0000 8.0000 0.0000
v 5.0000 9.0000 -1.0000
v 5.0000 8.0000 -1.0000
v 6.0000 8.0000 1.0000
v 6.0000 9.0000 1.0000
v 6.0000 9.0000 0.0000
v 6.0000 8.0000 0.0000
v 6.0000 9.0000 -1.0000
v 6.0000 8.0000 -1.0000
v 7.0000 8.0000 1.0000
v 7.0000 9.0000 1.0000
v 7.0000 9.0000 0.0000
v 7.0000 9.0000 -1.0000
v 7.0000 8.0000 -1.0000
v 8.0000 8.0000 1.0000
v 8.0000 8.0000 0.0000
v 8.0000 9.0000 0.0000
v 8.0000 9.0000 1.0000
v 8.0000 8.0000 -1.0000
v 8.0000 9.0000 -1.0000
v 6.0000 7.0000 1.0000
v 6.0000 7.0000 0.0000
v 7.0000 7.0000 1.0000
v 7.0000 7.0000 0.0000
v 6.0000 7.0000 -1.0000
v 7.0000 7.0000 -1.0000
v 8.0000 7.0000 1.0000
v 8.0000 7.0000 0.0000
v 8.0000 7.0000 -1.0000
v -1.0000 12.0000 8.0000
v -1.0000 13.0000 8.0000
v -1.0000 13.0000 7.0000
v -1.0000 12.0000 7.0000
v 0.0000 12.0000 8.0000
v 0.0000 13.0000 8.0000
v 0.0000 13.0000 7.0000
v -1.0000 13.0000 6.0000
v -1.0000 12.0000 6.0000
v 0.0000 13.0000 6.0000
v -1.0000 13.0000 5.0000
v -1.0000 12.0000 5.0000
v 0.0000 13.0000 5.0000
v 0.0000 12.0000 5.0000
v 0.0000 12.0000 6.0000
v -1.0000 13.0000 4.0000
v -1.0000 12.0000 4.0000
v 0.0000 13.0000 4.0000
v 0.0000 12.0000 4.0000
v -1.0000 13.0000 3.0000
v -1.0000 12.0000 3.0000
v 0.0000 13.0000 3.0000
v 0.0000 12.0000 3.0000
v -1.0000 13.0000 2.0000
v -1.0000 12.0000 2.0000
v 0.0000 13.0000 2.0000
v 0.0000 12.0000 2.0000
v 1.0000 12.0000 8.0000
v 1.0000 12.0000 7.0000
v 1.0000 13.0000 7.0000
v 1.0000 13.0000 8.0000
v 1.0000 12.0000 6.0000
v 1.0000 13.0000 6.0000
v 1.0000 12.0000 5.0000
v 1.0000 13.0000 5.0000
v 1.0000 12.0000 4.0000
v 1.0000 13.0000 4.0000
v 1.0000 12.0000 3.0000
v 1.0000 13.0000 3.0000
v 1.0000 12.0000 2.0000
v 1.0000 13.0000 2.0000
v -1.0000 11.0000 8.0000
v -1.0000 11.0000 7.0000
v 0.0000 11.0000 8.0000
v 0.0000 11.0000 7.0000
v -1.0000 11.0000 6.0000
v 0.0000 11.0000 6.0000
v 1.0000 11.0000 8.0000
v 1.0000 11.0000 7.0000
v 1.0000 11.0000 6.0000
v -1.0000 17.0000 -2.0000
v -1.0000 16.0000 -2.0000
v 0.0000 17.0000 -2.0000
v 0.0000 16.0000 -2.0000
v -1.0000 17.0000 -3.0000
v -1.0000 16.0000 -3.0000
v 0.0000 17.0000 -3.0000
v 0.0000 16.0000 -3.0000
v -1.0000 17.0000 -4.0000
v -1.0000 16.0000 -4.0000
v 0.0000 17.0000 -4.0000
v 0.0000 16.0000 -4.0000
v -1.0000 17.0000 -5.0000
v -1.0000 16.0000 -5.0000
v 0.0000 17.0000 -5.0000
v 0.0000 16.0000 -5.0000
v -1.0000 17.0000 -6.0000
v -1.0000 16.0000 -6.0000
v 0.0000 17.0000 -6.0000
v 0.0000 16.0000 -6.0000
v -1.0000 17.0000 -7.0000
v -1.0000 16.0000 -7.0000
v 0.0000 17.0000 -7.0000
v -1.0000 17.0000 -8.0000
v -1.0000 16.0000 -8.0000
v 0.0000 17.0000 -8.0000
v 0.0000 16.0000 -8.0000
v 1.0000 16.0000 -2.0000
v 1.0000 17.0000 -2.0000
v 1.0000 16.0000 -3.0000
v 1.0000 17.0000 -3.0000
v 1.0000 16.0000 -4.0000
v 1.0000 17.0000 -4.0000
v 1.0000 16.0000 -5.0000
v 1.0000 17.0000 -5.0000
v 1.0000 16.0000 -6.0000
v 1.0000 17.0000 -6.0000
v 1.0000 16.0000 -7.0000
v 1.0000 17.0000 -7.0000
v 1.0000 16.0000 -8.0000
v 1.0000 17.0000 -8.0000
v -1.0000 15.0000 -6.0000
v -1.0000 15.0000 -7.0000
v 0.0000 15.0000 -6.0000
v 0.0000 15.0000 -7.0000
v -1.0000 15.0000 -8.0000
v 0.0000 15.0000 -8.0000
v 1.0000 15.0000 -6.0000
v 1.0000 15.0000 -7.0000
v 1.0000 15.0000 -8.0000
v -8.0000 20.0000 1.0000
v -8.0000 21.0000 1.0000
v -8.0000 21.0000 0.0000
v -8.0000 20.0000 0.0000
v -7.0000 20.0000 1.0000
v -7.0000 21.0000 1.0000
v -7.0000 21.0000 0.0000
v -8.0000 21.0000 -1.0000
v -8.0000 20.0000 -1.0000
v -7.0000 21.0000 -1.0000
v -7.0000 20.0000 -1.0000
v -6.0000 20.0000 1.0000
v -6.0000 21.0000 1.0000
v -6.0000 21.0000 0.0000
v -6.0000 21.0000 -1.0000
v -6.0000 20.0000 -1.0000
v -5.0000 20.0000 1.0000
v -5.0000 21.0000 1.0000
v -5.0000 21.0000 0.0000
v -6.0000 20.0000 0.0000
v -5.0000 20.0000 0.0000
v -5.0000 21.0000 -1.0000
v -5.0000 20.0000 -1.0000
v -4.0000 20.0000 1.0000
v -4.0000 21.0000 1.0000
v -4.0000 21.0000 0.0000
v -4.0000 20.0000 0.0000
v -4.0000 21.0000 -1.0000
v -4.0000 20.0000 -1.0000
v -3.0000 20.0000 1.0000
v -3.0000 21.0000 1.0000
v -3.0000 21.0000 0.0000
v -3.0000 20.0000 0.0000
v -3.0000 21.0000 -1.0000
v -3.0000 20.0000 -1.0000
v -2.0000 20.0000 1.0000
v -2.0000 21.0000 1.0000
v -2.0000 21.0000 0.0000
v -2.0000 20.0000 0.0000
v -2.0000 21.0000 -1.0000
v -2.0000 20.0000 -1.0000
v -8.0000 19.0000 1.0000
v -8.0000 19.0000 0.0000
v -7.0000 19.0000 1.0000
v -7.0000 19.0000 0.0000
v -8.0000 19.0000 -1.0000
v -7.0000 19.0000 -1.0000
v -6.0000 19.0000 1.0000
v -6.0000 19.0000 0.0000
v -6.0000 19.0000 -1.0000
v 2.0000 24.0000 1.0000
v 2.0000 25.0000 1.0000
v 2.0000 24.0000 0.0000
v 2.0000 25.0000 -1.0000
v 2.0000 24.0000 -1.0000
v 3.0000 24.0000 1.0000
v 3.0000 25.0000 1.0000
v 3.0000 24.0000 0.0000
v 3.0000 25.0000 -1.0000
v 3.0000 24.0000 -1.0000
v 4.0000 24.0000 1.0000
v 4.0000 25.0000 1.0000
v 4.0000 25.0000 0.0000
v 3.0000 25.0000 0.0000
v 4.0000 24.0000 0.0000
v 4.0000 25.0000 -1.0000
v 4.0000 24.0000 -1.0000
v 5.0000 24.0000 1.0000
v 5.0000 25.0000 1.0000
v 5.0000 25.0000 0.0000
v 5.0000 24.0000 0.0000
v 5.0000 25.0000 -1.0000
v 5.0000 24.0000 -1.0000
v 6.0000 24.0000 1.0000
v 6.0000 25.0000 1.0000
v 6.0000 25.0000 0.0000
v 6.0000 24.0000 0.0000
v 6.0000 25.0000 -1.0000
v 6.0000 24.0000 -1.0000
v 7.0000 24.0000 1.0000
v 7.0000 25.0000 1.0000
v 7.0000 25.0000 0.0000
v 7.0000 25.0000 -1.0000
v 7.0000 24.0000 -1.0000
v 8.0000 24.0000 1.0000
v 8.0000 24.0000 0.0000
v 8.0000 25.0000 0.0000
v 8.0000 25.0000 1.0000
v 8.0000 24.0000 -1.0000
v 8.0000 25.0000 -1.0000
v 6.0000 23.0000 1.0000
v 6.0000 23.0000 0.0000
v 7.0000 23.0000 1.0000
v 7.0000 23.0000 0.0000
v 6.0000 23.0000 -1.0000
v 7.0000 23.0000 -1.0000
v 8.0000 23.0000 1.0000
v 8.0000 23.0000 0.0000
v 8.0000 23.0000 -1.0000
v -3.0000 25.0000 3.0000
v -3.0000 26.0000 3.0000
v -3.0000 26.0000 2.0000
v -3.0000 25.0000 2.0000
v -2.0000 25.0000 3.0000
v -2.0000 26.0000 3.0000
v -2.0000 25.0000 2.0000
v -3.0000 27.0000 3.0000
v -3.0000 27.0000 2.0000
v -2.0000 27.0000 3.0000
v -3.0000 26.0000 1.0000
v -3.0000 25.0000 1.0000
v -2.0000 25.0000 1.0000
v -3.0000 27.0000 1.0000
v -3.0000 26.0000 0.0000
v -3.0000 25.0000 0.0000
v -2.0000 25.0000 0.0000
v -3.0000 27.0000 0.0000
v -3.0000 26.0000 -1.0000
v -3.0000 25.0000 -1.0000
v -2.0000 25.0000 -1.0000
v -3.0000 27.0000 -1.0000
v -3.0000 26.0000 -2.0000
v -3.0000 25.0000 -2.0000
v -2.0000 25.0000 -2.0000
v -3.0000 27.0000 -2.0000
v -3.0000 26.0000 -3.0000
v -3.0000 25.0000 -3.0000
v -2.0000 26.0000 -3.0000
v -2.0000 25.0000 -3.0000
v -3.0000 27.0000 -3.0000
v -2.0000 27.0000 -3.0000
v -1.0000 25.0000 3.0000
v -1.0000 26.0000 3.0000
v -1.0000 25.0000 2.0000
v -1.0000 27.0000 3.0000
v -1.0000 25.0000 -2.0000
v -1.0000 26.0000 -3.0000
v -1.0000 25.0000 -3.0000
v -1.0000 27.0000 -3.0000
v 0.0000 25.0000 3.0000
v 0.0000 26.0000 3.0000
v 0.0000 25.0000 2.0000
v 0.0000 27.0000 3.0000
v 0.0000 25.0000 -2.0000
v 0.0000 26.0000 -3.0000
v 0.0000 25.0000 -3.0000
v 0.0000 27.0000 -3.0000
v 1.0000 25.0000 3.0000
v 1.0000 26.0000 3.0000
v 1.0000 25.0000 2.0000
v 1.0000 27.0000 3.0000
v 1.0000 25.0000 -2.0000
v 1.0000 26.0000 -3.0000
v 1.0000 25.0000 -3.0000
v 1.0000 27.0000 -3.0000
v 2.0000 25.0000 3.0000
v 2.0000 26.0000 3.0000
v 2.0000 25.0000 2.0000
v 2.0000 27.0000 3.0000
v 2.0000 25.0000 -2.0000
v 2.0000 26.0000 -3.0000
v 2.0000 25.0000 -3.0000
v 2.0000 27.0000 -3.0000
v 3.0000 25.0000 3.0000
v 3.0000 25.0000 2.0000
v 3.0000 26.0000 2.0000
v 3.0000 26.0000 3.0000
v 3.0000 27.0000 2.0000
v 3.0000 27.0000 3.0000
v 3.0000 26.0000 1.0000
v 3.0000 27.0000 1.0000
v 3.0000 26.0000 0.0000
v 3.0000 27.0000 0.0000
v 3.0000 26.0000 -1.0000
v 3.0000 27.0000 -1.0000
v 3.0000 25.0000 -2.0000
v 3.0000 26.0000 -2.0000
v 3.0000 27.0000 -2.0000
v 3.0000 25.0000 -3.0000
v 3.0000 26.0000 -3.0000
v 3.0000 27.0000 -3.0000
v -4.0000 27.0000 4.0000
v -4.0000 28.0000 4.0000
v -4.0000 28.0000 3.0000
v -4.0000 27.0000 3.0000
v -3.0000 27.0000 4.0000
v -3.0000 28.0000 4.0000
v -4.0000 29.0000 4.0000
v -4.0000 29.0000 3.0000
v -3.0000 29.0000 4.0000
v -4.0000 30.0000 4.0000
v -4.0000 30.0000 3.0000
v -3.0000 30.0000 4.0000
v -4.0000 31.0000 4.0000
v -4.0000 31.0000 3.0000
v -3.0000 31.0000 4.0000
v -3.0000 31.0000 3.0000
v -4.0000 28.0000 2.0000
v -4.0000 27.0000 2.0000
v -4.0000 29.0000 2.0000
v -4.0000 30.0000 2.0000
v -4.0000 31.0000 2.0000
v -3.0000 31.0000 2.0000
v -4.0000 28.0000 1.0000
v -4.0000 27.0000 1.0000
v -4.0000 29.0000 1.0000
v -4.0000 30.0000 1.0000
v -4.0000 31.0000 1.0000
v -3.0000 31.0000 1.0000
v -4.0000 28.0000 0.0000
v -4.0000 27.0000 0.0000
v -4.0000 29.0000 0.0000
v -4.0000 30.0000 0.0000
v -4.0000 31.0000 0.0000
v -3.0000 31.0000 0.0000
v -4.0000 28.0000 -1.0000
v -4.0000 27.0000 -1.0000
v -4.0000 29.0000 -1.0000
v -4.0000 30.0000 -1.0000
v -4.0000 31.0000 -1.0000
v -3.0000 31.0000 -1.0000
v -4.0000 28.0000 -2.0000
v -4.0000 27.0000 -2.0000
v -4.0000 29.0000 -2.0000
v -4.0000 30.0000 -2.0000
v -4.0000 31.0000 -2.0000
v -3.0000 31.0000 -2.0000
v -4.0000 28.0000 -3.0000
v -4.0000 27.0000 -3.0000
v -4.0000 29.0000 -3.0000
v -4.0000 30.0000 -3.0000
v -4.0000 31.0000 -3.0000
v -3.0000 31.0000 -3.0000
v -4.0000 28.0000 -4.0000
v -4.0000 27.0000 -4.0000
v -3.0000 28.0000 -4.0000
v -3.0000 27.0000 -4.0000
v -4.0000 29.0000 -4.0000
v -3.0000 29.0000 -4.0000
v -4.0000 30.0000 -4.0000
v -3.0000 30.0000 -4.0000
v -4.0000 31.0000 -4.0000
v -3.0000 31.0000 -4.0000
v -2.0000 27.0000 4.0000
v -2.0000 28.0000 4.0000
v -2.0000 29.0000 4.0000
v -2.0000 30.0000 4.0000
v -2.0000 31.0000 4.0000
v -2.0000 31.0000 3.0000
v -2.0000 28.0000 -4.0000
v -2.0000 27.0000 -4.0000
v -2.0000 29.0000 -4.0000
v -2.0000 30.0000 -4.0000
v -2.0000 31.0000 -4.0000
v -2.0000 31.0000 -3.0000
v -1.0000 27.0000 4.0000
v -1.0000 28.0000 4.0000
v -1.0000 29.0000 4.0000
v -1.0000 30.0000 4.0000
v -1.0000 31.0000 4.0000
v -1.0000 31.0000 3.0000
v -1.0000 28.0000 -4.0000
v -1.0000 27.0000 -4.0000
v -1.0000 29.0000 -4.0000
v -1.0000 30.0000 -4.0000
v -1.0000 31.0000 -4.0000
v -1.0000 31.0000 -3.0000
v 0.0000 27.0000 4.0000
v 0.0000 28.0000 4.0000
v 0.0000 29.0000 4.0000
v 0.0000 30.0000 4.0000
v 0.0000 31.0000 4.0000
v 0.0000 31.0000 3.0000
v 0.0000 28.0000 -4.0000
v 0.0000 27.0000 -4.0000
v 0.0000 29.0000 -4.0000
v 0.0000 30.0000 -4.0000
v 0.0000 31.0000 -4.0000
v 0.0000 31.0000 -3.0000
v 1.0000 27.0000 4.0000
v 1.0000 28.0000 4.0000
v 1.0000 29.0000 4.0000
v 1.0000 30.0000 4.0000
v 1.0000 31.0000 4.0000
v 1.0000 31.0000 3.0000
v 1.0000 28.0000 -4.0000
v 1.0000 27.0000 -4.0000
v 1.0000 29.0000 -4.0000
v 1.0000 30.0000 -4.0000
v 1.0000 31.0000 -4.0000
v 1.0000 31.0000 -3.0000
v 2.0000 27.0000 4.0000
v 2.0000 28.0000 4.0000
v 2.0000 29.0000 4.0000
v 2.0000 30.0000 4.0000
v 2.0000 31.0000 4.0000
v 2.0000 31.0000 3.0000
v 2.0000 28.0000 -4.0000
v 2.0000 27.0000 -4.0000
v 2.0000 29.0000 -4.0000
v 2.0000 30.0000 -4.0000
v 2.0000 31.0000 -4.0000
v 2.0000 31.0000 -3.0000
v 3.0000 27.0000 4.0000
v 3.0000 28.0000 4.0000
v 3.0000 29.0000 4.0000
v 3.0000 30.0000 4.0000
v 3.0000 31.0000 4.0000
v 3.0000 31.0000 3.0000
v 3.0000 28.0000 -4.0000
v 3.0000 27.0000 -4.0000
v 3.0000 29.0000 -4.0000
v 3.0000 30.0000 -4.0000
v 3.0000 31.0000 -4.0000
v 3.0000 31.0000 -3.0000
v 4.0000 27.0000 4.0000
v 4.0000 27.0000 3.0000
v 4.0000 28.0000 3.0000
v 4.0000 28.0000 4.0000
v 4.0000 29.0000 3.0000
v 4.0000 29.0000 4.0000
v 4.0000 30.0000 3.0000
v 4.0000 30.0000 4.0000
v 4.0000 31.0000 3.0000
v 4.0000 31.0000 4.0000
v 4.0000 27.0000 2.0000
v 4.0000 28.0000 2.0000
v 4.0000 29.0000 2.0000
v 4.0000 30.0000 2.0000
v 4.0000 31.0000 2.0000
v 3.0000 31.0000 2.0000
v 4.0000 27.0000 1.0000
v 4.0000 28.0000 1.0000
v 4.0000 29.0000 1.0000
v 4.0000 30.0000 1.0000
v 4.0000 31.0000 1.0000
v 3.0000 31.0000 1.0000
v 4.0000 27.0000 0.0000
v 4.0000 28.0000 0.0000
v 4.0000 29.0000 0.0000
v 4.0000 30.0000 0.0000
v 4.0000 31.0000 0.0000
v 3.0000 31.0000 0.0000
v 4.0000 27.0000 -1.0000
v 4.0000 28.0000 -1.0000
v 4.0000 29.0000 -1.0000
v 4.0000 30.0000 -1.0000
v 4.0000 31.0000 -1.0000
v 3.0000 31.0000 -1.0000
v 4.0000 27.0000 -2.0000
v 4.0000 28.0000 -2.0000
v 4.0000 29.0000 -2.0000
v 4.0000 30.0000 -2.0000
v 4.0000 31.0000 -2.0000
v 3.0000 31.0000 -2.0000
v 4.0000 27.0000 -3.0000
v 4.0000 28.0000 -3.0000
v 4.0000 29.0000 -3.0000
v 4.0000 30.0000 -3.0000
v 4.0000 31.0000 -3.0000
v 4.0000 27.0000 -4.0000
v 4.0000 28.0000 -4.0000
v 4.0000 29.0000 -4.0000
v 4.0000 30.0000 -4.0000
v 4.0000 31.0000 -4.0000
v -3.0000 32.0000 3.0000
v -3.0000 32.0000 2.0000
v -2.0000 32.0000 3.0000
v -3.0000 33.0000 3.0000
v -3.0000 33.0000 2.0000
v -2.0000 33.0000 3.0000
v -2.0000 33.0000 2.0000
v -3.0000 32.0000 1.0000
v -3.0000 33.0000 1.0000
v -2.0000 33.0000 1.0000
v -3.0000 32.0000 0.0000
v -3.0000 33.0000 0.0000
v -2.0000 33.0000 0.0000
v -3.0000 32.0000 -1.0000
v -3.0000 33.0000 -1.0000
v -2.0000 33.0000 -1.0000
v -3.0000 32.0000 -2.0000
v -3.0000 33.0000 -2.0000
v -2.0000 33.0000 -2.0000
v -3.0000 32.0000 -3.0000
v -2.0000 32.0000 -3.0000
v -3.0000 33.0000 -3.0000
v -2.0000 33.0000 -3.0000
v -1.0000 32.0000 3.0000
v -1.0000 33.0000 3.0000
v -1.0000 33.0000 2.0000
v -1.0000 32.0000 -3.0000
v -1.0000 33.0000 -3.0000
v -1.0000 33.0000 -2.0000
v 0.0000 32.0000 3.0000
v 0.0000 33.0000 3.0000
v 0.0000 33.0000 2.0000
v 0.0000 32.0000 -3.0000
v 0.0000 33.0000 -3.0000
v 0.0000 33.0000 -2.0000
v 1.0000 32.0000 3.0000
v 1.0000 33.0000 3.0000
v 1.0000 33.0000 2.0000
v 1.0000 32.0000 -3.0000
v 1.0000 33.0000 -3.0000
v 1.0000 33.0000 -2.0000
v 2.0000 32.0000 3.0000
v 2.0000 33.0000 3.0000
v 2.0000 33.0000 2.0000
v 2.0000 32.0000 -3.0000
v 2.0000 33.0000 -3.0000
v 2.0000 33.0000 -2.0000
v 3.0000 32.0000 2.0000
v 3.0000 32.0000 3.0000
v 3.0000 33.0000 2.0000
v 3.0000 33.0000 3.0000
v 3.0000 32.0000 1.0000
v 3.0000 33.0000 1.0000
v 2.0000 33.0000 1.0000
v 3.0000 32.0000 0.0000
v 3.0000 33.0000 0.0000
v 2.0000 33.0000 0.0000
v 3.0000 32.0000 -1.0000
v 3.0000 33.0000 -1.0000
v 2.0000 33.0000 -1.0000
v 3.0000 32.0000 -2.0000
v 3.0000 33.0000 -2.0000
v 3.0000 32.0000 -3.0000
v 3.0000 33.0000 -3.0000
v -2.0000 34.0000 2.0000
v -2.0000 34.0000 1.0000
v -1.0000 34.0000 2.0000
v -2.0000 35.0000 2.0000
v -2.0000 35.0000 1.0000
v -1.0000 35.0000 2.0000
v -2.0000 36.0000 2.0000
v -2.0000 36.0000 1.0000
v -1.0000 36.0000 2.0000
v -1.0000 36.0000 1.0000
v -2.0000 34.0000 0.0000
v -2.0000 35.0000 0.0000
v -2.0000 36.0000 0.0000
v -1.0000 36.0000 0.0000
v -2.0000 34.0000 -1.0000
v -2.0000 35.0000 -1.0000
v -2.0000 36.0000 -1.0000
v -1.0000 36.0000 -1.0000
v -2.0000 34.0000 -2.0000
v -1.0000 34.0000 -2.0000
v -2.0000 35.0000 -2.0000
v -1.0000 35.0000 -2.0000
v -2.0000 36.0000 -2.0000
v -1.0000 36.0000 -2.0000
v 0.0000 34.0000 2.0000
v 0.0000 35.0000 2.0000
v 0.0000 36.0000 2.0000
v 0.0000 36.0000 1.0000
v 0.0000 36.0000 0.0000
v 0.0000 36.0000 -1.0000
v 0.0000 34.0000 -2.0000
v 0.0000 35.0000 -2.0000
v 0.0000 36.0000 -2.0000
v 1.0000 34.0000 2.0000
v 1.0000 35.0000 2.0000
v 1.0000 36.0000 2.0000
v 1.0000 36.0000 1.0000
v 1.0000 36.0000 0.0000
v 1.0000 36.0000 -1.0000
v 1.0000 34.0000 -2.0000
v 1.0000 35.0000 -2.0000
v 1.0000 36.0000 -2.0000
v 2.0000 34.0000 1.0000
v 2.0000 34.0000 2.0000
v 2.0000 35.0000 1.0000
v 2.0000 35.0000 2.0000
v 2.0000 36.0000 1.0000
v 2.0000 36.0000 2.0000
v 2.0000 34.0000 0.0000
v 2.0000 35.0000 0.0000
v 2.0000 36.0000 0.0000
v 2.0000 34.0000 -1.0000
v 2.0000 35.0000 -1.0000
v 2.0000 36.0000 -1.0000
v 2.0000 34.0000 -2.0000
v 2.0000 35.0000 -2.0000
v 2.0000 36.0000 -2.0000
usemtl c1
f 7 50 51 11
f 7 23 52 50
f 50 53 54 51
f 50 52 55 53
f 53 56 57 54
f 53 55 58 56
f 56 58 59 60
f 60 61 62 63
f 60 59 64 61
f 61 65 66 62
f 61 64 67 65
f 65 68 69 66
f 65 67 70 68
f 68 71 72 69
f 68 70 73 71
f 71 74 75 72
f 71 73 76 74
f 74 77 78 75
f 74 76 79 77
f 77 80 81 78
f 77 79 82 80
f 80 83 84 81
f 83 85 86 84
f 83 87 88 85
f 85 89 90 86
f 85 88 91 89
f 89 92 93 90
f 89 91 94 92
f 92 95 96 93
f 92 94 97 95
f 95 98 99 96
f 95 97 100 98
f 98 101 102 99
f 98 100 103 101
f 101 104 105 102
f 101 103 106 104
f 104 106 107 108
f 108 109 110 111
f 108 107 112 109
f 109 113 114 110
f 109 112 115 113
f 113 116 117 114
f 113 115 118 116
f 116 119 120 117
f 116 118 121 119
f 11 51 122 15
f 15 122 123 29
f 51 54 124 122
f 122 124 125 123
f 54 57 126 124
f 124 126 127 125
f 126 128 129 127
f 63 62 130 128
f 128 130 131 129
f 62 66 132 130
f 130 132 133 131
f 66 69 134 132
f 132 134 135 133
f 69 72 136 134
f 134 136 137 135
f 72 75 138 136
f 136 138 139 137
f 75 78 140 138
f 138 140 141 139
f 78 81 142 140
f 140 142 143 141
f 81 84 144 142
f 142 144 145 143
f 84 86 146 144
f 144 146 147 145
f 86 90 148 146
f 146 148 149 147
f 90 93 150 148
f 148 150 151 149
f 93 96 152 150
f 96 99 153 152
f 152 153 154 155
f 99 102 156 153
f 153 156 157 154
f 102 105 158 156
f 156 158 159 157
f 158 160 161 159
f 111 110 162 160
f 160 162 163 161
f 110 114 164 162
f 162 164 165 163
f 114 117 166 164
f 164 166 167 165
f 117 120 168 166
f 166 168 169 167
f 32 45 170 171
f 23 32 171 52
f 171 170 172 173
f 52 171 173 55
f 173 172 174 175
f 55 173 175 58
f 175 174 176 177
f 58 175 177 59
f 177 176 178 179
f 59 177 179 64
f 179 178 180 181
f 64 179 181 67
f 181 180 182 183
f 67 181 183 70
f 70 183 184 73
f 184 185 186 187
f 73 184 187 76
f 187 186 188 189
f 76 187 189 79
f 189 188 190 191
f 79 189 191 82
f 191 190 192 193
f 193 192 194 195
f 87 193 195 88
f 195 194 196 197
f 88 195 197 91
f 197 196 198 199
f 91 197 199 94
f 199 198 200 201
f 94 199 201 97
f 201 200 202 203
f 97 201 203 100
f 203 202 204 205
f 100 203 205 103
f 205 204 206 207
f 103 205 207 106
f 207 206 208 209
f 106 207 209 107
f 209 208 210 211
f 107 209 211 112
f 211 210 212 213
f 112 211 213 115
f 213 212 214 215
f 115 213 215 118
f 118 215 216 121
f 45 38 217 170
f 29 123 217 38
f 170 217 218 172
f 123 125 218 217
f 172 218 219 174
f 125 127 219 218
f 174 219 220 176
f 127 129 220 219
f 176 220 221 178
f 129 131 221 220
f 178 221 222 180
f 131 133 222 221
f 180 222 223 182
f 133 135 223 222
f 135 137 224 223
f 185 224 225 186
f 137 139 225 224
f 186 225 226 188
f 139 141 226 225
f 188 226 227 190
f 141 143 227 226
f 190 227 228 192
f 143 145 228 227
f 192 228 229 194
f 145 147 229 228
f 194 229 230 196
f 147 149 230 229
f 196 230 231 198
f 149 151 231 230
f 198 231 232 200
f 200 232 233 202
f 155 154 233 232
f 202 233 234 204
f 154 157 234 233
f 204 234 235 206
f 157 159 235 234
f 206 235 236 208
f 159 161 236 235
f 208 236 237 210
f 161 163 237 236
f 210 237 238 212
f 163 165 238 237
f 212 238 239 214
f 165 167 239 238
f 167 169 240 239
usemtl c2
f 241 242 243 244
f 241 245 246 242
f 242 246 247 243
f 244 243 248 249
f 249 248 250 251
f 243 247 250 248
f 245 252 253 246
f 246 253 254 247
f 251 250 255 256
f 247 254 255 250
f 252 257 258 253
f 253 258 259 254
f 252 260 261 257
f 256 255 262 263
f 254 259 262 255
f 260 256 263 261
f 257 264 265 258
f 258 265 266 259
f 257 261 267 264
f 263 262 268 269
f 259 266 268 262
f 261 263 269 267
f 264 270 271 265
f 265 271 272 266
f 264 267 273 270
f 269 268 274 275
f 266 272 274 268
f 267 269 275 273
f 270 276 277 271
f 271 277 278 272
f 270 273 279 276
f 275 274 280 281
f 272 278 280 274
f 273 275 281 279
f 276 56 60 277
f 277 60 63 278
f 276 279 57 56
f 281 280 128 126
f 278 63 128 280
f 279 281 126 57
f 282 241 244 283
f 282 284 245 241
f 282 283 285 284
f 283 244 249 286
f 286 249 251 287
f 283 286 287 285
f 288 289 260 252
f 284 288 252 245
f 284 285 289 288
f 289 290 256 260
f 287 251 256 290
f 285 287 290 289
f 183 291 292 184
f 184 292 293 185
f 183 182 294 291
f 223 224 295 296
f 185 293 295 224
f 182 223 296 294
f 291 297 298 292
f 292 298 299 293
f 291 294 300 297
f 296 295 301 302
f 293 299 301 295
f 294 296 302 300
f 297 303 304 298
f 298 304 305 299
f 297 300 306 303
f 302 301 307 308
f 299 305 307 301
f 300 302 308 306
f 303 309 310 304
f 304 310 311 305
f 303 306 312 309
f 308 307 313 314
f 305 311 313 307
f 306 308 314 312
f 309 315 316 310
f 310 316 317 311
f 309 312 318 315
f 314 313 319 320
f 311 317 319 313
f 312 314 320 318
f 315 321 322 316
f 316 322 323 317
f 320 319 324 325
f 317 323 324 319
f 326 327 328 329
f 321 326 329 322
f 322 329 328 323
f 327 330 331 328
f 325 324 331 330
f 323 328 331 324
f 332 315 318 333
f 332 334 321 315
f 332 333 335 334
f 333 318 320 336
f 336 320 325 337
f 333 336 337 335
f 338 339 327 326
f 334 338 326 321
f 334 335 339 338
f 339 340 330 327
f 337 325 330 340
f 335 337 340 339
f 341 342 343 344
f 341 345 346 342
f 342 346 347 343
f 344 343 348 349
f 343 347 350 348
f 349 348 351 352
f 348 350 353 351
f 349 352 354 355
f 352 351 356 357
f 351 353 358 356
f 352 357 359 354
f 357 356 360 361
f 356 358 362 360
f 357 361 363 359
f 361 360 364 365
f 360 362 366 364
f 361 365 367 363
f 365 364 83 80
f 364 366 87 83
f 365 80 82 367
f 368 369 370 371
f 345 368 371 346
f 346 371 370 347
f 369 372 373 370
f 347 370 373 350
f 372 374 375 373
f 350 373 375 353
f 355 354 374 372
f 374 376 377 375
f 353 375 377 358
f 354 359 376 374
f 376 378 379 377
f 358 377 379 362
f 359 363 378 376
f 378 380 381 379
f 362 379 381 366
f 363 367 380 378
f 380 191 193 381
f 366 381 193 87
f 367 82 191 380
f 382 341 344 383
f 382 384 345 341
f 382 383 385 384
f 383 344 349 386
f 386 349 355 387
f 383 386 387 385
f 388 389 369 368
f 384 388 368 345
f 384 385 389 388
f 389 390 372 369
f 387 355 372 390
f 385 387 390 389
f 150 152 391 392
f 152 155 393 391
f 150 392 394 151
f 392 391 395 396
f 391 393 397 395
f 392 396 398 394
f 396 395 399 400
f 395 397 401 399
f 396 400 402 398
f 400 399 403 404
f 399 401 405 403
f 400 404 406 402
f 404 403 407 408
f 403 405 409 407
f 404 408 410 406
f 408 407 411 412
f 407 409 413 411
f 412 411 414 415
f 415 414 416 417
f 411 413 416 414
f 231 418 419 232
f 155 232 419 393
f 151 394 418 231
f 418 420 421 419
f 393 419 421 397
f 394 398 420 418
f 420 422 423 421
f 397 421 423 401
f 398 402 422 420
f 422 424 425 423
f 401 423 425 405
f 402 406 424 422
f 424 426 427 425
f 405 425 427 409
f 406 410 426 424
f 426 428 429 427
f 409 427 429 413
f 428 430 431 429
f 417 416 431 430
f 413 429 431 416
f 432 408 412 433
f 432 434 410 408
f 432 433 435 434
f 433 412 415 436
f 436 415 417 437
f 433 436 437 435
f 438 439 428 426
f 434 438 426 410
f 434 435 439 438
f 439 440 430 428
f 437 417 430 440
f 435 437 440 439
f 441 442 443 444
f 441 445 446 442
f 442 446 447 443
f 444 443 448 449
f 449 448 450 451
f 443 447 450 448
f 445 452 453 446
f 446 453 454 447
f 451 450 455 456
f 447 454 455 450
f 452 457 458 453
f 453 458 459 454
f 452 460 461 457
f 456 455 462 463
f 454 459 462 455
f 460 456 463 461
f 457 464 465 458
f 458 465 466 459
f 457 461 467 464
f 463 462 468 469
f 459 466 468 462
f 461 463 469 467
f 464 470 471 465
f 465 471 472 466
f 464 467 473 470
f 469 468 474 475
f 466 472 474 468
f 467 469 475 473
f 470 476 477 471
f 471 477 478 472
f 470 473 479 476
f 475 474 480 481
f 472 478 480 474
f 473 475 481 479
f 476 104 108 477
f 477 108 111 478
f 476 479 105 104
f 481 480 160 158
f 478 111 160 480
f 479 481 158 105
f 482 441 444 483
f 482 484 445 441
f 482 483 485 484
f 483 444 449 486
f 486 449 451 487
f 483 486 487 485
f 488 489 460 452
f 484 488 452 445
f 484 485 489 488
f 489 490 456 460
f 487 451 456 490
f 485 487 490 489
f 215 491 492 216
f 215 214 493 491
f 239 240 494 495
f 214 239 495 493
f 491 496 497 492
f 491 493 498 496
f 495 494 499 500
f 493 495 500 498
f 496 501 502 497
f 497 502 503 504
f 496 498 505 501
f 500 499 506 507
f 504 503 506 499
f 498 500 507 505
f 501 508 509 502
f 502 509 510 503
f 501 505 511 508
f 507 506 512 513
f 503 510 512 506
f 505 507 513 511
f 508 514 515 509
f 509 515 516 510
f 508 511 517 514
f 513 512 518 519
f 510 516 518 512
f 511 513 519 517
f 514 520 521 515
f 515 521 522 516
f 519 518 523 524
f 516 522 523 518
f 525 526 527 528
f 520 525 528 521
f 521 528 527 522
f 526 529 530 527
f 524 523 530 529
f 522 527 530 523
f 531 514 517 532
f 531 533 520 514
f 531 532 534 533
f 532 517 519 535
f 535 519 524 536
f 532 535 536 534
f 537 538 526 525
f 533 537 525 520
f 533 534 538 537
f 538 539 529 526
f 536 524 529 539
f 534 536 539 538
usemtl c3
f 540 541 542 543
f 540 544 545 541
f 540 543 546 544
f 541 547 548 542
f 541 545 549 547
f 543 542 550 551
f 543 551 552 546
f 542 548 553 550
f 551 550 554 555
f 551 555 556 552
f 550 553 557 554
f 555 554 558 559
f 555 559 560 556
f 554 557 561 558
f 559 558 562 563
f 559 563 564 560
f 558 561 565 562
f 563 562 566 567
f 567 566 568 569
f 563 567 569 564
f 562 565 570 566
f 566 570 571 568
f 544 572 573 545
f 544 546 574 572
f 545 573 575 549
f 546 552 119 574
f 552 556 120 119
f 556 560 168 120
f 560 564 576 168
f 569 568 577 578
f 564 569 578 576
f 568 571 579 577
f 572 580 581 573
f 572 574 582 580
f 573 581 583 575
f 574 119 121 582
f 168 576 584 169
f 578 577 585 586
f 576 578 586 584
f 577 579 587 585
f 580 588 589 581
f 580 582 590 588
f 581 589 591 583
f 582 121 216 590
f 169 584 592 240
f 586 585 593 594
f 584 586 594 592
f 585 587 595 593
f 588 596 597 589
f 588 590 598 596
f 589 597 599 591
f 590 216 492 598
f 240 592 600 494
f 594 593 601 602
f 592 594 602 600
f 593 595 603 601
f 604 605 606 607
f 596 604 607 597
f 596 598 605 604
f 607 606 608 609
f 597 607 609 599
f 605 497 610 606
f 598 492 497 605
f 606 610 611 608
f 497 504 612 610
f 610 612 613 611
f 504 499 614 612
f 612 614 615 613
f 499 616 617 614
f 494 600 616 499
f 614 617 618 615
f 616 619 620 617
f 602 601 620 619
f 600 602 619 616
f 617 620 621 618
f 601 603 621 620
f 622 623 624 625
f 622 626 627 623
f 622 625 547 626
f 623 628 629 624
f 623 627 630 628
f 628 631 632 629
f 628 630 633 631
f 631 634 635 632
f 631 633 636 634
f 634 636 637 635
f 625 624 638 639
f 625 639 548 547
f 624 629 640 638
f 629 632 641 640
f 632 635 642 641
f 635 637 643 642
f 639 638 644 645
f 639 645 553 548
f 638 640 646 644
f 640 641 647 646
f 641 642 648 647
f 642 643 649 648
f 645 644 650 651
f 645 651 557 553
f 644 646 652 650
f 646 647 653 652
f 647 648 654 653
f 648 649 655 654
f 651 650 656 657
f 651 657 561 557
f 650 652 658 656
f 652 653 659 658
f 653 654 660 659
f 654 655 661 660
f 657 656 662 663
f 657 663 565 561
f 656 658 664 662
f 659 660 666 665
f 660 661 667 666
f 663 662 668 669
f 663 669 570 565
f 662 664 670 668
f 664 665 671 670
f 665 666 672 671
f 666 667 673 672
f 669 668 674 675
f 675 674 676 677
f 669 675 677 570
f 668 670 678 674
f 674 678 679 676
f 670 671 680 678
f 678 680 681 679
f 671 672 682 680
f 680 682 683 681
f 672 673 683 682
f 626 684 685 627
f 626 547 549 684
f 627 685 686 630
f 630 686 687 633
f 633 687 688 636
f 636 688 689 637
f 677 676 690 691
f 570 677 691 571
f 676 679 692 690
f 679 681 693 692
f 681 683 694 693
f 673 695 694 683
f 684 696 697 685
f 684 549 575 696
f 685 697 698 686
f 686 698 699 687
f 687 699 700 688
f 688 700 701 689
f 691 690 702 703
f 571 691 703 579
f 690 692 704 702
f 692 693 705 704
f 693 694 706 705
f 695 707 706 694
f 696 708 709 697
f 696 575 583 708
f 697 709 710 698
f 698 710 711 699
f 703 702 714 715
f 579 703 715 587
f 702 704 716 714
f 704 705 717 716
f 705 706 718 717
f 707 719 718 706
f 708 720 721 709
f 708 583 591 720
f 709 721 722 710
f 710 722 723 711
f 711 723 724 712
f 712 724 725 713
f 715 714 726 727
f 587 715 727 595
f 714 716 728 726
f 716 717 729 728
f 717 718 730 729
f 719 731 730 718
f 720 732 733 721
f 720 591 599 732
f 721 733 734 722
f 722 734 735 723
f 723 735 736 724
f 724 736 737 725
f 727 726 738 739
f 595 727 739 603
f 726 728 740 738
f 728 729 741 740
f 729 730 742 741
f 731 743 742 730
f 732 744 745 733
f 732 599 609 744
f 733 745 746 734
f 734 746 747 735
f 735 747 748 736
f 736 748 749 737
f 739 738 750 751
f 603 739 751 621
f 738 740 752 750
f 740 741 753 752
f 741 742 754 753
f 743 755 754 742
f 756 757 758 759
f 744 756 759 745
f 744 609 757 756
f 759 758 760 761
f 745 759 761 746
f 761 760 762 763
f 746 761 763 747
f 763 762 764 765
f 747 763 765 748
f 748 765 764 749
f 757 766 767 758
f 609 608 766 757
f 760 768 769 762
f 762 769 770 764
f 749 764 770 771
f 766 772 773 767
f 608 611 772 766
f 767 773 774 768
f 768 774 775 769
f 769 775 776 770
f 771 770 776 777
f 772 778 779 773
f 611 613 778 772
f 773 779 780 774
f 774 780 781 775
f 775 781 782 776
f 777 776 782 783
f 778 784 785 779
f 613 615 784 778
f 779 785 786 780
f 780 786 787 781
f 781 787 788 782
f 783 782 788 789
f 784 790 791 785
f 615 618 790 784
f 785 791 792 786
f 786 792 793 787
f 787 793 794 788
f 789 788 794 795
f 790 796 797 791
f 618 621 796 790
f 791 797 798 792
f 792 798 799 793
f 793 799 800 794
f 795 794 800 755
f 796 801 802 797
f 751 750 802 801
f 621 751 801 796
f 797 802 803 798
f 750 752 803 802
f 798 803 804 799
f 752 753 804 803
f 799 804 805 800
f 753 754 805 804
f 755 800 805 754
usemtl c4
f 637 806 807 643
f 637 689 808 806
f 806 809 810 807
f 806 808 811 809
f 809 811 812 810
f 643 807 813 649
f 807 810 814 813
f 810 812 815 814
f 649 813 816 655
f 813 814 817 816
f 814 815 818 817
f 655 816 819 661
f 816 817 820 819
f 817 818 821 820
f 661 819 822 667
f 819 820 823 822
f 820 821 824 823
f 667 822 825 673
f 673 825 826 695
f 822 823 827 825
f 825 827 828 826
f 823 824 828 827
f 689 701 829 808
f 808 829 830 811
f 811 830 831 812
f 695 826 832 707
f 826 828 833 832
f 824 834 833 828
f 701 713 835 829
f 829 835 836 830
f 830 836 837 831
f 707 832 838 719
f 832 833 839 838
f 834 840 839 833
f 713 725 841 835
f 835 841 842 836
f 836 842 843 837
f 719 838 844 731
f 838 839 845 844
f 840 846 845 839
f 725 737 847 841
f 841 847 848 842
f 842 848 849 843
f 731 844 850 743
f 844 845 851 850
f 846 852 851 845
f 749 771 853 854
f 737 749 854 847
f 854 853 855 856
f 847 854 856 848
f 848 856 855 849
f 771 777 857 853
f 853 857 858 855
f 849 855 858 859
f 777 783 860 857
f 857 860 861 858
f 859 858 861 862
f 783 789 863 860
f 860 863 864 861
f 862 861 864 865
f 789 795 866 863
f 863 866 867 864
f 865 864 867 852
f 795 755 868 866
f 743 850 868 755
f 866 868 869 867
f 850 851 869 868
f 852 867 869 851
f 812 870 871 815
f 812 831 872 870
f 870 873 874 871
f 870 872 875 873
f 873 876 877 874
f 873 875 878 876
f 876 878 879 877
f 815 871 880 818
f 871 874 881 880
f 874 877 882 881
f 877 879 883 882
f 818 880 884 821
f 880 881 885 884
f 881 882 886 885
f 882 883 887 886
f 821 884 888 824
f 824 888 889 834
f 884 885 890 888
f 888 890 891 889
f 885 886 892 890
f 890 892 893 891
f 886 887 893 892
f 831 837 894 872
f 872 894 895 875
f 875 895 896 878
f 878 896 897 879
f 879 897 898 883
f 883 898 899 887
f 834 889 900 840
f 889 891 901 900
f 891 893 902 901
f 887 899 902 893
f 837 843 903 894
f 894 903 904 895
f 895 904 905 896
f 896 905 906 897
f 897 906 907 898
f 898 907 908 899
f 840 900 909 846
f 900 901 910 909
f 901 902 911 910
f 899 908 911 902
f 849 859 912 913
f 843 849 913 903
f 913 912 914 915
f 903 913 915 904
f 915 914 916 917
f 904 915 917 905
f 905 917 916 906
f 859 862 918 912
f 912 918 919 914
f 914 919 920 916
f 906 916 920 907
f 862 865 921 918
f 918 921 922 919
f 919 922 923 920
f 907 920 923 908
f 865 852 924 921
f 846 909 924 852
f 921 924 925 922
f 909 910 925 924
f 922 925 926 923
f 910 911 926 925
f 908 923 926 911
usemtl c5
f 658 659 665 664
f 699 711 712 700
f 700 712 713 701
f 758 767 768 760
usemtl c6
f 1 2 3 4
f 1 5 6 2
f 2 6 7 3
f 1 4 8 5
f 4 3 9 10
f 3 7 11 9
f 4 10 12 8
f 10 9 13 14
f 9 11 15 13
f 10 14 16 12
f 14 13 17 18
f 18 17 19 20
f 13 15 19 17
f 14 18 20 16
f 5 21 22 6
f 6 22 23 7
f 5 8 24 21
f 8 12 25 24
f 12 16 26 25
f 20 19 27 28
f 15 29 27 19
f 16 20 28 26
f 21 30 31 22
f 22 31 32 23
f 21 24 33 30
f 24 25 34 33
f 25 26 35 34
f 28 27 36 37
f 29 38 36 27
f 26 28 37 35
f 39 40 41 42
f 30 39 42 31
f 31 42 41 32
f 30 33 40 39
f 40 43 44 41
f 32 41 44 45
f 33 34 43 40
f 43 46 47 44
f 45 44 47 38
f 34 35 46 43
f 46 48 49 47
f 37 36 49 48
f 38 47 49 36
f 35 37 48 46
