# generado por tools/vox_to_obj.py desde tabaco_v2.vox
mtllib tabaco_v2.mtl
v -1.0000 0.0000 1.0000
v -1.0000 1.0000 1.0000
v -1.0000 1.0000 0.0000
v -1.0000 0.0000 0.0000
v 0.0000 0.0000 1.0000
v 0.0000 1.0000 1.0000
v 0.0000 0.0000 0.0000
v -1.0000 2.0000 1.0000
v -1.0000 2.0000 0.0000
v 0.0000 2.0000 1.0000
v -1.0000 3.0000 1.0000
v -1.0000 3.0000 0.0000
v 0.0000 3.0000 1.0000
v -1.0000 4.0000 1.0000
v -1.0000 4.0000 0.0000
v 0.0000 4.0000 1.0000
v 0.0000 5.0000 1.0000
v -1.0000 5.0000 1.0000
v -1.0000 6.0000 1.0000
v -1.0000 6.0000 0.0000
v -1.0000 5.0000 0.0000
v 0.0000 6.0000 1.0000
v -1.0000 7.0000 1.0000
v -1.0000 7.0000 0.0000
v 0.0000 7.0000 1.0000
v -1.0000 8.0000 1.0000
v -1.0000 8.0000 0.0000
v 0.0000 8.0000 1.0000
v -1.0000 9.0000 1.0000
v -1.0000 9.0000 0.0000
v -1.0000 10.0000 1.0000
v -1.0000 10.0000 0.0000
v 0.0000 9.0000 1.0000
v 0.0000 10.0000 1.0000
v -1.0000 11.0000 1.0000
v -1.0000 11.0000 0.0000
v 0.0000 11.0000 1.0000
v -1.0000 12.0000 1.0000
v -1.0000 12.0000 0.0000
v 0.0000 12.0000 1.0000
v 0.0000 13.0000 1.0000
v -1.0000 13.0000 1.0000
v -1.0000 14.0000 1.0000
v -1.0000 14.0000 0.0000
v -1.0000 13.0000 0.0000
v 0.0000 14.0000 1.0000
v -1.0000 15.0000 1.0000
v -1.0000 15.0000 0.0000
v -1.0000 16.0000 1.0000
v -1.0000 16.0000 0.0000
v 0.0000 15.0000 1.0000
v 0.0000 16.0000 1.0000
v -1.0000 1.0000 -1.0000
v -1.0000 0.0000 -1.0000
v 0.0000 1.0000 -1.0000
v 0.0000 0.0000 -1.0000
v -1.0000 2.0000 -1.0000
v 0.0000 2.0000 -1.0000
v -1.0000 3.0000 -1.0000
v 0.0000 3.0000 -1.0000
v -1.0000 4.0000 -1.0000
v 0.0000 4.0000 -1.0000
v -1.0000 5.0000 -1.0000
v 0.0000 5.0000 -1.0000
v -1.0000 6.0000 -1.0000
v 0.0000 6.0000 -1.0000
v -1.0000 7.0000 -1.0000
v 0.0000 7.0000 -1.0000
v -1.0000 8.0000 -1.0000
v 0.0000 8.0000 -1.0000
v -1.0000 9.0000 -1.0000
v 0.0000 9.0000 -1.0000
v -1.0000 10.0000 -1.0000
v 0.0000 10.0000 -1.0000
v -1.0000 11.0000 -1.0000
v -1.0000 12.0000 -1.0000
v 0.0000 12.0000 -1.0000
v 0.0000 11.0000 -1.0000
v -1.0000 13.0000 -1.0000
v 0.0000 13.0000 -1.0000
v -1.0000 14.0000 -1.0000
v 0.0000 14.0000 -1.0000
v -1.0000 15.0000 -1.0000
v 0.0000 15.0000 -1.0000
v -1.0000 16.0000 -1.0000
v 1.0000 0.0000 1.0000
v 1.0000 0.0000 0.0000
v 1.0000 1.0000 0.0000
v 1.0000 1.0000 1.0000
v 1.0000 2.0000 0.0000
v 1.0000 2.0000 1.0000
v 1.0000 3.0000 0.0000
v 1.0000 3.0000 1.0000
v 1.0000 4.0000 0.0000
v 1.0000 4.0000 1.0000
v 1.0000 5.0000 0.0000
v 1.0000 5.0000 1.0000
v 1.0000 6.0000 0.0000
v 1.0000 6.0000 1.0000
v 1.0000 7.0000 1.0000
v 1.0000 7.0000 0.0000
v 1.0000 8.0000 0.0000
v 1.0000 8.0000 1.0000
v 1.0000 9.0000 0.0000
v 1.0000 9.0000 1.0000
v 1.0000 10.0000 0.0000
v 1.0000 10.0000 1.0000
v 1.0000 11.0000 0.0000
v 1.0000 11.0000 1.0000
v 1.0000 12.0000 0.0000
v 1.0000 12.0000 1.0000
v 1.0000 13.0000 0.0000
v 1.0000 13.0000 1.0000
v 1.0000 14.0000 1.0000
v 1.0000 14.0000 0.0000
v 1.0000 15.0000 0.0000
v 1.0000 15.0000 1.0000
v 1.0000 16.0000 0.0000
v 1.0000 16.0000 1.0000
v 1.0000 0.0000 -1.0000
v 1.0000 1.0000 -1.0000
v 1.0000 2.0000 -1.0000
v 1.0000 3.0000 -1.0000
v 1.0000 4.0000 -1.0000
v 1.0000 5.0000 -1.0000
v 1.0000 6.0000 -1.0000
v 1.0000 7.0000 -1.0000
v 1.0000 8.0000 -1.0000
v 1.0000 9.0000 -1.0000
v 1.0000 10.0000 -1.0000
v 1.0000 11.0000 -1.0000
v 1.0000 12.0000 -1.0000
v 1.0000 13.0000 -1.0000
v 1.0000 14.0000 -1.0000
v 1.0000 15.0000 -1.0000
v 1.0000 16.0000 -1.0000
v -9.0000 4.0000 2.0000
v -9.0000 5.0000 2.0000
v -9.0000 5.0000 1.0000
v -9.0000 4.0000 1.0000
v -8.0000 4.0000 2.0000
v -8.0000 5.0000 2.0000
v -8.0000 5.0000 1.0000
v -9.0000 5.0000 0.0000
v -9.0000 4.0000 0.0000
v -8.0000 5.0000 0.0000
v -9.0000 5.0000 -1.0000
v -9.0000 4.0000 -1.0000
v -8.0000 5.0000 -1.0000
v -9.0000 5.0000 -2.0000
v -9.0000 4.0000 -2.0000
v -8.0000 5.0000 -2.0000
v -8.0000 4.0000 -2.0000
v -7.0000 4.0000 2.0000
v -7.0000 5.0000 2.0000
v -7.0000 5.0000 1.0000
v -7.0000 5.0000 0.0000
v -7.0000 5.0000 -1.0000
v -7.0000 5.0000 -2.0000
v -7.0000 4.0000 -2.0000
v -6.0000 4.0000 2.0000
v -6.0000 5.0000 2.0000
v -6.0000 5.0000 1.0000
v -7.0000 4.0000 1.0000
v -6.0000 4.0000 1.0000
v -6.0000 5.0000 0.0000
v -7.0000 4.0000 0.0000
v -6.0000 4.0000 0.0000
v -6.0000 5.0000 -1.0000
v -7.0000 4.0000 -1.0000
v -6.0000 4.0000 -1.0000
v -6.0000 5.0000 -2.0000
v -6.0000 4.0000 -2.0000
v -5.0000 4.0000 2.0000
v -5.0000 5.0000 2.0000
v -5.0000 5.0000 1.0000
v -5.0000 4.0000 1.0000
v -5.0000 5.0000 0.0000
v -5.0000 4.0000 0.0000
v -5.0000 5.0000 -1.0000
v -5.0000 4.0000 -1.0000
v -5.0000 5.0000 -2.0000
v -5.0000 4.0000 -2.0000
v -4.0000 4.0000 2.0000
v -4.0000 5.0000 2.0000
v -4.0000 5.0000 1.0000
v -4.0000 4.0000 1.0000
v -4.0000 5.0000 0.0000
v -4.0000 4.0000 0.0000
v -4.0000 5.0000 -1.0000
v -4.0000 4.0000 -1.0000
v -4.0000 5.0000 -2.0000
v -4.0000 4.0000 -2.0000
v -3.0000 4.0000 2.0000
v -3.0000 5.0000 2.0000
v -3.0000 5.0000 1.0000
v -3.0000 4.0000 1.0000
v -3.0000 5.0000 0.0000
v -3.0000 4.0000 0.0000
v -3.0000 5.0000 -1.0000
v -3.0000 4.0000 -1.0000
v -3.0000 5.0000 -2.0000
v -3.0000 4.0000 -2.0000
v -2.0000 4.0000 2.0000
v -2.0000 5.0000 2.0000
v -2.0000 5.0000 1.0000
v -2.0000 4.0000 1.0000
v -2.0000 5.0000 0.0000
v -2.0000 4.0000 0.0000
v -2.0000 5.0000 -1.0000
v -2.0000 4.0000 -1.0000
v -2.0000 5.0000 -2.0000
v -2.0000 4.0000 -2.0000
v -1.0000 4.0000 2.0000
v -1.0000 5.0000 2.0000
v -1.0000 4.0000 -2.0000
v -1.0000 5.0000 -2.0000
v -9.0000 3.0000 2.0000
v -9.0000 3.0000 1.0000
v -8.0000 3.0000 2.0000
v -8.0000 3.0000 1.0000
v -9.0000 3.0000 0.0000
v -8.0000 3.0000 0.0000
v -9.0000 3.0000 -1.0000
v -8.0000 3.0000 -1.0000
v -9.0000 3.0000 -2.0000
v -8.0000 3.0000 -2.0000
v -7.0000 3.0000 2.0000
v -7.0000 3.0000 1.0000
v -7.0000 3.0000 0.0000
v -7.0000 3.0000 -1.0000
v -7.0000 3.0000 -2.0000
v 1.0000 6.0000 2.0000
v 1.0000 7.0000 2.0000
v 2.0000 6.0000 2.0000
v 2.0000 7.0000 2.0000
v 2.0000 7.0000 1.0000
v 2.0000 6.0000 1.0000
v 2.0000 7.0000 0.0000
v 2.0000 6.0000 0.0000
v 2.0000 7.0000 -1.0000
v 2.0000 6.0000 -1.0000
v 1.0000 7.0000 -2.0000
v 1.0000 6.0000 -2.0000
v 2.0000 7.0000 -2.0000
v 2.0000 6.0000 -2.0000
v 3.0000 6.0000 2.0000
v 3.0000 7.0000 2.0000
v 3.0000 7.0000 1.0000
v 3.0000 6.0000 1.0000
v 3.0000 7.0000 0.0000
v 3.0000 6.0000 0.0000
v 3.0000 7.0000 -1.0000
v 3.0000 6.0000 -1.0000
v 3.0000 7.0000 -2.0000
v 3.0000 6.0000 -2.0000
v 4.0000 6.0000 2.0000
v 4.0000 7.0000 2.0000
v 4.0000 7.0000 1.0000
v 4.0000 6.0000 1.0000
v 4.0000 7.0000 0.0000
v 4.0000 6.0000 0.0000
v 4.0000 7.0000 -1.0000
v 4.0000 6.0000 -1.0000
v 4.0000 7.0000 -2.0000
v 4.0000 6.0000 -2.0000
v 5.0000 6.0000 2.0000
v 5.0000 7.0000 2.0000
v 5.0000 7.0000 1.0000
v 5.0000 6.0000 1.0000
v 5.0000 7.0000 0.0000
v 5.0000 6.0000 0.0000
v 5.0000 7.0000 -1.0000
v 5.0000 6.0000 -1.0000
v 5.0000 7.0000 -2.0000
v 5.0000 6.0000 -2.0000
v 6.0000 6.0000 2.0000
v 6.0000 7.0000 2.0000
v 6.0000 7.0000 1.0000
v 6.0000 6.0000 1.0000
v 6.0000 7.0000 0.0000
v 6.0000 6.0000 0.0000
v 6.0000 7.0000 -1.0000
v 6.0000 6.0000 -1.0000
v 6.0000 7.0000 -2.0000
v 6.0000 6.0000 -2.0000
v 7.0000 6.0000 2.0000
v 7.0000 7.0000 2.0000
v 7.0000 7.0000 1.0000
v 7.0000 6.0000 1.0000
v 7.0000 7.0000 0.0000
v 7.0000 6.0000 0.0000
v 7.0000 7.0000 -1.0000
v 7.0000 6.0000 -1.0000
v 7.0000 7.0000 -2.0000
v 7.0000 6.0000 -2.0000
v 8.0000 6.0000 2.0000
v 8.0000 7.0000 2.0000
v 8.0000 7.0000 1.0000
v 8.0000 7.0000 0.0000
v 8.0000 7.0000 -1.0000
v 8.0000 7.0000 -2.0000
v 8.0000 6.0000 -2.0000
v 9.0000 6.0000 2.0000
v 9.0000 6.0000 1.0000
v 9.0000 7.0000 1.0000
v 9.0000 7.0000 2.0000
v 9.0000 6.0000 0.0000
v 9.0000 7.0000 0.0000
v 9.0000 6.0000 -1.0000
v 9.0000 7.0000 -1.0000
v 9.0000 6.0000 -2.0000
v 9.0000 7.0000 -2.0000
v 7.0000 5.0000 2.0000
v 7.0000 5.0000 1.0000
v 8.0000 5.0000 2.0000
v 8.0000 5.0000 1.0000
v 7.0000 5.0000 0.0000
v 8.0000 5.0000 0.0000
v 7.0000 5.0000 -1.0000
v 8.0000 5.0000 -1.0000
v 7.0000 5.0000 -2.0000
v 8.0000 5.0000 -2.0000
v 9.0000 5.0000 2.0000
v 9.0000 5.0000 1.0000
v 9.0000 5.0000 0.0000
v 9.0000 5.0000 -1.0000
v 9.0000 5.0000 -2.0000
v -2.0000 8.0000 9.0000
v -2.0000 9.0000 9.0000
v -2.0000 9.0000 8.0000
v -2.0000 8.0000 8.0000
v -1.0000 8.0000 9.0000
v -1.0000 9.0000 9.0000
v -1.0000 9.0000 8.0000
v -2.0000 9.0000 7.0000
v -2.0000 8.0000 7.0000
v -1.0000 9.0000 7.0000
v -2.0000 9.0000 6.0000
v -2.0000 8.0000 6.0000
v -1.0000 9.0000 6.0000
v -1.0000 8.0000 6.0000
v -1.0000 8.0000 7.0000
v -2.0000 9.0000 5.0000
v -2.0000 8.0000 5.0000
v -1.0000 9.0000 5.0000
v -1.0000 8.0000 5.0000
v -2.0000 9.0000 4.0000
v -2.0000 8.0000 4.0000
v -1.0000 9.0000 4.0000
v -1.0000 8.0000 4.0000
v -2.0000 9.0000 3.0000
v -2.0000 8.0000 3.0000
v -1.0000 9.0000 3.0000
v -1.0000 8.0000 3.0000
v -2.0000 9.0000 2.0000
v -2.0000 8.0000 2.0000
v -1.0000 9.0000 2.0000
v -1.0000 8.0000 2.0000
v -2.0000 9.0000 1.0000
v -2.0000 8.0000 1.0000
v 0.0000 8.0000 9.0000
v 0.0000 9.0000 9.0000
v 0.0000 9.0000 8.0000
v 0.0000 9.0000 7.0000
v 0.0000 9.0000 6.0000
v 0.0000 8.0000 6.0000
v 0.0000 8.0000 7.0000
v 0.0000 9.0000 5.0000
v 0.0000 8.0000 5.0000
v 0.0000 9.0000 4.0000
v 0.0000 8.0000 4.0000
v 0.0000 9.0000 3.0000
v 0.0000 8.0000 3.0000
v 0.0000 9.0000 2.0000
v 0.0000 8.0000 2.0000
v 1.0000 8.0000 9.0000
v 1.0000 9.0000 9.0000
v 1.0000 9.0000 8.0000
v 1.0000 9.0000 7.0000
v 1.0000 9.0000 6.0000
v 1.0000 8.0000 6.0000
v 1.0000 8.0000 7.0000
v 1.0000 9.0000 5.0000
v 1.0000 8.0000 5.0000
v 1.0000 9.0000 4.0000
v 1.0000 8.0000 4.0000
v 1.0000 9.0000 3.0000
v 1.0000 8.0000 3.0000
v 1.0000 9.0000 2.0000
v 1.0000 8.0000 2.0000
v 2.0000 8.0000 9.0000
v 2.0000 8.0000 8.0000
v 2.0000 9.0000 8.0000
v 2.0000 9.0000 9.0000
v 2.0000 8.0000 7.0000
v 2.0000 9.0000 7.0000
v 2.0000 8.0000 6.0000
v 2.0000 9.0000 6.0000
v 2.0000 8.0000 5.0000
v 2.0000 9.0000 5.0000
v 2.0000 8.0000 4.0000
v 2.0000 9.0000 4.0000
v 2.0000 8.0000 3.0000
v 2.0000 9.0000 3.0000
v 2.0000 8.0000 2.0000
v 2.0000 9.0000 2.0000
v 2.0000 8.0000 1.0000
v 2.0000 9.0000 1.0000
v -2.0000 7.0000 9.0000
v -2.0000 7.0000 8.0000
v -1.0000 7.0000 9.0000
v -1.0000 7.0000 8.0000
v -2.0000 7.0000 7.0000
v -1.0000 7.0000 7.0000
v 0.0000 7.0000 9.0000
v 0.0000 7.0000 8.0000
v 0.0000 7.0000 7.0000
v 1.0000 7.0000 9.0000
v 1.0000 7.0000 8.0000
v 1.0000 7.0000 7.0000
v 2.0000 7.0000 9.0000
v 2.0000 7.0000 8.0000
v 2.0000 7.0000 7.0000
v -2.0000 10.0000 -1.0000
v -2.0000 11.0000 -1.0000
v -2.0000 11.0000 -2.0000
v -2.0000 10.0000 -2.0000
v -1.0000 11.0000 -2.0000
v -1.0000 10.0000 -2.0000
v -2.0000 11.0000 -3.0000
v -2.0000 10.0000 -3.0000
v -1.0000 11.0000 -3.0000
v -1.0000 10.0000 -3.0000
v -2.0000 11.0000 -4.0000
v -2.0000 10.0000 -4.0000
v -1.0000 11.0000 -4.0000
v -1.0000 10.0000 -4.0000
v -2.0000 11.0000 -5.0000
v -2.0000 10.0000 -5.0000
v -1.0000 11.0000 -5.0000
v -1.0000 10.0000 -5.0000
v -2.0000 11.0000 -6.0000
v -2.0000 10.0000 -6.0000
v -1.0000 11.0000 -6.0000
v -1.0000 10.0000 -6.0000
v -2.0000 11.0000 -7.0000
v -2.0000 10.0000 -7.0000
v -1.0000 11.0000 -7.0000
v -1.0000 10.0000 -7.0000
v -2.0000 11.0000 -8.0000
v -2.0000 10.0000 -8.0000
v -1.0000 11.0000 -8.0000
v -2.0000 11.0000 -9.0000
v -2.0000 10.0000 -9.0000
v -1.0000 11.0000 -9.0000
v -1.0000 10.0000 -9.0000
v 0.0000 11.0000 -2.0000
v 0.0000 10.0000 -2.0000
v 0.0000 11.0000 -3.0000
v 0.0000 10.0000 -3.0000
v 0.0000 11.0000 -4.0000
v 0.0000 10.0000 -4.0000
v 0.0000 11.0000 -5.0000
v 0.0000 10.0000 -5.0000
v 0.0000 11.0000 -6.0000
v 0.0000 10.0000 -6.0000
v 0.0000 11.0000 -7.0000
v 0.0000 10.0000 -7.0000
v 0.0000 11.0000 -8.0000
v 0.0000 11.0000 -9.0000
v 0.0000 10.0000 -9.0000
v 1.0000 11.0000 -2.0000
v 1.0000 10.0000 -2.0000
v 1.0000 11.0000 -3.0000
v 1.0000 10.0000 -3.0000
v 1.0000 11.0000 -4.0000
v 1.0000 10.0000 -4.0000
v 1.0000 11.0000 -5.0000
v 1.0000 10.0000 -5.0000
v 1.0000 11.0000 -6.0000
v 1.0000 10.0000 -6.0000
v 1.0000 11.0000 -7.0000
v 1.0000 10.0000 -7.0000
v 1.0000 11.0000 -8.0000
v 1.0000 11.0000 -9.0000
v 1.0000 10.0000 -9.0000
v 2.0000 10.0000 -1.0000
v 2.0000 10.0000 -2.0000
v 2.0000 11.0000 -2.0000
v 2.0000 11.0000 -1.0000
v 2.0000 10.0000 -3.0000
v 2.0000 11.0000 -3.0000
v 2.0000 10.0000 -4.0000
v 2.0000 11.0000 -4.0000
v 2.0000 10.0000 -5.0000
v 2.0000 11.0000 -5.0000
v 2.0000 10.0000 -6.0000
v 2.0000 11.0000 -6.0000
v 2.0000 10.0000 -7.0000
v 2.0000 11.0000 -7.0000
v 2.0000 10.0000 -8.0000
v 2.0000 11.0000 -8.0000
v 2.0000 10.0000 -9.0000
v 2.0000 11.0000 -9.0000
v -2.0000 9.0000 -7.0000
v -2.0000 9.0000 -8.0000
v -1.0000 9.0000 -7.0000
v -1.0000 9.0000 -8.0000
v -2.0000 9.0000 -9.0000
v -1.0000 9.0000 -9.0000
v 0.0000 9.0000 -7.0000
v 0.0000 9.0000 -8.0000
v 0.0000 9.0000 -9.0000
v 1.0000 9.0000 -7.0000
v 1.0000 9.0000 -8.0000
v 1.0000 9.0000 -9.0000
v 2.0000 9.0000 -7.0000
v 2.0000 9.0000 -8.0000
v 2.0000 9.0000 -9.0000
v -8.0000 12.0000 2.0000
v -8.0000 13.0000 2.0000
v -8.0000 13.0000 1.0000
v -8.0000 12.0000 1.0000
v -7.0000 12.0000 2.0000
v -7.0000 13.0000 2.0000
v -7.0000 13.0000 1.0000
v -7.0000 12.0000 1.0000
v -8.0000 13.0000 0.0000
v -8.0000 12.0000 0.0000
v -7.0000 13.0000 0.0000
v -7.0000 12.0000 0.0000
v -8.0000 13.0000 -1.0000
v -8.0000 12.0000 -1.0000
v -7.0000 13.0000 -1.0000
v -7.0000 12.0000 -1.0000
v -8.0000 13.0000 -2.0000
v -8.0000 12.0000 -2.0000
v -7.0000 13.0000 -2.0000
v -7.0000 12.0000 -2.0000
v -6.0000 12.0000 2.0000
v -6.0000 13.0000 2.0000
v -6.0000 13.0000 1.0000
v -6.0000 12.0000 1.0000
v -6.0000 13.0000 0.0000
v -6.0000 12.0000 0.0000
v -6.0000 13.0000 -1.0000
v -6.0000 12.0000 -1.0000
v -6.0000 13.0000 -2.0000
v -6.0000 12.0000 -2.0000
v -5.0000 12.0000 2.0000
v -5.0000 13.0000 2.0000
v -5.0000 13.0000 1.0000
v -5.0000 12.0000 1.0000
v -5.0000 13.0000 0.0000
v -5.0000 12.0000 0.0000
v -5.0000 13.0000 -1.0000
v -5.0000 12.0000 -1.0000
v -5.0000 13.0000 -2.0000
v -5.0000 12.0000 -2.0000
v -4.0000 12.0000 2.0000
v -4.0000 13.0000 2.0000
v -4.0000 13.0000 1.0000
v -4.0000 12.0000 1.0000
v -4.0000 13.0000 0.0000
v -4.0000 12.0000 0.0000
v -4.0000 13.0000 -1.0000
v -4.0000 12.0000 -1.0000
v -4.0000 13.0000 -2.0000
v -4.0000 12.0000 -2.0000
v -3.0000 12.0000 2.0000
v -3.0000 13.0000 2.0000
v -3.0000 13.0000 1.0000
v -3.0000 12.0000 1.0000
v -3.0000 13.0000 0.0000
v -3.0000 12.0000 0.0000
v -3.0000 13.0000 -1.0000
v -3.0000 12.0000 -1.0000
v -3.0000 13.0000 -2.0000
v -3.0000 12.0000 -2.0000
v -2.0000 12.0000 2.0000
v -2.0000 13.0000 2.0000
v -2.0000 13.0000 1.0000
v -2.0000 12.0000 1.0000
v -2.0000 13.0000 0.0000
v -2.0000 12.0000 0.0000
v -2.0000 13.0000 -1.0000
v -2.0000 12.0000 -1.0000
v -2.0000 13.0000 -2.0000
v -2.0000 12.0000 -2.0000
v -1.0000 12.0000 2.0000
v -1.0000 13.0000 2.0000
v -1.0000 12.0000 -2.0000
v -1.0000 13.0000 -2.0000
v 1.0000 13.0000 2.0000
v 1.0000 14.0000 2.0000
v 2.0000 13.0000 2.0000
v 2.0000 14.0000 2.0000
v 2.0000 13.0000 1.0000
v 2.0000 14.0000 1.0000
v 2.0000 14.0000 0.0000
v 2.0000 13.0000 0.0000
v 2.0000 14.0000 -1.0000
v 2.0000 13.0000 -1.0000
v 1.0000 14.0000 -2.0000
v 1.0000 13.0000 -2.0000
v 2.0000 14.0000 -2.0000
v 2.0000 13.0000 -2.0000
v 3.0000 13.0000 2.0000
v 3.0000 14.0000 2.0000
v 3.0000 14.0000 1.0000
v 3.0000 13.0000 1.0000
v 3.0000 14.0000 0.0000
v 3.0000 13.0000 0.0000
v 3.0000 14.0000 -1.0000
v 3.0000 13.0000 -1.0000
v 3.0000 14.0000 -2.0000
v 3.0000 13.0000 -2.0000
v 4.0000 13.0000 2.0000
v 4.0000 14.0000 2.0000
v 4.0000 14.0000 1.0000
v 4.0000 13.0000 1.0000
v 4.0000 14.0000 0.0000
v 4.0000 13.0000 0.0000
v 4.0000 14.0000 -1.0000
v 4.0000 13.0000 -1.0000
v 4.0000 14.0000 -2.0000
v 4.0000 13.0000 -2.0000
v 5.0000 13.0000 2.0000
v 5.0000 14.0000 2.0000
v 5.0000 14.0000 1.0000
v 5.0000 13.0000 1.0000
v 5.0000 14.0000 0.0000
v 5.0000 13.0000 0.0000
v 5.0000 14.0000 -1.0000
v 5.0000 13.0000 -1.0000
v 5.0000 14.0000 -2.0000
v 5.0000 13.0000 -2.0000
v 6.0000 13.0000 2.0000
v 6.0000 14.0000 2.0000
v 6.0000 14.0000 1.0000
v 6.0000 13.0000 1.0000
v 6.0000 14.0000 0.0000
v 6.0000 13.0000 0.0000
v 6.0000 14.0000 -1.0000
v 6.0000 13.0000 -1.0000
v 6.0000 14.0000 -2.0000
v 6.0000 13.0000 -2.0000
v 7.0000 13.0000 2.0000
v 7.0000 14.0000 2.0000
v 7.0000 14.0000 1.0000
v 7.0000 13.0000 1.0000
v 7.0000 14.0000 0.0000
v 7.0000 13.0000 0.0000
v 7.0000 14.0000 -1.0000
v 7.0000 13.0000 -1.0000
v 7.0000 14.0000 -2.0000
v 7.0000 13.0000 -2.0000
v 8.0000 13.0000 2.0000
v 8.0000 13.0000 1.0000
v 8.0000 14.0000 1.0000
v 8.0000 14.0000 2.0000
v 8.0000 13.0000 0.0000
v 8.0000 14.0000 0.0000
v 8.0000 13.0000 -1.0000
v 8.0000 14.0000 -1.0000
v 8.0000 13.0000 -2.0000
v 8.0000 14.0000 -2.0000
v -2.0000 14.0000 8.0000
v -2.0000 15.0000 8.0000
v -2.0000 15.0000 7.0000
v -2.0000 14.0000 7.0000
v -1.0000 14.0000 8.0000
v -1.0000 15.0000 8.0000
v -1.0000 15.0000 7.0000
v -1.0000 14.0000 7.0000
v -2.0000 15.0000 6.0000
v -2.0000 14.0000 6.0000
v -1.0000 15.0000 6.0000
v -1.0000 14.0000 6.0000
v -2.0000 15.0000 5.0000
v -2.0000 14.0000 5.0000
v -1.0000 15.0000 5.0000
v -1.0000 14.0000 5.0000
v -2.0000 15.0000 4.0000
v -2.0000 14.0000 4.0000
v -1.0000 15.0000 4.0000
v -1.0000 14.0000 4.0000
v -2.0000 15.0000 3.0000
v -2.0000 14.0000 3.0000
v -1.0000 15.0000 3.0000
v -1.0000 14.0000 3.0000
v -2.0000 15.0000 2.0000
v -2.0000 14.0000 2.0000
v -1.0000 15.0000 2.0000
v -1.0000 14.0000 2.0000
v -2.0000 15.0000 1.0000
v -2.0000 14.0000 1.0000
v 0.0000 14.0000 8.0000
v 0.0000 15.0000 8.0000
v 0.0000 15.0000 7.0000
v 0.0000 14.0000 7.0000
v 0.0000 15.0000 6.0000
v 0.0000 14.0000 6.0000
v 0.0000 15.0000 5.0000
v 0.0000 14.0000 5.0000
v 0.0000 15.0000 4.0000
v 0.0000 14.0000 4.0000
v 0.0000 15.0000 3.0000
v 0.0000 14.0000 3.0000
v 0.0000 15.0000 2.0000
v 0.0000 14.0000 2.0000
v 1.0000 14.0000 8.0000
v 1.0000 15.0000 8.0000
v 1.0000 15.0000 7.0000
v 1.0000 14.0000 7.0000
v 1.0000 15.0000 6.0000
v 1.0000 14.0000 6.0000
v 1.0000 15.0000 5.0000
v 1.0000 14.0000 5.0000
v 1.0000 15.0000 4.0000
v 1.0000 14.0000 4.0000
v 1.0000 15.0000 3.0000
v 1.0000 14.0000 3.0000
v 1.0000 15.0000 2.0000
v 2.0000 14.0000 8.0000
v 2.0000 14.0000 7.0000
v 2.0000 15.0000 7.0000
v 2.0000 15.0000 8.0000
v 2.0000 14.0000 6.0000
v 2.0000 15.0000 6.0000
v 2.0000 14.0000 5.0000
v 2.0000 15.0000 5.0000
v 2.0000 14.0000 4.0000
v 2.0000 15.0000 4.0000
v 2.0000 14.0000 3.0000
v 2.0000 15.0000 3.0000
v 2.0000 15.0000 2.0000
v 2.0000 15.0000 1.0000
v -2.0000 15.0000 -1.0000
v -2.0000 16.0000 -1.0000
v -2.0000 16.0000 -2.0000
v -2.0000 15.0000 -2.0000
v -1.0000 16.0000 -2.0000
v -1.0000 15.0000 -2.0000
v -2.0000 16.0000 -3.0000
v -2.0000 15.0000 -3.0000
v -1.0000 16.0000 -3.0000
v -1.0000 15.0000 -3.0000
v -2.0000 16.0000 -4.0000
v -2.0000 15.0000 -4.0000
v -1.0000 16.0000 -4.0000
v -1.0000 15.0000 -4.0000
v -2.0000 16.0000 -5.0000
v -2.0000 15.0000 -5.0000
v -1.0000 16.0000 -5.0000
v -1.0000 15.0000 -5.0000
v -2.0000 16.0000 -6.0000
v -2.0000 15.0000 -6.0000
v -1.0000 16.0000 -6.0000
v -1.0000 15.0000 -6.0000
v -2.0000 16.0000 -7.0000
v -2.0000 15.0000 -7.0000
v -1.0000 16.0000 -7.0000
v -1.0000 15.0000 -7.0000
v -2.0000 16.0000 -8.0000
v -2.0000 15.0000 -8.0000
v -1.0000 16.0000 -8.0000
v -1.0000 15.0000 -8.0000
v 0.0000 16.0000 -1.0000
v 0.0000 16.0000 -2.0000
v 0.0000 15.0000 -2.0000
v 0.0000 16.0000 -3.0000
v 0.0000 15.0000 -3.0000
v 0.0000 16.0000 -4.0000
v 0.0000 15.0000 -4.0000
v 0.0000 16.0000 -5.0000
v 0.0000 15.0000 -5.0000
v 0.0000 16.0000 -6.0000
v 0.0000 15.0000 -6.0000
v 0.0000 16.0000 -7.0000
v 0.0000 15.0000 -7.0000
v 0.0000 16.0000 -8.0000
v 0.0000 15.0000 -8.0000
v 1.0000 16.0000 -2.0000
v 1.0000 15.0000 -2.0000
v 1.0000 16.0000 -3.0000
v 1.0000 15.0000 -3.0000
v 1.0000 16.0000 -4.0000
v 1.0000 15.0000 -4.0000
v 1.0000 16.0000 -5.0000
v 1.0000 15.0000 -5.0000
v 1.0000 16.0000 -6.0000
v 1.0000 15.0000 -6.0000
v 1.0000 16.0000 -7.0000
v 1.0000 15.0000 -7.0000
v 1.0000 16.0000 -8.0000
v 1.0000 15.0000 -8.0000
v 2.0000 15.0000 -1.0000
v 2.0000 15.0000 -2.0000
v 2.0000 16.0000 -2.0000
v 2.0000 16.0000 -1.0000
v 2.0000 15.0000 -3.0000
v 2.0000 16.0000 -3.0000
v 2.0000 15.0000 -4.0000
v 2.0000 16.0000 -4.0000
v 2.0000 15.0000 -5.0000
v 2.0000 16.0000 -5.0000
v 2.0000 15.0000 -6.0000
v 2.0000 16.0000 -6.0000
v 2.0000 15.0000 -7.0000
v 2.0000 16.0000 -7.0000
v 2.0000 15.0000 -8.0000
v 2.0000 16.0000 -8.0000
v -2.0000 16.0000 2.0000
v -2.0000 17.0000 2.0000
v -2.0000 17.0000 1.0000
v -2.0000 16.0000 1.0000
v -1.0000 16.0000 2.0000
v -1.0000 17.0000 2.0000
v -2.0000 18.0000 2.0000
v -2.0000 18.0000 1.0000
v -1.0000 18.0000 2.0000
v -1.0000 18.0000 1.0000
v -2.0000 17.0000 0.0000
v -2.0000 16.0000 0.0000
v -2.0000 18.0000 0.0000
v -1.0000 18.0000 0.0000
v -2.0000 17.0000 -1.0000
v -1.0000 17.0000 -1.0000
v -2.0000 18.0000 -1.0000
v -1.0000 18.0000 -1.0000
v 0.0000 16.0000 2.0000
v 0.0000 17.0000 2.0000
v 0.0000 18.0000 2.0000
v 0.0000 18.0000 1.0000
v 0.0000 18.0000 0.0000
v 0.0000 17.0000 -1.0000
v 0.0000 18.0000 -1.0000
v 1.0000 16.0000 2.0000
v 1.0000 17.0000 1.0000
v 1.0000 17.0000 2.0000
v 1.0000 18.0000 1.0000
v 1.0000 18.0000 2.0000
v 1.0000 17.0000 0.0000
v 1.0000 18.0000 0.0000
v 1.0000 17.0000 -1.0000
v 1.0000 18.0000 -1.0000
usemtl c4
f 1 2 3 4
f 1 5 6 2
f 1 4 7 5
f 2 8 9 3
f 2 6 10 8
f 8 11 12 9
f 8 10 13 11
f 11 14 15 12
f 11 13 16 14
f 14 16 17 18
f 18 19 20 21
f 18 17 22 19
f 19 23 24 20
f 19 22 25 23
f 23 26 27 24
f 23 25 28 26
f 26 29 30 27
f 29 31 32 30
f 29 33 34 31
f 31 35 36 32
f 31 34 37 35
f 35 38 39 36
f 35 37 40 38
f 38 40 41 42
f 42 43 44 45
f 42 41 46 43
f 43 47 48 44
f 47 49 50 48
f 47 51 52 49
f 4 3 53 54
f 54 53 55 56
f 4 54 56 7
f 3 9 57 53
f 53 57 58 55
f 9 12 59 57
f 57 59 60 58
f 12 15 61 59
f 59 61 62 60
f 61 63 64 62
f 21 20 65 63
f 63 65 66 64
f 20 24 67 65
f 65 67 68 66
f 24 27 69 67
f 67 69 70 68
f 27 30 71 69
f 69 71 72 70
f 30 32 73 71
f 71 73 74 72
f 32 36 75 73
f 36 39 76 75
f 75 76 77 78
f 76 79 80 77
f 45 44 81 79
f 79 81 82 80
f 44 48 83 81
f 81 83 84 82
f 48 50 85 83
f 86 87 88 89
f 5 86 89 6
f 5 7 87 86
f 89 88 90 91
f 6 89 91 10
f 91 90 92 93
f 10 91 93 13
f 93 92 94 95
f 13 93 95 16
f 95 94 96 97
f 16 95 97 17
f 97 96 98 99
f 17 97 99 22
f 22 99 100 25
f 100 101 102 103
f 25 100 103 28
f 103 102 104 105
f 105 104 106 107
f 33 105 107 34
f 107 106 108 109
f 34 107 109 37
f 109 108 110 111
f 37 109 111 40
f 111 110 112 113
f 40 111 113 41
f 41 113 114 46
f 114 115 116 117
f 117 116 118 119
f 51 117 119 52
f 87 120 121 88
f 56 55 121 120
f 7 56 120 87
f 88 121 122 90
f 55 58 122 121
f 90 122 123 92
f 58 60 123 122
f 92 123 124 94
f 60 62 124 123
f 94 124 125 96
f 62 64 125 124
f 96 125 126 98
f 64 66 126 125
f 66 68 127 126
f 101 127 128 102
f 68 70 128 127
f 102 128 129 104
f 70 72 129 128
f 104 129 130 106
f 72 74 130 129
f 106 130 131 108
f 108 131 132 110
f 78 77 132 131
f 110 132 133 112
f 77 80 133 132
f 80 82 134 133
f 115 134 135 116
f 82 84 135 134
f 116 135 136 118
usemtl c5
f 137 138 139 140
f 137 141 142 138
f 138 142 143 139
f 145 144 147 148
f 144 146 149 147
f 148 147 150 151
f 151 150 152 153
f 147 149 152 150
f 141 154 155 142
f 142 155 156 143
f 146 157 158 149
f 153 152 159 160
f 149 158 159 152
f 154 161 162 155
f 155 162 163 156
f 154 164 165 161
f 157 166 169 158
f 167 170 171 168
f 160 159 172 173
f 158 169 172 159
f 170 160 173 171
f 161 174 175 162
f 162 175 176 163
f 161 165 177 174
f 166 178 180 169
f 168 171 181 179
f 173 172 182 183
f 169 180 182 172
f 171 173 183 181
f 174 184 185 175
f 175 185 186 176
f 174 177 187 184
f 178 188 190 180
f 179 181 191 189
f 183 182 192 193
f 180 190 192 182
f 181 183 193 191
f 184 194 195 185
f 185 195 196 186
f 184 187 197 194
f 188 198 200 190
f 189 191 201 199
f 193 192 202 203
f 190 200 202 192
f 191 193 203 201
f 194 204 205 195
f 195 205 206 196
f 194 197 207 204
f 198 208 210 200
f 199 201 211 209
f 203 202 212 213
f 200 210 212 202
f 201 203 213 211
f 214 14 18 215
f 204 214 215 205
f 205 215 18 206
f 204 207 14 214
f 208 21 63 210
f 209 211 61 15
f 61 216 217 63
f 213 212 217 216
f 210 63 217 212
f 211 213 216 61
f 218 137 140 219
f 218 220 141 137
f 218 219 221 220
f 219 140 145 222
f 219 222 223 221
f 222 145 148 224
f 222 224 225 223
f 224 148 151 226
f 226 151 153 227
f 224 226 227 225
f 228 229 164 154
f 220 228 154 141
f 220 221 229 228
f 229 230 167 164
f 221 223 230 229
f 230 231 170 167
f 223 225 231 230
f 231 232 160 170
f 227 153 160 232
f 225 227 232 231
f 233 234 100 99
f 233 235 236 234
f 234 236 237 100
f 233 99 238 235
f 101 239 241 127
f 98 126 242 240
f 126 127 243 244
f 244 243 245 246
f 127 241 245 243
f 126 244 246 242
f 235 247 248 236
f 236 248 249 237
f 235 238 250 247
f 239 251 253 241
f 240 242 254 252
f 246 245 255 256
f 241 253 255 245
f 242 246 256 254
f 247 257 258 248
f 248 258 259 249
f 247 250 260 257
f 251 261 263 253
f 252 254 264 262
f 256 255 265 266
f 253 263 265 255
f 254 256 266 264
f 257 267 268 258
f 258 268 269 259
f 257 260 270 267
f 261 271 273 263
f 262 264 274 272
f 266 265 275 276
f 263 273 275 265
f 264 266 276 274
f 267 277 278 268
f 268 278 279 269
f 267 270 280 277
f 271 281 283 273
f 272 274 284 282
f 276 275 285 286
f 273 283 285 275
f 274 276 286 284
f 277 287 288 278
f 278 288 289 279
f 277 280 290 287
f 281 291 293 283
f 282 284 294 292
f 286 285 295 296
f 283 293 295 285
f 284 286 296 294
f 287 297 298 288
f 288 298 299 289
f 291 300 301 293
f 296 295 302 303
f 293 301 302 295
f 304 305 306 307
f 297 304 307 298
f 298 307 306 299
f 308 310 311 309
f 300 309 311 301
f 310 312 313 311
f 303 302 313 312
f 301 311 313 302
f 314 287 290 315
f 314 316 297 287
f 314 315 317 316
f 315 290 292 318
f 315 318 319 317
f 318 292 294 320
f 318 320 321 319
f 320 294 296 322
f 322 296 303 323
f 320 322 323 321
f 324 325 305 304
f 316 324 304 297
f 316 317 325 324
f 325 326 308 305
f 317 319 326 325
f 326 327 310 308
f 319 321 327 326
f 327 328 312 310
f 323 303 312 328
f 321 323 328 327
f 329 330 331 332
f 329 333 334 330
f 330 334 335 331
f 332 331 336 337
f 331 335 338 336
f 337 336 339 340
f 336 338 341 339
f 337 340 342 343
f 340 339 344 345
f 339 341 346 344
f 340 345 347 342
f 345 344 348 349
f 344 346 350 348
f 345 349 351 347
f 349 348 352 353
f 348 350 354 352
f 349 353 355 351
f 353 352 356 357
f 352 354 358 356
f 353 357 359 355
f 357 356 360 361
f 361 360 29 26
f 356 358 29 360
f 357 361 26 359
f 362 377 378 363
f 363 378 379 364
f 364 379 380 365
f 365 380 381 366
f 368 367 382 383
f 366 381 384 369
f 367 370 385 382
f 369 384 386 371
f 370 372 387 385
f 371 386 388 373
f 372 374 389 387
f 373 388 390 375
f 374 376 391 389
f 375 390 105 33
f 376 28 103 391
f 392 393 394 395
f 377 392 395 378
f 378 395 394 379
f 393 396 397 394
f 379 394 397 380
f 396 398 399 397
f 380 397 399 381
f 383 382 398 396
f 398 400 401 399
f 381 399 401 384
f 382 385 400 398
f 400 402 403 401
f 384 401 403 386
f 385 387 402 400
f 402 404 405 403
f 386 403 405 388
f 387 389 404 402
f 404 406 407 405
f 388 405 407 390
f 389 391 406 404
f 406 408 409 407
f 103 105 409 408
f 390 407 409 105
f 391 103 408 406
f 410 329 332 411
f 410 412 333 329
f 410 411 413 412
f 411 332 337 414
f 414 337 343 415
f 411 414 415 413
f 412 416 362 333
f 412 413 417 416
f 415 343 368 418
f 413 415 418 417
f 416 419 377 362
f 416 417 420 419
f 418 368 383 421
f 417 418 421 420
f 422 423 393 392
f 419 422 392 377
f 419 420 423 422
f 423 424 396 393
f 421 383 396 424
f 420 421 424 423
f 425 426 427 428
f 425 73 75 426
f 426 75 429 427
f 425 428 430 73
f 428 427 431 432
f 427 429 433 431
f 428 432 434 430
f 432 431 435 436
f 431 433 437 435
f 432 436 438 434
f 436 435 439 440
f 435 437 441 439
f 436 440 442 438
f 440 439 443 444
f 439 441 445 443
f 440 444 446 442
f 444 443 447 448
f 443 445 449 447
f 444 448 450 446
f 448 447 451 452
f 447 449 453 451
f 452 451 454 455
f 455 454 456 457
f 451 453 456 454
f 78 131 473 458
f 74 459 474 130
f 458 473 475 460
f 459 461 476 474
f 460 475 477 462
f 461 463 478 476
f 462 477 479 464
f 463 465 480 478
f 464 479 481 466
f 465 467 482 480
f 466 481 483 468
f 467 469 484 482
f 468 483 485 470
f 472 471 486 487
f 470 485 486 471
f 488 489 490 491
f 130 488 491 131
f 131 491 490 473
f 130 474 489 488
f 489 492 493 490
f 473 490 493 475
f 474 476 492 489
f 492 494 495 493
f 475 493 495 477
f 476 478 494 492
f 494 496 497 495
f 477 495 497 479
f 478 480 496 494
f 496 498 499 497
f 479 497 499 481
f 480 482 498 496
f 498 500 501 499
f 481 499 501 483
f 482 484 500 498
f 500 502 503 501
f 483 501 503 485
f 502 504 505 503
f 487 486 505 504
f 485 503 505 486
f 506 448 452 507
f 506 508 450 448
f 506 507 509 508
f 507 452 455 510
f 510 455 457 511
f 507 510 511 509
f 508 512 469 450
f 508 509 513 512
f 511 457 472 514
f 509 511 514 513
f 512 515 484 469
f 512 513 516 515
f 514 472 487 517
f 513 514 517 516
f 518 519 502 500
f 515 518 500 484
f 515 516 519 518
f 519 520 504 502
f 517 487 504 520
f 516 517 520 519
f 521 522 523 524
f 521 525 526 522
f 522 526 527 523
f 521 524 528 525
f 524 523 529 530
f 523 527 531 529
f 524 530 532 528
f 530 529 533 534
f 529 531 535 533
f 530 534 536 532
f 534 533 537 538
f 538 537 539 540
f 533 535 539 537
f 534 538 540 536
f 525 541 542 526
f 526 542 543 527
f 525 528 544 541
f 527 543 545 531
f 528 532 546 544
f 531 545 547 535
f 532 536 548 546
f 540 539 549 550
f 535 547 549 539
f 536 540 550 548
f 541 551 552 542
f 542 552 553 543
f 541 544 554 551
f 543 553 555 545
f 544 546 556 554
f 545 555 557 547
f 546 548 558 556
f 550 549 559 560
f 547 557 559 549
f 548 550 560 558
f 551 561 562 552
f 552 562 563 553
f 551 554 564 561
f 553 563 565 555
f 554 556 566 564
f 555 565 567 557
f 556 558 568 566
f 560 559 569 570
f 557 567 569 559
f 558 560 570 568
f 561 571 572 562
f 562 572 573 563
f 561 564 574 571
f 563 573 575 565
f 564 566 576 574
f 565 575 577 567
f 566 568 578 576
f 570 569 579 580
f 567 577 579 569
f 568 570 580 578
f 571 581 582 572
f 572 582 583 573
f 571 574 584 581
f 573 583 585 575
f 574 576 586 584
f 575 585 587 577
f 576 578 588 586
f 580 579 589 590
f 577 587 589 579
f 578 580 590 588
f 591 38 42 592
f 581 591 592 582
f 582 592 42 583
f 581 584 38 591
f 583 42 45 585
f 584 586 39 38
f 585 45 79 587
f 586 588 76 39
f 76 593 594 79
f 590 589 594 593
f 587 79 594 589
f 588 590 593 76
f 595 596 114 113
f 595 597 598 596
f 595 113 599 597
f 114 600 601 115
f 113 112 602 599
f 115 601 603 134
f 112 133 604 602
f 133 134 605 606
f 606 605 607 608
f 134 603 607 605
f 133 606 608 604
f 597 609 610 598
f 598 610 611 600
f 597 599 612 609
f 600 611 613 601
f 599 602 614 612
f 601 613 615 603
f 602 604 616 614
f 608 607 617 618
f 603 615 617 607
f 604 608 618 616
f 609 619 620 610
f 610 620 621 611
f 609 612 622 619
f 611 621 623 613
f 612 614 624 622
f 613 623 625 615
f 614 616 626 624
f 618 617 627 628
f 615 625 627 617
f 616 618 628 626
f 619 629 630 620
f 620 630 631 621
f 619 622 632 629
f 621 631 633 623
f 622 624 634 632
f 623 633 635 625
f 624 626 636 634
f 628 627 637 638
f 625 635 637 627
f 626 628 638 636
f 629 639 640 630
f 630 640 641 631
f 629 632 642 639
f 631 641 643 633
f 632 634 644 642
f 633 643 645 635
f 634 636 646 644
f 638 637 647 648
f 635 645 647 637
f 636 638 648 646
f 639 649 650 640
f 640 650 651 641
f 639 642 652 649
f 641 651 653 643
f 642 644 654 652
f 643 653 655 645
f 644 646 656 654
f 648 647 657 658
f 645 655 657 647
f 646 648 658 656
f 659 660 661 662
f 649 659 662 650
f 650 662 661 651
f 649 652 660 659
f 660 663 664 661
f 651 661 664 653
f 652 654 663 660
f 663 665 666 664
f 653 664 666 655
f 654 656 665 663
f 665 667 668 666
f 658 657 668 667
f 655 666 668 657
f 656 658 667 665
f 669 670 671 672
f 669 673 674 670
f 670 674 675 671
f 669 672 676 673
f 672 671 677 678
f 671 675 679 677
f 672 678 680 676
f 678 677 681 682
f 677 679 683 681
f 678 682 684 680
f 682 681 685 686
f 681 683 687 685
f 682 686 688 684
f 686 685 689 690
f 685 687 691 689
f 686 690 692 688
f 690 689 693 694
f 689 691 695 693
f 690 694 696 692
f 694 693 697 698
f 698 697 47 43
f 693 695 47 697
f 694 698 43 696
f 673 699 700 674
f 674 700 701 675
f 673 676 702 699
f 675 701 703 679
f 676 680 704 702
f 679 703 705 683
f 680 684 706 704
f 683 705 707 687
f 684 688 708 706
f 687 707 709 691
f 688 692 710 708
f 691 709 711 695
f 692 696 712 710
f 695 711 51 47
f 696 43 46 712
f 699 713 714 700
f 700 714 715 701
f 699 702 716 713
f 701 715 717 703
f 702 704 718 716
f 703 717 719 705
f 704 706 720 718
f 705 719 721 707
f 706 708 722 720
f 707 721 723 709
f 708 710 724 722
f 709 723 725 711
f 710 712 596 724
f 711 725 117 51
f 712 46 114 596
f 726 727 728 729
f 713 726 729 714
f 714 729 728 715
f 713 716 727 726
f 727 730 731 728
f 715 728 731 717
f 716 718 730 727
f 730 732 733 731
f 717 731 733 719
f 718 720 732 730
f 732 734 735 733
f 719 733 735 721
f 720 722 734 732
f 734 736 737 735
f 721 735 737 723
f 722 724 736 734
f 736 598 738 737
f 723 737 738 725
f 724 596 598 736
f 598 600 739 738
f 114 117 739 600
f 725 738 739 117
f 740 741 742 743
f 740 83 85 741
f 741 85 744 742
f 740 743 745 83
f 743 742 746 747
f 742 744 748 746
f 743 747 749 745
f 747 746 750 751
f 746 748 752 750
f 747 751 753 749
f 751 750 754 755
f 750 752 756 754
f 751 755 757 753
f 755 754 758 759
f 754 756 760 758
f 755 759 761 757
f 759 758 762 763
f 758 760 764 762
f 759 763 765 761
f 763 762 766 767
f 767 766 768 769
f 762 764 768 766
f 763 767 769 765
f 85 770 771 744
f 83 745 772 84
f 744 771 773 748
f 745 749 774 772
f 748 773 775 752
f 749 753 776 774
f 752 775 777 756
f 753 757 778 776
f 756 777 779 760
f 757 761 780 778
f 760 779 781 764
f 761 765 782 780
f 769 768 783 784
f 764 781 783 768
f 765 769 784 782
f 770 136 785 771
f 84 772 786 135
f 771 785 787 773
f 772 774 788 786
f 773 787 789 775
f 774 776 790 788
f 775 789 791 777
f 776 778 792 790
f 777 791 793 779
f 778 780 794 792
f 779 793 795 781
f 780 782 796 794
f 784 783 797 798
f 781 795 797 783
f 782 784 798 796
f 799 800 801 802
f 135 799 802 136
f 136 802 801 785
f 135 786 800 799
f 800 803 804 801
f 785 801 804 787
f 786 788 803 800
f 803 805 806 804
f 787 804 806 789
f 788 790 805 803
f 805 807 808 806
f 789 806 808 791
f 790 792 807 805
f 807 809 810 808
f 791 808 810 793
f 792 794 809 807
f 809 811 812 810
f 793 810 812 795
f 794 796 811 809
f 811 813 814 812
f 798 797 814 813
f 795 812 814 797
f 796 798 813 811
usemtl c6
f 140 139 144 145
f 139 143 146 144
f 143 156 157 146
f 156 163 166 157
f 164 167 168 165
f 163 176 178 166
f 165 168 179 177
f 176 186 188 178
f 177 179 189 187
f 186 196 198 188
f 187 189 199 197
f 196 206 208 198
f 197 199 209 207
f 206 18 21 208
f 207 209 15 14
f 100 237 239 101
f 99 98 240 238
f 237 249 251 239
f 238 240 252 250
f 249 259 261 251
f 250 252 262 260
f 259 269 271 261
f 260 262 272 270
f 269 279 281 271
f 270 272 282 280
f 279 289 291 281
f 280 282 292 290
f 289 299 300 291
f 305 308 309 306
f 299 306 309 300
f 333 362 363 334
f 334 363 364 335
f 335 364 365 338
f 338 365 366 341
f 343 342 367 368
f 341 366 369 346
f 342 347 370 367
f 346 369 371 350
f 347 351 372 370
f 350 371 373 354
f 351 355 374 372
f 354 373 375 358
f 355 359 376 374
f 358 375 33 29
f 359 26 28 376
f 75 78 458 429
f 73 430 459 74
f 429 458 460 433
f 430 434 461 459
f 433 460 462 437
f 434 438 463 461
f 437 462 464 441
f 438 442 465 463
f 441 464 466 445
f 442 446 467 465
f 445 466 468 449
f 446 450 469 467
f 449 468 470 453
f 457 456 471 472
f 453 470 471 456
usemtl c7
f 815 816 817 818
f 815 819 820 816
f 815 818 49 819
f 816 821 822 817
f 816 820 823 821
f 821 823 824 822
f 818 817 825 826
f 818 826 50 49
f 817 822 827 825
f 822 824 828 827
f 826 825 829 741
f 741 829 830 85
f 826 741 85 50
f 825 827 831 829
f 829 831 832 830
f 827 828 832 831
f 819 833 834 820
f 819 49 52 833
f 820 834 835 823
f 823 835 836 824
f 824 836 837 828
f 85 830 838 770
f 830 832 839 838
f 828 837 839 832
f 840 119 841 842
f 833 840 842 834
f 833 52 119 840
f 842 841 843 844
f 834 842 844 835
f 835 844 843 836
f 119 118 845 841
f 841 845 846 843
f 836 843 846 837
f 118 136 847 845
f 770 838 847 136
f 845 847 848 846
f 838 839 848 847
f 837 846 848 839
