# generado por tools/vox_to_obj.py desde tabaco_v3.vox
mtllib tabaco_v3.mtl
v -1.0000 0.0000 1.0000
v -1.0000 1.0000 1.0000
v -1.0000 1.0000 0.0000
v -1.0000 0.0000 0.0000
v 0.0000 0.0000 1.0000
v 0.0000 1.0000 1.0000
v 0.0000 0.0000 0.0000
v -1.0000 2.0000 1.0000
v -1.0000 2.0000 0.0000
v 0.0000 2.0000 1.0000
v -1.0000 3.0000 1.0000
v -1.0000 3.0000 0.0000
v 0.0000 3.0000 1.0000
v -1.0000 4.0000 1.0000
v -1.0000 4.0000 0.0000
v 0.0000 4.0000 1.0000
v -1.0000 5.0000 1.0000
v -1.0000 5.0000 0.0000
v 0.0000 5.0000 1.0000
v -1.0000 6.0000 1.0000
v -1.0000 6.0000 0.0000
v 0.0000 6.0000 1.0000
v -1.0000 7.0000 1.0000
v -1.0000 7.0000 0.0000
v 0.0000 7.0000 1.0000
v 0.0000 8.0000 1.0000
v -1.0000 8.0000 1.0000
v -1.0000 9.0000 1.0000
v -1.0000 9.0000 0.0000
v -1.0000 8.0000 0.0000
v 0.0000 9.0000 1.0000
v -1.0000 10.0000 1.0000
v -1.0000 10.0000 0.0000
v 0.0000 10.0000 1.0000
v -1.0000 11.0000 1.0000
v -1.0000 11.0000 0.0000
v -1.0000 12.0000 1.0000
v -1.0000 12.0000 0.0000
v 0.0000 11.0000 1.0000
v 0.0000 12.0000 1.0000
v -1.0000 13.0000 1.0000
v -1.0000 13.0000 0.0000
v 0.0000 13.0000 1.0000
v 0.0000 14.0000 1.0000
v -1.0000 14.0000 1.0000
v -1.0000 15.0000 1.0000
v -1.0000 15.0000 0.0000
v -1.0000 14.0000 0.0000
v 0.0000 15.0000 1.0000
v -1.0000 16.0000 1.0000
v -1.0000 16.0000 0.0000
v 0.0000 16.0000 1.0000
v -1.0000 17.0000 1.0000
v -1.0000 17.0000 0.0000
v -1.0000 18.0000 1.0000
v -1.0000 18.0000 0.0000
v 0.0000 17.0000 1.0000
v 0.0000 18.0000 1.0000
v -1.0000 19.0000 1.0000
v -1.0000 19.0000 0.0000
v 0.0000 19.0000 1.0000
v 0.0000 20.0000 1.0000
v -1.0000 20.0000 1.0000
v -1.0000 21.0000 1.0000
v -1.0000 21.0000 0.0000
v -1.0000 20.0000 0.0000
v 0.0000 21.0000 1.0000
v -1.0000 22.0000 1.0000
v -1.0000 22.0000 0.0000
v 0.0000 22.0000 1.0000
v -1.0000 23.0000 1.0000
v -1.0000 23.0000 0.0000
v 0.0000 23.0000 1.0000
v -1.0000 24.0000 1.0000
v -1.0000 24.0000 0.0000
v 0.0000 24.0000 1.0000
v -1.0000 1.0000 -1.0000
v -1.0000 0.0000 -1.0000
v 0.0000 1.0000 -1.0000
v 0.0000 0.0000 -1.0000
v -1.0000 2.0000 -1.0000
v 0.0000 2.0000 -1.0000
v -1.0000 3.0000 -1.0000
v 0.0000 3.0000 -1.0000
v -1.0000 4.0000 -1.0000
v 0.0000 4.0000 -1.0000
v -1.0000 5.0000 -1.0000
v 0.0000 5.0000 -1.0000
v -1.0000 6.0000 -1.0000
v 0.0000 6.0000 -1.0000
v -1.0000 7.0000 -1.0000
v 0.0000 7.0000 -1.0000
v -1.0000 8.0000 -1.0000
v 0.0000 8.0000 -1.0000
v -1.0000 9.0000 -1.0000
v 0.0000 9.0000 -1.0000
v -1.0000 10.0000 -1.0000
v 0.0000 10.0000 -1.0000
v -1.0000 11.0000 -1.0000
v 0.0000 11.0000 -1.0000
v -1.0000 12.0000 -1.0000
v -1.0000 13.0000 -1.0000
v 0.0000 13.0000 -1.0000
v 0.0000 12.0000 -1.0000
v -1.0000 14.0000 -1.0000
v 0.0000 14.0000 -1.0000
v -1.0000 15.0000 -1.0000
v 0.0000 15.0000 -1.0000
v -1.0000 16.0000 -1.0000
v 0.0000 16.0000 -1.0000
v -1.0000 17.0000 -1.0000
v 0.0000 17.0000 -1.0000
v -1.0000 18.0000 -1.0000
v -1.0000 19.0000 -1.0000
v 0.0000 19.0000 -1.0000
v 0.0000 18.0000 -1.0000
v -1.0000 20.0000 -1.0000
v 0.0000 20.0000 -1.0000
v -1.0000 21.0000 -1.0000
v 0.0000 21.0000 -1.0000
v -1.0000 22.0000 -1.0000
v 0.0000 22.0000 -1.0000
v -1.0000 23.0000 -1.0000
v 0.0000 23.0000 -1.0000
v -1.0000 24.0000 -1.0000
v 0.0000 24.0000 -1.0000
v 1.0000 0.0000 1.0000
v 1.0000 0.0000 0.0000
v 1.0000 1.0000 0.0000
v 1.0000 1.0000 1.0000
v 1.0000 2.0000 0.0000
v 1.0000 2.0000 1.0000
v 1.0000 3.0000 0.0000
v 1.0000 3.0000 1.0000
v 1.0000 4.0000 0.0000
v 1.0000 4.0000 1.0000
v 1.0000 5.0000 0.0000
v 1.0000 5.0000 1.0000
v 1.0000 6.0000 0.0000
v 1.0000 6.0000 1.0000
v 1.0000 7.0000 0.0000
v 1.0000 7.0000 1.0000
v 1.0000 8.0000 1.0000
v 1.0000 8.0000 0.0000
v 1.0000 9.0000 0.0000
v 1.0000 9.0000 1.0000
v 1.0000 10.0000 0.0000
v 1.0000 10.0000 1.0000
v 1.0000 11.0000 0.0000
v 1.0000 11.0000 1.0000
v 1.0000 12.0000 0.0000
v 1.0000 12.0000 1.0000
v 1.0000 13.0000 0.0000
v 1.0000 13.0000 1.0000
v 1.0000 14.0000 0.0000
v 1.0000 14.0000 1.0000
v 1.0000 15.0000 1.0000
v 1.0000 15.0000 0.0000
v 1.0000 16.0000 0.0000
v 1.0000 16.0000 1.0000
v 1.0000 17.0000 0.0000
v 1.0000 17.0000 1.0000
v 1.0000 18.0000 0.0000
v 1.0000 18.0000 1.0000
v 1.0000 19.0000 0.0000
v 1.0000 19.0000 1.0000
v 1.0000 20.0000 0.0000
v 1.0000 20.0000 1.0000
v 1.0000 21.0000 1.0000
v 1.0000 21.0000 0.0000
v 1.0000 22.0000 0.0000
v 1.0000 22.0000 1.0000
v 1.0000 23.0000 0.0000
v 1.0000 23.0000 1.0000
v 1.0000 24.0000 0.0000
v 1.0000 24.0000 1.0000
v 1.0000 0.0000 -1.0000
v 1.0000 1.0000 -1.0000
v 1.0000 2.0000 -1.0000
v 1.0000 3.0000 -1.0000
v 1.0000 4.0000 -1.0000
v 1.0000 5.0000 -1.0000
v 1.0000 6.0000 -1.0000
v 1.0000 7.0000 -1.0000
v 1.0000 8.0000 -1.0000
v 1.0000 9.0000 -1.0000
v 1.0000 10.0000 -1.0000
v 1.0000 11.0000 -1.0000
v 1.0000 12.0000 -1.0000
v 1.0000 13.0000 -1.0000
v 1.0000 14.0000 -1.0000
v 1.0000 15.0000 -1.0000
v 1.0000 16.0000 -1.0000
v 1.0000 17.0000 -1.0000
v 1.0000 18.0000 -1.0000
v 1.0000 19.0000 -1.0000
v 1.0000 20.0000 -1.0000
v 1.0000 21.0000 -1.0000
v 1.0000 22.0000 -1.0000
v 1.0000 23.0000 -1.0000
v 1.0000 24.0000 -1.0000
v -10.0000 7.0000 2.0000
v -10.0000 8.0000 2.0000
v -10.0000 8.0000 1.0000
v -10.0000 7.0000 1.0000
v -9.0000 7.0000 2.0000
v -9.0000 8.0000 2.0000
v -9.0000 8.0000 1.0000
v -9.0000 7.0000 1.0000
v -10.0000 8.0000 0.0000
v -10.0000 7.0000 0.0000
v -9.0000 8.0000 0.0000
v -9.0000 7.0000 0.0000
v -10.0000 8.0000 -1.0000
v -10.0000 7.0000 -1.0000
v -9.0000 8.0000 -1.0000
v -9.0000 7.0000 -1.0000
v -10.0000 8.0000 -2.0000
v -10.0000 7.0000 -2.0000
v -9.0000 8.0000 -2.0000
v -9.0000 7.0000 -2.0000
v -8.0000 7.0000 2.0000
v -8.0000 8.0000 2.0000
v -8.0000 8.0000 1.0000
v -8.0000 7.0000 1.0000
v -8.0000 8.0000 0.0000
v -8.0000 7.0000 0.0000
v -8.0000 8.0000 -1.0000
v -8.0000 7.0000 -1.0000
v -8.0000 8.0000 -2.0000
v -8.0000 7.0000 -2.0000
v -7.0000 7.0000 2.0000
v -7.0000 8.0000 2.0000
v -7.0000 8.0000 1.0000
v -7.0000 7.0000 1.0000
v -7.0000 8.0000 0.0000
v -7.0000 7.0000 0.0000
v -7.0000 8.0000 -1.0000
v -7.0000 7.0000 -1.0000
v -7.0000 8.0000 -2.0000
v -7.0000 7.0000 -2.0000
v -6.0000 7.0000 2.0000
v -6.0000 8.0000 2.0000
v -6.0000 8.0000 1.0000
v -6.0000 7.0000 1.0000
v -6.0000 8.0000 0.0000
v -6.0000 7.0000 0.0000
v -6.0000 8.0000 -1.0000
v -6.0000 7.0000 -1.0000
v -6.0000 8.0000 -2.0000
v -6.0000 7.0000 -2.0000
v -5.0000 7.0000 2.0000
v -5.0000 8.0000 2.0000
v -5.0000 8.0000 1.0000
v -5.0000 7.0000 1.0000
v -5.0000 8.0000 0.0000
v -5.0000 7.0000 0.0000
v -5.0000 8.0000 -1.0000
v -5.0000 7.0000 -1.0000
v -5.0000 8.0000 -2.0000
v -5.0000 7.0000 -2.0000
v -4.0000 7.0000 2.0000
v -4.0000 8.0000 2.0000
v -4.0000 8.0000 1.0000
v -4.0000 7.0000 1.0000
v -4.0000 8.0000 0.0000
v -4.0000 7.0000 0.0000
v -4.0000 8.0000 -1.0000
v -4.0000 7.0000 -1.0000
v -4.0000 8.0000 -2.0000
v -4.0000 7.0000 -2.0000
v -3.0000 7.0000 2.0000
v -3.0000 8.0000 2.0000
v -3.0000 8.0000 1.0000
v -3.0000 7.0000 1.0000
v -3.0000 8.0000 0.0000
v -3.0000 7.0000 0.0000
v -3.0000 8.0000 -1.0000
v -3.0000 7.0000 -1.0000
v -3.0000 8.0000 -2.0000
v -3.0000 7.0000 -2.0000
v -2.0000 7.0000 2.0000
v -2.0000 8.0000 2.0000
v -2.0000 8.0000 1.0000
v -2.0000 7.0000 1.0000
v -2.0000 8.0000 0.0000
v -2.0000 7.0000 0.0000
v -2.0000 8.0000 -1.0000
v -2.0000 7.0000 -1.0000
v -2.0000 8.0000 -2.0000
v -2.0000 7.0000 -2.0000
v -1.0000 7.0000 2.0000
v -1.0000 8.0000 2.0000
v -1.0000 7.0000 -2.0000
v -1.0000 8.0000 -2.0000
v 1.0000 7.0000 2.0000
v 1.0000 8.0000 2.0000
v 2.0000 7.0000 2.0000
v 2.0000 8.0000 2.0000
v 2.0000 8.0000 1.0000
v 2.0000 7.0000 1.0000
v 2.0000 8.0000 0.0000
v 2.0000 7.0000 0.0000
v 2.0000 8.0000 -1.0000
v 2.0000 7.0000 -1.0000
v 1.0000 8.0000 -2.0000
v 1.0000 7.0000 -2.0000
v 2.0000 8.0000 -2.0000
v 2.0000 7.0000 -2.0000
v 3.0000 7.0000 2.0000
v 3.0000 8.0000 2.0000
v 3.0000 8.0000 1.0000
v 3.0000 7.0000 1.0000
v 3.0000 8.0000 0.0000
v 3.0000 7.0000 0.0000
v 3.0000 8.0000 -1.0000
v 3.0000 7.0000 -1.0000
v 3.0000 8.0000 -2.0000
v 3.0000 7.0000 -2.0000
v 4.0000 7.0000 2.0000
v 4.0000 8.0000 2.0000
v 4.0000 8.0000 1.0000
v 4.0000 7.0000 1.0000
v 4.0000 8.0000 0.0000
v 4.0000 7.0000 0.0000
v 4.0000 8.0000 -1.0000
v 4.0000 7.0000 -1.0000
v 4.0000 8.0000 -2.0000
v 4.0000 7.0000 -2.0000
v 5.0000 7.0000 2.0000
v 5.0000 8.0000 2.0000
v 5.0000 8.0000 1.0000
v 5.0000 7.0000 1.0000
v 5.0000 8.0000 0.0000
v 5.0000 7.0000 0.0000
v 5.0000 8.0000 -1.0000
v 5.0000 7.0000 -1.0000
v 5.0000 8.0000 -2.0000
v 5.0000 7.0000 -2.0000
v 6.0000 7.0000 2.0000
v 6.0000 8.0000 2.0000
v 6.0000 8.0000 1.0000
v 6.0000 7.0000 1.0000
v 6.0000 8.0000 0.0000
v 6.0000 7.0000 0.0000
v 6.0000 8.0000 -1.0000
v 6.0000 7.0000 -1.0000
v 6.0000 8.0000 -2.0000
v 6.0000 7.0000 -2.0000
v 7.0000 7.0000 2.0000
v 7.0000 8.0000 2.0000
v 7.0000 8.0000 1.0000
v 7.0000 7.0000 1.0000
v 7.0000 8.0000 0.0000
v 7.0000 7.0000 0.0000
v 7.0000 8.0000 -1.0000
v 7.0000 7.0000 -1.0000
v 7.0000 8.0000 -2.0000
v 7.0000 7.0000 -2.0000
v 8.0000 7.0000 2.0000
v 8.0000 8.0000 2.0000
v 8.0000 8.0000 1.0000
v 8.0000 7.0000 1.0000
v 8.0000 8.0000 0.0000
v 8.0000 7.0000 0.0000
v 8.0000 8.0000 -1.0000
v 8.0000 7.0000 -1.0000
v 8.0000 8.0000 -2.0000
v 8.0000 7.0000 -2.0000
v 9.0000 7.0000 2.0000
v 9.0000 8.0000 2.0000
v 9.0000 8.0000 1.0000
v 9.0000 7.0000 1.0000
v 9.0000 8.0000 0.0000
v 9.0000 7.0000 0.0000
v 9.0000 8.0000 -1.0000
v 9.0000 7.0000 -1.0000
v 9.0000 8.0000 -2.0000
v 9.0000 7.0000 -2.0000
v 10.0000 7.0000 2.0000
v 10.0000 7.0000 1.0000
v 10.0000 8.0000 1.0000
v 10.0000 8.0000 2.0000
v 10.0000 7.0000 0.0000
v 10.0000 8.0000 0.0000
v 10.0000 7.0000 -1.0000
v 10.0000 8.0000 -1.0000
v 10.0000 7.0000 -2.0000
v 10.0000 8.0000 -2.0000
v -2.0000 10.0000 10.0000
v -2.0000 11.0000 10.0000
v -2.0000 11.0000 9.0000
v -2.0000 10.0000 9.0000
v -1.0000 10.0000 10.0000
v -1.0000 11.0000 10.0000
v -1.0000 11.0000 9.0000
v -1.0000 10.0000 9.0000
v -2.0000 11.0000 8.0000
v -2.0000 10.0000 8.0000
v -1.0000 11.0000 8.0000
v -1.0000 10.0000 8.0000
v -2.0000 11.0000 7.0000
v -2.0000 10.0000 7.0000
v -1.0000 11.0000 7.0000
v -1.0000 10.0000 7.0000
v -2.0000 11.0000 6.0000
v -2.0000 10.0000 6.0000
v -1.0000 11.0000 6.0000
v -1.0000 10.0000 6.0000
v -2.0000 11.0000 5.0000
v -2.0000 10.0000 5.0000
v -1.0000 11.0000 5.0000
v -1.0000 10.0000 5.0000
v -2.0000 11.0000 4.0000
v -2.0000 10.0000 4.0000
v -1.0000 11.0000 4.0000
v -1.0000 10.0000 4.0000
v -2.0000 11.0000 3.0000
v -2.0000 10.0000 3.0000
v -1.0000 11.0000 3.0000
v -1.0000 10.0000 3.0000
v -2.0000 11.0000 2.0000
v -2.0000 10.0000 2.0000
v -1.0000 11.0000 2.0000
v -1.0000 10.0000 2.0000
v -2.0000 11.0000 1.0000
v -2.0000 10.0000 1.0000
v 0.0000 10.0000 10.0000
v 0.0000 11.0000 10.0000
v 0.0000 11.0000 9.0000
v 0.0000 10.0000 9.0000
v 0.0000 11.0000 8.0000
v 0.0000 10.0000 8.0000
v 0.0000 11.0000 7.0000
v 0.0000 10.0000 7.0000
v 0.0000 11.0000 6.0000
v 0.0000 10.0000 6.0000
v 0.0000 11.0000 5.0000
v 0.0000 10.0000 5.0000
v 0.0000 11.0000 4.0000
v 0.0000 10.0000 4.0000
v 0.0000 11.0000 3.0000
v 0.0000 10.0000 3.0000
v 0.0000 11.0000 2.0000
v 0.0000 10.0000 2.0000
v 1.0000 10.0000 10.0000
v 1.0000 11.0000 10.0000
v 1.0000 11.0000 9.0000
v 1.0000 10.0000 9.0000
v 1.0000 11.0000 8.0000
v 1.0000 10.0000 8.0000
v 1.0000 11.0000 7.0000
v 1.0000 10.0000 7.0000
v 1.0000 11.0000 6.0000
v 1.0000 10.0000 6.0000
v 1.0000 11.0000 5.0000
v 1.0000 10.0000 5.0000
v 1.0000 11.0000 4.0000
v 1.0000 10.0000 4.0000
v 1.0000 11.0000 3.0000
v 1.0000 10.0000 3.0000
v 1.0000 11.0000 2.0000
v 1.0000 10.0000 2.0000
v 2.0000 10.0000 10.0000
v 2.0000 10.0000 9.0000
v 2.0000 11.0000 9.0000
v 2.0000 11.0000 10.0000
v 2.0000 10.0000 8.0000
v 2.0000 11.0000 8.0000
v 2.0000 10.0000 7.0000
v 2.0000 11.0000 7.0000
v 2.0000 10.0000 6.0000
v 2.0000 11.0000 6.0000
v 2.0000 10.0000 5.0000
v 2.0000 11.0000 5.0000
v 2.0000 10.0000 4.0000
v 2.0000 11.0000 4.0000
v 2.0000 10.0000 3.0000
v 2.0000 11.0000 3.0000
v 2.0000 10.0000 2.0000
v 2.0000 11.0000 2.0000
v 2.0000 10.0000 1.0000
v 2.0000 11.0000 1.0000
v -2.0000 11.0000 -1.0000
v -2.0000 12.0000 -1.0000
v -2.0000 12.0000 -2.0000
v -2.0000 11.0000 -2.0000
v -1.0000 12.0000 -2.0000
v -1.0000 11.0000 -2.0000
v -2.0000 12.0000 -3.0000
v -2.0000 11.0000 -3.0000
v -1.0000 12.0000 -3.0000
v -1.0000 11.0000 -3.0000
v -2.0000 12.0000 -4.0000
v -2.0000 11.0000 -4.0000
v -1.0000 12.0000 -4.0000
v -1.0000 11.0000 -4.0000
v -2.0000 12.0000 -5.0000
v -2.0000 11.0000 -5.0000
v -1.0000 12.0000 -5.0000
v -1.0000 11.0000 -5.0000
v -2.0000 12.0000 -6.0000
v -2.0000 11.0000 -6.0000
v -1.0000 12.0000 -6.0000
v -1.0000 11.0000 -6.0000
v -2.0000 12.0000 -7.0000
v -2.0000 11.0000 -7.0000
v -1.0000 12.0000 -7.0000
v -1.0000 11.0000 -7.0000
v -2.0000 12.0000 -8.0000
v -2.0000 11.0000 -8.0000
v -1.0000 12.0000 -8.0000
v -1.0000 11.0000 -8.0000
v -2.0000 12.0000 -9.0000
v -2.0000 11.0000 -9.0000
v -1.0000 12.0000 -9.0000
v -1.0000 11.0000 -9.0000
v -2.0000 12.0000 -10.0000
v -2.0000 11.0000 -10.0000
v -1.0000 12.0000 -10.0000
v -1.0000 11.0000 -10.0000
v 0.0000 12.0000 -2.0000
v 0.0000 11.0000 -2.0000
v 0.0000 12.0000 -3.0000
v 0.0000 11.0000 -3.0000
v 0.0000 12.0000 -4.0000
v 0.0000 11.0000 -4.0000
v 0.0000 12.0000 -5.0000
v 0.0000 11.0000 -5.0000
v 0.0000 12.0000 -6.0000
v 0.0000 11.0000 -6.0000
v 0.0000 12.0000 -7.0000
v 0.0000 11.0000 -7.0000
v 0.0000 12.0000 -8.0000
v 0.0000 11.0000 -8.0000
v 0.0000 12.0000 -9.0000
v 0.0000 11.0000 -9.0000
v 0.0000 12.0000 -10.0000
v 0.0000 11.0000 -10.0000
v 1.0000 12.0000 -2.0000
v 1.0000 11.0000 -2.0000
v 1.0000 12.0000 -3.0000
v 1.0000 11.0000 -3.0000
v 1.0000 12.0000 -4.0000
v 1.0000 11.0000 -4.0000
v 1.0000 12.0000 -5.0000
v 1.0000 11.0000 -5.0000
v 1.0000 12.0000 -6.0000
v 1.0000 11.0000 -6.0000
v 1.0000 12.0000 -7.0000
v 1.0000 11.0000 -7.0000
v 1.0000 12.0000 -8.0000
v 1.0000 11.0000 -8.0000
v 1.0000 12.0000 -9.0000
v 1.0000 11.0000 -9.0000
v 1.0000 12.0000 -10.0000
v 1.0000 11.0000 -10.0000
v 2.0000 11.0000 -1.0000
v 2.0000 11.0000 -2.0000
v 2.0000 12.0000 -2.0000
v 2.0000 12.0000 -1.0000
v 2.0000 11.0000 -3.0000
v 2.0000 12.0000 -3.0000
v 2.0000 11.0000 -4.0000
v 2.0000 12.0000 -4.0000
v 2.0000 11.0000 -5.0000
v 2.0000 12.0000 -5.0000
v 2.0000 11.0000 -6.0000
v 2.0000 12.0000 -6.0000
v 2.0000 11.0000 -7.0000
v 2.0000 12.0000 -7.0000
v 2.0000 11.0000 -8.0000
v 2.0000 12.0000 -8.0000
v 2.0000 11.0000 -9.0000
v 2.0000 12.0000 -9.0000
v 2.0000 11.0000 -10.0000
v 2.0000 12.0000 -10.0000
v -11.0000 13.0000 2.0000
v -11.0000 14.0000 2.0000
v -11.0000 14.0000 1.0000
v -11.0000 13.0000 1.0000
v -10.0000 13.0000 2.0000
v -10.0000 14.0000 2.0000
v -10.0000 14.0000 1.0000
v -10.0000 13.0000 1.0000
v -11.0000 14.0000 0.0000
v -11.0000 13.0000 0.0000
v -10.0000 14.0000 0.0000
v -10.0000 13.0000 0.0000
v -11.0000 14.0000 -1.0000
v -11.0000 13.0000 -1.0000
v -10.0000 14.0000 -1.0000
v -10.0000 13.0000 -1.0000
v -11.0000 14.0000 -2.0000
v -11.0000 13.0000 -2.0000
v -10.0000 14.0000 -2.0000
v -10.0000 13.0000 -2.0000
v -9.0000 13.0000 2.0000
v -9.0000 14.0000 2.0000
v -9.0000 14.0000 1.0000
v -9.0000 13.0000 1.0000
v -9.0000 14.0000 0.0000
v -9.0000 13.0000 0.0000
v -9.0000 14.0000 -1.0000
v -9.0000 13.0000 -1.0000
v -9.0000 14.0000 -2.0000
v -9.0000 13.0000 -2.0000
v -8.0000 13.0000 2.0000
v -8.0000 14.0000 2.0000
v -8.0000 14.0000 1.0000
v -8.0000 13.0000 1.0000
v -8.0000 14.0000 0.0000
v -8.0000 13.0000 0.0000
v -8.0000 14.0000 -1.0000
v -8.0000 13.0000 -1.0000
v -8.0000 14.0000 -2.0000
v -8.0000 13.0000 -2.0000
v -7.0000 13.0000 2.0000
v -7.0000 14.0000 2.0000
v -7.0000 14.0000 1.0000
v -7.0000 13.0000 1.0000
v -7.0000 14.0000 0.0000
v -7.0000 13.0000 0.0000
v -7.0000 14.0000 -1.0000
v -7.0000 13.0000 -1.0000
v -7.0000 14.0000 -2.0000
v -7.0000 13.0000 -2.0000
v -6.0000 13.0000 2.0000
v -6.0000 14.0000 2.0000
v -6.0000 14.0000 1.0000
v -6.0000 13.0000 1.0000
v -6.0000 14.0000 0.0000
v -6.0000 13.0000 0.0000
v -6.0000 14.0000 -1.0000
v -6.0000 13.0000 -1.0000
v -6.0000 14.0000 -2.0000
v -6.0000 13.0000 -2.0000
v -5.0000 13.0000 2.0000
v -5.0000 14.0000 2.0000
v -5.0000 14.0000 1.0000
v -5.0000 13.0000 1.0000
v -5.0000 14.0000 0.0000
v -5.0000 13.0000 0.0000
v -5.0000 14.0000 -1.0000
v -5.0000 13.0000 -1.0000
v -5.0000 14.0000 -2.0000
v -5.0000 13.0000 -2.0000
v -4.0000 13.0000 2.0000
v -4.0000 14.0000 2.0000
v -4.0000 14.0000 1.0000
v -4.0000 13.0000 1.0000
v -4.0000 14.0000 0.0000
v -4.0000 13.0000 0.0000
v -4.0000 14.0000 -1.0000
v -4.0000 13.0000 -1.0000
v -4.0000 14.0000 -2.0000
v -4.0000 13.0000 -2.0000
v -3.0000 13.0000 2.0000
v -3.0000 14.0000 2.0000
v -3.0000 14.0000 1.0000
v -3.0000 13.0000 1.0000
v -3.0000 14.0000 0.0000
v -3.0000 13.0000 0.0000
v -3.0000 14.0000 -1.0000
v -3.0000 13.0000 -1.0000
v -3.0000 14.0000 -2.0000
v -3.0000 13.0000 -2.0000
v -2.0000 13.0000 2.0000
v -2.0000 14.0000 2.0000
v -2.0000 14.0000 1.0000
v -2.0000 13.0000 1.0000
v -2.0000 14.0000 0.0000
v -2.0000 13.0000 0.0000
v -2.0000 14.0000 -1.0000
v -2.0000 13.0000 -1.0000
v -2.0000 14.0000 -2.0000
v -2.0000 13.0000 -2.0000
v -1.0000 13.0000 2.0000
v -1.0000 14.0000 2.0000
v -1.0000 13.0000 -2.0000
v -1.0000 14.0000 -2.0000
v 1.0000 14.0000 2.0000
v 1.0000 15.0000 2.0000
v 2.0000 14.0000 2.0000
v 2.0000 15.0000 2.0000
v 2.0000 15.0000 1.0000
v 2.0000 14.0000 1.0000
v 2.0000 15.0000 0.0000
v 2.0000 14.0000 0.0000
v 2.0000 15.0000 -1.0000
v 2.0000 14.0000 -1.0000
v 1.0000 15.0000 -2.0000
v 1.0000 14.0000 -2.0000
v 2.0000 15.0000 -2.0000
v 2.0000 14.0000 -2.0000
v 3.0000 14.0000 2.0000
v 3.0000 15.0000 2.0000
v 3.0000 15.0000 1.0000
v 3.0000 14.0000 1.0000
v 3.0000 15.0000 0.0000
v 3.0000 14.0000 0.0000
v 3.0000 15.0000 -1.0000
v 3.0000 14.0000 -1.0000
v 3.0000 15.0000 -2.0000
v 3.0000 14.0000 -2.0000
v 4.0000 14.0000 2.0000
v 4.0000 15.0000 2.0000
v 4.0000 15.0000 1.0000
v 4.0000 14.0000 1.0000
v 4.0000 15.0000 0.0000
v 4.0000 14.0000 0.0000
v 4.0000 15.0000 -1.0000
v 4.0000 14.0000 -1.0000
v 4.0000 15.0000 -2.0000
v 4.0000 14.0000 -2.0000
v 5.0000 14.0000 2.0000
v 5.0000 15.0000 2.0000
v 5.0000 15.0000 1.0000
v 5.0000 14.0000 1.0000
v 5.0000 15.0000 0.0000
v 5.0000 14.0000 0.0000
v 5.0000 15.0000 -1.0000
v 5.0000 14.0000 -1.0000
v 5.0000 15.0000 -2.0000
v 5.0000 14.0000 -2.0000
v 6.0000 14.0000 2.0000
v 6.0000 15.0000 2.0000
v 6.0000 15.0000 1.0000
v 6.0000 14.0000 1.0000
v 6.0000 15.0000 0.0000
v 6.0000 14.0000 0.0000
v 6.0000 15.0000 -1.0000
v 6.0000 14.0000 -1.0000
v 6.0000 15.0000 -2.0000
v 6.0000 14.0000 -2.0000
v 7.0000 14.0000 2.0000
v 7.0000 15.0000 2.0000
v 7.0000 15.0000 1.0000
v 7.0000 14.0000 1.0000
v 7.0000 15.0000 0.0000
v 7.0000 14.0000 0.0000
v 7.0000 15.0000 -1.0000
v 7.0000 14.0000 -1.0000
v 7.0000 15.0000 -2.0000
v 7.0000 14.0000 -2.0000
v 8.0000 14.0000 2.0000
v 8.0000 15.0000 2.0000
v 8.0000 15.0000 1.0000
v 8.0000 14.0000 1.0000
v 8.0000 15.0000 0.0000
v 8.0000 14.0000 0.0000
v 8.0000 15.0000 -1.0000
v 8.0000 14.0000 -1.0000
v 8.0000 15.0000 -2.0000
v 8.0000 14.0000 -2.0000
v 9.0000 14.0000 2.0000
v 9.0000 15.0000 2.0000
v 9.0000 15.0000 1.0000
v 9.0000 14.0000 1.0000
v 9.0000 15.0000 0.0000
v 9.0000 14.0000 0.0000
v 9.0000 15.0000 -1.0000
v 9.0000 14.0000 -1.0000
v 9.0000 15.0000 -2.0000
v 9.0000 14.0000 -2.0000
v 10.0000 14.0000 2.0000
v 10.0000 15.0000 2.0000
v 10.0000 15.0000 1.0000
v 10.0000 14.0000 1.0000
v 10.0000 15.0000 0.0000
v 10.0000 14.0000 0.0000
v 10.0000 15.0000 -1.0000
v 10.0000 14.0000 -1.0000
v 10.0000 15.0000 -2.0000
v 10.0000 14.0000 -2.0000
v 11.0000 14.0000 2.0000
v 11.0000 14.0000 1.0000
v 11.0000 15.0000 1.0000
v 11.0000 15.0000 2.0000
v 11.0000 14.0000 0.0000
v 11.0000 15.0000 0.0000
v 11.0000 14.0000 -1.0000
v 11.0000 15.0000 -1.0000
v 11.0000 14.0000 -2.0000
v 11.0000 15.0000 -2.0000
v -2.0000 16.0000 9.0000
v -2.0000 17.0000 9.0000
v -2.0000 17.0000 8.0000
v -2.0000 16.0000 8.0000
v -1.0000 16.0000 9.0000
v -1.0000 17.0000 9.0000
v -1.0000 17.0000 8.0000
v -1.0000 16.0000 8.0000
v -2.0000 17.0000 7.0000
v -2.0000 16.0000 7.0000
v -1.0000 17.0000 7.0000
v -1.0000 16.0000 7.0000
v -2.0000 17.0000 6.0000
v -2.0000 16.0000 6.0000
v -1.0000 17.0000 6.0000
v -1.0000 16.0000 6.0000
v -2.0000 17.0000 5.0000
v -2.0000 16.0000 5.0000
v -1.0000 17.0000 5.0000
v -1.0000 16.0000 5.0000
v -2.0000 17.0000 4.0000
v -2.0000 16.0000 4.0000
v -1.0000 17.0000 4.0000
v -1.0000 16.0000 4.0000
v -2.0000 17.0000 3.0000
v -2.0000 16.0000 3.0000
v -1.0000 17.0000 3.0000
v -1.0000 16.0000 3.0000
v -2.0000 17.0000 2.0000
v -2.0000 16.0000 2.0000
v -1.0000 17.0000 2.0000
v -1.0000 16.0000 2.0000
v -2.0000 17.0000 1.0000
v -2.0000 16.0000 1.0000
v 0.0000 16.0000 9.0000
v 0.0000 17.0000 9.0000
v 0.0000 17.0000 8.0000
v 0.0000 16.0000 8.0000
v 0.0000 17.0000 7.0000
v 0.0000 16.0000 7.0000
v 0.0000 17.0000 6.0000
v 0.0000 16.0000 6.0000
v 0.0000 17.0000 5.0000
v 0.0000 16.0000 5.0000
v 0.0000 17.0000 4.0000
v 0.0000 16.0000 4.0000
v 0.0000 17.0000 3.0000
v 0.0000 16.0000 3.0000
v 0.0000 17.0000 2.0000
v 0.0000 16.0000 2.0000
v 1.0000 16.0000 9.0000
v 1.0000 17.0000 9.0000
v 1.0000 17.0000 8.0000
v 1.0000 16.0000 8.0000
v 1.0000 17.0000 7.0000
v 1.0000 16.0000 7.0000
v 1.0000 17.0000 6.0000
v 1.0000 16.0000 6.0000
v 1.0000 17.0000 5.0000
v 1.0000 16.0000 5.0000
v 1.0000 17.0000 4.0000
v 1.0000 16.0000 4.0000
v 1.0000 17.0000 3.0000
v 1.0000 16.0000 3.0000
v 1.0000 17.0000 2.0000
v 1.0000 16.0000 2.0000
v 2.0000 16.0000 9.0000
v 2.0000 16.0000 8.0000
v 2.0000 17.0000 8.0000
v 2.0000 17.0000 9.0000
v 2.0000 16.0000 7.0000
v 2.0000 17.0000 7.0000
v 2.0000 16.0000 6.0000
v 2.0000 17.0000 6.0000
v 2.0000 16.0000 5.0000
v 2.0000 17.0000 5.0000
v 2.0000 16.0000 4.0000
v 2.0000 17.0000 4.0000
v 2.0000 16.0000 3.0000
v 2.0000 17.0000 3.0000
v 2.0000 16.0000 2.0000
v 2.0000 17.0000 2.0000
v 2.0000 16.0000 1.0000
v 2.0000 17.0000 1.0000
v -2.0000 17.0000 -1.0000
v -2.0000 18.0000 -1.0000
v -2.0000 18.0000 -2.0000
v -2.0000 17.0000 -2.0000
v -1.0000 18.0000 -2.0000
v -1.0000 17.0000 -2.0000
v -2.0000 18.0000 -3.0000
v -2.0000 17.0000 -3.0000
v -1.0000 18.0000 -3.0000
v -1.0000 17.0000 -3.0000
v -2.0000 18.0000 -4.0000
v -2.0000 17.0000 -4.0000
v -1.0000 18.0000 -4.0000
v -1.0000 17.0000 -4.0000
v -2.0000 18.0000 -5.0000
v -2.0000 17.0000 -5.0000
v -1.0000 18.0000 -5.0000
v -1.0000 17.0000 -5.0000
v -2.0000 18.0000 -6.0000
v -2.0000 17.0000 -6.0000
v -1.0000 18.0000 -6.0000
v -1.0000 17.0000 -6.0000
v -2.0000 18.0000 -7.0000
v -2.0000 17.0000 -7.0000
v -1.0000 18.0000 -7.0000
v -1.0000 17.0000 -7.0000
v -2.0000 18.0000 -8.0000
v -2.0000 17.0000 -8.0000
v -1.0000 18.0000 -8.0000
v -1.0000 17.0000 -8.0000
v -2.0000 18.0000 -9.0000
v -2.0000 17.0000 -9.0000
v -1.0000 18.0000 -9.0000
v -1.0000 17.0000 -9.0000
v 0.0000 18.0000 -2.0000
v 0.0000 17.0000 -2.0000
v 0.0000 18.0000 -3.0000
v 0.0000 17.0000 -3.0000
v 0.0000 18.0000 -4.0000
v 0.0000 17.0000 -4.0000
v 0.0000 18.0000 -5.0000
v 0.0000 17.0000 -5.0000
v 0.0000 18.0000 -6.0000
v 0.0000 17.0000 -6.0000
v 0.0000 18.0000 -7.0000
v 0.0000 17.0000 -7.0000
v 0.0000 18.0000 -8.0000
v 0.0000 17.0000 -8.0000
v 0.0000 18.0000 -9.0000
v 0.0000 17.0000 -9.0000
v 1.0000 18.0000 -2.0000
v 1.0000 17.0000 -2.0000
v 1.0000 18.0000 -3.0000
v 1.0000 17.0000 -3.0000
v 1.0000 18.0000 -4.0000
v 1.0000 17.0000 -4.0000
v 1.0000 18.0000 -5.0000
v 1.0000 17.0000 -5.0000
v 1.0000 18.0000 -6.0000
v 1.0000 17.0000 -6.0000
v 1.0000 18.0000 -7.0000
v 1.0000 17.0000 -7.0000
v 1.0000 18.0000 -8.0000
v 1.0000 17.0000 -8.0000
v 1.0000 18.0000 -9.0000
v 1.0000 17.0000 -9.0000
v 2.0000 17.0000 -1.0000
v 2.0000 17.0000 -2.0000
v 2.0000 18.0000 -2.0000
v 2.0000 18.0000 -1.0000
v 2.0000 17.0000 -3.0000
v 2.0000 18.0000 -3.0000
v 2.0000 17.0000 -4.0000
v 2.0000 18.0000 -4.0000
v 2.0000 17.0000 -5.0000
v 2.0000 18.0000 -5.0000
v 2.0000 17.0000 -6.0000
v 2.0000 18.0000 -6.0000
v 2.0000 17.0000 -7.0000
v 2.0000 18.0000 -7.0000
v 2.0000 17.0000 -8.0000
v 2.0000 18.0000 -8.0000
v 2.0000 17.0000 -9.0000
v 2.0000 18.0000 -9.0000
v -7.0000 19.0000 2.0000
v -7.0000 20.0000 2.0000
v -7.0000 20.0000 1.0000
v -7.0000 19.0000 1.0000
v -6.0000 19.0000 2.0000
v -6.0000 20.0000 2.0000
v -6.0000 20.0000 1.0000
v -6.0000 19.0000 1.0000
v -7.0000 20.0000 0.0000
v -7.0000 19.0000 0.0000
v -6.0000 20.0000 0.0000
v -6.0000 19.0000 0.0000
v -7.0000 20.0000 -1.0000
v -7.0000 19.0000 -1.0000
v -6.0000 20.0000 -1.0000
v -6.0000 19.0000 -1.0000
v -5.0000 19.0000 2.0000
v -5.0000 20.0000 2.0000
v -5.0000 20.0000 1.0000
v -5.0000 19.0000 1.0000
v -5.0000 20.0000 0.0000
v -5.0000 19.0000 0.0000
v -5.0000 20.0000 -1.0000
v -5.0000 19.0000 -1.0000
v -4.0000 19.0000 2.0000
v -4.0000 20.0000 2.0000
v -4.0000 20.0000 1.0000
v -4.0000 19.0000 1.0000
v -4.0000 20.0000 0.0000
v -4.0000 19.0000 0.0000
v -4.0000 20.0000 -1.0000
v -4.0000 19.0000 -1.0000
v -3.0000 19.0000 2.0000
v -3.0000 20.0000 2.0000
v -3.0000 20.0000 1.0000
v -3.0000 19.0000 1.0000
v -3.0000 20.0000 0.0000
v -3.0000 19.0000 0.0000
v -3.0000 20.0000 -1.0000
v -3.0000 19.0000 -1.0000
v -2.0000 19.0000 2.0000
v -2.0000 20.0000 2.0000
v -2.0000 20.0000 1.0000
v -2.0000 19.0000 1.0000
v -2.0000 20.0000 0.0000
v -2.0000 19.0000 0.0000
v -2.0000 20.0000 -1.0000
v -2.0000 19.0000 -1.0000
v -1.0000 19.0000 2.0000
v -1.0000 20.0000 2.0000
v 2.0000 20.0000 1.0000
v 2.0000 21.0000 1.0000
v 2.0000 21.0000 0.0000
v 2.0000 20.0000 0.0000
v 2.0000 21.0000 -1.0000
v 2.0000 20.0000 -1.0000
v 1.0000 21.0000 -2.0000
v 1.0000 20.0000 -2.0000
v 2.0000 21.0000 -2.0000
v 2.0000 20.0000 -2.0000
v 3.0000 20.0000 1.0000
v 3.0000 21.0000 1.0000
v 3.0000 21.0000 0.0000
v 3.0000 20.0000 0.0000
v 3.0000 21.0000 -1.0000
v 3.0000 20.0000 -1.0000
v 3.0000 21.0000 -2.0000
v 3.0000 20.0000 -2.0000
v 4.0000 20.0000 1.0000
v 4.0000 21.0000 1.0000
v 4.0000 21.0000 0.0000
v 4.0000 20.0000 0.0000
v 4.0000 21.0000 -1.0000
v 4.0000 20.0000 -1.0000
v 4.0000 21.0000 -2.0000
v 4.0000 20.0000 -2.0000
v 5.0000 20.0000 1.0000
v 5.0000 21.0000 1.0000
v 5.0000 21.0000 0.0000
v 5.0000 20.0000 0.0000
v 5.0000 21.0000 -1.0000
v 5.0000 20.0000 -1.0000
v 5.0000 21.0000 -2.0000
v 5.0000 20.0000 -2.0000
v 6.0000 20.0000 1.0000
v 6.0000 21.0000 1.0000
v 6.0000 21.0000 0.0000
v 6.0000 20.0000 0.0000
v 6.0000 21.0000 -1.0000
v 6.0000 20.0000 -1.0000
v 6.0000 21.0000 -2.0000
v 6.0000 20.0000 -2.0000
v 7.0000 20.0000 1.0000
v 7.0000 20.0000 0.0000
v 7.0000 21.0000 0.0000
v 7.0000 21.0000 1.0000
v 7.0000 20.0000 -1.0000
v 7.0000 21.0000 -1.0000
v 7.0000 20.0000 -2.0000
v 7.0000 21.0000 -2.0000
v -3.0000 24.0000 3.0000
v -3.0000 25.0000 3.0000
v -3.0000 25.0000 2.0000
v -3.0000 24.0000 2.0000
v -2.0000 24.0000 3.0000
v -2.0000 25.0000 3.0000
v -2.0000 25.0000 2.0000
v -2.0000 24.0000 2.0000
v -3.0000 25.0000 1.0000
v -3.0000 24.0000 1.0000
v -2.0000 25.0000 1.0000
v -2.0000 24.0000 1.0000
v -3.0000 25.0000 0.0000
v -3.0000 24.0000 0.0000
v -2.0000 24.0000 0.0000
v -3.0000 25.0000 -1.0000
v -3.0000 24.0000 -1.0000
v -2.0000 25.0000 0.0000
v -2.0000 25.0000 -1.0000
v -2.0000 24.0000 -1.0000
v -3.0000 25.0000 -2.0000
v -3.0000 24.0000 -2.0000
v -2.0000 25.0000 -2.0000
v -2.0000 24.0000 -2.0000
v -3.0000 25.0000 -3.0000
v -3.0000 24.0000 -3.0000
v -2.0000 25.0000 -3.0000
v -2.0000 24.0000 -3.0000
v -1.0000 24.0000 3.0000
v -1.0000 25.0000 3.0000
v -1.0000 25.0000 2.0000
v -1.0000 24.0000 2.0000
v -1.0000 24.0000 -2.0000
v -1.0000 25.0000 -3.0000
v -1.0000 24.0000 -3.0000
v -1.0000 25.0000 -2.0000
v 0.0000 24.0000 3.0000
v 0.0000 25.0000 3.0000
v 0.0000 25.0000 2.0000
v 0.0000 24.0000 2.0000
v 0.0000 24.0000 -2.0000
v 0.0000 25.0000 -3.0000
v 0.0000 24.0000 -3.0000
v 0.0000 25.0000 -2.0000
v 1.0000 24.0000 3.0000
v 1.0000 25.0000 3.0000
v 1.0000 25.0000 2.0000
v 1.0000 24.0000 2.0000
v 1.0000 24.0000 -2.0000
v 1.0000 25.0000 -3.0000
v 1.0000 24.0000 -3.0000
v 1.0000 25.0000 -2.0000
v 2.0000 24.0000 3.0000
v 2.0000 25.0000 3.0000
v 2.0000 25.0000 2.0000
v 2.0000 24.0000 2.0000
v 2.0000 24.0000 1.0000
v 2.0000 24.0000 0.0000
v 2.0000 24.0000 -1.0000
v 2.0000 24.0000 -2.0000
v 2.0000 25.0000 -3.0000
v 2.0000 24.0000 -3.0000
v 2.0000 25.0000 -2.0000
v 3.0000 24.0000 3.0000
v 3.0000 24.0000 2.0000
v 3.0000 25.0000 2.0000
v 3.0000 25.0000 3.0000
v 3.0000 24.0000 1.0000
v 3.0000 25.0000 1.0000
v 2.0000 25.0000 1.0000
v 3.0000 24.0000 0.0000
v 3.0000 25.0000 0.0000
v 2.0000 25.0000 0.0000
v 3.0000 24.0000 -1.0000
v 3.0000 25.0000 -1.0000
v 3.0000 24.0000 -2.0000
v 3.0000 25.0000 -2.0000
v 2.0000 25.0000 -1.0000
v 3.0000 24.0000 -3.0000
v 3.0000 25.0000 -3.0000
v -2.0000 26.0000 2.0000
v -2.0000 26.0000 1.0000
v -1.0000 26.0000 2.0000
v -2.0000 27.0000 2.0000
v -2.0000 27.0000 1.0000
v -1.0000 27.0000 2.0000
v -1.0000 27.0000 1.0000
v -2.0000 27.0000 0.0000
v -2.0000 26.0000 0.0000
v -1.0000 27.0000 0.0000
v -2.0000 26.0000 -1.0000
v -2.0000 27.0000 -1.0000
v -1.0000 27.0000 -1.0000
v -2.0000 26.0000 -2.0000
v -1.0000 26.0000 -2.0000
v -2.0000 27.0000 -2.0000
v -1.0000 27.0000 -2.0000
v 0.0000 26.0000 2.0000
v 0.0000 27.0000 2.0000
v 0.0000 27.0000 1.0000
v 0.0000 27.0000 0.0000
v 0.0000 27.0000 -1.0000
v 0.0000 26.0000 -2.0000
v 0.0000 27.0000 -2.0000
v 1.0000 26.0000 2.0000
v 1.0000 27.0000 2.0000
v 1.0000 27.0000 1.0000
v 1.0000 27.0000 0.0000
v 1.0000 27.0000 -1.0000
v 1.0000 26.0000 -2.0000
v 1.0000 27.0000 -2.0000
v 2.0000 26.0000 1.0000
v 2.0000 26.0000 2.0000
v 2.0000 27.0000 1.0000
v 2.0000 27.0000 2.0000
v 2.0000 26.0000 0.0000
v 2.0000 27.0000 0.0000
v 2.0000 26.0000 -1.0000
v 2.0000 27.0000 -1.0000
v 2.0000 26.0000 -2.0000
v 2.0000 27.0000 -2.0000
v -3.0000 26.0000 1.0000
v -3.0000 26.0000 0.0000
v 3.0000 26.0000 -1.0000
v 3.0000 26.0000 0.0000
usemtl c6
f 205 204 210 211
f 204 208 212 210
f 205 211 213 209
f 208 224 226 212
f 209 213 227 225
f 224 234 236 226
f 225 227 237 235
f 234 244 246 236
f 235 237 247 245
f 244 254 256 246
f 245 247 257 255
f 254 264 266 256
f 255 257 267 265
f 264 274 276 266
f 265 267 277 275
f 274 284 286 276
f 275 277 287 285
f 284 27 30 286
f 285 287 24 23
f 581 580 586 587
f 580 584 588 586
f 581 587 589 585
f 584 600 602 588
f 585 589 603 601
f 600 610 612 602
f 601 603 613 611
f 610 620 622 612
f 611 613 623 621
f 620 630 632 622
f 621 623 633 631
f 630 640 642 632
f 631 633 643 641
f 640 650 652 642
f 641 643 653 651
f 650 660 662 652
f 651 653 663 661
f 660 670 672 662
f 661 663 673 671
f 670 45 48 672
f 671 673 42 41
f 157 686 688 158
f 156 155 689 687
f 686 698 700 688
f 687 689 701 699
f 698 708 710 700
f 699 701 711 709
f 708 718 720 710
f 709 711 721 719
f 718 728 730 720
f 719 721 731 729
f 728 738 740 730
f 729 731 741 739
f 738 748 750 740
f 739 741 751 749
f 748 758 760 750
f 749 751 761 759
f 758 768 770 760
f 759 761 771 769
f 777 780 781 778
f 768 778 781 770
f 769 771 780 777
usemtl c8
f 1 2 3 4
f 1 5 6 2
f 1 4 7 5
f 2 8 9 3
f 2 6 10 8
f 8 11 12 9
f 8 10 13 11
f 11 14 15 12
f 11 13 16 14
f 14 17 18 15
f 14 16 19 17
f 17 20 21 18
f 17 19 22 20
f 20 23 24 21
f 20 22 25 23
f 23 25 26 27
f 27 28 29 30
f 27 26 31 28
f 28 32 33 29
f 28 31 34 32
f 32 35 36 33
f 35 37 38 36
f 35 39 40 37
f 37 41 42 38
f 37 40 43 41
f 41 43 44 45
f 45 46 47 48
f 45 44 49 46
f 46 50 51 47
f 46 49 52 50
f 50 53 54 51
f 53 55 56 54
f 53 57 58 55
f 55 59 60 56
f 55 58 61 59
f 59 61 62 63
f 63 64 65 66
f 63 62 67 64
f 64 68 69 65
f 64 67 70 68
f 68 71 72 69
f 68 70 73 71
f 71 74 75 72
f 71 73 76 74
f 4 3 77 78
f 78 77 79 80
f 4 78 80 7
f 3 9 81 77
f 77 81 82 79
f 9 12 83 81
f 81 83 84 82
f 12 15 85 83
f 83 85 86 84
f 15 18 87 85
f 85 87 88 86
f 18 21 89 87
f 87 89 90 88
f 21 24 91 89
f 89 91 92 90
f 91 93 94 92
f 30 29 95 93
f 93 95 96 94
f 29 33 97 95
f 95 97 98 96
f 33 36 99 97
f 97 99 100 98
f 36 38 101 99
f 38 42 102 101
f 101 102 103 104
f 102 105 106 103
f 48 47 107 105
f 105 107 108 106
f 47 51 109 107
f 107 109 110 108
f 51 54 111 109
f 109 111 112 110
f 54 56 113 111
f 56 60 114 113
f 113 114 115 116
f 114 117 118 115
f 66 65 119 117
f 117 119 120 118
f 65 69 121 119
f 119 121 122 120
f 69 72 123 121
f 121 123 124 122
f 72 75 125 123
f 123 125 126 124
f 127 128 129 130
f 5 127 130 6
f 5 7 128 127
f 130 129 131 132
f 6 130 132 10
f 132 131 133 134
f 10 132 134 13
f 134 133 135 136
f 13 134 136 16
f 136 135 137 138
f 16 136 138 19
f 138 137 139 140
f 19 138 140 22
f 140 139 141 142
f 22 140 142 25
f 25 142 143 26
f 143 144 145 146
f 26 143 146 31
f 146 145 147 148
f 31 146 148 34
f 148 147 149 150
f 150 149 151 152
f 39 150 152 40
f 152 151 153 154
f 40 152 154 43
f 154 153 155 156
f 43 154 156 44
f 44 156 157 49
f 157 158 159 160
f 49 157 160 52
f 160 159 161 162
f 162 161 163 164
f 57 162 164 58
f 164 163 165 166
f 58 164 166 61
f 166 165 167 168
f 61 166 168 62
f 62 168 169 67
f 169 170 171 172
f 67 169 172 70
f 172 171 173 174
f 70 172 174 73
f 174 173 175 176
f 73 174 176 76
f 128 177 178 129
f 80 79 178 177
f 7 80 177 128
f 129 178 179 131
f 79 82 179 178
f 131 179 180 133
f 82 84 180 179
f 133 180 181 135
f 84 86 181 180
f 135 181 182 137
f 86 88 182 181
f 137 182 183 139
f 88 90 183 182
f 139 183 184 141
f 90 92 184 183
f 92 94 185 184
f 144 185 186 145
f 94 96 186 185
f 145 186 187 147
f 96 98 187 186
f 147 187 188 149
f 98 100 188 187
f 149 188 189 151
f 151 189 190 153
f 104 103 190 189
f 153 190 191 155
f 103 106 191 190
f 106 108 192 191
f 158 192 193 159
f 108 110 193 192
f 159 193 194 161
f 110 112 194 193
f 161 194 195 163
f 163 195 196 165
f 116 115 196 195
f 165 196 197 167
f 115 118 197 196
f 118 120 198 197
f 170 198 199 171
f 120 122 199 198
f 171 199 200 173
f 122 124 200 199
f 173 200 201 175
f 124 126 201 200
usemtl c9
f 202 203 204 205
f 202 206 207 203
f 203 207 208 204
f 202 205 209 206
f 211 210 214 215
f 210 212 216 214
f 211 215 217 213
f 215 214 218 219
f 219 218 220 221
f 214 216 220 218
f 215 219 221 217
f 206 222 223 207
f 207 223 224 208
f 206 209 225 222
f 212 226 228 216
f 213 217 229 227
f 221 220 230 231
f 216 228 230 220
f 217 221 231 229
f 222 232 233 223
f 223 233 234 224
f 222 225 235 232
f 226 236 238 228
f 227 229 239 237
f 231 230 240 241
f 228 238 240 230
f 229 231 241 239
f 232 242 243 233
f 233 243 244 234
f 232 235 245 242
f 236 246 248 238
f 237 239 249 247
f 241 240 250 251
f 238 248 250 240
f 239 241 251 249
f 242 252 253 243
f 243 253 254 244
f 242 245 255 252
f 246 256 258 248
f 247 249 259 257
f 251 250 260 261
f 248 258 260 250
f 249 251 261 259
f 252 262 263 253
f 253 263 264 254
f 252 255 265 262
f 256 266 268 258
f 257 259 269 267
f 261 260 270 271
f 258 268 270 260
f 259 261 271 269
f 262 272 273 263
f 263 273 274 264
f 262 265 275 272
f 266 276 278 268
f 267 269 279 277
f 271 270 280 281
f 268 278 280 270
f 269 271 281 279
f 272 282 283 273
f 273 283 284 274
f 272 275 285 282
f 276 286 288 278
f 277 279 289 287
f 281 280 290 291
f 278 288 290 280
f 279 281 291 289
f 292 23 27 293
f 282 292 293 283
f 283 293 27 284
f 282 285 23 292
f 286 30 93 288
f 287 289 91 24
f 91 294 295 93
f 291 290 295 294
f 288 93 295 290
f 289 291 294 91
f 296 297 143 142
f 296 298 299 297
f 297 299 300 143
f 296 142 301 298
f 143 300 302 144
f 142 141 303 301
f 144 302 304 185
f 141 184 305 303
f 184 185 306 307
f 307 306 308 309
f 185 304 308 306
f 184 307 309 305
f 298 310 311 299
f 299 311 312 300
f 298 301 313 310
f 300 312 314 302
f 301 303 315 313
f 302 314 316 304
f 303 305 317 315
f 309 308 318 319
f 304 316 318 308
f 305 309 319 317
f 310 320 321 311
f 311 321 322 312
f 310 313 323 320
f 312 322 324 314
f 313 315 325 323
f 314 324 326 316
f 315 317 327 325
f 319 318 328 329
f 316 326 328 318
f 317 319 329 327
f 320 330 331 321
f 321 331 332 322
f 320 323 333 330
f 322 332 334 324
f 323 325 335 333
f 324 334 336 326
f 325 327 337 335
f 329 328 338 339
f 326 336 338 328
f 327 329 339 337
f 330 340 341 331
f 331 341 342 332
f 330 333 343 340
f 332 342 344 334
f 333 335 345 343
f 334 344 346 336
f 335 337 347 345
f 339 338 348 349
f 336 346 348 338
f 337 339 349 347
f 340 350 351 341
f 341 351 352 342
f 340 343 353 350
f 342 352 354 344
f 343 345 355 353
f 344 354 356 346
f 345 347 357 355
f 349 348 358 359
f 346 356 358 348
f 347 349 359 357
f 350 360 361 351
f 351 361 362 352
f 350 353 363 360
f 352 362 364 354
f 353 355 365 363
f 354 364 366 356
f 355 357 367 365
f 359 358 368 369
f 356 366 368 358
f 357 359 369 367
f 360 370 371 361
f 361 371 372 362
f 360 363 373 370
f 362 372 374 364
f 363 365 375 373
f 364 374 376 366
f 365 367 377 375
f 369 368 378 379
f 366 376 378 368
f 367 369 379 377
f 380 381 382 383
f 370 380 383 371
f 371 383 382 372
f 370 373 381 380
f 381 384 385 382
f 372 382 385 374
f 373 375 384 381
f 384 386 387 385
f 374 385 387 376
f 375 377 386 384
f 386 388 389 387
f 379 378 389 388
f 376 387 389 378
f 377 379 388 386
f 390 391 392 393
f 390 394 395 391
f 391 395 396 392
f 390 393 397 394
f 393 392 398 399
f 392 396 400 398
f 393 399 401 397
f 399 398 402 403
f 398 400 404 402
f 399 403 405 401
f 403 402 406 407
f 402 404 408 406
f 403 407 409 405
f 407 406 410 411
f 406 408 412 410
f 407 411 413 409
f 411 410 414 415
f 410 412 416 414
f 411 415 417 413
f 415 414 418 419
f 414 416 420 418
f 415 419 421 417
f 419 418 422 423
f 418 420 424 422
f 419 423 425 421
f 423 422 426 427
f 427 426 35 32
f 422 424 35 426
f 423 427 32 425
f 394 428 429 395
f 395 429 430 396
f 394 397 431 428
f 396 430 432 400
f 397 401 433 431
f 400 432 434 404
f 401 405 435 433
f 404 434 436 408
f 405 409 437 435
f 408 436 438 412
f 409 413 439 437
f 412 438 440 416
f 413 417 441 439
f 416 440 442 420
f 417 421 443 441
f 420 442 444 424
f 421 425 445 443
f 424 444 39 35
f 425 32 34 445
f 428 446 447 429
f 429 447 448 430
f 428 431 449 446
f 430 448 450 432
f 431 433 451 449
f 432 450 452 434
f 433 435 453 451
f 434 452 454 436
f 435 437 455 453
f 436 454 456 438
f 437 439 457 455
f 438 456 458 440
f 439 441 459 457
f 440 458 460 442
f 441 443 461 459
f 442 460 462 444
f 443 445 463 461
f 444 462 150 39
f 445 34 148 463
f 464 465 466 467
f 446 464 467 447
f 447 467 466 448
f 446 449 465 464
f 465 468 469 466
f 448 466 469 450
f 449 451 468 465
f 468 470 471 469
f 450 469 471 452
f 451 453 470 468
f 470 472 473 471
f 452 471 473 454
f 453 455 472 470
f 472 474 475 473
f 454 473 475 456
f 455 457 474 472
f 474 476 477 475
f 456 475 477 458
f 457 459 476 474
f 476 478 479 477
f 458 477 479 460
f 459 461 478 476
f 478 480 481 479
f 460 479 481 462
f 461 463 480 478
f 480 482 483 481
f 148 150 483 482
f 462 481 483 150
f 463 148 482 480
f 484 485 486 487
f 484 99 101 485
f 485 101 488 486
f 484 487 489 99
f 487 486 490 491
f 486 488 492 490
f 487 491 493 489
f 491 490 494 495
f 490 492 496 494
f 491 495 497 493
f 495 494 498 499
f 494 496 500 498
f 495 499 501 497
f 499 498 502 503
f 498 500 504 502
f 499 503 505 501
f 503 502 506 507
f 502 504 508 506
f 503 507 509 505
f 507 506 510 511
f 506 508 512 510
f 507 511 513 509
f 511 510 514 515
f 510 512 516 514
f 511 515 517 513
f 515 514 518 519
f 519 518 520 521
f 514 516 520 518
f 515 519 521 517
f 101 104 522 488
f 99 489 523 100
f 488 522 524 492
f 489 493 525 523
f 492 524 526 496
f 493 497 527 525
f 496 526 528 500
f 497 501 529 527
f 500 528 530 504
f 501 505 531 529
f 504 530 532 508
f 505 509 533 531
f 508 532 534 512
f 509 513 535 533
f 512 534 536 516
f 513 517 537 535
f 521 520 538 539
f 516 536 538 520
f 517 521 539 537
f 104 189 540 522
f 100 523 541 188
f 522 540 542 524
f 523 525 543 541
f 524 542 544 526
f 525 527 545 543
f 526 544 546 528
f 527 529 547 545
f 528 546 548 530
f 529 531 549 547
f 530 548 550 532
f 531 533 551 549
f 532 550 552 534
f 533 535 553 551
f 534 552 554 536
f 535 537 555 553
f 539 538 556 557
f 536 554 556 538
f 537 539 557 555
f 558 559 560 561
f 188 558 561 189
f 189 561 560 540
f 188 541 559 558
f 559 562 563 560
f 540 560 563 542
f 541 543 562 559
f 562 564 565 563
f 542 563 565 544
f 543 545 564 562
f 564 566 567 565
f 544 565 567 546
f 545 547 566 564
f 566 568 569 567
f 546 567 569 548
f 547 549 568 566
f 568 570 571 569
f 548 569 571 550
f 549 551 570 568
f 570 572 573 571
f 550 571 573 552
f 551 553 572 570
f 572 574 575 573
f 552 573 575 554
f 553 555 574 572
f 574 576 577 575
f 557 556 577 576
f 554 575 577 556
f 555 557 576 574
f 578 579 580 581
f 578 582 583 579
f 579 583 584 580
f 578 581 585 582
f 587 586 590 591
f 586 588 592 590
f 587 591 593 589
f 591 590 594 595
f 595 594 596 597
f 590 592 596 594
f 591 595 597 593
f 582 598 599 583
f 583 599 600 584
f 582 585 601 598
f 588 602 604 592
f 589 593 605 603
f 597 596 606 607
f 592 604 606 596
f 593 597 607 605
f 598 608 609 599
f 599 609 610 600
f 598 601 611 608
f 602 612 614 604
f 603 605 615 613
f 607 606 616 617
f 604 614 616 606
f 605 607 617 615
f 608 618 619 609
f 609 619 620 610
f 608 611 621 618
f 612 622 624 614
f 613 615 625 623
f 617 616 626 627
f 614 624 626 616
f 615 617 627 625
f 618 628 629 619
f 619 629 630 620
f 618 621 631 628
f 622 632 634 624
f 623 625 635 633
f 627 626 636 637
f 624 634 636 626
f 625 627 637 635
f 628 638 639 629
f 629 639 640 630
f 628 631 641 638
f 632 642 644 634
f 633 635 645 643
f 637 636 646 647
f 634 644 646 636
f 635 637 647 645
f 638 648 649 639
f 639 649 650 640
f 638 641 651 648
f 642 652 654 644
f 643 645 655 653
f 647 646 656 657
f 644 654 656 646
f 645 647 657 655
f 648 658 659 649
f 649 659 660 650
f 648 651 661 658
f 652 662 664 654
f 653 655 665 663
f 657 656 666 667
f 654 664 666 656
f 655 657 667 665
f 658 668 669 659
f 659 669 670 660
f 658 661 671 668
f 662 672 674 664
f 663 665 675 673
f 667 666 676 677
f 664 674 676 666
f 665 667 677 675
f 678 41 45 679
f 668 678 679 669
f 669 679 45 670
f 668 671 41 678
f 672 48 105 674
f 673 675 102 42
f 102 680 681 105
f 677 676 681 680
f 674 105 681 676
f 675 677 680 102
f 682 683 157 156
f 682 684 685 683
f 683 685 686 157
f 682 156 687 684
f 158 688 690 192
f 155 191 691 689
f 191 192 692 693
f 693 692 694 695
f 192 690 694 692
f 191 693 695 691
f 684 696 697 685
f 685 697 698 686
f 684 687 699 696
f 688 700 702 690
f 689 691 703 701
f 695 694 704 705
f 690 702 704 694
f 691 695 705 703
f 696 706 707 697
f 697 707 708 698
f 696 699 709 706
f 700 710 712 702
f 701 703 713 711
f 705 704 714 715
f 702 712 714 704
f 703 705 715 713
f 706 716 717 707
f 707 717 718 708
f 706 709 719 716
f 710 720 722 712
f 711 713 723 721
f 715 714 724 725
f 712 722 724 714
f 713 715 725 723
f 716 726 727 717
f 717 727 728 718
f 716 719 729 726
f 720 730 732 722
f 721 723 733 731
f 725 724 734 735
f 722 732 734 724
f 723 725 735 733
f 726 736 737 727
f 727 737 738 728
f 726 729 739 736
f 730 740 742 732
f 731 733 743 741
f 735 734 744 745
f 732 742 744 734
f 733 735 745 743
f 736 746 747 737
f 737 747 748 738
f 736 739 749 746
f 740 750 752 742
f 741 743 753 751
f 745 744 754 755
f 742 752 754 744
f 743 745 755 753
f 746 756 757 747
f 747 757 758 748
f 746 749 759 756
f 750 760 762 752
f 751 753 763 761
f 755 754 764 765
f 752 762 764 754
f 753 755 765 763
f 756 766 767 757
f 757 767 768 758
f 756 759 769 766
f 760 770 772 762
f 761 763 773 771
f 765 764 774 775
f 762 772 774 764
f 763 765 775 773
f 776 777 778 779
f 766 776 779 767
f 767 779 778 768
f 766 769 777 776
f 780 782 783 781
f 770 781 783 772
f 771 773 782 780
f 782 784 785 783
f 775 774 785 784
f 772 783 785 774
f 773 775 784 782
f 786 787 788 789
f 786 790 791 787
f 787 791 792 788
f 786 789 793 790
f 789 788 794 795
f 788 792 796 794
f 789 795 797 793
f 795 794 798 799
f 794 796 800 798
f 795 799 801 797
f 799 798 802 803
f 798 800 804 802
f 799 803 805 801
f 803 802 806 807
f 802 804 808 806
f 803 807 809 805
f 807 806 810 811
f 806 808 812 810
f 807 811 813 809
f 811 810 814 815
f 810 812 816 814
f 811 815 817 813
f 815 814 818 819
f 819 818 53 50
f 814 816 53 818
f 815 819 50 817
f 790 820 821 791
f 791 821 822 792
f 790 793 823 820
f 792 822 824 796
f 793 797 825 823
f 796 824 826 800
f 797 801 827 825
f 800 826 828 804
f 801 805 829 827
f 804 828 830 808
f 805 809 831 829
f 808 830 832 812
f 809 813 833 831
f 812 832 834 816
f 813 817 835 833
f 816 834 57 53
f 817 50 52 835
f 820 836 837 821
f 821 837 838 822
f 820 823 839 836
f 822 838 840 824
f 823 825 841 839
f 824 840 842 826
f 825 827 843 841
f 826 842 844 828
f 827 829 845 843
f 828 844 846 830
f 829 831 847 845
f 830 846 848 832
f 831 833 849 847
f 832 848 850 834
f 833 835 851 849
f 834 850 162 57
f 835 52 160 851
f 852 853 854 855
f 836 852 855 837
f 837 855 854 838
f 836 839 853 852
f 853 856 857 854
f 838 854 857 840
f 839 841 856 853
f 856 858 859 857
f 840 857 859 842
f 841 843 858 856
f 858 860 861 859
f 842 859 861 844
f 843 845 860 858
f 860 862 863 861
f 844 861 863 846
f 845 847 862 860
f 862 864 865 863
f 846 863 865 848
f 847 849 864 862
f 864 866 867 865
f 848 865 867 850
f 849 851 866 864
f 866 868 869 867
f 160 162 869 868
f 850 867 869 162
f 851 160 868 866
f 870 871 872 873
f 870 111 113 871
f 871 113 874 872
f 870 873 875 111
f 873 872 876 877
f 872 874 878 876
f 873 877 879 875
f 877 876 880 881
f 876 878 882 880
f 877 881 883 879
f 881 880 884 885
f 880 882 886 884
f 881 885 887 883
f 885 884 888 889
f 884 886 890 888
f 885 889 891 887
f 889 888 892 893
f 888 890 894 892
f 889 893 895 891
f 893 892 896 897
f 892 894 898 896
f 893 897 899 895
f 897 896 900 901
f 901 900 902 903
f 896 898 902 900
f 897 901 903 899
f 113 116 904 874
f 111 875 905 112
f 874 904 906 878
f 875 879 907 905
f 878 906 908 882
f 879 883 909 907
f 882 908 910 886
f 883 887 911 909
f 886 910 912 890
f 887 891 913 911
f 890 912 914 894
f 891 895 915 913
f 894 914 916 898
f 895 899 917 915
f 903 902 918 919
f 898 916 918 902
f 899 903 919 917
f 116 195 920 904
f 112 905 921 194
f 904 920 922 906
f 905 907 923 921
f 906 922 924 908
f 907 909 925 923
f 908 924 926 910
f 909 911 927 925
f 910 926 928 912
f 911 913 929 927
f 912 928 930 914
f 913 915 931 929
f 914 930 932 916
f 915 917 933 931
f 919 918 934 935
f 916 932 934 918
f 917 919 935 933
f 936 937 938 939
f 194 936 939 195
f 195 939 938 920
f 194 921 937 936
f 937 940 941 938
f 920 938 941 922
f 921 923 940 937
f 940 942 943 941
f 922 941 943 924
f 923 925 942 940
f 942 944 945 943
f 924 943 945 926
f 925 927 944 942
f 944 946 947 945
f 926 945 947 928
f 927 929 946 944
f 946 948 949 947
f 928 947 949 930
f 929 931 948 946
f 948 950 951 949
f 930 949 951 932
f 931 933 950 948
f 950 952 953 951
f 935 934 953 952
f 932 951 953 934
f 933 935 952 950
f 954 955 956 957
f 954 958 959 955
f 955 959 960 956
f 954 957 961 958
f 957 956 962 963
f 956 960 964 962
f 957 963 965 961
f 963 962 966 967
f 967 966 968 969
f 962 964 968 966
f 963 967 969 965
f 958 970 971 959
f 959 971 972 960
f 958 961 973 970
f 960 972 974 964
f 961 965 975 973
f 969 968 976 977
f 964 974 976 968
f 965 969 977 975
f 970 978 979 971
f 971 979 980 972
f 970 973 981 978
f 972 980 982 974
f 973 975 983 981
f 977 976 984 985
f 974 982 984 976
f 975 977 985 983
f 978 986 987 979
f 979 987 988 980
f 978 981 989 986
f 980 988 990 982
f 981 983 991 989
f 985 984 992 993
f 982 990 992 984
f 983 985 993 991
f 986 994 995 987
f 987 995 996 988
f 986 989 997 994
f 988 996 998 990
f 989 991 999 997
f 993 992 1000 1001
f 990 998 1000 992
f 991 993 1001 999
f 1002 59 63 1003
f 994 1002 1003 995
f 995 1003 63 996
f 994 997 59 1002
f 996 63 66 998
f 997 999 60 59
f 1001 1000 117 114
f 998 66 117 1000
f 999 1001 114 60
f 168 1004 1005 169
f 169 1005 1006 170
f 168 167 1007 1004
f 170 1006 1008 198
f 167 197 1009 1007
f 197 198 1010 1011
f 1011 1010 1012 1013
f 198 1008 1012 1010
f 197 1011 1013 1009
f 1004 1014 1015 1005
f 1005 1015 1016 1006
f 1004 1007 1017 1014
f 1006 1016 1018 1008
f 1007 1009 1019 1017
f 1013 1012 1020 1021
f 1008 1018 1020 1012
f 1009 1013 1021 1019
f 1014 1022 1023 1015
f 1015 1023 1024 1016
f 1014 1017 1025 1022
f 1016 1024 1026 1018
f 1017 1019 1027 1025
f 1021 1020 1028 1029
f 1018 1026 1028 1020
f 1019 1021 1029 1027
f 1022 1030 1031 1023
f 1023 1031 1032 1024
f 1022 1025 1033 1030
f 1024 1032 1034 1026
f 1025 1027 1035 1033
f 1029 1028 1036 1037
f 1026 1034 1036 1028
f 1027 1029 1037 1035
f 1030 1038 1039 1031
f 1031 1039 1040 1032
f 1030 1033 1041 1038
f 1032 1040 1042 1034
f 1033 1035 1043 1041
f 1037 1036 1044 1045
f 1034 1042 1044 1036
f 1035 1037 1045 1043
f 1046 1047 1048 1049
f 1038 1046 1049 1039
f 1039 1049 1048 1040
f 1038 1041 1047 1046
f 1047 1050 1051 1048
f 1040 1048 1051 1042
f 1041 1043 1050 1047
f 1050 1052 1053 1051
f 1045 1044 1053 1052
f 1042 1051 1053 1044
f 1043 1045 1052 1050
usemtl c10
f 1054 1055 1056 1057
f 1054 1058 1059 1055
f 1055 1059 1060 1056
f 1054 1057 1061 1058
f 1057 1056 1062 1063
f 1056 1060 1064 1062
f 1057 1063 1065 1061
f 1063 1062 1066 1067
f 1063 1067 1068 1065
f 1067 1066 1069 1070
f 1066 1071 1072 1069
f 1067 1070 1073 1068
f 1070 1069 1074 1075
f 1069 1072 1076 1074
f 1070 1075 1077 1073
f 1075 1074 1078 1079
f 1079 1078 1080 1081
f 1074 1076 1080 1078
f 1075 1079 1081 1077
f 1058 1082 1083 1059
f 1059 1083 1084 1060
f 1058 1061 1085 1082
f 1061 1065 74 1085
f 1065 1068 75 74
f 1068 1073 125 75
f 1073 1077 1086 125
f 1081 1080 1087 1088
f 1076 1089 1087 1080
f 1077 1081 1088 1086
f 1082 1090 1091 1083
f 1083 1091 1092 1084
f 1082 1085 1093 1090
f 1085 74 76 1093
f 125 1086 1094 126
f 1088 1087 1095 1096
f 1089 1097 1095 1087
f 1086 1088 1096 1094
f 1090 1098 1099 1091
f 1091 1099 1100 1092
f 1090 1093 1101 1098
f 1093 76 176 1101
f 126 1094 1102 201
f 1096 1095 1103 1104
f 1097 1105 1103 1095
f 1094 1096 1104 1102
f 1098 1106 1107 1099
f 1099 1107 1108 1100
f 1098 1101 1109 1106
f 1101 176 1110 1109
f 176 175 1111 1110
f 175 201 1112 1111
f 201 1102 1113 1112
f 1104 1103 1114 1115
f 1105 1116 1114 1103
f 1102 1104 1115 1113
f 1117 1118 1119 1120
f 1106 1117 1120 1107
f 1107 1120 1119 1108
f 1106 1109 1118 1117
f 1118 1121 1122 1119
f 1108 1119 1122 1123
f 1109 1110 1121 1118
f 1121 1124 1125 1122
f 1123 1122 1125 1126
f 1110 1111 1124 1121
f 1124 1127 1128 1125
f 1111 1112 1127 1124
f 1127 1129 1130 1128
f 1131 1128 1130 1116
f 1112 1113 1129 1127
f 1129 1132 1133 1130
f 1115 1114 1133 1132
f 1116 1130 1133 1114
f 1113 1115 1132 1129
f 1060 1134 1135 1064
f 1060 1084 1136 1134
f 1134 1137 1138 1135
f 1134 1136 1139 1137
f 1137 1139 1140 1138
f 1135 1138 1141 1142
f 1138 1140 1143 1141
f 1071 1142 1144 1072
f 1142 1141 1145 1144
f 1141 1143 1146 1145
f 1072 1144 1147 1076
f 1076 1147 1148 1089
f 1144 1145 1149 1147
f 1147 1149 1150 1148
f 1145 1146 1150 1149
f 1084 1092 1151 1136
f 1136 1151 1152 1139
f 1139 1152 1153 1140
f 1140 1153 1154 1143
f 1143 1154 1155 1146
f 1089 1148 1156 1097
f 1148 1150 1157 1156
f 1146 1155 1157 1150
f 1092 1100 1158 1151
f 1151 1158 1159 1152
f 1152 1159 1160 1153
f 1153 1160 1161 1154
f 1154 1161 1162 1155
f 1097 1156 1163 1105
f 1156 1157 1164 1163
f 1155 1162 1164 1157
f 1108 1123 1165 1166
f 1100 1108 1166 1158
f 1166 1165 1167 1168
f 1158 1166 1168 1159
f 1159 1168 1167 1160
f 1123 1126 1169 1165
f 1165 1169 1170 1167
f 1160 1167 1170 1161
f 1169 1171 1172 1170
f 1161 1170 1172 1162
f 1131 1116 1173 1171
f 1105 1163 1173 1116
f 1171 1173 1174 1172
f 1163 1164 1174 1173
f 1162 1172 1174 1164
f 1062 1175 1176 1066
f 1066 1176 1142 1071
f 1062 1064 1135 1175
f 1175 1135 1142 1176
f 1125 1128 1177 1178
f 1131 1171 1177 1128
f 1126 1125 1178 1169
f 1169 1178 1177 1171
