# generado por tools/vox_to_obj.py desde tabaco_v1.vox
mtllib tabaco_v1.mtl
v -1.0000 0.0000 1.0000
v -1.0000 1.0000 1.0000
v -1.0000 1.0000 0.0000
v -1.0000 0.0000 0.0000
v 0.0000 0.0000 1.0000
v 0.0000 1.0000 1.0000
v 0.0000 0.0000 0.0000
v -1.0000 1.0000 -1.0000
v -1.0000 0.0000 -1.0000
v 0.0000 1.0000 -1.0000
v 0.0000 0.0000 -1.0000
v 0.0000 1.0000 0.0000
v 1.0000 0.0000 1.0000
v 1.0000 0.0000 0.0000
v 1.0000 1.0000 0.0000
v 1.0000 1.0000 1.0000
v 1.0000 0.0000 -1.0000
v 1.0000 1.0000 -1.0000
v 0.0000 2.0000 0.0000
v 0.0000 2.0000 1.0000
v -1.0000 2.0000 1.0000
v -1.0000 2.0000 0.0000
v 0.0000 3.0000 0.0000
v 0.0000 3.0000 1.0000
v -1.0000 3.0000 1.0000
v -1.0000 3.0000 0.0000
v 0.0000 4.0000 0.0000
v 0.0000 4.0000 1.0000
v -1.0000 4.0000 1.0000
v -1.0000 4.0000 0.0000
v 0.0000 5.0000 0.0000
v 0.0000 5.0000 1.0000
v -1.0000 5.0000 1.0000
v -1.0000 5.0000 0.0000
v 0.0000 6.0000 0.0000
v 0.0000 6.0000 1.0000
v -1.0000 6.0000 0.0000
v -1.0000 6.0000 1.0000
v -1.0000 4.0000 3.0000
v -1.0000 5.0000 3.0000
v -1.0000 5.0000 2.0000
v -1.0000 4.0000 2.0000
v 0.0000 4.0000 3.0000
v 0.0000 5.0000 3.0000
v 0.0000 5.0000 2.0000
v 0.0000 4.0000 2.0000
v 1.0000 4.0000 3.0000
v 1.0000 4.0000 2.0000
v 1.0000 5.0000 2.0000
v 1.0000 5.0000 3.0000
v 1.0000 4.0000 1.0000
v 1.0000 5.0000 1.0000
v -1.0000 4.0000 -1.0000
v -1.0000 5.0000 -1.0000
v -1.0000 5.0000 -2.0000
v -1.0000 4.0000 -2.0000
v 0.0000 4.0000 -1.0000
v 0.0000 5.0000 -1.0000
v 0.0000 5.0000 -2.0000
v 0.0000 4.0000 -2.0000
v -1.0000 5.0000 -3.0000
v -1.0000 4.0000 -3.0000
v 0.0000 5.0000 -3.0000
v 0.0000 4.0000 -3.0000
v 1.0000 4.0000 -1.0000
v 1.0000 4.0000 -2.0000
v 1.0000 5.0000 -2.0000
v 1.0000 5.0000 -1.0000
v 1.0000 4.0000 -3.0000
v 1.0000 5.0000 -3.0000
v -3.0000 5.0000 1.0000
v -3.0000 6.0000 1.0000
v -3.0000 6.0000 0.0000
v -3.0000 5.0000 0.0000
v -2.0000 5.0000 1.0000
v -2.0000 6.0000 1.0000
v -2.0000 6.0000 0.0000
v -2.0000 5.0000 0.0000
v -3.0000 6.0000 -1.0000
v -3.0000 5.0000 -1.0000
v -2.0000 6.0000 -1.0000
v -2.0000 5.0000 -1.0000
v -1.0000 6.0000 -1.0000
v 1.0000 6.0000 1.0000
v 1.0000 6.0000 0.0000
v 1.0000 5.0000 0.0000
v 2.0000 5.0000 1.0000
v 2.0000 6.0000 1.0000
v 2.0000 6.0000 0.0000
v 2.0000 5.0000 0.0000
v 1.0000 6.0000 -1.0000
v 2.0000 6.0000 -1.0000
v 2.0000 5.0000 -1.0000
v 3.0000 5.0000 1.0000
v 3.0000 5.0000 0.0000
v 3.0000 6.0000 0.0000
v 3.0000 6.0000 1.0000
v 3.0000 5.0000 -1.0000
v 3.0000 6.0000 -1.0000
usemtl c1
f 6 12 19 20
f 2 21 22 3
f 3 22 19 12
f 2 6 20 21
f 20 19 23 24
f 21 25 26 22
f 22 26 23 19
f 21 20 24 25
f 24 23 27 28
f 25 29 30 26
f 26 30 27 23
f 25 24 28 29
f 28 27 31 32
f 29 33 34 30
f 30 34 31 27
f 32 31 35 36
f 34 37 35 31
f 33 32 36 38
f 38 36 35 37
usemtl c2
f 39 40 41 42
f 39 43 44 40
f 40 44 45 41
f 39 42 46 43
f 42 41 33 29
f 41 45 32 33
f 42 29 28 46
f 47 48 49 50
f 43 47 50 44
f 44 50 49 45
f 43 46 48 47
f 48 51 52 49
f 28 32 52 51
f 45 49 52 32
f 46 28 51 48
f 53 54 55 56
f 53 57 58 54
f 54 58 59 55
f 53 56 60 57
f 56 55 61 62
f 62 61 63 64
f 55 59 63 61
f 56 62 64 60
f 65 66 67 68
f 57 65 68 58
f 58 68 67 59
f 57 60 66 65
f 66 69 70 67
f 64 63 70 69
f 59 67 70 63
f 60 64 69 66
f 71 72 73 74
f 71 75 76 72
f 72 76 77 73
f 71 74 78 75
f 74 73 79 80
f 80 79 81 82
f 73 77 81 79
f 74 80 82 78
f 75 33 38 76
f 76 38 37 77
f 75 78 34 33
f 34 54 83 37
f 82 81 83 54
f 77 37 83 81
f 78 82 54 34
f 52 84 85 86
f 52 87 88 84
f 84 88 89 85
f 52 86 90 87
f 86 85 91 68
f 68 91 92 93
f 85 89 92 91
f 86 68 93 90
f 94 95 96 97
f 87 94 97 88
f 88 97 96 89
f 87 90 95 94
f 95 98 99 96
f 93 92 99 98
f 89 96 99 92
f 90 93 98 95
usemtl c3
f 1 2 3 4
f 1 5 6 2
f 1 4 7 5
f 4 3 8 9
f 9 8 10 11
f 3 12 10 8
f 4 9 11 7
f 13 14 15 16
f 5 13 16 6
f 6 16 15 12
f 5 7 14 13
f 14 17 18 15
f 11 10 18 17
f 12 15 18 10
f 7 11 17 14
