# generado por tools/vox_to_obj.py desde tile_camino.vox
mtllib tile_camino.mtl
v -8.0000 0.0000 8.0000
v -8.0000 1.0000 8.0000
v -8.0000 1.0000 7.0000
v -8.0000 0.0000 7.0000
v -7.0000 0.0000 8.0000
v -7.0000 1.0000 8.0000
v -7.0000 0.0000 7.0000
v -8.0000 2.0000 8.0000
v -8.0000 2.0000 7.0000
v -7.0000 2.0000 8.0000
v -8.0000 3.0000 8.0000
v -8.0000 3.0000 7.0000
v -7.0000 3.0000 8.0000
v -8.0000 4.0000 8.0000
v -8.0000 4.0000 7.0000
v -7.0000 4.0000 8.0000
v -8.0000 5.0000 8.0000
v -8.0000 5.0000 7.0000
v -7.0000 5.0000 8.0000
v -8.0000 6.0000 8.0000
v -8.0000 6.0000 7.0000
v -7.0000 6.0000 8.0000
v -8.0000 7.0000 8.0000
v -8.0000 7.0000 7.0000
v -7.0000 7.0000 8.0000
v -8.0000 8.0000 8.0000
v -8.0000 8.0000 7.0000
v -7.0000 8.0000 8.0000
v -8.0000 9.0000 8.0000
v -8.0000 9.0000 7.0000
v -7.0000 9.0000 8.0000
v -8.0000 10.0000 8.0000
v -8.0000 10.0000 7.0000
v -7.0000 10.0000 8.0000
v -8.0000 11.0000 8.0000
v -8.0000 11.0000 7.0000
v -7.0000 11.0000 8.0000
v -8.0000 12.0000 8.0000
v -8.0000 12.0000 7.0000
v -7.0000 12.0000 8.0000
v -8.0000 13.0000 8.0000
v -8.0000 13.0000 7.0000
v -7.0000 13.0000 8.0000
v -8.0000 1.0000 6.0000
v -8.0000 0.0000 6.0000
v -7.0000 0.0000 6.0000
v -8.0000 2.0000 6.0000
v -8.0000 3.0000 6.0000
v -8.0000 4.0000 6.0000
v -8.0000 5.0000 6.0000
v -8.0000 6.0000 6.0000
v -8.0000 7.0000 6.0000
v -8.0000 8.0000 6.0000
v -8.0000 9.0000 6.0000
v -8.0000 10.0000 6.0000
v -8.0000 11.0000 6.0000
v -8.0000 12.0000 6.0000
v -8.0000 13.0000 6.0000
v -8.0000 1.0000 5.0000
v -8.0000 0.0000 5.0000
v -7.0000 0.0000 5.0000
v -8.0000 2.0000 5.0000
v -8.0000 3.0000 5.0000
v -8.0000 4.0000 5.0000
v -8.0000 5.0000 5.0000
v -8.0000 6.0000 5.0000
v -8.0000 7.0000 5.0000
v -8.0000 8.0000 5.0000
v -8.0000 9.0000 5.0000
v -8.0000 10.0000 5.0000
v -8.0000 11.0000 5.0000
v -8.0000 12.0000 5.0000
v -8.0000 13.0000 5.0000
v -8.0000 1.0000 4.0000
v -8.0000 0.0000 4.0000
v -7.0000 0.0000 4.0000
v -8.0000 2.0000 4.0000
v -8.0000 3.0000 4.0000
v -8.0000 4.0000 4.0000
v -8.0000 5.0000 4.0000
v -8.0000 6.0000 4.0000
v -8.0000 7.0000 4.0000
v -8.0000 8.0000 4.0000
v -8.0000 9.0000 4.0000
v -8.0000 10.0000 4.0000
v -8.0000 11.0000 4.0000
v -8.0000 12.0000 4.0000
v -8.0000 13.0000 4.0000
v -8.0000 1.0000 3.0000
v -8.0000 0.0000 3.0000
v -7.0000 0.0000 3.0000
v -8.0000 2.0000 3.0000
v -8.0000 3.0000 3.0000
v -8.0000 4.0000 3.0000
v -8.0000 5.0000 3.0000
v -8.0000 6.0000 3.0000
v -8.0000 7.0000 3.0000
v -8.0000 8.0000 3.0000
v -8.0000 9.0000 3.0000
v -8.0000 10.0000 3.0000
v -8.0000 11.0000 3.0000
v -8.0000 12.0000 3.0000
v -8.0000 13.0000 3.0000
v -8.0000 1.0000 2.0000
v -8.0000 0.0000 2.0000
v -7.0000 0.0000 2.0000
v -8.0000 2.0000 2.0000
v -8.0000 3.0000 2.0000
v -8.0000 4.0000 2.0000
v -8.0000 5.0000 2.0000
v -8.0000 6.0000 2.0000
v -8.0000 7.0000 2.0000
v -8.0000 8.0000 2.0000
v -8.0000 9.0000 2.0000
v -8.0000 10.0000 2.0000
v -8.0000 11.0000 2.0000
v -8.0000 12.0000 2.0000
v -8.0000 13.0000 2.0000
v -8.0000 1.0000 1.0000
v -8.0000 0.0000 1.0000
v -7.0000 0.0000 1.0000
v -8.0000 2.0000 1.0000
v -8.0000 3.0000 1.0000
v -8.0000 4.0000 1.0000
v -8.0000 5.0000 1.0000
v -8.0000 6.0000 1.0000
v -8.0000 7.0000 1.0000
v -8.0000 8.0000 1.0000
v -8.0000 9.0000 1.0000
v -8.0000 10.0000 1.0000
v -8.0000 11.0000 1.0000
v -8.0000 12.0000 1.0000
v -8.0000 13.0000 1.0000
v -8.0000 1.0000 0.0000
v -8.0000 0.0000 0.0000
v -7.0000 0.0000 0.0000
v -8.0000 2.0000 0.0000
v -8.0000 3.0000 0.0000
v -8.0000 4.0000 0.0000
v -8.0000 5.0000 0.0000
v -8.0000 6.0000 0.0000
v -8.0000 7.0000 0.0000
v -8.0000 8.0000 0.0000
v -8.0000 9.0000 0.0000
v -8.0000 10.0000 0.0000
v -8.0000 11.0000 0.0000
v -8.0000 12.0000 0.0000
v -8.0000 13.0000 0.0000
v -8.0000 1.0000 -1.0000
v -8.0000 0.0000 -1.0000
v -7.0000 0.0000 -1.0000
v -8.0000 2.0000 -1.0000
v -8.0000 3.0000 -1.0000
v -8.0000 4.0000 -1.0000
v -8.0000 5.0000 -1.0000
v -8.0000 6.0000 -1.0000
v -8.0000 7.0000 -1.0000
v -8.0000 8.0000 -1.0000
v -8.0000 9.0000 -1.0000
v -8.0000 10.0000 -1.0000
v -8.0000 11.0000 -1.0000
v -8.0000 12.0000 -1.0000
v -8.0000 13.0000 -1.0000
v -8.0000 1.0000 -2.0000
v -8.0000 0.0000 -2.0000
v -7.0000 0.0000 -2.0000
v -8.0000 2.0000 -2.0000
v -8.0000 3.0000 -2.0000
v -8.0000 4.0000 -2.0000
v -8.0000 5.0000 -2.0000
v -8.0000 6.0000 -2.0000
v -8.0000 7.0000 -2.0000
v -8.0000 8.0000 -2.0000
v -8.0000 9.0000 -2.0000
v -8.0000 10.0000 -2.0000
v -8.0000 11.0000 -2.0000
v -8.0000 12.0000 -2.0000
v -8.0000 13.0000 -2.0000
v -8.0000 1.0000 -3.0000
v -8.0000 0.0000 -3.0000
v -7.0000 0.0000 -3.0000
v -8.0000 2.0000 -3.0000
v -8.0000 3.0000 -3.0000
v -8.0000 4.0000 -3.0000
v -8.0000 5.0000 -3.0000
v -8.0000 6.0000 -3.0000
v -8.0000 7.0000 -3.0000
v -8.0000 8.0000 -3.0000
v -8.0000 9.0000 -3.0000
v -8.0000 10.0000 -3.0000
v -8.0000 11.0000 -3.0000
v -8.0000 12.0000 -3.0000
v -8.0000 13.0000 -3.0000
v -8.0000 1.0000 -4.0000
v -8.0000 0.0000 -4.0000
v -7.0000 0.0000 -4.0000
v -8.0000 2.0000 -4.0000
v -8.0000 3.0000 -4.0000
v -8.0000 4.0000 -4.0000
v -8.0000 5.0000 -4.0000
v -8.0000 6.0000 -4.0000
v -8.0000 7.0000 -4.0000
v -8.0000 8.0000 -4.0000
v -8.0000 9.0000 -4.0000
v -8.0000 10.0000 -4.0000
v -8.0000 11.0000 -4.0000
v -8.0000 12.0000 -4.0000
v -8.0000 13.0000 -4.0000
v -8.0000 1.0000 -5.0000
v -8.0000 0.0000 -5.0000
v -7.0000 0.0000 -5.0000
v -8.0000 2.0000 -5.0000
v -8.0000 3.0000 -5.0000
v -8.0000 4.0000 -5.0000
v -8.0000 5.0000 -5.0000
v -8.0000 6.0000 -5.0000
v -8.0000 7.0000 -5.0000
v -8.0000 8.0000 -5.0000
v -8.0000 9.0000 -5.0000
v -8.0000 10.0000 -5.0000
v -8.0000 11.0000 -5.0000
v -8.0000 12.0000 -5.0000
v -8.0000 13.0000 -5.0000
v -8.0000 1.0000 -6.0000
v -8.0000 0.0000 -6.0000
v -7.0000 0.0000 -6.0000
v -8.0000 2.0000 -6.0000
v -8.0000 3.0000 -6.0000
v -8.0000 4.0000 -6.0000
v -8.0000 5.0000 -6.0000
v -8.0000 6.0000 -6.0000
v -8.0000 7.0000 -6.0000
v -8.0000 8.0000 -6.0000
v -8.0000 9.0000 -6.0000
v -8.0000 10.0000 -6.0000
v -8.0000 11.0000 -6.0000
v -8.0000 12.0000 -6.0000
v -8.0000 13.0000 -6.0000
v -8.0000 1.0000 -7.0000
v -8.0000 0.0000 -7.0000
v -7.0000 0.0000 -7.0000
v -8.0000 2.0000 -7.0000
v -8.0000 3.0000 -7.0000
v -8.0000 4.0000 -7.0000
v -8.0000 5.0000 -7.0000
v -8.0000 6.0000 -7.0000
v -8.0000 7.0000 -7.0000
v -8.0000 8.0000 -7.0000
v -8.0000 9.0000 -7.0000
v -8.0000 10.0000 -7.0000
v -8.0000 11.0000 -7.0000
v -8.0000 12.0000 -7.0000
v -8.0000 13.0000 -7.0000
v -8.0000 1.0000 -8.0000
v -8.0000 0.0000 -8.0000
v -7.0000 1.0000 -8.0000
v -7.0000 0.0000 -8.0000
v -8.0000 2.0000 -8.0000
v -7.0000 2.0000 -8.0000
v -8.0000 3.0000 -8.0000
v -7.0000 3.0000 -8.0000
v -8.0000 4.0000 -8.0000
v -7.0000 4.0000 -8.0000
v -8.0000 5.0000 -8.0000
v -7.0000 5.0000 -8.0000
v -8.0000 6.0000 -8.0000
v -7.0000 6.0000 -8.0000
v -8.0000 7.0000 -8.0000
v -7.0000 7.0000 -8.0000
v -8.0000 8.0000 -8.0000
v -7.0000 8.0000 -8.0000
v -8.0000 9.0000 -8.0000
v -7.0000 9.0000 -8.0000
v -8.0000 10.0000 -8.0000
v -7.0000 10.0000 -8.0000
v -8.0000 11.0000 -8.0000
v -7.0000 11.0000 -8.0000
v -8.0000 12.0000 -8.0000
v -7.0000 12.0000 -8.0000
v -8.0000 13.0000 -8.0000
v -7.0000 13.0000 -8.0000
v -6.0000 0.0000 8.0000
v -6.0000 1.0000 8.0000
v -6.0000 0.0000 7.0000
v -6.0000 2.0000 8.0000
v -6.0000 3.0000 8.0000
v -6.0000 4.0000 8.0000
v -6.0000 5.0000 8.0000
v -6.0000 6.0000 8.0000
v -6.0000 7.0000 8.0000
v -6.0000 8.0000 8.0000
v -6.0000 9.0000 8.0000
v -6.0000 10.0000 8.0000
v -6.0000 11.0000 8.0000
v -6.0000 12.0000 8.0000
v -6.0000 13.0000 8.0000
v -6.0000 0.0000 6.0000
v -6.0000 0.0000 5.0000
v -6.0000 0.0000 4.0000
v -6.0000 0.0000 3.0000
v -6.0000 0.0000 2.0000
v -6.0000 0.0000 1.0000
v -6.0000 0.0000 0.0000
v -6.0000 0.0000 -1.0000
v -6.0000 0.0000 -2.0000
v -6.0000 0.0000 -3.0000
v -6.0000 0.0000 -4.0000
v -6.0000 0.0000 -5.0000
v -6.0000 0.0000 -6.0000
v -6.0000 0.0000 -7.0000
v -6.0000 1.0000 -8.0000
v -6.0000 0.0000 -8.0000
v -6.0000 2.0000 -8.0000
v -6.0000 3.0000 -8.0000
v -6.0000 4.0000 -8.0000
v -6.0000 5.0000 -8.0000
v -6.0000 6.0000 -8.0000
v -6.0000 7.0000 -8.0000
v -6.0000 8.0000 -8.0000
v -6.0000 9.0000 -8.0000
v -6.0000 10.0000 -8.0000
v -6.0000 11.0000 -8.0000
v -6.0000 12.0000 -8.0000
v -6.0000 13.0000 -8.0000
v -5.0000 0.0000 8.0000
v -5.0000 1.0000 8.0000
v -5.0000 0.0000 7.0000
v -5.0000 2.0000 8.0000
v -5.0000 3.0000 8.0000
v -5.0000 4.0000 8.0000
v -5.0000 5.0000 8.0000
v -5.0000 6.0000 8.0000
v -5.0000 7.0000 8.0000
v -5.0000 8.0000 8.0000
v -5.0000 9.0000 8.0000
v -5.0000 10.0000 8.0000
v -5.0000 11.0000 8.0000
v -5.0000 12.0000 8.0000
v -5.0000 13.0000 8.0000
v -5.0000 0.0000 6.0000
v -5.0000 0.0000 5.0000
v -5.0000 0.0000 4.0000
v -5.0000 0.0000 3.0000
v -5.0000 0.0000 2.0000
v -5.0000 0.0000 1.0000
v -5.0000 0.0000 0.0000
v -5.0000 0.0000 -1.0000
v -5.0000 0.0000 -2.0000
v -5.0000 0.0000 -3.0000
v -5.0000 0.0000 -4.0000
v -5.0000 0.0000 -5.0000
v -5.0000 0.0000 -6.0000
v -5.0000 0.0000 -7.0000
v -5.0000 1.0000 -8.0000
v -5.0000 0.0000 -8.0000
v -5.0000 2.0000 -8.0000
v -5.0000 3.0000 -8.0000
v -5.0000 4.0000 -8.0000
v -5.0000 5.0000 -8.0000
v -5.0000 6.0000 -8.0000
v -5.0000 7.0000 -8.0000
v -5.0000 8.0000 -8.0000
v -5.0000 9.0000 -8.0000
v -5.0000 10.0000 -8.0000
v -5.0000 11.0000 -8.0000
v -5.0000 12.0000 -8.0000
v -5.0000 13.0000 -8.0000
v -4.0000 0.0000 8.0000
v -4.0000 1.0000 8.0000
v -4.0000 0.0000 7.0000
v -4.0000 2.0000 8.0000
v -4.0000 3.0000 8.0000
v -4.0000 4.0000 8.0000
v -4.0000 5.0000 8.0000
v -4.0000 6.0000 8.0000
v -4.0000 7.0000 8.0000
v -4.0000 8.0000 8.0000
v -4.0000 9.0000 8.0000
v -4.0000 10.0000 8.0000
v -4.0000 11.0000 8.0000
v -4.0000 12.0000 8.0000
v -4.0000 13.0000 8.0000
v -4.0000 0.0000 6.0000
v -4.0000 0.0000 5.0000
v -4.0000 0.0000 4.0000
v -4.0000 0.0000 3.0000
v -4.0000 0.0000 2.0000
v -4.0000 0.0000 1.0000
v -4.0000 0.0000 0.0000
v -4.0000 0.0000 -1.0000
v -4.0000 0.0000 -2.0000
v -4.0000 0.0000 -3.0000
v -4.0000 0.0000 -4.0000
v -4.0000 0.0000 -5.0000
v -4.0000 0.0000 -6.0000
v -4.0000 0.0000 -7.0000
v -4.0000 1.0000 -8.0000
v -4.0000 0.0000 -8.0000
v -4.0000 2.0000 -8.0000
v -4.0000 3.0000 -8.0000
v -4.0000 4.0000 -8.0000
v -4.0000 5.0000 -8.0000
v -4.0000 6.0000 -8.0000
v -4.0000 7.0000 -8.0000
v -4.0000 8.0000 -8.0000
v -4.0000 9.0000 -8.0000
v -4.0000 10.0000 -8.0000
v -4.0000 11.0000 -8.0000
v -4.0000 12.0000 -8.0000
v -4.0000 13.0000 -8.0000
v -3.0000 0.0000 8.0000
v -3.0000 1.0000 8.0000
v -3.0000 0.0000 7.0000
v -3.0000 2.0000 8.0000
v -3.0000 3.0000 8.0000
v -3.0000 4.0000 8.0000
v -3.0000 5.0000 8.0000
v -3.0000 6.0000 8.0000
v -3.0000 7.0000 8.0000
v -3.0000 8.0000 8.0000
v -3.0000 9.0000 8.0000
v -3.0000 10.0000 8.0000
v -3.0000 11.0000 8.0000
v -3.0000 12.0000 8.0000
v -3.0000 13.0000 8.0000
v -3.0000 0.0000 6.0000
v -3.0000 0.0000 5.0000
v -3.0000 0.0000 4.0000
v -3.0000 0.0000 3.0000
v -3.0000 0.0000 2.0000
v -3.0000 0.0000 1.0000
v -3.0000 0.0000 0.0000
v -3.0000 0.0000 -1.0000
v -3.0000 0.0000 -2.0000
v -3.0000 0.0000 -3.0000
v -3.0000 0.0000 -4.0000
v -3.0000 0.0000 -5.0000
v -3.0000 0.0000 -6.0000
v -3.0000 0.0000 -7.0000
v -3.0000 1.0000 -8.0000
v -3.0000 0.0000 -8.0000
v -3.0000 2.0000 -8.0000
v -3.0000 3.0000 -8.0000
v -3.0000 4.0000 -8.0000
v -3.0000 5.0000 -8.0000
v -3.0000 6.0000 -8.0000
v -3.0000 7.0000 -8.0000
v -3.0000 8.0000 -8.0000
v -3.0000 9.0000 -8.0000
v -3.0000 10.0000 -8.0000
v -3.0000 11.0000 -8.0000
v -3.0000 12.0000 -8.0000
v -3.0000 13.0000 -8.0000
v -2.0000 0.0000 8.0000
v -2.0000 1.0000 8.0000
v -2.0000 0.0000 7.0000
v -2.0000 2.0000 8.0000
v -2.0000 3.0000 8.0000
v -2.0000 4.0000 8.0000
v -2.0000 5.0000 8.0000
v -2.0000 6.0000 8.0000
v -2.0000 7.0000 8.0000
v -2.0000 8.0000 8.0000
v -2.0000 9.0000 8.0000
v -2.0000 10.0000 8.0000
v -2.0000 11.0000 8.0000
v -2.0000 12.0000 8.0000
v -2.0000 13.0000 8.0000
v -2.0000 0.0000 6.0000
v -2.0000 0.0000 5.0000
v -2.0000 0.0000 4.0000
v -2.0000 0.0000 3.0000
v -2.0000 0.0000 2.0000
v -2.0000 0.0000 1.0000
v -2.0000 0.0000 0.0000
v -2.0000 0.0000 -1.0000
v -2.0000 0.0000 -2.0000
v -2.0000 0.0000 -3.0000
v -2.0000 0.0000 -4.0000
v -2.0000 0.0000 -5.0000
v -2.0000 0.0000 -6.0000
v -2.0000 0.0000 -7.0000
v -2.0000 1.0000 -8.0000
v -2.0000 0.0000 -8.0000
v -2.0000 2.0000 -8.0000
v -2.0000 3.0000 -8.0000
v -2.0000 4.0000 -8.0000
v -2.0000 5.0000 -8.0000
v -2.0000 6.0000 -8.0000
v -2.0000 7.0000 -8.0000
v -2.0000 8.0000 -8.0000
v -2.0000 9.0000 -8.0000
v -2.0000 10.0000 -8.0000
v -2.0000 11.0000 -8.0000
v -2.0000 12.0000 -8.0000
v -2.0000 13.0000 -8.0000
v -1.0000 0.0000 8.0000
v -1.0000 1.0000 8.0000
v -1.0000 0.0000 7.0000
v -1.0000 2.0000 8.0000
v -1.0000 3.0000 8.0000
v -1.0000 4.0000 8.0000
v -1.0000 5.0000 8.0000
v -1.0000 6.0000 8.0000
v -1.0000 7.0000 8.0000
v -1.0000 8.0000 8.0000
v -1.0000 9.0000 8.0000
v -1.0000 10.0000 8.0000
v -1.0000 11.0000 8.0000
v -1.0000 12.0000 8.0000
v -1.0000 13.0000 8.0000
v -1.0000 0.0000 6.0000
v -1.0000 0.0000 5.0000
v -1.0000 0.0000 4.0000
v -1.0000 0.0000 3.0000
v -1.0000 0.0000 2.0000
v -1.0000 0.0000 1.0000
v -1.0000 0.0000 0.0000
v -1.0000 0.0000 -1.0000
v -1.0000 0.0000 -2.0000
v -1.0000 0.0000 -3.0000
v -1.0000 0.0000 -4.0000
v -1.0000 0.0000 -5.0000
v -1.0000 0.0000 -6.0000
v -1.0000 0.0000 -7.0000
v -1.0000 1.0000 -8.0000
v -1.0000 0.0000 -8.0000
v -1.0000 2.0000 -8.0000
v -1.0000 3.0000 -8.0000
v -1.0000 4.0000 -8.0000
v -1.0000 5.0000 -8.0000
v -1.0000 6.0000 -8.0000
v -1.0000 7.0000 -8.0000
v -1.0000 8.0000 -8.0000
v -1.0000 9.0000 -8.0000
v -1.0000 10.0000 -8.0000
v -1.0000 11.0000 -8.0000
v -1.0000 12.0000 -8.0000
v -1.0000 13.0000 -8.0000
v 0.0000 0.0000 8.0000
v 0.0000 1.0000 8.0000
v 0.0000 0.0000 7.0000
v 0.0000 2.0000 8.0000
v 0.0000 3.0000 8.0000
v 0.0000 4.0000 8.0000
v 0.0000 5.0000 8.0000
v 0.0000 6.0000 8.0000
v 0.0000 7.0000 8.0000
v 0.0000 8.0000 8.0000
v 0.0000 9.0000 8.0000
v 0.0000 10.0000 8.0000
v 0.0000 11.0000 8.0000
v 0.0000 12.0000 8.0000
v 0.0000 13.0000 8.0000
v 0.0000 0.0000 6.0000
v 0.0000 0.0000 5.0000
v 0.0000 0.0000 4.0000
v 0.0000 0.0000 3.0000
v 0.0000 0.0000 2.0000
v 0.0000 0.0000 1.0000
v 0.0000 0.0000 0.0000
v 0.0000 0.0000 -1.0000
v 0.0000 0.0000 -2.0000
v 0.0000 0.0000 -3.0000
v 0.0000 0.0000 -4.0000
v 0.0000 0.0000 -5.0000
v 0.0000 0.0000 -6.0000
v 0.0000 0.0000 -7.0000
v 0.0000 1.0000 -8.0000
v 0.0000 0.0000 -8.0000
v 0.0000 2.0000 -8.0000
v 0.0000 3.0000 -8.0000
v 0.0000 4.0000 -8.0000
v 0.0000 5.0000 -8.0000
v 0.0000 6.0000 -8.0000
v 0.0000 7.0000 -8.0000
v 0.0000 8.0000 -8.0000
v 0.0000 9.0000 -8.0000
v 0.0000 10.0000 -8.0000
v 0.0000 11.0000 -8.0000
v 0.0000 12.0000 -8.0000
v 0.0000 13.0000 -8.0000
v 1.0000 0.0000 8.0000
v 1.0000 1.0000 8.0000
v 1.0000 0.0000 7.0000
v 1.0000 2.0000 8.0000
v 1.0000 3.0000 8.0000
v 1.0000 4.0000 8.0000
v 1.0000 5.0000 8.0000
v 1.0000 6.0000 8.0000
v 1.0000 7.0000 8.0000
v 1.0000 8.0000 8.0000
v 1.0000 9.0000 8.0000
v 1.0000 10.0000 8.0000
v 1.0000 11.0000 8.0000
v 1.0000 12.0000 8.0000
v 1.0000 13.0000 8.0000
v 1.0000 0.0000 6.0000
v 1.0000 0.0000 5.0000
v 1.0000 0.0000 4.0000
v 1.0000 0.0000 3.0000
v 1.0000 0.0000 2.0000
v 1.0000 0.0000 1.0000
v 1.0000 0.0000 0.0000
v 1.0000 0.0000 -1.0000
v 1.0000 0.0000 -2.0000
v 1.0000 0.0000 -3.0000
v 1.0000 0.0000 -4.0000
v 1.0000 0.0000 -5.0000
v 1.0000 0.0000 -6.0000
v 1.0000 0.0000 -7.0000
v 1.0000 1.0000 -8.0000
v 1.0000 0.0000 -8.0000
v 1.0000 2.0000 -8.0000
v 1.0000 3.0000 -8.0000
v 1.0000 4.0000 -8.0000
v 1.0000 5.0000 -8.0000
v 1.0000 6.0000 -8.0000
v 1.0000 7.0000 -8.0000
v 1.0000 8.0000 -8.0000
v 1.0000 9.0000 -8.0000
v 1.0000 10.0000 -8.0000
v 1.0000 11.0000 -8.0000
v 1.0000 12.0000 -8.0000
v 1.0000 13.0000 -8.0000
v 2.0000 0.0000 8.0000
v 2.0000 1.0000 8.0000
v 2.0000 0.0000 7.0000
v 2.0000 2.0000 8.0000
v 2.0000 3.0000 8.0000
v 2.0000 4.0000 8.0000
v 2.0000 5.0000 8.0000
v 2.0000 6.0000 8.0000
v 2.0000 7.0000 8.0000
v 2.0000 8.0000 8.0000
v 2.0000 9.0000 8.0000
v 2.0000 10.0000 8.0000
v 2.0000 11.0000 8.0000
v 2.0000 12.0000 8.0000
v 2.0000 13.0000 8.0000
v 2.0000 0.0000 6.0000
v 2.0000 0.0000 5.0000
v 2.0000 0.0000 4.0000
v 2.0000 0.0000 3.0000
v 2.0000 0.0000 2.0000
v 2.0000 0.0000 1.0000
v 2.0000 0.0000 0.0000
v 2.0000 0.0000 -1.0000
v 2.0000 0.0000 -2.0000
v 2.0000 0.0000 -3.0000
v 2.0000 0.0000 -4.0000
v 2.0000 0.0000 -5.0000
v 2.0000 0.0000 -6.0000
v 2.0000 0.0000 -7.0000
v 2.0000 1.0000 -8.0000
v 2.0000 0.0000 -8.0000
v 2.0000 2.0000 -8.0000
v 2.0000 3.0000 -8.0000
v 2.0000 4.0000 -8.0000
v 2.0000 5.0000 -8.0000
v 2.0000 6.0000 -8.0000
v 2.0000 7.0000 -8.0000
v 2.0000 8.0000 -8.0000
v 2.0000 9.0000 -8.0000
v 2.0000 10.0000 -8.0000
v 2.0000 11.0000 -8.0000
v 2.0000 12.0000 -8.0000
v 2.0000 13.0000 -8.0000
v 3.0000 0.0000 8.0000
v 3.0000 1.0000 8.0000
v 3.0000 0.0000 7.0000
v 3.0000 2.0000 8.0000
v 3.0000 3.0000 8.0000
v 3.0000 4.0000 8.0000
v 3.0000 5.0000 8.0000
v 3.0000 6.0000 8.0000
v 3.0000 7.0000 8.0000
v 3.0000 8.0000 8.0000
v 3.0000 9.0000 8.0000
v 3.0000 10.0000 8.0000
v 3.0000 11.0000 8.0000
v 3.0000 12.0000 8.0000
v 3.0000 13.0000 8.0000
v 3.0000 0.0000 6.0000
v 3.0000 0.0000 5.0000
v 3.0000 0.0000 4.0000
v 3.0000 0.0000 3.0000
v 3.0000 0.0000 2.0000
v 3.0000 0.0000 1.0000
v 3.0000 0.0000 0.0000
v 3.0000 0.0000 -1.0000
v 3.0000 0.0000 -2.0000
v 3.0000 0.0000 -3.0000
v 3.0000 0.0000 -4.0000
v 3.0000 0.0000 -5.0000
v 3.0000 0.0000 -6.0000
v 3.0000 0.0000 -7.0000
v 3.0000 1.0000 -8.0000
v 3.0000 0.0000 -8.0000
v 3.0000 2.0000 -8.0000
v 3.0000 3.0000 -8.0000
v 3.0000 4.0000 -8.0000
v 3.0000 5.0000 -8.0000
v 3.0000 6.0000 -8.0000
v 3.0000 7.0000 -8.0000
v 3.0000 8.0000 -8.0000
v 3.0000 9.0000 -8.0000
v 3.0000 10.0000 -8.0000
v 3.0000 11.0000 -8.0000
v 3.0000 12.0000 -8.0000
v 3.0000 13.0000 -8.0000
v 4.0000 0.0000 8.0000
v 4.0000 1.0000 8.0000
v 4.0000 0.0000 7.0000
v 4.0000 2.0000 8.0000
v 4.0000 3.0000 8.0000
v 4.0000 4.0000 8.0000
v 4.0000 5.0000 8.0000
v 4.0000 6.0000 8.0000
v 4.0000 7.0000 8.0000
v 4.0000 8.0000 8.0000
v 4.0000 9.0000 8.0000
v 4.0000 10.0000 8.0000
v 4.0000 11.0000 8.0000
v 4.0000 12.0000 8.0000
v 4.0000 13.0000 8.0000
v 4.0000 0.0000 6.0000
v 4.0000 0.0000 5.0000
v 4.0000 0.0000 4.0000
v 4.0000 0.0000 3.0000
v 4.0000 0.0000 2.0000
v 4.0000 0.0000 1.0000
v 4.0000 0.0000 0.0000
v 4.0000 0.0000 -1.0000
v 4.0000 0.0000 -2.0000
v 4.0000 0.0000 -3.0000
v 4.0000 0.0000 -4.0000
v 4.0000 0.0000 -5.0000
v 4.0000 0.0000 -6.0000
v 4.0000 0.0000 -7.0000
v 4.0000 1.0000 -8.0000
v 4.0000 0.0000 -8.0000
v 4.0000 2.0000 -8.0000
v 4.0000 3.0000 -8.0000
v 4.0000 4.0000 -8.0000
v 4.0000 5.0000 -8.0000
v 4.0000 6.0000 -8.0000
v 4.0000 7.0000 -8.0000
v 4.0000 8.0000 -8.0000
v 4.0000 9.0000 -8.0000
v 4.0000 10.0000 -8.0000
v 4.0000 11.0000 -8.0000
v 4.0000 12.0000 -8.0000
v 4.0000 13.0000 -8.0000
v 5.0000 0.0000 8.0000
v 5.0000 1.0000 8.0000
v 5.0000 0.0000 7.0000
v 5.0000 2.0000 8.0000
v 5.0000 3.0000 8.0000
v 5.0000 4.0000 8.0000
v 5.0000 5.0000 8.0000
v 5.0000 6.0000 8.0000
v 5.0000 7.0000 8.0000
v 5.0000 8.0000 8.0000
v 5.0000 9.0000 8.0000
v 5.0000 10.0000 8.0000
v 5.0000 11.0000 8.0000
v 5.0000 12.0000 8.0000
v 5.0000 13.0000 8.0000
v 5.0000 0.0000 6.0000
v 5.0000 0.0000 5.0000
v 5.0000 0.0000 4.0000
v 5.0000 0.0000 3.0000
v 5.0000 0.0000 2.0000
v 5.0000 0.0000 1.0000
v 5.0000 0.0000 0.0000
v 5.0000 0.0000 -1.0000
v 5.0000 0.0000 -2.0000
v 5.0000 0.0000 -3.0000
v 5.0000 0.0000 -4.0000
v 5.0000 0.0000 -5.0000
v 5.0000 0.0000 -6.0000
v 5.0000 0.0000 -7.0000
v 5.0000 1.0000 -8.0000
v 5.0000 0.0000 -8.0000
v 5.0000 2.0000 -8.0000
v 5.0000 3.0000 -8.0000
v 5.0000 4.0000 -8.0000
v 5.0000 5.0000 -8.0000
v 5.0000 6.0000 -8.0000
v 5.0000 7.0000 -8.0000
v 5.0000 8.0000 -8.0000
v 5.0000 9.0000 -8.0000
v 5.0000 10.0000 -8.0000
v 5.0000 11.0000 -8.0000
v 5.0000 12.0000 -8.0000
v 5.0000 13.0000 -8.0000
v 6.0000 0.0000 8.0000
v 6.0000 1.0000 8.0000
v 6.0000 0.0000 7.0000
v 6.0000 2.0000 8.0000
v 6.0000 3.0000 8.0000
v 6.0000 4.0000 8.0000
v 6.0000 5.0000 8.0000
v 6.0000 6.0000 8.0000
v 6.0000 7.0000 8.0000
v 6.0000 8.0000 8.0000
v 6.0000 9.0000 8.0000
v 6.0000 10.0000 8.0000
v 6.0000 11.0000 8.0000
v 6.0000 12.0000 8.0000
v 6.0000 13.0000 8.0000
v 6.0000 0.0000 6.0000
v 6.0000 0.0000 5.0000
v 6.0000 0.0000 4.0000
v 6.0000 0.0000 3.0000
v 6.0000 0.0000 2.0000
v 6.0000 0.0000 1.0000
v 6.0000 0.0000 0.0000
v 6.0000 0.0000 -1.0000
v 6.0000 0.0000 -2.0000
v 6.0000 0.0000 -3.0000
v 6.0000 0.0000 -4.0000
v 6.0000 0.0000 -5.0000
v 6.0000 0.0000 -6.0000
v 6.0000 0.0000 -7.0000
v 6.0000 1.0000 -8.0000
v 6.0000 0.0000 -8.0000
v 6.0000 2.0000 -8.0000
v 6.0000 3.0000 -8.0000
v 6.0000 4.0000 -8.0000
v 6.0000 5.0000 -8.0000
v 6.0000 6.0000 -8.0000
v 6.0000 7.0000 -8.0000
v 6.0000 8.0000 -8.0000
v 6.0000 9.0000 -8.0000
v 6.0000 10.0000 -8.0000
v 6.0000 11.0000 -8.0000
v 6.0000 12.0000 -8.0000
v 6.0000 13.0000 -8.0000
v 7.0000 0.0000 8.0000
v 7.0000 1.0000 8.0000
v 7.0000 0.0000 7.0000
v 7.0000 2.0000 8.0000
v 7.0000 3.0000 8.0000
v 7.0000 4.0000 8.0000
v 7.0000 5.0000 8.0000
v 7.0000 6.0000 8.0000
v 7.0000 7.0000 8.0000
v 7.0000 8.0000 8.0000
v 7.0000 9.0000 8.0000
v 7.0000 10.0000 8.0000
v 7.0000 11.0000 8.0000
v 7.0000 12.0000 8.0000
v 7.0000 13.0000 8.0000
v 7.0000 0.0000 6.0000
v 7.0000 0.0000 5.0000
v 7.0000 0.0000 4.0000
v 7.0000 0.0000 3.0000
v 7.0000 0.0000 2.0000
v 7.0000 0.0000 1.0000
v 7.0000 0.0000 0.0000
v 7.0000 0.0000 -1.0000
v 7.0000 0.0000 -2.0000
v 7.0000 0.0000 -3.0000
v 7.0000 0.0000 -4.0000
v 7.0000 0.0000 -5.0000
v 7.0000 0.0000 -6.0000
v 7.0000 0.0000 -7.0000
v 7.0000 1.0000 -8.0000
v 7.0000 0.0000 -8.0000
v 7.0000 2.0000 -8.0000
v 7.0000 3.0000 -8.0000
v 7.0000 4.0000 -8.0000
v 7.0000 5.0000 -8.0000
v 7.0000 6.0000 -8.0000
v 7.0000 7.0000 -8.0000
v 7.0000 8.0000 -8.0000
v 7.0000 9.0000 -8.0000
v 7.0000 10.0000 -8.0000
v 7.0000 11.0000 -8.0000
v 7.0000 12.0000 -8.0000
v 7.0000 13.0000 -8.0000
v 8.0000 0.0000 8.0000
v 8.0000 0.0000 7.0000
v 8.0000 1.0000 7.0000
v 8.0000 1.0000 8.0000
v 8.0000 2.0000 7.0000
v 8.0000 2.0000 8.0000
v 8.0000 3.0000 7.0000
v 8.0000 3.0000 8.0000
v 8.0000 4.0000 7.0000
v 8.0000 4.0000 8.0000
v 8.0000 5.0000 7.0000
v 8.0000 5.0000 8.0000
v 8.0000 6.0000 7.0000
v 8.0000 6.0000 8.0000
v 8.0000 7.0000 7.0000
v 8.0000 7.0000 8.0000
v 8.0000 8.0000 7.0000
v 8.0000 8.0000 8.0000
v 8.0000 9.0000 7.0000
v 8.0000 9.0000 8.0000
v 8.0000 10.0000 7.0000
v 8.0000 10.0000 8.0000
v 8.0000 11.0000 7.0000
v 8.0000 11.0000 8.0000
v 8.0000 12.0000 7.0000
v 8.0000 12.0000 8.0000
v 8.0000 13.0000 7.0000
v 8.0000 13.0000 8.0000
v 8.0000 0.0000 6.0000
v 8.0000 1.0000 6.0000
v 8.0000 2.0000 6.0000
v 8.0000 3.0000 6.0000
v 8.0000 4.0000 6.0000
v 8.0000 5.0000 6.0000
v 8.0000 6.0000 6.0000
v 8.0000 7.0000 6.0000
v 8.0000 8.0000 6.0000
v 8.0000 9.0000 6.0000
v 8.0000 10.0000 6.0000
v 8.0000 11.0000 6.0000
v 8.0000 12.0000 6.0000
v 8.0000 13.0000 6.0000
v 8.0000 0.0000 5.0000
v 8.0000 1.0000 5.0000
v 8.0000 2.0000 5.0000
v 8.0000 3.0000 5.0000
v 8.0000 4.0000 5.0000
v 8.0000 5.0000 5.0000
v 8.0000 6.0000 5.0000
v 8.0000 7.0000 5.0000
v 8.0000 8.0000 5.0000
v 8.0000 9.0000 5.0000
v 8.0000 10.0000 5.0000
v 8.0000 11.0000 5.0000
v 8.0000 12.0000 5.0000
v 8.0000 13.0000 5.0000
v 8.0000 0.0000 4.0000
v 8.0000 1.0000 4.0000
v 8.0000 2.0000 4.0000
v 8.0000 3.0000 4.0000
v 8.0000 4.0000 4.0000
v 8.0000 5.0000 4.0000
v 8.0000 6.0000 4.0000
v 8.0000 7.0000 4.0000
v 8.0000 8.0000 4.0000
v 8.0000 9.0000 4.0000
v 8.0000 10.0000 4.0000
v 8.0000 11.0000 4.0000
v 8.0000 12.0000 4.0000
v 8.0000 13.0000 4.0000
v 8.0000 0.0000 3.0000
v 8.0000 1.0000 3.0000
v 8.0000 2.0000 3.0000
v 8.0000 3.0000 3.0000
v 8.0000 4.0000 3.0000
v 8.0000 5.0000 3.0000
v 8.0000 6.0000 3.0000
v 8.0000 7.0000 3.0000
v 8.0000 8.0000 3.0000
v 8.0000 9.0000 3.0000
v 8.0000 10.0000 3.0000
v 8.0000 11.0000 3.0000
v 8.0000 12.0000 3.0000
v 8.0000 13.0000 3.0000
v 8.0000 0.0000 2.0000
v 8.0000 1.0000 2.0000
v 8.0000 2.0000 2.0000
v 8.0000 3.0000 2.0000
v 8.0000 4.0000 2.0000
v 8.0000 5.0000 2.0000
v 8.0000 6.0000 2.0000
v 8.0000 7.0000 2.0000
v 8.0000 8.0000 2.0000
v 8.0000 9.0000 2.0000
v 8.0000 10.0000 2.0000
v 8.0000 11.0000 2.0000
v 8.0000 12.0000 2.0000
v 8.0000 13.0000 2.0000
v 8.0000 0.0000 1.0000
v 8.0000 1.0000 1.0000
v 8.0000 2.0000 1.0000
v 8.0000 3.0000 1.0000
v 8.0000 4.0000 1.0000
v 8.0000 5.0000 1.0000
v 8.0000 6.0000 1.0000
v 8.0000 7.0000 1.0000
v 8.0000 8.0000 1.0000
v 8.0000 9.0000 1.0000
v 8.0000 10.0000 1.0000
v 8.0000 11.0000 1.0000
v 8.0000 12.0000 1.0000
v 8.0000 13.0000 1.0000
v 8.0000 0.0000 0.0000
v 8.0000 1.0000 0.0000
v 8.0000 2.0000 0.0000
v 8.0000 3.0000 0.0000
v 8.0000 4.0000 0.0000
v 8.0000 5.0000 0.0000
v 8.0000 6.0000 0.0000
v 8.0000 7.0000 0.0000
v 8.0000 8.0000 0.0000
v 8.0000 9.0000 0.0000
v 8.0000 10.0000 0.0000
v 8.0000 11.0000 0.0000
v 8.0000 12.0000 0.0000
v 8.0000 13.0000 0.0000
v 8.0000 0.0000 -1.0000
v 8.0000 1.0000 -1.0000
v 8.0000 2.0000 -1.0000
v 8.0000 3.0000 -1.0000
v 8.0000 4.0000 -1.0000
v 8.0000 5.0000 -1.0000
v 8.0000 6.0000 -1.0000
v 8.0000 7.0000 -1.0000
v 8.0000 8.0000 -1.0000
v 8.0000 9.0000 -1.0000
v 8.0000 10.0000 -1.0000
v 8.0000 11.0000 -1.0000
v 8.0000 12.0000 -1.0000
v 8.0000 13.0000 -1.0000
v 8.0000 0.0000 -2.0000
v 8.0000 1.0000 -2.0000
v 8.0000 2.0000 -2.0000
v 8.0000 3.0000 -2.0000
v 8.0000 4.0000 -2.0000
v 8.0000 5.0000 -2.0000
v 8.0000 6.0000 -2.0000
v 8.0000 7.0000 -2.0000
v 8.0000 8.0000 -2.0000
v 8.0000 9.0000 -2.0000
v 8.0000 10.0000 -2.0000
v 8.0000 11.0000 -2.0000
v 8.0000 12.0000 -2.0000
v 8.0000 13.0000 -2.0000
v 8.0000 0.0000 -3.0000
v 8.0000 1.0000 -3.0000
v 8.0000 2.0000 -3.0000
v 8.0000 3.0000 -3.0000
v 8.0000 4.0000 -3.0000
v 8.0000 5.0000 -3.0000
v 8.0000 6.0000 -3.0000
v 8.0000 7.0000 -3.0000
v 8.0000 8.0000 -3.0000
v 8.0000 9.0000 -3.0000
v 8.0000 10.0000 -3.0000
v 8.0000 11.0000 -3.0000
v 8.0000 12.0000 -3.0000
v 8.0000 13.0000 -3.0000
v 8.0000 0.0000 -4.0000
v 8.0000 1.0000 -4.0000
v 8.0000 2.0000 -4.0000
v 8.0000 3.0000 -4.0000
v 8.0000 4.0000 -4.0000
v 8.0000 5.0000 -4.0000
v 8.0000 6.0000 -4.0000
v 8.0000 7.0000 -4.0000
v 8.0000 8.0000 -4.0000
v 8.0000 9.0000 -4.0000
v 8.0000 10.0000 -4.0000
v 8.0000 11.0000 -4.0000
v 8.0000 12.0000 -4.0000
v 8.0000 13.0000 -4.0000
v 8.0000 0.0000 -5.0000
v 8.0000 1.0000 -5.0000
v 8.0000 2.0000 -5.0000
v 8.0000 3.0000 -5.0000
v 8.0000 4.0000 -5.0000
v 8.0000 5.0000 -5.0000
v 8.0000 6.0000 -5.0000
v 8.0000 7.0000 -5.0000
v 8.0000 8.0000 -5.0000
v 8.0000 9.0000 -5.0000
v 8.0000 10.0000 -5.0000
v 8.0000 11.0000 -5.0000
v 8.0000 12.0000 -5.0000
v 8.0000 13.0000 -5.0000
v 8.0000 0.0000 -6.0000
v 8.0000 1.0000 -6.0000
v 8.0000 2.0000 -6.0000
v 8.0000 3.0000 -6.0000
v 8.0000 4.0000 -6.0000
v 8.0000 5.0000 -6.0000
v 8.0000 6.0000 -6.0000
v 8.0000 7.0000 -6.0000
v 8.0000 8.0000 -6.0000
v 8.0000 9.0000 -6.0000
v 8.0000 10.0000 -6.0000
v 8.0000 11.0000 -6.0000
v 8.0000 12.0000 -6.0000
v 8.0000 13.0000 -6.0000
v 8.0000 0.0000 -7.0000
v 8.0000 1.0000 -7.0000
v 8.0000 2.0000 -7.0000
v 8.0000 3.0000 -7.0000
v 8.0000 4.0000 -7.0000
v 8.0000 5.0000 -7.0000
v 8.0000 6.0000 -7.0000
v 8.0000 7.0000 -7.0000
v 8.0000 8.0000 -7.0000
v 8.0000 9.0000 -7.0000
v 8.0000 10.0000 -7.0000
v 8.0000 11.0000 -7.0000
v 8.0000 12.0000 -7.0000
v 8.0000 13.0000 -7.0000
v 8.0000 0.0000 -8.0000
v 8.0000 1.0000 -8.0000
v 8.0000 2.0000 -8.0000
v 8.0000 3.0000 -8.0000
v 8.0000 4.0000 -8.0000
v 8.0000 5.0000 -8.0000
v 8.0000 6.0000 -8.0000
v 8.0000 7.0000 -8.0000
v 8.0000 8.0000 -8.0000
v 8.0000 9.0000 -8.0000
v 8.0000 10.0000 -8.0000
v 8.0000 11.0000 -8.0000
v 8.0000 12.0000 -8.0000
v 8.0000 13.0000 -8.0000
v -8.0000 14.0000 8.0000
v -8.0000 14.0000 7.0000
v -7.0000 14.0000 8.0000
v -8.0000 15.0000 8.0000
v -8.0000 15.0000 7.0000
v -7.0000 15.0000 8.0000
v -8.0000 16.0000 8.0000
v -8.0000 16.0000 7.0000
v -7.0000 16.0000 8.0000
v -7.0000 16.0000 7.0000
v -8.0000 14.0000 6.0000
v -8.0000 15.0000 6.0000
v -8.0000 16.0000 6.0000
v -7.0000 16.0000 6.0000
v -8.0000 14.0000 5.0000
v -8.0000 15.0000 5.0000
v -8.0000 16.0000 5.0000
v -7.0000 16.0000 5.0000
v -8.0000 14.0000 4.0000
v -8.0000 15.0000 4.0000
v -8.0000 16.0000 4.0000
v -7.0000 16.0000 4.0000
v -8.0000 14.0000 3.0000
v -8.0000 15.0000 3.0000
v -8.0000 16.0000 3.0000
v -7.0000 16.0000 3.0000
v -8.0000 14.0000 2.0000
v -8.0000 15.0000 2.0000
v -8.0000 16.0000 2.0000
v -7.0000 16.0000 2.0000
v -8.0000 14.0000 1.0000
v -8.0000 15.0000 1.0000
v -8.0000 16.0000 1.0000
v -7.0000 16.0000 1.0000
v -8.0000 14.0000 0.0000
v -8.0000 15.0000 0.0000
v -8.0000 16.0000 0.0000
v -7.0000 16.0000 0.0000
v -8.0000 14.0000 -1.0000
v -8.0000 15.0000 -1.0000
v -8.0000 16.0000 -1.0000
v -7.0000 16.0000 -1.0000
v -8.0000 14.0000 -2.0000
v -8.0000 15.0000 -2.0000
v -8.0000 16.0000 -2.0000
v -7.0000 16.0000 -2.0000
v -8.0000 14.0000 -3.0000
v -8.0000 15.0000 -3.0000
v -8.0000 16.0000 -3.0000
v -7.0000 16.0000 -3.0000
v -8.0000 14.0000 -4.0000
v -8.0000 15.0000 -4.0000
v -8.0000 16.0000 -4.0000
v -7.0000 16.0000 -4.0000
v -8.0000 14.0000 -5.0000
v -8.0000 15.0000 -5.0000
v -8.0000 16.0000 -5.0000
v -7.0000 16.0000 -5.0000
v -8.0000 14.0000 -6.0000
v -8.0000 15.0000 -6.0000
v -8.0000 16.0000 -6.0000
v -7.0000 16.0000 -6.0000
v -8.0000 14.0000 -7.0000
v -8.0000 15.0000 -7.0000
v -8.0000 16.0000 -7.0000
v -7.0000 16.0000 -7.0000
v -8.0000 14.0000 -8.0000
v -7.0000 14.0000 -8.0000
v -8.0000 15.0000 -8.0000
v -7.0000 15.0000 -8.0000
v -8.0000 16.0000 -8.0000
v -7.0000 16.0000 -8.0000
v -6.0000 14.0000 8.0000
v -6.0000 15.0000 8.0000
v -6.0000 16.0000 8.0000
v -6.0000 16.0000 7.0000
v -6.0000 16.0000 6.0000
v -6.0000 16.0000 5.0000
v -6.0000 16.0000 4.0000
v -6.0000 16.0000 3.0000
v -6.0000 16.0000 2.0000
v -6.0000 16.0000 1.0000
v -6.0000 16.0000 0.0000
v -6.0000 16.0000 -1.0000
v -6.0000 16.0000 -2.0000
v -6.0000 16.0000 -3.0000
v -6.0000 16.0000 -4.0000
v -6.0000 16.0000 -5.0000
v -6.0000 16.0000 -6.0000
v -6.0000 16.0000 -7.0000
v -6.0000 14.0000 -8.0000
v -6.0000 15.0000 -8.0000
v -6.0000 16.0000 -8.0000
v -5.0000 14.0000 8.0000
v -5.0000 15.0000 8.0000
v -5.0000 16.0000 8.0000
v -5.0000 16.0000 7.0000
v -5.0000 16.0000 6.0000
v -5.0000 16.0000 5.0000
v -5.0000 16.0000 4.0000
v -5.0000 16.0000 3.0000
v -5.0000 16.0000 2.0000
v -5.0000 16.0000 1.0000
v -5.0000 16.0000 0.0000
v -5.0000 16.0000 -1.0000
v -5.0000 16.0000 -2.0000
v -5.0000 16.0000 -3.0000
v -5.0000 16.0000 -4.0000
v -5.0000 16.0000 -5.0000
v -5.0000 16.0000 -6.0000
v -5.0000 16.0000 -7.0000
v -5.0000 14.0000 -8.0000
v -5.0000 15.0000 -8.0000
v -5.0000 16.0000 -8.0000
v -4.0000 14.0000 8.0000
v -4.0000 15.0000 8.0000
v -4.0000 16.0000 8.0000
v -4.0000 16.0000 7.0000
v -4.0000 16.0000 6.0000
v -4.0000 16.0000 5.0000
v -4.0000 16.0000 4.0000
v -4.0000 16.0000 3.0000
v -4.0000 16.0000 2.0000
v -4.0000 16.0000 1.0000
v -4.0000 16.0000 0.0000
v -4.0000 16.0000 -1.0000
v -4.0000 16.0000 -2.0000
v -4.0000 16.0000 -3.0000
v -4.0000 16.0000 -4.0000
v -4.0000 16.0000 -5.0000
v -4.0000 16.0000 -6.0000
v -4.0000 16.0000 -7.0000
v -4.0000 14.0000 -8.0000
v -4.0000 15.0000 -8.0000
v -4.0000 16.0000 -8.0000
v -3.0000 14.0000 8.0000
v -3.0000 15.0000 8.0000
v -3.0000 16.0000 8.0000
v -3.0000 16.0000 7.0000
v -3.0000 16.0000 6.0000
v -3.0000 16.0000 5.0000
v -3.0000 16.0000 4.0000
v -3.0000 16.0000 3.0000
v -3.0000 16.0000 2.0000
v -3.0000 16.0000 1.0000
v -3.0000 16.0000 0.0000
v -3.0000 16.0000 -1.0000
v -3.0000 16.0000 -2.0000
v -3.0000 16.0000 -3.0000
v -3.0000 16.0000 -4.0000
v -3.0000 16.0000 -5.0000
v -3.0000 16.0000 -6.0000
v -3.0000 16.0000 -7.0000
v -3.0000 14.0000 -8.0000
v -3.0000 15.0000 -8.0000
v -3.0000 16.0000 -8.0000
v -2.0000 14.0000 8.0000
v -2.0000 15.0000 8.0000
v -2.0000 16.0000 8.0000
v -2.0000 16.0000 7.0000
v -2.0000 16.0000 6.0000
v -2.0000 16.0000 5.0000
v -2.0000 16.0000 4.0000
v -2.0000 16.0000 3.0000
v -2.0000 16.0000 2.0000
v -2.0000 16.0000 1.0000
v -2.0000 16.0000 0.0000
v -2.0000 16.0000 -1.0000
v -2.0000 16.0000 -2.0000
v -2.0000 16.0000 -3.0000
v -2.0000 16.0000 -4.0000
v -2.0000 16.0000 -5.0000
v -2.0000 16.0000 -6.0000
v -2.0000 16.0000 -7.0000
v -2.0000 14.0000 -8.0000
v -2.0000 15.0000 -8.0000
v -2.0000 16.0000 -8.0000
v -1.0000 14.0000 8.0000
v -1.0000 15.0000 8.0000
v -1.0000 16.0000 8.0000
v -1.0000 16.0000 7.0000
v -1.0000 16.0000 6.0000
v -1.0000 16.0000 5.0000
v -1.0000 16.0000 4.0000
v -1.0000 16.0000 3.0000
v -1.0000 16.0000 2.0000
v -1.0000 16.0000 1.0000
v -1.0000 16.0000 0.0000
v -1.0000 16.0000 -1.0000
v -1.0000 16.0000 -2.0000
v -1.0000 16.0000 -3.0000
v -1.0000 16.0000 -4.0000
v -1.0000 16.0000 -5.0000
v -1.0000 16.0000 -6.0000
v -1.0000 16.0000 -7.0000
v -1.0000 14.0000 -8.0000
v -1.0000 15.0000 -8.0000
v -1.0000 16.0000 -8.0000
v 0.0000 14.0000 8.0000
v 0.0000 15.0000 8.0000
v 0.0000 16.0000 8.0000
v 0.0000 16.0000 7.0000
v 0.0000 16.0000 6.0000
v 0.0000 16.0000 5.0000
v 0.0000 16.0000 4.0000
v 0.0000 16.0000 3.0000
v 0.0000 16.0000 2.0000
v 0.0000 16.0000 1.0000
v 0.0000 16.0000 0.0000
v 0.0000 16.0000 -1.0000
v 0.0000 16.0000 -2.0000
v 0.0000 16.0000 -3.0000
v 0.0000 16.0000 -4.0000
v 0.0000 16.0000 -5.0000
v 0.0000 16.0000 -6.0000
v 0.0000 16.0000 -7.0000
v 0.0000 14.0000 -8.0000
v 0.0000 15.0000 -8.0000
v 0.0000 16.0000 -8.0000
v 1.0000 14.0000 8.0000
v 1.0000 15.0000 8.0000
v 1.0000 16.0000 8.0000
v 1.0000 16.0000 7.0000
v 1.0000 16.0000 6.0000
v 1.0000 16.0000 5.0000
v 1.0000 16.0000 4.0000
v 1.0000 16.0000 3.0000
v 1.0000 16.0000 2.0000
v 1.0000 16.0000 1.0000
v 1.0000 16.0000 0.0000
v 1.0000 16.0000 -1.0000
v 1.0000 16.0000 -2.0000
v 1.0000 16.0000 -3.0000
v 1.0000 16.0000 -4.0000
v 1.0000 16.0000 -5.0000
v 1.0000 16.0000 -6.0000
v 1.0000 16.0000 -7.0000
v 1.0000 14.0000 -8.0000
v 1.0000 15.0000 -8.0000
v 1.0000 16.0000 -8.0000
v 2.0000 14.0000 8.0000
v 2.0000 15.0000 8.0000
v 2.0000 16.0000 8.0000
v 2.0000 16.0000 7.0000
v 2.0000 16.0000 6.0000
v 2.0000 16.0000 5.0000
v 2.0000 16.0000 4.0000
v 2.0000 16.0000 3.0000
v 2.0000 16.0000 2.0000
v 2.0000 16.0000 1.0000
v 2.0000 16.0000 0.0000
v 2.0000 16.0000 -1.0000
v 2.0000 16.0000 -2.0000
v 2.0000 16.0000 -3.0000
v 2.0000 16.0000 -4.0000
v 2.0000 16.0000 -5.0000
v 2.0000 16.0000 -6.0000
v 2.0000 16.0000 -7.0000
v 2.0000 14.0000 -8.0000
v 2.0000 15.0000 -8.0000
v 2.0000 16.0000 -8.0000
v 3.0000 14.0000 8.0000
v 3.0000 15.0000 8.0000
v 3.0000 16.0000 8.0000
v 3.0000 16.0000 7.0000
v 3.0000 16.0000 6.0000
v 3.0000 16.0000 5.0000
v 3.0000 16.0000 4.0000
v 3.0000 16.0000 3.0000
v 3.0000 16.0000 2.0000
v 3.0000 16.0000 1.0000
v 3.0000 16.0000 0.0000
v 3.0000 16.0000 -1.0000
v 3.0000 16.0000 -2.0000
v 3.0000 16.0000 -3.0000
v 3.0000 16.0000 -4.0000
v 3.0000 16.0000 -5.0000
v 3.0000 16.0000 -6.0000
v 3.0000 16.0000 -7.0000
v 3.0000 14.0000 -8.0000
v 3.0000 15.0000 -8.0000
v 3.0000 16.0000 -8.0000
v 4.0000 14.0000 8.0000
v 4.0000 15.0000 8.0000
v 4.0000 16.0000 8.0000
v 4.0000 16.0000 7.0000
v 4.0000 16.0000 6.0000
v 4.0000 16.0000 5.0000
v 4.0000 16.0000 4.0000
v 4.0000 16.0000 3.0000
v 4.0000 16.0000 2.0000
v 4.0000 16.0000 1.0000
v 4.0000 16.0000 0.0000
v 4.0000 16.0000 -1.0000
v 4.0000 16.0000 -2.0000
v 4.0000 16.0000 -3.0000
v 4.0000 16.0000 -4.0000
v 4.0000 16.0000 -5.0000
v 4.0000 16.0000 -6.0000
v 4.0000 16.0000 -7.0000
v 4.0000 14.0000 -8.0000
v 4.0000 15.0000 -8.0000
v 4.0000 16.0000 -8.0000
v 5.0000 14.0000 8.0000
v 5.0000 15.0000 8.0000
v 5.0000 16.0000 8.0000
v 5.0000 16.0000 7.0000
v 5.0000 16.0000 6.0000
v 5.0000 16.0000 5.0000
v 5.0000 16.0000 4.0000
v 5.0000 16.0000 3.0000
v 5.0000 16.0000 2.0000
v 5.0000 16.0000 1.0000
v 5.0000 16.0000 0.0000
v 5.0000 16.0000 -1.0000
v 5.0000 16.0000 -2.0000
v 5.0000 16.0000 -3.0000
v 5.0000 16.0000 -4.0000
v 5.0000 16.0000 -5.0000
v 5.0000 16.0000 -6.0000
v 5.0000 16.0000 -7.0000
v 5.0000 14.0000 -8.0000
v 5.0000 15.0000 -8.0000
v 5.0000 16.0000 -8.0000
v 6.0000 14.0000 8.0000
v 6.0000 15.0000 8.0000
v 6.0000 16.0000 8.0000
v 6.0000 16.0000 7.0000
v 6.0000 16.0000 6.0000
v 6.0000 16.0000 5.0000
v 6.0000 16.0000 4.0000
v 6.0000 16.0000 3.0000
v 6.0000 16.0000 2.0000
v 6.0000 16.0000 1.0000
v 6.0000 16.0000 0.0000
v 6.0000 16.0000 -1.0000
v 6.0000 16.0000 -2.0000
v 6.0000 16.0000 -3.0000
v 6.0000 16.0000 -4.0000
v 6.0000 16.0000 -5.0000
v 6.0000 16.0000 -6.0000
v 6.0000 16.0000 -7.0000
v 6.0000 14.0000 -8.0000
v 6.0000 15.0000 -8.0000
v 6.0000 16.0000 -8.0000
v 7.0000 14.0000 8.0000
v 7.0000 15.0000 8.0000
v 7.0000 16.0000 8.0000
v 7.0000 16.0000 7.0000
v 7.0000 16.0000 6.0000
v 7.0000 16.0000 5.0000
v 7.0000 16.0000 4.0000
v 7.0000 16.0000 3.0000
v 7.0000 16.0000 2.0000
v 7.0000 16.0000 1.0000
v 7.0000 16.0000 0.0000
v 7.0000 16.0000 -1.0000
v 7.0000 16.0000 -2.0000
v 7.0000 16.0000 -3.0000
v 7.0000 16.0000 -4.0000
v 7.0000 16.0000 -5.0000
v 7.0000 16.0000 -6.0000
v 7.0000 16.0000 -7.0000
v 7.0000 14.0000 -8.0000
v 7.0000 15.0000 -8.0000
v 7.0000 16.0000 -8.0000
v 8.0000 14.0000 7.0000
v 8.0000 14.0000 8.0000
v 8.0000 15.0000 7.0000
v 8.0000 15.0000 8.0000
v 8.0000 16.0000 7.0000
v 8.0000 16.0000 8.0000
v 8.0000 14.0000 6.0000
v 8.0000 15.0000 6.0000
v 8.0000 16.0000 6.0000
v 8.0000 14.0000 5.0000
v 8.0000 15.0000 5.0000
v 8.0000 16.0000 5.0000
v 8.0000 14.0000 4.0000
v 8.0000 15.0000 4.0000
v 8.0000 16.0000 4.0000
v 8.0000 14.0000 3.0000
v 8.0000 15.0000 3.0000
v 8.0000 16.0000 3.0000
v 8.0000 14.0000 2.0000
v 8.0000 15.0000 2.0000
v 8.0000 16.0000 2.0000
v 8.0000 14.0000 1.0000
v 8.0000 15.0000 1.0000
v 8.0000 16.0000 1.0000
v 8.0000 14.0000 0.0000
v 8.0000 15.0000 0.0000
v 8.0000 16.0000 0.0000
v 8.0000 14.0000 -1.0000
v 8.0000 15.0000 -1.0000
v 8.0000 16.0000 -1.0000
v 8.0000 14.0000 -2.0000
v 8.0000 15.0000 -2.0000
v 8.0000 16.0000 -2.0000
v 8.0000 14.0000 -3.0000
v 8.0000 15.0000 -3.0000
v 8.0000 16.0000 -3.0000
v 8.0000 14.0000 -4.0000
v 8.0000 15.0000 -4.0000
v 8.0000 16.0000 -4.0000
v 8.0000 14.0000 -5.0000
v 8.0000 15.0000 -5.0000
v 8.0000 16.0000 -5.0000
v 8.0000 14.0000 -6.0000
v 8.0000 15.0000 -6.0000
v 8.0000 16.0000 -6.0000
v 8.0000 14.0000 -7.0000
v 8.0000 15.0000 -7.0000
v 8.0000 16.0000 -7.0000
v 8.0000 14.0000 -8.0000
v 8.0000 15.0000 -8.0000
v 8.0000 16.0000 -8.0000
usemtl c4
f 8 11 12 9
f 8 10 13 11
f 11 14 15 12
f 11 13 16 14
f 14 17 18 15
f 14 16 19 17
f 17 20 21 18
f 17 19 22 20
f 20 23 24 21
f 20 22 25 23
f 23 26 27 24
f 23 25 28 26
f 26 29 30 27
f 26 28 31 29
f 29 32 33 30
f 29 31 34 32
f 32 35 36 33
f 32 34 37 35
f 35 38 39 36
f 35 37 40 38
f 38 41 42 39
f 38 40 43 41
f 9 12 48 47
f 12 15 49 48
f 15 18 50 49
f 18 21 51 50
f 21 24 52 51
f 24 27 53 52
f 27 30 54 53
f 30 33 55 54
f 33 36 56 55
f 36 39 57 56
f 39 42 58 57
f 47 48 63 62
f 48 49 64 63
f 49 50 65 64
f 50 51 66 65
f 51 52 67 66
f 52 53 68 67
f 53 54 69 68
f 54 55 70 69
f 55 56 71 70
f 56 57 72 71
f 57 58 73 72
f 62 63 78 77
f 63 64 79 78
f 64 65 80 79
f 65 66 81 80
f 66 67 82 81
f 67 68 83 82
f 68 69 84 83
f 69 70 85 84
f 70 71 86 85
f 71 72 87 86
f 72 73 88 87
f 77 78 93 92
f 78 79 94 93
f 79 80 95 94
f 80 81 96 95
f 81 82 97 96
f 82 83 98 97
f 83 84 99 98
f 84 85 100 99
f 85 86 101 100
f 86 87 102 101
f 87 88 103 102
f 92 93 108 107
f 93 94 109 108
f 94 95 110 109
f 95 96 111 110
f 96 97 112 111
f 97 98 113 112
f 98 99 114 113
f 99 100 115 114
f 100 101 116 115
f 101 102 117 116
f 102 103 118 117
f 107 108 123 122
f 108 109 124 123
f 109 110 125 124
f 110 111 126 125
f 111 112 127 126
f 112 113 128 127
f 113 114 129 128
f 114 115 130 129
f 115 116 131 130
f 116 117 132 131
f 117 118 133 132
f 122 123 138 137
f 123 124 139 138
f 124 125 140 139
f 125 126 141 140
f 126 127 142 141
f 127 128 143 142
f 128 129 144 143
f 129 130 145 144
f 130 131 146 145
f 131 132 147 146
f 132 133 148 147
f 137 138 153 152
f 138 139 154 153
f 139 140 155 154
f 140 141 156 155
f 141 142 157 156
f 142 143 158 157
f 143 144 159 158
f 144 145 160 159
f 145 146 161 160
f 146 147 162 161
f 147 148 163 162
f 152 153 168 167
f 153 154 169 168
f 154 155 170 169
f 155 156 171 170
f 156 157 172 171
f 157 158 173 172
f 158 159 174 173
f 159 160 175 174
f 160 161 176 175
f 161 162 177 176
f 162 163 178 177
f 167 168 183 182
f 168 169 184 183
f 169 170 185 184
f 170 171 186 185
f 171 172 187 186
f 172 173 188 187
f 173 174 189 188
f 174 175 190 189
f 175 176 191 190
f 176 177 192 191
f 177 178 193 192
f 182 183 198 197
f 183 184 199 198
f 184 185 200 199
f 185 186 201 200
f 186 187 202 201
f 187 188 203 202
f 188 189 204 203
f 189 190 205 204
f 190 191 206 205
f 191 192 207 206
f 192 193 208 207
f 197 198 213 212
f 198 199 214 213
f 199 200 215 214
f 200 201 216 215
f 201 202 217 216
f 202 203 218 217
f 203 204 219 218
f 204 205 220 219
f 205 206 221 220
f 206 207 222 221
f 207 208 223 222
f 212 213 228 227
f 213 214 229 228
f 214 215 230 229
f 215 216 231 230
f 216 217 232 231
f 217 218 233 232
f 218 219 234 233
f 219 220 235 234
f 220 221 236 235
f 221 222 237 236
f 222 223 238 237
f 227 228 243 242
f 228 229 244 243
f 229 230 245 244
f 230 231 246 245
f 231 232 247 246
f 232 233 248 247
f 233 234 249 248
f 234 235 250 249
f 235 236 251 250
f 236 237 252 251
f 237 238 253 252
f 242 243 260 258
f 258 260 261 259
f 243 244 262 260
f 260 262 263 261
f 244 245 264 262
f 262 264 265 263
f 245 246 266 264
f 264 266 267 265
f 246 247 268 266
f 266 268 269 267
f 247 248 270 268
f 268 270 271 269
f 248 249 272 270
f 270 272 273 271
f 249 250 274 272
f 272 274 275 273
f 250 251 276 274
f 274 276 277 275
f 251 252 278 276
f 276 278 279 277
f 252 253 280 278
f 278 280 281 279
f 10 285 286 13
f 13 286 287 16
f 16 287 288 19
f 19 288 289 22
f 22 289 290 25
f 25 290 291 28
f 28 291 292 31
f 31 292 293 34
f 34 293 294 37
f 37 294 295 40
f 40 295 296 43
f 259 261 314 313
f 261 263 315 314
f 263 265 316 315
f 265 267 317 316
f 267 269 318 317
f 269 271 319 318
f 271 273 320 319
f 273 275 321 320
f 275 277 322 321
f 277 279 323 322
f 279 281 324 323
f 285 328 329 286
f 286 329 330 287
f 287 330 331 288
f 288 331 332 289
f 289 332 333 290
f 290 333 334 291
f 291 334 335 292
f 292 335 336 293
f 293 336 337 294
f 294 337 338 295
f 295 338 339 296
f 313 314 357 356
f 314 315 358 357
f 315 316 359 358
f 316 317 360 359
f 317 318 361 360
f 318 319 362 361
f 319 320 363 362
f 320 321 364 363
f 321 322 365 364
f 322 323 366 365
f 323 324 367 366
f 328 371 372 329
f 329 372 373 330
f 330 373 374 331
f 331 374 375 332
f 332 375 376 333
f 333 376 377 334
f 334 377 378 335
f 335 378 379 336
f 336 379 380 337
f 337 380 381 338
f 338 381 382 339
f 356 357 400 399
f 357 358 401 400
f 358 359 402 401
f 359 360 403 402
f 360 361 404 403
f 361 362 405 404
f 362 363 406 405
f 363 364 407 406
f 364 365 408 407
f 365 366 409 408
f 366 367 410 409
f 371 414 415 372
f 372 415 416 373
f 373 416 417 374
f 374 417 418 375
f 375 418 419 376
f 376 419 420 377
f 377 420 421 378
f 378 421 422 379
f 379 422 423 380
f 380 423 424 381
f 381 424 425 382
f 399 400 443 442
f 400 401 444 443
f 401 402 445 444
f 402 403 446 445
f 403 404 447 446
f 404 405 448 447
f 405 406 449 448
f 406 407 450 449
f 407 408 451 450
f 408 409 452 451
f 409 410 453 452
f 414 457 458 415
f 415 458 459 416
f 416 459 460 417
f 417 460 461 418
f 418 461 462 419
f 419 462 463 420
f 420 463 464 421
f 421 464 465 422
f 422 465 466 423
f 423 466 467 424
f 424 467 468 425
f 442 443 486 485
f 443 444 487 486
f 444 445 488 487
f 445 446 489 488
f 446 447 490 489
f 447 448 491 490
f 448 449 492 491
f 449 450 493 492
f 450 451 494 493
f 451 452 495 494
f 452 453 496 495
f 457 500 501 458
f 458 501 502 459
f 459 502 503 460
f 460 503 504 461
f 461 504 505 462
f 462 505 506 463
f 463 506 507 464
f 464 507 508 465
f 465 508 509 466
f 466 509 510 467
f 467 510 511 468
f 485 486 529 528
f 486 487 530 529
f 487 488 531 530
f 488 489 532 531
f 489 490 533 532
f 490 491 534 533
f 491 492 535 534
f 492 493 536 535
f 493 494 537 536
f 494 495 538 537
f 495 496 539 538
f 500 543 544 501
f 501 544 545 502
f 502 545 546 503
f 503 546 547 504
f 504 547 548 505
f 505 548 549 506
f 506 549 550 507
f 507 550 551 508
f 508 551 552 509
f 509 552 553 510
f 510 553 554 511
f 528 529 572 571
f 529 530 573 572
f 530 531 574 573
f 531 532 575 574
f 532 533 576 575
f 533 534 577 576
f 534 535 578 577
f 535 536 579 578
f 536 537 580 579
f 537 538 581 580
f 538 539 582 581
f 543 586 587 544
f 544 587 588 545
f 545 588 589 546
f 546 589 590 547
f 547 590 591 548
f 548 591 592 549
f 549 592 593 550
f 550 593 594 551
f 551 594 595 552
f 552 595 596 553
f 553 596 597 554
f 571 572 615 614
f 572 573 616 615
f 573 574 617 616
f 574 575 618 617
f 575 576 619 618
f 576 577 620 619
f 577 578 621 620
f 578 579 622 621
f 579 580 623 622
f 580 581 624 623
f 581 582 625 624
f 586 629 630 587
f 587 630 631 588
f 588 631 632 589
f 589 632 633 590
f 590 633 634 591
f 591 634 635 592
f 592 635 636 593
f 593 636 637 594
f 594 637 638 595
f 595 638 639 596
f 596 639 640 597
f 614 615 658 657
f 615 616 659 658
f 616 617 660 659
f 617 618 661 660
f 618 619 662 661
f 619 620 663 662
f 620 621 664 663
f 621 622 665 664
f 622 623 666 665
f 623 624 667 666
f 624 625 668 667
f 629 672 673 630
f 630 673 674 631
f 631 674 675 632
f 632 675 676 633
f 633 676 677 634
f 634 677 678 635
f 635 678 679 636
f 636 679 680 637
f 637 680 681 638
f 638 681 682 639
f 639 682 683 640
f 657 658 701 700
f 658 659 702 701
f 659 660 703 702
f 660 661 704 703
f 661 662 705 704
f 662 663 706 705
f 663 664 707 706
f 664 665 708 707
f 665 666 709 708
f 666 667 710 709
f 667 668 711 710
f 672 715 716 673
f 673 716 717 674
f 674 717 718 675
f 675 718 719 676
f 676 719 720 677
f 677 720 721 678
f 678 721 722 679
f 679 722 723 680
f 680 723 724 681
f 681 724 725 682
f 682 725 726 683
f 700 701 744 743
f 701 702 745 744
f 702 703 746 745
f 703 704 747 746
f 704 705 748 747
f 705 706 749 748
f 706 707 750 749
f 707 708 751 750
f 708 709 752 751
f 709 710 753 752
f 710 711 754 753
f 715 758 759 716
f 716 759 760 717
f 717 760 761 718
f 718 761 762 719
f 719 762 763 720
f 720 763 764 721
f 721 764 765 722
f 722 765 766 723
f 723 766 767 724
f 724 767 768 725
f 725 768 769 726
f 743 744 787 786
f 744 745 788 787
f 745 746 789 788
f 746 747 790 789
f 747 748 791 790
f 748 749 792 791
f 749 750 793 792
f 750 751 794 793
f 751 752 795 794
f 752 753 796 795
f 753 754 797 796
f 758 801 802 759
f 759 802 803 760
f 760 803 804 761
f 761 804 805 762
f 762 805 806 763
f 763 806 807 764
f 764 807 808 765
f 765 808 809 766
f 766 809 810 767
f 767 810 811 768
f 768 811 812 769
f 786 787 830 829
f 787 788 831 830
f 788 789 832 831
f 789 790 833 832
f 790 791 834 833
f 791 792 835 834
f 792 793 836 835
f 793 794 837 836
f 794 795 838 837
f 795 796 839 838
f 796 797 840 839
f 801 844 845 802
f 802 845 846 803
f 803 846 847 804
f 804 847 848 805
f 805 848 849 806
f 806 849 850 807
f 807 850 851 808
f 808 851 852 809
f 809 852 853 810
f 810 853 854 811
f 811 854 855 812
f 829 830 873 872
f 830 831 874 873
f 831 832 875 874
f 832 833 876 875
f 833 834 877 876
f 834 835 878 877
f 835 836 879 878
f 836 837 880 879
f 837 838 881 880
f 838 839 882 881
f 839 840 883 882
f 889 888 890 891
f 844 889 891 845
f 891 890 892 893
f 845 891 893 846
f 893 892 894 895
f 846 893 895 847
f 895 894 896 897
f 847 895 897 848
f 897 896 898 899
f 848 897 899 849
f 899 898 900 901
f 849 899 901 850
f 901 900 902 903
f 850 901 903 851
f 903 902 904 905
f 851 903 905 852
f 905 904 906 907
f 852 905 907 853
f 907 906 908 909
f 853 907 909 854
f 909 908 910 911
f 854 909 911 855
f 888 914 915 890
f 890 915 916 892
f 892 916 917 894
f 894 917 918 896
f 896 918 919 898
f 898 919 920 900
f 900 920 921 902
f 902 921 922 904
f 904 922 923 906
f 906 923 924 908
f 908 924 925 910
f 914 928 929 915
f 915 929 930 916
f 916 930 931 917
f 917 931 932 918
f 918 932 933 919
f 919 933 934 920
f 920 934 935 921
f 921 935 936 922
f 922 936 937 923
f 923 937 938 924
f 924 938 939 925
f 928 942 943 929
f 929 943 944 930
f 930 944 945 931
f 931 945 946 932
f 932 946 947 933
f 933 947 948 934
f 934 948 949 935
f 935 949 950 936
f 936 950 951 937
f 937 951 952 938
f 938 952 953 939
f 942 956 957 943
f 943 957 958 944
f 944 958 959 945
f 945 959 960 946
f 946 960 961 947
f 947 961 962 948
f 948 962 963 949
f 949 963 964 950
f 950 964 965 951
f 951 965 966 952
f 952 966 967 953
f 956 970 971 957
f 957 971 972 958
f 958 972 973 959
f 959 973 974 960
f 960 974 975 961
f 961 975 976 962
f 962 976 977 963
f 963 977 978 964
f 964 978 979 965
f 965 979 980 966
f 966 980 981 967
f 970 984 985 971
f 971 985 986 972
f 972 986 987 973
f 973 987 988 974
f 974 988 989 975
f 975 989 990 976
f 976 990 991 977
f 977 991 992 978
f 978 992 993 979
f 979 993 994 980
f 980 994 995 981
f 984 998 999 985
f 985 999 1000 986
f 986 1000 1001 987
f 987 1001 1002 988
f 988 1002 1003 989
f 989 1003 1004 990
f 990 1004 1005 991
f 991 1005 1006 992
f 992 1006 1007 993
f 993 1007 1008 994
f 994 1008 1009 995
f 998 1012 1013 999
f 999 1013 1014 1000
f 1000 1014 1015 1001
f 1001 1015 1016 1002
f 1002 1016 1017 1003
f 1003 1017 1018 1004
f 1004 1018 1019 1005
f 1005 1019 1020 1006
f 1006 1020 1021 1007
f 1007 1021 1022 1008
f 1008 1022 1023 1009
f 1012 1026 1027 1013
f 1013 1027 1028 1014
f 1014 1028 1029 1015
f 1015 1029 1030 1016
f 1016 1030 1031 1017
f 1017 1031 1032 1018
f 1018 1032 1033 1019
f 1019 1033 1034 1020
f 1020 1034 1035 1021
f 1021 1035 1036 1022
f 1022 1036 1037 1023
f 1026 1040 1041 1027
f 1027 1041 1042 1028
f 1028 1042 1043 1029
f 1029 1043 1044 1030
f 1030 1044 1045 1031
f 1031 1045 1046 1032
f 1032 1046 1047 1033
f 1033 1047 1048 1034
f 1034 1048 1049 1035
f 1035 1049 1050 1036
f 1036 1050 1051 1037
f 1040 1054 1055 1041
f 1041 1055 1056 1042
f 1042 1056 1057 1043
f 1043 1057 1058 1044
f 1044 1058 1059 1045
f 1045 1059 1060 1046
f 1046 1060 1061 1047
f 1047 1061 1062 1048
f 1048 1062 1063 1049
f 1049 1063 1064 1050
f 1050 1064 1065 1051
f 1054 1068 1069 1055
f 1055 1069 1070 1056
f 1056 1070 1071 1057
f 1057 1071 1072 1058
f 1058 1072 1073 1059
f 1059 1073 1074 1060
f 1060 1074 1075 1061
f 1061 1075 1076 1062
f 1062 1076 1077 1063
f 1063 1077 1078 1064
f 1064 1078 1079 1065
f 1068 1082 1083 1069
f 1069 1083 1084 1070
f 1070 1084 1085 1071
f 1071 1085 1086 1072
f 1072 1086 1087 1073
f 1073 1087 1088 1074
f 1074 1088 1089 1075
f 1075 1089 1090 1076
f 1076 1090 1091 1077
f 1077 1091 1092 1078
f 1078 1092 1093 1079
f 1082 1096 1097 1083
f 1083 1097 1098 1084
f 1084 1098 1099 1085
f 1085 1099 1100 1086
f 1086 1100 1101 1087
f 1087 1101 1102 1088
f 1088 1102 1103 1089
f 1089 1103 1104 1090
f 1090 1104 1105 1091
f 1091 1105 1106 1092
f 1092 1106 1107 1093
f 1096 1110 1111 1097
f 872 873 1111 1110
f 1097 1111 1112 1098
f 873 874 1112 1111
f 1098 1112 1113 1099
f 874 875 1113 1112
f 1099 1113 1114 1100
f 875 876 1114 1113
f 1100 1114 1115 1101
f 876 877 1115 1114
f 1101 1115 1116 1102
f 877 878 1116 1115
f 1102 1116 1117 1103
f 878 879 1117 1116
f 1103 1117 1118 1104
f 879 880 1118 1117
f 1104 1118 1119 1105
f 880 881 1119 1118
f 1105 1119 1120 1106
f 881 882 1120 1119
f 1106 1120 1121 1107
f 882 883 1121 1120
usemtl c5
f 1 2 3 4
f 1 5 6 2
f 1 4 7 5
f 2 8 9 3
f 2 6 10 8
f 4 3 44 45
f 4 45 46 7
f 3 9 47 44
f 45 44 59 60
f 45 60 61 46
f 44 47 62 59
f 60 59 74 75
f 60 75 76 61
f 59 62 77 74
f 75 74 89 90
f 75 90 91 76
f 74 77 92 89
f 90 89 104 105
f 90 105 106 91
f 89 92 107 104
f 105 104 119 120
f 105 120 121 106
f 104 107 122 119
f 120 119 134 135
f 120 135 136 121
f 119 122 137 134
f 135 134 149 150
f 135 150 151 136
f 134 137 152 149
f 150 149 164 165
f 150 165 166 151
f 149 152 167 164
f 165 164 179 180
f 165 180 181 166
f 164 167 182 179
f 180 179 194 195
f 180 195 196 181
f 179 182 197 194
f 195 194 209 210
f 195 210 211 196
f 194 197 212 209
f 210 209 224 225
f 210 225 226 211
f 209 212 227 224
f 225 224 239 240
f 225 240 241 226
f 224 227 242 239
f 240 239 254 255
f 255 254 256 257
f 240 255 257 241
f 239 242 258 254
f 254 258 259 256
f 5 282 283 6
f 5 7 284 282
f 6 283 285 10
f 7 46 297 284
f 46 61 298 297
f 61 76 299 298
f 76 91 300 299
f 91 106 301 300
f 106 121 302 301
f 121 136 303 302
f 136 151 304 303
f 151 166 305 304
f 166 181 306 305
f 181 196 307 306
f 196 211 308 307
f 211 226 309 308
f 226 241 310 309
f 257 256 311 312
f 241 257 312 310
f 256 259 313 311
f 282 325 326 283
f 282 284 327 325
f 283 326 328 285
f 284 297 340 327
f 297 298 341 340
f 298 299 342 341
f 299 300 343 342
f 300 301 344 343
f 301 302 345 344
f 302 303 346 345
f 303 304 347 346
f 304 305 348 347
f 305 306 349 348
f 306 307 350 349
f 307 308 351 350
f 308 309 352 351
f 309 310 353 352
f 312 311 354 355
f 310 312 355 353
f 311 313 356 354
f 325 368 369 326
f 325 327 370 368
f 326 369 371 328
f 327 340 383 370
f 340 341 384 383
f 341 342 385 384
f 342 343 386 385
f 343 344 387 386
f 344 345 388 387
f 345 346 389 388
f 346 347 390 389
f 347 348 391 390
f 348 349 392 391
f 349 350 393 392
f 350 351 394 393
f 351 352 395 394
f 352 353 396 395
f 355 354 397 398
f 353 355 398 396
f 354 356 399 397
f 368 411 412 369
f 368 370 413 411
f 369 412 414 371
f 370 383 426 413
f 383 384 427 426
f 384 385 428 427
f 385 386 429 428
f 386 387 430 429
f 387 388 431 430
f 388 389 432 431
f 389 390 433 432
f 390 391 434 433
f 391 392 435 434
f 392 393 436 435
f 393 394 437 436
f 394 395 438 437
f 395 396 439 438
f 398 397 440 441
f 396 398 441 439
f 397 399 442 440
f 411 454 455 412
f 411 413 456 454
f 412 455 457 414
f 413 426 469 456
f 426 427 470 469
f 427 428 471 470
f 428 429 472 471
f 429 430 473 472
f 430 431 474 473
f 431 432 475 474
f 432 433 476 475
f 433 434 477 476
f 434 435 478 477
f 435 436 479 478
f 436 437 480 479
f 437 438 481 480
f 438 439 482 481
f 441 440 483 484
f 439 441 484 482
f 440 442 485 483
f 454 497 498 455
f 454 456 499 497
f 455 498 500 457
f 456 469 512 499
f 469 470 513 512
f 470 471 514 513
f 471 472 515 514
f 472 473 516 515
f 473 474 517 516
f 474 475 518 517
f 475 476 519 518
f 476 477 520 519
f 477 478 521 520
f 478 479 522 521
f 479 480 523 522
f 480 481 524 523
f 481 482 525 524
f 484 483 526 527
f 482 484 527 525
f 483 485 528 526
f 497 540 541 498
f 497 499 542 540
f 498 541 543 500
f 499 512 555 542
f 512 513 556 555
f 513 514 557 556
f 514 515 558 557
f 515 516 559 558
f 516 517 560 559
f 517 518 561 560
f 518 519 562 561
f 519 520 563 562
f 520 521 564 563
f 521 522 565 564
f 522 523 566 565
f 523 524 567 566
f 524 525 568 567
f 527 526 569 570
f 525 527 570 568
f 526 528 571 569
f 540 583 584 541
f 540 542 585 583
f 541 584 586 543
f 542 555 598 585
f 555 556 599 598
f 556 557 600 599
f 557 558 601 600
f 558 559 602 601
f 559 560 603 602
f 560 561 604 603
f 561 562 605 604
f 562 563 606 605
f 563 564 607 606
f 564 565 608 607
f 565 566 609 608
f 566 567 610 609
f 567 568 611 610
f 570 569 612 613
f 568 570 613 611
f 569 571 614 612
f 583 626 627 584
f 583 585 628 626
f 584 627 629 586
f 585 598 641 628
f 598 599 642 641
f 599 600 643 642
f 600 601 644 643
f 601 602 645 644
f 602 603 646 645
f 603 604 647 646
f 604 605 648 647
f 605 606 649 648
f 606 607 650 649
f 607 608 651 650
f 608 609 652 651
f 609 610 653 652
f 610 611 654 653
f 613 612 655 656
f 611 613 656 654
f 612 614 657 655
f 626 669 670 627
f 626 628 671 669
f 627 670 672 629
f 628 641 684 671
f 641 642 685 684
f 642 643 686 685
f 643 644 687 686
f 644 645 688 687
f 645 646 689 688
f 646 647 690 689
f 647 648 691 690
f 648 649 692 691
f 649 650 693 692
f 650 651 694 693
f 651 652 695 694
f 652 653 696 695
f 653 654 697 696
f 656 655 698 699
f 654 656 699 697
f 655 657 700 698
f 669 712 713 670
f 669 671 714 712
f 670 713 715 672
f 671 684 727 714
f 684 685 728 727
f 685 686 729 728
f 686 687 730 729
f 687 688 731 730
f 688 689 732 731
f 689 690 733 732
f 690 691 734 733
f 691 692 735 734
f 692 693 736 735
f 693 694 737 736
f 694 695 738 737
f 695 696 739 738
f 696 697 740 739
f 699 698 741 742
f 697 699 742 740
f 698 700 743 741
f 712 755 756 713
f 712 714 757 755
f 713 756 758 715
f 714 727 770 757
f 727 728 771 770
f 728 729 772 771
f 729 730 773 772
f 730 731 774 773
f 731 732 775 774
f 732 733 776 775
f 733 734 777 776
f 734 735 778 777
f 735 736 779 778
f 736 737 780 779
f 737 738 781 780
f 738 739 782 781
f 739 740 783 782
f 742 741 784 785
f 740 742 785 783
f 741 743 786 784
f 755 798 799 756
f 755 757 800 798
f 756 799 801 758
f 757 770 813 800
f 770 771 814 813
f 771 772 815 814
f 772 773 816 815
f 773 774 817 816
f 774 775 818 817
f 775 776 819 818
f 776 777 820 819
f 777 778 821 820
f 778 779 822 821
f 779 780 823 822
f 780 781 824 823
f 781 782 825 824
f 782 783 826 825
f 785 784 827 828
f 783 785 828 826
f 784 786 829 827
f 798 841 842 799
f 798 800 843 841
f 799 842 844 801
f 800 813 856 843
f 813 814 857 856
f 814 815 858 857
f 815 816 859 858
f 816 817 860 859
f 817 818 861 860
f 818 819 862 861
f 819 820 863 862
f 820 821 864 863
f 821 822 865 864
f 822 823 866 865
f 823 824 867 866
f 824 825 868 867
f 825 826 869 868
f 828 827 870 871
f 826 828 871 869
f 827 829 872 870
f 884 885 886 887
f 841 884 887 842
f 841 843 885 884
f 887 886 888 889
f 842 887 889 844
f 885 912 913 886
f 843 856 912 885
f 886 913 914 888
f 912 926 927 913
f 856 857 926 912
f 913 927 928 914
f 926 940 941 927
f 857 858 940 926
f 927 941 942 928
f 940 954 955 941
f 858 859 954 940
f 941 955 956 942
f 954 968 969 955
f 859 860 968 954
f 955 969 970 956
f 968 982 983 969
f 860 861 982 968
f 969 983 984 970
f 982 996 997 983
f 861 862 996 982
f 983 997 998 984
f 996 1010 1011 997
f 862 863 1010 996
f 997 1011 1012 998
f 1010 1024 1025 1011
f 863 864 1024 1010
f 1011 1025 1026 1012
f 1024 1038 1039 1025
f 864 865 1038 1024
f 1025 1039 1040 1026
f 1038 1052 1053 1039
f 865 866 1052 1038
f 1039 1053 1054 1040
f 1052 1066 1067 1053
f 866 867 1066 1052
f 1053 1067 1068 1054
f 1066 1080 1081 1067
f 867 868 1080 1066
f 1067 1081 1082 1068
f 1080 1094 1095 1081
f 868 869 1094 1080
f 1081 1095 1096 1082
f 1094 1108 1109 1095
f 871 870 1109 1108
f 869 871 1108 1094
f 1095 1109 1110 1096
f 870 872 1110 1109
f 1244 1265 1266 1245
f 1325 1346 1347 1326
f 1395 1416 1417 1396
usemtl c6
f 41 1122 1123 42
f 41 43 1124 1122
f 1122 1125 1126 1123
f 1122 1124 1127 1125
f 1125 1128 1129 1126
f 1125 1127 1130 1128
f 1128 1130 1131 1129
f 42 1123 1132 58
f 1123 1126 1133 1132
f 1126 1129 1134 1133
f 1129 1131 1135 1134
f 58 1132 1136 73
f 1132 1133 1137 1136
f 1133 1134 1138 1137
f 1134 1135 1139 1138
f 73 1136 1140 88
f 1136 1137 1141 1140
f 1137 1138 1142 1141
f 1138 1139 1143 1142
f 88 1140 1144 103
f 1140 1141 1145 1144
f 1141 1142 1146 1145
f 1142 1143 1147 1146
f 103 1144 1148 118
f 1144 1145 1149 1148
f 1145 1146 1150 1149
f 1146 1147 1151 1150
f 118 1148 1152 133
f 1148 1149 1153 1152
f 1149 1150 1154 1153
f 1150 1151 1155 1154
f 133 1152 1156 148
f 1152 1153 1157 1156
f 1153 1154 1158 1157
f 1154 1155 1159 1158
f 148 1156 1160 163
f 1156 1157 1161 1160
f 1157 1158 1162 1161
f 1158 1159 1163 1162
f 163 1160 1164 178
f 1160 1161 1165 1164
f 1161 1162 1166 1165
f 1162 1163 1167 1166
f 178 1164 1168 193
f 1164 1165 1169 1168
f 1165 1166 1170 1169
f 1166 1167 1171 1170
f 193 1168 1172 208
f 1168 1169 1173 1172
f 1169 1170 1174 1173
f 1170 1171 1175 1174
f 208 1172 1176 223
f 1172 1173 1177 1176
f 1173 1174 1178 1177
f 1174 1175 1179 1178
f 223 1176 1180 238
f 1176 1177 1181 1180
f 1177 1178 1182 1181
f 1178 1179 1183 1182
f 238 1180 1184 253
f 1180 1181 1185 1184
f 1181 1182 1186 1185
f 1182 1183 1187 1186
f 253 1184 1188 280
f 280 1188 1189 281
f 1184 1185 1190 1188
f 1188 1190 1191 1189
f 1185 1186 1192 1190
f 1190 1192 1193 1191
f 1186 1187 1193 1192
f 43 296 1194 1124
f 1124 1194 1195 1127
f 1127 1195 1196 1130
f 1130 1196 1197 1131
f 1131 1197 1198 1135
f 1135 1198 1199 1139
f 1139 1199 1200 1143
f 1143 1200 1201 1147
f 1147 1201 1202 1151
f 1151 1202 1203 1155
f 1155 1203 1204 1159
f 1159 1204 1205 1163
f 1163 1205 1206 1167
f 1167 1206 1207 1171
f 1171 1207 1208 1175
f 1175 1208 1209 1179
f 1179 1209 1210 1183
f 1183 1210 1211 1187
f 281 1189 1212 324
f 1189 1191 1213 1212
f 1191 1193 1214 1213
f 1187 1211 1214 1193
f 296 339 1215 1194
f 1194 1215 1216 1195
f 1195 1216 1217 1196
f 1196 1217 1218 1197
f 1197 1218 1219 1198
f 1198 1219 1220 1199
f 1199 1220 1221 1200
f 1200 1221 1222 1201
f 1201 1222 1223 1202
f 1202 1223 1224 1203
f 1203 1224 1225 1204
f 1204 1225 1226 1205
f 1205 1226 1227 1206
f 1206 1227 1228 1207
f 1207 1228 1229 1208
f 1208 1229 1230 1209
f 1209 1230 1231 1210
f 1210 1231 1232 1211
f 324 1212 1233 367
f 1212 1213 1234 1233
f 1213 1214 1235 1234
f 1211 1232 1235 1214
f 339 382 1236 1215
f 1215 1236 1237 1216
f 1216 1237 1238 1217
f 1217 1238 1239 1218
f 1218 1239 1240 1219
f 1219 1240 1241 1220
f 1220 1241 1242 1221
f 1221 1242 1243 1222
f 1222 1243 1244 1223
f 1223 1244 1245 1224
f 1224 1245 1246 1225
f 1225 1246 1247 1226
f 1226 1247 1248 1227
f 1227 1248 1249 1228
f 1228 1249 1250 1229
f 1229 1250 1251 1230
f 1230 1251 1252 1231
f 1231 1252 1253 1232
f 367 1233 1254 410
f 1233 1234 1255 1254
f 1234 1235 1256 1255
f 1232 1253 1256 1235
f 382 425 1257 1236
f 1236 1257 1258 1237
f 1237 1258 1259 1238
f 1238 1259 1260 1239
f 1239 1260 1261 1240
f 1240 1261 1262 1241
f 1241 1262 1263 1242
f 1242 1263 1264 1243
f 1243 1264 1265 1244
f 1245 1266 1267 1246
f 1246 1267 1268 1247
f 1247 1268 1269 1248
f 1248 1269 1270 1249
f 1249 1270 1271 1250
f 1250 1271 1272 1251
f 1251 1272 1273 1252
f 1252 1273 1274 1253
f 410 1254 1275 453
f 1254 1255 1276 1275
f 1255 1256 1277 1276
f 1253 1274 1277 1256
f 425 468 1278 1257
f 1257 1278 1279 1258
f 1258 1279 1280 1259
f 1259 1280 1281 1260
f 1260 1281 1282 1261
f 1261 1282 1283 1262
f 1262 1283 1284 1263
f 1263 1284 1285 1264
f 1264 1285 1286 1265
f 1265 1286 1287 1266
f 1266 1287 1288 1267
f 1267 1288 1289 1268
f 1268 1289 1290 1269
f 1269 1290 1291 1270
f 1270 1291 1292 1271
f 1271 1292 1293 1272
f 1272 1293 1294 1273
f 1273 1294 1295 1274
f 453 1275 1296 496
f 1275 1276 1297 1296
f 1276 1277 1298 1297
f 1274 1295 1298 1277
f 468 511 1299 1278
f 1278 1299 1300 1279
f 1279 1300 1301 1280
f 1280 1301 1302 1281
f 1281 1302 1303 1282
f 1282 1303 1304 1283
f 1283 1304 1305 1284
f 1284 1305 1306 1285
f 1285 1306 1307 1286
f 1286 1307 1308 1287
f 1287 1308 1309 1288
f 1288 1309 1310 1289
f 1289 1310 1311 1290
f 1290 1311 1312 1291
f 1291 1312 1313 1292
f 1292 1313 1314 1293
f 1293 1314 1315 1294
f 1294 1315 1316 1295
f 496 1296 1317 539
f 1296 1297 1318 1317
f 1297 1298 1319 1318
f 1295 1316 1319 1298
f 511 554 1320 1299
f 1299 1320 1321 1300
f 1300 1321 1322 1301
f 1301 1322 1323 1302
f 1302 1323 1324 1303
f 1303 1324 1325 1304
f 1304 1325 1326 1305
f 1305 1326 1327 1306
f 1306 1327 1328 1307
f 1307 1328 1329 1308
f 1308 1329 1330 1309
f 1309 1330 1331 1310
f 1310 1331 1332 1311
f 1311 1332 1333 1312
f 1312 1333 1334 1313
f 1313 1334 1335 1314
f 1314 1335 1336 1315
f 1315 1336 1337 1316
f 539 1317 1338 582
f 1317 1318 1339 1338
f 1318 1319 1340 1339
f 1316 1337 1340 1319
f 554 597 1341 1320
f 1320 1341 1342 1321
f 1321 1342 1343 1322
f 1322 1343 1344 1323
f 1323 1344 1345 1324
f 1324 1345 1346 1325
f 1326 1347 1348 1327
f 1327 1348 1349 1328
f 1328 1349 1350 1329
f 1329 1350 1351 1330
f 1330 1351 1352 1331
f 1331 1352 1353 1332
f 1332 1353 1354 1333
f 1333 1354 1355 1334
f 1334 1355 1356 1335
f 1335 1356 1357 1336
f 1336 1357 1358 1337
f 582 1338 1359 625
f 1338 1339 1360 1359
f 1339 1340 1361 1360
f 1337 1358 1361 1340
f 597 640 1362 1341
f 1341 1362 1363 1342
f 1342 1363 1364 1343
f 1343 1364 1365 1344
f 1344 1365 1366 1345
f 1345 1366 1367 1346
f 1346 1367 1368 1347
f 1347 1368 1369 1348
f 1348 1369 1370 1349
f 1349 1370 1371 1350
f 1350 1371 1372 1351
f 1351 1372 1373 1352
f 1352 1373 1374 1353
f 1353 1374 1375 1354
f 1354 1375 1376 1355
f 1355 1376 1377 1356
f 1356 1377 1378 1357
f 1357 1378 1379 1358
f 625 1359 1380 668
f 1359 1360 1381 1380
f 1360 1361 1382 1381
f 1358 1379 1382 1361
f 640 683 1383 1362
f 1362 1383 1384 1363
f 1363 1384 1385 1364
f 1364 1385 1386 1365
f 1365 1386 1387 1366
f 1366 1387 1388 1367
f 1367 1388 1389 1368
f 1368 1389 1390 1369
f 1369 1390 1391 1370
f 1370 1391 1392 1371
f 1371 1392 1393 1372
f 1372 1393 1394 1373
f 1373 1394 1395 1374
f 1374 1395 1396 1375
f 1375 1396 1397 1376
f 1376 1397 1398 1377
f 1377 1398 1399 1378
f 1378 1399 1400 1379
f 668 1380 1401 711
f 1380 1381 1402 1401
f 1381 1382 1403 1402
f 1379 1400 1403 1382
f 683 726 1404 1383
f 1383 1404 1405 1384
f 1384 1405 1406 1385
f 1385 1406 1407 1386
f 1386 1407 1408 1387
f 1387 1408 1409 1388
f 1388 1409 1410 1389
f 1389 1410 1411 1390
f 1390 1411 1412 1391
f 1391 1412 1413 1392
f 1392 1413 1414 1393
f 1393 1414 1415 1394
f 1394 1415 1416 1395
f 1396 1417 1418 1397
f 1397 1418 1419 1398
f 1398 1419 1420 1399
f 1399 1420 1421 1400
f 711 1401 1422 754
f 1401 1402 1423 1422
f 1402 1403 1424 1423
f 1400 1421 1424 1403
f 726 769 1425 1404
f 1404 1425 1426 1405
f 1405 1426 1427 1406
f 1406 1427 1428 1407
f 1407 1428 1429 1408
f 1408 1429 1430 1409
f 1409 1430 1431 1410
f 1410 1431 1432 1411
f 1411 1432 1433 1412
f 1412 1433 1434 1413
f 1413 1434 1435 1414
f 1414 1435 1436 1415
f 1415 1436 1437 1416
f 1416 1437 1438 1417
f 1417 1438 1439 1418
f 1418 1439 1440 1419
f 1419 1440 1441 1420
f 1420 1441 1442 1421
f 754 1422 1443 797
f 1422 1423 1444 1443
f 1423 1424 1445 1444
f 1421 1442 1445 1424
f 769 812 1446 1425
f 1425 1446 1447 1426
f 1426 1447 1448 1427
f 1427 1448 1449 1428
f 1428 1449 1450 1429
f 1429 1450 1451 1430
f 1430 1451 1452 1431
f 1431 1452 1453 1432
f 1432 1453 1454 1433
f 1433 1454 1455 1434
f 1434 1455 1456 1435
f 1435 1456 1457 1436
f 1436 1457 1458 1437
f 1437 1458 1459 1438
f 1438 1459 1460 1439
f 1439 1460 1461 1440
f 1440 1461 1462 1441
f 1441 1462 1463 1442
f 797 1443 1464 840
f 1443 1444 1465 1464
f 1444 1445 1466 1465
f 1442 1463 1466 1445
f 812 855 1467 1446
f 1446 1467 1468 1447
f 1447 1468 1469 1448
f 1448 1469 1470 1449
f 1449 1470 1471 1450
f 1450 1471 1472 1451
f 1451 1472 1473 1452
f 1452 1473 1474 1453
f 1453 1474 1475 1454
f 1454 1475 1476 1455
f 1455 1476 1477 1456
f 1456 1477 1478 1457
f 1457 1478 1479 1458
f 1458 1479 1480 1459
f 1459 1480 1481 1460
f 1460 1481 1482 1461
f 1461 1482 1483 1462
f 1462 1483 1484 1463
f 840 1464 1485 883
f 1464 1465 1486 1485
f 1465 1466 1487 1486
f 1463 1484 1487 1466
f 911 910 1488 1489
f 855 911 1489 1467
f 1489 1488 1490 1491
f 1467 1489 1491 1468
f 1491 1490 1492 1493
f 1468 1491 1493 1469
f 1469 1493 1492 1470
f 910 925 1494 1488
f 1488 1494 1495 1490
f 1490 1495 1496 1492
f 1470 1492 1496 1471
f 925 939 1497 1494
f 1494 1497 1498 1495
f 1495 1498 1499 1496
f 1471 1496 1499 1472
f 939 953 1500 1497
f 1497 1500 1501 1498
f 1498 1501 1502 1499
f 1472 1499 1502 1473
f 953 967 1503 1500
f 1500 1503 1504 1501
f 1501 1504 1505 1502
f 1473 1502 1505 1474
f 967 981 1506 1503
f 1503 1506 1507 1504
f 1504 1507 1508 1505
f 1474 1505 1508 1475
f 981 995 1509 1506
f 1506 1509 1510 1507
f 1507 1510 1511 1508
f 1475 1508 1511 1476
f 995 1009 1512 1509
f 1509 1512 1513 1510
f 1510 1513 1514 1511
f 1476 1511 1514 1477
f 1009 1023 1515 1512
f 1512 1515 1516 1513
f 1513 1516 1517 1514
f 1477 1514 1517 1478
f 1023 1037 1518 1515
f 1515 1518 1519 1516
f 1516 1519 1520 1517
f 1478 1517 1520 1479
f 1037 1051 1521 1518
f 1518 1521 1522 1519
f 1519 1522 1523 1520
f 1479 1520 1523 1480
f 1051 1065 1524 1521
f 1521 1524 1525 1522
f 1522 1525 1526 1523
f 1480 1523 1526 1481
f 1065 1079 1527 1524
f 1524 1527 1528 1525
f 1525 1528 1529 1526
f 1481 1526 1529 1482
f 1079 1093 1530 1527
f 1527 1530 1531 1528
f 1528 1531 1532 1529
f 1482 1529 1532 1483
f 1093 1107 1533 1530
f 1530 1533 1534 1531
f 1531 1534 1535 1532
f 1483 1532 1535 1484
f 1107 1121 1536 1533
f 883 1485 1536 1121
f 1533 1536 1537 1534
f 1485 1486 1537 1536
f 1534 1537 1538 1535
f 1486 1487 1538 1537
f 1484 1535 1538 1487
