# generado por tools/vox_to_obj.py desde tomate_v3.vox
mtllib tomate_v3.mtl
v -4.0000 0.0000 4.5000
v -4.0000 1.0000 4.5000
v -4.0000 1.0000 3.5000
v -4.0000 0.0000 3.5000
v -3.0000 0.0000 4.5000
v -3.0000 1.0000 4.5000
v -3.0000 1.0000 3.5000
v -3.0000 0.0000 3.5000
v -4.0000 1.0000 2.5000
v -4.0000 0.0000 2.5000
v -3.0000 1.0000 2.5000
v -3.0000 0.0000 2.5000
v -4.0000 1.0000 1.5000
v -4.0000 0.0000 1.5000
v -3.0000 1.0000 1.5000
v -3.0000 0.0000 1.5000
v -4.0000 1.0000 0.5000
v -4.0000 0.0000 0.5000
v -3.0000 1.0000 0.5000
v -3.0000 0.0000 0.5000
v -4.0000 1.0000 -0.5000
v -4.0000 0.0000 -0.5000
v -3.0000 1.0000 -0.5000
v -3.0000 0.0000 -0.5000
v -4.0000 1.0000 -1.5000
v -4.0000 0.0000 -1.5000
v -3.0000 1.0000 -1.5000
v -3.0000 0.0000 -1.5000
v -4.0000 1.0000 -2.5000
v -4.0000 0.0000 -2.5000
v -3.0000 1.0000 -2.5000
v -3.0000 0.0000 -2.5000
v -4.0000 1.0000 -3.5000
v -4.0000 0.0000 -3.5000
v -3.0000 1.0000 -3.5000
v -3.0000 0.0000 -3.5000
v -2.0000 0.0000 4.5000
v -2.0000 1.0000 4.5000
v -2.0000 1.0000 3.5000
v -2.0000 0.0000 3.5000
v -2.0000 1.0000 2.5000
v -2.0000 0.0000 2.5000
v -2.0000 1.0000 1.5000
v -2.0000 0.0000 1.5000
v -2.0000 1.0000 0.5000
v -2.0000 0.0000 0.5000
v -2.0000 1.0000 -0.5000
v -2.0000 0.0000 -0.5000
v -2.0000 1.0000 -1.5000
v -2.0000 0.0000 -1.5000
v -2.0000 1.0000 -2.5000
v -2.0000 0.0000 -2.5000
v -2.0000 1.0000 -3.5000
v -2.0000 0.0000 -3.5000
v -1.0000 0.0000 4.5000
v -1.0000 1.0000 4.5000
v -1.0000 1.0000 3.5000
v -1.0000 0.0000 3.5000
v -1.0000 1.0000 2.5000
v -1.0000 0.0000 2.5000
v -1.0000 1.0000 1.5000
v -1.0000 0.0000 1.5000
v -1.0000 1.0000 0.5000
v -1.0000 0.0000 0.5000
v -1.0000 1.0000 -0.5000
v -1.0000 0.0000 -0.5000
v -1.0000 1.0000 -1.5000
v -1.0000 0.0000 -1.5000
v -1.0000 1.0000 -2.5000
v -1.0000 0.0000 -2.5000
v -1.0000 1.0000 -3.5000
v -1.0000 0.0000 -3.5000
v 0.0000 0.0000 4.5000
v 0.0000 1.0000 4.5000
v 0.0000 1.0000 3.5000
v 0.0000 0.0000 3.5000
v 0.0000 1.0000 2.5000
v 0.0000 0.0000 2.5000
v 0.0000 1.0000 1.5000
v 0.0000 0.0000 1.5000
v 0.0000 0.0000 0.5000
v 0.0000 0.0000 -0.5000
v 0.0000 1.0000 -0.5000
v 0.0000 1.0000 -1.5000
v 0.0000 0.0000 -1.5000
v 0.0000 1.0000 -2.5000
v 0.0000 0.0000 -2.5000
v 0.0000 1.0000 -3.5000
v 0.0000 0.0000 -3.5000
v 1.0000 0.0000 4.5000
v 1.0000 1.0000 4.5000
v 1.0000 1.0000 3.5000
v 1.0000 0.0000 3.5000
v 1.0000 1.0000 2.5000
v 1.0000 0.0000 2.5000
v 1.0000 1.0000 1.5000
v 1.0000 0.0000 1.5000
v 1.0000 0.0000 0.5000
v 1.0000 0.0000 -0.5000
v 1.0000 1.0000 -0.5000
v 1.0000 1.0000 -1.5000
v 1.0000 0.0000 -1.5000
v 1.0000 1.0000 -2.5000
v 1.0000 0.0000 -2.5000
v 1.0000 1.0000 -3.5000
v 1.0000 0.0000 -3.5000
v 2.0000 0.0000 4.5000
v 2.0000 1.0000 4.5000
v 2.0000 1.0000 3.5000
v 2.0000 0.0000 3.5000
v 2.0000 1.0000 2.5000
v 2.0000 0.0000 2.5000
v 2.0000 1.0000 1.5000
v 2.0000 0.0000 1.5000
v 2.0000 1.0000 0.5000
v 1.0000 1.0000 0.5000
v 2.0000 0.0000 0.5000
v 2.0000 1.0000 -0.5000
v 2.0000 0.0000 -0.5000
v 2.0000 1.0000 -1.5000
v 2.0000 0.0000 -1.5000
v 2.0000 1.0000 -2.5000
v 2.0000 0.0000 -2.5000
v 2.0000 1.0000 -3.5000
v 2.0000 0.0000 -3.5000
v 3.0000 0.0000 4.5000
v 3.0000 1.0000 4.5000
v 3.0000 1.0000 3.5000
v 3.0000 0.0000 3.5000
v 3.0000 1.0000 2.5000
v 3.0000 0.0000 2.5000
v 3.0000 1.0000 1.5000
v 3.0000 0.0000 1.5000
v 3.0000 1.0000 0.5000
v 3.0000 0.0000 0.5000
v 3.0000 1.0000 -0.5000
v 3.0000 0.0000 -0.5000
v 3.0000 1.0000 -1.5000
v 3.0000 0.0000 -1.5000
v 3.0000 1.0000 -2.5000
v 3.0000 0.0000 -2.5000
v 3.0000 1.0000 -3.5000
v 3.0000 0.0000 -3.5000
v 4.0000 0.0000 4.5000
v 4.0000 0.0000 3.5000
v 4.0000 1.0000 3.5000
v 4.0000 1.0000 4.5000
v 4.0000 0.0000 2.5000
v 4.0000 1.0000 2.5000
v 4.0000 0.0000 1.5000
v 4.0000 1.0000 1.5000
v 4.0000 0.0000 0.5000
v 4.0000 1.0000 0.5000
v 4.0000 0.0000 -0.5000
v 4.0000 1.0000 -0.5000
v 4.0000 0.0000 -1.5000
v 4.0000 1.0000 -1.5000
v 4.0000 0.0000 -2.5000
v 4.0000 1.0000 -2.5000
v 4.0000 0.0000 -3.5000
v 4.0000 1.0000 -3.5000
v -1.0000 2.0000 1.5000
v -1.0000 2.0000 0.5000
v 0.0000 2.0000 1.5000
v -1.0000 3.0000 1.5000
v -1.0000 3.0000 0.5000
v 0.0000 3.0000 1.5000
v -1.0000 4.0000 1.5000
v -1.0000 4.0000 0.5000
v 0.0000 4.0000 1.5000
v -1.0000 5.0000 1.5000
v -1.0000 5.0000 0.5000
v 0.0000 5.0000 1.5000
v 0.0000 6.0000 1.5000
v -1.0000 6.0000 1.5000
v -1.0000 7.0000 1.5000
v 0.0000 7.0000 1.5000
v 0.0000 8.0000 1.5000
v -1.0000 8.0000 1.5000
v 0.0000 9.0000 1.5000
v -1.0000 9.0000 1.5000
v 0.0000 10.0000 1.5000
v -1.0000 10.0000 1.5000
v -1.0000 11.0000 1.5000
v -1.0000 11.0000 0.5000
v -1.0000 10.0000 0.5000
v 0.0000 11.0000 1.5000
v -1.0000 12.0000 1.5000
v -1.0000 12.0000 0.5000
v 0.0000 12.0000 1.5000
v -1.0000 13.0000 1.5000
v -1.0000 13.0000 0.5000
v 0.0000 13.0000 1.5000
v -1.0000 14.0000 1.5000
v -1.0000 14.0000 0.5000
v 0.0000 14.0000 1.5000
v -1.0000 15.0000 0.5000
v 0.0000 15.0000 0.5000
v 0.0000 14.0000 0.5000
v -1.0000 15.0000 1.5000
v -1.0000 16.0000 1.5000
v -1.0000 16.0000 0.5000
v 0.0000 16.0000 0.5000
v 0.0000 15.0000 1.5000
v 0.0000 16.0000 1.5000
v -1.0000 17.0000 1.5000
v -1.0000 17.0000 0.5000
v 0.0000 17.0000 0.5000
v 0.0000 17.0000 1.5000
v 0.0000 18.0000 1.5000
v -1.0000 18.0000 1.5000
v 0.0000 19.0000 1.5000
v -1.0000 19.0000 1.5000
v 0.0000 20.0000 1.5000
v -1.0000 20.0000 1.5000
v -1.0000 21.0000 1.5000
v -1.0000 21.0000 0.5000
v -1.0000 20.0000 0.5000
v 0.0000 21.0000 1.5000
v 0.0000 21.0000 0.5000
v -1.0000 2.0000 -0.5000
v 0.0000 2.0000 -0.5000
v -1.0000 3.0000 -0.5000
v 0.0000 3.0000 -0.5000
v -1.0000 4.0000 -0.5000
v 0.0000 4.0000 -0.5000
v -1.0000 5.0000 -0.5000
v 0.0000 5.0000 -0.5000
v -1.0000 6.0000 -0.5000
v 0.0000 6.0000 -0.5000
v 1.0000 2.0000 0.5000
v 1.0000 2.0000 1.5000
v 1.0000 3.0000 0.5000
v 1.0000 3.0000 1.5000
v 1.0000 4.0000 0.5000
v 1.0000 4.0000 1.5000
v 1.0000 5.0000 0.5000
v 1.0000 5.0000 1.5000
v 1.0000 6.0000 0.5000
v 1.0000 6.0000 1.5000
v 1.0000 2.0000 -0.5000
v 1.0000 3.0000 -0.5000
v 1.0000 4.0000 -0.5000
v 1.0000 5.0000 -0.5000
v 1.0000 6.0000 -0.5000
v -2.0000 5.0000 1.5000
v -2.0000 6.0000 1.5000
v -2.0000 5.0000 0.5000
v -2.0000 7.0000 1.5000
v -2.0000 8.0000 1.5000
v -2.0000 8.0000 0.5000
v -2.0000 7.0000 0.5000
v -2.0000 9.0000 1.5000
v -2.0000 9.0000 0.5000
v -2.0000 10.0000 1.5000
v -2.0000 10.0000 0.5000
v -2.0000 6.0000 0.5000
v -2.0000 6.0000 -0.5000
v -2.0000 5.0000 -0.5000
v -2.0000 7.0000 -0.5000
v -1.0000 7.0000 -0.5000
v -2.0000 8.0000 -0.5000
v -1.0000 8.0000 -0.5000
v -2.0000 9.0000 -0.5000
v -1.0000 9.0000 -0.5000
v -2.0000 10.0000 -0.5000
v -1.0000 10.0000 -0.5000
v 0.0000 7.0000 -0.5000
v 0.0000 8.0000 -0.5000
v 0.0000 9.0000 -0.5000
v 0.0000 10.0000 -0.5000
v 1.0000 7.0000 0.5000
v 1.0000 7.0000 1.5000
v 1.0000 8.0000 0.5000
v 1.0000 8.0000 1.5000
v 1.0000 9.0000 0.5000
v 1.0000 9.0000 1.5000
v 1.0000 10.0000 0.5000
v 1.0000 10.0000 1.5000
v 1.0000 7.0000 -0.5000
v 1.0000 8.0000 -0.5000
v 1.0000 9.0000 -0.5000
v 1.0000 10.0000 -0.5000
v -1.0000 11.0000 -0.5000
v -1.0000 12.0000 -0.5000
v 0.0000 12.0000 -0.5000
v 0.0000 11.0000 -0.5000
v -1.0000 13.0000 -0.5000
v 0.0000 13.0000 -0.5000
v -1.0000 14.0000 -0.5000
v 0.0000 14.0000 -0.5000
v 1.0000 11.0000 0.5000
v 1.0000 11.0000 1.5000
v 1.0000 12.0000 0.5000
v 1.0000 12.0000 1.5000
v 1.0000 13.0000 1.5000
v 1.0000 14.0000 1.5000
v 1.0000 11.0000 -0.5000
v 1.0000 12.0000 -0.5000
v 1.0000 13.0000 -0.5000
v 1.0000 13.0000 0.5000
v 1.0000 14.0000 -0.5000
v 1.0000 15.0000 1.5000
v 1.0000 16.0000 1.5000
v 1.0000 17.0000 1.5000
v 1.0000 18.0000 1.5000
v 0.0000 15.0000 -0.5000
v 1.0000 15.0000 -0.5000
v 0.0000 16.0000 -0.5000
v 1.0000 16.0000 -0.5000
v 0.0000 17.0000 -0.5000
v 1.0000 17.0000 -0.5000
v 2.0000 15.0000 1.5000
v 2.0000 15.0000 0.5000
v 2.0000 16.0000 0.5000
v 2.0000 16.0000 1.5000
v 2.0000 17.0000 0.5000
v 2.0000 17.0000 1.5000
v 2.0000 18.0000 0.5000
v 2.0000 18.0000 1.5000
v 1.0000 18.0000 0.5000
v 2.0000 13.0000 0.5000
v 2.0000 13.0000 -0.5000
v 2.0000 14.0000 -0.5000
v 2.0000 14.0000 0.5000
v 2.0000 15.0000 -0.5000
v 2.0000 16.0000 -0.5000
v -1.0000 18.0000 0.5000
v -1.0000 18.0000 -0.5000
v -1.0000 17.0000 -0.5000
v -1.0000 19.0000 0.5000
v -1.0000 19.0000 -0.5000
v 0.0000 19.0000 -0.5000
v 0.0000 18.0000 -0.5000
v -1.0000 20.0000 -0.5000
v 0.0000 20.0000 -0.5000
v -1.0000 21.0000 -0.5000
v 0.0000 21.0000 -0.5000
v 1.0000 19.0000 0.5000
v 1.0000 19.0000 1.5000
v 1.0000 20.0000 0.5000
v 1.0000 20.0000 1.5000
v 1.0000 21.0000 0.5000
v 1.0000 21.0000 1.5000
v 1.0000 19.0000 -0.5000
v 1.0000 18.0000 -0.5000
v 1.0000 20.0000 -0.5000
v 1.0000 21.0000 -0.5000
v -4.0000 6.0000 3.5000
v -3.0000 6.0000 3.5000
v -3.0000 7.0000 3.5000
v -4.0000 7.0000 3.5000
v -3.0000 7.0000 2.5000
v -4.0000 7.0000 2.5000
v -3.0000 7.0000 1.5000
v -4.0000 7.0000 1.5000
v -4.0000 6.0000 0.5000
v -4.0000 7.0000 0.5000
v -3.0000 7.0000 0.5000
v -3.0000 6.0000 0.5000
v -2.0000 6.0000 3.5000
v -2.0000 7.0000 3.5000
v -2.0000 7.0000 2.5000
v -1.0000 6.0000 3.5000
v -1.0000 7.0000 3.5000
v -1.0000 7.0000 2.5000
v -2.0000 6.0000 2.5000
v -1.0000 6.0000 2.5000
v 0.0000 6.0000 3.5000
v 0.0000 7.0000 3.5000
v 0.0000 7.0000 2.5000
v 0.0000 6.0000 2.5000
v 1.0000 6.0000 3.5000
v 1.0000 6.0000 2.5000
v 1.0000 7.0000 2.5000
v 1.0000 7.0000 3.5000
v -1.0000 11.0000 -1.5000
v -1.0000 10.0000 -1.5000
v 0.0000 11.0000 -1.5000
v 0.0000 10.0000 -1.5000
v -1.0000 10.0000 -2.5000
v -1.0000 11.0000 -2.5000
v 0.0000 11.0000 -2.5000
v 0.0000 10.0000 -2.5000
v 1.0000 11.0000 -1.5000
v 1.0000 10.0000 -1.5000
v 1.0000 11.0000 -2.5000
v 1.0000 10.0000 -2.5000
v 2.0000 10.0000 0.5000
v 2.0000 11.0000 0.5000
v 2.0000 11.0000 -0.5000
v 2.0000 11.0000 -1.5000
v 2.0000 11.0000 -2.5000
v 2.0000 10.0000 -2.5000
v 3.0000 10.0000 0.5000
v 3.0000 11.0000 0.5000
v 3.0000 11.0000 -0.5000
v 3.0000 11.0000 -1.5000
v 3.0000 11.0000 -2.5000
v 3.0000 10.0000 -2.5000
v 4.0000 10.0000 0.5000
v 4.0000 10.0000 -0.5000
v 4.0000 11.0000 -0.5000
v 4.0000 11.0000 0.5000
v 4.0000 10.0000 -1.5000
v 4.0000 11.0000 -1.5000
v 4.0000 10.0000 -2.5000
v 4.0000 11.0000 -2.5000
v -4.0000 14.0000 3.5000
v -4.0000 15.0000 3.5000
v -4.0000 15.0000 2.5000
v -4.0000 14.0000 2.5000
v -3.0000 14.0000 3.5000
v -3.0000 15.0000 3.5000
v -3.0000 14.0000 2.5000
v -4.0000 15.0000 1.5000
v -4.0000 14.0000 1.5000
v -3.0000 14.0000 1.5000
v -4.0000 15.0000 0.5000
v -4.0000 14.0000 0.5000
v -3.0000 15.0000 0.5000
v -3.0000 14.0000 0.5000
v -2.0000 14.0000 3.5000
v -2.0000 15.0000 3.5000
v -2.0000 14.0000 2.5000
v -2.0000 14.0000 1.5000
v -2.0000 15.0000 0.5000
v -2.0000 14.0000 0.5000
v -1.0000 14.0000 3.5000
v -1.0000 15.0000 3.5000
v -1.0000 15.0000 2.5000
v -2.0000 15.0000 2.5000
v -1.0000 14.0000 2.5000
v -2.0000 15.0000 1.5000
v 0.0000 14.0000 3.5000
v 0.0000 15.0000 3.5000
v 0.0000 15.0000 2.5000
v 0.0000 14.0000 2.5000
v 1.0000 14.0000 3.5000
v 1.0000 15.0000 3.5000
v 1.0000 15.0000 2.5000
v 1.0000 14.0000 2.5000
v -1.0000 18.0000 -1.5000
v -1.0000 17.0000 -1.5000
v 0.0000 18.0000 -1.5000
v 0.0000 17.0000 -1.5000
v -1.0000 18.0000 -2.5000
v -1.0000 17.0000 -2.5000
v 0.0000 18.0000 -2.5000
v 0.0000 17.0000 -2.5000
v 1.0000 18.0000 -1.5000
v 1.0000 17.0000 -1.5000
v 1.0000 18.0000 -2.5000
v 1.0000 17.0000 -2.5000
v 2.0000 18.0000 -2.5000
v 2.0000 17.0000 -2.5000
v 3.0000 17.0000 0.5000
v 3.0000 18.0000 0.5000
v 3.0000 18.0000 -2.5000
v 3.0000 17.0000 -2.5000
v 4.0000 17.0000 0.5000
v 4.0000 17.0000 -0.5000
v 4.0000 18.0000 -0.5000
v 4.0000 18.0000 0.5000
v 4.0000 17.0000 -1.5000
v 4.0000 18.0000 -1.5000
v 4.0000 17.0000 -2.5000
v 4.0000 18.0000 -2.5000
v -5.0000 4.0000 3.5000
v -5.0000 5.0000 3.5000
v -5.0000 5.0000 2.5000
v -5.0000 4.0000 2.5000
v -4.0000 4.0000 3.5000
v -4.0000 5.0000 3.5000
v -4.0000 4.0000 2.5000
v -5.0000 6.0000 3.5000
v -5.0000 6.0000 2.5000
v -5.0000 7.0000 3.5000
v -5.0000 7.0000 2.5000
v -5.0000 5.0000 1.5000
v -5.0000 4.0000 1.5000
v -4.0000 4.0000 1.5000
v -5.0000 6.0000 1.5000
v -5.0000 7.0000 1.5000
v -5.0000 5.0000 0.5000
v -5.0000 4.0000 0.5000
v -4.0000 5.0000 0.5000
v -4.0000 4.0000 0.5000
v -5.0000 6.0000 0.5000
v -5.0000 7.0000 0.5000
v -3.0000 4.0000 3.5000
v -3.0000 5.0000 3.5000
v -3.0000 4.0000 2.5000
v -3.0000 4.0000 1.5000
v -3.0000 5.0000 0.5000
v -3.0000 4.0000 0.5000
v -2.0000 4.0000 3.5000
v -2.0000 4.0000 2.5000
v -2.0000 5.0000 2.5000
v -2.0000 5.0000 3.5000
v -2.0000 4.0000 1.5000
v -2.0000 4.0000 0.5000
v 2.0000 7.0000 0.5000
v 2.0000 8.0000 0.5000
v 2.0000 7.0000 -0.5000
v 2.0000 9.0000 0.5000
v 1.0000 8.0000 -1.5000
v 1.0000 7.0000 -1.5000
v 2.0000 7.0000 -1.5000
v 1.0000 9.0000 -1.5000
v 1.0000 8.0000 -2.5000
v 1.0000 7.0000 -2.5000
v 2.0000 8.0000 -2.5000
v 2.0000 7.0000 -2.5000
v 1.0000 9.0000 -2.5000
v 2.0000 9.0000 -2.5000
v 3.0000 7.0000 0.5000
v 3.0000 8.0000 0.5000
v 3.0000 7.0000 -0.5000
v 3.0000 9.0000 0.5000
v 3.0000 7.0000 -1.5000
v 3.0000 8.0000 -2.5000
v 3.0000 7.0000 -2.5000
v 3.0000 9.0000 -2.5000
v 4.0000 7.0000 0.5000
v 4.0000 7.0000 -0.5000
v 4.0000 8.0000 -0.5000
v 4.0000 8.0000 0.5000
v 4.0000 9.0000 -0.5000
v 4.0000 9.0000 0.5000
v 4.0000 7.0000 -1.5000
v 4.0000 8.0000 -1.5000
v 4.0000 9.0000 -1.5000
v 4.0000 7.0000 -2.5000
v 4.0000 8.0000 -2.5000
v 4.0000 9.0000 -2.5000
v -5.0000 10.0000 0.5000
v -5.0000 11.0000 0.5000
v -5.0000 11.0000 -0.5000
v -5.0000 10.0000 -0.5000
v -4.0000 10.0000 0.5000
v -4.0000 11.0000 0.5000
v -4.0000 10.0000 -0.5000
v -5.0000 12.0000 0.5000
v -5.0000 12.0000 -0.5000
v -4.0000 12.0000 0.5000
v -5.0000 13.0000 0.5000
v -5.0000 13.0000 -0.5000
v -4.0000 13.0000 0.5000
v -4.0000 13.0000 -0.5000
v -5.0000 11.0000 -1.5000
v -5.0000 10.0000 -1.5000
v -4.0000 10.0000 -1.5000
v -5.0000 12.0000 -1.5000
v -5.0000 13.0000 -1.5000
v -4.0000 13.0000 -1.5000
v -5.0000 11.0000 -2.5000
v -5.0000 10.0000 -2.5000
v -4.0000 11.0000 -2.5000
v -4.0000 10.0000 -2.5000
v -5.0000 12.0000 -2.5000
v -4.0000 12.0000 -2.5000
v -5.0000 13.0000 -2.5000
v -4.0000 13.0000 -2.5000
v -3.0000 10.0000 0.5000
v -3.0000 11.0000 0.5000
v -3.0000 10.0000 -0.5000
v -3.0000 12.0000 0.5000
v -3.0000 13.0000 0.5000
v -3.0000 13.0000 -0.5000
v -3.0000 10.0000 -1.5000
v -3.0000 13.0000 -1.5000
v -3.0000 12.0000 -2.5000
v -3.0000 11.0000 -2.5000
v -3.0000 13.0000 -2.5000
v -2.0000 11.0000 -0.5000
v -2.0000 11.0000 0.5000
v -2.0000 12.0000 -0.5000
v -2.0000 12.0000 0.5000
v -2.0000 13.0000 -0.5000
v -2.0000 13.0000 0.5000
v -2.0000 10.0000 -1.5000
v -2.0000 11.0000 -1.5000
v -2.0000 12.0000 -1.5000
v -2.0000 13.0000 -1.5000
v -2.0000 11.0000 -2.5000
v -2.0000 12.0000 -2.5000
v -2.0000 13.0000 -2.5000
v 1.0000 12.0000 3.5000
v 1.0000 13.0000 3.5000
v 1.0000 13.0000 2.5000
v 1.0000 12.0000 2.5000
v 2.0000 12.0000 3.5000
v 2.0000 13.0000 3.5000
v 2.0000 12.0000 2.5000
v 2.0000 14.0000 3.5000
v 2.0000 15.0000 3.5000
v 2.0000 15.0000 2.5000
v 2.0000 12.0000 1.5000
v 2.0000 12.0000 0.5000
v 3.0000 12.0000 3.5000
v 3.0000 13.0000 3.5000
v 3.0000 12.0000 2.5000
v 3.0000 14.0000 3.5000
v 3.0000 15.0000 3.5000
v 3.0000 15.0000 2.5000
v 3.0000 12.0000 1.5000
v 3.0000 15.0000 1.5000
v 3.0000 13.0000 0.5000
v 3.0000 12.0000 0.5000
v 3.0000 14.0000 0.5000
v 3.0000 15.0000 0.5000
v 4.0000 12.0000 3.5000
v 4.0000 12.0000 2.5000
v 4.0000 13.0000 2.5000
v 4.0000 13.0000 3.5000
v 4.0000 14.0000 2.5000
v 4.0000 14.0000 3.5000
v 4.0000 15.0000 2.5000
v 4.0000 15.0000 3.5000
v 4.0000 12.0000 1.5000
v 4.0000 13.0000 1.5000
v 4.0000 14.0000 1.5000
v 4.0000 15.0000 1.5000
v 4.0000 12.0000 0.5000
v 4.0000 13.0000 0.5000
v 4.0000 14.0000 0.5000
v 4.0000 15.0000 0.5000
v -5.0000 15.0000 3.5000
v -5.0000 16.0000 3.5000
v -5.0000 16.0000 2.5000
v -5.0000 15.0000 2.5000
v -4.0000 16.0000 3.5000
v -5.0000 17.0000 3.5000
v -5.0000 17.0000 2.5000
v -4.0000 17.0000 3.5000
v -5.0000 18.0000 3.5000
v -5.0000 18.0000 2.5000
v -4.0000 18.0000 3.5000
v -4.0000 18.0000 2.5000
v -5.0000 16.0000 1.5000
v -5.0000 15.0000 1.5000
v -5.0000 17.0000 1.5000
v -5.0000 18.0000 1.5000
v -4.0000 18.0000 1.5000
v -5.0000 16.0000 0.5000
v -5.0000 15.0000 0.5000
v -4.0000 16.0000 0.5000
v -5.0000 17.0000 0.5000
v -4.0000 17.0000 0.5000
v -5.0000 18.0000 0.5000
v -4.0000 18.0000 0.5000
v -3.0000 16.0000 3.5000
v -3.0000 17.0000 3.5000
v -3.0000 18.0000 3.5000
v -3.0000 16.0000 0.5000
v -3.0000 17.0000 0.5000
v -3.0000 18.0000 0.5000
v -2.0000 16.0000 2.5000
v -2.0000 16.0000 3.5000
v -2.0000 17.0000 2.5000
v -2.0000 17.0000 3.5000
v -2.0000 18.0000 3.5000
v -2.0000 16.0000 1.5000
v -2.0000 17.0000 1.5000
v -2.0000 16.0000 0.5000
v -2.0000 17.0000 0.5000
v -2.0000 18.0000 0.5000
v 2.0000 19.0000 0.5000
v 2.0000 19.0000 -0.5000
v 1.0000 16.0000 -1.5000
v 2.0000 16.0000 -1.5000
v 1.0000 19.0000 -1.5000
v 2.0000 19.0000 -1.5000
v 1.0000 16.0000 -2.5000
v 2.0000 16.0000 -2.5000
v 1.0000 19.0000 -2.5000
v 2.0000 19.0000 -2.5000
v 3.0000 16.0000 0.5000
v 3.0000 16.0000 -0.5000
v 3.0000 19.0000 0.5000
v 3.0000 19.0000 -0.5000
v 3.0000 19.0000 -1.5000
v 3.0000 16.0000 -2.5000
v 3.0000 19.0000 -2.5000
v 4.0000 16.0000 0.5000
v 4.0000 16.0000 -0.5000
v 4.0000 19.0000 -0.5000
v 4.0000 19.0000 0.5000
v 4.0000 16.0000 -1.5000
v 4.0000 19.0000 -1.5000
v 4.0000 16.0000 -2.5000
v 4.0000 19.0000 -2.5000
v -4.0000 8.0000 -1.5000
v -4.0000 9.0000 -1.5000
v -4.0000 9.0000 -2.5000
v -4.0000 8.0000 -2.5000
v -3.0000 8.0000 -1.5000
v -3.0000 9.0000 -1.5000
v -3.0000 8.0000 -2.5000
v -4.0000 9.0000 -3.5000
v -4.0000 8.0000 -3.5000
v -3.0000 8.0000 -3.5000
v -4.0000 10.0000 -3.5000
v -4.0000 11.0000 -3.5000
v -3.0000 11.0000 -3.5000
v -4.0000 9.0000 -4.5000
v -4.0000 8.0000 -4.5000
v -3.0000 9.0000 -4.5000
v -3.0000 8.0000 -4.5000
v -4.0000 10.0000 -4.5000
v -3.0000 10.0000 -4.5000
v -4.0000 11.0000 -4.5000
v -3.0000 11.0000 -4.5000
v -2.0000 8.0000 -1.5000
v -2.0000 9.0000 -1.5000
v -2.0000 8.0000 -2.5000
v -2.0000 8.0000 -3.5000
v -2.0000 11.0000 -3.5000
v -2.0000 9.0000 -4.5000
v -2.0000 8.0000 -4.5000
v -2.0000 10.0000 -4.5000
v -2.0000 11.0000 -4.5000
v -1.0000 8.0000 -1.5000
v -1.0000 8.0000 -2.5000
v -1.0000 9.0000 -2.5000
v -1.0000 9.0000 -1.5000
v -1.0000 8.0000 -3.5000
v -1.0000 9.0000 -3.5000
v -1.0000 10.0000 -3.5000
v -1.0000 11.0000 -3.5000
v -1.0000 8.0000 -4.5000
v -1.0000 9.0000 -4.5000
v -1.0000 10.0000 -4.5000
v -1.0000 11.0000 -4.5000
v -4.0000 19.0000 3.5000
v -4.0000 19.0000 2.5000
v -3.0000 19.0000 3.5000
v -4.0000 20.0000 3.5000
v -4.0000 20.0000 2.5000
v -3.0000 20.0000 3.5000
v -3.0000 20.0000 2.5000
v -4.0000 19.0000 1.5000
v -4.0000 20.0000 1.5000
v -3.0000 20.0000 1.5000
v -4.0000 19.0000 0.5000
v -3.0000 19.0000 0.5000
v -4.0000 20.0000 0.5000
v -3.0000 20.0000 0.5000
v -2.0000 19.0000 3.5000
v -2.0000 20.0000 3.5000
v -2.0000 20.0000 2.5000
v -2.0000 20.0000 1.5000
v -2.0000 19.0000 0.5000
v -2.0000 20.0000 0.5000
v -1.0000 17.0000 3.5000
v -1.0000 17.0000 2.5000
v -1.0000 18.0000 2.5000
v -1.0000 18.0000 3.5000
v -1.0000 19.0000 2.5000
v -1.0000 19.0000 3.5000
v -1.0000 20.0000 2.5000
v -1.0000 20.0000 3.5000
v 2.0000 14.0000 -1.5000
v 2.0000 13.0000 -1.5000
v 3.0000 13.0000 -0.5000
v 3.0000 14.0000 -0.5000
v 3.0000 13.0000 -1.5000
v 2.0000 15.0000 -1.5000
v 3.0000 15.0000 -0.5000
v 2.0000 14.0000 -2.5000
v 2.0000 13.0000 -2.5000
v 3.0000 13.0000 -2.5000
v 2.0000 15.0000 -2.5000
v 2.0000 14.0000 -3.5000
v 2.0000 13.0000 -3.5000
v 3.0000 14.0000 -3.5000
v 3.0000 13.0000 -3.5000
v 2.0000 15.0000 -3.5000
v 3.0000 15.0000 -3.5000
v 2.0000 16.0000 -3.5000
v 3.0000 16.0000 -3.5000
v 4.0000 13.0000 -0.5000
v 4.0000 14.0000 -0.5000
v 4.0000 13.0000 -1.5000
v 4.0000 15.0000 -0.5000
v 4.0000 13.0000 -2.5000
v 4.0000 14.0000 -3.5000
v 4.0000 13.0000 -3.5000
v 4.0000 15.0000 -3.5000
v 4.0000 16.0000 -3.5000
v 5.0000 13.0000 -0.5000
v 5.0000 13.0000 -1.5000
v 5.0000 14.0000 -1.5000
v 5.0000 14.0000 -0.5000
v 5.0000 15.0000 -1.5000
v 5.0000 15.0000 -0.5000
v 5.0000 16.0000 -1.5000
v 5.0000 16.0000 -0.5000
v 5.0000 13.0000 -2.5000
v 5.0000 14.0000 -2.5000
v 5.0000 15.0000 -2.5000
v 5.0000 16.0000 -2.5000
v 5.0000 13.0000 -3.5000
v 5.0000 14.0000 -3.5000
v 5.0000 15.0000 -3.5000
v 5.0000 16.0000 -3.5000
v -5.0000 20.0000 -1.5000
v -5.0000 21.0000 -1.5000
v -5.0000 21.0000 -2.5000
v -5.0000 20.0000 -2.5000
v -4.0000 20.0000 -1.5000
v -4.0000 21.0000 -1.5000
v -4.0000 20.0000 -2.5000
v -5.0000 22.0000 -1.5000
v -5.0000 22.0000 -2.5000
v -4.0000 22.0000 -1.5000
v -5.0000 23.0000 -1.5000
v -5.0000 23.0000 -2.5000
v -4.0000 23.0000 -1.5000
v -4.0000 23.0000 -2.5000
v -5.0000 21.0000 -3.5000
v -5.0000 20.0000 -3.5000
v -4.0000 20.0000 -3.5000
v -5.0000 22.0000 -3.5000
v -5.0000 23.0000 -3.5000
v -4.0000 23.0000 -3.5000
v -5.0000 21.0000 -4.5000
v -5.0000 20.0000 -4.5000
v -4.0000 21.0000 -4.5000
v -4.0000 20.0000 -4.5000
v -5.0000 22.0000 -4.5000
v -4.0000 22.0000 -4.5000
v -5.0000 23.0000 -4.5000
v -4.0000 23.0000 -4.5000
v -3.0000 20.0000 -1.5000
v -3.0000 21.0000 -1.5000
v -3.0000 20.0000 -2.5000
v -3.0000 22.0000 -1.5000
v -3.0000 23.0000 -1.5000
v -3.0000 23.0000 -2.5000
v -3.0000 20.0000 -3.5000
v -3.0000 23.0000 -3.5000
v -3.0000 21.0000 -4.5000
v -3.0000 20.0000 -4.5000
v -3.0000 22.0000 -4.5000
v -3.0000 23.0000 -4.5000
v -2.0000 20.0000 -1.5000
v -2.0000 20.0000 -2.5000
v -2.0000 21.0000 -2.5000
v -2.0000 21.0000 -1.5000
v -2.0000 22.0000 -2.5000
v -2.0000 22.0000 -1.5000
v -2.0000 23.0000 -2.5000
v -2.0000 23.0000 -1.5000
v -2.0000 20.0000 -3.5000
v -2.0000 21.0000 -3.5000
v -2.0000 22.0000 -3.5000
v -2.0000 23.0000 -3.5000
v -2.0000 20.0000 -4.5000
v -2.0000 21.0000 -4.5000
v -2.0000 22.0000 -4.5000
v -2.0000 23.0000 -4.5000
usemtl c1
f 200 201 202 197
f 197 202 203 198
f 200 204 205 201
f 201 206 207 202
f 202 207 208 203
f 201 205 209 206
usemtl c2
f 61 162 163 63
f 61 79 164 162
f 162 165 166 163
f 162 164 167 165
f 165 168 169 166
f 165 167 170 168
f 168 171 172 169
f 168 170 173 171
f 171 173 174 175
f 176 177 178 179
f 179 178 180 181
f 181 180 182 183
f 183 184 185 186
f 183 182 187 184
f 184 188 189 185
f 184 187 190 188
f 188 191 192 189
f 188 190 193 191
f 191 194 195 192
f 191 193 196 194
f 206 209 210 211
f 211 210 212 213
f 213 212 214 215
f 215 216 217 218
f 215 214 219 216
f 216 219 220 217
f 63 163 221 65
f 65 221 222 83
f 163 166 223 221
f 221 223 224 222
f 166 169 225 223
f 223 225 226 224
f 169 172 227 225
f 225 227 228 226
f 227 229 230 228
f 96 116 231 232
f 79 96 232 164
f 232 231 233 234
f 164 232 234 167
f 234 233 235 236
f 167 234 236 170
f 236 235 237 238
f 170 236 238 173
f 238 237 239 240
f 173 238 240 174
f 116 100 241 231
f 83 222 241 100
f 231 241 242 233
f 222 224 242 241
f 233 242 243 235
f 224 226 243 242
f 235 243 244 237
f 226 228 244 243
f 237 244 245 239
f 228 230 245 244
f 246 171 175 247
f 246 248 172 171
f 249 250 251 252
f 249 176 179 250
f 250 253 254 251
f 250 179 181 253
f 253 255 256 254
f 253 181 183 255
f 255 183 186 256
f 248 257 258 259
f 259 258 229 227
f 248 259 227 172
f 257 252 260 258
f 258 260 261 229
f 252 251 262 260
f 260 262 263 261
f 251 254 264 262
f 262 264 265 263
f 254 256 266 264
f 264 266 267 265
f 256 186 267 266
f 229 261 268 230
f 261 263 269 268
f 263 265 270 269
f 265 267 271 270
f 273 272 274 275
f 177 273 275 178
f 275 274 276 277
f 178 275 277 180
f 277 276 278 279
f 180 277 279 182
f 239 245 280 272
f 230 268 280 245
f 268 269 281 280
f 269 270 282 281
f 270 271 283 282
f 185 189 285 284
f 284 285 286 287
f 189 192 288 285
f 285 288 289 286
f 192 195 290 288
f 288 290 291 289
f 195 199 291 290
f 279 278 292 293
f 182 279 293 187
f 293 292 294 295
f 187 293 295 190
f 190 295 296 193
f 193 296 297 196
f 292 298 299 294
f 287 286 299 298
f 294 299 300 301
f 286 289 300 299
f 289 291 302 300
f 204 303 304 205
f 205 304 305 209
f 209 305 306 210
f 199 198 307 291
f 291 307 308 302
f 198 203 309 307
f 307 309 310 308
f 203 208 311 309
f 309 311 312 310
f 313 314 315 316
f 303 313 316 304
f 316 315 317 318
f 304 316 318 305
f 318 317 319 320
f 305 318 320 306
f 306 320 319 321
f 322 323 324 325
f 300 302 324 323
f 301 300 323 322
f 325 324 326 314
f 302 308 326 324
f 314 326 327 315
f 308 310 327 326
f 328 331 332 329
f 329 332 333 334
f 331 218 335 332
f 332 335 336 333
f 218 217 337 335
f 335 337 338 336
f 217 220 338 337
f 306 321 339 340
f 210 306 340 212
f 340 339 341 342
f 212 340 342 214
f 342 341 343 344
f 214 342 344 219
f 219 344 343 220
f 334 333 345 346
f 339 345 347 341
f 333 336 347 345
f 341 347 348 343
f 336 338 348 347
f 220 343 348 338
usemtl c3
f 349 350 351 352
f 352 351 353 354
f 354 353 355 356
f 357 358 359 360
f 356 355 359 358
f 350 361 362 351
f 351 362 363 353
f 353 363 249 355
f 360 359 252 257
f 355 249 252 359
f 454 453 455 456
f 317 457 458 319
f 456 455 459 460
f 461 462 463 464
f 457 461 464 458
f 462 465 466 463
f 465 467 468 466
f 460 459 468 467
f 469 470 471 472
f 469 473 474 470
f 469 472 475 473
f 470 476 477 471
f 470 474 349 476
f 476 478 479 477
f 476 349 352 478
f 478 352 354 479
f 472 471 480 481
f 472 481 482 475
f 471 477 483 480
f 477 479 484 483
f 479 354 356 484
f 481 480 485 486
f 486 485 487 488
f 481 486 488 482
f 480 483 489 485
f 485 489 357 487
f 483 484 490 489
f 489 490 358 357
f 484 356 358 490
f 473 491 492 474
f 473 475 493 491
f 474 492 350 349
f 475 482 494 493
f 488 487 495 496
f 482 488 496 494
f 487 357 360 495
f 497 498 499 500
f 491 497 500 492
f 491 493 498 497
f 500 499 367 361
f 492 500 361 350
f 498 501 246 499
f 493 494 501 498
f 499 246 247 367
f 501 502 248 246
f 496 495 248 502
f 494 496 502 501
f 495 360 257 248
f 272 503 504 274
f 272 280 505 503
f 274 504 506 276
f 276 506 389 278
f 280 281 507 508
f 280 508 509 505
f 281 282 510 507
f 282 283 386 510
f 508 507 511 512
f 512 511 513 514
f 508 512 514 509
f 507 510 515 511
f 511 515 516 513
f 510 386 388 515
f 515 388 394 516
f 503 517 518 504
f 503 505 519 517
f 504 518 520 506
f 506 520 395 389
f 505 509 521 519
f 514 513 522 523
f 509 514 523 521
f 513 516 524 522
f 516 394 400 524
f 525 526 527 528
f 517 525 528 518
f 517 519 526 525
f 528 527 529 530
f 518 528 530 520
f 530 529 402 401
f 520 530 401 395
f 526 531 532 527
f 519 521 531 526
f 527 532 533 529
f 529 533 405 402
f 531 534 535 532
f 523 522 535 534
f 521 523 534 531
f 532 535 536 533
f 522 524 536 535
f 533 536 407 405
f 524 400 407 536
f 537 538 539 540
f 537 541 542 538
f 537 540 543 541
f 538 544 545 539
f 538 542 546 544
f 544 547 548 545
f 544 546 549 547
f 547 549 550 548
f 540 539 551 552
f 540 552 553 543
f 539 545 554 551
f 545 548 555 554
f 548 550 556 555
f 552 551 557 558
f 558 557 559 560
f 552 558 560 553
f 551 554 561 557
f 557 561 562 559
f 554 555 563 561
f 561 563 564 562
f 555 556 564 563
f 541 565 566 542
f 541 543 567 565
f 542 566 568 546
f 546 568 569 549
f 549 569 570 550
f 543 553 571 567
f 550 570 572 556
f 559 562 573 574
f 562 564 575 573
f 556 572 575 564
f 256 266 576 577
f 565 256 577 566
f 565 567 266 256
f 577 576 578 579
f 566 577 579 568
f 579 578 580 581
f 568 579 581 569
f 569 581 580 570
f 266 582 583 576
f 567 571 582 266
f 576 583 584 578
f 578 584 585 580
f 570 580 585 572
f 583 586 587 584
f 574 573 587 586
f 584 587 588 585
f 573 575 588 587
f 572 585 588 575
f 589 590 591 592
f 589 593 594 590
f 589 592 595 593
f 590 439 442 591
f 590 594 596 439
f 439 596 597 440
f 440 597 598 441
f 592 591 296 295
f 592 295 599 595
f 591 442 297 296
f 441 598 313 303
f 294 301 322 600
f 295 294 600 599
f 593 601 602 594
f 593 595 603 601
f 594 602 604 596
f 596 604 605 597
f 597 605 606 598
f 595 599 607 603
f 598 606 608 313
f 600 322 609 610
f 599 600 610 607
f 322 325 611 609
f 325 314 612 611
f 313 608 612 314
f 613 614 615 616
f 601 613 616 602
f 601 603 614 613
f 616 615 617 618
f 602 616 618 604
f 618 617 619 620
f 604 618 620 605
f 605 620 619 606
f 614 621 622 615
f 603 607 621 614
f 615 622 623 617
f 617 623 624 619
f 606 619 624 608
f 621 625 626 622
f 610 609 626 625
f 607 610 625 621
f 622 626 627 623
f 609 611 627 626
f 623 627 628 624
f 611 612 628 627
f 608 624 628 612
f 629 630 631 632
f 629 410 633 630
f 629 632 411 410
f 630 634 635 631
f 630 633 636 634
f 634 637 638 635
f 634 636 639 637
f 637 639 640 638
f 632 631 641 642
f 632 642 416 411
f 631 635 643 641
f 635 638 644 643
f 638 640 645 644
f 642 641 646 647
f 647 646 648 419
f 642 647 419 416
f 641 643 649 646
f 646 649 650 648
f 643 644 651 649
f 649 651 652 650
f 644 645 652 651
f 410 414 653 633
f 633 653 654 636
f 419 648 656 421
f 648 650 657 656
f 424 432 659 660
f 414 424 660 653
f 660 659 661 662
f 653 660 662 654
f 432 434 664 659
f 659 664 665 661
f 434 427 666 664
f 421 656 666 427
f 664 666 667 665
f 656 657 667 666
f 321 319 669 339
f 339 669 670 345
f 310 312 452 671
f 310 671 672 327
f 346 345 673 451
f 345 670 674 673
f 671 452 454 675
f 675 454 456 676
f 671 675 676 672
f 451 673 677 453
f 453 677 678 455
f 673 674 678 677
f 315 679 457 317
f 315 327 680 679
f 319 458 681 669
f 669 681 682 670
f 670 682 683 674
f 676 456 460 684
f 455 678 685 459
f 674 683 685 678
f 686 687 462 461
f 679 686 461 457
f 679 680 687 686
f 464 463 688 689
f 458 464 689 681
f 681 689 688 682
f 687 690 465 462
f 463 466 691 688
f 682 688 691 683
f 690 692 467 465
f 684 460 467 692
f 466 468 693 691
f 459 685 693 468
f 683 691 693 685
f 694 695 696 697
f 694 698 699 695
f 694 697 700 698
f 695 553 560 696
f 695 699 571 553
f 697 696 701 702
f 697 702 703 700
f 696 560 704 701
f 560 559 705 704
f 559 574 706 705
f 702 701 707 708
f 708 707 709 710
f 702 708 710 703
f 701 704 711 707
f 707 711 712 709
f 704 705 713 711
f 711 713 714 712
f 705 706 714 713
f 698 715 716 699
f 698 700 717 715
f 699 716 582 571
f 700 703 718 717
f 574 586 719 706
f 710 709 720 721
f 703 710 721 718
f 709 712 722 720
f 712 714 723 722
f 706 719 723 714
f 724 725 726 727
f 715 724 727 716
f 715 717 725 724
f 727 726 381 378
f 716 727 378 582
f 582 378 377 583
f 583 377 382 586
f 725 728 729 726
f 717 718 728 725
f 726 729 730 381
f 381 730 731 382
f 586 382 731 719
f 728 732 733 729
f 721 720 733 732
f 718 721 732 728
f 729 733 734 730
f 720 722 734 733
f 730 734 735 731
f 722 723 735 734
f 719 731 735 723
usemtl c4
f 636 654 655 639
f 650 652 658 657
f 654 662 663 655
f 657 658 668 667
f 639 736 737 640
f 639 655 738 736
f 736 739 740 737
f 736 738 741 739
f 739 741 742 740
f 640 737 743 645
f 737 740 744 743
f 740 742 745 744
f 645 743 746 652
f 652 746 747 658
f 743 744 748 746
f 746 748 749 747
f 744 745 749 748
f 655 663 750 738
f 738 750 751 741
f 741 751 752 742
f 742 752 753 745
f 658 747 754 668
f 747 749 755 754
f 745 753 755 749
f 756 757 758 759
f 662 756 759 663
f 662 661 757 756
f 759 758 760 761
f 663 759 761 750
f 761 760 762 763
f 750 761 763 751
f 751 763 762 752
f 757 206 211 758
f 661 665 206 757
f 758 211 213 760
f 760 213 215 762
f 752 762 215 753
f 667 668 328 207
f 665 667 207 206
f 668 754 331 328
f 754 755 218 331
f 753 215 218 755
f 323 324 764 765
f 323 766 767 324
f 323 765 768 766
f 324 326 769 764
f 324 767 770 326
f 326 327 672 769
f 326 770 680 327
f 765 764 771 772
f 765 772 773 768
f 764 769 774 771
f 769 672 676 774
f 772 771 775 776
f 776 775 777 778
f 772 776 778 773
f 771 774 779 775
f 775 779 780 777
f 774 676 781 779
f 779 781 782 780
f 676 684 782 781
f 766 783 784 767
f 766 768 785 783
f 767 784 786 770
f 770 786 687 680
f 768 773 787 785
f 778 777 788 789
f 773 778 789 787
f 777 780 790 788
f 780 782 791 790
f 684 692 791 782
f 792 793 794 795
f 783 792 795 784
f 783 785 793 792
f 795 794 796 797
f 784 795 797 786
f 797 796 798 799
f 786 797 799 687
f 687 799 798 690
f 793 800 801 794
f 785 787 800 793
f 794 801 802 796
f 796 802 803 798
f 690 798 803 692
f 800 804 805 801
f 789 788 805 804
f 787 789 804 800
f 801 805 806 802
f 788 790 806 805
f 802 806 807 803
f 790 791 807 806
f 692 803 807 791
f 808 809 810 811
f 808 812 813 809
f 808 811 814 812
f 809 815 816 810
f 809 813 817 815
f 815 818 819 816
f 815 817 820 818
f 818 820 821 819
f 811 810 822 823
f 811 823 824 814
f 810 816 825 822
f 816 819 826 825
f 819 821 827 826
f 823 822 828 829
f 829 828 830 831
f 823 829 831 824
f 822 825 832 828
f 828 832 833 830
f 825 826 834 832
f 832 834 835 833
f 826 827 835 834
f 812 836 837 813
f 812 814 838 836
f 813 837 839 817
f 817 839 840 820
f 820 840 841 821
f 814 824 842 838
f 821 841 843 827
f 831 830 844 845
f 824 831 845 842
f 830 833 846 844
f 833 835 847 846
f 827 843 847 835
f 848 849 850 851
f 836 848 851 837
f 836 838 849 848
f 851 850 852 853
f 837 851 853 839
f 853 852 854 855
f 839 853 855 840
f 840 855 854 841
f 849 856 857 850
f 838 842 856 849
f 850 857 858 852
f 852 858 859 854
f 841 854 859 843
f 856 860 861 857
f 845 844 861 860
f 842 845 860 856
f 857 861 862 858
f 844 846 862 861
f 858 862 863 859
f 846 847 863 862
f 843 859 863 847
usemtl c5
f 195 197 198 199
f 240 239 272 273
f 186 185 284 267
f 207 328 329 330
f 207 330 311 208
f 361 364 365 362
f 362 365 366 363
f 361 367 368 364
f 363 366 176 249
f 367 247 175 368
f 364 369 370 365
f 365 370 371 366
f 364 368 372 369
f 366 371 177 176
f 368 175 174 372
f 373 374 375 376
f 369 373 376 370
f 370 376 375 371
f 369 372 374 373
f 374 240 273 375
f 371 375 273 177
f 372 174 240 374
f 267 284 377 378
f 284 287 379 377
f 267 378 380 271
f 381 382 383 384
f 377 379 383 382
f 378 381 384 380
f 287 298 385 379
f 271 380 386 283
f 384 383 387 388
f 379 385 387 383
f 380 384 388 386
f 278 389 390 292
f 292 390 391 298
f 298 391 392 385
f 388 387 393 394
f 385 392 393 387
f 389 395 396 390
f 390 396 397 391
f 391 397 398 392
f 394 393 399 400
f 392 398 399 393
f 401 402 403 404
f 395 401 404 396
f 396 404 403 397
f 402 405 406 403
f 397 403 406 398
f 405 407 408 406
f 400 399 408 407
f 398 406 408 399
f 409 410 411 412
f 409 413 414 410
f 409 412 415 413
f 412 411 416 417
f 412 417 418 415
f 417 416 419 420
f 420 419 421 422
f 417 420 422 418
f 413 423 424 414
f 413 415 425 423
f 415 418 426 425
f 422 421 427 428
f 418 422 428 426
f 423 429 430 424
f 424 430 431 432
f 423 425 433 429
f 432 431 200 434
f 425 426 194 433
f 428 427 197 195
f 434 200 197 427
f 426 428 195 194
f 429 435 436 430
f 430 436 437 431
f 429 433 438 435
f 431 437 204 200
f 433 194 196 438
f 435 439 440 436
f 436 440 441 437
f 435 438 442 439
f 437 441 303 204
f 438 196 297 442
f 330 329 443 444
f 329 334 445 443
f 330 444 446 311
f 444 443 447 448
f 448 447 449 450
f 443 445 449 447
f 444 448 450 446
f 334 346 451 445
f 311 446 452 312
f 450 449 453 454
f 445 451 453 449
f 446 450 454 452
usemtl c6
f 1 2 3 4
f 1 5 6 2
f 2 6 7 3
f 1 4 8 5
f 4 3 9 10
f 3 7 11 9
f 4 10 12 8
f 10 9 13 14
f 9 11 15 13
f 10 14 16 12
f 14 13 17 18
f 13 15 19 17
f 14 18 20 16
f 18 17 21 22
f 17 19 23 21
f 18 22 24 20
f 22 21 25 26
f 21 23 27 25
f 22 26 28 24
f 26 25 29 30
f 25 27 31 29
f 26 30 32 28
f 30 29 33 34
f 34 33 35 36
f 29 31 35 33
f 30 34 36 32
f 5 37 38 6
f 6 38 39 7
f 5 8 40 37
f 7 39 41 11
f 8 12 42 40
f 11 41 43 15
f 12 16 44 42
f 15 43 45 19
f 16 20 46 44
f 19 45 47 23
f 20 24 48 46
f 23 47 49 27
f 24 28 50 48
f 27 49 51 31
f 28 32 52 50
f 36 35 53 54
f 31 51 53 35
f 32 36 54 52
f 37 55 56 38
f 38 56 57 39
f 37 40 58 55
f 39 57 59 41
f 40 42 60 58
f 41 59 61 43
f 42 44 62 60
f 43 61 63 45
f 44 46 64 62
f 45 63 65 47
f 46 48 66 64
f 47 65 67 49
f 48 50 68 66
f 49 67 69 51
f 50 52 70 68
f 54 53 71 72
f 51 69 71 53
f 52 54 72 70
f 55 73 74 56
f 56 74 75 57
f 55 58 76 73
f 57 75 77 59
f 58 60 78 76
f 59 77 79 61
f 60 62 80 78
f 62 64 81 80
f 64 66 82 81
f 65 83 84 67
f 66 68 85 82
f 67 84 86 69
f 68 70 87 85
f 72 71 88 89
f 69 86 88 71
f 70 72 89 87
f 73 90 91 74
f 74 91 92 75
f 73 76 93 90
f 75 92 94 77
f 76 78 95 93
f 77 94 96 79
f 78 80 97 95
f 80 81 98 97
f 81 82 99 98
f 83 100 101 84
f 82 85 102 99
f 84 101 103 86
f 85 87 104 102
f 89 88 105 106
f 86 103 105 88
f 87 89 106 104
f 90 107 108 91
f 91 108 109 92
f 90 93 110 107
f 92 109 111 94
f 93 95 112 110
f 94 111 113 96
f 95 97 114 112
f 96 113 115 116
f 97 98 117 114
f 116 115 118 100
f 98 99 119 117
f 100 118 120 101
f 99 102 121 119
f 101 120 122 103
f 102 104 123 121
f 106 105 124 125
f 103 122 124 105
f 104 106 125 123
f 107 126 127 108
f 108 127 128 109
f 107 110 129 126
f 109 128 130 111
f 110 112 131 129
f 111 130 132 113
f 112 114 133 131
f 113 132 134 115
f 114 117 135 133
f 115 134 136 118
f 117 119 137 135
f 118 136 138 120
f 119 121 139 137
f 120 138 140 122
f 121 123 141 139
f 125 124 142 143
f 122 140 142 124
f 123 125 143 141
f 144 145 146 147
f 126 144 147 127
f 127 147 146 128
f 126 129 145 144
f 145 148 149 146
f 128 146 149 130
f 129 131 148 145
f 148 150 151 149
f 130 149 151 132
f 131 133 150 148
f 150 152 153 151
f 132 151 153 134
f 133 135 152 150
f 152 154 155 153
f 134 153 155 136
f 135 137 154 152
f 154 156 157 155
f 136 155 157 138
f 137 139 156 154
f 156 158 159 157
f 138 157 159 140
f 139 141 158 156
f 158 160 161 159
f 143 142 161 160
f 140 159 161 142
f 141 143 160 158
