# generado por tools/vox_to_obj.py desde yuca_v3.vox
mtllib yuca_v3.mtl
v -4.5000 0.0000 4.5000
v -4.5000 1.0000 4.5000
v -4.5000 1.0000 3.5000
v -4.5000 0.0000 3.5000
v -3.5000 0.0000 4.5000
v -3.5000 1.0000 4.5000
v -3.5000 1.0000 3.5000
v -3.5000 0.0000 3.5000
v -4.5000 1.0000 2.5000
v -4.5000 0.0000 2.5000
v -3.5000 1.0000 2.5000
v -3.5000 0.0000 2.5000
v -4.5000 1.0000 1.5000
v -4.5000 0.0000 1.5000
v -3.5000 1.0000 1.5000
v -3.5000 0.0000 1.5000
v -4.5000 0.0000 0.5000
v -3.5000 0.0000 0.5000
v -4.5000 0.0000 -0.5000
v -3.5000 0.0000 -0.5000
v -4.5000 1.0000 -0.5000
v -4.5000 1.0000 -1.5000
v -4.5000 0.0000 -1.5000
v -3.5000 1.0000 -0.5000
v -3.5000 1.0000 -1.5000
v -3.5000 0.0000 -1.5000
v -4.5000 1.0000 -2.5000
v -4.5000 0.0000 -2.5000
v -3.5000 1.0000 -2.5000
v -3.5000 0.0000 -2.5000
v -4.5000 1.0000 -3.5000
v -4.5000 0.0000 -3.5000
v -3.5000 1.0000 -3.5000
v -3.5000 0.0000 -3.5000
v -2.5000 0.0000 4.5000
v -2.5000 1.0000 4.5000
v -2.5000 1.0000 3.5000
v -2.5000 0.0000 3.5000
v -2.5000 1.0000 2.5000
v -2.5000 0.0000 2.5000
v -2.5000 1.0000 1.5000
v -2.5000 0.0000 1.5000
v -2.5000 0.0000 0.5000
v -2.5000 0.0000 -0.5000
v -2.5000 1.0000 -0.5000
v -2.5000 1.0000 -1.5000
v -2.5000 0.0000 -1.5000
v -2.5000 1.0000 -2.5000
v -2.5000 0.0000 -2.5000
v -2.5000 1.0000 -3.5000
v -2.5000 0.0000 -3.5000
v -1.5000 0.0000 4.5000
v -1.5000 1.0000 4.5000
v -1.5000 1.0000 3.5000
v -1.5000 0.0000 3.5000
v -1.5000 1.0000 2.5000
v -1.5000 0.0000 2.5000
v -1.5000 1.0000 1.5000
v -1.5000 0.0000 1.5000
v -1.5000 0.0000 0.5000
v -1.5000 0.0000 -0.5000
v -1.5000 1.0000 -0.5000
v -1.5000 1.0000 -1.5000
v -1.5000 0.0000 -1.5000
v -1.5000 1.0000 -2.5000
v -1.5000 0.0000 -2.5000
v -1.5000 1.0000 -3.5000
v -1.5000 0.0000 -3.5000
v -0.5000 0.0000 3.5000
v -0.5000 0.0000 4.5000
v -0.5000 0.0000 2.5000
v -0.5000 0.0000 1.5000
v -0.5000 0.0000 0.5000
v -0.5000 0.0000 -0.5000
v -0.5000 0.0000 -1.5000
v -0.5000 0.0000 -2.5000
v -0.5000 0.0000 -3.5000
v 0.5000 0.0000 3.5000
v 0.5000 0.0000 4.5000
v 0.5000 0.0000 2.5000
v 0.5000 0.0000 1.5000
v 0.5000 0.0000 0.5000
v 0.5000 0.0000 -0.5000
v 0.5000 0.0000 -1.5000
v 0.5000 0.0000 -2.5000
v 0.5000 0.0000 -3.5000
v 1.5000 0.0000 4.5000
v 1.5000 1.0000 4.5000
v 0.5000 1.0000 4.5000
v 1.5000 1.0000 3.5000
v 0.5000 1.0000 3.5000
v 1.5000 0.0000 3.5000
v 1.5000 1.0000 2.5000
v 0.5000 1.0000 2.5000
v 1.5000 0.0000 2.5000
v 1.5000 1.0000 1.5000
v 0.5000 1.0000 1.5000
v 1.5000 0.0000 1.5000
v 1.5000 0.0000 0.5000
v 1.5000 0.0000 -0.5000
v 0.5000 1.0000 -0.5000
v 1.5000 1.0000 -0.5000
v 1.5000 1.0000 -1.5000
v 0.5000 1.0000 -1.5000
v 1.5000 0.0000 -1.5000
v 1.5000 1.0000 -2.5000
v 0.5000 1.0000 -2.5000
v 1.5000 0.0000 -2.5000
v 0.5000 1.0000 -3.5000
v 1.5000 1.0000 -3.5000
v 1.5000 0.0000 -3.5000
v 2.5000 0.0000 4.5000
v 2.5000 1.0000 4.5000
v 2.5000 1.0000 3.5000
v 2.5000 0.0000 3.5000
v 2.5000 1.0000 2.5000
v 2.5000 0.0000 2.5000
v 2.5000 1.0000 1.5000
v 2.5000 0.0000 1.5000
v 2.5000 0.0000 0.5000
v 2.5000 0.0000 -0.5000
v 2.5000 1.0000 -0.5000
v 2.5000 1.0000 -1.5000
v 2.5000 0.0000 -1.5000
v 2.5000 1.0000 -2.5000
v 2.5000 0.0000 -2.5000
v 2.5000 1.0000 -3.5000
v 2.5000 0.0000 -3.5000
v 3.5000 0.0000 4.5000
v 3.5000 0.0000 3.5000
v 3.5000 1.0000 3.5000
v 3.5000 1.0000 4.5000
v 3.5000 0.0000 2.5000
v 3.5000 1.0000 2.5000
v 3.5000 0.0000 1.5000
v 3.5000 1.0000 1.5000
v 3.5000 0.0000 0.5000
v 3.5000 0.0000 -0.5000
v 3.5000 0.0000 -1.5000
v 3.5000 1.0000 -1.5000
v 3.5000 1.0000 -0.5000
v 3.5000 0.0000 -2.5000
v 3.5000 1.0000 -2.5000
v 3.5000 0.0000 -3.5000
v 3.5000 1.0000 -3.5000
v -1.5000 13.0000 1.5000
v -0.5000 13.0000 1.5000
v -0.5000 14.0000 1.5000
v -1.5000 14.0000 1.5000
v -0.5000 15.0000 1.5000
v -1.5000 15.0000 1.5000
v -0.5000 16.0000 1.5000
v -1.5000 16.0000 1.5000
v -1.5000 17.0000 1.5000
v -1.5000 17.0000 0.5000
v -1.5000 16.0000 0.5000
v -0.5000 17.0000 1.5000
v -1.5000 18.0000 1.5000
v -1.5000 18.0000 0.5000
v -0.5000 18.0000 1.5000
v -1.5000 19.0000 1.5000
v -1.5000 19.0000 0.5000
v -0.5000 19.0000 1.5000
v -1.5000 20.0000 1.5000
v -1.5000 20.0000 0.5000
v -0.5000 20.0000 1.5000
v -1.5000 21.0000 1.5000
v -0.5000 21.0000 1.5000
v -0.5000 21.0000 0.5000
v -1.5000 21.0000 0.5000
v -1.5000 2.0000 -0.5000
v -1.5000 3.0000 -0.5000
v -0.5000 3.0000 -0.5000
v -0.5000 2.0000 -0.5000
v -1.5000 4.0000 -0.5000
v -0.5000 4.0000 -0.5000
v -1.5000 5.0000 -0.5000
v -0.5000 5.0000 -0.5000
v -1.5000 6.0000 -0.5000
v -0.5000 6.0000 -0.5000
v -1.5000 7.0000 -0.5000
v -0.5000 7.0000 -0.5000
v -1.5000 8.0000 -0.5000
v -0.5000 8.0000 -0.5000
v -1.5000 9.0000 -0.5000
v -0.5000 9.0000 -0.5000
v -1.5000 10.0000 -0.5000
v -0.5000 10.0000 -0.5000
v -1.5000 11.0000 -0.5000
v -0.5000 11.0000 -0.5000
v -1.5000 12.0000 -0.5000
v -0.5000 12.0000 -0.5000
v -1.5000 13.0000 -0.5000
v -0.5000 13.0000 -0.5000
v -1.5000 14.0000 -0.5000
v -0.5000 14.0000 -0.5000
v -1.5000 15.0000 -0.5000
v -0.5000 15.0000 -0.5000
v -1.5000 16.0000 -0.5000
v -0.5000 16.0000 -0.5000
v -1.5000 17.0000 -0.5000
v -0.5000 17.0000 -0.5000
v -1.5000 18.0000 -0.5000
v -0.5000 18.0000 -0.5000
v -1.5000 19.0000 -0.5000
v -0.5000 19.0000 -0.5000
v -1.5000 20.0000 -0.5000
v -0.5000 20.0000 -0.5000
v -1.5000 21.0000 -0.5000
v -0.5000 21.0000 -0.5000
v 0.5000 13.0000 1.5000
v 0.5000 14.0000 1.5000
v 0.5000 15.0000 1.5000
v 0.5000 16.0000 1.5000
v 0.5000 16.0000 0.5000
v 0.5000 17.0000 0.5000
v 0.5000 17.0000 1.5000
v 0.5000 18.0000 0.5000
v 0.5000 18.0000 1.5000
v 0.5000 19.0000 0.5000
v 0.5000 19.0000 1.5000
v 0.5000 20.0000 0.5000
v 0.5000 20.0000 1.5000
v 0.5000 21.0000 0.5000
v 0.5000 21.0000 1.5000
v 0.5000 3.0000 -0.5000
v 0.5000 2.0000 -0.5000
v 0.5000 4.0000 -0.5000
v 0.5000 5.0000 -0.5000
v 0.5000 6.0000 -0.5000
v 0.5000 7.0000 -0.5000
v 0.5000 8.0000 -0.5000
v 0.5000 9.0000 -0.5000
v 0.5000 10.0000 -0.5000
v 0.5000 11.0000 -0.5000
v 0.5000 12.0000 -0.5000
v 0.5000 13.0000 -0.5000
v 0.5000 14.0000 -0.5000
v 0.5000 15.0000 -0.5000
v 0.5000 16.0000 -0.5000
v 0.5000 17.0000 -0.5000
v 0.5000 18.0000 -0.5000
v 0.5000 19.0000 -0.5000
v 0.5000 20.0000 -0.5000
v 0.5000 21.0000 -0.5000
v -2.5000 2.0000 1.5000
v -3.5000 2.0000 1.5000
v -3.5000 3.0000 1.5000
v -3.5000 3.0000 0.5000
v -3.5000 2.0000 0.5000
v -2.5000 3.0000 1.5000
v -3.5000 4.0000 1.5000
v -3.5000 4.0000 0.5000
v -2.5000 4.0000 1.5000
v -3.5000 5.0000 1.5000
v -3.5000 5.0000 0.5000
v -2.5000 5.0000 1.5000
v -3.5000 6.0000 1.5000
v -3.5000 6.0000 0.5000
v -2.5000 6.0000 1.5000
v -3.5000 7.0000 1.5000
v -3.5000 7.0000 0.5000
v -2.5000 7.0000 1.5000
v -3.5000 8.0000 1.5000
v -3.5000 8.0000 0.5000
v -2.5000 8.0000 1.5000
v -3.5000 9.0000 1.5000
v -3.5000 9.0000 0.5000
v -2.5000 9.0000 1.5000
v -3.5000 10.0000 1.5000
v -3.5000 10.0000 0.5000
v -2.5000 10.0000 1.5000
v -3.5000 11.0000 1.5000
v -3.5000 11.0000 0.5000
v -2.5000 11.0000 1.5000
v -3.5000 12.0000 1.5000
v -3.5000 12.0000 0.5000
v -2.5000 12.0000 1.5000
v -3.5000 13.0000 1.5000
v -3.5000 13.0000 0.5000
v -2.5000 13.0000 1.5000
v -3.5000 14.0000 1.5000
v -3.5000 14.0000 0.5000
v -2.5000 14.0000 1.5000
v -3.5000 15.0000 1.5000
v -3.5000 15.0000 0.5000
v -2.5000 15.0000 1.5000
v -3.5000 16.0000 1.5000
v -3.5000 16.0000 0.5000
v -2.5000 16.0000 1.5000
v -2.5000 16.0000 0.5000
v -3.5000 2.0000 -0.5000
v -2.5000 2.0000 -0.5000
v -3.5000 3.0000 -0.5000
v -2.5000 3.0000 -0.5000
v -3.5000 4.0000 -0.5000
v -2.5000 4.0000 -0.5000
v -3.5000 5.0000 -0.5000
v -2.5000 5.0000 -0.5000
v -3.5000 6.0000 -0.5000
v -2.5000 6.0000 -0.5000
v -3.5000 7.0000 -0.5000
v -2.5000 7.0000 -0.5000
v -3.5000 8.0000 -0.5000
v -2.5000 8.0000 -0.5000
v -3.5000 9.0000 -0.5000
v -2.5000 9.0000 -0.5000
v -3.5000 10.0000 -0.5000
v -2.5000 10.0000 -0.5000
v -3.5000 11.0000 -0.5000
v -2.5000 11.0000 -0.5000
v -3.5000 12.0000 -0.5000
v -2.5000 12.0000 -0.5000
v -3.5000 13.0000 -0.5000
v -2.5000 13.0000 -0.5000
v -3.5000 14.0000 -0.5000
v -2.5000 14.0000 -0.5000
v -3.5000 15.0000 -0.5000
v -2.5000 15.0000 -0.5000
v -3.5000 16.0000 -0.5000
v -2.5000 16.0000 -0.5000
v -1.5000 2.0000 1.5000
v -1.5000 3.0000 1.5000
v -1.5000 4.0000 1.5000
v -1.5000 5.0000 1.5000
v -1.5000 6.0000 1.5000
v -1.5000 7.0000 1.5000
v -1.5000 8.0000 1.5000
v -1.5000 9.0000 1.5000
v -1.5000 10.0000 1.5000
v -1.5000 11.0000 1.5000
v -1.5000 12.0000 1.5000
v 1.5000 2.0000 1.5000
v 0.5000 2.0000 1.5000
v 1.5000 3.0000 1.5000
v 0.5000 3.0000 1.5000
v 1.5000 4.0000 1.5000
v 0.5000 4.0000 1.5000
v 1.5000 5.0000 1.5000
v 0.5000 5.0000 1.5000
v 1.5000 6.0000 1.5000
v 0.5000 6.0000 1.5000
v 1.5000 7.0000 1.5000
v 0.5000 7.0000 1.5000
v 1.5000 8.0000 1.5000
v 0.5000 8.0000 1.5000
v 1.5000 9.0000 1.5000
v 0.5000 9.0000 1.5000
v 1.5000 10.0000 1.5000
v 0.5000 10.0000 1.5000
v 1.5000 11.0000 1.5000
v 0.5000 11.0000 1.5000
v 1.5000 12.0000 1.5000
v 0.5000 12.0000 1.5000
v 1.5000 13.0000 1.5000
v 1.5000 14.0000 1.5000
v 1.5000 15.0000 1.5000
v 1.5000 16.0000 1.5000
v 1.5000 16.0000 0.5000
v 1.5000 2.0000 -0.5000
v 1.5000 3.0000 -0.5000
v 1.5000 4.0000 -0.5000
v 1.5000 5.0000 -0.5000
v 1.5000 6.0000 -0.5000
v 1.5000 7.0000 -0.5000
v 1.5000 8.0000 -0.5000
v 1.5000 9.0000 -0.5000
v 1.5000 10.0000 -0.5000
v 1.5000 11.0000 -0.5000
v 1.5000 12.0000 -0.5000
v 1.5000 13.0000 -0.5000
v 1.5000 14.0000 -0.5000
v 1.5000 15.0000 -0.5000
v 1.5000 16.0000 -0.5000
v 2.5000 2.0000 1.5000
v 2.5000 2.0000 0.5000
v 2.5000 3.0000 0.5000
v 2.5000 3.0000 1.5000
v 2.5000 4.0000 0.5000
v 2.5000 4.0000 1.5000
v 2.5000 5.0000 0.5000
v 2.5000 5.0000 1.5000
v 2.5000 6.0000 0.5000
v 2.5000 6.0000 1.5000
v 2.5000 7.0000 0.5000
v 2.5000 7.0000 1.5000
v 2.5000 8.0000 0.5000
v 2.5000 8.0000 1.5000
v 2.5000 9.0000 0.5000
v 2.5000 9.0000 1.5000
v 2.5000 10.0000 0.5000
v 2.5000 10.0000 1.5000
v 2.5000 11.0000 0.5000
v 2.5000 11.0000 1.5000
v 2.5000 12.0000 0.5000
v 2.5000 12.0000 1.5000
v 2.5000 13.0000 0.5000
v 2.5000 13.0000 1.5000
v 2.5000 14.0000 0.5000
v 2.5000 14.0000 1.5000
v 2.5000 15.0000 0.5000
v 2.5000 15.0000 1.5000
v 2.5000 16.0000 0.5000
v 2.5000 16.0000 1.5000
v 2.5000 2.0000 -0.5000
v 2.5000 3.0000 -0.5000
v 2.5000 4.0000 -0.5000
v 2.5000 5.0000 -0.5000
v 2.5000 6.0000 -0.5000
v 2.5000 7.0000 -0.5000
v 2.5000 8.0000 -0.5000
v 2.5000 9.0000 -0.5000
v 2.5000 10.0000 -0.5000
v 2.5000 11.0000 -0.5000
v 2.5000 12.0000 -0.5000
v 2.5000 13.0000 -0.5000
v 2.5000 14.0000 -0.5000
v 2.5000 15.0000 -0.5000
v 2.5000 16.0000 -0.5000
v -1.5000 2.0000 3.5000
v -1.5000 2.0000 2.5000
v -1.5000 3.0000 3.5000
v -1.5000 3.0000 2.5000
v -0.5000 2.0000 3.5000
v -0.5000 3.0000 3.5000
v -1.5000 4.0000 3.5000
v -1.5000 4.0000 2.5000
v -0.5000 4.0000 3.5000
v -1.5000 5.0000 3.5000
v -1.5000 5.0000 2.5000
v -0.5000 5.0000 3.5000
v -1.5000 6.0000 3.5000
v -1.5000 6.0000 2.5000
v -0.5000 6.0000 3.5000
v -1.5000 7.0000 3.5000
v -1.5000 7.0000 2.5000
v -0.5000 7.0000 3.5000
v -1.5000 8.0000 3.5000
v -1.5000 8.0000 2.5000
v -0.5000 8.0000 3.5000
v -1.5000 9.0000 3.5000
v -1.5000 9.0000 2.5000
v -0.5000 9.0000 3.5000
v -1.5000 10.0000 3.5000
v -1.5000 10.0000 2.5000
v -0.5000 10.0000 3.5000
v -1.5000 11.0000 3.5000
v -1.5000 11.0000 2.5000
v -0.5000 11.0000 3.5000
v -1.5000 12.0000 3.5000
v -1.5000 12.0000 2.5000
v -0.5000 12.0000 3.5000
v -1.5000 13.0000 3.5000
v -1.5000 13.0000 2.5000
v -0.5000 13.0000 3.5000
v -0.5000 13.0000 2.5000
v 0.5000 2.0000 2.5000
v 0.5000 2.0000 3.5000
v 0.5000 3.0000 2.5000
v 0.5000 3.0000 3.5000
v 0.5000 4.0000 2.5000
v 0.5000 4.0000 3.5000
v 0.5000 5.0000 2.5000
v 0.5000 5.0000 3.5000
v 0.5000 6.0000 2.5000
v 0.5000 6.0000 3.5000
v 0.5000 7.0000 2.5000
v 0.5000 7.0000 3.5000
v 0.5000 8.0000 2.5000
v 0.5000 8.0000 3.5000
v 0.5000 9.0000 2.5000
v 0.5000 9.0000 3.5000
v 0.5000 10.0000 2.5000
v 0.5000 10.0000 3.5000
v 0.5000 11.0000 2.5000
v 0.5000 11.0000 3.5000
v 0.5000 12.0000 2.5000
v 0.5000 12.0000 3.5000
v 0.5000 13.0000 2.5000
v 0.5000 13.0000 3.5000
v -3.5000 20.0000 -1.5000
v -3.5000 20.0000 -2.5000
v -2.5000 20.0000 -2.5000
v -2.5000 20.0000 -1.5000
v -3.5000 20.0000 -3.5000
v -2.5000 20.0000 -3.5000
v -3.5000 20.0000 -4.5000
v -2.5000 20.0000 -4.5000
v -3.5000 21.0000 -4.5000
v -3.5000 21.0000 -5.5000
v -3.5000 20.0000 -5.5000
v -2.5000 20.0000 -5.5000
v -3.5000 21.0000 -6.5000
v -3.5000 20.0000 -6.5000
v -2.5000 20.0000 -6.5000
v -3.5000 21.0000 -7.5000
v -3.5000 20.0000 -7.5000
v -2.5000 20.0000 -7.5000
v -3.5000 21.0000 -8.5000
v -3.5000 20.0000 -8.5000
v -2.5000 20.0000 -8.5000
v -3.5000 21.0000 -9.5000
v -3.5000 20.0000 -9.5000
v -2.5000 21.0000 -9.5000
v -2.5000 20.0000 -9.5000
v -2.5000 21.0000 -8.5000
v -1.5000 20.0000 -2.5000
v -1.5000 20.0000 -1.5000
v -1.5000 20.0000 -3.5000
v -1.5000 20.0000 -4.5000
v -1.5000 20.0000 -5.5000
v -1.5000 20.0000 -6.5000
v -1.5000 20.0000 -7.5000
v -1.5000 20.0000 -8.5000
v -1.5000 21.0000 -9.5000
v -1.5000 20.0000 -9.5000
v -1.5000 21.0000 -8.5000
v -0.5000 20.0000 -1.5000
v -0.5000 21.0000 -1.5000
v -1.5000 21.0000 -1.5000
v -0.5000 21.0000 -2.5000
v -1.5000 21.0000 -2.5000
v -0.5000 20.0000 -2.5000
v -0.5000 21.0000 -3.5000
v -1.5000 21.0000 -3.5000
v -0.5000 20.0000 -3.5000
v -0.5000 21.0000 -4.5000
v -1.5000 21.0000 -4.5000
v -0.5000 20.0000 -4.5000
v -0.5000 21.0000 -5.5000
v -1.5000 21.0000 -5.5000
v -0.5000 20.0000 -5.5000
v -0.5000 21.0000 -6.5000
v -1.5000 21.0000 -6.5000
v -0.5000 20.0000 -6.5000
v -0.5000 21.0000 -7.5000
v -1.5000 21.0000 -7.5000
v -0.5000 20.0000 -7.5000
v -0.5000 21.0000 -8.5000
v -0.5000 20.0000 -8.5000
v -0.5000 21.0000 -9.5000
v -0.5000 20.0000 -9.5000
v 0.5000 20.0000 -1.5000
v 0.5000 21.0000 -1.5000
v 0.5000 21.0000 -2.5000
v 0.5000 20.0000 -2.5000
v 0.5000 21.0000 -3.5000
v 0.5000 20.0000 -3.5000
v 0.5000 21.0000 -4.5000
v 0.5000 20.0000 -4.5000
v 0.5000 21.0000 -5.5000
v 0.5000 20.0000 -5.5000
v 0.5000 21.0000 -6.5000
v 0.5000 20.0000 -6.5000
v 0.5000 21.0000 -7.5000
v 0.5000 20.0000 -7.5000
v 0.5000 21.0000 -8.5000
v 0.5000 20.0000 -8.5000
v 0.5000 21.0000 -9.5000
v 0.5000 20.0000 -9.5000
v 1.5000 20.0000 -1.5000
v 1.5000 21.0000 -1.5000
v 1.5000 21.0000 -2.5000
v 1.5000 20.0000 -2.5000
v 1.5000 21.0000 -3.5000
v 1.5000 20.0000 -3.5000
v 1.5000 21.0000 -4.5000
v 1.5000 20.0000 -4.5000
v 1.5000 21.0000 -5.5000
v 1.5000 20.0000 -5.5000
v 1.5000 21.0000 -6.5000
v 1.5000 20.0000 -6.5000
v 1.5000 21.0000 -7.5000
v 1.5000 20.0000 -7.5000
v 1.5000 21.0000 -8.5000
v 1.5000 20.0000 -8.5000
v 1.5000 21.0000 -9.5000
v 1.5000 20.0000 -9.5000
v 2.5000 20.0000 -2.5000
v 2.5000 20.0000 -1.5000
v 2.5000 20.0000 -3.5000
v 2.5000 20.0000 -4.5000
v 2.5000 20.0000 -5.5000
v 2.5000 20.0000 -6.5000
v 2.5000 20.0000 -7.5000
v 2.5000 20.0000 -8.5000
v 2.5000 21.0000 -9.5000
v 2.5000 20.0000 -9.5000
v 2.5000 21.0000 -8.5000
v 3.5000 20.0000 -2.5000
v 3.5000 20.0000 -1.5000
v 3.5000 20.0000 -3.5000
v 3.5000 20.0000 -4.5000
v 3.5000 20.0000 -5.5000
v 3.5000 20.0000 -6.5000
v 3.5000 20.0000 -7.5000
v 3.5000 20.0000 -8.5000
v 3.5000 21.0000 -9.5000
v 3.5000 20.0000 -9.5000
v 3.5000 21.0000 -8.5000
v 4.5000 20.0000 -2.5000
v 4.5000 20.0000 -1.5000
v 4.5000 20.0000 -3.5000
v 4.5000 20.0000 -4.5000
v 4.5000 20.0000 -5.5000
v 4.5000 21.0000 -5.5000
v 4.5000 21.0000 -4.5000
v 4.5000 20.0000 -6.5000
v 4.5000 21.0000 -6.5000
v 4.5000 20.0000 -7.5000
v 4.5000 21.0000 -7.5000
v 4.5000 20.0000 -8.5000
v 4.5000 21.0000 -8.5000
v 4.5000 20.0000 -9.5000
v 4.5000 21.0000 -9.5000
v -3.5000 20.0000 9.5000
v -3.5000 21.0000 9.5000
v -3.5000 21.0000 8.5000
v -3.5000 20.0000 8.5000
v -2.5000 20.0000 9.5000
v -2.5000 21.0000 9.5000
v -2.5000 21.0000 8.5000
v -2.5000 20.0000 8.5000
v -3.5000 21.0000 7.5000
v -3.5000 20.0000 7.5000
v -2.5000 20.0000 7.5000
v -3.5000 21.0000 6.5000
v -3.5000 20.0000 6.5000
v -2.5000 20.0000 6.5000
v -3.5000 21.0000 5.5000
v -3.5000 20.0000 5.5000
v -2.5000 20.0000 5.5000
v -3.5000 21.0000 4.5000
v -3.5000 20.0000 4.5000
v -2.5000 20.0000 4.5000
v -3.5000 21.0000 3.5000
v -3.5000 20.0000 3.5000
v -2.5000 20.0000 3.5000
v -3.5000 20.0000 2.5000
v -2.5000 20.0000 2.5000
v -3.5000 20.0000 1.5000
v -2.5000 20.0000 1.5000
v -1.5000 20.0000 9.5000
v -1.5000 21.0000 9.5000
v -1.5000 21.0000 8.5000
v -1.5000 20.0000 8.5000
v -1.5000 20.0000 7.5000
v -1.5000 20.0000 6.5000
v -1.5000 20.0000 5.5000
v -1.5000 20.0000 4.5000
v -1.5000 20.0000 3.5000
v -1.5000 20.0000 2.5000
v -0.5000 20.0000 9.5000
v -0.5000 21.0000 9.5000
v -0.5000 21.0000 8.5000
v -0.5000 20.0000 8.5000
v -0.5000 21.0000 7.5000
v -1.5000 21.0000 7.5000
v -0.5000 20.0000 7.5000
v -0.5000 21.0000 6.5000
v -1.5000 21.0000 6.5000
v -0.5000 20.0000 6.5000
v -0.5000 21.0000 5.5000
v -1.5000 21.0000 5.5000
v -0.5000 20.0000 5.5000
v -0.5000 21.0000 4.5000
v -1.5000 21.0000 4.5000
v -0.5000 20.0000 4.5000
v -0.5000 21.0000 3.5000
v -1.5000 21.0000 3.5000
v -0.5000 20.0000 3.5000
v -0.5000 21.0000 2.5000
v -1.5000 21.0000 2.5000
v -0.5000 20.0000 2.5000
v 0.5000 20.0000 9.5000
v 0.5000 21.0000 9.5000
v 0.5000 21.0000 8.5000
v 0.5000 20.0000 8.5000
v 0.5000 21.0000 7.5000
v 0.5000 20.0000 7.5000
v 0.5000 21.0000 6.5000
v 0.5000 20.0000 6.5000
v 0.5000 21.0000 5.5000
v 0.5000 20.0000 5.5000
v 0.5000 21.0000 4.5000
v 0.5000 20.0000 4.5000
v 0.5000 21.0000 3.5000
v 0.5000 20.0000 3.5000
v 0.5000 21.0000 2.5000
v 0.5000 20.0000 2.5000
v 1.5000 20.0000 9.5000
v 1.5000 21.0000 9.5000
v 1.5000 21.0000 8.5000
v 1.5000 20.0000 8.5000
v 1.5000 21.0000 7.5000
v 1.5000 20.0000 7.5000
v 1.5000 21.0000 6.5000
v 1.5000 20.0000 6.5000
v 1.5000 21.0000 5.5000
v 1.5000 20.0000 5.5000
v 1.5000 21.0000 4.5000
v 1.5000 20.0000 4.5000
v 1.5000 21.0000 3.5000
v 1.5000 20.0000 3.5000
v 1.5000 21.0000 2.5000
v 1.5000 20.0000 2.5000
v 1.5000 21.0000 1.5000
v 1.5000 20.0000 1.5000
v 2.5000 20.0000 9.5000
v 2.5000 21.0000 9.5000
v 2.5000 21.0000 8.5000
v 2.5000 20.0000 8.5000
v 2.5000 20.0000 7.5000
v 2.5000 20.0000 6.5000
v 2.5000 20.0000 5.5000
v 2.5000 20.0000 4.5000
v 2.5000 20.0000 3.5000
v 2.5000 20.0000 2.5000
v 2.5000 20.0000 1.5000
v 3.5000 20.0000 9.5000
v 3.5000 21.0000 9.5000
v 3.5000 21.0000 8.5000
v 3.5000 20.0000 8.5000
v 3.5000 20.0000 7.5000
v 3.5000 20.0000 6.5000
v 3.5000 20.0000 5.5000
v 3.5000 20.0000 4.5000
v 3.5000 20.0000 3.5000
v 3.5000 20.0000 2.5000
v 3.5000 20.0000 1.5000
v 4.5000 20.0000 9.5000
v 4.5000 20.0000 8.5000
v 4.5000 21.0000 8.5000
v 4.5000 21.0000 9.5000
v 4.5000 20.0000 7.5000
v 4.5000 21.0000 7.5000
v 4.5000 20.0000 6.5000
v 4.5000 21.0000 6.5000
v 4.5000 20.0000 5.5000
v 4.5000 21.0000 5.5000
v 4.5000 20.0000 4.5000
v 4.5000 21.0000 4.5000
v 4.5000 20.0000 3.5000
v 4.5000 21.0000 3.5000
v 4.5000 20.0000 2.5000
v 4.5000 20.0000 1.5000
v 1.5000 21.0000 0.5000
v 1.5000 20.0000 0.5000
v 2.5000 21.0000 1.5000
v 2.5000 21.0000 0.5000
v 2.5000 20.0000 0.5000
v 1.5000 21.0000 -0.5000
v 1.5000 20.0000 -0.5000
v 2.5000 21.0000 -0.5000
v 2.5000 20.0000 -0.5000
v 2.5000 21.0000 -1.5000
v 3.5000 21.0000 1.5000
v 3.5000 21.0000 0.5000
v 3.5000 20.0000 0.5000
v 3.5000 21.0000 -0.5000
v 3.5000 20.0000 -0.5000
v 3.5000 21.0000 -1.5000
v 4.5000 21.0000 1.5000
v 4.5000 21.0000 0.5000
v 4.5000 20.0000 0.5000
v 4.5000 21.0000 -0.5000
v 4.5000 20.0000 -0.5000
v 4.5000 21.0000 -1.5000
v 5.5000 20.0000 3.5000
v 5.5000 21.0000 3.5000
v 5.5000 20.0000 2.5000
v 5.5000 20.0000 1.5000
v 5.5000 21.0000 1.5000
v 5.5000 21.0000 0.5000
v 5.5000 20.0000 0.5000
v 5.5000 21.0000 -0.5000
v 5.5000 20.0000 -0.5000
v 5.5000 21.0000 -1.5000
v 5.5000 20.0000 -1.5000
v 5.5000 20.0000 -2.5000
v 5.5000 20.0000 -3.5000
v 5.5000 21.0000 -4.5000
v 5.5000 20.0000 -4.5000
v 6.5000 20.0000 3.5000
v 6.5000 21.0000 3.5000
v 6.5000 20.0000 2.5000
v 6.5000 20.0000 1.5000
v 6.5000 21.0000 1.5000
v 6.5000 21.0000 0.5000
v 6.5000 20.0000 0.5000
v 6.5000 21.0000 -0.5000
v 6.5000 20.0000 -0.5000
v 6.5000 21.0000 -1.5000
v 6.5000 20.0000 -1.5000
v 6.5000 20.0000 -2.5000
v 6.5000 20.0000 -3.5000
v 6.5000 21.0000 -4.5000
v 6.5000 20.0000 -4.5000
v 7.5000 20.0000 3.5000
v 7.5000 21.0000 3.5000
v 7.5000 20.0000 2.5000
v 7.5000 20.0000 1.5000
v 7.5000 21.0000 1.5000
v 7.5000 21.0000 0.5000
v 7.5000 20.0000 0.5000
v 7.5000 21.0000 -0.5000
v 7.5000 20.0000 -0.5000
v 7.5000 21.0000 -1.5000
v 7.5000 20.0000 -1.5000
v 7.5000 20.0000 -2.5000
v 7.5000 20.0000 -3.5000
v 7.5000 21.0000 -4.5000
v 7.5000 20.0000 -4.5000
v 8.5000 20.0000 3.5000
v 8.5000 21.0000 3.5000
v 8.5000 20.0000 2.5000
v 8.5000 20.0000 1.5000
v 8.5000 21.0000 1.5000
v 8.5000 21.0000 0.5000
v 8.5000 20.0000 0.5000
v 8.5000 21.0000 -0.5000
v 8.5000 20.0000 -0.5000
v 8.5000 21.0000 -1.5000
v 8.5000 20.0000 -1.5000
v 8.5000 20.0000 -2.5000
v 8.5000 20.0000 -3.5000
v 8.5000 21.0000 -4.5000
v 8.5000 20.0000 -4.5000
v 9.5000 20.0000 3.5000
v 9.5000 20.0000 2.5000
v 9.5000 21.0000 2.5000
v 9.5000 21.0000 3.5000
v 8.5000 21.0000 2.5000
v 9.5000 20.0000 1.5000
v 9.5000 21.0000 1.5000
v 9.5000 20.0000 0.5000
v 9.5000 21.0000 0.5000
v 9.5000 20.0000 -0.5000
v 9.5000 21.0000 -0.5000
v 9.5000 20.0000 -1.5000
v 9.5000 21.0000 -1.5000
v 9.5000 20.0000 -2.5000
v 9.5000 21.0000 -2.5000
v 8.5000 21.0000 -2.5000
v 9.5000 20.0000 -3.5000
v 9.5000 21.0000 -3.5000
v 8.5000 21.0000 -3.5000
v 9.5000 20.0000 -4.5000
v 9.5000 21.0000 -4.5000
v -9.5000 20.0000 3.5000
v -9.5000 21.0000 3.5000
v -9.5000 21.0000 2.5000
v -9.5000 20.0000 2.5000
v -8.5000 20.0000 3.5000
v -8.5000 21.0000 3.5000
v -8.5000 21.0000 2.5000
v -8.5000 20.0000 2.5000
v -9.5000 21.0000 1.5000
v -9.5000 20.0000 1.5000
v -8.5000 21.0000 1.5000
v -8.5000 20.0000 1.5000
v -9.5000 21.0000 0.5000
v -9.5000 20.0000 0.5000
v -8.5000 21.0000 0.5000
v -8.5000 20.0000 0.5000
v -9.5000 21.0000 -0.5000
v -9.5000 20.0000 -0.5000
v -8.5000 21.0000 -0.5000
v -8.5000 20.0000 -0.5000
v -9.5000 21.0000 -1.5000
v -9.5000 20.0000 -1.5000
v -8.5000 21.0000 -1.5000
v -8.5000 20.0000 -1.5000
v -9.5000 21.0000 -2.5000
v -9.5000 20.0000 -2.5000
v -8.5000 21.0000 -2.5000
v -8.5000 20.0000 -2.5000
v -9.5000 21.0000 -3.5000
v -9.5000 20.0000 -3.5000
v -8.5000 21.0000 -3.5000
v -8.5000 20.0000 -3.5000
v -9.5000 21.0000 -4.5000
v -9.5000 20.0000 -4.5000
v -8.5000 21.0000 -4.5000
v -8.5000 20.0000 -4.5000
v -7.5000 20.0000 3.5000
v -7.5000 21.0000 3.5000
v -7.5000 20.0000 2.5000
v -7.5000 20.0000 1.5000
v -7.5000 21.0000 1.5000
v -7.5000 21.0000 0.5000
v -7.5000 20.0000 0.5000
v -7.5000 21.0000 -0.5000
v -7.5000 20.0000 -0.5000
v -7.5000 21.0000 -1.5000
v -7.5000 20.0000 -1.5000
v -7.5000 20.0000 -2.5000
v -7.5000 20.0000 -3.5000
v -7.5000 21.0000 -4.5000
v -7.5000 20.0000 -4.5000
v -6.5000 20.0000 3.5000
v -6.5000 21.0000 3.5000
v -6.5000 20.0000 2.5000
v -6.5000 20.0000 1.5000
v -6.5000 21.0000 1.5000
v -6.5000 21.0000 0.5000
v -6.5000 20.0000 0.5000
v -6.5000 21.0000 -0.5000
v -6.5000 20.0000 -0.5000
v -6.5000 21.0000 -1.5000
v -6.5000 20.0000 -1.5000
v -6.5000 20.0000 -2.5000
v -6.5000 20.0000 -3.5000
v -6.5000 21.0000 -4.5000
v -6.5000 20.0000 -4.5000
v -5.5000 20.0000 3.5000
v -5.5000 21.0000 3.5000
v -5.5000 20.0000 2.5000
v -5.5000 20.0000 1.5000
v -5.5000 21.0000 1.5000
v -5.5000 21.0000 0.5000
v -5.5000 20.0000 0.5000
v -5.5000 21.0000 -0.5000
v -5.5000 20.0000 -0.5000
v -5.5000 21.0000 -1.5000
v -5.5000 20.0000 -1.5000
v -5.5000 20.0000 -2.5000
v -5.5000 20.0000 -3.5000
v -5.5000 21.0000 -4.5000
v -5.5000 20.0000 -4.5000
v -4.5000 20.0000 3.5000
v -4.5000 21.0000 3.5000
v -4.5000 20.0000 2.5000
v -4.5000 20.0000 1.5000
v -4.5000 21.0000 1.5000
v -4.5000 21.0000 0.5000
v -4.5000 20.0000 0.5000
v -4.5000 21.0000 -0.5000
v -4.5000 20.0000 -0.5000
v -4.5000 21.0000 -1.5000
v -4.5000 20.0000 -1.5000
v -4.5000 20.0000 -2.5000
v -4.5000 20.0000 -3.5000
v -4.5000 21.0000 -4.5000
v -4.5000 20.0000 -4.5000
v -3.5000 21.0000 1.5000
v -3.5000 21.0000 0.5000
v -3.5000 20.0000 0.5000
v -3.5000 21.0000 -0.5000
v -3.5000 20.0000 -0.5000
v -3.5000 21.0000 -1.5000
v -2.5000 21.0000 1.5000
v -2.5000 21.0000 0.5000
v -2.5000 20.0000 0.5000
v -2.5000 21.0000 -0.5000
v -2.5000 20.0000 -0.5000
v -2.5000 21.0000 -1.5000
v 1.5000 22.0000 -1.5000
v 1.5000 22.0000 -2.5000
v 2.5000 22.0000 -1.5000
v 2.5000 22.0000 -2.5000
v 1.5000 22.0000 -3.5000
v 2.5000 22.0000 -3.5000
v 1.5000 22.0000 -4.5000
v 2.5000 22.0000 -4.5000
v 1.5000 22.0000 -5.5000
v 2.5000 22.0000 -5.5000
v 1.5000 22.0000 -6.5000
v 2.5000 22.0000 -6.5000
v 1.5000 22.0000 -7.5000
v 2.5000 22.0000 -7.5000
v 1.5000 22.0000 -8.5000
v 2.5000 22.0000 -8.5000
v 3.5000 22.0000 -1.5000
v 3.5000 22.0000 -2.5000
v 3.5000 22.0000 -3.5000
v 3.5000 22.0000 -4.5000
v 3.5000 22.0000 -5.5000
v 3.5000 22.0000 -6.5000
v 3.5000 22.0000 -7.5000
v 3.5000 22.0000 -8.5000
v 4.5000 22.0000 -1.5000
v 4.5000 22.0000 -2.5000
v 4.5000 22.0000 -3.5000
v 4.5000 22.0000 -4.5000
v 4.5000 22.0000 -5.5000
v 4.5000 22.0000 -6.5000
v 4.5000 22.0000 -7.5000
v 4.5000 22.0000 -8.5000
v 5.5000 22.0000 -1.5000
v 5.5000 22.0000 -2.5000
v 5.5000 22.0000 -3.5000
v 5.5000 22.0000 -4.5000
v 5.5000 22.0000 -5.5000
v 5.5000 21.0000 -5.5000
v 5.5000 22.0000 -6.5000
v 5.5000 21.0000 -6.5000
v 5.5000 22.0000 -7.5000
v 5.5000 21.0000 -7.5000
v 5.5000 22.0000 -8.5000
v 5.5000 21.0000 -8.5000
v 6.5000 22.0000 -1.5000
v 6.5000 22.0000 -2.5000
v 6.5000 22.0000 -3.5000
v 6.5000 22.0000 -4.5000
v 6.5000 22.0000 -5.5000
v 6.5000 21.0000 -5.5000
v 6.5000 22.0000 -6.5000
v 6.5000 21.0000 -6.5000
v 6.5000 22.0000 -7.5000
v 6.5000 21.0000 -7.5000
v 6.5000 22.0000 -8.5000
v 6.5000 21.0000 -8.5000
v 7.5000 22.0000 -1.5000
v 7.5000 22.0000 -2.5000
v 7.5000 22.0000 -3.5000
v 7.5000 22.0000 -4.5000
v 7.5000 22.0000 -5.5000
v 7.5000 21.0000 -5.5000
v 7.5000 22.0000 -6.5000
v 7.5000 21.0000 -6.5000
v 7.5000 22.0000 -7.5000
v 7.5000 21.0000 -7.5000
v 7.5000 22.0000 -8.5000
v 7.5000 21.0000 -8.5000
v 8.5000 22.0000 -2.5000
v 8.5000 22.0000 -1.5000
v 8.5000 22.0000 -3.5000
v 8.5000 22.0000 -4.5000
v 8.5000 21.0000 -5.5000
v 8.5000 22.0000 -5.5000
v 8.5000 21.0000 -6.5000
v 8.5000 22.0000 -6.5000
v 8.5000 21.0000 -7.5000
v 8.5000 22.0000 -7.5000
v 8.5000 21.0000 -8.5000
v 8.5000 22.0000 -8.5000
v -8.5000 22.0000 -1.5000
v -8.5000 22.0000 -2.5000
v -7.5000 22.0000 -1.5000
v -7.5000 22.0000 -2.5000
v -8.5000 22.0000 -3.5000
v -7.5000 22.0000 -3.5000
v -8.5000 22.0000 -4.5000
v -7.5000 22.0000 -4.5000
v -8.5000 22.0000 -5.5000
v -8.5000 21.0000 -5.5000
v -7.5000 22.0000 -5.5000
v -7.5000 21.0000 -5.5000
v -8.5000 22.0000 -6.5000
v -8.5000 21.0000 -6.5000
v -7.5000 22.0000 -6.5000
v -7.5000 21.0000 -6.5000
v -8.5000 22.0000 -7.5000
v -8.5000 21.0000 -7.5000
v -7.5000 22.0000 -7.5000
v -7.5000 21.0000 -7.5000
v -8.5000 22.0000 -8.5000
v -8.5000 21.0000 -8.5000
v -7.5000 22.0000 -8.5000
v -7.5000 21.0000 -8.5000
v -6.5000 22.0000 -1.5000
v -6.5000 22.0000 -2.5000
v -6.5000 22.0000 -3.5000
v -6.5000 22.0000 -4.5000
v -6.5000 22.0000 -5.5000
v -6.5000 21.0000 -5.5000
v -6.5000 22.0000 -6.5000
v -6.5000 21.0000 -6.5000
v -6.5000 22.0000 -7.5000
v -6.5000 21.0000 -7.5000
v -6.5000 22.0000 -8.5000
v -6.5000 21.0000 -8.5000
v -5.5000 22.0000 -1.5000
v -5.5000 22.0000 -2.5000
v -5.5000 22.0000 -3.5000
v -5.5000 22.0000 -4.5000
v -5.5000 22.0000 -5.5000
v -5.5000 21.0000 -5.5000
v -5.5000 22.0000 -6.5000
v -5.5000 21.0000 -6.5000
v -5.5000 22.0000 -7.5000
v -5.5000 21.0000 -7.5000
v -5.5000 22.0000 -8.5000
v -5.5000 21.0000 -8.5000
v -4.5000 22.0000 -1.5000
v -4.5000 22.0000 -2.5000
v -4.5000 22.0000 -3.5000
v -4.5000 22.0000 -4.5000
v -4.5000 22.0000 -5.5000
v -4.5000 21.0000 -5.5000
v -4.5000 22.0000 -6.5000
v -4.5000 21.0000 -6.5000
v -4.5000 22.0000 -7.5000
v -4.5000 21.0000 -7.5000
v -4.5000 22.0000 -8.5000
v -4.5000 21.0000 -8.5000
v -3.5000 22.0000 -1.5000
v -3.5000 22.0000 -2.5000
v -3.5000 22.0000 -3.5000
v -3.5000 22.0000 -4.5000
v -3.5000 22.0000 -5.5000
v -3.5000 22.0000 -6.5000
v -3.5000 22.0000 -7.5000
v -3.5000 22.0000 -8.5000
v -2.5000 22.0000 -1.5000
v -2.5000 22.0000 -2.5000
v -2.5000 22.0000 -3.5000
v -2.5000 22.0000 -4.5000
v -2.5000 22.0000 -5.5000
v -2.5000 22.0000 -6.5000
v -2.5000 22.0000 -7.5000
v -2.5000 22.0000 -8.5000
v -1.5000 22.0000 -2.5000
v -1.5000 22.0000 -1.5000
v -1.5000 22.0000 -3.5000
v -1.5000 22.0000 -4.5000
v -1.5000 22.0000 -5.5000
v -1.5000 22.0000 -6.5000
v -1.5000 22.0000 -7.5000
v -1.5000 22.0000 -8.5000
v 1.5000 22.0000 8.5000
v 1.5000 22.0000 7.5000
v 2.5000 22.0000 8.5000
v 2.5000 22.0000 7.5000
v 1.5000 22.0000 6.5000
v 2.5000 22.0000 6.5000
v 1.5000 22.0000 5.5000
v 2.5000 22.0000 5.5000
v 1.5000 22.0000 4.5000
v 2.5000 22.0000 4.5000
v 1.5000 22.0000 3.5000
v 2.5000 22.0000 3.5000
v 1.5000 22.0000 2.5000
v 2.5000 22.0000 2.5000
v 1.5000 22.0000 1.5000
v 2.5000 22.0000 1.5000
v 3.5000 22.0000 8.5000
v 3.5000 22.0000 7.5000
v 3.5000 22.0000 6.5000
v 3.5000 22.0000 5.5000
v 3.5000 22.0000 4.5000
v 3.5000 22.0000 3.5000
v 3.5000 22.0000 2.5000
v 3.5000 22.0000 1.5000
v 4.5000 22.0000 8.5000
v 4.5000 22.0000 7.5000
v 4.5000 22.0000 6.5000
v 4.5000 22.0000 5.5000
v 4.5000 22.0000 4.5000
v 4.5000 22.0000 3.5000
v 4.5000 22.0000 2.5000
v 4.5000 22.0000 1.5000
v 5.5000 21.0000 8.5000
v 5.5000 22.0000 8.5000
v 5.5000 22.0000 7.5000
v 5.5000 21.0000 7.5000
v 5.5000 22.0000 6.5000
v 5.5000 21.0000 6.5000
v 5.5000 22.0000 5.5000
v 5.5000 21.0000 5.5000
v 5.5000 22.0000 4.5000
v 5.5000 21.0000 4.5000
v 5.5000 22.0000 3.5000
v 5.5000 22.0000 2.5000
v 5.5000 22.0000 1.5000
v 6.5000 21.0000 8.5000
v 6.5000 22.0000 8.5000
v 6.5000 22.0000 7.5000
v 6.5000 21.0000 7.5000
v 6.5000 22.0000 6.5000
v 6.5000 21.0000 6.5000
v 6.5000 22.0000 5.5000
v 6.5000 21.0000 5.5000
v 6.5000 22.0000 4.5000
v 6.5000 21.0000 4.5000
v 6.5000 22.0000 3.5000
v 6.5000 22.0000 2.5000
v 6.5000 22.0000 1.5000
v 7.5000 21.0000 8.5000
v 7.5000 22.0000 8.5000
v 7.5000 22.0000 7.5000
v 7.5000 21.0000 7.5000
v 7.5000 22.0000 6.5000
v 7.5000 21.0000 6.5000
v 7.5000 22.0000 5.5000
v 7.5000 21.0000 5.5000
v 7.5000 22.0000 4.5000
v 7.5000 21.0000 4.5000
v 7.5000 22.0000 3.5000
v 7.5000 22.0000 2.5000
v 7.5000 22.0000 1.5000
v 8.5000 21.0000 8.5000
v 8.5000 21.0000 7.5000
v 8.5000 22.0000 7.5000
v 8.5000 22.0000 8.5000
v 8.5000 21.0000 6.5000
v 8.5000 22.0000 6.5000
v 8.5000 21.0000 5.5000
v 8.5000 22.0000 5.5000
v 8.5000 21.0000 4.5000
v 8.5000 22.0000 4.5000
v 8.5000 22.0000 3.5000
v 8.5000 22.0000 2.5000
v 8.5000 22.0000 1.5000
v -8.5000 21.0000 8.5000
v -8.5000 22.0000 8.5000
v -8.5000 22.0000 7.5000
v -8.5000 21.0000 7.5000
v -7.5000 21.0000 8.5000
v -7.5000 22.0000 8.5000
v -7.5000 22.0000 7.5000
v -7.5000 21.0000 7.5000
v -8.5000 22.0000 6.5000
v -8.5000 21.0000 6.5000
v -7.5000 22.0000 6.5000
v -7.5000 21.0000 6.5000
v -8.5000 22.0000 5.5000
v -8.5000 21.0000 5.5000
v -7.5000 22.0000 5.5000
v -7.5000 21.0000 5.5000
v -8.5000 22.0000 4.5000
v -8.5000 21.0000 4.5000
v -7.5000 22.0000 4.5000
v -7.5000 21.0000 4.5000
v -8.5000 22.0000 3.5000
v -7.5000 22.0000 3.5000
v -8.5000 22.0000 2.5000
v -7.5000 22.0000 2.5000
v -8.5000 22.0000 1.5000
v -7.5000 22.0000 1.5000
v -6.5000 21.0000 8.5000
v -6.5000 22.0000 8.5000
v -6.5000 22.0000 7.5000
v -6.5000 21.0000 7.5000
v -6.5000 22.0000 6.5000
v -6.5000 21.0000 6.5000
v -6.5000 22.0000 5.5000
v -6.5000 21.0000 5.5000
v -6.5000 22.0000 4.5000
v -6.5000 21.0000 4.5000
v -6.5000 22.0000 3.5000
v -6.5000 22.0000 2.5000
v -6.5000 22.0000 1.5000
v -5.5000 21.0000 8.5000
v -5.5000 22.0000 8.5000
v -5.5000 22.0000 7.5000
v -5.5000 21.0000 7.5000
v -5.5000 22.0000 6.5000
v -5.5000 21.0000 6.5000
v -5.5000 22.0000 5.5000
v -5.5000 21.0000 5.5000
v -5.5000 22.0000 4.5000
v -5.5000 21.0000 4.5000
v -5.5000 22.0000 3.5000
v -5.5000 22.0000 2.5000
v -5.5000 22.0000 1.5000
v -4.5000 21.0000 8.5000
v -4.5000 22.0000 8.5000
v -4.5000 22.0000 7.5000
v -4.5000 21.0000 7.5000
v -4.5000 22.0000 6.5000
v -4.5000 21.0000 6.5000
v -4.5000 22.0000 5.5000
v -4.5000 21.0000 5.5000
v -4.5000 22.0000 4.5000
v -4.5000 21.0000 4.5000
v -4.5000 22.0000 3.5000
v -4.5000 22.0000 2.5000
v -4.5000 22.0000 1.5000
v -3.5000 22.0000 8.5000
v -3.5000 22.0000 7.5000
v -3.5000 22.0000 6.5000
v -3.5000 22.0000 5.5000
v -3.5000 22.0000 4.5000
v -3.5000 22.0000 3.5000
v -3.5000 22.0000 2.5000
v -3.5000 22.0000 1.5000
v -2.5000 22.0000 8.5000
v -2.5000 22.0000 7.5000
v -2.5000 22.0000 6.5000
v -2.5000 22.0000 5.5000
v -2.5000 22.0000 4.5000
v -2.5000 22.0000 3.5000
v -2.5000 22.0000 2.5000
v -2.5000 22.0000 1.5000
v -1.5000 22.0000 7.5000
v -1.5000 22.0000 8.5000
v -1.5000 22.0000 6.5000
v -1.5000 22.0000 5.5000
v -1.5000 22.0000 4.5000
v -1.5000 22.0000 3.5000
v -1.5000 22.0000 2.5000
v -1.5000 22.0000 1.5000
v -5.5000 0.0000 1.5000
v -5.5000 1.0000 1.5000
v -5.5000 1.0000 0.5000
v -5.5000 0.0000 0.5000
v -5.5000 2.0000 1.5000
v -5.5000 2.0000 0.5000
v -4.5000 2.0000 1.5000
v -4.5000 2.0000 0.5000
v -5.5000 1.0000 -0.5000
v -5.5000 0.0000 -0.5000
v -5.5000 2.0000 -0.5000
v -4.5000 2.0000 -0.5000
v 3.5000 2.0000 1.5000
v 3.5000 2.0000 0.5000
v 3.5000 2.0000 -0.5000
v 4.5000 0.0000 1.5000
v 4.5000 0.0000 0.5000
v 4.5000 1.0000 0.5000
v 4.5000 1.0000 1.5000
v 4.5000 2.0000 0.5000
v 4.5000 2.0000 1.5000
v 4.5000 0.0000 -0.5000
v 4.5000 1.0000 -0.5000
v 4.5000 2.0000 -0.5000
v -1.5000 0.0000 5.5000
v -1.5000 1.0000 5.5000
v -0.5000 0.0000 5.5000
v -0.5000 1.0000 5.5000
v -1.5000 2.0000 5.5000
v -1.5000 2.0000 4.5000
v -0.5000 2.0000 5.5000
v -0.5000 2.0000 4.5000
v 0.5000 0.0000 5.5000
v 0.5000 1.0000 5.5000
v 0.5000 2.0000 4.5000
v 0.5000 2.0000 5.5000
v -1.5000 2.0000 -1.5000
v -0.5000 2.0000 -1.5000
v -1.5000 2.0000 -2.5000
v -0.5000 2.0000 -2.5000
v -1.5000 2.0000 -3.5000
v -0.5000 2.0000 -3.5000
v -1.5000 1.0000 -4.5000
v -1.5000 0.0000 -4.5000
v -0.5000 1.0000 -4.5000
v -0.5000 0.0000 -4.5000
v -1.5000 2.0000 -4.5000
v -0.5000 2.0000 -4.5000
v 0.5000 2.0000 -1.5000
v 0.5000 2.0000 -2.5000
v 0.5000 2.0000 -3.5000
v 0.5000 0.0000 -4.5000
v 0.5000 1.0000 -4.5000
v 0.5000 2.0000 -4.5000
usemtl c1
f 146 147 148 149
f 149 148 150 151
f 151 150 152 153
f 153 154 155 156
f 153 152 157 154
f 154 158 159 155
f 154 157 160 158
f 158 161 162 159
f 158 160 163 161
f 161 164 165 162
f 161 163 166 164
f 167 168 169 170
f 171 172 173 174
f 172 175 176 173
f 175 177 178 176
f 177 179 180 178
f 179 181 182 180
f 181 183 184 182
f 183 185 186 184
f 185 187 188 186
f 187 189 190 188
f 189 191 192 190
f 191 193 194 192
f 193 195 196 194
f 195 197 198 196
f 197 199 200 198
f 156 155 201 199
f 199 201 202 200
f 155 159 203 201
f 201 203 204 202
f 159 162 205 203
f 203 205 206 204
f 162 165 207 205
f 205 207 208 206
f 207 209 210 208
f 170 169 210 209
f 147 211 212 148
f 148 212 213 150
f 150 213 214 152
f 214 215 216 217
f 152 214 217 157
f 217 216 218 219
f 157 217 219 160
f 219 218 220 221
f 160 219 221 163
f 221 220 222 223
f 163 221 223 166
f 223 222 224 225
f 168 225 224 169
f 174 173 226 227
f 173 176 228 226
f 176 178 229 228
f 178 180 230 229
f 180 182 231 230
f 182 184 232 231
f 184 186 233 232
f 186 188 234 233
f 188 190 235 234
f 190 192 236 235
f 192 194 237 236
f 194 196 238 237
f 196 198 239 238
f 198 200 240 239
f 215 240 241 216
f 200 202 241 240
f 216 241 242 218
f 202 204 242 241
f 218 242 243 220
f 204 206 243 242
f 220 243 244 222
f 206 208 244 243
f 222 244 245 224
f 208 210 245 244
f 169 224 245 210
f 247 248 249 250
f 247 246 251 248
f 248 252 253 249
f 248 251 254 252
f 252 255 256 253
f 252 254 257 255
f 255 258 259 256
f 255 257 260 258
f 258 261 262 259
f 258 260 263 261
f 261 264 265 262
f 261 263 266 264
f 264 267 268 265
f 264 266 269 267
f 267 270 271 268
f 267 269 272 270
f 270 273 274 271
f 270 272 275 273
f 273 276 277 274
f 273 275 278 276
f 276 279 280 277
f 276 278 281 279
f 279 282 283 280
f 279 281 284 282
f 282 285 286 283
f 282 284 287 285
f 285 288 289 286
f 285 287 290 288
f 288 290 291 289
f 250 249 294 292
f 292 294 295 293
f 249 253 296 294
f 294 296 297 295
f 253 256 298 296
f 296 298 299 297
f 256 259 300 298
f 298 300 301 299
f 259 262 302 300
f 300 302 303 301
f 262 265 304 302
f 302 304 305 303
f 265 268 306 304
f 304 306 307 305
f 268 271 308 306
f 306 308 309 307
f 271 274 310 308
f 308 310 311 309
f 274 277 312 310
f 310 312 313 311
f 277 280 314 312
f 312 314 315 313
f 280 283 316 314
f 314 316 317 315
f 283 286 318 316
f 316 318 319 317
f 286 289 320 318
f 318 320 321 319
f 289 291 321 320
f 246 322 323 251
f 251 323 324 254
f 254 324 325 257
f 257 325 326 260
f 260 326 327 263
f 263 327 328 266
f 266 328 329 269
f 269 329 330 272
f 272 330 331 275
f 275 331 332 278
f 278 332 146 281
f 281 146 149 284
f 284 149 151 287
f 287 151 153 290
f 290 153 156 291
f 293 295 172 171
f 295 297 175 172
f 297 299 177 175
f 299 301 179 177
f 301 303 181 179
f 303 305 183 181
f 305 307 185 183
f 307 309 187 185
f 309 311 189 187
f 311 313 191 189
f 313 315 193 191
f 315 317 195 193
f 317 319 197 195
f 319 321 199 197
f 291 156 199 321
f 334 333 335 336
f 336 335 337 338
f 338 337 339 340
f 340 339 341 342
f 342 341 343 344
f 344 343 345 346
f 346 345 347 348
f 348 347 349 350
f 350 349 351 352
f 352 351 353 354
f 354 353 355 211
f 211 355 356 212
f 212 356 357 213
f 213 357 358 214
f 214 358 359 215
f 227 226 361 360
f 226 228 362 361
f 228 229 363 362
f 229 230 364 363
f 230 231 365 364
f 231 232 366 365
f 232 233 367 366
f 233 234 368 367
f 234 235 369 368
f 235 236 370 369
f 236 237 371 370
f 237 238 372 371
f 238 239 373 372
f 239 240 374 373
f 215 359 374 240
f 375 376 377 378
f 333 375 378 335
f 378 377 379 380
f 335 378 380 337
f 380 379 381 382
f 337 380 382 339
f 382 381 383 384
f 339 382 384 341
f 384 383 385 386
f 341 384 386 343
f 386 385 387 388
f 343 386 388 345
f 388 387 389 390
f 345 388 390 347
f 390 389 391 392
f 347 390 392 349
f 392 391 393 394
f 349 392 394 351
f 394 393 395 396
f 351 394 396 353
f 396 395 397 398
f 353 396 398 355
f 398 397 399 400
f 355 398 400 356
f 400 399 401 402
f 356 400 402 357
f 402 401 403 404
f 357 402 404 358
f 358 404 403 359
f 376 405 406 377
f 360 361 406 405
f 377 406 407 379
f 361 362 407 406
f 379 407 408 381
f 362 363 408 407
f 381 408 409 383
f 363 364 409 408
f 383 409 410 385
f 364 365 410 409
f 385 410 411 387
f 365 366 411 410
f 387 411 412 389
f 366 367 412 411
f 389 412 413 391
f 367 368 413 412
f 391 413 414 393
f 368 369 414 413
f 393 414 415 395
f 369 370 415 414
f 395 415 416 397
f 370 371 416 415
f 397 416 417 399
f 371 372 417 416
f 399 417 418 401
f 372 373 418 417
f 401 418 419 403
f 373 374 419 418
f 359 403 419 374
f 420 422 423 421
f 420 424 425 422
f 422 426 427 423
f 422 425 428 426
f 426 429 430 427
f 426 428 431 429
f 429 432 433 430
f 429 431 434 432
f 432 435 436 433
f 432 434 437 435
f 435 438 439 436
f 435 437 440 438
f 438 441 442 439
f 438 440 443 441
f 441 444 445 442
f 441 443 446 444
f 444 447 448 445
f 444 446 449 447
f 447 450 451 448
f 447 449 452 450
f 450 453 454 451
f 450 452 455 453
f 453 455 456 454
f 421 423 323 322
f 423 427 324 323
f 427 430 325 324
f 430 433 326 325
f 433 436 327 326
f 436 439 328 327
f 439 442 329 328
f 442 445 330 329
f 445 448 331 330
f 448 451 332 331
f 451 454 146 332
f 454 456 147 146
f 458 457 459 460
f 424 458 460 425
f 460 459 461 462
f 425 460 462 428
f 462 461 463 464
f 428 462 464 431
f 464 463 465 466
f 431 464 466 434
f 466 465 467 468
f 434 466 468 437
f 468 467 469 470
f 437 468 470 440
f 470 469 471 472
f 440 470 472 443
f 472 471 473 474
f 443 472 474 446
f 474 473 475 476
f 446 474 476 449
f 476 475 477 478
f 449 476 478 452
f 478 477 479 480
f 452 478 480 455
f 455 480 479 456
f 457 334 336 459
f 459 336 338 461
f 461 338 340 463
f 463 340 342 465
f 465 342 344 467
f 467 344 346 469
f 469 346 348 471
f 471 348 350 473
f 473 350 352 475
f 475 352 354 477
f 477 354 211 479
f 456 479 211 147
usemtl c2
f 481 482 483 484
f 482 485 486 483
f 485 487 488 486
f 487 489 490 491
f 487 491 492 488
f 491 490 493 494
f 491 494 495 492
f 494 493 496 497
f 494 497 498 495
f 497 496 499 500
f 497 500 501 498
f 500 499 502 503
f 503 502 504 505
f 499 506 504 502
f 500 503 505 501
f 484 483 507 508
f 483 486 509 507
f 486 488 510 509
f 488 492 511 510
f 492 495 512 511
f 495 498 513 512
f 498 501 514 513
f 505 504 515 516
f 506 517 515 504
f 501 505 516 514
f 508 518 519 520
f 520 519 521 522
f 508 507 523 518
f 522 521 524 525
f 507 509 526 523
f 525 524 527 528
f 509 510 529 526
f 528 527 530 531
f 510 511 532 529
f 531 530 533 534
f 511 512 535 532
f 534 533 536 537
f 512 513 538 535
f 537 536 539 517
f 513 514 540 538
f 516 515 541 542
f 517 539 541 515
f 514 516 542 540
f 518 543 544 519
f 519 544 545 521
f 518 523 546 543
f 521 545 547 524
f 523 526 548 546
f 524 547 549 527
f 526 529 550 548
f 527 549 551 530
f 529 532 552 550
f 530 551 553 533
f 532 535 554 552
f 533 553 555 536
f 535 538 556 554
f 536 555 557 539
f 538 540 558 556
f 542 541 559 560
f 539 557 559 541
f 540 542 560 558
f 543 561 562 544
f 544 562 563 545
f 543 546 564 561
f 545 563 565 547
f 546 548 566 564
f 547 565 567 549
f 548 550 568 566
f 549 567 569 551
f 550 552 570 568
f 551 569 571 553
f 552 554 572 570
f 553 571 573 555
f 554 556 574 572
f 555 573 575 557
f 556 558 576 574
f 560 559 577 578
f 557 575 577 559
f 558 560 578 576
f 561 564 579 580
f 564 566 581 579
f 566 568 582 581
f 568 570 583 582
f 570 572 584 583
f 572 574 585 584
f 574 576 586 585
f 578 577 587 588
f 575 589 587 577
f 576 578 588 586
f 580 579 590 591
f 579 581 592 590
f 581 582 593 592
f 582 583 594 593
f 583 584 595 594
f 584 585 596 595
f 585 586 597 596
f 588 587 598 599
f 589 600 598 587
f 586 588 599 597
f 591 590 601 602
f 590 592 603 601
f 592 593 604 603
f 604 605 606 607
f 593 594 605 604
f 605 608 609 606
f 594 595 608 605
f 608 610 611 609
f 595 596 610 608
f 610 612 613 611
f 596 597 612 610
f 612 614 615 613
f 599 598 615 614
f 600 613 615 598
f 597 599 614 612
f 616 617 618 619
f 616 620 621 617
f 617 621 622 618
f 616 619 623 620
f 619 618 624 625
f 619 625 626 623
f 625 624 627 628
f 625 628 629 626
f 628 627 630 631
f 628 631 632 629
f 631 630 633 634
f 631 634 635 632
f 634 633 636 637
f 634 637 638 635
f 637 639 640 638
f 639 641 642 640
f 620 643 644 621
f 621 644 645 622
f 620 623 646 643
f 623 626 647 646
f 626 629 648 647
f 629 632 649 648
f 632 635 650 649
f 635 638 651 650
f 638 640 652 651
f 640 642 164 652
f 643 653 654 644
f 644 654 655 645
f 643 646 656 653
f 645 655 657 658
f 646 647 659 656
f 658 657 660 661
f 647 648 662 659
f 661 660 663 664
f 648 649 665 662
f 664 663 666 667
f 649 650 668 665
f 667 666 669 670
f 650 651 671 668
f 670 669 672 673
f 651 652 674 671
f 673 672 168 167
f 652 164 166 674
f 653 675 676 654
f 654 676 677 655
f 653 656 678 675
f 655 677 679 657
f 656 659 680 678
f 657 679 681 660
f 659 662 682 680
f 660 681 683 663
f 662 665 684 682
f 663 683 685 666
f 665 668 686 684
f 666 685 687 669
f 668 671 688 686
f 669 687 689 672
f 671 674 690 688
f 672 689 225 168
f 674 166 223 690
f 675 691 692 676
f 676 692 693 677
f 675 678 694 691
f 677 693 695 679
f 678 680 696 694
f 679 695 697 681
f 680 682 698 696
f 681 697 699 683
f 682 684 700 698
f 683 699 701 685
f 684 686 702 700
f 685 701 703 687
f 686 688 704 702
f 687 703 705 689
f 688 690 706 704
f 223 225 707 708
f 689 705 707 225
f 690 223 708 706
f 691 709 710 692
f 692 710 711 693
f 691 694 712 709
f 694 696 713 712
f 696 698 714 713
f 698 700 715 714
f 700 702 716 715
f 702 704 717 716
f 704 706 718 717
f 706 708 719 718
f 709 720 721 710
f 710 721 722 711
f 709 712 723 720
f 712 713 724 723
f 713 714 725 724
f 714 715 726 725
f 715 716 727 726
f 716 717 728 727
f 717 718 729 728
f 718 719 730 729
f 731 732 733 734
f 720 731 734 721
f 721 734 733 722
f 720 723 732 731
f 732 735 736 733
f 723 724 735 732
f 735 737 738 736
f 724 725 737 735
f 737 739 740 738
f 725 726 739 737
f 739 741 742 740
f 726 727 741 739
f 741 743 744 742
f 727 728 743 741
f 728 729 745 743
f 729 730 746 745
f 708 707 747 748
f 707 749 750 747
f 708 748 751 719
f 748 747 752 753
f 747 750 754 752
f 748 753 755 751
f 753 752 562 561
f 752 754 756 562
f 753 561 580 755
f 749 757 758 750
f 719 751 759 730
f 750 758 760 754
f 751 755 761 759
f 754 760 762 756
f 755 580 591 761
f 757 763 764 758
f 730 759 765 746
f 758 764 766 760
f 759 761 767 765
f 760 766 768 762
f 761 591 602 767
f 743 769 770 744
f 743 745 771 769
f 745 746 772 771
f 763 773 774 764
f 746 765 775 772
f 764 774 776 766
f 765 767 777 775
f 766 776 778 768
f 767 602 779 777
f 602 601 780 779
f 601 603 781 780
f 604 607 782 783
f 603 604 783 781
f 769 784 785 770
f 769 771 786 784
f 771 772 787 786
f 773 788 789 774
f 772 775 790 787
f 774 789 791 776
f 775 777 792 790
f 776 791 793 778
f 777 779 794 792
f 779 780 795 794
f 780 781 796 795
f 783 782 797 798
f 781 783 798 796
f 784 799 800 785
f 784 786 801 799
f 786 787 802 801
f 788 803 804 789
f 787 790 805 802
f 789 804 806 791
f 790 792 807 805
f 791 806 808 793
f 792 794 809 807
f 794 795 810 809
f 795 796 811 810
f 798 797 812 813
f 796 798 813 811
f 799 814 815 800
f 799 801 816 814
f 801 802 817 816
f 803 818 819 804
f 802 805 820 817
f 804 819 821 806
f 805 807 822 820
f 806 821 823 808
f 807 809 824 822
f 809 810 825 824
f 810 811 826 825
f 813 812 827 828
f 811 813 828 826
f 829 830 831 832
f 814 829 832 815
f 815 832 831 833
f 814 816 830 829
f 830 834 835 831
f 833 831 835 818
f 816 817 834 830
f 834 836 837 835
f 818 835 837 819
f 817 820 836 834
f 836 838 839 837
f 819 837 839 821
f 820 822 838 836
f 838 840 841 839
f 821 839 841 823
f 822 824 840 838
f 840 842 843 841
f 823 841 843 844
f 824 825 842 840
f 842 845 846 843
f 844 843 846 847
f 825 826 845 842
f 845 848 849 846
f 828 827 849 848
f 847 846 849 827
f 826 828 848 845
f 850 851 852 853
f 850 854 855 851
f 851 855 856 852
f 850 853 857 854
f 853 852 858 859
f 852 856 860 858
f 853 859 861 857
f 859 858 862 863
f 858 860 864 862
f 859 863 865 861
f 863 862 866 867
f 862 864 868 866
f 863 867 869 865
f 867 866 870 871
f 866 868 872 870
f 867 871 873 869
f 871 870 874 875
f 870 872 876 874
f 871 875 877 873
f 875 874 878 879
f 874 876 880 878
f 875 879 881 877
f 879 878 882 883
f 883 882 884 885
f 878 880 884 882
f 879 883 885 881
f 854 886 887 855
f 854 857 888 886
f 857 861 889 888
f 860 890 891 864
f 861 865 892 889
f 864 891 893 868
f 865 869 894 892
f 868 893 895 872
f 869 873 896 894
f 873 877 897 896
f 877 881 898 897
f 885 884 899 900
f 881 885 900 898
f 886 901 902 887
f 886 888 903 901
f 888 889 904 903
f 890 905 906 891
f 889 892 907 904
f 891 906 908 893
f 892 894 909 907
f 893 908 910 895
f 894 896 911 909
f 896 897 912 911
f 897 898 913 912
f 900 899 914 915
f 898 900 915 913
f 901 916 917 902
f 901 903 918 916
f 903 904 919 918
f 905 920 921 906
f 904 907 922 919
f 906 921 923 908
f 907 909 924 922
f 908 923 925 910
f 909 911 926 924
f 911 912 927 926
f 912 913 928 927
f 915 914 929 930
f 913 915 930 928
f 916 931 932 917
f 916 918 933 931
f 918 919 934 933
f 920 935 936 921
f 919 922 937 934
f 921 936 938 923
f 922 924 939 937
f 923 938 940 925
f 924 926 941 939
f 926 927 942 941
f 927 928 943 942
f 930 929 944 945
f 928 930 945 943
f 931 637 636 932
f 931 933 639 637
f 933 934 641 639
f 935 946 947 936
f 934 937 948 641
f 936 947 949 938
f 937 939 950 948
f 938 949 951 940
f 939 941 481 950
f 941 942 482 481
f 942 943 485 482
f 945 944 489 487
f 943 945 487 485
f 946 952 953 947
f 641 948 954 642
f 947 953 955 949
f 948 950 956 954
f 949 955 957 951
f 950 481 484 956
f 952 167 170 953
f 642 954 165 164
f 953 170 209 955
f 954 956 207 165
f 207 508 520 209
f 955 209 520 957
f 956 484 508 207
f 562 958 959 563
f 562 756 960 958
f 958 960 961 959
f 563 959 962 565
f 959 961 963 962
f 565 962 964 567
f 962 963 965 964
f 567 964 966 569
f 964 965 967 966
f 569 966 968 571
f 966 967 969 968
f 571 968 970 573
f 968 969 971 970
f 573 970 972 575
f 575 972 973 589
f 970 971 973 972
f 756 762 974 960
f 960 974 975 961
f 961 975 976 963
f 963 976 977 965
f 965 977 978 967
f 967 978 979 969
f 969 979 980 971
f 589 973 981 600
f 971 980 981 973
f 762 768 982 974
f 974 982 983 975
f 975 983 984 976
f 976 984 985 977
f 977 985 986 978
f 978 986 987 979
f 979 987 988 980
f 600 981 989 613
f 980 988 989 981
f 768 778 990 982
f 982 990 991 983
f 983 991 992 984
f 984 992 993 985
f 985 993 994 986
f 607 606 995 782
f 986 994 996 987
f 606 609 997 995
f 987 996 998 988
f 609 611 999 997
f 613 989 1000 1001
f 988 998 1000 989
f 611 613 1001 999
f 778 793 1002 990
f 990 1002 1003 991
f 991 1003 1004 992
f 992 1004 1005 993
f 993 1005 1006 994
f 782 995 1007 797
f 994 1006 1008 996
f 995 997 1009 1007
f 996 1008 1010 998
f 997 999 1011 1009
f 1001 1000 1012 1013
f 998 1010 1012 1000
f 999 1001 1013 1011
f 793 808 1014 1002
f 1002 1014 1015 1003
f 1003 1015 1016 1004
f 1004 1016 1017 1005
f 1005 1017 1018 1006
f 797 1007 1019 812
f 1006 1018 1020 1008
f 1007 1009 1021 1019
f 1008 1020 1022 1010
f 1009 1011 1023 1021
f 1013 1012 1024 1025
f 1010 1022 1024 1012
f 1011 1013 1025 1023
f 823 844 1026 1027
f 808 823 1027 1014
f 1014 1027 1026 1015
f 844 847 1028 1026
f 1015 1026 1028 1016
f 847 827 1029 1028
f 1016 1028 1029 1017
f 827 1030 1031 1029
f 1017 1029 1031 1018
f 812 1019 1030 827
f 1030 1032 1033 1031
f 1018 1031 1033 1020
f 1019 1021 1032 1030
f 1032 1034 1035 1033
f 1020 1033 1035 1022
f 1021 1023 1034 1032
f 1034 1036 1037 1035
f 1025 1024 1037 1036
f 1022 1035 1037 1024
f 1023 1025 1036 1034
f 872 1038 1039 876
f 872 895 1040 1038
f 1038 1040 1041 1039
f 876 1039 1042 880
f 1039 1041 1043 1042
f 880 1042 1044 884
f 1042 1043 1045 1044
f 884 1044 1046 1047
f 1044 1045 1048 1046
f 884 1047 1049 899
f 1047 1046 1050 1051
f 1046 1048 1052 1050
f 1047 1051 1053 1049
f 1051 1050 1054 1055
f 1050 1052 1056 1054
f 1051 1055 1057 1053
f 1055 1054 1058 1059
f 1059 1058 1060 1061
f 1054 1056 1060 1058
f 1055 1059 1061 1057
f 895 910 1062 1040
f 1040 1062 1063 1041
f 1041 1063 1064 1043
f 1043 1064 1065 1045
f 1045 1065 1066 1048
f 899 1049 1067 914
f 1048 1066 1068 1052
f 1049 1053 1069 1067
f 1052 1068 1070 1056
f 1053 1057 1071 1069
f 1061 1060 1072 1073
f 1056 1070 1072 1060
f 1057 1061 1073 1071
f 910 925 1074 1062
f 1062 1074 1075 1063
f 1063 1075 1076 1064
f 1064 1076 1077 1065
f 1065 1077 1078 1066
f 914 1067 1079 929
f 1066 1078 1080 1068
f 1067 1069 1081 1079
f 1068 1080 1082 1070
f 1069 1071 1083 1081
f 1073 1072 1084 1085
f 1070 1082 1084 1072
f 1071 1073 1085 1083
f 925 940 1086 1074
f 1074 1086 1087 1075
f 1075 1087 1088 1076
f 1076 1088 1089 1077
f 1077 1089 1090 1078
f 929 1079 1091 944
f 1078 1090 1092 1080
f 1079 1081 1093 1091
f 1080 1092 1094 1082
f 1081 1083 1095 1093
f 1085 1084 1096 1097
f 1082 1094 1096 1084
f 1083 1085 1097 1095
f 940 951 1098 1086
f 1086 1098 1099 1087
f 1087 1099 1100 1088
f 1088 1100 1101 1089
f 1089 1101 1102 1090
f 944 1091 490 489
f 1090 1102 1103 1092
f 1091 1093 493 490
f 1092 1103 1104 1094
f 1093 1095 496 493
f 1097 1096 1105 499
f 1094 1104 1105 1096
f 1095 1097 499 496
f 951 957 1106 1098
f 1098 1106 1107 1099
f 1099 1107 1108 1100
f 1100 1108 1109 1101
f 1101 1109 1110 1102
f 1102 1110 1111 1103
f 1103 1111 1112 1104
f 499 1105 1113 506
f 1104 1112 1113 1105
f 520 522 1114 1115
f 957 520 1115 1106
f 1106 1115 1114 1107
f 522 525 1116 1114
f 1107 1114 1116 1108
f 525 528 1117 1116
f 1108 1116 1117 1109
f 528 531 1118 1117
f 1109 1117 1118 1110
f 531 534 1119 1118
f 1110 1118 1119 1111
f 534 537 1120 1119
f 1111 1119 1120 1112
f 537 517 1121 1120
f 506 1113 1121 517
f 1112 1120 1121 1113
f 693 1122 1123 695
f 693 711 1124 1122
f 1122 1124 1125 1123
f 695 1123 1126 697
f 1123 1125 1127 1126
f 697 1126 1128 699
f 1126 1127 1129 1128
f 699 1128 1130 701
f 1128 1129 1131 1130
f 701 1130 1132 703
f 1130 1131 1133 1132
f 703 1132 1134 705
f 1132 1133 1135 1134
f 705 1134 1136 707
f 707 1136 1137 749
f 1134 1135 1137 1136
f 711 722 1138 1124
f 1124 1138 1139 1125
f 1125 1139 1140 1127
f 1127 1140 1141 1129
f 1129 1141 1142 1131
f 1131 1142 1143 1133
f 1133 1143 1144 1135
f 749 1137 1145 757
f 1135 1144 1145 1137
f 722 733 1146 1138
f 1138 1146 1147 1139
f 1139 1147 1148 1140
f 1140 1148 1149 1141
f 1141 1149 1150 1142
f 1142 1150 1151 1143
f 1143 1151 1152 1144
f 757 1145 1153 763
f 1144 1152 1153 1145
f 733 1154 1155 1146
f 1146 1155 1156 1147
f 733 736 1157 1154
f 1147 1156 1158 1148
f 736 738 1159 1157
f 1148 1158 1160 1149
f 738 740 1161 1159
f 1149 1160 1162 1150
f 740 742 1163 1161
f 1150 1162 1164 1151
f 742 744 770 1163
f 1151 1164 1165 1152
f 763 1153 1166 773
f 1152 1165 1166 1153
f 1154 1167 1168 1155
f 1155 1168 1169 1156
f 1154 1157 1170 1167
f 1156 1169 1171 1158
f 1157 1159 1172 1170
f 1158 1171 1173 1160
f 1159 1161 1174 1172
f 1160 1173 1175 1162
f 1161 1163 1176 1174
f 1162 1175 1177 1164
f 1163 770 785 1176
f 1164 1177 1178 1165
f 773 1166 1179 788
f 1165 1178 1179 1166
f 1167 1180 1181 1168
f 1168 1181 1182 1169
f 1167 1170 1183 1180
f 1169 1182 1184 1171
f 1170 1172 1185 1183
f 1171 1184 1186 1173
f 1172 1174 1187 1185
f 1173 1186 1188 1175
f 1174 1176 1189 1187
f 1175 1188 1190 1177
f 1176 785 800 1189
f 1177 1190 1191 1178
f 788 1179 1192 803
f 1178 1191 1192 1179
f 1193 1194 1195 1196
f 1180 1193 1196 1181
f 1181 1196 1195 1182
f 1180 1183 1194 1193
f 1194 1197 1198 1195
f 1182 1195 1198 1184
f 1183 1185 1197 1194
f 1197 1199 1200 1198
f 1184 1198 1200 1186
f 1185 1187 1199 1197
f 1199 1201 1202 1200
f 1186 1200 1202 1188
f 1187 1189 1201 1199
f 1201 815 1203 1202
f 1188 1202 1203 1190
f 1189 800 815 1201
f 815 833 1204 1203
f 1190 1203 1204 1191
f 833 818 1205 1204
f 803 1192 1205 818
f 1191 1204 1205 1192
f 1206 1207 1208 1209
f 1206 1210 1211 1207
f 1207 1211 1212 1208
f 1206 1209 1213 1210
f 1209 1208 1214 1215
f 1208 1212 1216 1214
f 1209 1215 1217 1213
f 1215 1214 1218 1219
f 1214 1216 1220 1218
f 1215 1219 1221 1217
f 1219 1218 1222 1223
f 1218 1220 1224 1222
f 1219 1223 1225 1221
f 1223 1222 1226 855
f 1222 1224 1227 1226
f 1223 855 887 1225
f 855 1226 1228 856
f 1226 1227 1229 1228
f 856 1228 1230 860
f 860 1230 1231 890
f 1228 1229 1231 1230
f 1210 1232 1233 1211
f 1211 1233 1234 1212
f 1210 1213 1235 1232
f 1212 1234 1236 1216
f 1213 1217 1237 1235
f 1216 1236 1238 1220
f 1217 1221 1239 1237
f 1220 1238 1240 1224
f 1221 1225 1241 1239
f 1224 1240 1242 1227
f 1225 887 902 1241
f 1227 1242 1243 1229
f 890 1231 1244 905
f 1229 1243 1244 1231
f 1232 1245 1246 1233
f 1233 1246 1247 1234
f 1232 1235 1248 1245
f 1234 1247 1249 1236
f 1235 1237 1250 1248
f 1236 1249 1251 1238
f 1237 1239 1252 1250
f 1238 1251 1253 1240
f 1239 1241 1254 1252
f 1240 1253 1255 1242
f 1241 902 917 1254
f 1242 1255 1256 1243
f 905 1244 1257 920
f 1243 1256 1257 1244
f 1245 1258 1259 1246
f 1246 1259 1260 1247
f 1245 1248 1261 1258
f 1247 1260 1262 1249
f 1248 1250 1263 1261
f 1249 1262 1264 1251
f 1250 1252 1265 1263
f 1251 1264 1266 1253
f 1252 1254 1267 1265
f 1253 1266 1268 1255
f 1254 917 932 1267
f 1255 1268 1269 1256
f 920 1257 1270 935
f 1256 1269 1270 1257
f 1258 618 1271 1259
f 1259 1271 1272 1260
f 1258 1261 624 618
f 1260 1272 1273 1262
f 1261 1263 627 624
f 1262 1273 1274 1264
f 1263 1265 630 627
f 1264 1274 1275 1266
f 1265 1267 633 630
f 1266 1275 1276 1268
f 1267 932 636 633
f 1268 1276 1277 1269
f 935 1270 1278 946
f 1269 1277 1278 1270
f 618 622 1279 1271
f 1271 1279 1280 1272
f 1272 1280 1281 1273
f 1273 1281 1282 1274
f 1274 1282 1283 1275
f 1275 1283 1284 1276
f 1276 1284 1285 1277
f 946 1278 1286 952
f 1277 1285 1286 1278
f 645 658 1287 1288
f 622 645 1288 1279
f 1279 1288 1287 1280
f 658 661 1289 1287
f 1280 1287 1289 1281
f 661 664 1290 1289
f 1281 1289 1290 1282
f 664 667 1291 1290
f 1282 1290 1291 1283
f 667 670 1292 1291
f 1283 1291 1292 1284
f 670 673 1293 1292
f 1284 1292 1293 1285
f 673 167 1294 1293
f 952 1286 1294 167
f 1285 1293 1294 1286
usemtl c3
f 14 17 18 16
f 17 19 20 18
f 16 18 43 42
f 18 20 44 43
f 42 43 60 59
f 43 44 61 60
f 52 55 69 70
f 55 57 71 69
f 57 59 72 71
f 61 64 75 74
f 64 66 76 75
f 66 68 77 76
f 70 69 78 79
f 69 71 80 78
f 71 72 81 80
f 74 75 84 83
f 75 76 85 84
f 76 77 86 85
f 81 82 99 98
f 82 83 100 99
f 98 99 120 119
f 99 100 121 120
f 119 120 137 135
f 120 121 138 137
f 15 41 246 247
f 24 292 293 45
f 41 58 322 246
f 45 293 171 62
f 97 96 333 334
f 101 227 360 102
f 96 118 375 333
f 102 360 405 122
f 54 420 421 56
f 56 421 322 58
f 91 94 457 458
f 94 97 334 457
f 13 15 247 1301
f 1301 247 250 1302
f 21 1306 292 24
f 1302 250 292 1306
f 118 136 1307 375
f 375 1307 1308 376
f 122 405 1309 141
f 376 1308 1309 405
f 53 1324 420 54
f 1324 1326 424 420
f 89 91 458 1329
f 1326 1329 458 424
f 62 171 1331 63
f 171 174 1332 1331
f 63 1331 1333 65
f 1331 1332 1334 1333
f 65 1333 1335 67
f 1333 1334 1336 1335
f 101 104 1343 227
f 174 227 1343 1332
f 104 107 1344 1343
f 1332 1343 1344 1334
f 107 109 1345 1344
f 1334 1344 1345 1336
usemtl c4
f 1295 1296 1297 1298
f 1295 14 13 1296
f 1295 1298 17 14
f 1296 1299 1300 1297
f 1296 13 1301 1299
f 1299 1301 1302 1300
f 1298 1297 1303 1304
f 1304 1303 21 19
f 1298 1304 19 17
f 1297 1300 1305 1303
f 1303 1305 1306 21
f 1300 1302 1306 1305
f 1310 1311 1312 1313
f 135 1310 1313 136
f 135 137 1311 1310
f 1313 1312 1314 1315
f 136 1313 1315 1307
f 1307 1315 1314 1308
f 1311 1316 1317 1312
f 138 141 1317 1316
f 137 138 1316 1311
f 1312 1317 1318 1314
f 141 1309 1318 1317
f 1308 1314 1318 1309
f 1319 1320 53 52
f 1319 1321 1322 1320
f 1319 52 70 1321
f 1320 1323 1324 53
f 1320 1322 1325 1323
f 1323 1325 1326 1324
f 1327 79 89 1328
f 1321 1327 1328 1322
f 1321 70 79 1327
f 1328 89 1329 1330
f 1322 1328 1330 1325
f 1325 1330 1329 1326
f 68 67 1337 1338
f 1338 1337 1339 1340
f 68 1338 1340 77
f 67 1335 1341 1337
f 1337 1341 1342 1339
f 1335 1336 1342 1341
f 86 1346 1347 109
f 1340 1339 1347 1346
f 77 1340 1346 86
f 109 1347 1348 1345
f 1339 1342 1348 1347
f 1336 1345 1348 1342
usemtl c5
f 1 2 3 4
f 1 5 6 2
f 2 6 7 3
f 1 4 8 5
f 4 3 9 10
f 3 7 11 9
f 4 10 12 8
f 10 9 13 14
f 9 11 15 13
f 10 14 16 12
f 19 21 22 23
f 21 24 25 22
f 19 23 26 20
f 23 22 27 28
f 22 25 29 27
f 23 28 30 26
f 28 27 31 32
f 32 31 33 34
f 27 29 33 31
f 28 32 34 30
f 5 35 36 6
f 6 36 37 7
f 5 8 38 35
f 7 37 39 11
f 8 12 40 38
f 11 39 41 15
f 12 16 42 40
f 24 45 46 25
f 20 26 47 44
f 25 46 48 29
f 26 30 49 47
f 34 33 50 51
f 29 48 50 33
f 30 34 51 49
f 35 52 53 36
f 36 53 54 37
f 35 38 55 52
f 37 54 56 39
f 38 40 57 55
f 39 56 58 41
f 40 42 59 57
f 45 62 63 46
f 44 47 64 61
f 46 63 65 48
f 47 49 66 64
f 51 50 67 68
f 48 65 67 50
f 49 51 68 66
f 59 60 73 72
f 60 61 74 73
f 72 73 82 81
f 73 74 83 82
f 79 87 88 89
f 89 88 90 91
f 79 78 92 87
f 91 90 93 94
f 78 80 95 92
f 94 93 96 97
f 80 81 98 95
f 101 102 103 104
f 83 84 105 100
f 104 103 106 107
f 84 85 108 105
f 86 109 110 111
f 107 106 110 109
f 85 86 111 108
f 87 112 113 88
f 88 113 114 90
f 87 92 115 112
f 90 114 116 93
f 92 95 117 115
f 93 116 118 96
f 95 98 119 117
f 102 122 123 103
f 100 105 124 121
f 103 123 125 106
f 105 108 126 124
f 111 110 127 128
f 106 125 127 110
f 108 111 128 126
f 129 130 131 132
f 112 129 132 113
f 113 132 131 114
f 112 115 130 129
f 130 133 134 131
f 114 131 134 116
f 115 117 133 130
f 133 135 136 134
f 116 134 136 118
f 117 119 135 133
f 138 139 140 141
f 122 141 140 123
f 121 124 139 138
f 139 142 143 140
f 123 140 143 125
f 124 126 142 139
f 142 144 145 143
f 128 127 145 144
f 125 143 145 127
f 126 128 144 142
